<svg width="36" height="36" viewBox="0 0 36 36" fill="none" xmlns="http://www.w3.org/2000/svg">
<path d="M32.3125 3.525H29.375V2.35C29.375 1.72674 29.1274 1.12901 28.6867 0.688299C28.246 0.247589 27.6483 0 27.025 0C26.4017 0 25.804 0.247589 25.3633 0.688299C24.9226 1.12901 24.675 1.72674 24.675 2.35V3.525H19.975V2.35C19.975 1.72674 19.7274 1.12901 19.2867 0.688299C18.846 0.247589 18.2483 0 17.625 0C17.0017 0 16.404 0.247589 15.9633 0.688299C15.5226 1.12901 15.275 1.72674 15.275 2.35V3.525H10.575V2.35C10.575 1.72674 10.3274 1.12901 9.8867 0.688299C9.44599 0.247589 8.84826 0 8.225 0C7.60174 0 7.00401 0.247589 6.5633 0.688299C6.12259 1.12901 5.875 1.72674 5.875 2.35V3.525H2.9375C2.15843 3.525 1.41126 3.83449 0.860374 4.38537C0.309486 4.93626 0 5.68343 0 6.4625V29.9625C0 30.7416 0.309486 31.4887 0.860374 32.0396C1.41126 32.5905 2.15843 32.9 2.9375 32.9H19.3875C19.5433 32.9 19.6927 32.8381 19.8029 32.7279C19.9131 32.6177 19.975 32.4683 19.975 32.3125C19.975 32.1567 19.9131 32.0073 19.8029 31.8971C19.6927 31.7869 19.5433 31.725 19.3875 31.725H2.9375C2.47048 31.7236 2.023 31.5375 1.69277 31.2072C1.36253 30.877 1.17639 30.4295 1.175 29.9625V11.75H34.075V21.7375C34.075 21.8933 34.1369 22.0427 34.2471 22.1529C34.3573 22.2631 34.5067 22.325 34.6625 22.325C34.8183 22.325 34.9678 22.2631 35.0779 22.1529C35.1881 22.0427 35.25 21.8933 35.25 21.7375V6.4625C35.25 5.68343 34.9405 4.93626 34.3896 4.38537C33.8387 3.83449 33.0916 3.525 32.3125 3.525ZM25.85 2.35C25.85 2.03837 25.9738 1.7395 26.1942 1.51915C26.4145 1.29879 26.7134 1.175 27.025 1.175C27.3366 1.175 27.6355 1.29879 27.8559 1.51915C28.0762 1.7395 28.2 2.03837 28.2 2.35V5.875C28.2 6.18663 28.0762 6.4855 27.8559 6.70585C27.6355 6.92621 27.3366 7.05 27.025 7.05C26.7134 7.05 26.4145 6.92621 26.1942 6.70585C25.9738 6.4855 25.85 6.18663 25.85 5.875V2.35ZM16.45 2.35C16.45 2.03837 16.5738 1.7395 16.7942 1.51915C17.0145 1.29879 17.3134 1.175 17.625 1.175C17.9366 1.175 18.2355 1.29879 18.4559 1.51915C18.6762 1.7395 18.8 2.03837 18.8 2.35V5.875C18.8 6.18663 18.6762 6.4855 18.4559 6.70585C18.2355 6.92621 17.9366 7.05 17.625 7.05C17.3134 7.05 17.0145 6.92621 16.7942 6.70585C16.5738 6.4855 16.45 6.18663 16.45 5.875V2.35ZM7.05 2.35C7.05 2.03837 7.17379 1.7395 7.39415 1.51915C7.61451 1.29879 7.91337 1.175 8.225 1.175C8.53663 1.175 8.8355 1.29879 9.05585 1.51915C9.27621 1.7395 9.4 2.03837 9.4 2.35V5.875C9.4 6.18663 9.27621 6.4855 9.05585 6.70585C8.8355 6.92621 8.53663 7.05 8.225 7.05C7.91337 7.05 7.61451 6.92621 7.39415 6.70585C7.17379 6.4855 7.05 6.18663 7.05 5.875V2.35ZM34.075 10.575H1.175V6.4625C1.17639 5.99549 1.36253 5.548 1.69277 5.21777C2.023 4.88753 2.47048 4.7014 2.9375 4.7H5.875V5.875C5.875 6.49826 6.12259 7.09599 6.5633 7.5367C7.00401 7.97741 7.60174 8.225 8.225 8.225C8.84826 8.225 9.44599 7.97741 9.8867 7.5367C10.3274 7.09599 10.575 6.49826 10.575 5.875V4.7H15.275V5.875C15.275 6.49826 15.5226 7.09599 15.9633 7.5367C16.404 7.97741 17.0017 8.225 17.625 8.225C18.2483 8.225 18.846 7.97741 19.2867 7.5367C19.7274 7.09599 19.975 6.49826 19.975 5.875V4.7H24.675V5.875C24.675 6.49826 24.9226 7.09599 25.3633 7.5367C25.804 7.97741 26.4017 8.225 27.025 8.225C27.6483 8.225 28.246 7.97741 28.6867 7.5367C29.1274 7.09599 29.375 6.49826 29.375 5.875V4.7H32.3125C32.7795 4.7014 33.227 4.88753 33.5572 5.21777C33.8875 5.548 34.0736 5.99549 34.075 6.4625V10.575Z" fill="black"/>
<path d="M16.45 15.8625C16.45 15.5509 16.3262 15.252 16.1059 15.0316C15.8855 14.8113 15.5866 14.6875 15.275 14.6875H12.925C12.6134 14.6875 12.3145 14.8113 12.0941 15.0316C11.8738 15.252 11.75 15.5509 11.75 15.8625V17.625C11.75 17.9366 11.8738 18.2355 12.0941 18.4559C12.3145 18.6762 12.6134 18.8 12.925 18.8H15.275C15.5866 18.8 15.8855 18.6762 16.1059 18.4559C16.3262 18.2355 16.45 17.9366 16.45 17.625V15.8625ZM12.925 17.625V15.8625H15.275V17.625H12.925Z" fill="black"/>
<path d="M9.39995 15.8625C9.39995 15.5509 9.27616 15.252 9.0558 15.0316C8.83545 14.8113 8.53658 14.6875 8.22495 14.6875H5.87495C5.56332 14.6875 5.26446 14.8113 5.0441 15.0316C4.82375 15.252 4.69995 15.5509 4.69995 15.8625V17.625C4.69995 17.9366 4.82375 18.2355 5.0441 18.4559C5.26446 18.6762 5.56332 18.8 5.87495 18.8H8.22495C8.53658 18.8 8.83545 18.6762 9.0558 18.4559C9.27616 18.2355 9.39995 17.9366 9.39995 17.625V15.8625ZM5.87495 17.625V15.8625H8.22495V17.625H5.87495Z" fill="black"/>
<path d="M29.375 18.8C29.6866 18.8 29.9855 18.6762 30.2058 18.4559C30.4262 18.2355 30.55 17.9366 30.55 17.625V15.8625C30.55 15.5509 30.4262 15.252 30.2058 15.0316C29.9855 14.8113 29.6866 14.6875 29.375 14.6875H27.025C26.7133 14.6875 26.4145 14.8113 26.1941 15.0316C25.9738 15.252 25.85 15.5509 25.85 15.8625V17.625C25.85 17.9366 25.9738 18.2355 26.1941 18.4559C26.4145 18.6762 26.7133 18.8 27.025 18.8H29.375ZM27.025 15.8625H29.375V17.625H27.025V15.8625Z" fill="black"/>
<path d="M16.45 21.1501C16.45 20.8385 16.3262 20.5396 16.1059 20.3192C15.8855 20.0989 15.5866 19.9751 15.275 19.9751H12.925C12.6134 19.9751 12.3145 20.0989 12.0941 20.3192C11.8738 20.5396 11.75 20.8385 11.75 21.1501V22.9126C11.75 23.2242 11.8738 23.5231 12.0941 23.7434C12.3145 23.9638 12.6134 24.0876 12.925 24.0876H15.275C15.5866 24.0876 15.8855 23.9638 16.1059 23.7434C16.3262 23.5231 16.45 23.2242 16.45 22.9126V21.1501ZM12.925 22.9126V21.1501H15.275V22.9126H12.925Z" fill="black"/>
<path d="M9.39995 21.1501C9.39995 20.8385 9.27616 20.5396 9.0558 20.3192C8.83545 20.0989 8.53658 19.9751 8.22495 19.9751H5.87495C5.56332 19.9751 5.26446 20.0989 5.0441 20.3192C4.82375 20.5396 4.69995 20.8385 4.69995 21.1501V22.9126C4.69995 23.2242 4.82375 23.5231 5.0441 23.7434C5.26446 23.9638 5.56332 24.0876 5.87495 24.0876H8.22495C8.53658 24.0876 8.83545 23.9638 9.0558 23.7434C9.27616 23.5231 9.39995 23.2242 9.39995 22.9126V21.1501ZM5.87495 22.9126V21.1501H8.22495V22.9126H5.87495Z" fill="black"/>
<path d="M15.275 25.2625H12.925C12.6134 25.2625 12.3145 25.3862 12.0941 25.6066C11.8738 25.827 11.75 26.1258 11.75 26.4375V28.2C11.75 28.5116 11.8738 28.8104 12.0941 29.0308C12.3145 29.2512 12.6134 29.375 12.925 29.375H15.275C15.5866 29.375 15.8855 29.2512 16.1059 29.0308C16.3262 28.8104 16.45 28.5116 16.45 28.2V26.4375C16.45 26.1258 16.3262 25.827 16.1059 25.6066C15.8855 25.3862 15.5866 25.2625 15.275 25.2625ZM12.925 28.2V26.4375H15.275V28.2H12.925Z" fill="black"/>
<path d="M19.975 18.8H22.325C22.6367 18.8 22.9355 18.6762 23.1559 18.4559C23.3763 18.2355 23.5 17.9366 23.5 17.625V15.8625C23.5 15.5509 23.3763 15.252 23.1559 15.0316C22.9355 14.8113 22.6367 14.6875 22.325 14.6875H19.975C19.6634 14.6875 19.3646 14.8113 19.1442 15.0316C18.9238 15.252 18.8 15.5509 18.8 15.8625V17.625C18.8 17.9366 18.9238 18.2355 19.1442 18.4559C19.3646 18.6762 19.6634 18.8 19.975 18.8ZM19.975 15.8625H22.325V17.625H19.975V15.8625Z" fill="black"/>
<path d="M18.8 22.9126C18.8 23.2242 18.9238 23.5231 19.1442 23.7434C19.3646 23.9638 19.6634 24.0876 19.975 24.0876C20.1309 24.0876 20.2803 24.0257 20.3905 23.9155C20.5007 23.8053 20.5625 23.6559 20.5625 23.5001C20.5625 23.3443 20.5007 23.1948 20.3905 23.0847C20.2803 22.9745 20.1309 22.9126 19.975 22.9126V21.1501H22.325C22.4809 21.1501 22.6303 21.0882 22.7405 20.978C22.8507 20.8678 22.9125 20.7184 22.9125 20.5626C22.9125 20.4068 22.8507 20.2573 22.7405 20.1472C22.6303 20.037 22.4809 19.9751 22.325 19.9751H19.975C19.6634 19.9751 19.3646 20.0989 19.1442 20.3192C18.9238 20.5396 18.8 20.8385 18.8 21.1501V22.9126Z" fill="black"/>
<path d="M8.22495 25.2625H5.87495C5.56332 25.2625 5.26446 25.3862 5.0441 25.6066C4.82375 25.827 4.69995 26.1258 4.69995 26.4375V28.2C4.69995 28.5116 4.82375 28.8104 5.0441 29.0308C5.26446 29.2512 5.56332 29.375 5.87495 29.375H8.22495C8.53658 29.375 8.83545 29.2512 9.0558 29.0308C9.27616 28.8104 9.39995 28.5116 9.39995 28.2V26.4375C9.39995 26.1258 9.27616 25.827 9.0558 25.6066C8.83545 25.3862 8.53658 25.2625 8.22495 25.2625ZM5.87495 28.2V26.4375H8.22495V28.2H5.87495Z" fill="black"/>
<path d="M27.6125 19.9751C26.1019 19.9751 24.6253 20.423 23.3693 21.2622C22.1133 22.1015 21.1344 23.2943 20.5563 24.6899C19.9783 26.0854 19.827 27.6211 20.1217 29.1026C20.4164 30.5841 21.1438 31.945 22.212 33.0131C23.2801 34.0812 24.6409 34.8086 26.1225 35.1033C27.604 35.398 29.1396 35.2468 30.5352 34.6687C31.9308 34.0907 33.1236 33.1117 33.9628 31.8558C34.802 30.5998 35.25 29.1231 35.25 27.6126C35.2476 25.5877 34.4422 23.6464 33.0104 22.2146C31.5786 20.7828 29.6374 19.9774 27.6125 19.9751ZM27.6125 34.0751C26.3343 34.0751 25.0849 33.6961 24.0221 32.986C22.9594 32.2759 22.131 31.2666 21.6419 30.0857C21.1528 28.9048 21.0248 27.6054 21.2742 26.3518C21.5235 25.0982 22.139 23.9467 23.0428 23.0429C23.9466 22.1391 25.0981 21.5236 26.3517 21.2743C27.6053 21.0249 28.9047 21.1529 30.0856 21.642C31.2664 22.1312 32.2757 22.9595 32.9858 24.0222C33.696 25.085 34.075 26.3344 34.075 27.6126C34.073 29.3259 33.3914 30.9685 32.1799 32.18C30.9684 33.3916 29.3258 34.0731 27.6125 34.0751Z" fill="black"/>
<path d="M31.007 25.1498L26.4374 29.7194L24.3606 27.642C24.2498 27.5349 24.1014 27.4757 23.9474 27.4771C23.7933 27.4784 23.646 27.5402 23.5371 27.6491C23.4281 27.758 23.3664 27.9054 23.365 28.0594C23.3637 28.2135 23.4229 28.3619 23.5299 28.4727L26.0221 30.9654C26.1323 31.0756 26.2817 31.1375 26.4374 31.1375C26.5932 31.1375 26.7426 31.0756 26.8528 30.9654L31.8377 25.9805C31.9448 25.8697 32.004 25.7213 32.0026 25.5673C32.0013 25.4132 31.9395 25.2659 31.8306 25.1569C31.7217 25.048 31.5743 24.9862 31.4203 24.9849C31.2662 24.9835 31.1178 25.0428 31.007 25.1498Z" fill="black"/>
</svg>
