<svg width="37" height="37" viewBox="0 0 37 37" fill="none" xmlns="http://www.w3.org/2000/svg">
<path d="M33.0522 7.07746H34.1954C34.5942 7.07746 34.9176 6.75407 34.9176 6.35528C34.9176 5.95649 34.5942 5.63309 34.1954 5.63309H31.4511C31.0523 5.63309 30.7289 5.95649 30.7289 6.35528V9.09957C30.7289 9.49836 31.0523 9.82175 31.4511 9.82175C31.8499 9.82175 32.1733 9.49836 32.1733 9.09957V8.30495C34.3645 11.2385 35.5556 14.7979 35.5556 18.5C35.5556 27.9045 27.9045 35.5556 18.5 35.5556C9.09545 35.5556 1.44436 27.9045 1.44436 18.5C1.44436 9.09545 9.09545 1.44436 18.5 1.44436C19.1955 1.44436 19.8955 1.48661 20.5808 1.56988C20.9761 1.61769 21.3367 1.33611 21.3848 0.940137C21.433 0.544237 21.1511 0.184156 20.7551 0.136059C20.0123 0.0457864 19.2536 0 18.5 0C13.5585 0 8.91267 1.92433 5.41853 5.41853C1.92433 8.91267 0 13.5585 0 18.5C0 23.4415 1.92433 28.0873 5.41853 31.5815C8.91267 35.0757 13.5585 37 18.5 37C23.4415 37 28.0873 35.0757 31.5815 31.5815C35.0757 28.0873 37 23.4415 37 18.5C37 14.33 35.6069 10.3268 33.0522 7.07746Z" fill="black"/>
<path d="M7.83373 10.906C7.49669 10.6927 7.0506 10.7931 6.83719 11.1299C5.18852 13.7338 4.45868 16.8653 4.78215 19.9477C5.11038 23.0757 6.51827 26.0255 8.7465 28.2538C11.4355 30.9429 14.9678 32.2874 18.5001 32.2874C22.0325 32.2874 25.5647 30.943 28.2538 28.2538C33.632 22.8757 33.632 14.1247 28.2538 8.74661C26.029 6.52186 23.084 5.11447 19.9611 4.78371C16.8845 4.45765 13.7563 5.18178 11.1535 6.82236C10.8161 7.03504 10.715 7.48099 10.9276 7.81839C11.1403 8.15587 11.5863 8.2569 11.9237 8.04429C16.83 4.95191 23.1251 5.66058 27.2324 9.76792C32.0474 14.5829 32.0474 22.4175 27.2324 27.2325C22.4175 32.0475 14.5828 32.0475 9.76788 27.2325C5.7173 23.1819 4.99801 16.7347 8.05761 11.9026C8.27087 11.5656 8.1707 11.1194 7.83373 10.906Z" fill="black"/>
<path d="M27.8883 19.2339H28.7789C29.1777 19.2339 29.5011 18.9105 29.5011 18.5117C29.5011 18.1129 29.1777 17.7896 28.7789 17.7896H27.8883C27.4895 17.7896 27.1661 18.1129 27.1661 18.5117C27.1661 18.9105 27.4895 19.2339 27.8883 19.2339Z" fill="black"/>
<path d="M7.49878 18.4883C7.49878 18.8871 7.82217 19.2105 8.22096 19.2105H9.11155C9.51034 19.2105 9.83374 18.8871 9.83374 18.4883C9.83374 18.0895 9.51034 17.7661 9.11155 17.7661H8.22096C7.82217 17.7661 7.49878 18.0894 7.49878 18.4883Z" fill="black"/>
<path d="M19.2339 9.11156V8.22096C19.2339 7.82217 18.9105 7.49878 18.5117 7.49878C18.1129 7.49878 17.7896 7.82217 17.7896 8.22096V9.11156C17.7896 9.51034 18.1129 9.83374 18.5117 9.83374C18.9105 9.83374 19.2339 9.51034 19.2339 9.11156Z" fill="black"/>
<path d="M17.7661 27.8884V28.779C17.7661 29.1778 18.0895 29.5012 18.4883 29.5012C18.8871 29.5012 19.2105 29.1778 19.2105 28.779V27.8884C19.2105 27.4897 18.8871 27.1663 18.4883 27.1663C18.0895 27.1663 17.7661 27.4896 17.7661 27.8884Z" fill="black"/>
<path d="M14.8801 13.8587C14.598 13.5767 14.1409 13.5767 13.8587 13.8587C13.5767 14.1407 13.5767 14.598 13.8587 14.88L16.3063 17.3276C16.1187 17.6771 16.0121 18.0763 16.0121 18.4999C16.0121 19.8718 17.1281 20.9878 18.5 20.9878C19.8718 20.9878 20.9879 19.8718 20.9879 18.4999C20.9879 18.0763 20.8812 17.6771 20.6937 17.3276L25.6322 12.3891C25.9142 12.1071 25.9142 11.6498 25.6322 11.3677C25.3501 11.0858 24.8929 11.0858 24.6108 11.3677L19.6723 16.3062C19.3228 16.1187 18.9236 16.012 18.5 16.012C18.0763 16.012 17.6772 16.1187 17.3277 16.3062L14.8801 13.8587ZM19.5435 18.4999C19.5435 19.0753 19.0754 19.5435 18.5 19.5435C17.9245 19.5435 17.4564 19.0753 17.4564 18.4999C17.4564 17.9245 17.9245 17.4564 18.5 17.4564C19.0754 17.4564 19.5435 17.9245 19.5435 18.4999Z" fill="black"/>
<path d="M9.76743 9.76743C9.90248 9.63311 9.97968 9.44678 9.97968 9.25685C9.97968 9.06691 9.90248 8.88131 9.76743 8.74627C9.63311 8.61201 9.44743 8.53467 9.25685 8.53467C9.06692 8.53467 8.88059 8.61194 8.74627 8.74627C8.61201 8.88059 8.53467 9.06691 8.53467 9.25685C8.53467 9.4475 8.61194 9.63311 8.74627 9.76743C8.88059 9.90168 9.06692 9.97903 9.25685 9.97903C9.44743 9.97903 9.63311 9.90168 9.76743 9.76743Z" fill="black"/>
<path d="M23.5025 2.15774C23.6932 2.15774 23.8795 2.08112 24.0138 1.94614C24.1481 1.81182 24.2254 1.62615 24.2254 1.43556C24.2254 1.24563 24.1482 1.0593 24.0138 0.924978C23.8795 0.790725 23.6932 0.713379 23.5025 0.713379C23.3125 0.713379 23.1262 0.790652 22.9919 0.924978C22.8576 1.0593 22.7803 1.24563 22.7803 1.43556C22.7803 1.62622 22.8575 1.81182 22.9919 1.94614C23.1262 2.08112 23.3125 2.15774 23.5025 2.15774Z" fill="black"/>
</svg>
