<svg width="36" height="36" viewBox="0 0 36 36" fill="none" xmlns="http://www.w3.org/2000/svg">
<g clip-path="url(#clip0)">
<path d="M17.625 10.2338C17.3118 10.2338 17.0564 9.97842 17.0564 9.66528H15.9193C15.9193 10.4054 16.3962 11.0308 17.0564 11.2663V12.508H18.1935V11.2663C18.8537 11.0308 19.3306 10.4054 19.3306 9.66528C19.3306 8.72501 18.5652 7.95963 17.625 7.95963C17.3118 7.95963 17.0564 7.70423 17.0564 7.39108C17.0564 7.07794 17.3118 6.82253 17.625 6.82253C17.9381 6.82253 18.1935 7.07794 18.1935 7.39108H19.3306C19.3306 6.65097 18.8537 6.02551 18.1935 5.7901V4.54834H17.0564V5.7901C16.3962 6.02551 15.9193 6.65097 15.9193 7.39108C15.9193 8.33135 16.6847 9.09673 17.625 9.09673C17.9381 9.09673 18.1935 9.35213 18.1935 9.66528C18.1935 9.97842 17.9381 10.2338 17.625 10.2338Z" fill="#050505"/>
<path d="M35.25 17.0565V0H0V17.0565H9.09677V20.2279C9.09677 21.2414 9.3941 22.2234 9.95654 23.0665L11.371 25.1885V26.1532H10.2339V31.8387H19.9156C21.4735 33.9053 23.9404 35.25 26.7218 35.25C31.4242 35.25 35.25 31.4242 35.25 26.7218C35.25 22.0193 31.4242 18.1935 26.7218 18.1935C26.5297 18.1935 26.342 18.2099 26.1532 18.2224V17.0565H35.25ZM11.371 30.7016V27.2903H18.2224C18.3038 28.5154 18.6388 29.6714 19.1852 30.7016H11.371ZM34.1129 26.7218C34.1129 30.7971 30.7971 34.1129 26.7218 34.1129C22.6464 34.1129 19.3306 30.7971 19.3306 26.7218C19.3306 22.6464 22.6464 19.3306 26.7218 19.3306C30.7971 19.3306 34.1129 22.6464 34.1129 26.7218ZM25.0161 18.3651C21.3092 19.1208 18.4789 22.2905 18.2224 26.1532H12.5081V24.8437L10.9024 22.4355C10.4654 21.7795 10.2339 21.0157 10.2339 20.2279V15.9194H1.1371V1.1371H34.1129V15.9194H13.6452V13.3553C14.752 14.2734 16.1428 14.7823 17.625 14.7823H30.7016V14.2137C30.7016 13.2734 31.467 12.5081 32.4073 12.5081H32.9758V4.54839H32.4073C31.467 4.54839 30.7016 3.78301 30.7016 2.84274V2.27419H4.54839V2.84274C4.54839 3.78301 3.78301 4.54839 2.84274 4.54839H2.27419V12.5081H2.84274C3.78301 12.5081 4.54839 13.2734 4.54839 14.2137V14.7823H10.2339V10.8024C10.2339 10.1753 10.7438 9.66532 11.371 9.66532C11.9981 9.66532 12.5081 10.1753 12.5081 10.8024V19.3306H13.0766C14.644 19.3306 15.9194 20.606 15.9194 22.1734H17.0565C17.0565 20.1715 15.5715 18.5109 13.6452 18.2338V17.0565H25.0161V18.3651ZM12.5275 8.85525C12.5206 8.74587 12.5081 8.63733 12.5081 8.52823C12.5081 5.70714 14.8039 3.41129 17.625 3.41129C20.4461 3.41129 22.7419 5.70714 22.7419 8.52823C22.7419 11.3493 20.4461 13.6452 17.625 13.6452C16.0598 13.6452 14.6226 12.9475 13.6452 11.7338V10.8024C13.6452 9.97236 13.1932 9.25196 12.5275 8.85525ZM11.371 8.52823C10.1167 8.52823 9.09677 9.54817 9.09677 10.8024V13.6452H5.62802C5.40176 12.533 4.5234 11.6547 3.41129 11.4284V5.62802C4.5234 5.40176 5.40176 4.5234 5.62802 3.41129H14.0402C12.4289 4.54395 11.371 6.4131 11.371 8.52823ZM21.2098 3.41129H29.622C29.8482 4.5234 30.7266 5.40176 31.8387 5.62802V11.4279C30.7266 11.6541 29.8482 12.5325 29.622 13.6446H21.2098C22.8211 12.5125 23.879 10.6433 23.879 8.52823C23.879 6.4131 22.8211 4.54395 21.2098 3.41129Z" fill="#050505"/>
<path d="M24.2122 26.7217L20.8009 30.133L23.3105 32.6426L26.7218 29.2313L30.1331 32.6426L32.6427 30.133L29.2314 26.7217L32.6427 23.3104L30.1331 20.8008L26.7218 24.2121L23.3105 20.8008L20.8009 23.3104L24.2122 26.7217ZM26.7218 25.82L30.1331 22.4087L31.0348 23.3104L27.6235 26.7217L31.0348 30.133L30.1331 31.0347L26.7218 27.6234L23.3105 31.0347L22.4088 30.133L25.8201 26.7217L22.4088 23.3104L23.3105 22.4087L26.7218 25.82Z" fill="#050505"/>
<path d="M2.27417 2.27417H3.41127V3.41127H2.27417V2.27417Z" fill="#050505"/>
<path d="M2.27417 13.645H3.41127V14.7821H2.27417V13.645Z" fill="#050505"/>
<path d="M31.8387 2.27417H32.9758V3.41127H31.8387V2.27417Z" fill="#050505"/>
<path d="M31.8387 13.645H32.9758V14.7821H31.8387V13.645Z" fill="#050505"/>
</g>
<defs>
<clipPath id="clip0">
<rect width="35.25" height="35.25" fill="white"/>
</clipPath>
</defs>
</svg>
