<svg width="457" height="70" viewBox="0 0 457 70" fill="none" xmlns="http://www.w3.org/2000/svg">
<path d="M6.23912 69.8065C5.00414 69.8065 3.79693 69.4399 2.7704 68.7533C1.74388 68.0667 0.944207 67.0909 0.472677 65.9495C0.0011463 64.8081 -0.121033 63.5524 0.121614 62.3415C0.364261 61.1306 0.960817 60.0189 1.83573 59.1473C2.71064 58.2756 3.82454 57.6832 5.03636 57.4452C6.24818 57.2071 7.5034 57.334 8.64304 57.8099C9.78269 58.2857 10.7555 59.089 11.4382 60.1181C12.121 61.1472 12.4829 62.3558 12.4783 63.5908C12.4783 64.409 12.3167 65.2192 12.0029 65.9748C11.6891 66.7305 11.2291 67.4168 10.6495 67.9943C10.0698 68.5717 9.38181 69.0291 8.62497 69.34C7.86814 69.651 7.05735 69.8095 6.23912 69.8065ZM6.23912 59.6971C5.46904 59.6971 4.71625 59.9255 4.07595 60.3533C3.43564 60.7812 2.93659 61.3893 2.64189 62.1007C2.34719 62.8122 2.27009 63.5951 2.42032 64.3504C2.57056 65.1057 2.94139 65.7994 3.48592 66.344C4.03045 66.8885 4.72423 67.2593 5.47952 67.4095C6.2348 67.5598 7.01768 67.4827 7.72914 67.188C8.44061 66.8933 9.04871 66.3942 9.47654 65.7539C9.90438 65.1136 10.1327 64.3609 10.1327 63.5908C10.1327 62.5581 9.72252 61.5678 8.99232 60.8376C8.26213 60.1074 7.27177 59.6971 6.23912 59.6971Z" fill="#150035"/>
<path d="M64.2446 69.8067C63.0058 69.8254 61.7894 69.4747 60.7506 68.7995C59.7118 68.1243 58.8976 67.1552 58.4116 66.0155C57.9256 64.8758 57.79 63.6173 58.0219 62.4002C58.2539 61.1832 58.8429 60.0627 59.714 59.1817C60.5851 58.3007 61.6987 57.6989 62.913 57.4531C64.1274 57.2073 65.3874 57.3287 66.5325 57.8016C67.6776 58.2746 68.656 59.0778 69.343 60.1088C70.03 61.1399 70.3944 62.3521 70.3899 63.5911C70.39 65.2274 69.7448 66.7979 68.5943 67.9615C67.4438 69.1252 65.8809 69.7882 64.2446 69.8067ZM64.2446 59.6974C63.4708 59.6788 62.709 59.8912 62.0564 60.3075C61.4039 60.7239 60.8903 61.3252 60.5811 62.0348C60.272 62.7444 60.1814 63.5301 60.3209 64.2915C60.4603 65.0528 60.8236 65.7554 61.3642 66.3093C61.9048 66.8633 62.5982 67.2436 63.356 67.4016C64.1137 67.5596 64.9013 67.4881 65.6183 67.1964C66.3352 66.9046 66.949 66.4058 67.3811 65.7637C67.8132 65.1215 68.0441 64.3651 68.0444 63.5911C68.0447 62.5745 67.6473 61.5981 66.9373 60.8705C66.2273 60.1429 65.2609 59.7219 64.2446 59.6974Z" fill="#150035"/>
<path d="M48.8343 69.8066H41.2113C40.5892 69.8066 39.9926 69.5595 39.5527 69.1196C39.1128 68.6797 38.8657 68.0831 38.8657 67.4611V59.8145C38.8657 59.1925 39.1128 58.5959 39.5527 58.156C39.9926 57.7161 40.5892 57.469 41.2113 57.469H48.8343C49.4564 57.469 50.053 57.7161 50.4929 58.156C50.9327 58.5959 51.1799 59.1925 51.1799 59.8145V67.4611C51.1799 68.0831 50.9327 68.6797 50.4929 69.1196C50.053 69.5595 49.4564 69.8066 48.8343 69.8066ZM41.2113 59.6973V67.4142H48.9047V59.7677L41.2113 59.6973Z" fill="#150035"/>
<path d="M68.0445 69.8066H60.4449C59.8228 69.8066 59.2262 69.5595 58.7864 69.1196C58.3465 68.6797 58.0994 68.0831 58.0994 67.4611V59.8145C58.0994 59.1925 58.3465 58.5959 58.7864 58.156C59.2262 57.7161 59.8228 57.469 60.4449 57.469H68.0445C68.6666 57.469 69.2632 57.7161 69.7031 58.156C70.1429 58.5959 70.39 59.1925 70.39 59.8145V67.4611C70.39 68.0831 70.1429 68.6797 69.7031 69.1196C69.2632 69.5595 68.6666 69.8066 68.0445 69.8066ZM60.4215 59.6973V67.4142H68.1149V59.7677L60.4215 59.6973Z" fill="#150035"/>
<path d="M122.954 50.5262C121.72 50.5262 120.513 50.1602 119.487 49.4747C118.461 48.7891 117.662 47.8147 117.19 46.6747C116.717 45.5346 116.594 44.2801 116.834 43.0698C117.075 41.8595 117.669 40.7479 118.542 39.8753C119.415 39.0027 120.526 38.4085 121.737 38.1677C122.947 37.927 124.201 38.0506 125.341 38.5228C126.481 38.995 127.456 39.7947 128.141 40.8207C128.827 41.8468 129.193 43.053 129.193 44.287C129.193 45.1064 129.032 45.9177 128.718 46.6747C128.404 47.4316 127.945 48.1194 127.366 48.6988C126.786 49.2782 126.098 49.7377 125.341 50.0512C124.584 50.3648 123.773 50.5262 122.954 50.5262ZM122.954 40.4169C122.183 40.4169 121.429 40.6458 120.788 41.0747C120.147 41.5036 119.648 42.1131 119.354 42.8259C119.06 43.5387 118.985 44.3228 119.137 45.0788C119.289 45.8347 119.662 46.5284 120.209 47.072C120.756 47.6156 121.452 47.9845 122.209 48.1321C122.965 48.2797 123.749 48.1992 124.46 47.9009C125.171 47.6026 125.778 47.0999 126.203 46.4565C126.628 45.8132 126.852 45.0581 126.847 44.287C126.85 43.7748 126.752 43.2671 126.557 42.7933C126.363 42.3195 126.076 41.889 125.714 41.5269C125.352 41.1647 124.921 40.878 124.447 40.6834C123.974 40.4889 123.466 40.3903 122.954 40.3934V40.4169Z" fill="black"/>
<path d="M126.683 50.5261H119.154C118.532 50.5261 117.935 50.279 117.495 49.8391C117.055 49.3992 116.808 48.8026 116.808 48.1806V40.4403C116.808 39.8182 117.055 39.2216 117.495 38.7817C117.935 38.3418 118.532 38.0947 119.154 38.0947H126.683C127.305 38.0947 127.902 38.3418 128.342 38.7817C128.782 39.2216 129.029 39.8182 129.029 40.4403V48.1806C129.029 48.8026 128.782 49.3992 128.342 49.8391C127.902 50.279 127.305 50.5261 126.683 50.5261ZM119.06 40.4168V48.1102L126.683 48.1806V40.4403L119.06 40.4168Z" fill="black"/>
<path d="M10.0624 50.5261H2.36899C1.74691 50.5261 1.15031 50.279 0.710433 49.8391C0.270557 49.3992 0.0234375 48.8026 0.0234375 48.1806V40.4403C0.0234375 39.8182 0.270557 39.2216 0.710433 38.7817C1.15031 38.3418 1.74691 38.0947 2.36899 38.0947H10.0624C10.6845 38.0947 11.2811 38.3418 11.7209 38.7817C12.1608 39.2216 12.4079 39.8182 12.4079 40.4403V48.1806C12.4079 48.8026 12.1608 49.3992 11.7209 49.8391C11.2811 50.279 10.6845 50.5261 10.0624 50.5261ZM2.36899 40.3933V48.1806H10.0624V40.4403L2.36899 40.3933Z" fill="#150035"/>
<path d="M64.2446 50.5264C63.0077 50.545 61.7933 50.1956 60.7556 49.5224C59.7178 48.8493 58.9035 47.8829 58.4162 46.746C57.9289 45.6091 57.7905 44.353 58.0187 43.1372C58.2468 41.9215 58.8312 40.801 59.6975 39.9181C60.5639 39.0352 61.6731 38.4298 62.8843 38.1787C64.0955 37.9276 65.354 38.0422 66.5 38.508C67.6459 38.9737 68.6275 39.7696 69.3201 40.7944C70.0128 41.8193 70.3851 43.0268 70.3899 44.2638C70.3963 45.9064 69.7546 47.4853 68.604 48.6578C67.4535 49.8303 65.887 50.5017 64.2446 50.5264ZM64.2446 40.4171C63.4688 40.3985 62.7051 40.6121 62.0516 41.0305C61.398 41.4489 60.8844 42.0531 60.5767 42.7655C60.2689 43.4779 60.1811 44.2659 60.3244 45.0286C60.4677 45.7913 60.8356 46.4937 61.381 47.0458C61.9263 47.5979 62.6242 47.9745 63.3851 48.1271C64.1459 48.2798 64.935 48.2016 65.6511 47.9026C66.3672 47.6037 66.9777 47.0975 67.4041 46.4491C67.8305 45.8008 68.0535 45.0397 68.0444 44.2638C68.0445 43.2494 67.6464 42.2756 66.9358 41.5518C66.2252 40.828 65.2587 40.4121 64.2446 40.3936V40.4171Z" fill="#150035"/>
<path d="M46.1839 39.2205H43.8384V49.3298H46.1839V39.2205Z" fill="#150035"/>
<path d="M50.0775 43.0911H39.9681V45.4366H50.0775V43.0911Z" fill="#150035"/>
<path d="M26.6689 58.5244H24.3234V68.6337H26.6689V58.5244Z" fill="#150035"/>
<path d="M30.5391 62.4182H20.4298V64.7638H30.5391V62.4182Z" fill="#150035"/>
<path d="M87.9816 69.8068H80.4055C79.7834 69.8068 79.1868 69.5596 78.7469 69.1197C78.3071 68.6799 78.0599 68.0833 78.0599 67.4612V59.9085C78.0599 59.2865 78.3071 58.6899 78.7469 58.25C79.1868 57.8101 79.7834 57.563 80.4055 57.563H87.9816C88.6037 57.563 89.2003 57.8101 89.6402 58.25C90.08 58.6899 90.3272 59.2865 90.3272 59.9085V67.4847C90.321 68.1027 90.0711 68.6933 89.6319 69.1281C89.1927 69.5629 88.5996 69.8068 87.9816 69.8068ZM80.4055 59.6974V67.3674H88.0754V59.9085L80.4055 59.6974Z" fill="#150035"/>
<path d="M126.683 69.8066H119.154C118.532 69.8066 117.935 69.5595 117.495 69.1196C117.055 68.6797 116.808 68.0831 116.808 67.4611V59.8145C116.808 59.1925 117.055 58.5959 117.495 58.156C117.935 57.7161 118.532 57.469 119.154 57.469H126.683C127.305 57.469 127.902 57.7161 128.342 58.156C128.782 58.5959 129.029 59.1925 129.029 59.8145V67.4611C129.029 68.0831 128.782 68.6797 128.342 69.1196C127.902 69.5595 127.305 69.8066 126.683 69.8066ZM119.06 59.6973V67.4142H126.753V59.7677L119.06 59.6973Z" fill="black"/>
<path d="M142.211 50.5261C140.976 50.5308 139.767 50.1688 138.738 49.4861C137.709 48.8033 136.906 47.8306 136.43 46.6909C135.954 45.5513 135.827 44.296 136.065 43.0842C136.303 41.8724 136.895 40.7585 137.767 39.8835C138.639 39.0086 139.75 38.4121 140.961 38.1695C142.172 37.9268 143.428 38.049 144.569 38.5205C145.711 38.992 146.687 39.7917 147.373 40.8182C148.06 41.8448 148.426 43.052 148.426 44.287C148.42 45.9357 147.764 47.5156 146.6 48.6836C145.437 49.8517 143.859 50.5138 142.211 50.5261ZM142.211 40.4168C141.439 40.4122 140.683 40.6371 140.039 41.0632C139.395 41.4892 138.892 42.0971 138.594 42.8095C138.297 43.522 138.218 44.3068 138.367 45.0643C138.517 45.8217 138.888 46.5176 139.434 47.0636C139.98 47.6095 140.676 47.9808 141.433 48.1303C142.191 48.2797 142.976 48.2007 143.688 47.9031C144.4 47.6055 145.008 47.1028 145.434 46.4589C145.86 45.815 146.085 45.059 146.081 44.287C146.084 43.7768 145.986 43.271 145.793 42.7987C145.6 42.3265 145.315 41.8971 144.956 41.5352C144.596 41.1733 144.168 40.8861 143.697 40.6902C143.226 40.4942 142.721 40.3933 142.211 40.3933V40.4168Z" fill="black"/>
<path d="M85.378 39.2205H83.0325V49.3298H85.378V39.2205Z" fill="#150035"/>
<path d="M89.2481 43.0911H79.1388V45.4366H89.2481V43.0911Z" fill="#150035"/>
<path d="M104.612 58.5244H102.266V68.6337H104.612V58.5244Z" fill="black"/>
<path d="M108.482 62.4182H98.3723V64.7638H108.482V62.4182Z" fill="black"/>
<path d="M143.384 58.5244H141.038V68.6337H143.384V58.5244Z" fill="black"/>
<path d="M147.254 62.4182H137.144V64.7638H147.254V62.4182Z" fill="black"/>
<path d="M160.952 69.8065C159.717 69.8065 158.509 69.4399 157.483 68.7533C156.456 68.0667 155.657 67.0909 155.185 65.9495C154.714 64.8081 154.591 63.5524 154.834 62.3415C155.077 61.1306 155.673 60.0189 156.548 59.1473C157.423 58.2756 158.537 57.6832 159.749 57.4452C160.961 57.2071 162.216 57.334 163.356 57.8099C164.495 58.2857 165.468 59.089 166.151 60.1181C166.833 61.1472 167.195 62.3558 167.191 63.5908C167.191 64.409 167.029 65.2192 166.715 65.9748C166.402 66.7305 165.942 67.4168 165.362 67.9943C164.782 68.5717 164.094 69.0291 163.337 69.34C162.581 69.651 161.77 69.8095 160.952 69.8065ZM160.952 59.6971C160.182 59.6971 159.429 59.9255 158.788 60.3533C158.148 60.7812 157.649 61.3893 157.354 62.1007C157.06 62.8122 156.983 63.5951 157.133 64.3504C157.283 65.1057 157.654 65.7994 158.198 66.344C158.743 66.8885 159.437 67.2593 160.192 67.4095C160.947 67.5598 161.73 67.4827 162.442 67.188C163.153 66.8933 163.761 66.3942 164.189 65.7539C164.617 65.1136 164.845 64.3609 164.845 63.5908C164.845 62.5581 164.435 61.5678 163.705 60.8376C162.975 60.1074 161.984 59.6971 160.952 59.6971Z" fill="black"/>
<path d="M180.185 50.5262C178.951 50.5262 177.745 50.1602 176.719 49.4747C175.693 48.7891 174.893 47.8147 174.421 46.6747C173.949 45.5346 173.825 44.2801 174.066 43.0698C174.307 41.8595 174.901 40.7479 175.773 39.8753C176.646 39.0027 177.758 38.4085 178.968 38.1677C180.178 37.927 181.433 38.0506 182.573 38.5228C183.713 38.995 184.687 39.7947 185.373 40.8207C186.058 41.8468 186.424 43.053 186.424 44.287C186.424 45.1064 186.263 45.9177 185.949 46.6747C185.636 47.4316 185.176 48.1194 184.597 48.6988C184.018 49.2782 183.33 49.7377 182.573 50.0512C181.816 50.3648 181.005 50.5262 180.185 50.5262ZM180.185 40.4169C179.414 40.4169 178.66 40.6458 178.02 41.0747C177.379 41.5036 176.88 42.1131 176.586 42.8259C176.292 43.5387 176.216 44.3228 176.368 45.0788C176.52 45.8347 176.894 46.5284 177.44 47.072C177.987 47.6156 178.683 47.9845 179.44 48.1321C180.197 48.2797 180.981 48.1992 181.692 47.9009C182.403 47.6026 183.009 47.0999 183.434 46.4565C183.859 45.8132 184.083 45.0581 184.079 44.287C184.082 43.7748 183.983 43.2671 183.789 42.7933C183.594 42.3195 183.308 41.889 182.945 41.5269C182.583 41.1647 182.153 40.878 181.679 40.6834C181.205 40.4889 180.697 40.3903 180.185 40.3934V40.4169Z" fill="black"/>
<path d="M218.957 69.8065C217.722 69.8065 216.515 69.4399 215.488 68.7533C214.462 68.0667 213.662 67.0909 213.191 65.9495C212.719 64.8081 212.597 63.5524 212.84 62.3415C213.082 61.1306 213.679 60.0189 214.554 59.1473C215.429 58.2756 216.542 57.6832 217.754 57.4452C218.966 57.2071 220.221 57.334 221.361 57.8099C222.501 58.2857 223.473 59.089 224.156 60.1181C224.839 61.1472 225.201 62.3558 225.196 63.5908C225.196 64.409 225.035 65.2192 224.721 65.9748C224.407 66.7305 223.947 67.4168 223.367 67.9943C222.788 68.5717 222.1 69.0291 221.343 69.34C220.586 69.651 219.775 69.8095 218.957 69.8065ZM218.957 59.6971C218.187 59.6971 217.434 59.9255 216.794 60.3533C216.154 60.7812 215.654 61.3893 215.36 62.1007C215.065 62.8122 214.988 63.5951 215.138 64.3504C215.288 65.1057 215.659 65.7994 216.204 66.344C216.748 66.8885 217.442 67.2593 218.197 67.4095C218.953 67.5598 219.736 67.4827 220.447 67.188C221.159 66.8933 221.767 66.3942 222.194 65.7539C222.622 65.1136 222.851 64.3609 222.851 63.5908C222.851 62.5581 222.44 61.5678 221.71 60.8376C220.98 60.1074 219.99 59.6971 218.957 59.6971Z" fill="black"/>
<path d="M203.547 69.8066H195.9C195.278 69.8066 194.682 69.5595 194.242 69.1196C193.802 68.6797 193.555 68.0831 193.555 67.4611V59.8145C193.555 59.1925 193.802 58.5959 194.242 58.156C194.682 57.7161 195.278 57.469 195.9 57.469H203.547C204.169 57.469 204.766 57.7161 205.205 58.156C205.645 58.5959 205.892 59.1925 205.892 59.8145V67.4611C205.892 67.7691 205.832 68.0741 205.714 68.3587C205.596 68.6433 205.423 68.9018 205.205 69.1196C204.988 69.3374 204.729 69.5102 204.444 69.6281C204.16 69.746 203.855 69.8066 203.547 69.8066ZM195.9 59.6973V67.4142H203.594V59.7677L195.9 59.6973Z" fill="black"/>
<path d="M222.851 69.8066H215.134C214.512 69.8066 213.915 69.5595 213.475 69.1196C213.035 68.6797 212.788 68.0831 212.788 67.4611V59.8145C212.788 59.1925 213.035 58.5959 213.475 58.156C213.915 57.7161 214.512 57.469 215.134 57.469H222.851C223.473 57.469 224.069 57.7161 224.509 58.156C224.949 58.5959 225.196 59.1925 225.196 59.8145V67.4611C225.196 68.0831 224.949 68.6797 224.509 69.1196C224.069 69.5595 223.473 69.8066 222.851 69.8066ZM215.204 59.6973V67.4142H222.898V59.7677L215.204 59.6973Z" fill="black"/>
<path d="M277.666 50.5262C276.432 50.5262 275.226 50.1602 274.2 49.4747C273.174 48.7891 272.374 47.8147 271.902 46.6747C271.43 45.5346 271.306 44.2801 271.547 43.0698C271.788 41.8595 272.382 40.7479 273.254 39.8753C274.127 39.0027 275.239 38.4085 276.449 38.1677C277.659 37.927 278.914 38.0506 280.054 38.5228C281.194 38.995 282.168 39.7947 282.854 40.8207C283.539 41.8468 283.905 43.053 283.905 44.287C283.905 45.1064 283.744 45.9177 283.43 46.6747C283.117 47.4316 282.657 48.1194 282.078 48.6988C281.499 49.2782 280.811 49.7377 280.054 50.0512C279.297 50.3648 278.486 50.5262 277.666 50.5262ZM277.666 40.4169C276.689 40.4929 275.776 40.9349 275.11 41.6545C274.444 42.3741 274.075 43.3184 274.075 44.2988C274.075 45.2791 274.444 46.2234 275.11 46.943C275.776 47.6626 276.689 48.1046 277.666 48.1806C278.201 48.2223 278.739 48.1528 279.246 47.9766C279.753 47.8004 280.218 47.5213 280.612 47.1567C281.006 46.7922 281.321 46.3501 281.536 45.8583C281.751 45.3665 281.862 44.8355 281.862 44.2988C281.862 43.762 281.751 43.2311 281.536 42.7392C281.321 42.2474 281.006 41.8053 280.612 41.4408C280.218 41.0762 279.753 40.7971 279.246 40.6209C278.739 40.4447 278.201 40.3752 277.666 40.4169Z" fill="black"/>
<path d="M281.489 50.5261H273.843C273.221 50.5261 272.624 50.279 272.184 49.8391C271.745 49.3992 271.497 48.8026 271.497 48.1806V40.4403C271.497 39.8182 271.745 39.2216 272.184 38.7817C272.624 38.3418 273.221 38.0947 273.843 38.0947H281.489C282.112 38.0947 282.708 38.3418 283.148 38.7817C283.588 39.2216 283.835 39.8182 283.835 40.4403V48.1806C283.835 48.8026 283.588 49.3992 283.148 49.8391C282.708 50.279 282.112 50.5261 281.489 50.5261ZM273.843 40.4168V48.1102H281.536V40.4403L273.843 40.4168Z" fill="black"/>
<path d="M164.775 50.5261H157.175C156.553 50.5261 155.957 50.279 155.517 49.8391C155.077 49.3992 154.83 48.8026 154.83 48.1806V40.4403C154.83 39.8182 155.077 39.2216 155.517 38.7817C155.957 38.3418 156.553 38.0947 157.175 38.0947H164.822C165.444 38.0947 166.041 38.3418 166.48 38.7817C166.92 39.2216 167.167 39.8182 167.167 40.4403V48.1806C167.167 48.4926 167.105 48.8015 166.985 49.0891C166.864 49.3768 166.687 49.6375 166.464 49.8559C166.241 50.0743 165.977 50.2461 165.687 50.3612C165.397 50.4763 165.087 50.5324 164.775 50.5261ZM157.175 40.3933V48.1806H164.869V40.4403L157.175 40.3933Z" fill="black"/>
<path d="M218.957 50.5262C217.724 50.5262 216.519 50.1609 215.493 49.4763C214.468 48.7918 213.668 47.8187 213.195 46.68C212.722 45.5413 212.597 44.2881 212.836 43.0785C213.075 41.8688 213.667 40.757 214.537 39.8835C215.407 39.01 216.517 38.414 217.726 38.1706C218.934 37.9272 220.188 38.0474 221.328 38.5161C222.469 38.9847 223.445 39.7808 224.133 40.8037C224.822 41.8266 225.192 43.0306 225.196 44.2635C225.199 45.0849 225.04 45.8987 224.728 46.6584C224.416 47.4181 223.957 48.1087 223.377 48.6905C222.797 49.2724 222.109 49.734 221.35 50.049C220.592 50.3641 219.778 50.5262 218.957 50.5262ZM218.957 40.4169C217.98 40.4929 217.067 40.9349 216.401 41.6545C215.735 42.3741 215.365 43.3184 215.365 44.2988C215.365 45.2791 215.735 46.2234 216.401 46.943C217.067 47.6626 217.98 48.1046 218.957 48.1806C219.492 48.2223 220.03 48.1528 220.537 47.9766C221.044 47.8004 221.509 47.5213 221.903 47.1568C222.297 46.7922 222.612 46.3501 222.827 45.8583C223.042 45.3665 223.153 44.8355 223.153 44.2988C223.153 43.762 223.042 43.2311 222.827 42.7392C222.612 42.2474 222.297 41.8053 221.903 41.4408C221.509 41.0762 221.044 40.7971 220.537 40.6209C220.03 40.4447 219.492 40.3753 218.957 40.4169Z" fill="black"/>
<path d="M200.896 39.2205H198.551V49.3298H200.896V39.2205Z" fill="black"/>
<path d="M204.79 43.0911H194.681V45.4366H204.79V43.0911Z" fill="black"/>
<path d="M181.358 58.5244H179.012V68.6337H181.358V58.5244Z" fill="black"/>
<path d="M185.252 62.4182H175.142V64.7638H185.252V62.4182Z" fill="black"/>
<path d="M258.034 50.5262C256.8 50.5262 255.594 50.1602 254.568 49.4747C253.542 48.7891 252.742 47.8147 252.27 46.6747C251.797 45.5346 251.674 44.2801 251.915 43.0698C252.155 41.8595 252.75 40.7479 253.622 39.8753C254.495 39.0027 255.606 38.4085 256.817 38.1677C258.027 37.927 259.282 38.0506 260.422 38.5228C261.562 38.995 262.536 39.7947 263.222 40.8207C263.907 41.8468 264.273 43.053 264.273 44.287C264.273 45.1064 264.112 45.9177 263.798 46.6747C263.485 47.4316 263.025 48.1194 262.446 48.6988C261.866 49.2782 261.179 49.7377 260.422 50.0512C259.665 50.3648 258.853 50.5262 258.034 50.5262ZM258.034 40.4169C257.263 40.4169 256.509 40.6458 255.868 41.0747C255.228 41.5036 254.729 42.1131 254.435 42.8259C254.141 43.5387 254.065 44.3228 254.217 45.0788C254.369 45.8347 254.742 46.5284 255.289 47.072C255.836 47.6156 256.532 47.9845 257.289 48.1321C258.046 48.2797 258.829 48.1992 259.54 47.9009C260.251 47.6026 260.858 47.0999 261.283 46.4565C261.708 45.8132 261.932 45.0581 261.928 44.287C261.931 43.7748 261.832 43.2671 261.638 42.7933C261.443 42.3195 261.156 41.889 260.794 41.5269C260.432 41.1647 260.001 40.878 259.528 40.6834C259.054 40.4889 258.546 40.3903 258.034 40.3934V40.4169Z" fill="black"/>
<path d="M281.489 69.8066H273.843C273.221 69.8066 272.624 69.5595 272.184 69.1196C271.745 68.6797 271.497 68.0831 271.497 67.4611V59.8145C271.497 59.1925 271.745 58.5959 272.184 58.156C272.624 57.7161 273.221 57.469 273.843 57.469H281.489C282.112 57.469 282.708 57.7161 283.148 58.156C283.588 58.5959 283.835 59.1925 283.835 59.8145V67.4611C283.835 68.0831 283.588 68.6797 283.148 69.1196C282.708 69.5595 282.112 69.8066 281.489 69.8066ZM273.843 59.6973V67.4142H281.536V59.7677L273.843 59.6973Z" fill="black"/>
<path d="M296.9 50.5262C295.666 50.5262 294.46 50.1602 293.434 49.4747C292.407 48.7891 291.608 47.8147 291.136 46.6747C290.663 45.5346 290.54 44.2801 290.781 43.0698C291.021 41.8595 291.615 40.7479 292.488 39.8753C293.361 39.0027 294.472 38.4085 295.683 38.1677C296.893 37.927 298.147 38.0506 299.287 38.5228C300.427 38.995 301.402 39.7947 302.087 40.8207C302.773 41.8468 303.139 43.053 303.139 44.287C303.139 45.1064 302.978 45.9177 302.664 46.6747C302.351 47.4316 301.891 48.1194 301.312 48.6988C300.732 49.2782 300.044 49.7377 299.287 50.0512C298.53 50.3648 297.719 50.5262 296.9 50.5262ZM296.9 40.4169C295.922 40.4929 295.01 40.9349 294.344 41.6545C293.678 42.3741 293.308 43.3184 293.308 44.2988C293.308 45.2791 293.678 46.2234 294.344 46.943C295.01 47.6626 295.922 48.1046 296.9 48.1806C297.435 48.2223 297.973 48.1528 298.48 47.9766C298.987 47.8004 299.452 47.5213 299.846 47.1567C300.24 46.7922 300.554 46.3501 300.769 45.8583C300.984 45.3665 301.095 44.8355 301.095 44.2988C301.095 43.762 300.984 43.2311 300.769 42.7392C300.554 42.2474 300.24 41.8053 299.846 41.4408C299.452 41.0762 298.987 40.7971 298.48 40.6209C297.973 40.4447 297.435 40.3752 296.9 40.4169Z" fill="black"/>
<path d="M240.067 39.2205H237.722V49.3298H240.067V39.2205Z" fill="black"/>
<path d="M243.961 43.0911H233.851V45.4366H243.961V43.0911Z" fill="black"/>
<path d="M298.073 58.5244H295.727V68.6337H298.073V58.5244Z" fill="black"/>
<path d="M301.966 62.4182H291.857V64.7638H301.966V62.4182Z" fill="black"/>
<path d="M315.664 69.8069C314.428 69.8115 313.219 69.449 312.189 68.7652C311.159 68.0814 310.356 67.1073 309.881 65.9662C309.406 64.8252 309.28 63.5688 309.52 62.3563C309.76 61.1438 310.355 60.03 311.229 59.156C312.103 58.282 313.217 57.6874 314.429 57.4474C315.642 57.2074 316.898 57.3329 318.039 57.808C319.18 58.2831 320.154 59.0865 320.838 60.1161C321.522 61.1457 321.884 62.3552 321.88 63.5912C321.874 65.2378 321.217 66.8152 320.052 67.9795C318.888 69.1438 317.311 69.8007 315.664 69.8069ZM315.664 59.6976C315.129 59.6559 314.591 59.7254 314.084 59.9016C313.577 60.0778 313.112 60.3569 312.718 60.7215C312.324 61.086 312.009 61.5281 311.794 62.0199C311.579 62.5118 311.468 63.0427 311.468 63.5795C311.468 64.1162 311.579 64.6472 311.794 65.139C312.009 65.6308 312.324 66.0729 312.718 66.4375C313.112 66.802 313.577 67.0811 314.084 67.2573C314.591 67.4335 315.129 67.503 315.664 67.4613C316.642 67.3853 317.554 66.9433 318.22 66.2237C318.886 65.5041 319.256 64.5598 319.256 63.5795C319.256 62.5991 318.886 61.6548 318.22 60.9352C317.554 60.2156 316.642 59.7736 315.664 59.6976Z" fill="black"/>
<path d="M334.898 50.5261C333.663 50.5308 332.454 50.1688 331.425 49.4861C330.396 48.8033 329.593 47.8306 329.117 46.6909C328.641 45.5513 328.514 44.296 328.752 43.0842C328.99 41.8724 329.583 40.7585 330.454 39.8835C331.326 39.0086 332.437 38.4121 333.648 38.1695C334.859 37.9268 336.115 38.049 337.256 38.5205C338.398 38.992 339.374 39.7917 340.06 40.8182C340.747 41.8448 341.113 43.052 341.113 44.287C341.113 45.9376 340.459 47.521 339.294 48.6904C338.129 49.8598 336.548 50.5199 334.898 50.5261ZM334.898 40.4168C334.126 40.4122 333.37 40.6371 332.726 41.0632C332.082 41.4892 331.579 42.0971 331.281 42.8095C330.984 43.522 330.905 44.3068 331.054 45.0643C331.204 45.8217 331.575 46.5176 332.121 47.0636C332.667 47.6095 333.363 47.9808 334.12 48.1303C334.878 48.2797 335.663 48.2007 336.375 47.9031C337.087 47.6055 337.695 47.1028 338.121 46.4589C338.547 45.815 338.772 45.059 338.768 44.287C338.771 43.7768 338.673 43.271 338.48 42.7987C338.287 42.3265 338.002 41.8971 337.643 41.5352C337.283 41.1733 336.855 40.8861 336.384 40.6902C335.913 40.4942 335.408 40.3933 334.898 40.3933V40.4168Z" fill="black"/>
<path d="M373.67 69.8069C372.434 69.8115 371.224 69.449 370.194 68.7652C369.165 68.0814 368.362 67.1073 367.886 65.9662C367.411 64.8252 367.286 63.5688 367.526 62.3563C367.766 61.1438 368.36 60.03 369.234 59.156C370.108 58.282 371.222 57.6874 372.435 57.4474C373.647 57.2074 374.904 57.3329 376.045 57.808C377.186 58.2831 378.16 59.0865 378.844 60.1161C379.527 61.1457 379.89 62.3552 379.885 63.5912C379.879 65.2378 379.222 66.8152 378.058 67.9795C376.894 69.1438 375.316 69.8007 373.67 69.8069ZM373.67 59.6976C373.134 59.6559 372.596 59.7254 372.089 59.9016C371.582 60.0778 371.117 60.3569 370.723 60.7215C370.329 61.086 370.015 61.5281 369.8 62.0199C369.585 62.5118 369.474 63.0427 369.474 63.5795C369.474 64.1162 369.585 64.6472 369.8 65.139C370.015 65.6308 370.329 66.0729 370.723 66.4375C371.117 66.802 371.582 67.0811 372.089 67.2573C372.596 67.4335 373.134 67.503 373.67 67.4613C374.647 67.3853 375.56 66.9433 376.226 66.2237C376.891 65.5041 377.261 64.5598 377.261 63.5795C377.261 62.5991 376.891 61.6548 376.226 60.9352C375.56 60.2156 374.647 59.7736 373.67 59.6976Z" fill="black"/>
<path d="M358.236 69.8066H350.613C349.991 69.8066 349.394 69.5595 348.954 69.1196C348.514 68.6797 348.267 68.0831 348.267 67.4611V59.8145C348.267 59.1925 348.514 58.5959 348.954 58.156C349.394 57.7161 349.991 57.469 350.613 57.469H358.236C358.858 57.469 359.454 57.7161 359.894 58.156C360.334 58.5959 360.581 59.1925 360.581 59.8145V67.4611C360.581 68.0831 360.334 68.6797 359.894 69.1196C359.454 69.5595 358.858 69.8066 358.236 69.8066ZM350.613 59.6973V67.4142H358.306V59.7677L350.613 59.6973Z" fill="black"/>
<path d="M377.493 69.8066H369.846C369.224 69.8066 368.628 69.5595 368.188 69.1196C367.748 68.6797 367.501 68.0831 367.501 67.4611V59.8145C367.501 59.1925 367.748 58.5959 368.188 58.156C368.628 57.7161 369.224 57.469 369.846 57.469H377.493C378.115 57.469 378.711 57.7161 379.151 58.156C379.591 58.5959 379.838 59.1925 379.838 59.8145V67.4611C379.838 68.0831 379.591 68.6797 379.151 69.1196C378.711 69.5595 378.115 69.8066 377.493 69.8066ZM369.846 59.6973V67.4142H377.563V59.7677L369.846 59.6973Z" fill="black"/>
<path d="M319.487 50.5261H311.841C311.219 50.5261 310.622 50.279 310.182 49.8391C309.742 49.3992 309.495 48.8026 309.495 48.1806V40.4403C309.495 39.8182 309.742 39.2216 310.182 38.7817C310.622 38.3418 311.219 38.0947 311.841 38.0947H319.487C320.109 38.0947 320.706 38.3418 321.146 38.7817C321.586 39.2216 321.833 39.8182 321.833 40.4403V48.1806C321.833 48.8026 321.586 49.3992 321.146 49.8391C320.706 50.279 320.109 50.5261 319.487 50.5261ZM311.841 40.4168V48.1102H319.558V40.4403L311.841 40.4168Z" fill="black"/>
<path d="M336.07 58.5244H333.725V68.6337H336.07V58.5244Z" fill="black"/>
<path d="M339.964 62.4182H329.855V64.7638H339.964V62.4182Z" fill="black"/>
<path d="M397.383 69.8068H389.83C389.513 69.8227 389.195 69.7738 388.897 69.663C388.598 69.5523 388.326 69.382 388.095 69.1626C387.865 68.9432 387.682 68.6793 387.557 68.3868C387.431 68.0943 387.367 67.7794 387.368 67.4612V59.9085C387.367 59.5904 387.431 59.2755 387.557 58.983C387.682 58.6905 387.865 58.4265 388.095 58.2071C388.326 57.9877 388.598 57.8175 388.897 57.7067C389.195 57.596 389.513 57.5471 389.83 57.563H397.383C398.005 57.563 398.602 57.8101 399.042 58.25C399.481 58.6899 399.729 59.2865 399.729 59.9085V67.4847C399.722 68.1027 399.473 68.6933 399.033 69.1281C398.594 69.5629 398.001 69.8068 397.383 69.8068ZM389.83 59.6975L389.713 67.3674H397.383V59.9085L389.83 59.6975Z" fill="black"/>
<path d="M412.84 50.5262C411.606 50.5262 410.4 50.1602 409.374 49.4747C408.348 48.7891 407.548 47.8147 407.076 46.6747C406.604 45.5346 406.48 44.2801 406.721 43.0698C406.962 41.8595 407.556 40.7479 408.428 39.8753C409.301 39.0027 410.413 38.4085 411.623 38.1677C412.833 37.927 414.088 38.0506 415.228 38.5228C416.368 38.995 417.342 39.7947 418.028 40.8207C418.713 41.8468 419.079 43.053 419.079 44.287C419.079 45.1064 418.918 45.9177 418.604 46.6747C418.291 47.4316 417.831 48.1194 417.252 48.6988C416.673 49.2782 415.985 49.7377 415.228 50.0512C414.471 50.3648 413.66 50.5262 412.84 50.5262ZM412.84 40.4169C411.863 40.4929 410.95 40.9349 410.284 41.6545C409.618 42.3741 409.249 43.3184 409.249 44.2988C409.249 45.2791 409.618 46.2234 410.284 46.943C410.95 47.6626 411.863 48.1046 412.84 48.1806C413.375 48.2223 413.913 48.1528 414.42 47.9766C414.927 47.8004 415.392 47.5213 415.786 47.1567C416.18 46.7922 416.495 46.3501 416.71 45.8583C416.925 45.3665 417.036 44.8355 417.036 44.2988C417.036 43.762 416.925 43.2311 416.71 42.7392C416.495 42.2474 416.18 41.8053 415.786 41.4408C415.392 41.0762 414.927 40.7971 414.42 40.6209C413.913 40.4447 413.375 40.3752 412.84 40.4169Z" fill="black"/>
<path d="M436.296 69.8066H428.555C427.933 69.8066 427.337 69.5595 426.897 69.1196C426.457 68.6797 426.21 68.0831 426.21 67.4611V59.8145C426.21 59.1925 426.457 58.5959 426.897 58.156C427.337 57.7161 427.933 57.469 428.555 57.469H436.296C436.918 57.469 437.514 57.7161 437.954 58.156C438.394 58.5959 438.641 59.1925 438.641 59.8145V67.4611C438.641 68.0831 438.394 68.6797 437.954 69.1196C437.514 69.5595 436.918 69.8066 436.296 69.8066ZM428.649 59.6973V67.4142H436.366V59.7677L428.649 59.6973Z" fill="black"/>
<path d="M394.78 39.2205H392.434V49.3298H394.78V39.2205Z" fill="black"/>
<path d="M398.65 43.0911H388.54V45.4366H398.65V43.0911Z" fill="black"/>
<path d="M414.013 58.5244H411.667V68.6337H414.013V58.5244Z" fill="black"/>
<path d="M417.907 62.4182H407.797V64.7638H417.907V62.4182Z" fill="black"/>
<path d="M452.785 58.5244H450.439V68.6337H452.785V58.5244Z" fill="black"/>
<path d="M456.655 62.4182H446.546V64.7638H456.655V62.4182Z" fill="black"/>
<path d="M6.23917 32.2071C5.00518 32.2071 3.7989 31.8411 2.77287 31.1556C1.74685 30.47 0.947158 29.4956 0.474931 28.3556C0.00270335 27.2155 -0.120853 25.961 0.119887 24.7507C0.360626 23.5404 0.954849 22.4288 1.82741 21.5562C2.69997 20.6836 3.81169 20.0894 5.02197 19.8486C6.23224 19.6079 7.48673 19.7315 8.62679 20.2037C9.76685 20.6759 10.7413 21.4756 11.4268 22.5016C12.1124 23.5277 12.4783 24.7339 12.4783 25.9679C12.4783 26.7873 12.3169 27.5986 12.0034 28.3556C11.6899 29.1125 11.2303 29.8004 10.6509 30.3797C10.0716 30.9591 9.38376 31.4186 8.62679 31.7322C7.86982 32.0457 7.0585 32.2071 6.23917 32.2071ZM6.23917 22.0978C5.46809 22.0978 4.71437 22.3267 4.07357 22.7556C3.43277 23.1845 2.93374 23.794 2.63975 24.5068C2.34575 25.2197 2.27003 26.0038 2.42217 26.7597C2.57432 27.5156 2.94749 28.2093 3.49437 28.7529C4.04125 29.2965 4.73721 29.6654 5.49404 29.813C6.25087 29.9606 7.03447 29.8801 7.74551 29.5818C8.45655 29.2835 9.06302 28.7808 9.48802 28.1375C9.91302 27.4941 10.1374 26.739 10.1328 25.9679C10.1328 25.4577 10.0319 24.9525 9.83595 24.4814C9.63999 24.0103 9.35282 23.5826 8.99096 23.223C8.62909 22.8633 8.19967 22.5787 7.72742 22.3856C7.25516 22.1925 6.74937 22.0947 6.23917 22.0978Z" fill="#150035"/>
<path d="M25.4961 12.9973C24.2601 13.002 23.0506 12.6394 22.021 11.9556C20.9914 11.2718 20.1881 10.2977 19.7129 9.15667C19.2378 8.01566 19.1123 6.75918 19.3523 5.54672C19.5923 4.33426 20.187 3.2204 21.0609 2.34643C21.9349 1.47246 23.0488 0.877795 24.2612 0.637803C25.4737 0.397812 26.7301 0.523294 27.8711 0.998426C29.0121 1.47356 29.9863 2.27693 30.6701 3.30654C31.3539 4.33615 31.7164 5.54565 31.7118 6.78163C31.7056 8.42824 31.0488 10.0056 29.8844 11.1699C28.7201 12.3343 27.1427 12.9911 25.4961 12.9973ZM25.4961 2.88801C24.725 2.88336 23.9699 3.10773 23.3266 3.53273C22.6832 3.95774 22.1805 4.56425 21.8822 5.27529C21.5839 5.98633 21.5034 6.76989 21.651 7.52671C21.7986 8.28354 22.1676 8.9795 22.7111 9.52638C23.2547 10.0733 23.9484 10.4464 24.7044 10.5986C25.4603 10.7507 26.2444 10.6751 26.9572 10.3811C27.67 10.0871 28.2795 9.58803 28.7084 8.94723C29.1373 8.30643 29.3662 7.55271 29.3663 6.78163C29.3819 6.2625 29.2935 5.74544 29.1064 5.26097C28.9192 4.77651 28.637 4.33439 28.2763 3.96064C27.9157 3.5869 27.4839 3.28907 27.0065 3.08471C26.529 2.88035 26.0155 2.77365 25.4961 2.77076V2.88801Z" fill="#150035"/>
<path d="M64.2446 32.2076C63.0068 32.2262 61.7914 31.8762 60.7531 31.2021C59.7148 30.5279 58.9006 29.5601 58.4139 28.4218C57.9273 27.2835 57.7902 26.0262 58.0203 24.8098C58.2503 23.5934 58.837 22.4729 59.7057 21.591C60.5744 20.709 61.6859 20.1054 62.8987 19.8569C64.1114 19.6085 65.3707 19.7264 66.5162 20.1958C67.6618 20.6651 68.6418 21.4646 69.3316 22.4926C70.0214 23.5205 70.3898 24.7305 70.3899 25.9685C70.3901 27.6071 69.7457 29.18 68.5958 30.3474C67.446 31.5148 65.883 32.183 64.2446 32.2076ZM64.2446 22.0983C63.4698 22.0797 62.7071 22.2927 62.054 22.71C61.401 23.1274 60.8873 23.7301 60.5789 24.4411C60.2704 25.1521 60.1812 25.9391 60.3226 26.7011C60.464 27.4631 60.8295 28.1656 61.3725 28.7186C61.9155 29.2716 62.6112 29.6501 63.3705 29.8054C64.1298 29.9607 64.9181 29.8859 65.6347 29.5906C66.3512 29.2952 66.9633 28.7927 67.3926 28.1474C67.8219 27.5022 68.0488 26.7435 68.0444 25.9685C68.0446 24.9541 67.6465 23.9802 66.9358 23.2564C66.2252 22.5326 65.2588 22.1168 64.2446 22.0983Z" fill="#150035"/>
<path d="M48.8343 32.2072H41.2113C40.5892 32.2072 39.9926 31.9601 39.5527 31.5202C39.1128 31.0803 38.8657 30.4837 38.8657 29.8617V22.2386C38.8657 21.6165 39.1128 21.0199 39.5527 20.58C39.9926 20.1401 40.5892 19.8931 41.2113 19.8931H48.8343C49.4564 19.8931 50.053 20.1401 50.4929 20.58C50.9327 21.0199 51.1799 21.6165 51.1799 22.2386V29.8617C51.1799 30.4837 50.9327 31.0803 50.4929 31.5202C50.053 31.9601 49.4564 32.2072 48.8343 32.2072ZM41.2113 22.0979V29.7913H48.9047V22.1683L41.2113 22.0979Z" fill="#150035"/>
<path d="M10.0624 12.9973H2.36899C1.74691 12.9973 1.15031 12.7501 0.710433 12.3103C0.270557 11.8704 0.0234375 11.2738 0.0234375 10.6517V3.00522C0.0234375 2.38314 0.270557 1.78657 0.710433 1.3467C1.15031 0.906822 1.74691 0.659668 2.36899 0.659668H10.0624C10.6845 0.659668 11.2811 0.906822 11.7209 1.3467C12.1608 1.78657 12.4079 2.38314 12.4079 3.00522V10.6517C12.4079 11.2738 12.1608 11.8704 11.7209 12.3103C11.2811 12.7501 10.6845 12.9973 10.0624 12.9973ZM2.36899 2.77072V10.4875H10.0624V2.84108L2.36899 2.77072Z" fill="#150035"/>
<path d="M68.0445 32.2072H60.4449C59.8228 32.2072 59.2262 31.9601 58.7864 31.5202C58.3465 31.0803 58.0994 30.4837 58.0994 29.8617V22.2386C58.0994 21.6165 58.3465 21.0199 58.7864 20.58C59.2262 20.1401 59.8228 19.8931 60.4449 19.8931H68.0445C68.6666 19.8931 69.2632 20.1401 69.7031 20.58C70.1429 21.0199 70.39 21.6165 70.39 22.2386V29.8617C70.39 30.4837 70.1429 31.0803 69.7031 31.5202C69.2632 31.9601 68.6666 32.2072 68.0445 32.2072ZM60.4215 22.0979V29.7913H68.1149V22.1683L60.4215 22.0979Z" fill="#150035"/>
<path d="M122.954 12.9974C121.719 12.9974 120.512 12.6308 119.485 11.9442C118.458 11.2576 117.659 10.2818 117.187 9.14041C116.716 7.99898 116.594 6.74331 116.836 5.53239C117.079 4.32148 117.675 3.2098 118.55 2.33818C119.425 1.46656 120.539 0.874154 121.751 0.63607C122.963 0.397986 124.218 0.524947 125.358 1.00077C126.497 1.4766 127.47 2.27992 128.153 3.30903C128.836 4.33814 129.198 5.54671 129.193 6.78169C129.193 7.59992 129.031 8.41009 128.718 9.16575C128.404 9.9214 127.944 10.6077 127.364 11.1852C126.784 11.7627 126.096 12.22 125.34 12.531C124.583 12.8419 123.772 13.0005 122.954 12.9974ZM122.954 2.88806C122.184 2.88806 121.431 3.11641 120.791 3.54424C120.15 3.97208 119.651 4.5802 119.356 5.29167C119.062 6.00313 118.985 6.78601 119.135 7.5413C119.285 8.29659 119.656 8.99036 120.201 9.53489C120.745 10.0794 121.439 10.4502 122.194 10.6004C122.949 10.7507 123.732 10.6736 124.444 10.3789C125.155 10.0842 125.763 9.58515 126.191 8.94485C126.619 8.30455 126.847 7.55177 126.847 6.78169C126.863 6.26059 126.774 5.7416 126.585 5.25559C126.397 4.76957 126.112 4.32639 125.749 3.95232C125.386 3.57825 124.952 3.28093 124.471 3.07797C123.991 2.875 123.475 2.77058 122.954 2.77082V2.88806Z" fill="black"/>
<path d="M126.683 12.9973H119.154C118.532 12.9973 117.935 12.7501 117.495 12.3103C117.055 11.8704 116.808 11.2738 116.808 10.6517V3.00522C116.808 2.38314 117.055 1.78657 117.495 1.3467C117.935 0.906822 118.532 0.659668 119.154 0.659668H126.683C127.305 0.659668 127.902 0.906822 128.342 1.3467C128.782 1.78657 129.029 2.38314 129.029 3.00522V10.6517C129.029 11.2738 128.782 11.8704 128.342 12.3103C127.902 12.7501 127.305 12.9973 126.683 12.9973ZM119.06 2.88797V10.6048L126.683 10.6517V3.00522L119.06 2.88797Z" fill="black"/>
<path d="M64.2446 12.9976C63.0108 13.016 61.7993 12.6682 60.7632 11.9981C59.7271 11.328 58.9129 10.3656 58.4237 9.23285C57.9345 8.10005 57.7921 6.84762 58.0147 5.63392C58.2372 4.42023 58.8146 3.29977 59.6739 2.41423C60.5332 1.52869 61.6358 0.917866 62.8423 0.658935C64.0487 0.400004 65.3049 0.504628 66.4519 0.959573C67.5989 1.41452 68.5852 2.1993 69.2862 3.21479C69.9872 4.23028 70.3713 5.43082 70.39 6.66461C70.4055 7.4848 70.2585 8.29995 69.9575 9.06306C69.6565 9.82617 69.2074 10.5222 68.6361 11.1109C68.0649 11.6996 67.3827 12.1694 66.629 12.4933C65.8753 12.8171 65.0649 12.9885 64.2446 12.9976ZM64.2446 2.88831C63.4659 2.86989 62.6995 3.08548 62.0446 3.5072C61.3897 3.92891 60.8763 4.53734 60.5708 5.2539C60.2653 5.97046 60.1818 6.7622 60.331 7.52673C60.4803 8.29126 60.8554 8.99341 61.4079 9.54251C61.9604 10.0916 62.6649 10.4624 63.4303 10.6069C64.1958 10.7514 64.9869 10.6629 65.7016 10.353C66.4163 10.0431 67.0215 9.52596 67.4392 8.86843C67.8568 8.21091 68.0677 7.44322 68.0444 6.66461C68.0447 5.64801 67.6474 4.67168 66.9374 3.94412C66.2273 3.21657 65.2609 2.79556 64.2446 2.77106V2.88831Z" fill="#150035"/>
<path d="M26.6689 20.9258H24.3234V31.0351H26.6689V20.9258Z" fill="#150035"/>
<path d="M30.5391 24.7957H20.4298V27.1412H30.5391V24.7957Z" fill="#150035"/>
<path d="M87.9816 32.2074H80.4055C79.7834 32.2074 79.1868 31.9603 78.7469 31.5204C78.3071 31.0805 78.0599 30.484 78.0599 29.8619V22.2857C78.0599 21.6637 78.3071 21.0671 78.7469 20.6272C79.1868 20.1873 79.7834 19.9402 80.4055 19.9402H87.9816C88.6037 19.9402 89.2003 20.1873 89.6402 20.6272C90.08 21.0671 90.3272 21.6637 90.3272 22.2857V29.8619C90.3272 30.484 90.08 31.0805 89.6402 31.5204C89.2003 31.9603 88.6037 32.2074 87.9816 32.2074ZM80.4055 22.0981V29.768H88.0754V22.192L80.4055 22.0981Z" fill="#150035"/>
<path d="M103.439 12.9973C102.203 13.002 100.993 12.6394 99.9636 11.9556C98.934 11.2718 98.1307 10.2977 97.6556 9.15667C97.1804 8.01566 97.0549 6.75918 97.2949 5.54672C97.5349 4.33426 98.1296 3.2204 99.0036 2.34643C99.8775 1.47246 100.991 0.877795 102.204 0.637803C103.416 0.397812 104.673 0.523294 105.814 0.998426C106.955 1.47356 107.929 2.27693 108.613 3.30654C109.297 4.33615 109.659 5.54565 109.654 6.78163C109.648 8.42824 108.991 10.0056 107.827 11.1699C106.663 12.3343 105.085 12.9911 103.439 12.9973ZM103.439 2.88801C102.904 2.84638 102.366 2.91581 101.859 3.09201C101.352 3.26822 100.886 3.54736 100.492 3.9119C100.098 4.27643 99.7841 4.71854 99.5691 5.21037C99.3541 5.70219 99.2431 6.23313 99.2431 6.76989C99.2431 7.30665 99.3541 7.83759 99.5691 8.32942C99.7841 8.82124 100.098 9.26335 100.492 9.62789C100.886 9.99242 101.352 10.2715 101.859 10.4477C102.366 10.6239 102.904 10.6934 103.439 10.6518C104.416 10.5757 105.329 10.1338 105.995 9.41415C106.661 8.69454 107.03 7.75027 107.03 6.76989C107.03 5.78951 106.661 4.84525 105.995 4.12564C105.329 3.40602 104.416 2.96404 103.439 2.88801Z" fill="black"/>
<path d="M126.683 32.2072H119.154C118.532 32.2072 117.935 31.9601 117.495 31.5202C117.055 31.0803 116.808 30.4837 116.808 29.8617V22.2386C116.808 21.6165 117.055 21.0199 117.495 20.58C117.935 20.1401 118.532 19.8931 119.154 19.8931H126.683C127.305 19.8931 127.902 20.1401 128.342 20.58C128.782 21.0199 129.029 21.6165 129.029 22.2386V29.8617C129.029 30.4837 128.782 31.0803 128.342 31.5202C127.902 31.9601 127.305 32.2072 126.683 32.2072ZM119.06 22.0979V29.7913H126.753V22.1683L119.06 22.0979Z" fill="black"/>
<path d="M142.211 12.9973C140.975 13.002 139.765 12.6394 138.736 11.9556C137.706 11.2718 136.903 10.2977 136.428 9.15667C135.952 8.01566 135.827 6.75918 136.067 5.54672C136.307 4.33426 136.902 3.2204 137.776 2.34643C138.65 1.47246 139.763 0.877795 140.976 0.637803C142.188 0.397812 143.445 0.523294 144.586 0.998426C145.727 1.47356 146.701 2.27693 147.385 3.30654C148.068 4.33615 148.431 5.54565 148.426 6.78163C148.42 8.42824 147.763 10.0056 146.599 11.1699C145.435 12.3343 143.857 12.9911 142.211 12.9973ZM142.211 2.88801C141.44 2.88336 140.685 3.10773 140.041 3.53273C139.398 3.95774 138.895 4.56425 138.597 5.27529C138.298 5.98633 138.218 6.76989 138.366 7.52671C138.513 8.28354 138.882 8.9795 139.426 9.52638C139.969 10.0733 140.663 10.4464 141.419 10.5986C142.175 10.7507 142.959 10.6751 143.672 10.3811C144.385 10.0871 144.994 9.58803 145.423 8.94723C145.852 8.30643 146.081 7.55271 146.081 6.78163C146.097 6.2625 146.008 5.74544 145.821 5.26097C145.634 4.77651 145.352 4.33439 144.991 3.96064C144.63 3.5869 144.199 3.28907 143.721 3.08471C143.244 2.88035 142.73 2.77365 142.211 2.77076V2.88801Z" fill="black"/>
<path d="M85.378 1.59766H83.0325V11.707H85.378V1.59766Z" fill="#150035"/>
<path d="M89.2481 5.4917H79.1388V7.83725H89.2481V5.4917Z" fill="#150035"/>
<path d="M104.612 20.9258H102.266V31.0351H104.612V20.9258Z" fill="black"/>
<path d="M108.482 24.7957H98.3723V27.1412H108.482V24.7957Z" fill="black"/>
<path d="M143.384 20.9258H141.038V31.0351H143.384V20.9258Z" fill="black"/>
<path d="M147.254 24.7957H137.144V27.1412H147.254V24.7957Z" fill="black"/>
<path d="M160.952 32.2071C159.718 32.2071 158.511 31.8411 157.485 31.1556C156.459 30.47 155.66 29.4956 155.187 28.3556C154.715 27.2155 154.592 25.961 154.832 24.7507C155.073 23.5404 155.667 22.4288 156.54 21.5562C157.412 20.6836 158.524 20.0894 159.734 19.8486C160.945 19.6079 162.199 19.7315 163.339 20.2037C164.479 20.6759 165.454 21.4756 166.139 22.5016C166.825 23.5277 167.191 24.7339 167.191 25.9679C167.191 27.6227 166.534 29.2096 165.363 30.3797C164.193 31.5498 162.606 32.2071 160.952 32.2071ZM160.952 22.0978C160.181 22.0978 159.427 22.3267 158.786 22.7556C158.145 23.1845 157.646 23.794 157.352 24.5068C157.058 25.2197 156.983 26.0038 157.135 26.7597C157.287 27.5156 157.66 28.2093 158.207 28.7529C158.754 29.2965 159.45 29.6654 160.207 29.813C160.963 29.9606 161.747 29.8801 162.458 29.5818C163.169 29.2835 163.776 28.7808 164.201 28.1375C164.626 27.4941 164.85 26.739 164.845 25.9679C164.845 25.4577 164.744 24.9525 164.548 24.4814C164.353 24.0103 164.065 23.5826 163.703 23.223C163.342 22.8633 162.912 22.5787 162.44 22.3856C161.968 22.1925 161.462 22.0947 160.952 22.0978Z" fill="black"/>
<path d="M180.185 12.9974C178.95 12.9974 177.743 12.6308 176.716 11.9442C175.69 11.2576 174.89 10.2818 174.419 9.14041C173.947 7.99898 173.825 6.74331 174.068 5.53239C174.31 4.32148 174.907 3.2098 175.782 2.33818C176.657 1.46656 177.771 0.874154 178.982 0.63607C180.194 0.397986 181.449 0.524947 182.589 1.00077C183.729 1.4766 184.702 2.27992 185.384 3.30903C186.067 4.33814 186.429 5.54671 186.424 6.78169C186.424 7.59992 186.263 8.41009 185.949 9.16575C185.635 9.9214 185.175 10.6077 184.596 11.1852C184.016 11.7627 183.328 12.22 182.571 12.531C181.814 12.8419 181.003 13.0005 180.185 12.9974ZM180.185 2.88806C179.415 2.88806 178.662 3.11641 178.022 3.54424C177.382 3.97208 176.883 4.5802 176.588 5.29167C176.293 6.00313 176.216 6.78601 176.366 7.5413C176.517 8.29659 176.887 8.99036 177.432 9.53489C177.976 10.0794 178.67 10.4502 179.426 10.6004C180.181 10.7507 180.964 10.6736 181.675 10.3789C182.387 10.0842 182.995 9.58515 183.423 8.94485C183.85 8.30455 184.079 7.55177 184.079 6.78169C184.094 6.26059 184.005 5.7416 183.817 5.25559C183.628 4.76957 183.344 4.32639 182.981 3.95232C182.618 3.57825 182.183 3.28093 181.703 3.07797C181.223 2.875 180.706 2.77058 180.185 2.77082V2.88806Z" fill="black"/>
<path d="M218.957 32.2071C217.723 32.2071 216.517 31.8411 215.491 31.1556C214.465 30.47 213.665 29.4956 213.193 28.3556C212.721 27.2155 212.597 25.961 212.838 24.7507C213.079 23.5404 213.673 22.4288 214.545 21.5562C215.418 20.6836 216.53 20.0894 217.74 19.8486C218.95 19.6079 220.205 19.7315 221.345 20.2037C222.485 20.6759 223.459 21.4756 224.145 22.5016C224.83 23.5277 225.196 24.7339 225.196 25.9679C225.196 27.6227 224.539 29.2096 223.369 30.3797C222.199 31.5498 220.612 32.2071 218.957 32.2071ZM218.957 22.0978C218.186 22.0978 217.432 22.3267 216.791 22.7556C216.151 23.1845 215.652 23.794 215.358 24.5068C215.064 25.2197 214.988 26.0038 215.14 26.7597C215.292 27.5156 215.665 28.2093 216.212 28.7529C216.759 29.2965 217.455 29.6654 218.212 29.813C218.969 29.9606 219.752 29.8801 220.463 29.5818C221.174 29.2835 221.781 28.7808 222.206 28.1375C222.631 27.4941 222.855 26.739 222.851 25.9679C222.851 25.4577 222.75 24.9525 222.554 24.4814C222.358 24.0103 222.071 23.5826 221.709 23.223C221.347 22.8633 220.918 22.5787 220.445 22.3856C219.973 22.1925 219.467 22.0947 218.957 22.0978Z" fill="black"/>
<path d="M203.547 32.2072H195.9C195.278 32.2072 194.682 31.9601 194.242 31.5202C193.802 31.0803 193.555 30.4837 193.555 29.8617V22.2386C193.555 21.6165 193.802 21.0199 194.242 20.58C194.682 20.1401 195.278 19.8931 195.9 19.8931H203.547C204.169 19.8931 204.766 20.1401 205.205 20.58C205.645 21.0199 205.892 21.6165 205.892 22.2386V29.8617C205.892 30.1697 205.832 30.4747 205.714 30.7593C205.596 31.0438 205.423 31.3024 205.205 31.5202C204.988 31.738 204.729 31.9108 204.444 32.0287C204.16 32.1466 203.855 32.2072 203.547 32.2072ZM195.9 22.0979V29.7913H203.594V22.1683L195.9 22.0979Z" fill="black"/>
<path d="M222.851 32.2072H215.134C214.512 32.2072 213.915 31.9601 213.475 31.5202C213.035 31.0803 212.788 30.4837 212.788 29.8617V22.2386C212.788 21.6165 213.035 21.0199 213.475 20.58C213.915 20.1401 214.512 19.8931 215.134 19.8931H222.851C223.473 19.8931 224.069 20.1401 224.509 20.58C224.949 21.0199 225.196 21.6165 225.196 22.2386V29.8617C225.196 30.4837 224.949 31.0803 224.509 31.5202C224.069 31.9601 223.473 32.2072 222.851 32.2072ZM215.204 22.0979V29.7913H222.898V22.1683L215.204 22.0979Z" fill="black"/>
<path d="M277.666 12.9975C276.433 13.0112 275.224 12.6594 274.191 11.9864C273.158 11.3134 272.347 10.3494 271.862 9.21616C271.376 8.08288 271.237 6.83115 271.462 5.61895C271.688 4.40675 272.267 3.28847 273.127 2.40527C273.988 1.52208 275.09 0.913549 276.296 0.656561C277.502 0.399573 278.757 0.50565 279.903 0.961351C281.048 1.41705 282.033 2.20196 282.733 3.217C283.433 4.23204 283.816 5.43165 283.835 6.66446C283.851 7.4866 283.703 8.30371 283.4 9.06834C283.098 9.83298 282.647 10.53 282.073 11.119C281.499 11.708 280.814 12.1774 280.058 12.4998C279.301 12.8223 278.489 12.9914 277.666 12.9975ZM277.666 2.88815C276.888 2.87444 276.124 3.09407 275.472 3.51871C274.821 3.94335 274.311 4.55353 274.009 5.27057C273.707 5.98761 273.627 6.77861 273.779 7.5416C273.931 8.3046 274.308 9.00459 274.861 9.5513C275.415 10.098 276.12 10.4664 276.884 10.6089C277.649 10.7514 278.439 10.6615 279.152 10.3509C279.866 10.0402 280.469 9.52304 280.886 8.86599C281.303 8.20893 281.513 7.44208 281.489 6.66446C281.49 5.64388 281.089 4.66408 280.374 3.93588C279.659 3.20767 278.687 2.78935 277.666 2.77091V2.88815Z" fill="black"/>
<path d="M281.489 12.9973H273.843C273.221 12.9973 272.624 12.7501 272.184 12.3103C271.745 11.8704 271.497 11.2738 271.497 10.6517V3.00522C271.497 2.38314 271.745 1.78657 272.184 1.3467C272.624 0.906822 273.221 0.659668 273.843 0.659668H281.489C282.112 0.659668 282.708 0.906822 283.148 1.3467C283.588 1.78657 283.835 2.38314 283.835 3.00522V10.6517C283.835 11.2738 283.588 11.8704 283.148 12.3103C282.708 12.7501 282.112 12.9973 281.489 12.9973ZM273.843 2.88797V10.6048H281.536V2.95833L273.843 2.88797Z" fill="black"/>
<path d="M164.775 12.9973H157.175C156.553 12.9973 155.957 12.7501 155.517 12.3103C155.077 11.8704 154.83 11.2738 154.83 10.6517V3.00522C154.83 2.38314 155.077 1.78657 155.517 1.3467C155.957 0.906822 156.553 0.659668 157.175 0.659668H164.822C165.444 0.659668 166.041 0.906822 166.48 1.3467C166.92 1.78657 167.167 2.38314 167.167 3.00522V10.6517C167.167 10.9637 167.105 11.2726 166.985 11.5603C166.864 11.848 166.687 12.1086 166.464 12.3271C166.241 12.5455 165.977 12.7173 165.687 12.8324C165.397 12.9474 165.087 13.0035 164.775 12.9973ZM157.175 2.77072V10.4875H164.869V2.84108L157.175 2.77072Z" fill="black"/>
<path d="M218.957 12.9974C217.727 12.9972 216.525 12.6336 215.501 11.9521C214.477 11.2706 213.677 10.3016 213.202 9.16702C212.728 8.03242 212.599 6.78276 212.832 5.57511C213.065 4.36746 213.65 3.25565 214.513 2.37947C215.376 1.50329 216.479 0.901817 217.683 0.650587C218.887 0.399356 220.139 0.5096 221.28 0.967474C222.422 1.42535 223.403 2.21044 224.099 3.22405C224.796 4.23766 225.178 5.43453 225.196 6.66435C225.212 7.4924 225.062 8.31522 224.755 9.08449C224.448 9.85375 223.991 10.554 223.409 11.1439C222.828 11.7339 222.135 12.2018 221.37 12.5201C220.606 12.8383 219.785 13.0006 218.957 12.9974ZM218.957 2.88805C218.182 2.8884 217.425 3.12 216.782 3.55325C216.14 3.9865 215.641 4.60168 215.35 5.32C215.059 6.03832 214.989 6.82714 215.149 7.58545C215.309 8.34376 215.692 9.03704 216.248 9.5766C216.804 10.1162 217.509 10.4774 218.272 10.6142C219.035 10.7509 219.821 10.6569 220.53 10.3442C221.239 10.0314 221.839 9.51412 222.252 8.85858C222.666 8.20304 222.874 7.439 222.851 6.66435C222.851 6.15303 222.75 5.64673 222.554 5.17433C222.359 4.70194 222.072 4.27271 221.71 3.91115C221.349 3.54959 220.92 3.26282 220.447 3.06714C219.975 2.87147 219.468 2.7708 218.957 2.7708V2.88805Z" fill="black"/>
<path d="M200.896 1.59766H198.551V11.707H200.896V1.59766Z" fill="black"/>
<path d="M204.79 5.4917H194.681V7.83725H204.79V5.4917Z" fill="black"/>
<path d="M242.694 32.2074H235.118C234.496 32.2074 233.899 31.9603 233.459 31.5204C233.019 31.0805 232.772 30.484 232.772 29.8619V22.2857C232.772 21.6637 233.019 21.0671 233.459 20.6272C233.899 20.1873 234.496 19.9402 235.118 19.9402H242.694C243.316 19.9402 243.913 20.1873 244.353 20.6272C244.792 21.0671 245.04 21.6637 245.04 22.2857V29.8619C245.04 30.484 244.792 31.0805 244.353 31.5204C243.913 31.9603 243.316 32.2074 242.694 32.2074ZM235.118 22.0981V29.768H242.788V22.192L235.118 22.0981Z" fill="black"/>
<path d="M258.034 12.9974C256.799 12.9974 255.592 12.6308 254.565 11.9442C253.539 11.2576 252.739 10.2818 252.268 9.14041C251.796 7.99898 251.674 6.74331 251.917 5.53239C252.159 4.32148 252.756 3.2098 253.631 2.33818C254.506 1.46656 255.619 0.874154 256.831 0.63607C258.043 0.397986 259.298 0.524947 260.438 1.00077C261.578 1.4766 262.55 2.27992 263.233 3.30903C263.916 4.33814 264.278 5.54671 264.273 6.78169C264.273 7.59992 264.112 8.41009 263.798 9.16575C263.484 9.9214 263.024 10.6077 262.444 11.1852C261.865 11.7627 261.177 12.22 260.42 12.531C259.663 12.8419 258.852 13.0005 258.034 12.9974ZM258.034 2.88806C257.264 2.88806 256.511 3.11641 255.871 3.54424C255.231 3.97208 254.732 4.5802 254.437 5.29167C254.142 6.00313 254.065 6.78601 254.215 7.5413C254.365 8.29659 254.736 8.99036 255.281 9.53489C255.825 10.0794 256.519 10.4502 257.274 10.6004C258.03 10.7507 258.813 10.6736 259.524 10.3789C260.236 10.0842 260.844 9.58515 261.271 8.94485C261.699 8.30455 261.928 7.55177 261.928 6.78169C261.943 6.26059 261.854 5.7416 261.666 5.25559C261.477 4.76957 261.193 4.32639 260.83 3.95232C260.466 3.57825 260.032 3.28093 259.552 3.07797C259.071 2.875 258.555 2.77058 258.034 2.77082V2.88806Z" fill="black"/>
<path d="M281.489 32.2072H273.843C273.221 32.2072 272.624 31.9601 272.184 31.5202C271.745 31.0803 271.497 30.4837 271.497 29.8617V22.2386C271.497 21.6165 271.745 21.0199 272.184 20.58C272.624 20.1401 273.221 19.8931 273.843 19.8931H281.489C282.112 19.8931 282.708 20.1401 283.148 20.58C283.588 21.0199 283.835 21.6165 283.835 22.2386V29.8617C283.835 30.4837 283.588 31.0803 283.148 31.5202C282.708 31.9601 282.112 32.2072 281.489 32.2072ZM273.843 22.0979V29.7913H281.536V22.1683L273.843 22.0979Z" fill="black"/>
<path d="M296.9 12.9974C295.665 12.9974 294.458 12.6308 293.431 11.9442C292.405 11.2576 291.605 10.2818 291.133 9.14041C290.662 7.99898 290.54 6.74331 290.782 5.53239C291.025 4.32148 291.621 3.2098 292.496 2.33818C293.371 1.46656 294.485 0.874154 295.697 0.63607C296.909 0.397986 298.164 0.524947 299.304 1.00077C300.443 1.4766 301.416 2.27992 302.099 3.30903C302.782 4.33814 303.144 5.54671 303.139 6.78169C303.139 7.59992 302.977 8.41009 302.664 9.16575C302.35 9.9214 301.89 10.6077 301.31 11.1852C300.73 11.7627 300.042 12.22 299.286 12.531C298.529 12.8419 297.718 13.0005 296.9 12.9974ZM296.9 2.88806C296.13 2.88806 295.377 3.11641 294.737 3.54424C294.096 3.97208 293.597 4.5802 293.303 5.29167C293.008 6.00313 292.931 6.78601 293.081 7.5413C293.231 8.29659 293.602 8.99036 294.147 9.53489C294.691 10.0794 295.385 10.4502 296.14 10.6004C296.895 10.7507 297.678 10.6736 298.39 10.3789C299.101 10.0842 299.709 9.58515 300.137 8.94485C300.565 8.30455 300.793 7.55177 300.793 6.78169C300.809 6.26059 300.72 5.7416 300.531 5.25559C300.343 4.76957 300.058 4.32639 299.695 3.95232C299.332 3.57825 298.898 3.28093 298.417 3.07797C297.937 2.875 297.421 2.77058 296.9 2.77082V2.88806Z" fill="black"/>
<path d="M240.067 1.59766H237.722V11.707H240.067V1.59766Z" fill="black"/>
<path d="M243.961 5.4917H233.851V7.83725H243.961V5.4917Z" fill="black"/>
<path d="M259.301 20.9258H256.955V31.0351H259.301V20.9258Z" fill="black"/>
<path d="M263.194 24.7957H253.085V27.1412H263.194V24.7957Z" fill="black"/>
<path d="M298.073 20.9258H295.727V31.0351H298.073V20.9258Z" fill="black"/>
<path d="M301.966 24.7957H291.857V27.1412H301.966V24.7957Z" fill="black"/>
<path d="M315.664 32.2078C314.429 32.2124 313.22 31.8504 312.191 31.1677C311.162 30.485 310.359 29.5122 309.883 28.3726C309.407 27.2329 309.28 25.9777 309.518 24.7658C309.756 23.554 310.349 22.4401 311.22 21.5652C312.092 20.6903 313.204 20.0938 314.415 19.8511C315.626 19.6085 316.881 19.7306 318.023 20.2021C319.164 20.6737 320.14 21.4734 320.827 22.4999C321.513 23.5264 321.88 24.7336 321.88 25.9686C321.88 27.6193 321.226 29.2027 320.061 30.3721C318.896 31.5415 317.315 32.2016 315.664 32.2078ZM315.664 22.0985C314.892 22.0938 314.136 22.3188 313.492 22.7448C312.848 23.1709 312.345 23.7788 312.048 24.4912C311.75 25.2036 311.671 25.9884 311.821 26.7459C311.97 27.5034 312.341 28.1993 312.887 28.7452C313.433 29.2911 314.129 29.6624 314.887 29.8119C315.644 29.9614 316.429 29.8823 317.141 29.5847C317.854 29.2871 318.462 28.7845 318.888 28.1406C319.314 27.4967 319.539 26.7407 319.534 25.9686C319.528 24.9441 319.118 23.9633 318.394 23.2388C317.669 22.5143 316.689 22.1046 315.664 22.0985Z" fill="black"/>
<path d="M373.67 32.2078C372.435 32.2124 371.226 31.8504 370.197 31.1677C369.168 30.485 368.364 29.5122 367.889 28.3726C367.413 27.2329 367.286 25.9777 367.524 24.7658C367.762 23.554 368.354 22.4401 369.226 21.5652C370.098 20.6903 371.209 20.0938 372.42 19.8511C373.631 19.6085 374.887 19.7306 376.028 20.2021C377.17 20.6737 378.146 21.4734 378.832 22.4999C379.519 23.5264 379.885 24.7336 379.885 25.9686C379.885 27.6193 379.231 29.2027 378.066 30.3721C376.901 31.5415 375.32 32.2016 373.67 32.2078ZM373.67 22.0985C372.898 22.0938 372.142 22.3188 371.498 22.7448C370.854 23.1709 370.351 23.7788 370.053 24.4912C369.756 25.2036 369.677 25.9884 369.826 26.7459C369.976 27.5034 370.347 28.1993 370.893 28.7452C371.439 29.2911 372.135 29.6624 372.892 29.8119C373.65 29.9614 374.435 29.8823 375.147 29.5847C375.859 29.2871 376.467 28.7845 376.893 28.1406C377.319 27.4967 377.544 26.7407 377.54 25.9686C377.534 24.9441 377.124 23.9633 376.399 23.2388C375.675 22.5143 374.694 22.1046 373.67 22.0985Z" fill="black"/>
<path d="M358.236 32.2072H350.613C349.991 32.2072 349.394 31.9601 348.954 31.5202C348.514 31.0803 348.267 30.4837 348.267 29.8617V22.2386C348.267 21.6165 348.514 21.0199 348.954 20.58C349.394 20.1401 349.991 19.8931 350.613 19.8931H358.236C358.858 19.8931 359.454 20.1401 359.894 20.58C360.334 21.0199 360.581 21.6165 360.581 22.2386V29.8617C360.581 30.4837 360.334 31.0803 359.894 31.5202C359.454 31.9601 358.858 32.2072 358.236 32.2072ZM350.613 22.0979V29.7913H358.306V22.1683L350.613 22.0979Z" fill="black"/>
<path d="M377.493 32.2072H369.846C369.224 32.2072 368.628 31.9601 368.188 31.5202C367.748 31.0803 367.501 30.4837 367.501 29.8617V22.2386C367.501 21.6165 367.748 21.0199 368.188 20.58C368.628 20.1401 369.224 19.8931 369.846 19.8931H377.493C378.115 19.8931 378.711 20.1401 379.151 20.58C379.591 21.0199 379.838 21.6165 379.838 22.2386V29.8617C379.838 30.4837 379.591 31.0803 379.151 31.5202C378.711 31.9601 378.115 32.2072 377.493 32.2072ZM369.846 22.0979V29.7913H377.563V22.1683L369.846 22.0979Z" fill="black"/>
<path d="M373.67 12.9976C372.444 12.9791 371.251 12.5997 370.239 11.9071C369.228 11.2145 368.442 10.2392 367.982 9.10308C367.521 7.96694 367.406 6.7203 367.649 5.51883C367.893 4.31736 368.485 3.21432 369.352 2.34745C370.219 1.48058 371.322 0.888276 372.524 0.644554C373.725 0.400832 374.972 0.516493 376.108 0.977045C377.244 1.4376 378.219 2.22267 378.912 3.23419C379.605 4.24572 379.984 5.43882 380.003 6.66462C380.015 7.49977 379.86 8.32901 379.546 9.10308C379.232 9.87715 378.766 10.5804 378.176 11.171C377.585 11.7616 376.882 12.2276 376.108 12.5414C375.334 12.8552 374.505 13.0103 373.67 12.9976ZM373.67 2.88832C373.134 2.84669 372.596 2.91612 372.089 3.09232C371.582 3.26852 371.117 3.54767 370.723 3.9122C370.329 4.27674 370.015 4.71885 369.8 5.21067C369.585 5.7025 369.474 6.23344 369.474 6.7702C369.474 7.30696 369.585 7.8379 369.8 8.32972C370.015 8.82155 370.329 9.26366 370.723 9.62819C371.117 9.99273 371.582 10.2718 372.089 10.448C372.596 10.6242 373.134 10.6937 373.67 10.6521C374.647 10.576 375.56 10.1341 376.226 9.41445C376.891 8.69484 377.261 7.75058 377.261 6.7702C377.261 5.78982 376.891 4.84555 376.226 4.12594C375.56 3.40633 374.647 2.96435 373.67 2.88832Z" fill="black"/>
<path d="M355.609 1.59766H353.263V11.707H355.609V1.59766Z" fill="black"/>
<path d="M359.479 5.4917H349.37V7.83725H359.479V5.4917Z" fill="black"/>
<path d="M336.07 20.9258H333.725V31.0351H336.07V20.9258Z" fill="black"/>
<path d="M339.964 24.7957H329.855V27.1412H339.964V24.7957Z" fill="black"/>
<path d="M397.383 32.2074H389.83C389.513 32.2233 389.195 32.1744 388.897 32.0637C388.598 31.953 388.326 31.7827 388.095 31.5633C387.865 31.3439 387.682 31.0799 387.557 30.7874C387.431 30.4949 387.367 30.18 387.368 29.8619V22.2857C387.367 21.9676 387.431 21.6527 387.557 21.3602C387.682 21.0677 387.865 20.8038 388.095 20.5843C388.326 20.3649 388.598 20.1947 388.897 20.0839C389.195 19.9732 389.513 19.9243 389.83 19.9402H397.383C398.005 19.9402 398.602 20.1873 399.042 20.6272C399.481 21.0671 399.729 21.6637 399.729 22.2857V29.8619C399.729 30.484 399.481 31.0805 399.042 31.5204C398.602 31.9603 398.005 32.2074 397.383 32.2074ZM389.83 22.0981L389.713 29.7681H397.383V22.192L389.83 22.0981Z" fill="black"/>
<path d="M414.013 20.9258H411.667V31.0351H414.013V20.9258Z" fill="black"/>
<path d="M417.907 24.7957H407.797V27.1412H417.907V24.7957Z" fill="black"/>
</svg>
