<svg width="89" height="71" viewBox="0 0 89 71" fill="none" xmlns="http://www.w3.org/2000/svg">
<path d="M82.6312 70.2905C83.8379 70.2905 85.0175 69.926 86.0208 69.243C87.0241 68.56 87.8063 67.5892 88.2681 66.4535C88.7299 65.3177 88.8506 64.0679 88.6152 62.8622C88.3797 61.6565 87.7987 60.5489 86.9455 59.6797C86.0922 58.8104 85.005 58.2184 83.8215 57.9786C82.6379 57.7387 81.4113 57.8619 80.2964 58.3323C79.1816 58.8028 78.2287 59.5994 77.5583 60.6216C76.8879 61.6438 76.5299 62.8455 76.5299 64.0749C76.5299 65.7234 77.1728 67.3044 78.317 68.47C79.4612 69.6357 81.0131 70.2905 82.6312 70.2905ZM82.6312 60.2047C83.3826 60.2047 84.117 60.4317 84.7418 60.857C85.3665 61.2822 85.8534 61.8866 86.141 62.5938C86.4285 63.301 86.5037 64.0791 86.3571 64.8299C86.2105 65.5806 85.8488 66.2702 85.3175 66.8114C84.7862 67.3527 84.1093 67.7213 83.3723 67.8706C82.6354 68.02 81.8717 67.9433 81.1775 67.6504C80.4833 67.3574 79.8899 66.8614 79.4725 66.225C79.0551 65.5885 78.8323 64.8403 78.8323 64.0749C78.82 63.5588 78.9092 63.0454 79.0947 62.5649C79.2801 62.0845 79.558 61.6467 79.9119 61.2773C80.2659 60.908 80.6889 60.6145 81.1559 60.4142C81.6229 60.2138 82.1245 60.1107 82.6312 60.1109V60.2047Z" fill="black"/>
<path d="M78.8784 70.2907H86.361C86.9716 70.2907 87.5572 70.0436 87.989 69.6037C88.4207 69.1638 88.6633 68.5673 88.6633 67.9452V60.2987C88.6633 59.6766 88.4207 59.08 87.989 58.6402C87.5572 58.2003 86.9716 57.9531 86.361 57.9531H78.8553C78.2447 57.9531 77.6591 58.2003 77.2273 58.6402C76.7956 59.08 76.553 59.6766 76.553 60.2987V67.9452C76.5529 68.2552 76.6133 68.5621 76.7304 68.8482C76.8476 69.1344 77.0192 69.394 77.2355 69.6121C77.4517 69.8302 77.7082 70.0025 77.9902 70.1189C78.2722 70.2354 78.5741 70.2938 78.8784 70.2907ZM86.384 60.2049V67.8983H78.8323V60.2518L86.384 60.2049Z" fill="black"/>
<path d="M25.0036 50.8926C26.2158 50.8973 27.4021 50.5353 28.4123 49.8526C29.4224 49.1698 30.211 48.197 30.6781 47.0574C31.1451 45.9177 31.2697 44.6625 31.036 43.4507C30.8023 42.2389 30.2209 41.125 29.3653 40.25C28.5097 39.3751 27.4185 38.7786 26.2299 38.5359C25.0413 38.2933 23.8087 38.4155 22.6883 38.887C21.5679 39.3585 20.6101 40.1582 19.9361 41.1847C19.2622 42.2113 18.9024 43.4185 18.9024 44.6535C18.9084 46.3023 19.5524 47.8821 20.6947 49.0502C21.8369 50.2182 23.3852 50.8803 25.0036 50.8926ZM25.0036 40.7833C25.7614 40.7787 26.5036 41.0036 27.1356 41.4297C27.7676 41.8557 28.2611 42.4636 28.5532 43.176C28.8453 43.8885 28.923 44.6732 28.7762 45.4307C28.6295 46.1882 28.2649 46.8841 27.729 47.43C27.1931 47.9759 26.5101 48.3473 25.7666 48.4968C25.0231 48.6463 24.2526 48.5672 23.5534 48.2696C22.8541 47.972 22.2574 47.4693 21.8392 46.8254C21.421 46.1816 21.2002 45.4255 21.2048 44.6535C21.2108 43.6289 21.6129 42.6481 22.3241 41.9236C23.0352 41.1991 23.9979 40.7895 25.0036 40.7833Z" fill="#150035"/>
<path d="M21.2506 50.8927H28.8024C29.413 50.8927 29.9986 50.6456 30.4304 50.2057C30.8621 49.7658 31.1047 49.1693 31.1047 48.5472V40.9242C31.1047 40.3021 30.8621 39.7054 30.4304 39.2656C29.9986 38.8257 29.413 38.5786 28.8024 38.5786H21.2967C20.6861 38.5786 20.1005 38.8257 19.6687 39.2656C19.237 39.7054 18.9944 40.3021 18.9944 40.9242V48.5472C18.9942 49.1612 19.2304 49.7508 19.6523 50.1893C20.0742 50.6279 20.648 50.8805 21.2506 50.8927ZM28.8024 40.7834V48.4768H21.2277V40.8538L28.8024 40.7834Z" fill="#150035"/>
<path d="M59.3545 70.2905H66.768C67.3786 70.2905 67.9642 70.0434 68.3959 69.6035C68.8277 69.1636 69.0703 68.567 69.0703 67.945V60.2047C69.0703 59.5826 68.8277 58.986 68.3959 58.5461C67.9642 58.1062 67.3786 57.8591 66.768 57.8591H59.3545C58.7439 57.8591 58.1581 58.1062 57.7264 58.5461C57.2946 58.986 57.0521 59.5826 57.0521 60.2047V67.7574C57.0266 68.0808 57.0673 68.4061 57.1716 68.7127C57.2758 69.0193 57.4413 69.3005 57.6576 69.5386C57.874 69.7766 58.1366 69.9664 58.4287 70.0958C58.7208 70.2252 59.036 70.2916 59.3545 70.2905ZM66.768 60.2047V67.8511H59.2623V60.2047H66.768Z" fill="black"/>
<path d="M44.1819 50.8926C45.3932 50.8926 46.5773 50.5267 47.5844 49.8411C48.5915 49.1556 49.3764 48.1812 49.84 47.0411C50.3035 45.901 50.4248 44.6465 50.1885 43.4362C49.9522 42.226 49.3689 41.1142 48.5124 40.2417C47.6559 39.3691 46.5646 38.7749 45.3766 38.5342C44.1887 38.2935 42.9573 38.417 41.8382 38.8892C40.7192 39.3615 39.7627 40.1612 39.0897 41.1872C38.4168 42.2132 38.0577 43.4195 38.0577 44.6535C38.0577 46.3082 38.7029 47.8951 39.8514 49.0652C40.9999 50.2353 42.5577 50.8926 44.1819 50.8926ZM44.1819 40.7833C44.9388 40.7833 45.6786 41.0123 46.3076 41.4411C46.9366 41.87 47.4265 42.4795 47.7151 43.1924C48.0037 43.9052 48.0779 44.6892 47.9286 45.4451C47.7792 46.2011 47.413 46.8948 46.8762 47.4384C46.3394 47.982 45.6562 48.351 44.9133 48.4986C44.1705 48.6461 43.4013 48.5657 42.7033 48.2674C42.0054 47.9691 41.41 47.4664 40.9929 46.823C40.5757 46.1796 40.3555 45.4245 40.3601 44.6535C40.3601 44.1433 40.459 43.638 40.6514 43.167C40.8437 42.6959 41.1256 42.2682 41.4808 41.9085C41.836 41.5488 42.2575 41.2643 42.721 41.0712C43.1846 40.878 43.6811 40.7802 44.1819 40.7833Z" fill="black"/>
<path d="M6.12429 50.8926C7.33555 50.8926 8.51954 50.5267 9.52666 49.8411C10.5338 49.1556 11.3188 48.1812 11.7824 47.0411C12.2459 45.901 12.3672 44.6465 12.1309 43.4362C11.8946 42.226 11.3112 41.1142 10.4547 40.2417C9.59819 39.3691 8.50702 38.7749 7.31903 38.5342C6.13104 38.2935 4.89969 38.417 3.78063 38.8892C2.66157 39.3615 1.70506 40.1612 1.03212 41.1872C0.359179 42.2132 -3.05176e-05 43.4195 -3.05176e-05 44.6535C-3.05176e-05 46.3082 0.645242 47.8951 1.79376 49.0652C2.94228 50.2353 4.50004 50.8926 6.12429 50.8926ZM6.12429 40.7833C6.88117 40.7833 7.621 41.0123 8.25 41.4411C8.879 41.87 9.36877 42.4795 9.65735 43.1924C9.94593 43.9052 10.0203 44.6892 9.87095 45.4451C9.7216 46.2011 9.35523 46.8948 8.81842 47.4384C8.28161 47.982 7.59847 48.351 6.85558 48.4986C6.11269 48.6461 5.34364 48.5657 4.6457 48.2674C3.94775 47.9691 3.35241 47.4664 2.93524 46.823C2.51806 46.1796 2.29776 45.4245 2.30232 44.6535C2.30231 44.1433 2.40141 43.638 2.59376 43.167C2.78611 42.6959 3.06794 42.2682 3.42314 41.9085C3.77834 41.5488 4.19984 41.2643 4.6634 41.0712C5.12697 40.878 5.62348 40.7802 6.12429 40.7833Z" fill="black"/>
<path d="M21.2506 70.2907H28.8024C29.413 70.2907 29.9986 70.0436 30.4304 69.6037C30.8621 69.1638 31.1047 68.5673 31.1047 67.9452V60.2987C31.1047 59.6766 30.8621 59.08 30.4304 58.6402C29.9986 58.2003 29.413 57.9531 28.8024 57.9531H21.2967C20.6861 57.9531 20.1005 58.2003 19.6687 58.6402C19.237 59.08 18.9944 59.6766 18.9944 60.2987V67.9452C18.9942 68.5592 19.2304 69.1488 19.6523 69.5874C20.0742 70.0259 20.648 70.2785 21.2506 70.2907ZM28.7563 60.2049V67.8983H21.1816V60.2518L28.7563 60.2049Z" fill="#150035"/>
<path d="M4.97304 58.938H7.27539V69.0473H4.97304V58.938Z" fill="#150035"/>
<path d="M1.1511 62.8083H11.0742V65.1539H1.1511V62.8083Z" fill="#150035"/>
<path d="M21.2506 32.5973H28.8024C29.413 32.5973 29.9986 32.3503 30.4304 31.9104C30.8621 31.4705 31.1047 30.8739 31.1047 30.2518V22.6288C31.1047 22.0067 30.8621 21.4101 30.4304 20.9702C29.9986 20.5304 29.413 20.2832 28.8024 20.2832H21.2967C20.6861 20.2832 20.1005 20.5304 19.6687 20.9702C19.237 21.4101 18.9944 22.0067 18.9944 22.6288V30.2518C18.9942 30.8658 19.2304 31.4554 19.6523 31.894C20.0742 32.3325 20.648 32.5851 21.2506 32.5973ZM28.8024 22.488V30.1814H21.2277V22.5584L28.8024 22.488Z" fill="#150035"/>
<path d="M6.12426 13.27C7.32998 13.2654 8.50721 12.8969 9.50752 12.2111C10.5078 11.5253 11.2863 10.5529 11.7445 9.41675C12.2028 8.28058 12.3204 7.03152 12.0823 5.82734C11.8443 4.62316 11.2615 3.51783 10.4073 2.65089C9.55312 1.78395 8.46591 1.1943 7.28302 0.956363C6.10013 0.718423 4.87458 0.842845 3.76107 1.31398C2.64756 1.78511 1.69601 2.58183 1.02661 3.60348C0.35721 4.62513 -5.24521e-05 5.82596 -6.10352e-05 7.05431C-6.67572e-05 7.87254 0.158566 8.68271 0.466619 9.43837C0.774673 10.194 1.22614 10.8803 1.79513 11.4578C2.36413 12.0353 3.03939 12.4926 3.78229 12.8036C4.52518 13.1146 5.3211 13.2731 6.12426 13.27ZM6.12426 3.18416C6.87461 3.1888 7.60678 3.41965 8.22847 3.84771C8.85015 4.27578 9.33341 4.88184 9.61741 5.58941C9.90141 6.29699 9.97343 7.0744 9.82426 7.82358C9.67509 8.57277 9.31151 9.26015 8.77932 9.79906C8.24714 10.338 7.57018 10.7043 6.83391 10.8517C6.09763 10.9992 5.33497 10.9211 4.64215 10.6275C3.94934 10.3339 3.35738 9.83793 2.94097 9.20201C2.52455 8.56608 2.3023 7.81875 2.30229 7.05431C2.30228 6.54409 2.40138 6.03888 2.59373 5.56779C2.78608 5.09671 3.06791 4.66902 3.42311 4.30934C3.77831 3.94965 4.19981 3.6651 4.66337 3.47199C5.12693 3.27888 5.62345 3.18107 6.12426 3.18416Z" fill="#150035"/>
<path d="M43.0309 21.3152H45.3333V31.4245H43.0309V21.3152Z" fill="black"/>
<path d="M39.209 25.2092H49.1321V27.5548H39.209V25.2092Z" fill="black"/>
<path d="M4.97304 21.3152H7.27539V31.4245H4.97304V21.3152Z" fill="#150035"/>
<path d="M1.1511 25.2092H11.0742V27.5548H1.1511V25.2092Z" fill="#150035"/>
</svg>
