<svg width="180" height="36" viewBox="0 0 180 36" fill="none" xmlns="http://www.w3.org/2000/svg">
<g clip-path="url(#clip0)">
<path fill-rule="evenodd" clip-rule="evenodd" d="M66.0789 21.4425C66.673 21.43 67.2636 21.5366 67.8156 21.756C68.3676 21.9753 68.8698 22.3029 69.2923 22.7194C69.7079 23.1319 70.0376 23.6221 70.2627 24.1619C70.4877 24.7016 70.6035 25.2804 70.6035 25.8649C70.6035 26.4494 70.4877 27.0281 70.2627 27.5679C70.0376 28.1077 69.7079 28.5979 69.2923 29.0104C68.8682 29.4237 68.3655 29.7482 67.8136 29.9648C67.2617 30.1815 66.6719 30.2858 66.0789 30.2718H60.5947V15.7258H69.3546V17.5577H62.5344V21.4386L66.0789 21.4425ZM66.0789 28.4671C66.4241 28.4702 66.7665 28.4045 67.0858 28.2737C67.4052 28.1429 67.695 27.9498 67.9382 27.7056C68.1814 27.4615 68.3731 27.1713 68.502 26.8521C68.6308 26.533 68.6943 26.1914 68.6886 25.8474C68.6948 25.5025 68.6288 25.16 68.4946 24.8419C68.3605 24.5238 68.1612 24.2371 67.9095 24.0001C67.6691 23.7567 67.3814 23.5647 67.0639 23.4359C66.7465 23.3072 66.406 23.2442 66.0633 23.2511H62.5189V28.4671H66.0789ZM79.244 19.8824H81.1915L76.9265 30.9199C76.5686 31.9763 75.9176 32.9102 75.0491 33.6133C74.2678 34.2228 73.2841 34.5154 72.2953 34.4322V32.7517C73.5781 32.85 74.5168 32.1566 75.1114 30.6715L75.2789 30.2834L70.7529 19.8824H72.6731L76.241 28.0324L79.244 19.8824ZM91.7587 30.2718H89.632L86.7107 26.3442L83.77 30.2718H81.6433L85.6474 24.9315L81.8731 19.8862H84.0193L86.7107 23.5033L89.4022 19.8862H91.5328L87.778 24.9315L91.7587 30.2718ZM100.293 19.8785V21.6249H95.2642V30.2718H93.4491V19.8824L100.293 19.8785ZM110.096 19.8785H111.911V30.2718H110.096V28.4865C109.68 29.1454 109.096 29.6828 108.404 30.044C107.711 30.4053 106.935 30.5776 106.155 30.5434C105.455 30.5528 104.761 30.4161 104.118 30.1421C103.474 29.868 102.896 29.4627 102.419 28.9522C101.426 27.9023 100.873 26.514 100.873 25.0712C100.873 23.6285 101.426 22.2402 102.419 21.1903C102.896 20.6803 103.475 20.2756 104.118 20.0022C104.762 19.7288 105.455 19.5928 106.155 19.6029C106.935 19.5688 107.711 19.7411 108.404 20.1023C109.096 20.4636 109.68 21.0009 110.096 21.6599V19.8824V19.8785ZM106.384 28.8047C106.876 28.8173 107.365 28.7287 107.821 28.5444C108.277 28.36 108.689 28.084 109.033 27.7336C109.716 27.0186 110.096 26.0696 110.096 25.0829C110.096 24.0961 109.716 23.1471 109.033 22.4322C108.326 21.7477 107.38 21.3648 106.394 21.3648C105.409 21.3648 104.462 21.7477 103.755 22.4322C103.073 23.1471 102.692 24.0961 102.692 25.0829C102.692 26.0696 103.073 27.0186 103.755 27.7336C104.096 28.0827 104.505 28.3581 104.958 28.5424C105.41 28.7267 105.896 28.816 106.384 28.8047ZM123.363 19.8785V30.2718H121.548V21.6288H117.438V25.8707C117.438 27.5758 117.094 28.7633 116.406 29.4335C115.717 30.1049 114.747 30.3882 113.497 30.2756V28.5719C113.781 28.6396 114.077 28.6323 114.357 28.5506C114.637 28.4689 114.891 28.3157 115.094 28.1062C115.448 27.6948 115.623 26.9419 115.623 25.828V19.8824L123.363 19.8785ZM133.879 19.8785V21.6249H130.335V30.2718H128.535V21.6288H124.968V19.8824L133.879 19.8785ZM136.325 25.9134C136.463 26.7694 136.921 27.5418 137.607 28.0751C138.327 28.605 139.205 28.8784 140.1 28.8513C141.478 28.8513 142.479 28.3429 143.107 27.3338L144.665 28.2071C143.647 29.7595 142.117 30.5357 140.076 30.5357C139.332 30.5654 138.59 30.443 137.895 30.176C137.201 29.909 136.568 29.5031 136.037 28.9833C135.523 28.4704 135.119 27.8581 134.851 27.1839C134.583 26.5098 134.457 25.7882 134.479 25.0635C134.458 24.3437 134.582 23.6272 134.844 22.956C135.106 22.2848 135.499 21.6725 136.002 21.1553C136.515 20.6388 137.131 20.2341 137.809 19.9669C138.488 19.6996 139.215 19.5757 139.944 19.6029C140.649 19.5805 141.35 19.7132 141.998 19.9916C142.645 20.27 143.223 20.6872 143.691 21.2135C144.653 22.2754 145.172 23.664 145.14 25.0945C145.14 25.3661 145.119 25.6372 145.077 25.9056L136.325 25.9134ZM139.932 21.3183C139.06 21.2744 138.203 21.5609 137.534 22.1202C136.865 22.6795 136.433 23.4704 136.325 24.3338H143.294C143.2 23.4656 142.783 22.6639 142.125 22.0868C141.511 21.5752 140.733 21.2999 139.932 21.3106V21.3183ZM152.973 19.6146C153.671 19.6045 154.365 19.7405 155.007 20.0139C155.65 20.2874 156.228 20.692 156.704 21.2019C157.7 22.2505 158.255 23.6393 158.255 25.0829C158.255 26.5265 157.7 27.9152 156.704 28.9639C156.228 29.4742 155.65 29.8795 155.008 30.1536C154.365 30.4277 153.672 30.5644 152.973 30.5551C152.191 30.5891 151.415 30.4168 150.722 30.0556C150.029 29.6944 149.444 29.1571 149.027 28.4981V34.4322H147.216V19.8824H149.027V21.6715C149.444 21.0126 150.029 20.4753 150.722 20.114C151.415 19.7528 152.191 19.5805 152.973 19.6146ZM152.743 28.8009C153.231 28.8121 153.717 28.7228 154.169 28.5385C154.622 28.3542 155.031 28.0789 155.372 27.7297C156.054 27.0147 156.435 26.0657 156.435 25.079C156.435 24.0923 156.054 23.1433 155.372 22.4283C154.665 21.7438 153.719 21.3609 152.733 21.3609C151.748 21.3609 150.801 21.7438 150.094 22.4283C149.409 23.1419 149.027 24.0914 149.027 25.079C149.027 26.0666 149.409 27.0161 150.094 27.7297C150.438 28.0803 150.851 28.3565 151.306 28.5408C151.762 28.7251 152.251 28.8137 152.743 28.8009ZM167.992 19.8746H169.433V30.2718H167.637V22.9794L161.873 30.2718H160.412V19.8824H162.204V27.167L167.984 19.8707L167.992 19.8746ZM180.008 19.8746V30.2718H178.212V26.5344H176.689L173.76 30.2718H171.552L174.594 26.4257C173.852 26.2516 173.187 25.8432 172.697 25.2614C172.217 24.6912 171.958 23.9681 171.969 23.2239C171.957 22.7759 172.043 22.3307 172.219 21.9183C172.395 21.5059 172.657 21.1359 172.989 20.8332C173.685 20.1899 174.607 19.8455 175.556 19.8746H180.008ZM175.626 24.9199H178.212V21.5667H175.626C175.147 21.5532 174.679 21.7162 174.313 22.0247C174.135 22.1743 173.993 22.3626 173.899 22.5751C173.804 22.7876 173.759 23.0188 173.768 23.2511C173.761 23.4803 173.806 23.7083 173.9 23.9174C173.995 24.1266 174.136 24.3115 174.313 24.458C174.678 24.7633 175.142 24.9248 175.618 24.9121L175.626 24.9199Z" fill="#080200"/>
<path fill-rule="evenodd" clip-rule="evenodd" d="M3.03421 10.3H53.8212V32.9883C53.8212 33.7901 53.5015 34.5591 52.9325 35.1261C52.3635 35.693 51.5917 36.0116 50.787 36.0116H3.03421C2.22949 36.0116 1.45772 35.693 0.8887 35.1261C0.319675 34.5591 0 33.7901 0 32.9883L0 13.3233C0 12.5215 0.319675 11.7525 0.8887 11.1855C1.45772 10.6186 2.22949 10.3 3.03421 10.3Z" fill="#FBBA00"/>
<path fill-rule="evenodd" clip-rule="evenodd" d="M60.131 7.56016C61.1515 6.20957 61.6423 3.88098 60.8477 0C50.822 1.55239 52.972 6.95084 53.9302 8.63907C55.4068 6.3578 57.1482 4.25792 59.1183 2.38292C57.7828 4.3055 56.6276 6.34645 55.6674 8.47995C57.0189 6.92756 58.6042 6.84605 60.131 7.56016ZM63.286 10.727C58.8924 15.6636 56.5359 12.9314 55.6596 11.4489C57.0242 10.9967 58.4608 10.7993 59.8973 10.8668C58.4472 10.4206 56.93 10.2301 55.4142 10.304C55.9478 9.02717 58.1446 5.25873 63.286 10.727Z" fill="#85BC22"/>
<path fill-rule="evenodd" clip-rule="evenodd" d="M30.6772 15.9431H31.9976V17.2588H30.6772V15.9431ZM11.7669 24.1863L15.0465 15.9431H17.2277L12.1876 27.7762C11.4475 29.511 10.4777 30.2795 8.68207 30.3493C7.75077 30.3634 6.82534 30.2001 5.95557 29.8681V28.2109C7.65769 28.7077 7.8797 28.7659 8.48732 28.7542C9.31696 28.7542 10.0181 28.3118 10.8243 26.4567L5.96725 15.9431H8.07445L11.7669 24.1863ZM26.0655 30.3493H24.2465V26.5188C23.4469 26.7287 22.6234 26.8344 21.7966 26.8332C19.2453 26.8332 17.7302 25.5214 17.7068 22.9289V19.7931H19.518V23.0026C19.518 24.5783 20.297 25.2652 21.7966 25.2652C22.6234 25.2664 23.4469 25.1608 24.2465 24.9509V19.7931H26.0655V30.3493ZM33.3102 30.3493C29.9138 30.3493 28.2701 28.1294 28.2701 25.0363C28.2701 22.3196 30.0267 19.8008 33.0765 19.8008C36.878 19.8008 37.5986 22.568 37.5986 25.5757H29.9449C29.943 26.0189 30.0311 26.4578 30.204 26.8661C30.3769 27.2744 30.6309 27.6436 30.9508 27.9515C31.2707 28.2593 31.6499 28.4995 32.0654 28.6575C32.4809 28.8154 32.9242 28.888 33.3686 28.8707C33.9277 28.8943 34.4846 28.7876 34.9951 28.5592C35.5056 28.3309 35.9556 27.987 36.3094 27.555L37.4779 28.3817C36.5431 29.6934 35.1538 30.3493 33.3102 30.3493ZM33.0765 21.2251C31.3043 21.2251 30.2098 22.6106 30.0072 24.1514H35.9238C35.9238 22.5718 34.8526 21.2251 33.0765 21.2251ZM47.8503 21.2601H44.298V30.3493H42.4869V21.2601H38.9813V19.7931H47.8308V21.2523L47.8503 21.2601ZM33.8867 15.9548H35.2071V17.2704H33.8867V15.9548Z" fill="white"/>
</g>
<defs>
<clipPath id="clip0">
<rect width="180" height="36" fill="white"/>
</clipPath>
</defs>
</svg>
