<svg width="459" height="32" viewBox="0 0 459 32" fill="none" xmlns="http://www.w3.org/2000/svg">
<path d="M6.4972 31.7822C5.26785 31.7822 4.06611 31.4177 3.04394 30.7347C2.02177 30.0517 1.22509 29.081 0.75464 27.9452C0.284187 26.8094 0.161096 25.5596 0.40093 24.3539C0.640764 23.1482 1.23275 22.0407 2.10204 21.1714C2.97132 20.3021 4.07885 19.7101 5.28458 19.4703C6.49031 19.2304 7.74008 19.3535 8.87585 19.824C10.0116 20.2944 10.9824 21.0911 11.6654 22.1133C12.3484 23.1354 12.7129 24.3372 12.7129 25.5665C12.7067 27.2131 12.0499 28.7905 10.8855 29.9549C9.72121 31.1192 8.14381 31.7761 6.4972 31.7822ZM6.4972 21.6964C5.73176 21.6964 4.9835 21.9234 4.34706 22.3486C3.71062 22.7739 3.21457 23.3783 2.92165 24.0855C2.62872 24.7927 2.55208 25.5708 2.70141 26.3216C2.85074 27.0723 3.21934 27.7619 3.76059 28.3032C4.30184 28.8444 4.99144 29.213 5.74217 29.3623C6.49291 29.5117 7.27107 29.435 7.97825 29.1421C8.68543 28.8492 9.28986 28.3531 9.71512 27.7167C10.1404 27.0802 10.3674 26.332 10.3674 25.5665C10.3612 24.542 9.95149 23.5612 9.22702 22.8367C8.50255 22.1123 7.52174 21.7025 6.4972 21.6964Z" fill="#150035"/>
<path d="M25.8246 12.4783C24.5897 12.4829 23.3811 12.121 22.352 11.4382C21.3229 10.7555 20.5195 9.78269 20.0437 8.64304C19.5679 7.5034 19.441 6.24818 19.6791 5.03636C19.9171 3.82454 20.5095 2.71064 21.3811 1.83573C22.2527 0.960817 23.3644 0.364261 24.5753 0.121614C25.7862 -0.121033 27.0419 0.0011463 28.1834 0.472677C29.3248 0.944207 30.3006 1.74388 30.9872 2.7704C31.6738 3.79693 32.0403 5.00414 32.0403 6.23912C32.0404 7.88979 31.3862 9.47321 30.2212 10.6426C29.0562 11.812 27.4753 12.4721 25.8246 12.4783ZM25.8246 2.36896C25.0526 2.36433 24.2966 2.58933 23.6527 3.01537C23.0088 3.44142 22.5061 4.04928 22.2085 4.76169C21.9109 5.4741 21.8318 6.25891 21.9813 7.01638C22.1308 7.77384 22.5021 8.46977 23.048 9.01571C23.594 9.56165 24.2899 9.93295 25.0474 10.0824C25.8048 10.2319 26.5897 10.1528 27.3021 9.85525C28.0145 9.55765 28.6223 9.05496 29.0484 8.41108C29.4744 7.76719 29.6994 7.01118 29.6948 6.23912C29.6948 5.21269 29.287 4.2283 28.5612 3.50251C27.8355 2.77671 26.8511 2.36896 25.8246 2.36896Z" fill="#150035"/>
<path d="M64.5026 31.7822C63.2732 31.7822 62.0715 31.4177 61.0493 30.7347C60.0271 30.0517 59.2305 29.081 58.76 27.9452C58.2896 26.8094 58.1665 25.5596 58.4063 24.3539C58.6461 23.1482 59.2381 22.0407 60.1074 21.1714C60.9767 20.3021 62.0842 19.7101 63.29 19.4703C64.4957 19.2304 65.7455 19.3535 66.8812 19.824C68.017 20.2944 68.9878 21.0911 69.6707 22.1133C70.3537 23.1354 70.7183 24.3372 70.7183 25.5665C70.7121 27.2131 70.0553 28.7905 68.8909 29.9549C67.7266 31.1192 66.1492 31.7761 64.5026 31.7822ZM64.5026 21.6964C63.7371 21.6964 62.9889 21.9234 62.3524 22.3486C61.716 22.7739 61.2199 23.3783 60.927 24.0855C60.6341 24.7927 60.5575 25.5708 60.7068 26.3216C60.8561 27.0723 61.2247 27.7619 61.766 28.3032C62.3072 28.8444 62.9968 29.213 63.7475 29.3623C64.4983 29.5117 65.2764 29.435 65.9836 29.1421C66.6908 28.8492 67.2952 28.3531 67.7205 27.7167C68.1458 27.0802 68.3727 26.332 68.3727 25.5665C68.3666 24.542 67.9569 23.5612 67.2324 22.8367C66.5079 22.1123 65.5271 21.7025 64.5026 21.6964Z" fill="#150035"/>
<path d="M68.3259 31.7822H60.6794C60.0573 31.7822 59.4607 31.5351 59.0209 31.0952C58.581 30.6553 58.3339 30.0587 58.3339 29.4367V21.7433C58.3339 21.1212 58.581 20.5246 59.0209 20.0847C59.4607 19.6448 60.0573 19.3977 60.6794 19.3977H68.3259C68.948 19.3977 69.5446 19.6448 69.9845 20.0847C70.4243 20.5246 70.6715 21.1212 70.6715 21.7433V29.3897C70.6777 29.7017 70.6216 30.0118 70.5066 30.3018C70.3915 30.5918 70.2197 30.8559 70.0013 31.0787C69.7828 31.3015 69.5222 31.4785 69.2345 31.5993C68.9468 31.7201 68.6379 31.7823 68.3259 31.7822ZM60.6794 21.6963V29.3897H68.3963V21.7433L60.6794 21.6963Z" fill="#150035"/>
<path d="M123.212 12.4783C121.977 12.4829 120.768 12.121 119.739 11.4382C118.71 10.7555 117.907 9.78269 117.431 8.64304C116.955 7.5034 116.828 6.24818 117.066 5.03636C117.304 3.82454 117.897 2.71064 118.768 1.83573C119.64 0.960817 120.751 0.364261 121.962 0.121614C123.173 -0.121033 124.429 0.0011463 125.57 0.472677C126.712 0.944207 127.688 1.74388 128.374 2.7704C129.061 3.79693 129.427 5.00414 129.427 6.23912C129.427 7.88979 128.773 9.47321 127.608 10.6426C126.443 11.812 124.862 12.4721 123.212 12.4783ZM123.212 2.36896C122.44 2.36433 121.684 2.58933 121.04 3.01537C120.396 3.44142 119.893 4.04928 119.596 4.76169C119.298 5.4741 119.219 6.25891 119.368 7.01638C119.518 7.77384 119.889 8.46977 120.435 9.01571C120.981 9.56165 121.677 9.93295 122.434 10.0824C123.192 10.2319 123.977 10.1528 124.689 9.85525C125.402 9.55765 126.009 9.05496 126.435 8.41108C126.862 7.76719 127.087 7.01118 127.082 6.23912C127.076 5.21459 126.666 4.23377 125.942 3.50931C125.217 2.78484 124.236 2.37512 123.212 2.36896Z" fill="black"/>
<path d="M127.035 12.4783H119.389C118.766 12.4783 118.17 12.2312 117.73 11.7913C117.29 11.3514 117.043 10.7548 117.043 10.1328V2.36899C117.043 1.74691 117.29 1.15031 117.73 0.710433C118.17 0.270557 118.766 0.0234375 119.389 0.0234375L127.035 0.0234375C127.657 0.0234375 128.254 0.270557 128.694 0.710433C129.133 1.15031 129.381 1.74691 129.381 2.36899V10.0624C129.39 10.3763 129.336 10.6889 129.223 10.9816C129.109 11.2744 128.938 11.5413 128.719 11.7666C128.5 11.9919 128.238 12.171 127.949 12.2933C127.66 12.4155 127.349 12.4784 127.035 12.4783ZM119.389 2.36899V10.0624H127.105V2.36899H119.389Z" fill="black"/>
<path d="M64.5026 12.4783C63.2676 12.4829 62.0591 12.121 61.0299 11.4382C60.0008 10.7555 59.1975 9.78269 58.7217 8.64304C58.2459 7.5034 58.1189 6.24818 58.357 5.03636C58.5951 3.82454 59.1875 2.71064 60.0591 1.83573C60.9307 0.960817 62.0424 0.364261 63.2533 0.121614C64.4642 -0.121033 65.7199 0.0011463 66.8613 0.472677C68.0028 0.944207 68.9786 1.74388 69.6652 2.7704C70.3518 3.79693 70.7183 5.00414 70.7183 6.23912C70.7122 7.88791 70.0561 9.46776 68.8924 10.6358C67.7287 11.8039 66.1514 12.4659 64.5026 12.4783ZM64.5026 2.36896C63.7305 2.36433 62.9745 2.58933 62.3307 3.01537C61.6868 3.44142 61.1841 4.04928 60.8865 4.76169C60.5889 5.4741 60.5098 6.25891 60.6593 7.01638C60.8088 7.77384 61.1801 8.46977 61.726 9.01571C62.272 9.56165 62.9679 9.93295 63.7254 10.0824C64.4828 10.2319 65.2676 10.1528 65.98 9.85525C66.6925 9.55765 67.3003 9.05496 67.7264 8.41108C68.1524 7.76719 68.3774 7.01118 68.3728 6.23912C68.3666 5.21459 67.9569 4.23377 67.2324 3.50931C66.508 2.78484 65.5271 2.37512 64.5026 2.36896Z" fill="#150035"/>
<path d="M46.4419 1.19629H44.0963V11.3056H46.4419V1.19629Z" fill="#150035"/>
<path d="M50.3121 5.06616H40.2028V7.41171H50.3121V5.06616Z" fill="#150035"/>
<path d="M26.9034 20.5234H24.5579V30.6328H26.9034V20.5234Z" fill="#150035"/>
<path d="M30.7971 24.3936H20.6877V26.7391H30.7971V24.3936Z" fill="#150035"/>
<path d="M88.2162 31.7824H80.6635C80.0415 31.7824 79.4449 31.5353 79.005 31.0954C78.5651 30.6555 78.318 30.0589 78.318 29.4369V21.7904C78.318 21.1683 78.5651 20.5717 79.005 20.1318C79.4449 19.6919 80.0415 19.4448 80.6635 19.4448H88.2162C88.8383 19.4448 89.4349 19.6919 89.8748 20.1318C90.3146 20.5717 90.5618 21.1683 90.5618 21.7904V29.343C90.5744 29.6589 90.5231 29.974 90.4109 30.2695C90.2987 30.565 90.1279 30.8348 89.9088 31.0626C89.6898 31.2904 89.4269 31.4716 89.136 31.5953C88.8452 31.719 88.5323 31.7827 88.2162 31.7824ZM80.6635 21.6966V29.343H88.31V21.7904L80.6635 21.6966Z" fill="#150035"/>
<path d="M10.2735 12.4783H2.69736C2.07528 12.4783 1.47868 12.2312 1.0388 11.7913C0.598926 11.3514 0.351807 10.7548 0.351807 10.1328V2.36899C0.351807 1.74691 0.598926 1.15031 1.0388 0.710433C1.47868 0.270557 2.07528 0.0234375 2.69736 0.0234375L10.2735 0.0234375C10.8956 0.0234375 11.4922 0.270557 11.932 0.710433C12.3719 1.15031 12.619 1.74691 12.619 2.36899V10.0389C12.6317 10.3548 12.5804 10.6699 12.4682 10.9654C12.356 11.2609 12.1852 11.5306 11.9661 11.7585C11.747 11.9863 11.4842 12.1675 11.1933 12.2912C10.9024 12.4149 10.5896 12.4786 10.2735 12.4783ZM2.69736 2.36899V10.0389H10.3673V2.36899H2.69736Z" fill="#150035"/>
<path d="M127.035 31.7822H119.389C118.766 31.7822 118.17 31.5351 117.73 31.0952C117.29 30.6553 117.043 30.0587 117.043 29.4367V21.7433C117.043 21.1212 117.29 20.5246 117.73 20.0847C118.17 19.6448 118.766 19.3977 119.389 19.3977H127.035C127.657 19.3977 128.254 19.6448 128.694 20.0847C129.133 20.5246 129.381 21.1212 129.381 21.7433V29.3897C129.387 29.7017 129.331 30.0118 129.216 30.3018C129.101 30.5918 128.929 30.8559 128.71 31.0787C128.492 31.3015 128.231 31.4785 127.944 31.5993C127.656 31.7201 127.347 31.7823 127.035 31.7822ZM119.389 21.6963V29.3897H127.105V21.7433L119.389 21.6963Z" fill="black"/>
<path d="M142.445 12.4783C141.21 12.4829 140.002 12.121 138.973 11.4382C137.943 10.7555 137.14 9.78269 136.664 8.64304C136.188 7.5034 136.062 6.24818 136.3 5.03636C136.538 3.82454 137.13 2.71064 138.002 1.83573C138.873 0.960817 139.985 0.364261 141.196 0.121614C142.407 -0.121033 143.663 0.0011463 144.804 0.472677C145.945 0.944207 146.921 1.74388 147.608 2.7704C148.294 3.79693 148.661 5.00414 148.661 6.23912C148.661 7.88979 148.007 9.47321 146.842 10.6426C145.677 11.812 144.096 12.4721 142.445 12.4783ZM142.445 2.36896C141.673 2.36433 140.917 2.58933 140.273 3.01537C139.629 3.44142 139.127 4.04928 138.829 4.76169C138.532 5.4741 138.452 6.25891 138.602 7.01638C138.751 7.77384 139.123 8.46977 139.669 9.01571C140.215 9.56165 140.911 9.93295 141.668 10.0824C142.425 10.2319 143.21 10.1528 143.923 9.85525C144.635 9.55765 145.243 9.05496 145.669 8.41108C146.095 7.76719 146.32 7.01118 146.315 6.23912C146.315 5.21269 145.908 4.2283 145.182 3.50251C144.456 2.77671 143.472 2.36896 142.445 2.36896Z" fill="black"/>
<path d="M85.6126 1.19629H83.2671V11.3056H85.6126V1.19629Z" fill="#150035"/>
<path d="M89.5062 5.06616H79.3969V7.41171H89.5062V5.06616Z" fill="#150035"/>
<path d="M104.846 20.5234H102.501V30.6328H104.846V20.5234Z" fill="black"/>
<path d="M108.74 24.3936H98.6304V26.7391H108.74V24.3936Z" fill="black"/>
<path d="M143.618 20.5234H141.272V30.6328H143.618V20.5234Z" fill="black"/>
<path d="M147.512 24.3936H137.402V26.7391H147.512V24.3936Z" fill="black"/>
<path d="M161.21 31.7822C159.98 31.7822 158.779 31.4177 157.756 30.7347C156.734 30.0517 155.938 29.081 155.467 27.9452C154.997 26.8094 154.874 25.5596 155.113 24.3539C155.353 23.1482 155.945 22.0407 156.815 21.1714C157.684 20.3021 158.791 19.7101 159.997 19.4703C161.203 19.2304 162.453 19.3535 163.588 19.824C164.724 20.2944 165.695 21.0911 166.378 22.1133C167.061 23.1354 167.425 24.3372 167.425 25.5665C167.419 27.2131 166.762 28.7905 165.598 29.9549C164.434 31.1192 162.856 31.7761 161.21 31.7822ZM161.21 21.6964C160.444 21.6964 159.696 21.9234 159.06 22.3486C158.423 22.7739 157.927 23.3783 157.634 24.0855C157.341 24.7927 157.265 25.5708 157.414 26.3216C157.563 27.0723 157.932 27.7619 158.473 28.3032C159.014 28.8444 159.704 29.213 160.455 29.3623C161.205 29.5117 161.984 29.435 162.691 29.1421C163.398 28.8492 164.002 28.3531 164.428 27.7167C164.853 27.0802 165.08 26.332 165.08 25.5665C165.08 25.0583 164.98 24.555 164.785 24.0855C164.591 23.6159 164.306 23.1893 163.946 22.8299C163.587 22.4705 163.16 22.1855 162.691 21.991C162.221 21.7965 161.718 21.6964 161.21 21.6964Z" fill="black"/>
<path d="M180.443 12.4783C179.208 12.4829 178 12.121 176.971 11.4382C175.941 10.7555 175.138 9.78269 174.662 8.64304C174.186 7.5034 174.059 6.24818 174.298 5.03636C174.536 3.82454 175.128 2.71064 176 1.83573C176.871 0.960817 177.983 0.364261 179.194 0.121614C180.405 -0.121033 181.66 0.0011463 182.802 0.472677C183.943 0.944207 184.919 1.74388 185.606 2.7704C186.292 3.79693 186.659 5.00414 186.659 6.23912C186.659 7.88979 186.005 9.47321 184.84 10.6426C183.675 11.812 182.094 12.4721 180.443 12.4783ZM180.443 2.36896C179.671 2.36433 178.915 2.58933 178.271 3.01537C177.627 3.44142 177.125 4.04928 176.827 4.76169C176.529 5.4741 176.45 6.25891 176.6 7.01638C176.749 7.77384 177.121 8.46977 177.667 9.01571C178.213 9.56165 178.908 9.93295 179.666 10.0824C180.423 10.2319 181.208 10.1528 181.921 9.85525C182.633 9.55765 183.241 9.05496 183.667 8.41108C184.093 7.76719 184.318 7.01118 184.313 6.23912C184.313 5.73089 184.213 5.22763 184.019 4.75808C183.824 4.28853 183.539 3.86188 183.18 3.50251C182.82 3.14313 182.394 2.85806 181.924 2.66356C181.455 2.46907 180.951 2.36896 180.443 2.36896Z" fill="black"/>
<path d="M219.215 31.7822C217.986 31.7822 216.784 31.4177 215.762 30.7347C214.74 30.0517 213.943 29.081 213.473 27.9452C213.002 26.8094 212.879 25.5596 213.119 24.3539C213.359 23.1482 213.951 22.0407 214.82 21.1714C215.689 20.3021 216.797 19.7101 218.002 19.4703C219.208 19.2304 220.458 19.3535 221.594 19.824C222.73 20.2944 223.7 21.0911 224.383 22.1133C225.066 23.1354 225.431 24.3372 225.431 25.5665C225.425 27.2131 224.768 28.7905 223.603 29.9549C222.439 31.1192 220.862 31.7761 219.215 31.7822ZM219.215 21.6964C218.45 21.6964 217.701 21.9234 217.065 22.3486C216.429 22.7739 215.932 23.3783 215.64 24.0855C215.347 24.7927 215.27 25.5708 215.419 26.3216C215.569 27.0723 215.937 27.7619 216.478 28.3032C217.02 28.8444 217.709 29.213 218.46 29.3623C219.211 29.5117 219.989 29.435 220.696 29.1421C221.403 28.8492 222.008 28.3531 222.433 27.7167C222.858 27.0802 223.085 26.332 223.085 25.5665C223.085 24.5401 222.678 23.5557 221.952 22.8299C221.226 22.1041 220.242 21.6964 219.215 21.6964Z" fill="black"/>
<path d="M223.015 31.7822H215.392C214.77 31.7822 214.173 31.5351 213.733 31.0952C213.294 30.6553 213.046 30.0587 213.046 29.4367V21.7433C213.046 21.1212 213.294 20.5246 213.733 20.0847C214.173 19.6448 214.77 19.3977 215.392 19.3977H223.015C223.637 19.3977 224.234 19.6448 224.674 20.0847C225.113 20.5246 225.361 21.1212 225.361 21.7433V29.3897C225.367 29.7017 225.311 30.0118 225.196 30.3018C225.081 30.5918 224.909 30.8559 224.69 31.0787C224.472 31.3015 224.211 31.4785 223.924 31.5993C223.636 31.7201 223.327 31.7823 223.015 31.7822ZM215.392 21.6963V29.3897H223.085V21.7433L215.392 21.6963Z" fill="black"/>
<path d="M277.924 12.4783C276.689 12.4829 275.481 12.121 274.452 11.4382C273.422 10.7555 272.619 9.78269 272.143 8.64304C271.667 7.5034 271.541 6.24818 271.779 5.03636C272.017 3.82454 272.609 2.71064 273.481 1.83573C274.352 0.960817 275.464 0.364261 276.675 0.121614C277.886 -0.121033 279.142 0.0011463 280.283 0.472677C281.424 0.944207 282.4 1.74388 283.087 2.7704C283.773 3.79693 284.14 5.00414 284.14 6.23912C284.14 7.88979 283.486 9.47321 282.321 10.6426C281.156 11.812 279.575 12.4721 277.924 12.4783ZM277.924 2.36896C277.152 2.36433 276.396 2.58933 275.752 3.01537C275.108 3.44142 274.606 4.04928 274.308 4.76169C274.011 5.4741 273.931 6.25891 274.081 7.01638C274.23 7.77384 274.602 8.46977 275.148 9.01571C275.694 9.56165 276.39 9.93295 277.147 10.0824C277.904 10.2319 278.689 10.1528 279.402 9.85525C280.114 9.55765 280.722 9.05496 281.148 8.41108C281.574 7.76719 281.799 7.01118 281.794 6.23912C281.794 5.21269 281.387 4.2283 280.661 3.50251C279.935 2.77671 278.951 2.36896 277.924 2.36896Z" fill="black"/>
<path d="M281.724 12.4783H274.101C273.479 12.4783 272.882 12.2312 272.442 11.7913C272.002 11.3514 271.755 10.7548 271.755 10.1328V2.36899C271.755 1.74691 272.002 1.15031 272.442 0.710433C272.882 0.270557 273.479 0.0234375 274.101 0.0234375L281.724 0.0234375C282.346 0.0234375 282.943 0.270557 283.383 0.710433C283.822 1.15031 284.07 1.74691 284.07 2.36899V10.0624C284.079 10.3763 284.025 10.6889 283.912 10.9816C283.798 11.2744 283.627 11.5413 283.408 11.7666C283.189 11.9919 282.927 12.171 282.638 12.2933C282.349 12.4155 282.038 12.4784 281.724 12.4783ZM274.101 2.36899V10.0624H281.794V2.36899H274.101Z" fill="black"/>
<path d="M165.009 12.4783H157.386C156.764 12.4783 156.168 12.2312 155.728 11.7913C155.288 11.3514 155.041 10.7548 155.041 10.1328V2.36899C155.041 1.74691 155.288 1.15031 155.728 0.710433C156.168 0.270557 156.764 0.0234375 157.386 0.0234375L165.009 0.0234375C165.632 0.0234375 166.228 0.270557 166.668 0.710433C167.108 1.15031 167.355 1.74691 167.355 2.36899V10.0624C167.364 10.3763 167.311 10.6889 167.197 10.9816C167.083 11.2744 166.912 11.5413 166.693 11.7666C166.475 11.9919 166.213 12.171 165.924 12.2933C165.634 12.4155 165.324 12.4784 165.009 12.4783ZM157.386 2.36899V10.0624H165.08V2.36899H157.386Z" fill="black"/>
<path d="M219.215 12.4783C217.98 12.4829 216.772 12.121 215.742 11.4382C214.713 10.7555 213.91 9.78269 213.434 8.64304C212.958 7.5034 212.831 6.24818 213.07 5.03636C213.308 3.82454 213.9 2.71064 214.772 1.83573C215.643 0.960817 216.755 0.364261 217.966 0.121614C219.177 -0.121033 220.432 0.0011463 221.574 0.472677C222.715 0.944207 223.691 1.74388 224.378 2.7704C225.064 3.79693 225.431 5.00414 225.431 6.23912C225.431 7.88979 224.777 9.47321 223.612 10.6426C222.447 11.812 220.866 12.4721 219.215 12.4783ZM219.215 2.36896C218.443 2.36433 217.687 2.58933 217.043 3.01537C216.399 3.44142 215.897 4.04928 215.599 4.76169C215.301 5.4741 215.222 6.25891 215.372 7.01638C215.521 7.77384 215.893 8.46977 216.439 9.01571C216.985 9.56165 217.68 9.93295 218.438 10.0824C219.195 10.2319 219.98 10.1528 220.693 9.85525C221.405 9.55765 222.013 9.05496 222.439 8.41108C222.865 7.76719 223.09 7.01118 223.085 6.23912C223.085 5.21269 222.678 4.2283 221.952 3.50251C221.226 2.77671 220.242 2.36896 219.215 2.36896Z" fill="black"/>
<path d="M201.131 1.19629H198.785V11.3056H201.131V1.19629Z" fill="black"/>
<path d="M205.025 5.06616H194.915V7.41171H205.025V5.06616Z" fill="black"/>
<path d="M181.616 20.5234H179.27V30.6328H181.616V20.5234Z" fill="black"/>
<path d="M185.486 24.3936H175.377V26.7391H185.486V24.3936Z" fill="black"/>
<path d="M242.929 31.7824H235.353C234.73 31.7824 234.134 31.5353 233.694 31.0954C233.254 30.6555 233.007 30.0589 233.007 29.4369V21.7904C233.007 21.1683 233.254 20.5717 233.694 20.1318C234.134 19.6919 234.73 19.4448 235.353 19.4448H242.929C243.551 19.4448 244.147 19.6919 244.587 20.1318C245.027 20.5717 245.274 21.1683 245.274 21.7904V29.343C245.287 29.6589 245.236 29.974 245.123 30.2695C245.011 30.565 244.84 30.8348 244.621 31.0626C244.402 31.2904 244.139 31.4716 243.848 31.5953C243.558 31.719 243.245 31.7827 242.929 31.7824ZM235.353 21.6966V29.343H243.022V21.7904L235.353 21.6966Z" fill="black"/>
<path d="M258.386 12.4783C257.151 12.4829 255.942 12.121 254.913 11.4382C253.884 10.7555 253.081 9.78269 252.605 8.64304C252.129 7.5034 252.002 6.24818 252.24 5.03636C252.478 3.82454 253.071 2.71064 253.942 1.83573C254.814 0.960817 255.926 0.364261 257.136 0.121614C258.347 -0.121033 259.603 0.0011463 260.745 0.472677C261.886 0.944207 262.862 1.74388 263.548 2.7704C264.235 3.79693 264.601 5.00414 264.602 6.23912C264.602 7.88979 263.947 9.47321 262.782 10.6426C261.617 11.812 260.036 12.4721 258.386 12.4783ZM258.386 2.36896C257.614 2.36433 256.858 2.58933 256.214 3.01537C255.57 3.44142 255.067 4.04928 254.77 4.76169C254.472 5.4741 254.393 6.25891 254.542 7.01638C254.692 7.77384 255.063 8.46977 255.609 9.01571C256.155 9.56165 256.851 9.93295 257.609 10.0824C258.366 10.2319 259.151 10.1528 259.863 9.85525C260.576 9.55765 261.183 9.05496 261.61 8.41108C262.036 7.76719 262.261 7.01118 262.256 6.23912C262.25 5.21459 261.84 4.23377 261.116 3.50931C260.391 2.78484 259.41 2.37512 258.386 2.36896Z" fill="black"/>
<path d="M281.724 31.7822H274.101C273.479 31.7822 272.882 31.5351 272.442 31.0952C272.002 30.6553 271.755 30.0587 271.755 29.4367V21.7433C271.755 21.1212 272.002 20.5246 272.442 20.0847C272.882 19.6448 273.479 19.3977 274.101 19.3977H281.724C282.346 19.3977 282.943 19.6448 283.383 20.0847C283.822 20.5246 284.07 21.1212 284.07 21.7433V29.3897C284.076 29.7017 284.02 30.0118 283.905 30.3018C283.79 30.5918 283.618 30.8559 283.399 31.0787C283.181 31.3015 282.92 31.4785 282.633 31.5993C282.345 31.7201 282.036 31.7823 281.724 31.7822ZM274.101 21.6963V29.3897H281.794V21.7433L274.101 21.6963Z" fill="black"/>
<path d="M297.158 12.4783C295.923 12.4829 294.714 12.121 293.685 11.4382C292.656 10.7555 291.853 9.78269 291.377 8.64304C290.901 7.5034 290.774 6.24818 291.012 5.03636C291.25 3.82454 291.843 2.71064 292.714 1.83573C293.586 0.960817 294.698 0.364261 295.908 0.121614C297.119 -0.121033 298.375 0.0011463 299.516 0.472677C300.658 0.944207 301.634 1.74388 302.32 2.7704C303.007 3.79693 303.373 5.00414 303.373 6.23912C303.373 7.88979 302.719 9.47321 301.554 10.6426C300.389 11.812 298.808 12.4721 297.158 12.4783ZM297.158 2.36896C296.386 2.36433 295.63 2.58933 294.986 3.01537C294.342 3.44142 293.839 4.04928 293.542 4.76169C293.244 5.4741 293.165 6.25891 293.314 7.01638C293.464 7.77384 293.835 8.46977 294.381 9.01571C294.927 9.56165 295.623 9.93295 296.381 10.0824C297.138 10.2319 297.923 10.1528 298.635 9.85525C299.348 9.55765 299.955 9.05496 300.382 8.41108C300.808 7.76719 301.033 7.01118 301.028 6.23912C301.028 5.21269 300.62 4.2283 299.894 3.50251C299.169 2.77671 298.184 2.36896 297.158 2.36896Z" fill="black"/>
<path d="M240.325 1.19629H237.979V11.3056H240.325V1.19629Z" fill="black"/>
<path d="M244.195 5.06616H234.086V7.41171H244.195V5.06616Z" fill="black"/>
<path d="M259.559 20.5234H257.213V30.6328H259.559V20.5234Z" fill="black"/>
<path d="M263.429 24.3936H253.319V26.7391H263.429V24.3936Z" fill="black"/>
<path d="M298.331 20.5234H295.985V30.6328H298.331V20.5234Z" fill="black"/>
<path d="M302.201 24.3936H292.091V26.7391H302.201V24.3936Z" fill="black"/>
<path d="M315.899 31.7822C314.67 31.7776 313.471 31.4091 312.452 30.7233C311.433 30.0375 310.64 29.0651 310.173 27.9289C309.706 26.7928 309.586 25.5437 309.829 24.3396C310.071 23.1354 310.665 22.03 311.535 21.1631C312.405 20.2962 313.513 19.7065 314.718 19.4686C315.923 19.2306 317.172 19.3551 318.306 19.8262C319.44 20.2973 320.41 21.094 321.092 22.1157C321.774 23.1373 322.138 24.3381 322.138 25.5665C322.138 26.3847 321.976 27.1949 321.662 27.9506C321.349 28.7062 320.889 29.3925 320.309 29.97C319.729 30.5475 319.041 31.0048 318.284 31.3158C317.528 31.6268 316.717 31.7853 315.899 31.7822ZM315.899 21.6963C315.134 21.701 314.388 21.9319 313.755 22.36C313.121 22.788 312.629 23.3941 312.34 24.1016C312.05 24.8092 311.977 25.5866 312.129 26.3358C312.281 27.085 312.651 27.7724 313.194 28.3113C313.736 28.8502 314.425 29.2165 315.176 29.3639C315.926 29.5114 316.703 29.4334 317.408 29.1398C318.114 28.8462 318.717 28.3501 319.142 27.7142C319.566 27.0783 319.792 26.3309 319.792 25.5665C319.792 25.0563 319.691 24.5511 319.495 24.08C319.299 23.6089 319.012 23.1812 318.65 22.8216C318.288 22.4619 317.859 22.1773 317.387 21.9842C316.915 21.7911 316.409 21.6932 315.899 21.6963Z" fill="black"/>
<path d="M373.904 31.7822C372.676 31.7776 371.476 31.4091 370.457 30.7233C369.438 30.0375 368.645 29.0651 368.178 27.9289C367.711 26.7928 367.592 25.5437 367.834 24.3396C368.077 23.1354 368.671 22.03 369.541 21.1631C370.411 20.2962 371.519 19.7065 372.724 19.4686C373.929 19.2306 375.177 19.3551 376.312 19.8262C377.446 20.2973 378.415 21.094 379.097 22.1157C379.779 23.1373 380.143 24.3381 380.143 25.5665C380.143 26.3847 379.982 27.1949 379.668 27.9506C379.354 28.7062 378.894 29.3925 378.315 29.97C377.735 30.5475 377.047 31.0048 376.29 31.3158C375.533 31.6268 374.722 31.7853 373.904 31.7822ZM373.904 21.6963C373.14 21.701 372.394 21.9319 371.76 22.36C371.127 22.788 370.635 23.3941 370.345 24.1016C370.056 24.8092 369.983 25.5866 370.135 26.3358C370.287 27.085 370.657 27.7724 371.199 28.3113C371.741 28.8502 372.431 29.2165 373.181 29.3639C373.931 29.5114 374.708 29.4334 375.414 29.1398C376.12 28.8462 376.723 28.3501 377.147 27.7142C377.571 27.0783 377.798 26.3309 377.798 25.5665C377.798 25.0563 377.697 24.5511 377.501 24.08C377.305 23.6089 377.018 23.1812 376.656 22.8216C376.294 22.4619 375.865 22.1773 375.392 21.9842C374.92 21.7911 374.414 21.6932 373.904 21.6963Z" fill="black"/>
<path d="M377.657 31.7822H370.011C369.389 31.7822 368.792 31.5351 368.352 31.0952C367.912 30.6553 367.665 30.0587 367.665 29.4367V21.7433C367.665 21.1212 367.912 20.5246 368.352 20.0847C368.792 19.6448 369.389 19.3977 370.011 19.3977H377.657C378.279 19.3977 378.876 19.6448 379.316 20.0847C379.756 20.5246 380.003 21.1212 380.003 21.7433V29.3897C380.009 29.7017 379.953 30.0118 379.838 30.3018C379.723 30.5918 379.551 30.8559 379.332 31.0787C379.114 31.3015 378.853 31.4785 378.566 31.5993C378.278 31.7201 377.969 31.7823 377.657 31.7822ZM370.011 21.6963V29.3897H377.704V21.7433L370.011 21.6963Z" fill="black"/>
<path d="M432.613 12.4783C431.379 12.4783 430.173 12.1124 429.147 11.4268C428.121 10.7413 427.321 9.76685 426.849 8.62679C426.377 7.48673 426.253 6.23224 426.494 5.02197C426.735 3.81169 427.329 2.69997 428.201 1.82741C429.074 0.954849 430.186 0.360626 431.396 0.119887C432.606 -0.120853 433.861 0.00270335 435.001 0.474931C436.141 0.947158 437.115 1.74685 437.801 2.77287C438.486 3.7989 438.852 5.00518 438.852 6.23917C438.852 7.8939 438.195 9.48085 437.025 10.6509C435.855 11.821 434.268 12.4783 432.613 12.4783ZM432.613 2.36901C431.842 2.36902 431.088 2.59798 430.448 3.02686C429.807 3.45575 429.308 4.06524 429.014 4.77807C428.72 5.4909 428.644 6.27498 428.796 7.0309C428.948 7.78682 429.322 8.48054 429.868 9.02413C430.415 9.56771 431.111 9.93668 431.868 10.0843C432.625 10.2318 433.409 10.1514 434.12 9.85308C434.831 9.55478 435.437 9.05207 435.862 8.40869C436.287 7.76532 436.511 7.01023 436.507 6.23917C436.507 5.72895 436.406 5.22377 436.21 4.75268C436.014 4.2816 435.727 3.85391 435.365 3.49423C435.003 3.13454 434.574 2.84996 434.101 2.65685C433.629 2.46374 433.123 2.36592 432.613 2.36901Z" fill="black"/>
<path d="M436.436 12.4783H428.79C428.168 12.4783 427.571 12.2312 427.131 11.7913C426.692 11.3514 426.444 10.7548 426.444 10.1328V2.36899C426.444 1.74691 426.692 1.15031 427.131 0.710433C427.571 0.270557 428.168 0.0234375 428.79 0.0234375L436.436 0.0234375C437.059 0.0234375 437.655 0.270557 438.095 0.710433C438.535 1.15031 438.782 1.74691 438.782 2.36899V10.0624C438.791 10.3763 438.738 10.6889 438.624 10.9816C438.51 11.2744 438.339 11.5413 438.12 11.7666C437.902 11.9919 437.64 12.171 437.351 12.2933C437.061 12.4155 436.751 12.4784 436.436 12.4783ZM428.79 2.36899V10.0624H436.483V2.36899H428.79Z" fill="black"/>
<path d="M373.904 12.4783C372.67 12.4783 371.464 12.1124 370.438 11.4268C369.412 10.7413 368.612 9.76685 368.14 8.62679C367.668 7.48673 367.544 6.23224 367.785 5.02197C368.026 3.81169 368.62 2.69997 369.492 1.82741C370.365 0.954849 371.477 0.360626 372.687 0.119887C373.897 -0.120853 375.152 0.00270335 376.292 0.474931C377.432 0.947158 378.406 1.74685 379.092 2.77287C379.777 3.7989 380.143 5.00518 380.143 6.23917C380.143 7.8939 379.486 9.48085 378.316 10.6509C377.146 11.821 375.559 12.4783 373.904 12.4783ZM373.904 2.36901C373.133 2.36902 372.379 2.59798 371.739 3.02686C371.098 3.45575 370.599 4.06524 370.305 4.77807C370.011 5.4909 369.935 6.27498 370.087 7.0309C370.239 7.78682 370.613 8.48054 371.159 9.02413C371.706 9.56771 372.402 9.93668 373.159 10.0843C373.916 10.2318 374.7 10.1514 375.411 9.85308C376.122 9.55478 376.728 9.05207 377.153 8.40869C377.578 7.76532 377.802 7.01023 377.798 6.23917C377.798 5.72895 377.697 5.22377 377.501 4.75268C377.305 4.2816 377.018 3.85391 376.656 3.49423C376.294 3.13454 375.865 2.84996 375.392 2.65685C374.92 2.46374 374.414 2.36592 373.904 2.36901Z" fill="black"/>
<path d="M355.843 1.19629H353.498V11.3056H355.843V1.19629Z" fill="black"/>
<path d="M359.737 5.06616H349.628V7.41171H359.737V5.06616Z" fill="black"/>
<path d="M336.305 20.5234H333.959V30.6328H336.305V20.5234Z" fill="black"/>
<path d="M340.199 24.3936H330.089V26.7391H340.199V24.3936Z" fill="black"/>
<path d="M397.641 31.7824H390.065C389.443 31.7824 388.846 31.5353 388.406 31.0954C387.966 30.6555 387.719 30.0589 387.719 29.4369V21.7904C387.719 21.1683 387.966 20.5717 388.406 20.1318C388.846 19.6919 389.443 19.4448 390.065 19.4448H397.641C398.263 19.4448 398.86 19.6919 399.3 20.1318C399.739 20.5717 399.987 21.1683 399.987 21.7904V29.343C399.999 29.6589 399.948 29.974 399.836 30.2695C399.724 30.565 399.553 30.8348 399.334 31.0626C399.115 31.2904 398.852 31.4716 398.561 31.5953C398.27 31.719 397.957 31.7827 397.641 31.7824ZM390.065 21.6966V29.343H397.735V21.7904L390.065 21.6966Z" fill="black"/>
<path d="M413.075 12.4783C411.841 12.4783 410.635 12.1124 409.609 11.4268C408.583 10.7413 407.783 9.76685 407.311 8.62679C406.838 7.48673 406.715 6.23224 406.956 5.02197C407.196 3.81169 407.791 2.69997 408.663 1.82741C409.536 0.954849 410.647 0.360626 411.858 0.119887C413.068 -0.120853 414.322 0.00270335 415.462 0.474931C416.603 0.947158 417.577 1.74685 418.263 2.77287C418.948 3.7989 419.314 5.00518 419.314 6.23917C419.314 7.8939 418.657 9.48085 417.487 10.6509C416.317 11.821 414.73 12.4783 413.075 12.4783ZM413.075 2.36901C412.304 2.36902 411.55 2.59798 410.909 3.02686C410.268 3.45575 409.769 4.06524 409.475 4.77807C409.181 5.4909 409.106 6.27498 409.258 7.0309C409.41 7.78682 409.783 8.48054 410.33 9.02413C410.877 9.56771 411.573 9.93668 412.33 10.0843C413.087 10.2318 413.87 10.1514 414.581 9.85308C415.292 9.55478 415.899 9.05207 416.324 8.40869C416.749 7.76532 416.973 7.01023 416.968 6.23917C416.968 5.72895 416.868 5.22377 416.672 4.75268C416.476 4.2816 416.189 3.85391 415.827 3.49423C415.465 3.13454 415.035 2.84996 414.563 2.65685C414.091 2.46374 413.585 2.36592 413.075 2.36901Z" fill="black"/>
<path d="M451.847 12.4783C450.613 12.4783 449.406 12.1124 448.38 11.4268C447.354 10.7413 446.555 9.76685 446.082 8.62679C445.61 7.48673 445.487 6.23224 445.727 5.02197C445.968 3.81169 446.562 2.69997 447.435 1.82741C448.308 0.954849 449.419 0.360626 450.629 0.119887C451.84 -0.120853 453.094 0.00270335 454.234 0.474931C455.374 0.947158 456.349 1.74685 457.034 2.77287C457.72 3.7989 458.086 5.00518 458.086 6.23917C458.086 7.8939 457.429 9.48085 456.258 10.6509C455.088 11.821 453.501 12.4783 451.847 12.4783ZM451.847 2.36901C451.076 2.36902 450.322 2.59798 449.681 3.02686C449.04 3.45575 448.541 4.06524 448.247 4.77807C447.953 5.4909 447.878 6.27498 448.03 7.0309C448.182 7.78682 448.555 8.48054 449.102 9.02413C449.649 9.56771 450.345 9.93668 451.102 10.0843C451.858 10.2318 452.642 10.1514 453.353 9.85308C454.064 9.55478 454.671 9.05207 455.096 8.40869C455.521 7.76532 455.745 7.01023 455.74 6.23917C455.74 5.72895 455.639 5.22377 455.443 4.75268C455.248 4.2816 454.96 3.85391 454.598 3.49423C454.237 3.13454 453.807 2.84996 453.335 2.65685C452.863 2.46374 452.357 2.36592 451.847 2.36901Z" fill="black"/>
<path d="M395.014 1.19629H392.668V11.3056H395.014V1.19629Z" fill="black"/>
<path d="M398.908 5.06616H388.798V7.41171H398.908V5.06616Z" fill="black"/>
<path d="M414.248 20.5234H411.902V30.6328H414.248V20.5234Z" fill="black"/>
<path d="M418.141 24.3936H408.032V26.7391H418.141V24.3936Z" fill="black"/>
</svg>
