<svg width="89" height="32" viewBox="0 0 89 32" fill="none" xmlns="http://www.w3.org/2000/svg">
<path d="M25.0036 12.5957C26.2168 12.6004 27.404 12.2378 28.4147 11.554C29.4253 10.8702 30.2139 9.89604 30.6803 8.75503C31.1467 7.61402 31.2699 6.3576 31.0343 5.14514C30.7987 3.93268 30.215 2.81882 29.3572 1.94484C28.4993 1.07087 27.4059 0.47617 26.2157 0.236179C25.0256 -0.00381204 23.7924 0.12172 22.6724 0.596852C21.5524 1.07198 20.5961 1.87531 19.9249 2.90492C19.2537 3.93453 18.8979 5.14403 18.9024 6.38001C18.9085 8.02662 19.5532 9.60402 20.6961 10.7684C21.839 11.9327 23.3873 12.5895 25.0036 12.5957ZM25.0036 2.4864C25.7604 2.48175 26.5017 2.70615 27.1332 3.13116C27.7647 3.55616 28.2582 4.16262 28.551 4.87366C28.8438 5.58471 28.9228 6.36831 28.7779 7.12514C28.6331 7.88196 28.2709 8.57793 27.7373 9.12481C27.2038 9.67169 26.5228 10.0449 25.7808 10.197C25.0388 10.3491 24.2691 10.2734 23.5694 9.97943C22.8697 9.68543 22.2715 9.1864 21.8505 8.5456C21.4295 7.9048 21.2048 7.15109 21.2048 6.38001C21.2048 5.35141 21.6043 4.36459 22.316 3.63507C23.0278 2.90555 23.9939 2.49259 25.0036 2.4864Z" fill="#150035"/>
<path d="M21.2506 12.5959H28.8024C29.413 12.5959 29.9986 12.3488 30.4304 11.9089C30.8621 11.4691 31.1047 10.8725 31.1047 10.2504V2.55698C31.1047 1.9349 30.8621 1.3383 30.4304 0.898422C29.9986 0.458546 29.413 0.211426 28.8024 0.211426H21.2967C20.6861 0.211426 20.1005 0.458546 19.6687 0.898422C19.237 1.3383 18.9944 1.9349 18.9944 2.55698V10.18C18.9852 10.49 19.0364 10.7988 19.1451 11.0884C19.2539 11.3781 19.4179 11.6429 19.6277 11.8676C19.8375 12.0923 20.089 12.2724 20.3676 12.3974C20.6462 12.5224 20.9463 12.5899 21.2506 12.5959ZM28.8024 2.48661V10.18H21.2277V2.55698L28.8024 2.48661Z" fill="#150035"/>
<path d="M82.6314 12.5957C83.8446 12.6004 85.0318 12.2378 86.0425 11.554C87.0531 10.8702 87.8416 9.89604 88.308 8.75503C88.7744 7.61402 88.8976 6.3576 88.662 5.14514C88.4264 3.93268 87.8427 2.81882 86.9848 1.94484C86.127 1.07087 85.0337 0.47617 83.8436 0.236179C82.6534 -0.00381204 81.4201 0.12172 80.3001 0.596852C79.1801 1.07198 78.2239 1.87531 77.5527 2.90492C76.8815 3.93453 76.5256 5.14403 76.5301 6.38001C76.5301 8.02852 77.173 9.60951 78.3172 10.7752C79.4614 11.9408 81.0133 12.5957 82.6314 12.5957ZM82.6314 2.4864C83.3883 2.48175 84.1294 2.70615 84.7609 3.13116C85.3924 3.55616 85.886 4.16262 86.1788 4.87366C86.4716 5.58471 86.5505 6.36831 86.4056 7.12514C86.2607 7.88196 85.8986 8.57793 85.365 9.12481C84.8314 9.67169 84.1505 10.0449 83.4085 10.197C82.6665 10.3491 81.8969 10.2734 81.1972 9.97943C80.4975 9.68543 79.8993 9.1864 79.4783 8.5456C79.0573 7.9048 78.8325 7.15109 78.8325 6.38001C78.8294 5.8698 78.9255 5.36402 79.1151 4.89176C79.3046 4.4195 79.5839 3.99008 79.937 3.62822C80.29 3.26635 80.7099 2.97918 81.1723 2.78322C81.6347 2.58726 82.1306 2.48639 82.6314 2.4864Z" fill="black"/>
<path d="M21.2506 31.9231H28.8024C29.413 31.9231 29.9986 31.676 30.4304 31.2361C30.8621 30.7962 31.1047 30.1996 31.1047 29.5775V21.8607C31.1047 21.2386 30.8621 20.642 30.4304 20.2021C29.9986 19.7623 29.413 19.5151 28.8024 19.5151H21.2967C20.6861 19.5151 20.1005 19.7623 19.6687 20.2021C19.237 20.642 18.9944 21.2386 18.9944 21.8607V29.5072C18.9852 29.8172 19.0364 30.1259 19.1451 30.4156C19.2539 30.7053 19.4179 30.9701 19.6277 31.1948C19.8375 31.4195 20.089 31.5995 20.3676 31.7245C20.6462 31.8495 20.9463 31.917 21.2506 31.9231ZM28.8024 21.8138V29.5072H21.2277V21.8607L28.8024 21.8138Z" fill="#150035"/>
<path d="M2.37143 12.5959H9.8771C10.4877 12.5959 11.0733 12.3488 11.5051 11.9089C11.9368 11.4691 12.1794 10.8725 12.1794 10.2504V2.55698C12.1794 1.9349 11.9368 1.3383 11.5051 0.898422C11.0733 0.458546 10.4877 0.211426 9.8771 0.211426H2.37143C1.76081 0.211426 1.17509 0.458546 0.743318 0.898422C0.311544 1.3383 0.0690832 1.9349 0.0690832 2.55698V10.18C0.0598364 10.4939 0.112525 10.8065 0.224081 11.0992C0.335638 11.392 0.503724 11.6589 0.718445 11.8842C0.933166 12.1096 1.19011 12.2886 1.47404 12.4109C1.75798 12.5332 2.06318 12.5961 2.37143 12.5959ZM9.8771 2.48661V10.18H2.32534V2.55698L9.8771 2.48661Z" fill="#150035"/>
<path d="M61.9103 1.31372H64.2126V11.423H61.9103V1.31372Z" fill="black"/>
<path d="M58.0882 5.20703H68.0115V7.55258H58.0882V5.20703Z" fill="black"/>
<path d="M43.0309 20.6411H45.3333V30.7504H43.0309V20.6411Z" fill="black"/>
<path d="M39.209 24.5107H49.1321V26.8563H39.209V24.5107Z" fill="black"/>
<path d="M4.97305 20.6411H7.27539V30.7504H4.97305V20.6411Z" fill="#150035"/>
<path d="M1.15111 24.5107H11.0742V26.8563H1.15111V24.5107Z" fill="#150035"/>
</svg>
