<svg width="69" height="120" viewBox="0 0 69 120" fill="none" xmlns="http://www.w3.org/2000/svg">
<g clip-path="url(#clip0)">
<path d="M57.7621 28.1419L11.6048 1.53538C10.3464 0.820055 9.55995 0.645585 8.73852 1.16899L8.38898 1.32602L3.49536 4.39668L4.05463 7.32776L6.71117 12.5618V72.7712C6.74082 74.5979 7.19895 76.3922 8.04879 78.0101C8.89864 79.6281 10.1165 81.0247 11.6048 82.0879L52.9384 105.92L56.2066 111.922L60.8031 109.043L61.2051 108.782C61.7222 108.304 62.1222 107.715 62.3738 107.058C62.6254 106.401 62.7218 105.696 62.6557 104.996V37.4586C62.626 35.632 62.1679 33.8377 61.3181 32.2197C60.4682 30.6017 59.2503 29.2051 57.7621 28.1419Z" fill="#FFBE2E"/>
<path d="M57.8145 30.3229L11.6572 3.71629C10.4862 3.00096 9.61238 2.82649 8.73852 3.3499L8.38898 3.48948L3.49536 6.57758L4.08959 9.50867L6.74612 14.7427V75.0219C6.77302 76.8491 7.22995 78.6444 8.08003 80.2628C8.9301 81.8812 10.1495 83.2774 11.6397 84.3386L52.9908 108.171L56.696 109.567L59.6147 110.143L60.8031 108.398C61.6945 107.735 62.6907 109.061 62.6907 107.246V39.6395C62.6644 37.8141 62.2095 36.0203 61.3627 34.4022C60.5158 32.7841 59.3005 31.3869 57.8145 30.3229Z" fill="#FFEECC"/>
<path d="M55.9269 113.109L52.3441 106.531L11.1853 82.8206C9.5736 81.6827 8.25713 80.1773 7.34523 78.4295C6.43333 76.6816 5.95231 74.7419 5.94213 72.7712V12.8236L3.21569 7.48479L2.5166 3.9954L8.33651 0.401337C8.92203 0.0966343 9.58492 -0.0278771 10.2413 0.0435512C10.8977 0.114979 11.5182 0.379138 12.0242 0.802616L58.1815 27.4092C59.7932 28.5472 61.1097 30.0526 62.0216 31.8004C62.9335 33.5482 63.4145 35.488 63.4247 37.4586V104.996C63.501 105.825 63.3828 106.66 63.0794 107.435C62.7761 108.21 62.2959 108.904 61.6769 109.462L55.9269 113.109ZM4.85855 6.97883L7.56751 12.4223V72.7712C7.60185 74.4473 8.02159 76.093 8.79433 77.5813C9.56708 79.0697 10.6721 80.3609 12.0242 81.3551L53.585 105.292L56.5212 110.718L60.7506 108.066C61.1365 107.66 61.4299 107.175 61.6109 106.645C61.7918 106.115 61.8561 105.553 61.7993 104.996V37.4586C61.7649 35.7826 61.3452 34.1368 60.5725 32.6485C59.7997 31.1601 58.6946 29.869 57.3426 28.8747L11.1853 2.26816C9.90946 1.53539 9.43757 1.65752 9.14046 1.90177L8.73849 2.11114L4.42162 4.79796L4.85855 6.97883Z" fill="#16110D"/>
<path d="M52.6937 111.87L6.53644 85.2807C5.04684 84.2148 3.82824 82.8152 2.9784 81.1942C2.12856 79.5732 1.67113 77.7759 1.64282 75.9465V8.40947C1.64282 4.8154 3.82747 3.17539 6.53644 4.72817L52.6937 31.4045C54.1798 32.4686 55.395 33.8658 56.2419 35.4839C57.0887 37.1019 57.5436 38.8958 57.5699 40.7212V108.171C57.5699 111.783 55.3852 113.405 52.6937 111.87Z" fill="#FFBE2E"/>
<path d="M54.6337 113.405C53.7952 113.376 52.9776 113.136 52.2568 112.707L6.09952 86.0135C4.49161 84.8677 3.17828 83.3583 2.26697 81.6085C1.35566 79.8588 0.872275 77.9186 0.856358 75.9466V8.4095C0.758928 7.51977 0.896404 6.62008 1.25513 5.79982C1.61385 4.97955 2.18133 4.26726 2.90119 3.73372C3.5427 3.40351 4.26201 3.25344 4.98231 3.29953C5.7026 3.34562 6.39683 3.58615 6.99086 3.99542L53.1132 30.602C54.7218 31.743 56.036 33.249 56.9475 34.9962C57.859 36.7433 58.3419 38.6816 58.3564 40.6514V108.171C58.4461 109.067 58.2979 109.971 57.9266 110.792C57.5554 111.613 56.9743 112.321 56.2416 112.847C55.7626 113.168 55.2088 113.36 54.6337 113.405ZM4.59648 4.9899C4.29935 4.99058 4.00849 5.07527 3.75757 5.23416C3.29515 5.62112 2.93756 6.11789 2.71768 6.67884C2.4978 7.23978 2.42268 7.8469 2.49922 8.44439V75.9466C2.53229 77.6266 2.95511 79.2761 3.73446 80.7655C4.51381 82.2549 5.62846 83.5436 6.99086 84.5305L53.1132 111.137C53.4471 111.38 53.8387 111.532 54.2494 111.578C54.6601 111.624 55.0757 111.562 55.4551 111.399C55.9313 111.019 56.2996 110.521 56.5234 109.954C56.7473 109.388 56.8188 108.773 56.731 108.171V40.6514C56.6973 38.9734 56.276 37.3258 55.4999 35.8369C54.7239 34.3481 53.614 33.0581 52.2568 32.0675L6.09952 5.46097C5.64729 5.17781 5.12968 5.01559 4.59648 4.9899Z" fill="#16110D"/>
<path d="M52.7113 109.48L9.90959 84.8097C9.07284 84.2121 8.38745 83.4277 7.90803 82.519C7.42862 81.6103 7.16843 80.6024 7.14819 79.5756V19.1917C7.14819 17.1679 8.3716 16.2258 9.90959 17.1156L52.7113 41.7506C53.551 42.3452 54.2386 43.129 54.7184 44.0383C55.1981 44.9477 55.4565 45.9571 55.4727 46.9847V107.351C55.4727 109.427 54.1793 110.352 52.7113 109.48Z" fill="#FFEECC"/>
<path d="M52.1169 107.316C51.6175 107.312 51.1284 107.173 50.7012 106.915L7.88209 82.2275C6.94261 81.5739 6.17325 80.7056 5.63818 79.695C5.1031 78.6844 4.81781 77.5607 4.8061 76.4176V16.0338C4.75443 15.5001 4.84525 14.9623 5.06935 14.4751C5.29345 13.9878 5.64283 13.5685 6.08194 13.2597C6.46557 13.0644 6.89432 12.9744 7.32427 12.9989C7.75421 13.0235 8.1699 13.1616 8.52875 13.3993L51.3304 38.0867C52.2699 38.7403 53.0393 39.6086 53.5743 40.6192C54.1094 41.6298 54.3947 42.7535 54.4064 43.8966V104.28C54.4581 104.814 54.3673 105.352 54.1432 105.839C53.9191 106.326 53.5697 106.746 53.1306 107.054C52.8212 107.228 52.4718 107.318 52.1169 107.316ZM51.3304 105.798C51.4964 105.921 51.6909 106 51.8957 106.027C52.1004 106.055 52.3088 106.03 52.5014 105.955C52.7481 105.743 52.9356 105.471 53.0458 105.166C53.1561 104.86 53.1853 104.531 53.1306 104.211V43.8966C53.1117 42.9767 52.8813 42.0734 52.457 41.2566C52.0327 40.4398 51.426 39.7313 50.6838 39.1859L7.88209 14.4985C7.71256 14.3829 7.51759 14.3098 7.31373 14.2855C7.10987 14.2612 6.90315 14.2864 6.71112 14.3589C6.46446 14.5709 6.2769 14.8429 6.16666 15.1486C6.05642 15.4543 6.02723 15.7833 6.08194 16.1036V76.4176C6.09947 77.3378 6.32936 78.2415 6.75373 79.0585C7.1781 79.8755 7.78551 80.5838 8.52875 81.1283L51.3304 105.798Z" fill="#16110D"/>
<path d="M15.572 45.048L10.9231 35.8884C10.2939 34.6148 10.3988 33.3586 11.1853 33.062C11.9543 32.7828 13.1078 33.568 13.7369 34.8067L16.1837 39.622L21.5318 35.1207C22.1609 34.5799 23.2795 35.1207 24.1009 36.2897C24.8699 37.4761 24.9923 38.8718 24.3631 39.3952L16.8304 45.7634C16.4983 46.0425 15.9041 45.6936 15.572 45.048Z" fill="#FFBE2E"/>
<path d="M15.9216 44.5769H15.7294C15.4378 44.4976 15.1674 44.3548 14.9378 44.1587C14.7081 43.9626 14.5248 43.7181 14.4011 43.4428L9.71723 34.2658C9.47875 33.8522 9.3278 33.3941 9.27369 32.92C9.21958 32.4459 9.26346 31.9657 9.40264 31.5091C9.47419 31.2944 9.59293 31.0984 9.75018 30.9353C9.90743 30.7723 10.0992 30.6465 10.3115 30.567C11.43 30.1483 12.8631 31.0381 13.6846 32.6258L15.7294 36.7258L20.4657 32.7479C20.6396 32.5997 20.8441 32.4916 21.0646 32.4313C21.2851 32.371 21.5163 32.3599 21.7415 32.3989C22.2046 32.5109 22.6407 32.7136 23.0248 32.9951C23.4088 33.2766 23.733 33.6314 23.9786 34.039C24.4573 34.581 24.7329 35.272 24.7584 35.9942C24.7839 36.7164 24.5577 37.425 24.1184 37.9994L16.6032 44.3326C16.4166 44.4997 16.172 44.5873 15.9216 44.5769ZM10.8882 31.736H10.7659C10.7203 31.7515 10.6799 31.7792 10.649 31.8161C10.6182 31.8531 10.5981 31.8978 10.5911 31.9453C10.5184 32.24 10.5057 32.5463 10.5537 32.846C10.6018 33.1457 10.7096 33.4327 10.8707 33.69L15.5022 42.8497C15.5833 43.0252 15.71 43.1758 15.8692 43.2858L23.3145 37.0224C23.6116 36.7781 23.5941 35.7662 22.93 34.7543C22.6379 34.2302 22.1566 33.8371 21.5843 33.6551C21.392 33.6551 21.3221 33.6551 21.3046 33.6551L15.3449 38.7322L12.5311 33.1492C12.3868 32.8019 12.163 32.4932 11.8777 32.2478C11.5924 32.0024 11.2535 31.8271 10.8882 31.736Z" fill="#16110D"/>
<path d="M16.2187 63.8035L11.5698 54.6438C10.9231 53.3877 11.0454 52.114 11.8144 51.8349C12.5834 51.5383 13.7369 52.3234 14.3836 53.5796L16.8129 58.3775L22.1609 53.8762C22.8076 53.3528 23.9087 53.8762 24.7301 55.0451C25.5166 56.2315 25.6389 57.6273 24.9923 58.1681L17.4771 64.5537C17.145 64.798 16.5333 64.449 16.2187 63.8035Z" fill="#FFBE2E"/>
<path d="M16.5684 63.28H16.3237C16.0358 63.1974 15.7694 63.0531 15.5431 62.8573C15.3167 62.6614 15.1358 62.4187 15.0129 62.146L10.364 52.9514C10.1226 52.5391 9.9686 52.0817 9.91148 51.6075C9.85436 51.1334 9.89535 50.6525 10.0319 50.1948C10.1075 49.9795 10.2297 49.7834 10.3898 49.6206C10.5499 49.4578 10.744 49.3321 10.9582 49.2527C12.0593 48.8514 13.5099 49.7238 14.3138 51.3289L16.3936 55.4115L21.1125 51.4336C21.2876 51.2874 21.4922 51.1806 21.7123 51.1204C21.9325 51.0602 22.163 51.048 22.3883 51.0846C22.8551 51.193 23.2946 51.3961 23.6794 51.6813C24.0642 51.9664 24.3862 52.3275 24.6254 52.7421C25.109 53.2782 25.388 53.9672 25.4136 54.6882C25.4392 55.4092 25.2096 56.1162 24.7652 56.6851L17.2325 63.0358C17.0486 63.1956 16.8123 63.2825 16.5684 63.28ZM16.1489 61.5353C16.23 61.7108 16.3568 61.8615 16.516 61.9715L23.9438 55.7081C24.2409 55.4638 24.2409 54.4519 23.5593 53.44C23.4204 53.1778 23.2295 52.9466 22.9981 52.7606C22.7667 52.5747 22.4997 52.4377 22.2135 52.3582C22.0388 52.3582 21.9688 52.3582 21.9339 52.3582L15.9742 57.4353L13.1778 51.9046C12.6185 50.8055 11.7622 50.317 11.4301 50.4391C11.3479 50.4929 11.2864 50.5728 11.2553 50.6659C11.1806 50.9604 11.1669 51.267 11.2149 51.567C11.263 51.867 11.3719 52.1541 11.535 52.4106L16.1489 61.5353Z" fill="#16110D"/>
<path d="M15.572 79.4534L10.9231 70.2938C10.2939 69.0202 10.3988 67.764 11.1853 67.4674C11.9543 67.1882 13.1078 67.9733 13.7369 69.2121L16.1837 74.01L21.5318 69.5087C22.1609 68.9678 23.2795 69.5087 24.1009 70.6776C24.8699 71.864 24.9923 73.2598 24.3631 73.7832L16.8304 80.256C16.4983 80.4479 15.9041 80.099 15.572 79.4534Z" fill="#FFBE2E"/>
<path d="M15.9216 78.93H15.677C15.3891 78.8473 15.1227 78.7031 14.8963 78.5072C14.67 78.3114 14.489 78.0686 14.3662 77.7959L9.71723 68.6014C9.47875 68.1878 9.3278 67.7298 9.27369 67.2556C9.21958 66.7815 9.26346 66.3013 9.40264 65.8448C9.47739 65.6317 9.59727 65.4373 9.7541 65.2747C9.91094 65.1122 10.101 64.9852 10.3115 64.9026C11.43 64.4839 12.8631 65.3737 13.6846 66.9788L15.7294 71.0614L20.4657 67.0835C20.6396 66.9353 20.8441 66.8272 21.0646 66.7669C21.2851 66.7066 21.5163 66.6955 21.7415 66.7346C22.2159 66.853 22.6602 67.0695 23.0455 67.37C23.4308 67.6705 23.7487 68.0484 23.9786 68.4793C24.4591 69.017 24.736 69.7055 24.7616 70.4256C24.7871 71.1456 24.5596 71.852 24.1184 72.4223L16.6032 78.6857C16.4123 78.8454 16.1707 78.9319 15.9216 78.93ZM10.8882 66.0716H10.7659C10.7228 66.0911 10.6848 66.1201 10.6545 66.1563C10.6243 66.1926 10.6026 66.2352 10.5911 66.2809C10.5184 66.5756 10.5057 66.8819 10.5537 67.1816C10.6018 67.4813 10.7096 67.7683 10.8707 68.0256L15.5022 77.1853C15.5833 77.3608 15.71 77.5114 15.8692 77.6215L23.3145 71.358C23.6116 71.1137 23.5941 70.1018 22.93 69.0899C22.6379 68.5658 22.1566 68.1727 21.5842 67.9907C21.392 67.9907 21.3221 67.9907 21.3046 67.9907L15.3449 73.0678L12.5311 67.5371C12.3935 67.1801 12.1728 66.861 11.8871 66.6061C11.6014 66.3513 11.259 66.168 10.8882 66.0716Z" fill="#16110D"/>
<path d="M48.4816 60.314L29.9558 49.619C29.5008 49.2999 29.1287 48.8769 28.8703 48.3853C28.6119 47.8938 28.4748 47.3478 28.4702 46.7926C28.4702 45.6935 29.1343 45.1875 29.9558 45.676L48.4816 56.3536C48.9398 56.6708 49.3153 57.0929 49.5768 57.5846C49.8383 58.0763 49.9781 58.6233 49.9846 59.18C49.9846 60.2791 49.303 60.7851 48.4816 60.314Z" fill="#FFBE2E"/>
<path d="M48.4468 59.1452C48.1255 59.143 47.8111 59.0524 47.538 58.8835L28.9947 48.1885C28.454 47.8044 28.0133 47.2967 27.7092 46.7079C27.4052 46.1191 27.2467 45.4662 27.247 44.8038C27.2157 44.4644 27.2772 44.1229 27.4249 43.8157C27.5726 43.5085 27.8011 43.247 28.0859 43.0591C28.3291 42.9147 28.6068 42.8385 28.8898 42.8385C29.1728 42.8385 29.4505 42.9147 29.6938 43.0591L48.2196 53.7541C48.7592 54.1392 49.1992 54.647 49.5031 55.2356C49.807 55.8242 49.9661 56.4766 49.9673 57.1388C49.9949 57.4777 49.9317 57.8178 49.7843 58.1244C49.6369 58.431 49.4105 58.6929 49.1284 58.8835C48.9284 59.0294 48.6932 59.1197 48.4468 59.1452ZM48.1672 57.7843C48.3245 57.7843 48.4468 57.889 48.4992 57.7843C48.5517 57.6796 48.709 57.5575 48.709 57.1388C48.6965 56.6948 48.5849 56.2592 48.3823 55.8638C48.1797 55.4684 47.8913 55.1232 47.538 54.8532L28.9947 44.2455C28.8549 44.1583 28.7325 44.1234 28.6626 44.1582C28.5927 44.1931 28.4704 44.3851 28.4704 44.8038C28.4818 45.2579 28.6 45.703 28.8156 46.103C29.0312 46.5031 29.338 46.847 29.7112 47.1068L48.1672 57.7843Z" fill="#16110D"/>
<path d="M48.4816 77.4819L29.9558 66.7869C29.5008 66.4677 29.1287 66.0448 28.8703 65.5532C28.6119 65.0616 28.4748 64.5156 28.4702 63.9605C28.4702 62.8613 29.1343 62.3728 29.9558 62.8439L48.4816 73.5214C48.9398 73.8387 49.3153 74.2608 49.5768 74.7525C49.8383 75.2442 49.9781 75.7912 49.9846 76.3478C49.9846 77.447 49.303 77.9529 48.4816 77.4819Z" fill="#FFBE2E"/>
<path d="M48.4467 76.3129C48.1254 76.3107 47.8109 76.2202 47.5379 76.0512L28.9946 65.3737C28.4557 64.9838 28.0165 64.4726 27.7128 63.8814C27.4091 63.2902 27.2495 62.6359 27.2468 61.9715C27.2174 61.6324 27.2798 61.2916 27.4273 60.9847C27.5749 60.6778 27.8023 60.4161 28.0857 60.2268C28.329 60.0824 28.6067 60.0062 28.8897 60.0062C29.1727 60.0062 29.4504 60.0824 29.6936 60.2268L48.2195 70.9043C48.7591 71.2895 49.1991 71.7973 49.503 72.3859C49.8069 72.9745 49.966 73.6269 49.9672 74.2891C49.9947 74.628 49.9316 74.9681 49.7842 75.2747C49.6368 75.5812 49.4104 75.8432 49.1283 76.0338C48.9302 76.186 48.6948 76.2824 48.4467 76.3129ZM28.7324 61.3085C28.7324 61.3085 28.5401 61.5353 28.5401 61.9541C28.5435 62.4022 28.6511 62.8435 28.8542 63.2431C29.0574 63.6427 29.3508 63.9898 29.7111 64.2571L48.167 75.0218C48.3069 75.0218 48.4467 75.1265 48.4991 75.0218C48.5515 74.9171 48.7088 74.795 48.7088 74.3763C48.6952 73.9326 48.583 73.4974 48.3805 73.1022C48.178 72.707 47.8902 72.3615 47.5379 72.0907L28.9946 61.4132C28.9189 61.3542 28.828 61.3179 28.7324 61.3085Z" fill="#16110D"/>
<path d="M48.4118 94.5974L29.886 83.9198C29.4286 83.5989 29.055 83.1732 28.7965 82.6784C28.538 82.1836 28.4022 81.6341 28.4004 81.076C28.4004 79.9943 29.0645 79.4883 29.886 79.9594L48.4118 90.7241C48.8641 91.05 49.2339 91.4768 49.4918 91.9705C49.7497 92.4642 49.8886 93.0113 49.8973 93.568C49.8973 94.5799 49.2332 95.0684 48.4118 94.5974Z" fill="#FFBE2E"/>
<path d="M48.3768 93.4284C48.0508 93.421 47.732 93.3309 47.4505 93.1667L28.9246 82.4892C28.3861 82.103 27.9469 81.595 27.6431 81.0066C27.3393 80.4182 27.1795 79.7664 27.1769 79.1044C27.1475 78.7672 27.208 78.4281 27.3523 78.1217C27.4965 77.8153 27.7194 77.5524 27.9984 77.3598C28.2416 77.2154 28.5193 77.1392 28.8023 77.1392C29.0853 77.1392 29.363 77.2154 29.6063 77.3598L48.0971 88.1071C48.6347 88.4942 49.0731 89.0025 49.3768 89.5906C49.6805 90.1787 49.8409 90.8301 49.8449 91.4918C49.8707 91.8287 49.8086 92.1665 49.6647 92.4723C49.5207 92.7781 49.2998 93.0414 49.0234 93.2365C48.8262 93.3509 48.6045 93.4167 48.3768 93.4284ZM48.0971 92.0675C48.2044 92.1062 48.3219 92.1062 48.4292 92.0675C48.4292 92.0675 48.6214 91.8407 48.6214 91.4045C48.6127 90.9623 48.5026 90.528 48.2997 90.1348C48.0967 89.7417 47.8062 89.4001 47.4505 89.1364L28.9246 78.5113C28.7848 78.5113 28.645 78.4066 28.5926 78.5113C28.5401 78.6159 28.4003 78.7381 28.4003 79.1568C28.4107 79.5993 28.5196 80.034 28.7191 80.4293C28.9186 80.8246 29.2037 81.1707 29.5538 81.4423L48.0971 92.0675Z" fill="#16110D"/>
<path d="M51.0508 27.4441C51.3415 27.1426 51.565 26.783 51.7066 26.3891C51.8481 25.9952 51.9046 25.5758 51.8723 25.1586C51.8692 23.99 51.587 22.8391 51.049 21.8014C50.511 20.7636 49.7327 19.8689 48.7788 19.1917L18.9452 2.05882C18.3299 1.81248 17.657 1.74592 17.0052 1.8669C16.8825 1.93902 16.7656 2.02069 16.6557 2.11116L13.1602 4.55373C13.1026 4.59192 13.0552 4.64377 13.0225 4.70466C12.9898 4.76554 12.9727 4.83357 12.9727 4.90267C12.9727 4.97176 12.9898 5.03979 13.0225 5.10067C13.0552 5.16156 13.1026 5.21341 13.1602 5.2516L16.7606 7.83375C17.2475 8.83922 18.0036 9.69062 18.9452 10.2938L25.3244 13.9576L31.6511 18.4938L45.9475 30.2182C46.103 30.337 46.2934 30.4014 46.4893 30.4014C46.6851 30.4014 46.8755 30.337 47.0311 30.2182L51.0159 27.4441H51.0508Z" fill="#FFBE2E"/>
<path d="M52.012 27.4964C52 26.3413 51.7151 25.2052 51.1807 24.1806C50.6462 23.1559 49.8772 22.2716 48.936 21.5994L19.085 4.3967C18.4766 4.14696 17.8083 4.08025 17.1625 4.20478L16.7954 4.44904L13.3175 6.97884C13.2598 7.01704 13.2125 7.06889 13.1797 7.12977C13.147 7.19066 13.1299 7.25868 13.1299 7.32778C13.1299 7.39688 13.147 7.4649 13.1797 7.52579C13.2125 7.58667 13.2598 7.63852 13.3175 7.67672L16.9003 10.1716C17.3932 11.1731 18.148 12.0231 19.085 12.6316L25.4816 16.313L46.4543 30.7067L52.012 27.4964Z" fill="#FFEECC"/>
<path d="M46.5244 31.2825C46.128 31.2753 45.7459 31.1338 45.4408 30.8812L31.1095 19.1918L24.8352 14.6556L18.5084 11.0266C17.4857 10.3837 16.6532 9.48039 16.0966 8.40955L12.6011 5.94953C12.4361 5.82854 12.3013 5.67109 12.2073 5.4895C12.1134 5.30791 12.0627 5.10709 12.0593 4.90272C12.0605 4.69602 12.112 4.49271 12.2094 4.31033C12.3068 4.12795 12.4473 3.97199 12.6186 3.8559L16.114 1.41333C16.2521 1.31405 16.3982 1.22651 16.551 1.15163L16.8481 1.0295C17.2643 0.895375 17.7045 0.852442 18.1389 0.903627C18.5732 0.954812 18.9913 1.09891 19.3648 1.3261L49.1984 18.5113C50.266 19.2645 51.1395 20.2597 51.7472 21.4152C52.3548 22.5707 52.6792 23.8536 52.6938 25.1586C52.7267 25.6873 52.6506 26.2171 52.4702 26.7152C52.2899 27.2134 52.0091 27.6693 51.6452 28.0548C51.5229 28.1595 51.5229 28.1769 48.1497 30.4799L47.4681 30.951C47.1926 31.1509 46.8646 31.2662 46.5244 31.2825ZM14.1391 4.90272L17.4773 7.25805L17.5821 7.43252C17.9988 8.294 18.6384 9.02881 19.4347 9.56105L25.8139 13.2424L32.2105 17.8134L46.4894 29.6599L47.2235 29.1888L50.5092 26.9033C50.7014 26.675 50.8467 26.4111 50.9367 26.1267C51.0267 25.8423 51.0596 25.543 51.0335 25.2458C51.0267 24.2277 50.7833 23.225 50.3223 22.3167C49.8613 21.4084 49.1954 20.6194 48.377 20.0118L18.5084 2.79164C18.129 2.65134 17.7201 2.60932 17.32 2.66951C17.32 2.66951 17.2326 2.66951 17.2151 2.75675L14.1391 4.90272Z" fill="#16110D"/>
<path d="M34.6224 30.9857L24.5905 25.2108C23.1672 24.1937 22.0034 22.857 21.1928 21.3083C20.3822 19.7597 19.9476 18.0425 19.9241 16.2954L39.2888 27.4614C39.2888 30.8985 37.209 32.4862 34.6224 30.9857Z" fill="#FFBE2E"/>
<path d="M38.0303 34.8939L27.9634 29.1015C26.538 28.0854 25.3715 26.7492 24.5579 25.2007C23.7443 23.6522 23.3065 21.9345 23.2795 20.1862L42.6967 31.4045C42.6967 34.7892 40.5995 36.3769 38.0303 34.8939Z" fill="#FFEECC"/>
<path d="M36.4747 32.399C35.673 32.3759 34.8906 32.1476 34.2026 31.736L24.1707 25.9437C22.6109 24.8584 21.3338 23.4163 20.446 21.7379C19.5582 20.0595 19.0855 18.1934 19.0674 16.2955V14.83L40.1449 27.0428V27.5313C40.2335 28.3976 40.091 29.2719 39.7319 30.0655C39.3728 30.8591 38.8098 31.5438 38.1001 32.0501C37.5983 32.3066 37.0377 32.4269 36.4747 32.399ZM20.9724 17.8483C21.4044 20.4836 22.8538 22.8449 25.0096 24.4258L35.0415 30.2007C35.3577 30.4319 35.7291 30.5762 36.1186 30.6191C36.5082 30.6619 36.9022 30.6019 37.2612 30.445C37.6466 30.1481 37.9556 29.7637 38.1623 29.3237C38.369 28.8837 38.4675 28.4008 38.4496 27.9152L20.9724 17.8483Z" fill="#16110D"/>
<path d="M44.5318 30.4798L14.6982 13.2772C13.7538 12.6068 12.9814 11.7233 12.4439 10.6985C11.9063 9.67379 11.6188 8.53677 11.6047 7.3801C11.6047 5.112 12.9854 4.06518 14.6982 5.05966L44.5318 22.2449C45.4702 22.9211 46.2381 23.8059 46.775 24.8293C47.3119 25.8528 47.603 26.9869 47.6253 28.1419C47.6253 30.4275 46.2271 31.4045 44.5318 30.4798Z" fill="#FFBE2E"/>
<path d="M45.7553 31.7012C45.168 31.6894 44.5947 31.5207 44.0949 31.2127L14.2613 13.9577C13.1937 13.2045 12.3202 12.2093 11.7126 11.0538C11.1049 9.89826 10.7805 8.61535 10.7659 7.31038C10.7123 6.70178 10.8196 6.08978 11.0772 5.5356C11.3349 4.98142 11.7338 4.50448 12.234 4.15248C12.6845 3.91792 13.19 3.80872 13.6974 3.83635C14.2048 3.86398 14.6954 4.02741 15.1177 4.3095L44.9513 21.5122C46.0197 22.2606 46.894 23.2523 47.5019 24.4053C48.1097 25.5582 48.4336 26.8392 48.4468 28.142C48.5104 28.7666 48.4083 29.3969 48.1506 29.9696C47.8929 30.5423 47.4887 31.0372 46.9787 31.4046C46.6029 31.6061 46.1817 31.7082 45.7553 31.7012ZM13.4574 5.53079C13.3294 5.52662 13.2027 5.55674 13.0904 5.61802C12.8518 5.8369 12.6688 6.10922 12.5564 6.41256C12.4439 6.7159 12.4053 7.04156 12.4437 7.36272C12.4498 8.38286 12.6948 9.38746 13.1591 10.2963C13.6233 11.2051 14.2941 11.9929 15.1177 12.5968L44.9513 29.7995C45.118 29.9208 45.3124 29.9986 45.5169 30.026C45.7213 30.0535 45.9294 30.0296 46.1223 29.9565C46.3632 29.7394 46.5478 29.4673 46.6604 29.1635C46.773 28.8597 46.8103 28.5331 46.7689 28.2118C46.7588 27.1924 46.5121 26.1892 46.0481 25.2811C45.5841 24.3729 44.9156 23.5845 44.0949 22.9777L14.2613 5.79249C14.0223 5.63364 13.7443 5.54313 13.4574 5.53079Z" fill="#16110D"/>
<path d="M45.7727 23.6232L50.2993 20.7271L52.0295 24.8271L51.0508 27.4441L47.4156 30.0088L47.3806 27.0428L45.7727 23.6232Z" fill="#16110D"/>
<path d="M57.57 38.61L62.4286 35.4521L62.6209 105.502L61.6072 108.572L57.0457 111.277L57.3602 40.3024L57.57 38.61Z" fill="#16110D"/>
<path d="M10.8882 96.2199C11.3601 96.499 11.3601 96.9352 10.8882 97.1969C10.6226 97.35 10.3212 97.4306 10.0144 97.4306C9.70759 97.4306 9.40621 97.35 9.14052 97.1969C9.04161 97.1589 8.95655 97.0919 8.89655 97.0047C8.83656 96.9175 8.80444 96.8142 8.80444 96.7084C8.80444 96.6026 8.83656 96.4993 8.89655 96.4121C8.95655 96.3248 9.04161 96.2578 9.14052 96.2199C9.41112 96.082 9.71059 96.0101 10.0144 96.0101C10.3182 96.0101 10.6176 96.082 10.8882 96.2199Z" fill="#16110D"/>
<path d="M5.62766 94.859C6.28402 94.859 6.81611 94.5466 6.81611 94.1611C6.81611 93.7757 6.28402 93.4633 5.62766 93.4633C4.9713 93.4633 4.43921 93.7757 4.43921 94.1611C4.43921 94.5466 4.9713 94.859 5.62766 94.859Z" fill="#16110D"/>
<path d="M2.04475 91.1254C2.51663 91.4045 2.51663 91.8407 2.04475 92.1024C1.77415 92.2403 1.47468 92.3121 1.17089 92.3121C0.867095 92.3121 0.567625 92.2403 0.297029 92.1024C-0.174856 91.8407 -0.174856 91.4045 0.297029 91.1254C0.567625 90.9875 0.867095 90.9156 1.17089 90.9156C1.47468 90.9156 1.77415 90.9875 2.04475 91.1254Z" fill="#16110D"/>
<path d="M50.9109 118.796C51.3828 119.058 51.3828 119.494 50.9109 119.773C50.6404 119.911 50.3409 119.983 50.0371 119.983C49.7333 119.983 49.4338 119.911 49.1632 119.773C49.0643 119.735 48.9793 119.668 48.9193 119.581C48.8593 119.494 48.8271 119.391 48.8271 119.285C48.8271 119.179 48.8593 119.076 48.9193 118.988C48.9793 118.901 49.0643 118.834 49.1632 118.796C49.4289 118.643 49.7303 118.562 50.0371 118.562C50.3439 118.562 50.6453 118.643 50.9109 118.796Z" fill="#16110D"/>
<path d="M45.6504 117.435C46.3067 117.435 46.8388 117.123 46.8388 116.737C46.8388 116.352 46.3067 116.04 45.6504 116.04C44.994 116.04 44.4619 116.352 44.4619 116.737C44.4619 117.123 44.994 117.435 45.6504 117.435Z" fill="#16110D"/>
<path d="M42.0675 113.702C42.5393 113.963 42.5393 114.4 42.0675 114.661C41.8018 114.814 41.5004 114.895 41.1936 114.895C40.8868 114.895 40.5854 114.814 40.3197 114.661C39.8478 114.4 39.8478 113.963 40.3197 113.702C40.5854 113.549 40.8868 113.468 41.1936 113.468C41.5004 113.468 41.8018 113.549 42.0675 113.702Z" fill="#16110D"/>
<path d="M36.7895 112.323C37.4459 112.323 37.978 112.011 37.978 111.625C37.978 111.24 37.4459 110.928 36.7895 110.928C36.1332 110.928 35.6011 111.24 35.6011 111.625C35.6011 112.011 36.1332 112.323 36.7895 112.323Z" fill="#16110D"/>
<path d="M33.2066 108.59C33.3055 108.628 33.3906 108.695 33.4506 108.782C33.5106 108.869 33.5427 108.972 33.5427 109.078C33.5427 109.184 33.5106 109.287 33.4506 109.375C33.3906 109.462 33.3055 109.529 33.2066 109.567C32.9409 109.72 32.6395 109.8 32.3328 109.8C32.026 109.8 31.7246 109.72 31.4589 109.567C30.987 109.305 30.987 108.869 31.4589 108.59C31.7295 108.452 32.029 108.38 32.3328 108.38C32.6365 108.38 32.936 108.452 33.2066 108.59Z" fill="#16110D"/>
<path d="M28.7498 106.025C29.2217 106.287 29.2217 106.723 28.7498 106.985C28.4841 107.138 28.1828 107.218 27.876 107.218C27.5692 107.218 27.2678 107.138 27.0021 106.985C26.5302 106.723 26.5302 106.287 27.0021 106.025C27.2678 105.872 27.5692 105.791 27.876 105.791C28.1828 105.791 28.4841 105.872 28.7498 106.025Z" fill="#16110D"/>
<path d="M23.4892 104.647C24.1456 104.647 24.6777 104.334 24.6777 103.949C24.6777 103.563 24.1456 103.251 23.4892 103.251C22.8329 103.251 22.3008 103.563 22.3008 103.949C22.3008 104.334 22.8329 104.647 23.4892 104.647Z" fill="#16110D"/>
<path d="M19.9066 100.913C20.3784 101.192 20.3784 101.628 19.9066 101.89C19.6409 102.043 19.3395 102.124 19.0327 102.124C18.7259 102.124 18.4245 102.043 18.1588 101.89C18.0599 101.852 17.9749 101.785 17.9149 101.698C17.8549 101.611 17.8228 101.507 17.8228 101.402C17.8228 101.296 17.8549 101.192 17.9149 101.105C17.9749 101.018 18.0599 100.951 18.1588 100.913C18.4294 100.775 18.7289 100.703 19.0327 100.703C19.3365 100.703 19.636 100.775 19.9066 100.913Z" fill="#16110D"/>
<path d="M14.6457 99.5523C15.3021 99.5523 15.8342 99.2398 15.8342 98.8544C15.8342 98.4689 15.3021 98.1565 14.6457 98.1565C13.9894 98.1565 13.4573 98.4689 13.4573 98.8544C13.4573 99.2398 13.9894 99.5523 14.6457 99.5523Z" fill="#16110D"/>
<path d="M15.3449 93.7076C15.8168 93.9693 15.8168 94.4055 15.3449 94.6672C15.0792 94.8203 14.7778 94.9009 14.471 94.9009C14.1642 94.9009 13.8629 94.8203 13.5972 94.6672C13.4964 94.6335 13.4088 94.5691 13.3467 94.483C13.2846 94.3969 13.2512 94.2935 13.2512 94.1874C13.2512 94.0813 13.2846 93.9779 13.3467 93.8918C13.4088 93.8057 13.4964 93.7413 13.5972 93.7076C13.8629 93.5545 14.1642 93.4739 14.471 93.4739C14.7778 93.4739 15.0792 93.5545 15.3449 93.7076Z" fill="#16110D"/>
<path d="M9.22786 91.1602C9.49715 91.0181 9.79713 90.9438 10.1017 90.9438C10.4063 90.9438 10.7063 91.0181 10.9756 91.1602C11.4475 91.4394 11.4475 91.8755 10.9756 92.1372C10.7099 92.2904 10.4085 92.371 10.1017 92.371C9.79493 92.371 9.49355 92.2904 9.22786 92.1372C8.7385 91.8581 8.7385 91.4219 9.22786 91.1602Z" fill="#16110D"/>
<path d="M4.80631 88.5956C5.0769 88.4577 5.37637 88.3859 5.68017 88.3859C5.98396 88.3859 6.28343 88.4577 6.55403 88.5956C7.00843 88.8747 7.02591 89.3109 6.55403 89.5726C6.28834 89.7257 5.98695 89.8064 5.68017 89.8064C5.37338 89.8064 5.07199 89.7257 4.80631 89.5726C4.33442 89.3109 4.33442 88.8747 4.80631 88.5956Z" fill="#16110D"/>
<path d="M0.384321 86.0483C0.654918 85.9105 0.954387 85.8386 1.25818 85.8386C1.56198 85.8386 1.86145 85.9105 2.13204 86.0483C2.23095 86.0863 2.31602 86.1533 2.37601 86.2406C2.43601 86.3278 2.46812 86.4311 2.46812 86.5369C2.46812 86.6427 2.43601 86.746 2.37601 86.8332C2.31602 86.9204 2.23095 86.9874 2.13204 87.0254C1.86635 87.1785 1.56497 87.2591 1.25818 87.2591C0.951392 87.2591 0.650008 87.1785 0.384321 87.0254C-0.000177376 86.7637 -0.000177376 86.3275 0.384321 86.0483Z" fill="#16110D"/>
<path d="M58.9507 120C59.607 120 60.1391 119.688 60.1391 119.302C60.1391 118.917 59.607 118.604 58.9507 118.604C58.2943 118.604 57.7622 118.917 57.7622 119.302C57.7622 119.688 58.2943 120 58.9507 120Z" fill="#16110D"/>
<path d="M64.2286 116.266C64.3275 116.304 64.4126 116.371 64.4726 116.459C64.5326 116.546 64.5647 116.649 64.5647 116.755C64.5647 116.861 64.5326 116.964 64.4726 117.051C64.4126 117.138 64.3275 117.205 64.2286 117.243C63.958 117.381 63.6585 117.453 63.3547 117.453C63.0509 117.453 62.7515 117.381 62.4809 117.243C62.009 116.964 62.009 116.528 62.4809 116.266C62.7466 116.113 63.0479 116.033 63.3547 116.033C63.6615 116.033 63.9629 116.113 64.2286 116.266Z" fill="#16110D"/>
<path d="M68.6505 113.719C68.7494 113.757 68.8344 113.824 68.8944 113.911C68.9544 113.999 68.9865 114.102 68.9865 114.208C68.9865 114.313 68.9544 114.417 68.8944 114.504C68.8344 114.591 68.7494 114.658 68.6505 114.696C68.3799 114.834 68.0804 114.906 67.7766 114.906C67.4728 114.906 67.1733 114.834 66.9027 114.696C66.4309 114.417 66.4309 113.981 66.9027 113.719C67.1684 113.566 67.4698 113.485 67.7766 113.485C68.0834 113.485 68.3848 113.566 68.6505 113.719Z" fill="#16110D"/>
<path d="M53.6725 116.266C53.9431 116.129 54.2426 116.057 54.5464 116.057C54.8502 116.057 55.1496 116.129 55.4202 116.266C55.8921 116.528 55.8921 116.964 55.4202 117.243C55.1496 117.381 54.8502 117.453 54.5464 117.453C54.2426 117.453 53.9431 117.381 53.6725 117.243C53.5736 117.205 53.4885 117.138 53.4285 117.051C53.3685 116.964 53.3364 116.861 53.3364 116.755C53.3364 116.649 53.3685 116.546 53.4285 116.459C53.4885 116.371 53.5736 116.304 53.6725 116.266Z" fill="#16110D"/>
<path d="M59.807 113.719C59.9059 113.757 59.9909 113.824 60.0509 113.911C60.1109 113.999 60.143 114.102 60.143 114.208C60.143 114.313 60.1109 114.417 60.0509 114.504C59.9909 114.591 59.9059 114.658 59.807 114.696C59.5364 114.834 59.2369 114.906 58.9331 114.906C58.6293 114.906 58.3298 114.834 58.0592 114.696C57.5874 114.417 57.5874 113.981 58.0592 113.719C58.3249 113.566 58.6263 113.485 58.9331 113.485C59.2399 113.485 59.5413 113.566 59.807 113.719Z" fill="#16110D"/>
<path d="M63.3723 112.358C64.0286 112.358 64.5607 112.046 64.5607 111.66C64.5607 111.275 64.0286 110.963 63.3723 110.963C62.7159 110.963 62.1838 111.275 62.1838 111.66C62.1838 112.046 62.7159 112.358 63.3723 112.358Z" fill="#16110D"/>
<path d="M67.7939 109.794C68.4503 109.794 68.9824 109.481 68.9824 109.096C68.9824 108.71 68.4503 108.398 67.7939 108.398C67.1376 108.398 66.6055 108.71 66.6055 109.096C66.6055 109.481 67.1376 109.794 67.7939 109.794Z" fill="#16110D"/>
<path d="M49.2507 113.719C49.5164 113.566 49.8178 113.485 50.1246 113.485C50.4314 113.485 50.7327 113.566 50.9984 113.719C51.4703 113.981 51.4703 114.417 50.9984 114.696C50.7278 114.834 50.4284 114.906 50.1246 114.906C49.8208 114.906 49.5213 114.834 49.2507 114.696C48.7963 114.417 48.7788 113.981 49.2507 113.719Z" fill="#16110D"/>
<path d="M64.2286 106.06C64.3275 106.098 64.4126 106.165 64.4726 106.252C64.5326 106.339 64.5647 106.443 64.5647 106.548C64.5647 106.654 64.5326 106.758 64.4726 106.845C64.4126 106.932 64.3275 106.999 64.2286 107.037C63.9629 107.19 63.6615 107.271 63.3547 107.271C63.0479 107.271 62.7466 107.19 62.4809 107.037C62.009 106.775 62.009 106.339 62.4809 106.06C62.7515 105.922 63.0509 105.85 63.3547 105.85C63.6585 105.85 63.958 105.922 64.2286 106.06Z" fill="#16110D"/>
<path d="M44.829 111.172C45.0947 111.019 45.3961 110.938 45.7029 110.938C46.0097 110.938 46.311 111.019 46.5767 111.172C47.0486 111.434 47.0486 111.87 46.5767 112.149C46.3061 112.287 46.0067 112.359 45.7029 112.359C45.3991 112.359 45.0996 112.287 44.829 112.149C44.3571 111.87 44.3571 111.434 44.829 111.172Z" fill="#16110D"/>
<path d="M40.4071 108.625C40.6728 108.471 40.9742 108.391 41.281 108.391C41.5878 108.391 41.8892 108.471 42.1549 108.625C42.6267 108.886 42.6267 109.322 42.1549 109.584C41.8856 109.726 41.5856 109.801 41.281 109.801C40.9764 109.801 40.6764 109.726 40.4071 109.584C39.9353 109.322 39.9353 108.886 40.4071 108.625Z" fill="#16110D"/>
<path d="M35.9855 106.077C36.2548 105.935 36.5548 105.861 36.8594 105.861C37.164 105.861 37.4639 105.935 37.7332 106.077C37.8321 106.115 37.9172 106.182 37.9772 106.27C38.0372 106.357 38.0693 106.46 38.0693 106.566C38.0693 106.672 38.0372 106.775 37.9772 106.862C37.9172 106.949 37.8321 107.016 37.7332 107.054C37.4675 107.208 37.1662 107.288 36.8594 107.288C36.5526 107.288 36.2512 107.208 35.9855 107.054C35.5136 106.775 35.5136 106.426 35.9855 106.077Z" fill="#16110D"/>
<path d="M31.459 103.495C31.7246 103.342 32.026 103.261 32.3328 103.261C32.6396 103.261 32.941 103.342 33.2067 103.495C33.6786 103.757 33.6786 104.193 33.2067 104.472C32.9369 104.613 32.6371 104.686 32.3328 104.686C32.0285 104.686 31.7287 104.613 31.459 104.472C31.057 104.193 31.057 103.757 31.459 103.495Z" fill="#16110D"/>
<path d="M27.0896 100.948C27.3553 100.795 27.6567 100.714 27.9634 100.714C28.2702 100.714 28.5716 100.795 28.8373 100.948C29.3092 101.21 29.3092 101.646 28.8373 101.925C28.5676 102.066 28.2678 102.139 27.9634 102.139C27.6591 102.139 27.3593 102.066 27.0896 101.925C26.6352 101.646 26.6352 101.192 27.0896 100.948Z" fill="#16110D"/>
<path d="M22.7203 98.4008C22.9896 98.2587 23.2896 98.1844 23.5942 98.1844C23.8988 98.1844 24.1988 98.2587 24.4681 98.4008C24.94 98.68 24.94 99.1161 24.4681 99.3778C24.2024 99.531 23.901 99.6116 23.5942 99.6116C23.2874 99.6116 22.986 99.531 22.7203 99.3778C22.6128 99.3489 22.5177 99.2853 22.45 99.197C22.3822 99.1087 22.3455 99.0006 22.3455 98.8893C22.3455 98.7781 22.3822 98.6699 22.45 98.5816C22.5177 98.4933 22.6128 98.4298 22.7203 98.4008Z" fill="#16110D"/>
<path d="M18.2462 95.8361C18.5168 95.6982 18.8163 95.6263 19.1201 95.6263C19.4239 95.6263 19.7234 95.6982 19.994 95.8361C20.4658 96.1152 20.4658 96.5514 19.994 96.8131C19.7283 96.9662 19.4269 97.0468 19.1201 97.0468C18.8133 97.0468 18.5119 96.9662 18.2462 96.8131C18.1473 96.7751 18.0623 96.7081 18.0023 96.6209C17.9423 96.5337 17.9102 96.4304 17.9102 96.3246C17.9102 96.2188 17.9423 96.1155 18.0023 96.0283C18.0623 95.9411 18.1473 95.874 18.2462 95.8361Z" fill="#16110D"/>
</g>
<defs>
<clipPath id="clip0">
<rect width="69" height="120" fill="white"/>
</clipPath>
</defs>
</svg>
