<svg width="105" height="114" viewBox="0 0 105 114" fill="none" xmlns="http://www.w3.org/2000/svg">
<path d="M19.0379 112.396C19.1573 112.442 19.26 112.523 19.3325 112.629C19.405 112.734 19.4437 112.859 19.4437 112.987C19.4437 113.115 19.405 113.24 19.3325 113.346C19.26 113.451 19.1573 113.532 19.0379 113.578C18.7111 113.745 18.3494 113.832 17.9826 113.832C17.6157 113.832 17.254 113.745 16.9272 113.578C16.7973 113.543 16.6825 113.466 16.6007 113.359C16.5188 113.252 16.4745 113.122 16.4745 112.987C16.4745 112.852 16.5188 112.722 16.6007 112.615C16.6825 112.508 16.7973 112.431 16.9272 112.396C17.254 112.229 17.6157 112.142 17.9826 112.142C18.3494 112.142 18.7111 112.229 19.0379 112.396Z" fill="#16110D"/>
<path d="M12.6638 110.75C13.4564 110.75 14.099 110.372 14.099 109.905C14.099 109.439 13.4564 109.061 12.6638 109.061C11.8711 109.061 11.2285 109.439 11.2285 109.905C11.2285 110.372 11.8711 110.75 12.6638 110.75Z" fill="#16110D"/>
<path d="M8.33687 106.233C8.90675 106.549 8.90675 107.077 8.33687 107.415C8.01112 107.585 7.64906 107.674 7.28155 107.674C6.91404 107.674 6.55198 107.585 6.22623 107.415C5.65636 107.077 5.65636 106.549 6.22623 106.233C6.54709 106.047 6.91106 105.95 7.28155 105.95C7.65205 105.95 8.01602 106.047 8.33687 106.233Z" fill="#16110D"/>
<path d="M1.98382 104.586C2.77647 104.586 3.41902 104.208 3.41902 103.742C3.41902 103.276 2.77647 102.898 1.98382 102.898C1.19117 102.898 0.548584 103.276 0.548584 103.742C0.548584 104.208 1.19117 104.586 1.98382 104.586Z" fill="#16110D"/>
<path d="M1.79391 98.9507C2.58658 98.9507 3.22914 98.5727 3.22914 98.1064C3.22914 97.6401 2.58658 97.2621 1.79391 97.2621C1.00124 97.2621 0.358643 97.6401 0.358643 98.1064C0.358643 98.5727 1.00124 98.9507 1.79391 98.9507Z" fill="#16110D"/>
<path d="M8.14681 94.4337C8.71668 94.7503 8.71668 95.278 8.14681 95.5946C7.82595 95.7798 7.46198 95.8774 7.09149 95.8774C6.721 95.8774 6.35703 95.7798 6.03617 95.5946C5.4663 95.278 5.4663 94.7503 6.03617 94.4337C6.35703 94.2484 6.721 94.1509 7.09149 94.1509C7.46198 94.1509 7.82595 94.2484 8.14681 94.4337Z" fill="#16110D"/>
<path d="M27.7338 112.481C28.0547 112.295 28.4186 112.198 28.7891 112.198C29.1596 112.198 29.5236 112.295 29.8445 112.481C29.9662 112.521 30.072 112.599 30.147 112.703C30.2219 112.808 30.2623 112.933 30.2623 113.061C30.2623 113.189 30.2219 113.314 30.147 113.419C30.072 113.523 29.9662 113.601 29.8445 113.641C29.5193 113.813 29.157 113.903 28.7891 113.903C28.4213 113.903 28.059 113.813 27.7338 113.641C27.1639 113.325 27.1639 112.776 27.7338 112.481Z" fill="#16110D"/>
<path d="M35.121 109.378C35.6908 109.715 35.6908 110.243 35.121 110.56C34.8001 110.745 34.4361 110.842 34.0656 110.842C33.6951 110.842 33.3312 110.745 33.0103 110.56C32.4404 110.243 32.4404 109.715 33.0103 109.378C33.3371 109.211 33.6987 109.124 34.0656 109.124C34.4325 109.124 34.7942 109.211 35.121 109.378Z" fill="#16110D"/>
<path d="M39.4478 107.731C40.2405 107.731 40.883 107.353 40.883 106.887C40.883 106.421 40.2405 106.043 39.4478 106.043C38.6552 106.043 38.0126 106.421 38.0126 106.887C38.0126 107.353 38.6552 107.731 39.4478 107.731Z" fill="#16110D"/>
<path d="M44.7878 104.649C45.5804 104.649 46.223 104.271 46.223 103.805C46.223 103.339 45.5804 102.961 44.7878 102.961C43.9951 102.961 43.3525 103.339 43.3525 103.805C43.3525 104.271 43.9951 104.649 44.7878 104.649Z" fill="#16110D"/>
<path d="M50.1276 101.568C50.9203 101.568 51.5629 101.19 51.5629 100.724C51.5629 100.257 50.9203 99.8794 50.1276 99.8794C49.335 99.8794 48.6924 100.257 48.6924 100.724C48.6924 101.19 49.335 101.568 50.1276 101.568Z" fill="#16110D"/>
<path d="M55.4676 98.4863C56.2603 98.4863 56.9029 98.1083 56.9029 97.642C56.9029 97.1757 56.2603 96.7977 55.4676 96.7977C54.6749 96.7977 54.0323 97.1757 54.0323 97.642C54.0323 98.1083 54.6749 98.4863 55.4676 98.4863Z" fill="#16110D"/>
<path d="M61.8418 93.9693C61.9612 94.0153 62.0639 94.0963 62.1364 94.2018C62.2088 94.3073 62.2476 94.4323 62.2476 94.5603C62.2476 94.6883 62.2088 94.8133 62.1364 94.9188C62.0639 95.0243 61.9612 95.1054 61.8418 95.1513C61.515 95.3181 61.1533 95.405 60.7864 95.405C60.4196 95.405 60.0579 95.3181 59.7311 95.1513C59.1612 94.8136 59.1612 94.2859 59.7311 93.9693C60.052 93.784 60.4159 93.6865 60.7864 93.6865C61.1569 93.6865 61.5209 93.784 61.8418 93.9693Z" fill="#16110D"/>
<path d="M67.1819 90.8875C67.3035 90.9283 67.4094 91.0062 67.4843 91.1104C67.5593 91.2145 67.5996 91.3396 67.5996 91.468C67.5996 91.5963 67.5593 91.7214 67.4843 91.8256C67.4094 91.9297 67.3035 92.0077 67.1819 92.0484C66.861 92.2337 66.497 92.3312 66.1265 92.3312C65.756 92.3312 65.3921 92.2337 65.0712 92.0484C64.5013 91.7318 64.5013 91.2041 65.0712 90.8875C65.3921 90.7023 65.756 90.6047 66.1265 90.6047C66.497 90.6047 66.861 90.7023 67.1819 90.8875Z" fill="#16110D"/>
<path d="M72.5216 87.785C73.0915 88.1227 73.0915 88.6504 72.5216 88.967C72.2007 89.1522 71.8368 89.2498 71.4663 89.2498C71.0958 89.2498 70.7318 89.1522 70.4109 88.967C69.8411 88.6504 69.8411 88.1227 70.4109 87.785C70.7377 87.6182 71.0994 87.5312 71.4663 87.5312C71.8331 87.5312 72.1948 87.6182 72.5216 87.785Z" fill="#16110D"/>
<path d="M76.8485 86.1385C77.6411 86.1385 78.2837 85.7605 78.2837 85.2942C78.2837 84.828 77.6411 84.45 76.8485 84.45C76.0558 84.45 75.4132 84.828 75.4132 85.2942C75.4132 85.7605 76.0558 86.1385 76.8485 86.1385Z" fill="#16110D"/>
<path d="M82.1883 83.0569C82.981 83.0569 83.6236 82.6789 83.6236 82.2126C83.6236 81.7463 82.981 81.3683 82.1883 81.3683C81.3957 81.3683 80.7531 81.7463 80.7531 82.2126C80.7531 82.6789 81.3957 83.0569 82.1883 83.0569Z" fill="#16110D"/>
<path d="M87.5283 79.9752C88.321 79.9752 88.9635 79.5972 88.9635 79.1309C88.9635 78.6646 88.321 78.2866 87.5283 78.2866C86.7356 78.2866 86.093 78.6646 86.093 79.1309C86.093 79.5972 86.7356 79.9752 87.5283 79.9752Z" fill="#16110D"/>
<path d="M92.8682 76.8935C93.6609 76.8935 94.3034 76.5155 94.3034 76.0492C94.3034 75.583 93.6609 75.205 92.8682 75.205C92.0756 75.205 91.433 75.583 91.433 76.0492C91.433 76.5155 92.0756 76.8935 92.8682 76.8935Z" fill="#16110D"/>
<path d="M98.208 73.8119C99.0007 73.8119 99.6433 73.4339 99.6433 72.9676C99.6433 72.5013 99.0007 72.1233 98.208 72.1233C97.4154 72.1233 96.7728 72.5013 96.7728 72.9676C96.7728 73.4339 97.4154 73.8119 98.208 73.8119Z" fill="#16110D"/>
<path d="M104.582 69.2949C104.704 69.3356 104.81 69.4136 104.885 69.5177C104.96 69.6219 105 69.747 105 69.8753C105 70.0037 104.96 70.1287 104.885 70.2329C104.81 70.3371 104.704 70.415 104.582 70.4558C104.261 70.641 103.897 70.7385 103.527 70.7385C103.156 70.7385 102.792 70.641 102.472 70.4558C101.902 70.1392 101.902 69.6115 102.472 69.2949C102.792 69.1096 103.156 69.0121 103.527 69.0121C103.897 69.0121 104.261 69.1096 104.582 69.2949Z" fill="#16110D"/>
<path d="M22.3305 109.356C22.6557 109.185 23.018 109.095 23.3858 109.095C23.7537 109.095 24.1159 109.185 24.4411 109.356C25.011 109.673 25.011 110.201 24.4411 110.538C24.1154 110.709 23.7533 110.797 23.3858 110.797C23.0183 110.797 22.6563 110.709 22.3305 110.538C21.7818 110.201 21.7818 109.673 22.3305 109.356Z" fill="#16110D"/>
<path d="M29.8445 106.275C29.9639 106.321 30.0666 106.402 30.1391 106.507C30.2115 106.613 30.2503 106.738 30.2503 106.866C30.2503 106.994 30.2115 107.119 30.1391 107.224C30.0666 107.33 29.9639 107.411 29.8445 107.457C29.5177 107.624 29.156 107.711 28.7891 107.711C28.4223 107.711 28.0606 107.624 27.7338 107.457C27.1639 107.119 27.1639 106.591 27.7338 106.275C28.0547 106.09 28.4186 105.992 28.7891 105.992C29.1596 105.992 29.5236 106.09 29.8445 106.275Z" fill="#16110D"/>
<path d="M35.0788 103.193C35.6487 103.51 35.6487 104.038 35.0788 104.354C34.758 104.539 34.394 104.637 34.0235 104.637C33.653 104.637 33.289 104.539 32.9682 104.354C32.3983 104.038 32.3983 103.51 32.9682 103.193C33.289 103.008 33.653 102.911 34.0235 102.911C34.394 102.911 34.758 103.008 35.0788 103.193Z" fill="#16110D"/>
<path d="M39.4057 101.526C40.1983 101.526 40.8409 101.148 40.8409 100.681C40.8409 100.215 40.1983 99.837 39.4057 99.837C38.613 99.837 37.9705 100.215 37.9705 100.681C37.9705 101.148 38.613 101.526 39.4057 101.526Z" fill="#16110D"/>
<path d="M44.7455 98.4441C45.5382 98.4441 46.1807 98.0661 46.1807 97.5998C46.1807 97.1335 45.5382 96.7555 44.7455 96.7555C43.9529 96.7555 43.3103 97.1335 43.3103 97.5998C43.3103 98.0661 43.9529 98.4441 44.7455 98.4441Z" fill="#16110D"/>
<path d="M50.0855 95.3624C50.8781 95.3624 51.5207 94.9844 51.5207 94.5181C51.5207 94.0518 50.8781 93.6738 50.0855 93.6738C49.2928 93.6738 48.6503 94.0518 48.6503 94.5181C48.6503 94.9844 49.2928 95.3624 50.0855 95.3624Z" fill="#16110D"/>
<path d="M56.4386 90.8453C57.0085 91.1619 57.0085 91.6895 56.4386 92.0273C56.1118 92.194 55.7502 92.281 55.3833 92.281C55.0164 92.281 54.6548 92.194 54.328 92.0273C54.2086 91.9813 54.1058 91.9002 54.0334 91.7947C53.9609 91.6892 53.9221 91.5643 53.9221 91.4363C53.9221 91.3083 53.9609 91.1833 54.0334 91.0778C54.1058 90.9723 54.2086 90.8912 54.328 90.8453C54.6548 90.6785 55.0164 90.5916 55.3833 90.5916C55.7502 90.5916 56.1118 90.6785 56.4386 90.8453Z" fill="#16110D"/>
<path d="M61.7785 87.7638C62.3484 88.0804 62.3484 88.608 61.7785 88.9458C61.4527 89.1159 61.0907 89.2048 60.7232 89.2048C60.3557 89.2048 59.9936 89.1159 59.6679 88.9458C59.098 88.608 59.098 88.0804 59.6679 87.7638C59.9887 87.5785 60.3527 87.481 60.7232 87.481C61.0937 87.481 61.4576 87.5785 61.7785 87.7638Z" fill="#16110D"/>
<path d="M67.1395 84.6821C67.2589 84.728 67.3617 84.8091 67.4341 84.9146C67.5066 85.0201 67.5453 85.1451 67.5453 85.2731C67.5453 85.4011 67.5066 85.5261 67.4341 85.6316C67.3617 85.7371 67.2589 85.8181 67.1395 85.8641C66.8127 86.0308 66.451 86.1178 66.0842 86.1178C65.7173 86.1178 65.3556 86.0308 65.0288 85.8641C64.459 85.5264 64.459 84.9987 65.0288 84.6821C65.3497 84.4968 65.7137 84.3993 66.0842 84.3993C66.4547 84.3993 66.8186 84.4968 67.1395 84.6821Z" fill="#16110D"/>
<path d="M72.4794 81.6007C72.6011 81.6414 72.7069 81.7194 72.7819 81.8235C72.8569 81.9277 72.8972 82.0528 72.8972 82.1811C72.8972 82.3094 72.8569 82.4345 72.7819 82.5387C72.7069 82.6428 72.6011 82.7208 72.4794 82.7615C72.1586 82.9468 71.7946 83.0443 71.4241 83.0443C71.0536 83.0443 70.6897 82.9468 70.3688 82.7615C69.7989 82.4449 69.7989 81.9173 70.3688 81.6007C70.6897 81.4154 71.0536 81.3179 71.4241 81.3179C71.7946 81.3179 72.1586 81.4154 72.4794 81.6007Z" fill="#16110D"/>
<path d="M76.7852 79.9331C77.5779 79.9331 78.2204 79.5551 78.2204 79.0888C78.2204 78.6225 77.5779 78.2445 76.7852 78.2445C75.9926 78.2445 75.35 78.6225 75.35 79.0888C75.35 79.5551 75.9926 79.9331 76.7852 79.9331Z" fill="#16110D"/>
<path d="M82.1251 76.8514C82.9177 76.8514 83.5603 76.4734 83.5603 76.0071C83.5603 75.5408 82.9177 75.1628 82.1251 75.1628C81.3324 75.1628 80.6898 75.5408 80.6898 76.0071C80.6898 76.4734 81.3324 76.8514 82.1251 76.8514Z" fill="#16110D"/>
<path d="M87.4861 73.7697C88.2788 73.7697 88.9214 73.3917 88.9214 72.9255C88.9214 72.4592 88.2788 72.0812 87.4861 72.0812C86.6935 72.0812 86.0509 72.4592 86.0509 72.9255C86.0509 73.3917 86.6935 73.7697 87.4861 73.7697Z" fill="#16110D"/>
<path d="M92.8261 70.688C93.6187 70.688 94.2613 70.31 94.2613 69.8437C94.2613 69.3774 93.6187 68.9994 92.8261 68.9994C92.0334 68.9994 91.3909 69.3774 91.3909 69.8437C91.3909 70.31 92.0334 70.688 92.8261 70.688Z" fill="#16110D"/>
<path d="M98.1659 67.6064C98.9586 67.6064 99.6012 67.2284 99.6012 66.7621C99.6012 66.2959 98.9586 65.9178 98.1659 65.9178C97.3733 65.9178 96.7307 66.2959 96.7307 66.7621C96.7307 67.2284 97.3733 67.6064 98.1659 67.6064Z" fill="#16110D"/>
<path d="M104.519 63.0894C105.089 63.406 105.089 63.9337 104.519 64.2714C104.193 64.4416 103.831 64.5304 103.464 64.5304C103.096 64.5304 102.734 64.4416 102.408 64.2714C101.838 63.9337 101.838 63.406 102.408 63.0894C102.729 62.9042 103.093 62.8066 103.464 62.8066C103.834 62.8066 104.198 62.9042 104.519 63.0894Z" fill="#16110D"/>
<path d="M16.9906 106.275C17.3114 106.09 17.6754 105.992 18.0459 105.992C18.4164 105.992 18.7803 106.09 19.1012 106.275C19.6711 106.591 19.6711 107.119 19.1012 107.457C18.7754 107.627 18.4134 107.716 18.0459 107.716C17.6784 107.716 17.3163 107.627 16.9906 107.457C16.4418 107.119 16.4418 106.591 16.9906 106.275Z" fill="#16110D"/>
<path d="M24.399 103.193C24.5207 103.234 24.6265 103.312 24.7015 103.416C24.7765 103.52 24.8168 103.645 24.8168 103.774C24.8168 103.902 24.7765 104.027 24.7015 104.131C24.6265 104.235 24.5207 104.313 24.399 104.354C24.0782 104.539 23.7142 104.637 23.3437 104.637C22.9732 104.637 22.6092 104.539 22.2884 104.354C21.7185 104.038 21.7185 103.51 22.2884 103.193C22.6092 103.008 22.9732 102.911 23.3437 102.911C23.7142 102.911 24.0782 103.008 24.399 103.193Z" fill="#16110D"/>
<path d="M29.8445 100.111C29.9639 100.157 30.0666 100.238 30.1391 100.344C30.2115 100.449 30.2503 100.574 30.2503 100.702C30.2503 100.83 30.2115 100.955 30.1391 101.061C30.0666 101.166 29.9639 101.247 29.8445 101.293C29.5236 101.479 29.1596 101.576 28.7891 101.576C28.4186 101.576 28.0547 101.479 27.7338 101.293C27.1639 100.977 27.1639 100.449 27.7338 100.111C28.0606 99.9446 28.4223 99.8577 28.7891 99.8577C29.156 99.8577 29.5177 99.9446 29.8445 100.111Z" fill="#16110D"/>
<path d="M35.0788 97.0088C35.6487 97.3465 35.6487 97.8742 35.0788 98.1908C34.758 98.3761 34.394 98.4736 34.0235 98.4736C33.653 98.4736 33.289 98.3761 32.9682 98.1908C32.3983 97.8742 32.3983 97.3465 32.9682 97.0088C33.295 96.8421 33.6566 96.7551 34.0235 96.7551C34.3904 96.7551 34.752 96.8421 35.0788 97.0088Z" fill="#16110D"/>
<path d="M40.3975 93.9271C40.9674 94.2648 40.9674 94.7924 40.3975 95.109C40.0707 95.2758 39.7091 95.3628 39.3422 95.3628C38.9753 95.3628 38.6137 95.2758 38.2869 95.109C37.717 94.7924 37.717 94.2648 38.2869 93.9271C38.6137 93.7603 38.9753 93.6733 39.3422 93.6733C39.7091 93.6733 40.0707 93.7603 40.3975 93.9271Z" fill="#16110D"/>
<path d="M44.7455 92.2806C45.5382 92.2806 46.1807 91.9026 46.1807 91.4363C46.1807 90.97 45.5382 90.592 44.7455 90.592C43.9529 90.592 43.3103 90.97 43.3103 91.4363C43.3103 91.9026 43.9529 92.2806 44.7455 92.2806Z" fill="#16110D"/>
<path d="M50.0855 89.1991C50.8781 89.1991 51.5207 88.8211 51.5207 88.3548C51.5207 87.8885 50.8781 87.5105 50.0855 87.5105C49.2928 87.5105 48.6503 87.8885 48.6503 88.3548C48.6503 88.8211 49.2928 89.1991 50.0855 89.1991Z" fill="#16110D"/>
<path d="M55.4255 86.1173C56.2181 86.1173 56.8607 85.7393 56.8607 85.273C56.8607 84.8067 56.2181 84.4287 55.4255 84.4287C54.6328 84.4287 53.9902 84.8067 53.9902 85.273C53.9902 85.7393 54.6328 86.1173 55.4255 86.1173Z" fill="#16110D"/>
<path d="M60.7654 83.0357C61.5581 83.0357 62.2007 82.6577 62.2007 82.1915C62.2007 81.7252 61.5581 81.3472 60.7654 81.3472C59.9728 81.3472 59.3302 81.7252 59.3302 82.1915C59.3302 82.6577 59.9728 83.0357 60.7654 83.0357Z" fill="#16110D"/>
<path d="M66.1053 79.9331C66.8979 79.9331 67.5405 79.5551 67.5405 79.0888C67.5405 78.6225 66.8979 78.2445 66.1053 78.2445C65.3126 78.2445 64.67 78.6225 64.67 79.0888C64.67 79.5551 65.3126 79.9331 66.1053 79.9331Z" fill="#16110D"/>
<path d="M72.4795 75.4161C72.5989 75.462 72.7016 75.5431 72.7741 75.6486C72.8466 75.7541 72.8853 75.8791 72.8853 76.0071C72.8853 76.1351 72.8466 76.26 72.7741 76.3655C72.7016 76.4711 72.5989 76.5521 72.4795 76.5981C72.1586 76.7833 71.7946 76.8808 71.4241 76.8808C71.0536 76.8808 70.6897 76.7833 70.3688 76.5981C69.7989 76.2815 69.7989 75.7538 70.3688 75.4161C70.6956 75.2493 71.0573 75.1624 71.4241 75.1624C71.791 75.1624 72.1527 75.2493 72.4795 75.4161Z" fill="#16110D"/>
<path d="M77.8193 72.3345C77.9387 72.3805 78.0415 72.4616 78.1139 72.5671C78.1864 72.6726 78.2252 72.7975 78.2252 72.9255C78.2252 73.0535 78.1864 73.1785 78.1139 73.284C78.0415 73.3895 77.9387 73.4706 77.8193 73.5165C77.4984 73.7018 77.1345 73.7993 76.764 73.7993C76.3935 73.7993 76.0295 73.7018 75.7087 73.5165C75.1388 73.1999 75.1388 72.6722 75.7087 72.3345C76.0354 72.1678 76.3971 72.0808 76.764 72.0808C77.1308 72.0808 77.4925 72.1678 77.8193 72.3345Z" fill="#16110D"/>
<path d="M83.1593 69.2529C83.7292 69.5695 83.7292 70.0971 83.1593 70.4349C82.8325 70.6016 82.4708 70.6886 82.104 70.6886C81.7371 70.6886 81.3754 70.6016 81.0486 70.4349C80.4787 70.0971 80.4787 69.5695 81.0486 69.2529C81.3754 69.0861 81.7371 68.9991 82.104 68.9991C82.4708 68.9991 82.8325 69.0861 83.1593 69.2529Z" fill="#16110D"/>
<path d="M88.4992 66.1711C89.0691 66.4877 89.0691 67.0154 88.4992 67.3531C88.1724 67.5199 87.8108 67.6068 87.4439 67.6068C87.077 67.6068 86.7154 67.5199 86.3886 67.3531C85.8187 67.0154 85.8187 66.4877 86.3886 66.1711C86.7094 65.9858 87.0734 65.8883 87.4439 65.8883C87.8144 65.8883 88.1784 65.9858 88.4992 66.1711Z" fill="#16110D"/>
<path d="M92.8261 64.5246C93.6187 64.5246 94.2613 64.1466 94.2613 63.6804C94.2613 63.2141 93.6187 62.8361 92.8261 62.8361C92.0334 62.8361 91.3909 63.2141 91.3909 63.6804C91.3909 64.1466 92.0334 64.5246 92.8261 64.5246Z" fill="#16110D"/>
<path d="M11.6505 103.193C11.9714 103.008 12.3354 102.911 12.7059 102.911C13.0764 102.911 13.4403 103.008 13.7612 103.193C14.3311 103.51 14.3311 104.038 13.7612 104.375C13.4344 104.542 13.0727 104.629 12.7059 104.629C12.339 104.629 11.9773 104.542 11.6505 104.375C11.5311 104.329 11.4283 104.248 11.3559 104.143C11.2834 104.037 11.2446 103.912 11.2446 103.784C11.2446 103.656 11.2834 103.531 11.3559 103.426C11.4283 103.32 11.5311 103.239 11.6505 103.193Z" fill="#16110D"/>
<path d="M19.0378 100.112C19.6077 100.449 19.6077 100.977 19.0378 101.294C18.717 101.479 18.353 101.576 17.9825 101.576C17.612 101.576 17.248 101.479 16.9272 101.294C16.3573 100.977 16.3573 100.449 16.9272 100.112C17.2529 99.9414 17.615 99.8525 17.9825 99.8525C18.35 99.8525 18.7121 99.9414 19.0378 100.112Z" fill="#16110D"/>
<path d="M23.3648 98.4441C24.1574 98.4441 24.8 98.0661 24.8 97.5998C24.8 97.1335 24.1574 96.7555 23.3648 96.7555C22.5721 96.7555 21.9296 97.1335 21.9296 97.5998C21.9296 98.0661 22.5721 98.4441 23.3648 98.4441Z" fill="#16110D"/>
<path d="M29.8445 93.9271C29.9639 93.973 30.0666 94.0541 30.1391 94.1596C30.2115 94.2651 30.2503 94.3901 30.2503 94.518C30.2503 94.646 30.2115 94.771 30.1391 94.8765C30.0666 94.982 29.9639 95.0631 29.8445 95.109C29.5177 95.2758 29.156 95.3628 28.7891 95.3628C28.4223 95.3628 28.0606 95.2758 27.7338 95.109C27.1639 94.7924 27.1639 94.2648 27.7338 93.9271C28.0606 93.7603 28.4223 93.6733 28.7891 93.6733C29.156 93.6733 29.5177 93.7603 29.8445 93.9271Z" fill="#16110D"/>
<path d="M34.0446 92.2806C34.8373 92.2806 35.4799 91.9026 35.4799 91.4363C35.4799 90.97 34.8373 90.592 34.0446 90.592C33.252 90.592 32.6094 90.97 32.6094 91.4363C32.6094 91.9026 33.252 92.2806 34.0446 92.2806Z" fill="#16110D"/>
<path d="M40.3975 87.7638C40.9674 88.0804 40.9674 88.608 40.3975 88.9457C40.0707 89.1125 39.7091 89.1995 39.3422 89.1995C38.9753 89.1995 38.6137 89.1125 38.2869 88.9457C37.717 88.608 37.717 88.0804 38.2869 87.7638C38.6078 87.5785 38.9717 87.481 39.3422 87.481C39.7127 87.481 40.0767 87.5785 40.3975 87.7638Z" fill="#16110D"/>
<path d="M45.7586 84.6821C46.3285 84.9987 46.3285 85.5264 45.7586 85.8641C45.4318 86.0308 45.0701 86.1178 44.7033 86.1178C44.3364 86.1178 43.9747 86.0308 43.6479 85.8641C43.5285 85.8181 43.4258 85.7371 43.3533 85.6316C43.2809 85.5261 43.2421 85.4011 43.2421 85.2731C43.2421 85.1451 43.2809 85.0201 43.3533 84.9146C43.4258 84.8091 43.5285 84.728 43.6479 84.6821C43.9688 84.4968 44.3328 84.3993 44.7033 84.3993C45.0738 84.3993 45.4377 84.4968 45.7586 84.6821Z" fill="#16110D"/>
<path d="M51.0986 81.6007C51.6685 81.9173 51.6685 82.4449 51.0986 82.7615C50.7778 82.9468 50.4138 83.0443 50.0433 83.0443C49.6728 83.0443 49.3089 82.9468 48.988 82.7615C48.8663 82.7208 48.7605 82.6428 48.6855 82.5387C48.6105 82.4345 48.5702 82.3094 48.5702 82.1811C48.5702 82.0528 48.6105 81.9277 48.6855 81.8235C48.7605 81.7194 48.8663 81.6414 48.988 81.6007C49.3089 81.4154 49.6728 81.3179 50.0433 81.3179C50.4138 81.3179 50.7778 81.4154 51.0986 81.6007Z" fill="#16110D"/>
<path d="M56.4384 78.4978C57.0083 78.8355 57.0083 79.3632 56.4384 79.6798C56.1175 79.8651 55.7536 79.9626 55.3831 79.9626C55.0126 79.9626 54.6486 79.8651 54.3278 79.6798L56.4384 78.4978Z" fill="#16110D"/>
<path d="M59.7524 75.416C60.0781 75.2458 60.4402 75.157 60.8077 75.157C61.1752 75.157 61.5372 75.2458 61.863 75.416C62.4329 75.7537 62.4329 76.2814 61.863 76.598C61.5421 76.7833 61.1782 76.8808 60.8077 76.8808C60.4372 76.8808 60.0732 76.7833 59.7524 76.598C59.1825 76.2814 59.1825 75.7537 59.7524 75.416Z" fill="#16110D"/>
<path d="M67.1395 72.3345C67.2589 72.3805 67.3617 72.4616 67.4341 72.5671C67.5066 72.6726 67.5453 72.7975 67.5453 72.9255C67.5453 73.0535 67.5066 73.1785 67.4341 73.284C67.3617 73.3895 67.2589 73.4706 67.1395 73.5165C66.8186 73.7018 66.4547 73.7993 66.0842 73.7993C65.7137 73.7993 65.3497 73.7018 65.0288 73.5165C64.459 73.1999 64.459 72.6722 65.0288 72.3345C65.3556 72.1678 65.7173 72.0808 66.0842 72.0808C66.451 72.0808 66.8127 72.1678 67.1395 72.3345Z" fill="#16110D"/>
<path d="M71.4453 70.688C72.2379 70.688 72.8805 70.31 72.8805 69.8437C72.8805 69.3774 72.2379 68.9994 71.4453 68.9994C70.6526 68.9994 70.01 69.3774 70.01 69.8437C70.01 70.31 70.6526 70.688 71.4453 70.688Z" fill="#16110D"/>
<path d="M76.7852 67.6064C77.5779 67.6064 78.2204 67.2284 78.2204 66.7621C78.2204 66.2959 77.5779 65.9178 76.7852 65.9178C75.9926 65.9178 75.35 66.2959 75.35 66.7621C75.35 67.2284 75.9926 67.6064 76.7852 67.6064Z" fill="#16110D"/>
<path d="M82.1251 64.5246C82.9177 64.5246 83.5603 64.1466 83.5603 63.6804C83.5603 63.2141 82.9177 62.8361 82.1251 62.8361C81.3324 62.8361 80.6898 63.2141 80.6898 63.6804C80.6898 64.1466 81.3324 64.5246 82.1251 64.5246Z" fill="#16110D"/>
<path d="M87.4861 61.4431C88.2788 61.4431 88.9214 61.0651 88.9214 60.5988C88.9214 60.1325 88.2788 59.7545 87.4861 59.7545C86.6935 59.7545 86.0509 60.1325 86.0509 60.5988C86.0509 61.0651 86.6935 61.4431 87.4861 61.4431Z" fill="#16110D"/>
<path d="M6.31088 100.112C6.63609 99.9397 6.99837 99.8499 7.36621 99.8499C7.73405 99.8499 8.09632 99.9397 8.42153 100.112C8.9914 100.449 8.9914 100.977 8.42153 101.294C8.10067 101.479 7.7367 101.576 7.36621 101.576C6.99571 101.576 6.63174 101.479 6.31088 101.294C5.76212 100.956 5.74101 100.428 6.31088 100.112Z" fill="#16110D"/>
<path d="M13.698 97.0086C14.2678 97.3464 14.2678 97.874 13.698 98.1906C13.3771 98.3759 13.0131 98.4734 12.6426 98.4734C12.2721 98.4734 11.9082 98.3759 11.5873 98.1906C11.0174 97.874 11.0174 97.3464 11.5873 97.0086C11.9131 96.8385 12.2751 96.7496 12.6426 96.7496C13.0101 96.7496 13.3722 96.8385 13.698 97.0086Z" fill="#16110D"/>
<path d="M72.4794 63.0895C72.5989 63.1354 72.7016 63.2165 72.7741 63.322C72.8465 63.4275 72.8853 63.5525 72.8853 63.6805C72.8853 63.8085 72.8465 63.9335 72.7741 64.039C72.7016 64.1445 72.5989 64.2255 72.4794 64.2715C72.1526 64.4383 71.791 64.5252 71.4241 64.5252C71.0572 64.5252 70.6956 64.4383 70.3688 64.2715L72.4794 63.0895Z" fill="#16110D"/>
<path d="M55.5521 62.1186V46.4781L76.4265 58.5304V74.0864L55.5521 62.1186Z" fill="#FFBE2E"/>
<path d="M55.5521 46.4781L74.6324 35.5234L95.4856 47.5757L76.4265 58.5303L55.5521 46.4781Z" fill="#FFBE2E"/>
<path d="M55.8687 51.5861L74.6323 40.8214L95.4855 52.8525L76.2575 63.3217L55.8687 51.5861Z" fill="#FFEECC"/>
<path d="M74.6325 34.5104L54.6869 45.9716V62.5619L76.4476 75.1206L96.3932 63.6383V47.0481L74.6325 34.5104ZM75.54 72.5034L56.4387 61.4643V47.9979L75.54 59.037V72.5034ZM57.283 46.4782L74.5903 36.5367L93.6916 47.5757L76.3843 57.4961L57.283 46.4782Z" fill="#16110D"/>
<path d="M28.1769 78.1178V11.9889L49.03 24.02V90.17L28.1769 78.1178Z" fill="#FFBE2E"/>
<path d="M28.1769 11.9891L47.236 1.03442L68.1103 13.0655L49.0301 24.0202L28.1769 11.9891Z" fill="#FFBE2E"/>
<path d="M28.4725 17.0969L47.2362 6.31116L68.1105 18.3634L48.8613 28.8326L28.4725 17.0969Z" fill="#FFEECC"/>
<path d="M47.2361 0L27.2905 11.4612V78.6244L49.0302 91.1832L68.9758 79.722V12.5588L47.2361 0ZM48.1648 88.6503L29.0635 77.6323V13.5719L48.1648 24.611V88.6503ZM29.95 12.01L47.2361 2.06851L66.232 13.0865L48.9458 23.028L29.95 12.01Z" fill="#16110D"/>
<path d="M0.88623 93.336V71.5745L21.7605 83.6267V105.388L0.88623 93.336Z" fill="#FFBE2E"/>
<path d="M0.88623 71.5746L19.9454 60.62L40.8196 72.6722L21.7605 83.6269L0.88623 71.5746Z" fill="#FFBE2E"/>
<path d="M1.18176 76.6825L19.9454 65.9178L40.8197 77.9701L21.5917 88.4181L1.18176 76.6825Z" fill="#FFEECC"/>
<path d="M19.9667 59.6068L0 71.068V93.7794L21.7607 106.444L41.7063 94.9825V72.1656L19.9667 59.6068ZM20.8743 103.932L1.77293 92.8929V73.0943L20.8743 84.1334V103.932ZM2.6594 71.6379L19.9456 61.6964L39.0469 72.6722L21.7607 82.6137L2.6594 71.6379Z" fill="#16110D"/>
<path d="M58.9081 27.9037L60.8499 26.785V53.8867L58.1061 55.4697V32.5684C57.7839 33.2177 57.3478 33.804 56.8186 34.2992C56.3358 34.798 55.7893 35.2309 55.1934 35.5867V33.4338C56.0194 32.7808 56.7325 31.9964 57.304 31.112C58.01 30.1372 58.5519 29.0535 58.9081 27.9037Z" fill="#FFEECC"/>
</svg>
