<svg width="91" height="71" viewBox="0 0 91 71" fill="none" xmlns="http://www.w3.org/2000/svg">
<path d="M6.81823 70.2905C5.58888 70.2905 4.38721 69.926 3.36504 69.243C2.34287 68.56 1.54606 67.5892 1.07561 66.4535C0.605157 65.3177 0.482167 64.0679 0.722001 62.8622C0.961836 61.6565 1.55376 60.5489 2.42304 59.6797C3.29232 58.8104 4.39992 58.2184 5.60565 57.9786C6.81138 57.7387 8.06107 57.8619 9.19685 58.3323C10.3326 58.8028 11.3033 59.5994 11.9863 60.6216C12.6693 61.6438 13.034 62.8455 13.034 64.0749C13.034 65.7234 12.3791 67.3044 11.2134 68.47C10.0477 69.6357 8.46673 70.2905 6.81823 70.2905ZM6.81823 60.2047C6.05278 60.2047 5.30454 60.4317 4.66809 60.857C4.03165 61.2822 3.53556 61.8866 3.24264 62.5938C2.94971 63.301 2.87312 64.0791 3.02246 64.8299C3.17179 65.5806 3.54031 66.2702 4.08156 66.8114C4.62281 67.3527 5.31246 67.7213 6.0632 67.8706C6.81393 68.02 7.59205 67.9433 8.29923 67.6504C9.00641 67.3574 9.61094 66.8614 10.0362 66.225C10.4615 65.5885 10.6884 64.8403 10.6884 64.0749C10.701 63.5588 10.61 63.0454 10.4212 62.5649C10.2323 62.0845 9.94917 61.6467 9.58854 61.2773C9.2279 60.908 8.79704 60.6145 8.32127 60.4142C7.8455 60.2138 7.33446 60.1107 6.81823 60.1109V60.2047Z" fill="black"/>
<path d="M10.6414 70.2907H3.0184C2.39632 70.2907 1.79976 70.0436 1.35988 69.6037C0.920005 69.1638 0.672852 68.5673 0.672852 67.9452V60.2987C0.672852 59.6766 0.920005 59.08 1.35988 58.6402C1.79976 58.2003 2.39632 57.9531 3.0184 57.9531H10.6649C11.287 57.9531 11.8836 58.2003 12.3234 58.6402C12.7633 59.08 13.0105 59.6766 13.0105 60.2987V67.9452C13.0105 68.2552 12.949 68.5621 12.8297 68.8483C12.7103 69.1344 12.5354 69.394 12.3151 69.6121C12.0948 69.8302 11.8335 70.0025 11.5462 70.1189C11.2589 70.2354 10.9514 70.2938 10.6414 70.2907ZM2.99492 60.2049V67.8983H10.6884V60.2518L2.99492 60.2049Z" fill="black"/>
<path d="M65.5273 50.8926C64.2923 50.8973 63.0838 50.5353 62.0547 49.8526C61.0255 49.1698 60.2222 48.197 59.7463 47.0574C59.2705 45.9177 59.1436 44.6625 59.3817 43.4507C59.6198 42.2389 60.2121 41.125 61.0837 40.25C61.9554 39.3751 63.067 38.7786 64.2779 38.5359C65.4889 38.2933 66.7446 38.4155 67.886 38.887C69.0275 39.3585 70.0032 40.1582 70.6898 41.1847C71.3764 42.2113 71.7429 43.4185 71.7429 44.6535C71.7368 46.3023 71.0807 47.8821 69.9171 49.0502C68.7534 50.2182 67.1761 50.8803 65.5273 50.8926ZM65.5273 40.7833C64.7552 40.7787 63.9992 41.0036 63.3553 41.4297C62.7114 41.8557 62.2087 42.4636 61.9111 43.176C61.6135 43.8885 61.5344 44.6732 61.6839 45.4307C61.8334 46.1882 62.2048 46.8841 62.7507 47.43C63.2966 47.9759 63.9925 48.3473 64.7499 48.4968C65.5074 48.6463 66.2923 48.5672 67.0047 48.2696C67.7171 47.972 68.325 47.4693 68.751 46.8254C69.1771 46.1816 69.402 45.4255 69.3974 44.6535C69.3912 43.6289 68.9816 42.6481 68.2571 41.9236C67.5326 41.1991 66.5518 40.7895 65.5273 40.7833Z" fill="#150035"/>
<path d="M69.3507 50.8928H61.6572C61.0351 50.8928 60.4386 50.6456 59.9987 50.2057C59.5588 49.7658 59.3116 49.1693 59.3116 48.5472V40.9242C59.3116 40.3021 59.5588 39.7054 59.9987 39.2656C60.4386 38.8257 61.0351 38.5786 61.6572 38.5786H69.3037C69.9258 38.5786 70.5224 38.8257 70.9622 39.2656C71.4021 39.7054 71.6493 40.3021 71.6493 40.9242V48.5472C71.6494 49.1612 71.4088 49.7508 70.979 50.1893C70.5492 50.6279 69.9646 50.8805 69.3507 50.8928ZM61.6572 40.7834V48.4768H69.374V40.8538L61.6572 40.7834Z" fill="#150035"/>
<path d="M30.5317 70.2905H22.9791C22.357 70.2905 21.7605 70.0434 21.3206 69.6035C20.8807 69.1636 20.6335 68.567 20.6335 67.945V60.2047C20.6335 59.5826 20.8807 58.986 21.3206 58.5461C21.7605 58.1062 22.357 57.8591 22.9791 57.8591H30.5317C31.1538 57.8591 31.7505 58.1062 32.1904 58.5461C32.6302 58.986 32.8772 59.5826 32.8772 60.2047V67.7574C32.9032 68.0808 32.8618 68.4061 32.7556 68.7127C32.6494 69.0193 32.4808 69.3005 32.2604 69.5386C32.0399 69.7766 31.7724 69.9664 31.4748 70.0958C31.1773 70.2253 30.8562 70.2916 30.5317 70.2905ZM22.9791 60.2047V67.8511H30.6256V60.2047H22.9791Z" fill="black"/>
<path d="M45.9889 50.8926C44.7549 50.8926 43.5486 50.5267 42.5226 49.8411C41.4965 49.1556 40.6969 48.1812 40.2247 47.0411C39.7525 45.9011 39.6289 44.6465 39.8696 43.4362C40.1104 42.226 40.7046 41.1142 41.5771 40.2417C42.4497 39.3691 43.5615 38.7749 44.7718 38.5342C45.982 38.2935 47.2365 38.417 48.3766 38.8892C49.5166 39.3615 50.4911 40.1612 51.1766 41.1872C51.8622 42.2132 52.228 43.4195 52.228 44.6535C52.228 46.3082 51.5708 47.8951 50.4007 49.0652C49.2306 50.2353 47.6436 50.8926 45.9889 50.8926ZM45.9889 40.7833C45.2178 40.7833 44.4641 41.0123 43.8233 41.4412C43.1825 41.87 42.6834 42.4795 42.3894 43.1924C42.0954 43.9052 42.0198 44.6892 42.172 45.4451C42.3241 46.2011 42.6972 46.8948 43.2441 47.4384C43.791 47.982 44.4869 48.351 45.2438 48.4986C46.0006 48.6461 46.7842 48.5657 47.4953 48.2674C48.2063 47.9691 48.8128 47.4664 49.2378 46.823C49.6628 46.1796 49.8871 45.4245 49.8825 44.6535C49.8825 44.1433 49.7817 43.638 49.5857 43.167C49.3897 42.6959 49.1026 42.2682 48.7408 41.9085C48.3789 41.5488 47.9495 41.2643 47.4772 41.0712C47.005 40.878 46.4991 40.7802 45.9889 40.7833Z" fill="black"/>
<path d="M84.7608 50.8926C83.5268 50.8926 82.3206 50.5267 81.2946 49.8411C80.2685 49.1556 79.4688 48.1812 78.9965 47.0411C78.5243 45.9011 78.4008 44.6465 78.6415 43.4362C78.8822 42.226 79.4766 41.1142 80.3491 40.2417C81.2217 39.3691 82.3333 38.7749 83.5436 38.5342C84.7539 38.2935 86.0083 38.417 87.1484 38.8892C88.2885 39.3615 89.2629 40.1612 89.9485 41.1872C90.6341 42.2132 91 43.4195 91 44.6535C91 46.3082 90.3426 47.8951 89.1726 49.0652C88.0025 50.2353 86.4155 50.8926 84.7608 50.8926ZM84.7608 40.7833C83.9897 40.7833 83.236 41.0123 82.5952 41.4412C81.9544 41.87 81.4554 42.4795 81.1614 43.1924C80.8674 43.9052 80.7917 44.6892 80.9438 45.4451C81.096 46.2011 81.4692 46.8948 82.0161 47.4384C82.563 47.982 83.2589 48.351 84.0158 48.4986C84.7726 48.6461 85.5561 48.5657 86.2671 48.2674C86.9782 47.9691 87.5847 47.4664 88.0097 46.823C88.4347 46.1796 88.6591 45.4245 88.6545 44.6535C88.6545 44.1433 88.5535 43.638 88.3575 43.167C88.1616 42.6959 87.8745 42.2682 87.5126 41.9085C87.1507 41.5488 86.7213 41.2643 86.2491 41.0712C85.7768 40.878 85.271 40.7802 84.7608 40.7833Z" fill="black"/>
<path d="M69.3507 70.2907H61.6572C61.0351 70.2907 60.4386 70.0436 59.9987 69.6037C59.5588 69.1638 59.3116 68.5673 59.3116 67.9452V60.2987C59.3116 59.6766 59.5588 59.08 59.9987 58.6402C60.4386 58.2003 61.0351 57.9531 61.6572 57.9531H69.3037C69.9258 57.9531 70.5224 58.2003 70.9622 58.6402C71.4021 59.08 71.6493 59.6766 71.6493 60.2987V67.9452C71.6494 68.5592 71.4088 69.1488 70.979 69.5874C70.5492 70.0259 69.9646 70.2785 69.3507 70.2907ZM61.7042 60.2049V67.8983H69.421V60.2518L61.7042 60.2049Z" fill="#150035"/>
<path d="M85.9336 58.938H83.588V69.0473H85.9336V58.938Z" fill="#150035"/>
<path d="M89.8272 62.8083H79.7179V65.1539H89.8272V62.8083Z" fill="#150035"/>
<path d="M69.3507 32.5973H61.6572C61.0351 32.5973 60.4386 32.3503 59.9987 31.9104C59.5588 31.4705 59.3116 30.8739 59.3116 30.2518V22.6288C59.3116 22.0067 59.5588 21.4101 59.9987 20.9702C60.4386 20.5304 61.0351 20.2832 61.6572 20.2832H69.3037C69.9258 20.2832 70.5224 20.5304 70.9622 20.9702C71.4021 21.4101 71.6493 22.0067 71.6493 22.6288V30.2518C71.6494 30.8658 71.4088 31.4554 70.979 31.894C70.5492 32.3325 69.9646 32.5851 69.3507 32.5973ZM61.6572 22.488V30.1814H69.374V22.5584L61.6572 22.488Z" fill="#150035"/>
<path d="M84.7608 13.27C83.5324 13.2654 82.3331 12.8969 81.314 12.2111C80.295 11.5253 79.5019 10.5529 79.0351 9.41675C78.5682 8.28058 78.4484 7.03152 78.6909 5.82734C78.9334 4.62316 79.5272 3.51783 80.3974 2.65089C81.2676 1.78395 82.3752 1.1943 83.5803 0.956363C84.7854 0.718423 86.0339 0.842845 87.1683 1.31398C88.3027 1.78511 89.2721 2.58183 89.9541 3.60348C90.6361 4.62513 91 5.82596 91 7.05431C91 7.87254 90.8384 8.68271 90.5246 9.43837C90.2108 10.194 89.7508 10.8803 89.1712 11.4578C88.5915 12.0353 87.9035 12.4926 87.1467 12.8036C86.3899 13.1146 85.579 13.2731 84.7608 13.27ZM84.7608 3.18416C83.9964 3.1888 83.2504 3.41965 82.6171 3.84771C81.9837 4.27578 81.4914 4.88184 81.2021 5.58941C80.9128 6.29699 80.8394 7.0744 80.9914 7.82358C81.1433 8.57277 81.5137 9.26015 82.0559 9.79906C82.5981 10.338 83.2877 10.7043 84.0378 10.8517C84.7879 10.9992 85.5649 10.9211 86.2707 10.6275C86.9765 10.3339 87.5796 9.83793 88.0038 9.20201C88.428 8.56608 88.6545 7.81875 88.6545 7.05431C88.6545 6.54409 88.5535 6.03888 88.3576 5.56779C88.1616 5.09671 87.8745 4.66902 87.5126 4.30934C87.1508 3.94965 86.7214 3.6651 86.2491 3.47199C85.7768 3.27888 85.271 3.18107 84.7608 3.18416Z" fill="#150035"/>
<path d="M47.1617 21.3152H44.8162V31.4245H47.1617V21.3152Z" fill="black"/>
<path d="M51.0552 25.2092H40.9459V27.5548H51.0552V25.2092Z" fill="black"/>
<path d="M85.9336 21.3152H83.588V31.4245H85.9336V21.3152Z" fill="#150035"/>
<path d="M89.8272 25.2092H79.7179V27.5548H89.8272V25.2092Z" fill="#150035"/>
</svg>
