<svg width="449" height="70" viewBox="0 0 449 70" fill="none" xmlns="http://www.w3.org/2000/svg">
<path d="M442.876 69.8065C444.088 69.8065 445.273 69.4399 446.281 68.7533C447.288 68.0667 448.073 67.0909 448.536 65.9495C448.999 64.8081 449.119 63.5524 448.881 62.3415C448.642 61.1306 448.057 60.0189 447.198 59.1473C446.339 58.2756 445.246 57.6832 444.056 57.4452C442.867 57.2071 441.635 57.334 440.516 57.8099C439.398 58.2857 438.443 59.089 437.772 60.1181C437.102 61.1472 436.747 62.3558 436.752 63.5908C436.752 64.409 436.91 65.2192 437.218 65.9748C437.526 66.7305 437.978 67.4168 438.547 67.9943C439.116 68.5717 439.791 69.0291 440.534 69.34C441.277 69.651 442.073 69.8095 442.876 69.8065ZM442.876 59.6971C443.632 59.6971 444.371 59.9255 444.999 60.3533C445.628 60.7812 446.117 61.3893 446.407 62.1007C446.696 62.8122 446.772 63.5951 446.624 64.3504C446.477 65.1057 446.113 65.7994 445.578 66.344C445.044 66.8885 444.363 67.2593 443.621 67.4095C442.88 67.5598 442.112 67.4827 441.413 67.188C440.715 66.8933 440.118 66.3942 439.698 65.7539C439.278 65.1136 439.054 64.3609 439.054 63.5908C439.054 62.5581 439.457 61.5678 440.173 60.8376C440.89 60.1074 441.862 59.6971 442.876 59.6971Z" fill="#150035"/>
<path d="M385.939 69.8067C387.155 69.8254 388.349 69.4747 389.368 68.7995C390.388 68.1243 391.187 67.1552 391.664 66.0155C392.141 64.8758 392.274 63.6173 392.047 62.4002C391.819 61.1832 391.241 60.0627 390.386 59.1817C389.531 58.3007 388.438 57.6989 387.246 57.4531C386.054 57.2073 384.817 57.3287 383.693 57.8016C382.569 58.2746 381.609 59.0778 380.934 60.1088C380.26 61.1399 379.902 62.3521 379.907 63.5911C379.906 65.2274 380.54 66.7979 381.669 67.9615C382.798 69.1252 384.333 69.7882 385.939 69.8067ZM385.939 59.6974C386.698 59.6788 387.446 59.8912 388.087 60.3075C388.727 60.7239 389.231 61.3252 389.535 62.0348C389.838 62.7444 389.927 63.5301 389.79 64.2915C389.653 65.0528 389.297 65.7554 388.766 66.3093C388.235 66.8633 387.555 67.2436 386.811 67.4016C386.067 67.5596 385.294 67.4881 384.59 67.1964C383.887 66.9046 383.284 66.4058 382.86 65.7637C382.436 65.1215 382.209 64.3651 382.209 63.5911C382.209 62.5745 382.599 61.5981 383.296 60.8705C383.993 60.1429 384.941 59.7219 385.939 59.6974Z" fill="#150035"/>
<path d="M401.065 69.8066H408.548C409.158 69.8066 409.744 69.5595 410.176 69.1196C410.608 68.6797 410.85 68.0831 410.85 67.4611V59.8145C410.85 59.1925 410.608 58.5959 410.176 58.156C409.744 57.7161 409.158 57.469 408.548 57.469H401.065C400.455 57.469 399.869 57.7161 399.437 58.156C399.005 58.5959 398.763 59.1925 398.763 59.8145V67.4611C398.763 68.0831 399.005 68.6797 399.437 69.1196C399.869 69.5595 400.455 69.8066 401.065 69.8066ZM408.548 59.6973V67.4142H400.996V59.7677L408.548 59.6973Z" fill="#150035"/>
<path d="M382.209 69.8066H389.668C390.279 69.8066 390.865 69.5595 391.296 69.1196C391.728 68.6797 391.971 68.0831 391.971 67.4611V59.8145C391.971 59.1925 391.728 58.5959 391.296 58.156C390.865 57.7161 390.279 57.469 389.668 57.469H382.209C381.598 57.469 381.013 57.7161 380.581 58.156C380.149 58.5959 379.907 59.1925 379.907 59.8145V67.4611C379.907 68.0831 380.149 68.6797 380.581 69.1196C381.013 69.5595 381.598 69.8066 382.209 69.8066ZM389.692 59.6973V67.4142H382.14V59.7677L389.692 59.6973Z" fill="#150035"/>
<path d="M328.311 50.5262C329.522 50.5262 330.706 50.1602 331.713 49.4747C332.721 48.7891 333.505 47.8147 333.969 46.6747C334.433 45.5346 334.554 44.2801 334.318 43.0698C334.081 41.8595 333.498 40.7479 332.641 39.8753C331.785 39.0027 330.694 38.4085 329.506 38.1677C328.318 37.927 327.086 38.0506 325.967 38.5228C324.848 38.995 323.892 39.7947 323.219 40.8207C322.546 41.8468 322.187 43.053 322.187 44.287C322.187 45.1064 322.345 45.9177 322.653 46.6747C322.961 47.4316 323.412 48.1194 323.98 48.6988C324.549 49.2782 325.224 49.7377 325.967 50.0512C326.71 50.3648 327.507 50.5262 328.311 50.5262ZM328.311 40.4169C329.068 40.4169 329.808 40.6458 330.437 41.0747C331.066 41.5036 331.555 42.1131 331.844 42.8259C332.133 43.5387 332.207 44.3228 332.058 45.0788C331.908 45.8347 331.542 46.5284 331.005 47.072C330.468 47.6156 329.785 47.9845 329.042 48.1321C328.299 48.2797 327.53 48.1992 326.832 47.9009C326.134 47.6026 325.539 47.0999 325.122 46.4565C324.705 45.8132 324.484 45.0581 324.489 44.287C324.486 43.7748 324.583 43.2671 324.774 42.7933C324.965 42.3195 325.246 41.889 325.602 41.5269C325.957 41.1647 326.38 40.878 326.845 40.6834C327.31 40.4889 327.808 40.3903 328.311 40.3934V40.4169Z" fill="black"/>
<path d="M324.65 50.5261H332.041C332.651 50.5261 333.237 50.279 333.669 49.8391C334.101 49.3992 334.343 48.8026 334.343 48.1806V40.4403C334.343 39.8182 334.101 39.2216 333.669 38.7817C333.237 38.3418 332.651 38.0947 332.041 38.0947H324.65C324.04 38.0947 323.454 38.3418 323.022 38.7817C322.59 39.2216 322.348 39.8182 322.348 40.4403V48.1806C322.348 48.8026 322.59 49.3992 323.022 49.8391C323.454 50.279 324.04 50.5261 324.65 50.5261ZM332.133 40.4168V48.1102L324.65 48.1806V40.4403L332.133 40.4168Z" fill="black"/>
<path d="M439.123 50.5261H446.674C447.285 50.5261 447.87 50.279 448.302 49.8391C448.734 49.3992 448.977 48.8026 448.977 48.1806V40.4403C448.977 39.8182 448.734 39.2216 448.302 38.7817C447.87 38.3418 447.285 38.0947 446.674 38.0947H439.123C438.512 38.0947 437.926 38.3418 437.495 38.7817C437.063 39.2216 436.82 39.8182 436.82 40.4403V48.1806C436.82 48.8026 437.063 49.3992 437.495 49.8391C437.926 50.279 438.512 50.5261 439.123 50.5261ZM446.674 40.3933V48.1806H439.123V40.4403L446.674 40.3933Z" fill="#150035"/>
<path d="M385.939 50.5264C387.153 50.545 388.345 50.1956 389.363 49.5224C390.382 48.8493 391.181 47.8829 391.66 46.746C392.138 45.6091 392.274 44.353 392.05 43.1372C391.826 41.9215 391.252 40.801 390.402 39.9181C389.552 39.0352 388.463 38.4298 387.274 38.1787C386.085 37.9276 384.85 38.0422 383.725 38.508C382.6 38.9737 381.637 39.7696 380.957 40.7944C380.277 41.8193 379.911 43.0268 379.907 44.2638C379.9 45.9064 380.53 47.4853 381.66 48.6578C382.789 49.8303 384.327 50.5017 385.939 50.5264ZM385.939 40.4171C386.7 40.3985 387.45 40.6121 388.091 41.0305C388.733 41.4489 389.237 42.0531 389.539 42.7655C389.841 43.4779 389.927 44.2659 389.787 45.0286C389.646 45.7913 389.285 46.4937 388.75 47.0458C388.214 47.5979 387.529 47.9745 386.782 48.1271C386.036 48.2798 385.261 48.2016 384.558 47.9026C383.855 47.6037 383.256 47.0975 382.837 46.4491C382.419 45.8008 382.2 45.0397 382.209 44.2638C382.209 43.2494 382.6 42.2756 383.297 41.5518C383.995 40.828 384.943 40.4121 385.939 40.3936V40.4171Z" fill="#150035"/>
<path d="M403.667 39.2205H405.969V49.3298H403.667V39.2205Z" fill="#150035"/>
<path d="M399.845 43.0911H409.768V45.4366H399.845V43.0911Z" fill="#150035"/>
<path d="M422.822 58.5244H425.125V68.6337H422.822V58.5244Z" fill="#150035"/>
<path d="M419.024 62.4182H428.947V64.7638H419.024V62.4182Z" fill="#150035"/>
<path d="M362.639 69.8068H370.075C370.686 69.8068 371.272 69.5596 371.703 69.1197C372.135 68.6799 372.378 68.0833 372.378 67.4612V59.9085C372.378 59.2865 372.135 58.6899 371.703 58.25C371.272 57.8101 370.686 57.563 370.075 57.563H362.639C362.028 57.563 361.443 57.8101 361.011 58.25C360.579 58.6899 360.336 59.2865 360.336 59.9085V67.4847C360.342 68.1027 360.588 68.6933 361.019 69.1281C361.45 69.5629 362.032 69.8068 362.639 69.8068ZM370.075 59.6974V67.3674H362.547V59.9085L370.075 59.6974Z" fill="#150035"/>
<path d="M324.65 69.8066H332.041C332.651 69.8066 333.237 69.5595 333.669 69.1196C334.101 68.6797 334.343 68.0831 334.343 67.4611V59.8145C334.343 59.1925 334.101 58.5959 333.669 58.156C333.237 57.7161 332.651 57.469 332.041 57.469H324.65C324.04 57.469 323.454 57.7161 323.022 58.156C322.59 58.5959 322.348 59.1925 322.348 59.8145V67.4611C322.348 68.0831 322.59 68.6797 323.022 69.1196C323.454 69.5595 324.04 69.8066 324.65 69.8066ZM332.133 59.6973V67.4142H324.581V59.7677L332.133 59.6973Z" fill="black"/>
<path d="M309.409 50.5261C310.621 50.5308 311.807 50.1688 312.817 49.4861C313.828 48.8033 314.616 47.8306 315.083 46.6909C315.55 45.5513 315.675 44.296 315.441 43.0842C315.207 41.8724 314.626 40.7585 313.77 39.8835C312.915 39.0086 311.824 38.4121 310.635 38.1695C309.446 37.9268 308.214 38.049 307.093 38.5205C305.973 38.992 305.015 39.7917 304.341 40.8182C303.667 41.8448 303.308 43.052 303.308 44.287C303.314 45.9357 303.958 47.5156 305.1 48.6836C306.242 49.8517 307.79 50.5138 309.409 50.5261ZM309.409 40.4168C310.167 40.4122 310.909 40.6371 311.541 41.0632C312.173 41.4892 312.666 42.0971 312.958 42.8095C313.25 43.522 313.328 44.3068 313.181 45.0643C313.035 45.8217 312.67 46.5176 312.134 47.0636C311.598 47.6095 310.915 47.9808 310.172 48.1303C309.428 48.2797 308.658 48.2007 307.959 47.9031C307.259 47.6055 306.663 47.1028 306.244 46.4589C305.826 45.815 305.605 45.059 305.61 44.287C305.607 43.7768 305.703 43.271 305.892 42.7987C306.082 42.3265 306.361 41.8971 306.714 41.5352C307.067 41.1733 307.487 40.8861 307.95 40.6902C308.412 40.4942 308.908 40.3933 309.409 40.3933V40.4168Z" fill="black"/>
<path d="M365.195 39.2205H367.497V49.3298H365.195V39.2205Z" fill="#150035"/>
<path d="M361.396 43.0911H371.319V45.4366H361.396V43.0911Z" fill="#150035"/>
<path d="M346.315 58.5244H348.618V68.6337H346.315V58.5244Z" fill="black"/>
<path d="M342.516 62.4182H352.44V64.7638H342.516V62.4182Z" fill="black"/>
<path d="M308.257 58.5244H310.56V68.6337H308.257V58.5244Z" fill="black"/>
<path d="M304.459 62.4182H314.382V64.7638H304.459V62.4182Z" fill="black"/>
<path d="M291.013 69.8065C292.225 69.8065 293.41 69.4399 294.418 68.7533C295.425 68.0667 296.21 67.0909 296.673 65.9495C297.136 64.8081 297.256 63.5524 297.018 62.3415C296.78 61.1306 296.194 60.0189 295.335 59.1473C294.477 58.2756 293.383 57.6832 292.194 57.4452C291.004 57.2071 289.772 57.334 288.653 57.8099C287.535 58.2857 286.58 59.089 285.91 60.1181C285.24 61.1472 284.884 62.3558 284.889 63.5908C284.889 64.409 285.047 65.2192 285.355 65.9748C285.663 66.7305 286.115 67.4168 286.684 67.9943C287.253 68.5717 287.928 69.0291 288.671 69.34C289.414 69.651 290.21 69.8095 291.013 69.8065ZM291.013 59.6971C291.769 59.6971 292.508 59.9255 293.136 60.3533C293.765 60.7812 294.255 61.3893 294.544 62.1007C294.833 62.8122 294.909 63.5951 294.761 64.3504C294.614 65.1057 294.25 65.7994 293.715 66.344C293.181 66.8885 292.5 67.2593 291.759 67.4095C291.017 67.5598 290.249 67.4827 289.55 67.188C288.852 66.8933 288.255 66.3942 287.835 65.7539C287.415 65.1136 287.191 64.3609 287.191 63.5908C287.191 62.5581 287.594 61.5678 288.311 60.8376C289.027 60.1074 289.999 59.6971 291.013 59.6971Z" fill="black"/>
<path d="M272.134 50.5262C273.345 50.5262 274.529 50.1602 275.536 49.4747C276.543 48.7891 277.328 47.8147 277.792 46.6747C278.255 45.5346 278.376 44.2801 278.14 43.0698C277.904 41.8595 277.321 40.7479 276.464 39.8753C275.608 39.0027 274.516 38.4085 273.328 38.1677C272.14 37.927 270.909 38.0506 269.79 38.5228C268.671 38.995 267.714 39.7947 267.041 40.8207C266.369 41.8468 266.009 43.053 266.009 44.287C266.009 45.1064 266.168 45.9177 266.476 46.6747C266.783 47.4316 267.234 48.1194 267.803 48.6988C268.372 49.2782 269.047 49.7377 269.79 50.0512C270.533 50.3648 271.329 50.5262 272.134 50.5262ZM272.134 40.4169C272.89 40.4169 273.63 40.6458 274.259 41.0747C274.888 41.5036 275.378 42.1131 275.667 42.8259C275.955 43.5387 276.03 44.3228 275.88 45.0788C275.731 45.8347 275.365 46.5284 274.828 47.072C274.291 47.6156 273.608 47.9845 272.865 48.1321C272.122 48.2797 271.353 48.1992 270.655 47.9009C269.957 47.6026 269.362 47.0999 268.945 46.4565C268.527 45.8132 268.307 45.0581 268.312 44.287C268.309 43.7748 268.405 43.2671 268.596 42.7933C268.787 42.3195 269.069 41.889 269.424 41.5269C269.78 41.1647 270.202 40.878 270.667 40.6834C271.132 40.4889 271.631 40.3903 272.134 40.3934V40.4169Z" fill="black"/>
<path d="M234.076 69.8065C235.288 69.8065 236.473 69.4399 237.481 68.7533C238.489 68.0667 239.273 67.0909 239.736 65.9495C240.199 64.8081 240.319 63.5524 240.081 62.3415C239.843 61.1306 239.257 60.0189 238.398 59.1473C237.54 58.2756 236.446 57.6832 235.257 57.4452C234.067 57.2071 232.835 57.334 231.716 57.8099C230.598 58.2857 229.643 59.089 228.973 60.1181C228.303 61.1472 227.947 62.3558 227.952 63.5908C227.952 64.409 228.11 65.2192 228.418 65.9748C228.727 66.7305 229.178 67.4168 229.747 67.9943C230.316 68.5717 230.991 69.0291 231.734 69.34C232.477 69.651 233.273 69.8095 234.076 69.8065ZM234.076 59.6971C234.832 59.6971 235.571 59.9255 236.199 60.3533C236.828 60.7812 237.318 61.3893 237.607 62.1007C237.896 62.8122 237.972 63.5951 237.825 64.3504C237.677 65.1057 237.313 65.7994 236.779 66.344C236.244 66.8885 235.563 67.2593 234.822 67.4095C234.08 67.5598 233.312 67.4827 232.614 67.188C231.915 66.8933 231.318 66.3942 230.898 65.7539C230.478 65.1136 230.254 64.3609 230.254 63.5908C230.254 62.5581 230.657 61.5678 231.374 60.8376C232.09 60.1074 233.062 59.6971 234.076 59.6971Z" fill="black"/>
<path d="M249.202 69.8066H256.708C257.319 69.8066 257.904 69.5595 258.336 69.1196C258.768 68.6797 259.01 68.0831 259.01 67.4611V59.8145C259.01 59.1925 258.768 58.5959 258.336 58.156C257.904 57.7161 257.319 57.469 256.708 57.469H249.202C248.592 57.469 248.006 57.7161 247.574 58.156C247.143 58.5959 246.9 59.1925 246.9 59.8145V67.4611C246.9 67.7691 246.96 68.0741 247.075 68.3587C247.191 68.6433 247.361 68.9018 247.574 69.1196C247.788 69.3374 248.042 69.5102 248.321 69.6281C248.601 69.746 248.9 69.8066 249.202 69.8066ZM256.708 59.6973V67.4142H249.156V59.7677L256.708 59.6973Z" fill="black"/>
<path d="M230.254 69.8066H237.829C238.439 69.8066 239.025 69.5595 239.457 69.1196C239.888 68.6797 240.131 68.0831 240.131 67.4611V59.8145C240.131 59.1925 239.888 58.5959 239.457 58.156C239.025 57.7161 238.439 57.469 237.829 57.469H230.254C229.643 57.469 229.058 57.7161 228.626 58.156C228.194 58.5959 227.952 59.1925 227.952 59.8145V67.4611C227.952 68.0831 228.194 68.6797 228.626 69.1196C229.058 69.5595 229.643 69.8066 230.254 69.8066ZM237.76 59.6973V67.4142H230.208V59.7677L237.76 59.6973Z" fill="black"/>
<path d="M176.448 50.5262C177.659 50.5262 178.843 50.1602 179.851 49.4747C180.858 48.7891 181.643 47.8147 182.106 46.6747C182.57 45.5346 182.691 44.2801 182.455 43.0698C182.218 41.8595 181.635 40.7479 180.779 39.8753C179.922 39.0027 178.831 38.4085 177.643 38.1677C176.455 37.927 175.224 38.0506 174.104 38.5228C172.985 38.995 172.029 39.7947 171.356 40.8207C170.683 41.8468 170.324 43.053 170.324 44.287C170.324 45.1064 170.482 45.9177 170.79 46.6747C171.098 47.4316 171.549 48.1194 172.118 48.6988C172.686 49.2782 173.361 49.7377 174.104 50.0512C174.848 50.3648 175.644 50.5262 176.448 50.5262ZM176.448 40.4169C177.408 40.4929 178.304 40.9349 178.957 41.6545C179.611 42.3741 179.974 43.3184 179.974 44.2988C179.974 45.2791 179.611 46.2234 178.957 46.943C178.304 47.6626 177.408 48.1046 176.448 48.1806C175.923 48.2223 175.395 48.1528 174.897 47.9766C174.399 47.8004 173.943 47.5213 173.556 47.1567C173.169 46.7922 172.861 46.3501 172.65 45.8583C172.439 45.3665 172.33 44.8355 172.33 44.2988C172.33 43.762 172.439 43.2311 172.65 42.7392C172.861 42.2474 173.169 41.8053 173.556 41.4408C173.943 41.0762 174.399 40.7971 174.897 40.6209C175.395 40.4447 175.923 40.3752 176.448 40.4169Z" fill="black"/>
<path d="M172.695 50.5261H180.201C180.811 50.5261 181.397 50.279 181.829 49.8391C182.261 49.3992 182.503 48.8026 182.503 48.1806V40.4403C182.503 39.8182 182.261 39.2216 181.829 38.7817C181.397 38.3418 180.811 38.0947 180.201 38.0947H172.695C172.085 38.0947 171.499 38.3418 171.067 38.7817C170.635 39.2216 170.393 39.8182 170.393 40.4403V48.1806C170.393 48.8026 170.635 49.3992 171.067 49.8391C171.499 50.279 172.085 50.5261 172.695 50.5261ZM180.201 40.4168V48.1102H172.649V40.4403L180.201 40.4168Z" fill="black"/>
<path d="M287.26 50.5261H294.72C295.33 50.5261 295.916 50.279 296.348 49.8391C296.779 49.3992 297.022 48.8026 297.022 48.1806V40.4403C297.022 39.8182 296.779 39.2216 296.348 38.7817C295.916 38.3418 295.33 38.0947 294.72 38.0947H287.214C286.603 38.0947 286.018 38.3418 285.586 38.7817C285.154 39.2216 284.912 39.8182 284.912 40.4403V48.1806C284.912 48.4926 284.973 48.8015 285.091 49.0891C285.21 49.3768 285.383 49.6375 285.602 49.8559C285.821 50.0743 286.08 50.2461 286.365 50.3612C286.649 50.4763 286.954 50.5324 287.26 50.5261ZM294.72 40.3933V48.1806H287.168V40.4403L294.72 40.3933Z" fill="black"/>
<path d="M234.076 50.5262C235.286 50.5262 236.47 50.1609 237.476 49.4763C238.483 48.7918 239.268 47.8187 239.732 46.68C240.196 45.5413 240.319 44.2881 240.084 43.0785C239.85 41.8688 239.269 40.757 238.415 39.8835C237.56 39.01 236.471 38.414 235.285 38.1706C234.098 37.9272 232.868 38.0474 231.748 38.5161C230.629 38.9847 229.671 39.7808 228.995 40.8037C228.319 41.8266 227.956 43.0306 227.952 44.2635C227.949 45.0849 228.105 45.8987 228.411 46.6584C228.718 47.4181 229.168 48.1087 229.737 48.6905C230.306 49.2724 230.983 49.734 231.727 50.049C232.472 50.3641 233.27 50.5262 234.076 50.5262ZM234.076 40.4169C235.036 40.4929 235.931 40.9349 236.585 41.6545C237.239 42.3741 237.602 43.3184 237.602 44.2988C237.602 45.2791 237.239 46.2234 236.585 46.943C235.931 47.6626 235.036 48.1046 234.076 48.1806C233.551 48.2223 233.023 48.1528 232.525 47.9766C232.027 47.8004 231.571 47.5213 231.184 47.1568C230.797 46.7922 230.489 46.3501 230.278 45.8583C230.067 45.3665 229.958 44.8355 229.958 44.2988C229.958 43.762 230.067 43.2311 230.278 42.7392C230.489 42.2474 230.797 41.8053 231.184 41.4408C231.571 41.0762 232.027 40.7971 232.525 40.6209C233.023 40.4447 233.551 40.3753 234.076 40.4169Z" fill="black"/>
<path d="M251.804 39.2205H254.106V49.3298H251.804V39.2205Z" fill="black"/>
<path d="M247.982 43.0911H257.905V45.4366H247.982V43.0911Z" fill="black"/>
<path d="M270.982 58.5244H273.285V68.6337H270.982V58.5244Z" fill="black"/>
<path d="M267.161 62.4182H277.084V64.7638H267.161V62.4182Z" fill="black"/>
<path d="M195.719 50.5262C196.93 50.5262 198.114 50.1602 199.121 49.4747C200.128 48.7891 200.913 47.8147 201.377 46.6747C201.84 45.5346 201.962 44.2801 201.725 43.0698C201.489 41.8595 200.906 40.7479 200.049 39.8753C199.193 39.0027 198.101 38.4085 196.913 38.1677C195.725 37.927 194.494 38.0506 193.375 38.5228C192.256 38.995 191.299 39.7947 190.627 40.8207C189.954 41.8468 189.594 43.053 189.594 44.287C189.594 45.1064 189.753 45.9177 190.061 46.6747C190.368 47.4316 190.819 48.1194 191.388 48.6988C191.957 49.2782 192.632 49.7377 193.375 50.0512C194.118 50.3648 194.914 50.5262 195.719 50.5262ZM195.719 40.4169C196.476 40.4169 197.215 40.6458 197.844 41.0747C198.473 41.5036 198.963 42.1131 199.252 42.8259C199.54 43.5387 199.615 44.3228 199.465 45.0788C199.316 45.8347 198.95 46.5284 198.413 47.072C197.876 47.6156 197.193 47.9845 196.45 48.1321C195.707 48.2797 194.938 48.1992 194.24 47.9009C193.542 47.6026 192.947 47.0999 192.53 46.4565C192.112 45.8132 191.892 45.0581 191.897 44.287C191.894 43.7748 191.99 43.2671 192.181 42.7933C192.372 42.3195 192.654 41.889 193.009 41.5269C193.365 41.1647 193.787 40.878 194.252 40.6834C194.718 40.4889 195.216 40.3903 195.719 40.3934V40.4169Z" fill="black"/>
<path d="M172.695 69.8066H180.201C180.811 69.8066 181.397 69.5595 181.829 69.1196C182.261 68.6797 182.503 68.0831 182.503 67.4611V59.8145C182.503 59.1925 182.261 58.5959 181.829 58.156C181.397 57.7161 180.811 57.469 180.201 57.469H172.695C172.085 57.469 171.499 57.7161 171.067 58.156C170.635 58.5959 170.393 59.1925 170.393 59.8145V67.4611C170.393 68.0831 170.635 68.6797 171.067 69.1196C171.499 69.5595 172.085 69.8066 172.695 69.8066ZM180.201 59.6973V67.4142H172.649V59.7677L180.201 59.6973Z" fill="black"/>
<path d="M157.569 50.5262C158.78 50.5262 159.964 50.1602 160.971 49.4747C161.978 48.7891 162.763 47.8147 163.227 46.6747C163.69 45.5346 163.812 44.2801 163.575 43.0698C163.339 41.8595 162.756 40.7479 161.899 39.8753C161.043 39.0027 159.952 38.4085 158.764 38.1677C157.576 37.927 156.344 38.0506 155.225 38.5228C154.106 38.995 153.15 39.7947 152.477 40.8207C151.804 41.8468 151.445 43.053 151.445 44.287C151.445 45.1064 151.603 45.9177 151.911 46.6747C152.219 47.4316 152.67 48.1194 153.238 48.6988C153.807 49.2782 154.482 49.7377 155.225 50.0512C155.968 50.3648 156.765 50.5262 157.569 50.5262ZM157.569 40.4169C158.528 40.4929 159.424 40.9349 160.078 41.6545C160.731 42.3741 161.094 43.3184 161.094 44.2988C161.094 45.2791 160.731 46.2234 160.078 46.943C159.424 47.6626 158.528 48.1046 157.569 48.1806C157.044 48.2223 156.516 48.1528 156.018 47.9766C155.52 47.8004 155.064 47.5213 154.677 47.1567C154.29 46.7922 153.982 46.3501 153.771 45.8583C153.559 45.3665 153.451 44.8355 153.451 44.2988C153.451 43.762 153.559 43.2311 153.771 42.7392C153.982 42.2474 154.29 41.8053 154.677 41.4408C155.064 41.0762 155.52 40.7971 156.018 40.6209C156.516 40.4447 157.044 40.3752 157.569 40.4169Z" fill="black"/>
<path d="M213.355 39.2205H215.657V49.3298H213.355V39.2205Z" fill="black"/>
<path d="M209.533 43.0911H219.456V45.4366H209.533V43.0911Z" fill="black"/>
<path d="M156.418 58.5244H158.72V68.6337H156.418V58.5244Z" fill="black"/>
<path d="M152.596 62.4182H162.519V64.7638H152.596V62.4182Z" fill="black"/>
<path d="M139.15 69.8069C140.363 69.8115 141.551 69.449 142.561 68.7652C143.572 68.0814 144.36 67.1073 144.827 65.9662C145.293 64.8252 145.416 63.5688 145.181 62.3563C144.945 61.1438 144.361 60.03 143.504 59.156C142.646 58.282 141.552 57.6874 140.362 57.4474C139.172 57.2074 137.939 57.3329 136.819 57.808C135.699 58.2831 134.743 59.0865 134.071 60.1161C133.4 61.1457 133.044 62.3552 133.049 63.5912C133.055 65.2378 133.7 66.8152 134.843 67.9795C135.986 69.1438 137.534 69.8007 139.15 69.8069ZM139.15 59.6976C139.675 59.6559 140.203 59.7254 140.701 59.9016C141.199 60.0778 141.655 60.3569 142.042 60.7215C142.429 61.086 142.737 61.5281 142.948 62.0199C143.16 62.5118 143.268 63.0427 143.268 63.5795C143.268 64.1162 143.16 64.6472 142.948 65.139C142.737 65.6308 142.429 66.0729 142.042 66.4375C141.655 66.802 141.199 67.0811 140.701 67.2573C140.203 67.4335 139.675 67.503 139.15 67.4613C138.191 67.3853 137.295 66.9433 136.641 66.2237C135.988 65.5041 135.625 64.5598 135.625 63.5795C135.625 62.5991 135.988 61.6548 136.641 60.9352C137.295 60.2156 138.191 59.7736 139.15 59.6976Z" fill="black"/>
<path d="M120.271 50.5261C121.483 50.5308 122.669 50.1688 123.68 49.4861C124.69 48.8033 125.478 47.8306 125.945 46.6909C126.412 45.5513 126.537 44.296 126.303 43.0842C126.07 41.8724 125.488 40.7585 124.632 39.8835C123.777 39.0086 122.686 38.4121 121.497 38.1695C120.309 37.9268 119.076 38.049 117.956 38.5205C116.835 38.992 115.877 39.7917 115.203 40.8182C114.529 41.8448 114.17 43.052 114.17 44.287C114.17 45.9376 114.812 47.521 115.955 48.6904C117.099 49.8598 118.651 50.5199 120.271 50.5261ZM120.271 40.4168C121.029 40.4122 121.771 40.6371 122.403 41.0632C123.035 41.4892 123.528 42.0971 123.82 42.8095C124.112 43.522 124.19 44.3068 124.043 45.0643C123.897 45.8217 123.532 46.5176 122.996 47.0636C122.46 47.6095 121.777 47.9808 121.034 48.1303C120.29 48.2797 119.52 48.2007 118.821 47.9031C118.121 47.6055 117.525 47.1028 117.106 46.4589C116.688 45.815 116.467 45.059 116.472 44.287C116.469 43.7768 116.565 43.271 116.754 42.7987C116.944 42.3265 117.223 41.8971 117.576 41.5352C117.93 41.1733 118.349 40.8861 118.812 40.6902C119.274 40.4942 119.77 40.3933 120.271 40.3933V40.4168Z" fill="black"/>
<path d="M82.2131 69.8069C83.4263 69.8115 84.6136 69.449 85.6242 68.7652C86.6349 68.0814 87.4234 67.1073 87.8898 65.9662C88.3562 64.8252 88.4794 63.5688 88.2438 62.3563C88.0082 61.1438 87.4245 60.03 86.5666 59.156C85.7087 58.282 84.6154 57.6874 83.4253 57.4474C82.2351 57.2074 81.0019 57.3329 79.8819 57.808C78.7619 58.2831 77.8056 59.0865 77.1344 60.1161C76.4633 61.1457 76.1074 62.3552 76.1119 63.5912C76.118 65.2378 76.7627 66.8152 77.9056 67.9795C79.0485 69.1438 80.5968 69.8007 82.2131 69.8069ZM82.2131 59.6976C82.7384 59.6559 83.2665 59.7254 83.7642 59.9016C84.2618 60.0778 84.7184 60.3569 85.1051 60.7215C85.4918 61.086 85.8004 61.5281 86.0115 62.0199C86.2225 62.5118 86.3314 63.0427 86.3314 63.5795C86.3314 64.1162 86.2225 64.6472 86.0115 65.139C85.8004 65.6308 85.4918 66.0729 85.1051 66.4375C84.7184 66.802 84.2618 67.0811 83.7642 67.2573C83.2665 67.4335 82.7384 67.503 82.2131 67.4613C81.2537 67.3853 80.3577 66.9433 79.7042 66.2237C79.0507 65.5041 78.6877 64.5598 78.6877 63.5795C78.6877 62.5991 79.0507 61.6548 79.7042 60.9352C80.3577 60.2156 81.2537 59.7736 82.2131 59.6976Z" fill="black"/>
<path d="M97.3625 69.8066H104.845C105.456 69.8066 106.041 69.5595 106.473 69.1196C106.905 68.6797 107.147 68.0831 107.147 67.4611V59.8145C107.147 59.1925 106.905 58.5959 106.473 58.156C106.041 57.7161 105.456 57.469 104.845 57.469H97.3625C96.7519 57.469 96.1663 57.7161 95.7345 58.156C95.3027 58.5959 95.0601 59.1925 95.0601 59.8145V67.4611C95.0601 68.0831 95.3027 68.6797 95.7345 69.1196C96.1663 69.5595 96.7519 69.8066 97.3625 69.8066ZM104.845 59.6973V67.4142H97.2934V59.7677L104.845 59.6973Z" fill="black"/>
<path d="M78.4603 69.8066H85.966C86.5766 69.8066 87.1622 69.5595 87.594 69.1196C88.0257 68.6797 88.2683 68.0831 88.2683 67.4611V59.8145C88.2683 59.1925 88.0257 58.5959 87.594 58.156C87.1622 57.7161 86.5766 57.469 85.966 57.469H78.4603C77.8497 57.469 77.2641 57.7161 76.8323 58.156C76.4005 58.5959 76.158 59.1925 76.158 59.8145V67.4611C76.158 68.0831 76.4005 68.6797 76.8323 69.1196C77.2641 69.5595 77.8497 69.8066 78.4603 69.8066ZM85.966 59.6973V67.4142H78.3912V59.7677L85.966 59.6973Z" fill="black"/>
<path d="M135.397 50.5261H142.903C143.513 50.5261 144.099 50.279 144.531 49.8391C144.963 49.3992 145.205 48.8026 145.205 48.1806V40.4403C145.205 39.8182 144.963 39.2216 144.531 38.7817C144.099 38.3418 143.513 38.0947 142.903 38.0947H135.397C134.787 38.0947 134.201 38.3418 133.769 38.7817C133.337 39.2216 133.095 39.8182 133.095 40.4403V48.1806C133.095 48.8026 133.337 49.3992 133.769 49.8391C134.201 50.279 134.787 50.5261 135.397 50.5261ZM142.903 40.4168V48.1102H135.328V40.4403L142.903 40.4168Z" fill="black"/>
<path d="M119.12 58.5244H121.422V68.6337H119.12V58.5244Z" fill="black"/>
<path d="M115.298 62.4182H125.221V64.7638H115.298V62.4182Z" fill="black"/>
<path d="M58.9363 69.8068H66.3499C66.6618 69.8227 66.9736 69.7738 67.2663 69.663C67.5591 69.5523 67.8267 69.382 68.0528 69.1626C68.2789 68.9432 68.4589 68.6793 68.5817 68.3868C68.7046 68.0943 68.7677 67.7794 68.7673 67.4612V59.9085C68.7677 59.5904 68.7046 59.2755 68.5817 58.983C68.4589 58.6905 68.2789 58.4265 68.0528 58.2071C67.8267 57.9877 67.5591 57.8175 67.2663 57.7067C66.9736 57.596 66.6618 57.5471 66.3499 57.563H58.9363C58.3257 57.563 57.7401 57.8101 57.3083 58.25C56.8765 58.6899 56.634 59.2865 56.634 59.9085V67.4847C56.64 68.1027 56.8853 68.6933 57.3164 69.1281C57.7475 69.5629 58.3296 69.8068 58.9363 69.8068ZM66.3499 59.6975L66.465 67.3674H58.9363V59.9085L66.3499 59.6975Z" fill="black"/>
<path d="M43.7639 50.5262C44.9752 50.5262 46.1593 50.1602 47.1664 49.4747C48.1735 48.7891 48.9585 47.8147 49.422 46.6747C49.8855 45.5346 50.0068 44.2801 49.7705 43.0698C49.5342 41.8595 48.9509 40.7479 48.0944 39.8753C47.2379 39.0027 46.1467 38.4085 44.9587 38.1677C43.7707 37.927 42.5393 38.0506 41.4203 38.5228C40.3012 38.995 39.3447 39.7947 38.6718 40.8207C37.9989 41.8468 37.6397 43.053 37.6397 44.287C37.6397 45.1064 37.7981 45.9177 38.1059 46.6747C38.4136 47.4316 38.8648 48.1194 39.4334 48.6988C40.0021 49.2782 40.6773 49.7377 41.4203 50.0512C42.1633 50.3648 42.9597 50.5262 43.7639 50.5262ZM43.7639 40.4169C44.7234 40.4929 45.6193 40.9349 46.2729 41.6545C46.9264 42.3741 47.2894 43.3184 47.2894 44.2988C47.2894 45.2791 46.9264 46.2234 46.2729 46.943C45.6193 47.6626 44.7234 48.1046 43.7639 48.1806C43.2387 48.2223 42.7106 48.1528 42.2129 47.9766C41.7152 47.8004 41.2587 47.5213 40.872 47.1567C40.4852 46.7922 40.1766 46.3501 39.9656 45.8583C39.7546 45.3665 39.6456 44.8355 39.6456 44.2988C39.6456 43.762 39.7546 43.2311 39.9656 42.7392C40.1766 42.2474 40.4852 41.8053 40.872 41.4408C41.2587 41.0762 41.7152 40.7971 42.2129 40.6209C42.7106 40.4447 43.2387 40.3752 43.7639 40.4169Z" fill="black"/>
<path d="M20.7404 69.8066H28.3382C28.9488 69.8066 29.5344 69.5595 29.9662 69.1196C30.3979 68.6797 30.6405 68.0831 30.6405 67.4611V59.8145C30.6405 59.1925 30.3979 58.5959 29.9662 58.156C29.5344 57.7161 28.9488 57.469 28.3382 57.469H20.7404C20.1298 57.469 19.5442 57.7161 19.1124 58.156C18.6806 58.5959 18.4381 59.1925 18.4381 59.8145V67.4611C18.4381 68.0831 18.6806 68.6797 19.1124 69.1196C19.5442 69.5595 20.1298 69.8066 20.7404 69.8066ZM28.246 59.6973V67.4142H20.6713V59.7677L28.246 59.6973Z" fill="black"/>
<path d="M61.492 39.2205H63.7943V49.3298H61.492V39.2205Z" fill="black"/>
<path d="M57.6931 43.0911H67.6162V45.4366H57.6931V43.0911Z" fill="black"/>
<path d="M42.6127 58.5244H44.915V68.6337H42.6127V58.5244Z" fill="black"/>
<path d="M38.7908 62.4182H48.7139V64.7638H38.7908V62.4182Z" fill="black"/>
<path d="M4.55495 58.5244H6.8573V68.6337H4.55495V58.5244Z" fill="black"/>
<path d="M0.755966 62.4182H10.6791V64.7638H0.755966V62.4182Z" fill="black"/>
<path d="M442.876 32.2071C444.087 32.2071 445.271 31.8411 446.278 31.1556C447.285 30.47 448.07 29.4956 448.534 28.3556C448.997 27.2155 449.119 25.961 448.882 24.7507C448.646 23.5404 448.063 22.4288 447.206 21.5562C446.35 20.6836 445.259 20.0894 444.071 19.8486C442.883 19.6079 441.651 19.7315 440.532 20.2037C439.413 20.6759 438.457 21.4756 437.784 22.5016C437.111 23.5277 436.752 24.7339 436.752 25.9679C436.752 26.7873 436.91 27.5986 437.218 28.3556C437.525 29.1125 437.977 29.8004 438.545 30.3797C439.114 30.9591 439.789 31.4186 440.532 31.7322C441.275 32.0457 442.072 32.2071 442.876 32.2071ZM442.876 22.0978C443.633 22.0978 444.372 22.3267 445.001 22.7556C445.63 23.1845 446.12 23.794 446.409 24.5068C446.697 25.2197 446.772 26.0038 446.622 26.7597C446.473 27.5156 446.107 28.2093 445.57 28.7529C445.033 29.2965 444.35 29.6654 443.607 29.813C442.864 29.9606 442.095 29.8801 441.397 29.5818C440.699 29.2835 440.104 28.7808 439.687 28.1375C439.27 27.4941 439.049 26.739 439.054 25.9679C439.054 25.4577 439.153 24.9525 439.345 24.4814C439.538 24.0103 439.819 23.5826 440.175 23.223C440.53 22.8633 440.951 22.5787 441.415 22.3856C441.878 22.1925 442.375 22.0947 442.876 22.0978Z" fill="#150035"/>
<path d="M423.974 12.9973C425.187 13.002 426.374 12.6394 427.385 11.9556C428.395 11.2718 429.184 10.2977 429.65 9.15667C430.117 8.01566 430.24 6.75918 430.004 5.54672C429.769 4.33426 429.185 3.2204 428.327 2.34643C427.469 1.47246 426.376 0.877795 425.186 0.637803C423.996 0.397812 422.762 0.523294 421.642 0.998426C420.522 1.47356 419.566 2.27693 418.895 3.30654C418.224 4.33615 417.868 5.54565 417.872 6.78163C417.878 8.42824 418.523 10.0056 419.666 11.1699C420.809 12.3343 422.357 12.9911 423.974 12.9973ZM423.974 2.88801C424.73 2.88336 425.472 3.10773 426.103 3.53273C426.735 3.95774 427.228 4.56425 427.521 5.27529C427.814 5.98633 427.893 6.76989 427.748 7.52671C427.603 8.28354 427.241 8.9795 426.707 9.52638C426.174 10.0733 425.493 10.4464 424.751 10.5986C424.009 10.7507 423.239 10.6751 422.539 10.3811C421.84 10.0871 421.241 9.58803 420.82 8.94723C420.4 8.30643 420.175 7.55271 420.175 6.78163C420.159 6.2625 420.246 5.74544 420.43 5.26097C420.614 4.77651 420.891 4.33439 421.245 3.96064C421.599 3.5869 422.022 3.28907 422.491 3.08471C422.96 2.88035 423.464 2.77365 423.974 2.77076V2.88801Z" fill="#150035"/>
<path d="M385.939 32.2076C387.154 32.2262 388.347 31.8762 389.366 31.2021C390.385 30.5279 391.184 29.5601 391.662 28.4218C392.14 27.2835 392.274 26.0262 392.048 24.8098C391.823 23.5934 391.247 22.4729 390.394 21.591C389.541 20.709 388.45 20.1054 387.26 19.8569C386.069 19.6085 384.833 19.7264 383.709 20.1958C382.584 20.6651 381.623 21.4646 380.945 22.4926C380.268 23.5205 379.907 24.7305 379.907 25.9685C379.906 27.6071 380.539 29.18 381.668 30.3474C382.796 31.5148 384.33 32.183 385.939 32.2076ZM385.939 22.0983C386.699 22.0797 387.448 22.2927 388.089 22.71C388.73 23.1274 389.234 23.7301 389.537 24.4411C389.84 25.1521 389.927 25.9391 389.788 26.7011C389.65 27.4631 389.291 28.1656 388.758 28.7186C388.225 29.2716 387.542 29.6501 386.797 29.8054C386.051 29.9607 385.278 29.8859 384.574 29.5906C383.871 29.2952 383.27 28.7927 382.849 28.1474C382.427 27.5022 382.205 26.7435 382.209 25.9685C382.209 24.9541 382.599 23.9802 383.297 23.2564C383.995 22.5326 384.943 22.1168 385.939 22.0983Z" fill="#150035"/>
<path d="M401.065 32.2072H408.548C409.158 32.2072 409.744 31.9601 410.176 31.5202C410.608 31.0803 410.85 30.4837 410.85 29.8617V22.2386C410.85 21.6165 410.608 21.0199 410.176 20.58C409.744 20.1401 409.158 19.8931 408.548 19.8931H401.065C400.455 19.8931 399.869 20.1401 399.437 20.58C399.005 21.0199 398.763 21.6165 398.763 22.2386V29.8617C398.763 30.4837 399.005 31.0803 399.437 31.5202C399.869 31.9601 400.455 32.2072 401.065 32.2072ZM408.548 22.0979V29.7913H400.996V22.1683L408.548 22.0979Z" fill="#150035"/>
<path d="M439.123 12.9973H446.674C447.285 12.9973 447.87 12.7501 448.302 12.3103C448.734 11.8704 448.977 11.2738 448.977 10.6517V3.00522C448.977 2.38314 448.734 1.78657 448.302 1.3467C447.87 0.906822 447.285 0.659668 446.674 0.659668H439.123C438.512 0.659668 437.926 0.906822 437.495 1.3467C437.063 1.78657 436.82 2.38314 436.82 3.00522V10.6517C436.82 11.2738 437.063 11.8704 437.495 12.3103C437.926 12.7501 438.512 12.9973 439.123 12.9973ZM446.674 2.77072V10.4875H439.123V2.84108L446.674 2.77072Z" fill="#150035"/>
<path d="M382.209 32.2072H389.668C390.279 32.2072 390.865 31.9601 391.296 31.5202C391.728 31.0803 391.971 30.4837 391.971 29.8617V22.2386C391.971 21.6165 391.728 21.0199 391.296 20.58C390.865 20.1401 390.279 19.8931 389.668 19.8931H382.209C381.598 19.8931 381.013 20.1401 380.581 20.58C380.149 21.0199 379.907 21.6165 379.907 22.2386V29.8617C379.907 30.4837 380.149 31.0803 380.581 31.5202C381.013 31.9601 381.598 32.2072 382.209 32.2072ZM389.692 22.0979V29.7913H382.14V22.1683L389.692 22.0979Z" fill="#150035"/>
<path d="M328.311 12.9974C329.523 12.9974 330.708 12.6308 331.716 11.9442C332.723 11.2576 333.508 10.2818 333.971 9.14041C334.434 7.99898 334.554 6.74331 334.316 5.53239C334.078 4.32148 333.492 3.2098 332.633 2.33818C331.774 1.46656 330.681 0.874154 329.492 0.63607C328.302 0.397986 327.07 0.524947 325.951 1.00077C324.833 1.4766 323.878 2.27992 323.208 3.30903C322.537 4.33814 322.182 5.54671 322.187 6.78169C322.187 7.59992 322.345 8.41009 322.653 9.16575C322.961 9.9214 323.413 10.6077 323.982 11.1852C324.551 11.7627 325.226 12.22 325.969 12.531C326.712 12.8419 327.508 13.0005 328.311 12.9974ZM328.311 2.88806C329.067 2.88806 329.806 3.11641 330.434 3.54424C331.063 3.97208 331.553 4.5802 331.842 5.29167C332.131 6.00313 332.207 6.78601 332.059 7.5413C331.912 8.29659 331.548 8.99036 331.013 9.53489C330.479 10.0794 329.798 10.4502 329.057 10.6004C328.315 10.7507 327.547 10.6736 326.848 10.3789C326.15 10.0842 325.553 9.58515 325.133 8.94485C324.713 8.30455 324.489 7.55177 324.489 6.78169C324.474 6.26059 324.561 5.7416 324.746 5.25559C324.931 4.76957 325.211 4.32639 325.567 3.95232C325.923 3.57825 326.35 3.28093 326.821 3.07797C327.293 2.875 327.799 2.77058 328.311 2.77082V2.88806Z" fill="black"/>
<path d="M324.65 12.9973H332.041C332.651 12.9973 333.237 12.7501 333.669 12.3103C334.101 11.8704 334.343 11.2738 334.343 10.6517V3.00522C334.343 2.38314 334.101 1.78657 333.669 1.3467C333.237 0.906822 332.651 0.659668 332.041 0.659668H324.65C324.04 0.659668 323.454 0.906822 323.022 1.3467C322.59 1.78657 322.348 2.38314 322.348 3.00522V10.6517C322.348 11.2738 322.59 11.8704 323.022 12.3103C323.454 12.7501 324.04 12.9973 324.65 12.9973ZM332.133 2.88797V10.6048L324.65 10.6517V3.00522L332.133 2.88797Z" fill="black"/>
<path d="M385.939 12.9976C387.15 13.016 388.339 12.6682 389.356 11.9981C390.373 11.328 391.172 10.3656 391.652 9.23285C392.133 8.10005 392.272 6.84762 392.054 5.63392C391.835 4.42023 391.269 3.29977 390.425 2.41423C389.582 1.52869 388.499 0.917866 387.315 0.658935C386.131 0.400004 384.898 0.504628 383.772 0.959573C382.646 1.41452 381.678 2.1993 380.99 3.21479C380.302 4.23028 379.925 5.43082 379.907 6.66461C379.891 7.4848 380.036 8.29995 380.331 9.06306C380.626 9.82617 381.067 10.5222 381.628 11.1109C382.189 11.6996 382.858 12.1694 383.598 12.4933C384.338 12.8171 385.133 12.9885 385.939 12.9976ZM385.939 2.88831C386.703 2.86989 387.455 3.08548 388.098 3.5072C388.741 3.92891 389.245 4.53734 389.545 5.2539C389.845 5.97046 389.927 6.7622 389.78 7.52673C389.634 8.29126 389.265 8.99341 388.723 9.54251C388.181 10.0916 387.489 10.4624 386.738 10.6069C385.987 10.7514 385.21 10.6629 384.509 10.353C383.807 10.0431 383.213 9.52596 382.803 8.86843C382.393 8.21091 382.186 7.44322 382.209 6.66461C382.209 5.64801 382.599 4.67168 383.296 3.94412C383.992 3.21657 384.941 2.79556 385.939 2.77106V2.88831Z" fill="#150035"/>
<path d="M422.822 20.9258H425.125V31.0351H422.822V20.9258Z" fill="#150035"/>
<path d="M419.024 24.7957H428.947V27.1412H419.024V24.7957Z" fill="#150035"/>
<path d="M362.639 32.2074H370.075C370.686 32.2074 371.272 31.9603 371.703 31.5204C372.135 31.0805 372.378 30.484 372.378 29.8619V22.2857C372.378 21.6637 372.135 21.0671 371.703 20.6272C371.272 20.1873 370.686 19.9402 370.075 19.9402H362.639C362.028 19.9402 361.443 20.1873 361.011 20.6272C360.579 21.0671 360.336 21.6637 360.336 22.2857V29.8619C360.336 30.484 360.579 31.0805 361.011 31.5204C361.443 31.9603 362.028 32.2074 362.639 32.2074ZM370.075 22.0981V29.768H362.547V22.192L370.075 22.0981Z" fill="#150035"/>
<path d="M347.466 12.9973C348.68 13.002 349.867 12.6394 350.878 11.9556C351.888 11.2718 352.677 10.2977 353.143 9.15667C353.609 8.01566 353.733 6.75918 353.497 5.54672C353.262 4.33426 352.678 3.2204 351.82 2.34643C350.962 1.47246 349.869 0.877795 348.679 0.637803C347.488 0.397812 346.255 0.523294 345.135 0.998426C344.015 1.47356 343.059 2.27693 342.388 3.30654C341.717 4.33615 341.361 5.54565 341.365 6.78163C341.371 8.42824 342.016 10.0056 343.159 11.1699C344.302 12.3343 345.85 12.9911 347.466 12.9973ZM347.466 2.88801C347.992 2.84638 348.52 2.91581 349.017 3.09201C349.515 3.26822 349.972 3.54736 350.358 3.9119C350.745 4.27643 351.054 4.71854 351.265 5.21037C351.476 5.70219 351.585 6.23313 351.585 6.76989C351.585 7.30665 351.476 7.83759 351.265 8.32942C351.054 8.82124 350.745 9.26335 350.358 9.62789C349.972 9.99242 349.515 10.2715 349.017 10.4477C348.52 10.6239 347.992 10.6934 347.466 10.6518C346.507 10.5757 345.611 10.1338 344.958 9.41415C344.304 8.69454 343.941 7.75027 343.941 6.76989C343.941 5.78951 344.304 4.84525 344.958 4.12564C345.611 3.40602 346.507 2.96404 347.466 2.88801Z" fill="black"/>
<path d="M324.65 32.2072H332.041C332.651 32.2072 333.237 31.9601 333.669 31.5202C334.101 31.0803 334.343 30.4837 334.343 29.8617V22.2386C334.343 21.6165 334.101 21.0199 333.669 20.58C333.237 20.1401 332.651 19.8931 332.041 19.8931H324.65C324.04 19.8931 323.454 20.1401 323.022 20.58C322.59 21.0199 322.348 21.6165 322.348 22.2386V29.8617C322.348 30.4837 322.59 31.0803 323.022 31.5202C323.454 31.9601 324.04 32.2072 324.65 32.2072ZM332.133 22.0979V29.7913H324.581V22.1683L332.133 22.0979Z" fill="black"/>
<path d="M309.409 12.9973C310.622 13.002 311.809 12.6394 312.82 11.9556C313.83 11.2718 314.619 10.2977 315.085 9.15667C315.552 8.01566 315.675 6.75918 315.439 5.54672C315.204 4.33426 314.62 3.2204 313.762 2.34643C312.904 1.47246 311.811 0.877795 310.621 0.637803C309.431 0.397812 308.197 0.523294 307.077 0.998426C305.957 1.47356 305.001 2.27693 304.33 3.30654C303.659 4.33615 303.303 5.54565 303.307 6.78163C303.313 8.42824 303.958 10.0056 305.101 11.1699C306.244 12.3343 307.792 12.9911 309.409 12.9973ZM309.409 2.88801C310.165 2.88336 310.907 3.10773 311.538 3.53273C312.17 3.95774 312.663 4.56425 312.956 5.27529C313.249 5.98633 313.328 6.76989 313.183 7.52671C313.038 8.28354 312.676 8.9795 312.142 9.52638C311.609 10.0733 310.928 10.4464 310.186 10.5986C309.444 10.7507 308.674 10.6751 307.974 10.3811C307.275 10.0871 306.676 9.58803 306.255 8.94723C305.834 8.30643 305.61 7.55271 305.61 6.78163C305.594 6.2625 305.681 5.74544 305.865 5.26097C306.049 4.77651 306.326 4.33439 306.68 3.96064C307.034 3.5869 307.457 3.28907 307.926 3.08471C308.395 2.88035 308.899 2.77365 309.409 2.77076V2.88801Z" fill="black"/>
<path d="M365.195 1.59766H367.497V11.707H365.195V1.59766Z" fill="#150035"/>
<path d="M361.396 5.4917H371.319V7.83725H361.396V5.4917Z" fill="#150035"/>
<path d="M346.315 20.9258H348.618V31.0351H346.315V20.9258Z" fill="black"/>
<path d="M342.516 24.7957H352.44V27.1412H342.516V24.7957Z" fill="black"/>
<path d="M308.257 20.9258H310.56V31.0351H308.257V20.9258Z" fill="black"/>
<path d="M304.459 24.7957H314.382V27.1412H304.459V24.7957Z" fill="black"/>
<path d="M291.013 32.2071C292.224 32.2071 293.408 31.8411 294.415 31.1556C295.423 30.47 296.207 29.4956 296.671 28.3556C297.135 27.2155 297.256 25.961 297.02 24.7507C296.783 23.5404 296.2 22.4288 295.343 21.5562C294.487 20.6836 293.396 20.0894 292.208 19.8486C291.02 19.6079 289.788 19.7315 288.669 20.2037C287.55 20.6759 286.594 21.4756 285.921 22.5016C285.248 23.5277 284.889 24.7339 284.889 25.9679C284.889 27.6227 285.534 29.2096 286.682 30.3797C287.831 31.5498 289.389 32.2071 291.013 32.2071ZM291.013 22.0978C291.77 22.0978 292.51 22.3267 293.139 22.7556C293.768 23.1845 294.258 23.794 294.546 24.5068C294.835 25.2197 294.909 26.0038 294.76 26.7597C294.61 27.5156 294.244 28.2093 293.707 28.7529C293.17 29.2965 292.487 29.6654 291.744 29.813C291.001 29.9606 290.232 29.8801 289.534 29.5818C288.836 29.2835 288.241 28.7808 287.824 28.1375C287.407 27.4941 287.187 26.739 287.191 25.9679C287.191 25.4577 287.29 24.9525 287.482 24.4814C287.675 24.0103 287.957 23.5826 288.312 23.223C288.667 22.8633 289.089 22.5787 289.552 22.3856C290.016 22.1925 290.512 22.0947 291.013 22.0978Z" fill="black"/>
<path d="M272.134 12.9974C273.346 12.9974 274.531 12.6308 275.538 11.9442C276.546 11.2576 277.331 10.2818 277.794 9.14041C278.257 7.99898 278.377 6.74331 278.138 5.53239C277.9 4.32148 277.315 3.2098 276.456 2.33818C275.597 1.46656 274.504 0.874154 273.314 0.63607C272.125 0.397986 270.893 0.524947 269.774 1.00077C268.655 1.4766 267.7 2.27992 267.03 3.30903C266.36 4.33814 266.005 5.54671 266.009 6.78169C266.009 7.59992 266.168 8.41009 266.476 9.16575C266.784 9.9214 267.236 10.6077 267.805 11.1852C268.373 11.7627 269.049 12.22 269.792 12.531C270.535 12.8419 271.33 13.0005 272.134 12.9974ZM272.134 2.88806C272.89 2.88806 273.628 3.11641 274.257 3.54424C274.885 3.97208 275.375 4.5802 275.665 5.29167C275.954 6.00313 276.03 6.78601 275.882 7.5413C275.735 8.29659 275.371 8.99036 274.836 9.53489C274.302 10.0794 273.621 10.4502 272.879 10.6004C272.138 10.7507 271.369 10.6736 270.671 10.3789C269.973 10.0842 269.376 9.58515 268.956 8.94485C268.536 8.30455 268.312 7.55177 268.312 6.78169C268.296 6.26059 268.384 5.7416 268.569 5.25559C268.754 4.76957 269.033 4.32639 269.39 3.95232C269.746 3.57825 270.173 3.28093 270.644 3.07797C271.115 2.875 271.622 2.77058 272.134 2.77082V2.88806Z" fill="black"/>
<path d="M234.076 32.2071C235.287 32.2071 236.471 31.8411 237.479 31.1556C238.486 30.47 239.271 29.4956 239.734 28.3556C240.198 27.2155 240.319 25.961 240.083 24.7507C239.846 23.5404 239.263 22.4288 238.407 21.5562C237.55 20.6836 236.459 20.0894 235.271 19.8486C234.083 19.6079 232.851 19.7315 231.732 20.2037C230.613 20.6759 229.657 21.4756 228.984 22.5016C228.311 23.5277 227.952 24.7339 227.952 25.9679C227.952 27.6227 228.597 29.2096 229.746 30.3797C230.894 31.5498 232.452 32.2071 234.076 32.2071ZM234.076 22.0978C234.833 22.0978 235.573 22.3267 236.202 22.7556C236.831 23.1845 237.321 23.794 237.609 24.5068C237.898 25.2197 237.972 26.0038 237.823 26.7597C237.673 27.5156 237.307 28.2093 236.77 28.7529C236.234 29.2965 235.55 29.6654 234.807 29.813C234.065 29.9606 233.295 29.8801 232.597 29.5818C231.9 29.2835 231.304 28.7808 230.887 28.1375C230.47 27.4941 230.25 26.739 230.254 25.9679C230.254 25.4577 230.353 24.9525 230.546 24.4814C230.738 24.0103 231.02 23.5826 231.375 23.223C231.73 22.8633 232.152 22.5787 232.615 22.3856C233.079 22.1925 233.575 22.0947 234.076 22.0978Z" fill="black"/>
<path d="M249.202 32.2072H256.708C257.319 32.2072 257.904 31.9601 258.336 31.5202C258.768 31.0803 259.01 30.4837 259.01 29.8617V22.2386C259.01 21.6165 258.768 21.0199 258.336 20.58C257.904 20.1401 257.319 19.8931 256.708 19.8931H249.202C248.592 19.8931 248.006 20.1401 247.574 20.58C247.143 21.0199 246.9 21.6165 246.9 22.2386V29.8617C246.9 30.1697 246.96 30.4747 247.075 30.7593C247.191 31.0438 247.361 31.3024 247.574 31.5202C247.788 31.738 248.042 31.9108 248.321 32.0287C248.601 32.1466 248.9 32.2072 249.202 32.2072ZM256.708 22.0979V29.7913H249.156V22.1683L256.708 22.0979Z" fill="black"/>
<path d="M230.254 32.2072H237.829C238.439 32.2072 239.025 31.9601 239.457 31.5202C239.888 31.0803 240.131 30.4837 240.131 29.8617V22.2386C240.131 21.6165 239.888 21.0199 239.457 20.58C239.025 20.1401 238.439 19.8931 237.829 19.8931H230.254C229.643 19.8931 229.058 20.1401 228.626 20.58C228.194 21.0199 227.952 21.6165 227.952 22.2386V29.8617C227.952 30.4837 228.194 31.0803 228.626 31.5202C229.058 31.9601 229.643 32.2072 230.254 32.2072ZM237.76 22.0979V29.7913H230.208V22.1683L237.76 22.0979Z" fill="black"/>
<path d="M176.448 12.9975C177.658 13.0112 178.845 12.6594 179.859 11.9864C180.873 11.3134 181.669 10.3494 182.146 9.21616C182.622 8.08288 182.759 6.83115 182.538 5.61895C182.317 4.40675 181.748 3.28847 180.903 2.40527C180.059 1.52208 178.977 0.913549 177.793 0.656561C176.609 0.399573 175.378 0.50565 174.253 0.961351C173.128 1.41705 172.162 2.20196 171.475 3.217C170.788 4.23204 170.411 5.43165 170.393 6.66446C170.378 7.4866 170.523 8.30371 170.82 9.06834C171.117 9.83298 171.559 10.53 172.123 11.119C172.686 11.708 173.358 12.1774 174.101 12.4998C174.843 12.8223 175.641 12.9914 176.448 12.9975ZM176.448 2.88815C177.212 2.87444 177.962 3.09407 178.602 3.51871C179.241 3.94335 179.742 4.55353 180.038 5.27057C180.334 5.98761 180.413 6.77861 180.264 7.5416C180.115 8.3046 179.745 9.00459 179.201 9.5513C178.658 10.098 177.966 10.4664 177.216 10.6089C176.465 10.7514 175.689 10.6615 174.989 10.3509C174.289 10.0402 173.697 9.52304 173.288 8.86599C172.879 8.20893 172.672 7.44208 172.695 6.66446C172.695 5.64388 173.088 4.66408 173.79 3.93588C174.492 3.20767 175.447 2.78935 176.448 2.77091V2.88815Z" fill="black"/>
<path d="M172.695 12.9973H180.201C180.811 12.9973 181.397 12.7501 181.829 12.3103C182.261 11.8704 182.503 11.2738 182.503 10.6517V3.00522C182.503 2.38314 182.261 1.78657 181.829 1.3467C181.397 0.906822 180.811 0.659668 180.201 0.659668H172.695C172.085 0.659668 171.499 0.906822 171.067 1.3467C170.635 1.78657 170.393 2.38314 170.393 3.00522V10.6517C170.393 11.2738 170.635 11.8704 171.067 12.3103C171.499 12.7501 172.085 12.9973 172.695 12.9973ZM180.201 2.88797V10.6048H172.649V2.95833L180.201 2.88797Z" fill="black"/>
<path d="M287.26 12.9973H294.72C295.33 12.9973 295.916 12.7501 296.348 12.3103C296.779 11.8704 297.022 11.2738 297.022 10.6517V3.00522C297.022 2.38314 296.779 1.78657 296.348 1.3467C295.916 0.906822 295.33 0.659668 294.72 0.659668H287.214C286.603 0.659668 286.018 0.906822 285.586 1.3467C285.154 1.78657 284.912 2.38314 284.912 3.00522V10.6517C284.912 10.9637 284.973 11.2726 285.091 11.5603C285.21 11.848 285.383 12.1086 285.602 12.3271C285.821 12.5455 286.08 12.7173 286.365 12.8324C286.649 12.9474 286.954 13.0035 287.26 12.9973ZM294.72 2.77072V10.4875H287.168V2.84108L294.72 2.77072Z" fill="black"/>
<path d="M234.076 12.9974C235.283 12.9972 236.463 12.6336 237.468 11.9521C238.473 11.2706 239.258 10.3016 239.725 9.16702C240.191 8.03242 240.317 6.78276 240.088 5.57511C239.859 4.36746 239.285 3.25565 238.438 2.37947C237.59 1.50329 236.508 0.901817 235.326 0.650587C234.144 0.399356 232.916 0.5096 231.795 0.967474C230.675 1.42535 229.712 2.21044 229.028 3.22405C228.344 4.23766 227.97 5.43453 227.952 6.66435C227.936 7.4924 228.083 8.31522 228.385 9.08449C228.686 9.85375 229.135 10.554 229.705 11.1439C230.276 11.7339 230.956 12.2018 231.707 12.5201C232.457 12.8383 233.263 13.0006 234.076 12.9974ZM234.076 2.88805C234.837 2.8884 235.58 3.12 236.211 3.55325C236.841 3.9865 237.331 4.60168 237.616 5.32C237.902 6.03832 237.971 6.82714 237.814 7.58545C237.657 8.34376 237.281 9.03704 236.735 9.5766C236.189 10.1162 235.497 10.4774 234.748 10.6142C234 10.7509 233.228 10.6569 232.532 10.3442C231.836 10.0314 231.247 9.51412 230.841 8.85858C230.435 8.20304 230.231 7.439 230.254 6.66435C230.254 6.15303 230.353 5.64673 230.545 5.17433C230.737 4.70194 231.018 4.27271 231.373 3.91115C231.728 3.54959 232.15 3.26282 232.613 3.06714C233.077 2.87147 233.574 2.7708 234.076 2.7708V2.88805Z" fill="black"/>
<path d="M251.804 1.59766H254.106V11.707H251.804V1.59766Z" fill="black"/>
<path d="M247.982 5.4917H257.905V7.83725H247.982V5.4917Z" fill="black"/>
<path d="M210.776 32.2074H218.213C218.823 32.2074 219.409 31.9603 219.841 31.5204C220.272 31.0805 220.515 30.484 220.515 29.8619V22.2857C220.515 21.6637 220.272 21.0671 219.841 20.6272C219.409 20.1873 218.823 19.9402 218.213 19.9402H210.776C210.165 19.9402 209.58 20.1873 209.148 20.6272C208.716 21.0671 208.474 21.6637 208.474 22.2857V29.8619C208.474 30.484 208.716 31.0805 209.148 31.5204C209.58 31.9603 210.165 32.2074 210.776 32.2074ZM218.213 22.0981V29.768H210.684V22.192L218.213 22.0981Z" fill="black"/>
<path d="M195.719 12.9974C196.931 12.9974 198.116 12.6308 199.124 11.9442C200.131 11.2576 200.916 10.2818 201.379 9.14041C201.842 7.99898 201.962 6.74331 201.724 5.53239C201.485 4.32148 200.9 3.2098 200.041 2.33818C199.182 1.46656 198.089 0.874154 196.899 0.63607C195.71 0.397986 194.478 0.524947 193.359 1.00077C192.24 1.4766 191.286 2.27992 190.615 3.30903C189.945 4.33814 189.59 5.54671 189.594 6.78169C189.594 7.59992 189.753 8.41009 190.061 9.16575C190.369 9.9214 190.821 10.6077 191.39 11.1852C191.959 11.7627 192.634 12.22 193.377 12.531C194.12 12.8419 194.916 13.0005 195.719 12.9974ZM195.719 2.88806C196.475 2.88806 197.214 3.11641 197.842 3.54424C198.471 3.97208 198.96 4.5802 199.25 5.29167C199.539 6.00313 199.615 6.78601 199.467 7.5413C199.32 8.29659 198.956 8.99036 198.421 9.53489C197.887 10.0794 197.206 10.4502 196.464 10.6004C195.723 10.7507 194.954 10.6736 194.256 10.3789C193.558 10.0842 192.961 9.58515 192.541 8.94485C192.121 8.30455 191.897 7.55177 191.897 6.78169C191.881 6.26059 191.969 5.7416 192.154 5.25559C192.339 4.76957 192.618 4.32639 192.975 3.95232C193.331 3.57825 193.758 3.28093 194.229 3.07797C194.7 2.875 195.207 2.77058 195.719 2.77082V2.88806Z" fill="black"/>
<path d="M172.695 32.2072H180.201C180.811 32.2072 181.397 31.9601 181.829 31.5202C182.261 31.0803 182.503 30.4837 182.503 29.8617V22.2386C182.503 21.6165 182.261 21.0199 181.829 20.58C181.397 20.1401 180.811 19.8931 180.201 19.8931H172.695C172.085 19.8931 171.499 20.1401 171.067 20.58C170.635 21.0199 170.393 21.6165 170.393 22.2386V29.8617C170.393 30.4837 170.635 31.0803 171.067 31.5202C171.499 31.9601 172.085 32.2072 172.695 32.2072ZM180.201 22.0979V29.7913H172.649V22.1683L180.201 22.0979Z" fill="black"/>
<path d="M157.569 12.9974C158.781 12.9974 159.966 12.6308 160.974 11.9442C161.981 11.2576 162.766 10.2818 163.229 9.14041C163.692 7.99898 163.812 6.74331 163.574 5.53239C163.336 4.32148 162.75 3.2098 161.891 2.33818C161.032 1.46656 159.939 0.874154 158.75 0.63607C157.56 0.397986 156.328 0.524947 155.209 1.00077C154.091 1.4766 153.136 2.27992 152.466 3.30903C151.795 4.33814 151.44 5.54671 151.445 6.78169C151.445 7.59992 151.603 8.41009 151.911 9.16575C152.219 9.9214 152.671 10.6077 153.24 11.1852C153.809 11.7627 154.484 12.22 155.227 12.531C155.97 12.8419 156.766 13.0005 157.569 12.9974ZM157.569 2.88806C158.325 2.88806 159.064 3.11641 159.692 3.54424C160.321 3.97208 160.811 4.5802 161.1 5.29167C161.389 6.00313 161.465 6.78601 161.317 7.5413C161.17 8.29659 160.806 8.99036 160.271 9.53489C159.737 10.0794 159.056 10.4502 158.315 10.6004C157.573 10.7507 156.805 10.6736 156.106 10.3789C155.408 10.0842 154.811 9.58515 154.391 8.94485C153.971 8.30455 153.747 7.55177 153.747 6.78169C153.732 6.26059 153.819 5.7416 154.004 5.25559C154.189 4.76957 154.468 4.32639 154.825 3.95232C155.181 3.57825 155.608 3.28093 156.079 3.07797C156.551 2.875 157.057 2.77058 157.569 2.77082V2.88806Z" fill="black"/>
<path d="M213.355 1.59766H215.657V11.707H213.355V1.59766Z" fill="black"/>
<path d="M209.533 5.4917H219.456V7.83725H209.533V5.4917Z" fill="black"/>
<path d="M194.475 20.9258H196.778V31.0351H194.475V20.9258Z" fill="black"/>
<path d="M190.654 24.7957H200.577V27.1412H190.654V24.7957Z" fill="black"/>
<path d="M156.418 20.9258H158.72V31.0351H156.418V20.9258Z" fill="black"/>
<path d="M152.596 24.7957H162.519V27.1412H152.596V24.7957Z" fill="black"/>
<path d="M139.15 32.2078C140.362 32.2124 141.549 31.8504 142.559 31.1677C143.569 30.485 144.358 29.5122 144.825 28.3726C145.292 27.2329 145.416 25.9777 145.183 24.7658C144.949 23.554 144.367 22.4401 143.512 21.5652C142.656 20.6903 141.565 20.0938 140.377 19.8511C139.188 19.6085 137.955 19.7306 136.835 20.2021C135.715 20.6737 134.757 21.4734 134.083 22.4999C133.409 23.5264 133.049 24.7336 133.049 25.9686C133.049 27.6193 133.691 29.2027 134.835 30.3721C135.978 31.5415 137.53 32.2016 139.15 32.2078ZM139.15 22.0985C139.908 22.0938 140.65 22.3188 141.282 22.7448C141.914 23.1709 142.408 23.7788 142.7 24.4912C142.992 25.2036 143.069 25.9884 142.923 26.7459C142.776 27.5034 142.412 28.1993 141.876 28.7452C141.34 29.2911 140.657 29.6624 139.913 29.8119C139.17 29.9614 138.399 29.8823 137.7 29.5847C137.001 29.2871 136.404 28.7845 135.986 28.1406C135.568 27.4967 135.347 26.7407 135.351 25.9686C135.357 24.9441 135.76 23.9633 136.471 23.2388C137.182 22.5143 138.145 22.1046 139.15 22.0985Z" fill="black"/>
<path d="M82.2131 32.2078C83.4253 32.2124 84.6116 31.8504 85.6218 31.1677C86.6319 30.485 87.4205 29.5122 87.8875 28.3726C88.3546 27.2329 88.4792 25.9777 88.2455 24.7658C88.0118 23.554 87.4303 22.4401 86.5747 21.5652C85.7192 20.6903 84.628 20.0938 83.4394 19.8511C82.2508 19.6085 81.0182 19.7306 79.8978 20.2021C78.7774 20.6737 77.8196 21.4734 77.1456 22.4999C76.4716 23.5264 76.1119 24.7336 76.1119 25.9686C76.1119 27.6193 76.7539 29.2027 77.8975 30.3721C79.041 31.5415 80.5928 32.2016 82.2131 32.2078ZM82.2131 22.0985C82.9709 22.0938 83.713 22.3188 84.345 22.7448C84.9771 23.1709 85.4705 23.7788 85.7626 24.4912C86.0547 25.2036 86.1324 25.9884 85.9856 26.7459C85.8389 27.5034 85.4744 28.1993 84.9385 28.7452C84.4027 29.2911 83.7195 29.6624 82.976 29.8119C82.2325 29.9614 81.4622 29.8823 80.7629 29.5847C80.0636 29.2871 79.4669 28.7845 79.0487 28.1406C78.6305 27.4967 78.4097 26.7407 78.4142 25.9686C78.4203 24.9441 78.8224 23.9633 79.5336 23.2388C80.2447 22.5143 81.2074 22.1046 82.2131 22.0985Z" fill="black"/>
<path d="M97.3625 32.2072H104.845C105.456 32.2072 106.041 31.9601 106.473 31.5202C106.905 31.0803 107.147 30.4837 107.147 29.8617V22.2386C107.147 21.6165 106.905 21.0199 106.473 20.58C106.041 20.1401 105.456 19.8931 104.845 19.8931H97.3625C96.7519 19.8931 96.1663 20.1401 95.7345 20.58C95.3027 21.0199 95.0601 21.6165 95.0601 22.2386V29.8617C95.0601 30.4837 95.3027 31.0803 95.7345 31.5202C96.1663 31.9601 96.7519 32.2072 97.3625 32.2072ZM104.845 22.0979V29.7913H97.2934V22.1683L104.845 22.0979Z" fill="black"/>
<path d="M78.4603 32.2072H85.966C86.5766 32.2072 87.1622 31.9601 87.594 31.5202C88.0257 31.0803 88.2683 30.4837 88.2683 29.8617V22.2386C88.2683 21.6165 88.0257 21.0199 87.594 20.58C87.1622 20.1401 86.5766 19.8931 85.966 19.8931H78.4603C77.8497 19.8931 77.2641 20.1401 76.8323 20.58C76.4005 21.0199 76.158 21.6165 76.158 22.2386V29.8617C76.158 30.4837 76.4005 31.0803 76.8323 31.5202C77.2641 31.9601 77.8497 32.2072 78.4603 32.2072ZM85.966 22.0979V29.7913H78.3912V22.1683L85.966 22.0979Z" fill="black"/>
<path d="M82.213 12.9976C83.4163 12.9791 84.5875 12.5997 85.5804 11.9071C86.5732 11.2145 87.3439 10.2392 87.7959 9.10308C88.248 7.96694 88.3615 6.7203 88.1223 5.51883C87.883 4.31736 87.3017 3.21432 86.4508 2.34745C85.5999 1.48058 84.5171 0.888276 83.3378 0.644554C82.1584 0.400832 80.9347 0.516493 79.8195 0.977045C78.7043 1.4376 77.747 2.22267 77.0671 3.23419C76.3872 4.24572 76.0149 5.43882 75.9967 6.66462C75.9843 7.49977 76.1366 8.32901 76.4446 9.10308C76.7526 9.87715 77.21 10.5804 77.7898 11.171C78.3695 11.7616 79.0597 12.2276 79.8195 12.5414C80.5793 12.8552 81.3933 13.0103 82.213 12.9976ZM82.213 2.88832C82.7383 2.84669 83.2664 2.91612 83.7641 3.09232C84.2618 3.26852 84.7183 3.54767 85.105 3.9122C85.4918 4.27674 85.8003 4.71885 86.0114 5.21067C86.2224 5.7025 86.3313 6.23344 86.3313 6.7702C86.3313 7.30696 86.2224 7.8379 86.0114 8.32972C85.8003 8.82155 85.4918 9.26366 85.105 9.62819C84.7183 9.99273 84.2618 10.2718 83.7641 10.448C83.2664 10.6242 82.7383 10.6937 82.213 10.6521C81.2536 10.576 80.3577 10.1341 79.7041 9.41445C79.0506 8.69484 78.6876 7.75058 78.6876 6.7702C78.6876 5.78982 79.0506 4.84555 79.7041 4.12594C80.3577 3.40633 81.2536 2.96435 82.213 2.88832Z" fill="black"/>
<path d="M99.9413 1.59766H102.244V11.707H99.9413V1.59766Z" fill="black"/>
<path d="M96.1422 5.4917H106.065V7.83725H96.1422V5.4917Z" fill="black"/>
<path d="M119.12 20.9258H121.422V31.0351H119.12V20.9258Z" fill="black"/>
<path d="M115.298 24.7957H125.221V27.1412H115.298V24.7957Z" fill="black"/>
<path d="M58.9363 32.2074H66.3499C66.6618 32.2233 66.9736 32.1744 67.2663 32.0637C67.5591 31.953 67.8267 31.7827 68.0528 31.5633C68.2789 31.3439 68.4589 31.0799 68.5817 30.7874C68.7046 30.4949 68.7677 30.18 68.7673 29.8619V22.2857C68.7677 21.9676 68.7046 21.6527 68.5817 21.3602C68.4589 21.0677 68.2789 20.8038 68.0528 20.5843C67.8267 20.3649 67.5591 20.1947 67.2663 20.0839C66.9736 19.9732 66.6618 19.9243 66.3499 19.9402H58.9363C58.3257 19.9402 57.7401 20.1873 57.3083 20.6272C56.8765 21.0671 56.634 21.6637 56.634 22.2857V29.8619C56.634 30.484 56.8765 31.0805 57.3083 31.5204C57.7401 31.9603 58.3257 32.2074 58.9363 32.2074ZM66.3499 22.0981L66.465 29.7681H58.9363V22.192L66.3499 22.0981Z" fill="black"/>
<path d="M42.6127 20.9258H44.915V31.0351H42.6127V20.9258Z" fill="black"/>
<path d="M38.7908 24.7957H48.7139V27.1412H38.7908V24.7957Z" fill="black"/>
</svg>
