<svg width="1271" height="14" viewBox="0 0 1271 14" fill="none" xmlns="http://www.w3.org/2000/svg">
<path d="M25.4725 12.4783C24.2366 12.4829 23.0271 12.1203 21.9974 11.4366C20.9678 10.7528 20.1645 9.77864 19.6894 8.63763C19.2142 7.49662 19.0887 6.24014 19.3287 5.02768C19.5687 3.81522 20.1634 2.70136 21.0374 1.82739C21.9113 0.953415 23.0252 0.358752 24.2377 0.11876C25.4501 -0.121231 26.7065 0.0042509 27.8476 0.479383C28.9886 0.954515 29.9628 1.75789 30.6465 2.7875C31.3303 3.81711 31.6929 5.02661 31.6882 6.26259C31.6821 7.90919 31.0252 9.48657 29.8609 10.6509C28.6965 11.8152 27.1191 12.4721 25.4725 12.4783ZM25.4725 2.36897C24.7015 2.36432 23.9464 2.58869 23.303 3.01369C22.6596 3.43869 22.1569 4.0452 21.8586 4.75625C21.5603 5.46729 21.4799 6.25084 21.6274 7.00767C21.775 7.76449 22.144 8.46046 22.6876 9.00734C23.2312 9.55422 23.9249 9.9274 24.6808 10.0795C25.4367 10.2317 26.2208 10.156 26.9336 9.86201C27.6465 9.56802 28.256 9.06898 28.6848 8.42818C29.1137 7.78738 29.3427 7.03367 29.3427 6.26259C29.3583 5.74346 29.27 5.22639 29.0828 4.74193C28.8956 4.25747 28.6134 3.81535 28.2528 3.4416C27.8921 3.06785 27.4604 2.77003 26.9829 2.56567C26.5054 2.36131 25.9919 2.25461 25.4725 2.25172V2.36897Z" fill="#150035"/>
<path d="M10.039 12.4782H2.34555C1.72347 12.4782 1.12687 12.2311 0.686996 11.7912C0.24712 11.3513 0 10.7548 0 10.1327V2.48618C0 1.8641 0.24712 1.26753 0.686996 0.827655C1.12687 0.387779 1.72347 0.140625 2.34555 0.140625H10.039C10.661 0.140625 11.2576 0.387779 11.6975 0.827655C12.1374 1.26753 12.3845 1.8641 12.3845 2.48618V10.1327C12.3845 10.7548 12.1374 11.3513 11.6975 11.7912C11.2576 12.2311 10.661 12.4782 10.039 12.4782ZM2.34555 2.25168V9.96849H10.039V2.32204L2.34555 2.25168Z" fill="#150035"/>
<path d="M126.66 12.4782H119.13C118.508 12.4782 117.912 12.2311 117.472 11.7912C117.032 11.3513 116.785 10.7548 116.785 10.1327V2.48618C116.785 1.8641 117.032 1.26753 117.472 0.827655C117.912 0.387779 118.508 0.140625 119.13 0.140625H126.66C127.282 0.140625 127.878 0.387779 128.318 0.827655C128.758 1.26753 129.005 1.8641 129.005 2.48618V10.1327C129.005 10.7548 128.758 11.3513 128.318 11.7912C127.878 12.2311 127.282 12.4782 126.66 12.4782ZM119.037 2.36893V10.0858L126.66 10.1327V2.48618L119.037 2.36893Z" fill="black"/>
<path d="M64.2212 12.4786C62.9874 12.497 61.7758 12.1491 60.7397 11.479C59.7036 10.8089 58.8895 9.84661 58.4003 8.71381C57.911 7.581 57.7687 6.32858 57.9912 5.11488C58.2138 3.90118 58.7912 2.78073 59.6505 1.89519C60.5098 1.00965 61.6124 0.398824 62.8188 0.139892C64.0253 -0.119039 65.2814 -0.0144151 66.4284 0.44053C67.5754 0.895476 68.5618 1.68025 69.2627 2.69575C69.9637 3.71124 70.3478 4.91178 70.3665 6.14557C70.3821 6.96575 70.2351 7.78091 69.9341 8.54402C69.6331 9.30713 69.184 10.0031 68.6127 10.5919C68.0414 11.1806 67.3593 11.6504 66.6055 11.9742C65.8518 12.298 65.0415 12.4694 64.2212 12.4786ZM64.2212 2.36927C63.4424 2.35084 62.6761 2.56644 62.0212 2.98815C61.3662 3.40987 60.8528 4.0183 60.5474 4.73486C60.2419 5.45142 60.1584 6.24315 60.3076 7.00768C60.4568 7.77221 60.8319 8.47437 61.3844 9.02346C61.9369 9.57256 62.6415 9.94338 63.4069 10.0879C64.1723 10.2324 64.9635 10.1439 65.6782 9.83397C66.3928 9.52406 66.9981 9.00692 67.4157 8.34939C67.8334 7.69186 68.0442 6.92418 68.021 6.14557C68.0213 5.12897 67.624 4.15264 66.9139 3.42508C66.2039 2.69752 65.2375 2.27651 64.2212 2.25202V2.36927Z" fill="#150035"/>
<path d="M103.415 12.4783C102.179 12.4829 100.97 12.1203 99.9403 11.4366C98.9107 10.7528 98.1074 9.77864 97.6322 8.63763C97.1571 7.49662 97.0316 6.24014 97.2716 5.02768C97.5116 3.81522 98.1063 2.70136 98.9802 1.82739C99.8542 0.953415 100.968 0.358752 102.181 0.11876C103.393 -0.121231 104.649 0.0042509 105.79 0.479383C106.931 0.954515 107.906 1.75789 108.589 2.7875C109.273 3.81711 109.636 5.02661 109.631 6.26259C109.625 7.90919 108.968 9.48657 107.804 10.6509C106.639 11.8152 105.062 12.4721 103.415 12.4783ZM103.415 2.36897C102.88 2.32734 102.342 2.39677 101.835 2.57297C101.328 2.74917 100.863 3.02832 100.469 3.39285C100.075 3.75739 99.7608 4.1995 99.5458 4.69132C99.3308 5.18315 99.2198 5.71408 99.2198 6.25085C99.2198 6.78761 99.3308 7.31855 99.5458 7.81037C99.7608 8.3022 100.075 8.74431 100.469 9.10884C100.863 9.47338 101.328 9.75245 101.835 9.92865C102.342 10.1049 102.88 10.1744 103.415 10.1327C104.393 10.0567 105.306 9.61471 105.971 8.8951C106.637 8.17549 107.007 7.23122 107.007 6.25085C107.007 5.27047 106.637 4.3262 105.971 3.60659C105.306 2.88698 104.393 2.445 103.415 2.36897Z" fill="black"/>
<path d="M142.187 12.4783C140.951 12.4829 139.742 12.1203 138.712 11.4366C137.683 10.7528 136.879 9.77864 136.404 8.63763C135.929 7.49662 135.804 6.24014 136.044 5.02768C136.284 3.81522 136.878 2.70136 137.752 1.82739C138.626 0.953415 139.74 0.358752 140.953 0.11876C142.165 -0.121231 143.421 0.0042509 144.562 0.479383C145.703 0.954515 146.678 1.75789 147.361 2.7875C148.045 3.81711 148.408 5.02661 148.403 6.26259C148.397 7.90919 147.74 9.48657 146.576 10.6509C145.411 11.8152 143.834 12.4721 142.187 12.4783ZM142.187 2.36897C141.416 2.36432 140.661 2.58869 140.018 3.01369C139.374 3.43869 138.872 4.0452 138.573 4.75625C138.275 5.46729 138.195 6.25084 138.342 7.00767C138.49 7.76449 138.859 8.46046 139.402 9.00734C139.946 9.55422 140.64 9.9274 141.396 10.0795C142.152 10.2317 142.936 10.156 143.648 9.86201C144.361 9.56802 144.971 9.06898 145.4 8.42818C145.829 7.78738 146.058 7.03367 146.058 6.26259C146.073 5.74346 145.985 5.22639 145.798 4.74193C145.61 4.25747 145.328 3.81535 144.968 3.4416C144.607 3.06785 144.175 2.77003 143.698 2.56567C143.22 2.36131 142.707 2.25461 142.187 2.25172V2.36897Z" fill="black"/>
<path d="M85.3546 1.07861H83.009V11.1879H85.3546V1.07861Z" fill="#150035"/>
<path d="M89.2246 4.97266H79.1152V7.31821H89.2246V4.97266Z" fill="#150035"/>
<path d="M180.162 12.4783C178.927 12.4783 177.72 12.1118 176.693 11.4252C175.666 10.7386 174.867 9.76279 174.395 8.62136C173.924 7.47994 173.802 6.22426 174.044 5.01335C174.287 3.80243 174.883 2.69076 175.758 1.81914C176.633 0.947518 177.747 0.355111 178.959 0.117027C180.171 -0.121057 181.426 0.00590354 182.566 0.48173C183.705 0.957556 184.678 1.76088 185.361 2.78999C186.044 3.81909 186.406 5.02766 186.401 6.26264C186.401 7.08088 186.239 7.89105 185.926 8.6467C185.612 9.40236 185.152 10.0886 184.572 10.6661C183.992 11.2436 183.304 11.7009 182.548 12.0119C181.791 12.3229 180.98 12.4814 180.162 12.4783ZM180.162 2.36902C179.392 2.36902 178.639 2.59736 177.999 3.0252C177.358 3.45304 176.859 4.06116 176.564 4.77262C176.27 5.48409 176.193 6.26697 176.343 7.02226C176.493 7.77754 176.864 8.47131 177.409 9.01584C177.953 9.56038 178.647 9.93116 179.402 10.0814C180.157 10.2316 180.94 10.1545 181.652 9.85985C182.363 9.56515 182.971 9.06611 183.399 8.42581C183.827 7.7855 184.055 7.03273 184.055 6.26264C184.071 5.74154 183.982 5.22256 183.793 4.73655C183.605 4.25053 183.32 3.80735 182.957 3.43328C182.594 3.05921 182.16 2.76189 181.679 2.55892C181.199 2.35596 180.683 2.25154 180.162 2.25177V2.36902Z" fill="black"/>
<path d="M281.466 12.4782H273.82C273.197 12.4782 272.601 12.2311 272.161 11.7912C271.721 11.3513 271.474 10.7548 271.474 10.1327V2.48618C271.474 1.8641 271.721 1.26753 272.161 0.827655C272.601 0.387779 273.197 0.140625 273.82 0.140625H281.466C282.088 0.140625 282.685 0.387779 283.125 0.827655C283.564 1.26753 283.812 1.8641 283.812 2.48618V10.1327C283.812 10.7548 283.564 11.3513 283.125 11.7912C282.685 12.2311 282.088 12.4782 281.466 12.4782ZM273.82 2.36893V10.0858H281.513V2.43929L273.82 2.36893Z" fill="black"/>
<path d="M164.752 12.4782H157.152C156.53 12.4782 155.933 12.2311 155.493 11.7912C155.054 11.3513 154.806 10.7548 154.806 10.1327V2.48618C154.806 1.8641 155.054 1.26753 155.493 0.827655C155.933 0.387779 156.53 0.140625 157.152 0.140625H164.798C165.421 0.140625 166.017 0.387779 166.457 0.827655C166.897 1.26753 167.144 1.8641 167.144 2.48618V10.1327C167.144 10.4447 167.082 10.7536 166.961 11.0413C166.84 11.3289 166.663 11.5896 166.44 11.808C166.218 12.0265 165.954 12.1982 165.664 12.3133C165.374 12.4284 165.063 12.4845 164.752 12.4782ZM157.152 2.25168V9.96849H164.845V2.32204L157.152 2.25168Z" fill="black"/>
<path d="M218.934 12.4783C217.704 12.4782 216.501 12.1145 215.477 11.433C214.454 10.7515 213.654 9.78258 213.179 8.64798C212.704 7.51338 212.575 6.26372 212.809 5.05607C213.042 3.84842 213.627 2.73661 214.49 1.86043C215.353 0.984245 216.456 0.382774 217.66 0.131544C218.864 -0.119687 220.116 -0.00944269 221.257 0.448431C222.399 0.906304 223.379 1.6914 224.076 2.70501C224.773 3.71861 225.154 4.91548 225.173 6.14531C225.189 6.97336 225.039 7.79618 224.732 8.56544C224.425 9.33471 223.967 10.0349 223.386 10.6249C222.805 11.2149 222.112 11.6827 221.347 12.001C220.582 12.3193 219.762 12.4816 218.934 12.4783ZM218.934 2.36901C218.159 2.36936 217.401 2.60096 216.759 3.0342C216.116 3.46745 215.618 4.08263 215.327 4.80095C215.036 5.51928 214.966 6.3081 215.126 7.06641C215.286 7.82472 215.668 8.51799 216.225 9.05756C216.781 9.59713 217.486 9.95839 218.249 10.0951C219.011 10.2318 219.798 10.1379 220.507 9.82512C221.216 9.51236 221.816 8.99508 222.229 8.33954C222.642 7.684 222.851 6.91996 222.827 6.14531C222.827 5.63399 222.727 5.12768 222.531 4.65529C222.335 4.18289 222.049 3.75366 221.687 3.39211C221.325 3.03055 220.896 2.74377 220.424 2.5481C219.951 2.35243 219.445 2.25176 218.934 2.25176V2.36901Z" fill="black"/>
<path d="M200.873 1.07861H198.527V11.1879H200.873V1.07861Z" fill="black"/>
<path d="M204.767 4.97266H194.657V7.31821H204.767V4.97266Z" fill="black"/>
<path d="M258.011 12.4783C256.776 12.4783 255.568 12.1118 254.542 11.4252C253.515 10.7386 252.716 9.76279 252.244 8.62136C251.773 7.47994 251.65 6.22426 251.893 5.01335C252.136 3.80243 252.732 2.69076 253.607 1.81914C254.482 0.947518 255.596 0.355111 256.808 0.117027C258.02 -0.121057 259.275 0.00590354 260.415 0.48173C261.554 0.957556 262.527 1.76088 263.21 2.78999C263.892 3.81909 264.254 5.02766 264.25 6.26264C264.25 7.08088 264.088 7.89105 263.774 8.6467C263.461 9.40236 263.001 10.0886 262.421 10.6661C261.841 11.2436 261.153 11.7009 260.396 12.0119C259.64 12.3229 258.829 12.4814 258.011 12.4783ZM258.011 2.36902C257.241 2.36902 256.488 2.59736 255.847 3.0252C255.207 3.45304 254.708 4.06116 254.413 4.77262C254.119 5.48409 254.042 6.26697 254.192 7.02226C254.342 7.77754 254.713 8.47131 255.257 9.01584C255.802 9.56038 256.496 9.93116 257.251 10.0814C258.006 10.2316 258.789 10.1545 259.501 9.85985C260.212 9.56515 260.82 9.06611 261.248 8.42581C261.676 7.7855 261.904 7.03273 261.904 6.26264C261.92 5.74154 261.831 5.22256 261.642 4.73655C261.454 4.25053 261.169 3.80735 260.806 3.43328C260.443 3.05921 260.008 2.76189 259.528 2.55892C259.048 2.35596 258.532 2.25154 258.011 2.25177V2.36902Z" fill="black"/>
<path d="M296.876 12.4783C295.641 12.4783 294.434 12.1118 293.408 11.4252C292.381 10.7386 291.581 9.76279 291.11 8.62136C290.638 7.47994 290.516 6.22426 290.759 5.01335C291.001 3.80243 291.598 2.69076 292.473 1.81914C293.348 0.947518 294.462 0.355111 295.674 0.117027C296.885 -0.121057 298.141 0.00590354 299.28 0.48173C300.42 0.957556 301.393 1.76088 302.075 2.78999C302.758 3.81909 303.12 5.02766 303.115 6.26264C303.115 7.08088 302.954 7.89105 302.64 8.6467C302.326 9.40236 301.866 10.0886 301.287 10.6661C300.707 11.2436 300.019 11.7009 299.262 12.0119C298.505 12.3229 297.695 12.4814 296.876 12.4783ZM296.876 2.36902C296.106 2.36902 295.353 2.59736 294.713 3.0252C294.073 3.45304 293.574 4.06116 293.279 4.77262C292.984 5.48409 292.907 6.26697 293.058 7.02226C293.208 7.77754 293.579 8.47131 294.123 9.01584C294.668 9.56038 295.361 9.93116 296.117 10.0814C296.872 10.2316 297.655 10.1545 298.366 9.85985C299.078 9.56515 299.686 9.06611 300.114 8.42581C300.542 7.7855 300.77 7.03273 300.77 6.26264C300.786 5.74154 300.697 5.22256 300.508 4.73655C300.319 4.25053 300.035 3.80735 299.672 3.43328C299.309 3.05921 298.874 2.76189 298.394 2.55892C297.914 2.35596 297.398 2.25154 296.876 2.25177V2.36902Z" fill="black"/>
<path d="M240.044 1.07861H237.698V11.1879H240.044V1.07861Z" fill="black"/>
<path d="M243.937 4.97266H233.828V7.31821H243.937V4.97266Z" fill="black"/>
<path d="M373.646 12.4786C372.42 12.46 371.227 12.0807 370.216 11.3881C369.204 10.6954 368.419 9.72018 367.958 8.58404C367.498 7.44789 367.382 6.20125 367.626 4.99978C367.87 3.79832 368.462 2.69528 369.329 1.82841C370.196 0.961541 371.299 0.369233 372.5 0.125511C373.702 -0.118211 374.948 -0.00254983 376.085 0.458002C377.221 0.918554 378.196 1.70363 378.889 2.71515C379.581 3.72668 379.961 4.91978 379.979 6.14557C379.992 6.98073 379.837 7.80996 379.523 8.58404C379.209 9.35811 378.743 10.0613 378.152 10.6519C377.562 11.2425 376.859 11.7086 376.085 12.0223C375.31 12.3361 374.481 12.4912 373.646 12.4786ZM373.646 2.36927C373.111 2.32764 372.573 2.39707 372.066 2.57328C371.559 2.74948 371.094 3.02863 370.7 3.39316C370.306 3.75769 369.991 4.19981 369.777 4.69163C369.562 5.18346 369.451 5.71439 369.451 6.25116C369.451 6.78792 369.562 7.31886 369.777 7.81068C369.991 8.3025 370.306 8.74462 370.7 9.10915C371.094 9.47368 371.559 9.75276 372.066 9.92896C372.573 10.1052 373.111 10.1747 373.646 10.133C374.624 10.057 375.536 9.61502 376.202 8.89541C376.868 8.1758 377.238 7.23153 377.238 6.25116C377.238 5.27078 376.868 4.32651 376.202 3.6069C375.536 2.88729 374.624 2.44531 373.646 2.36927Z" fill="black"/>
<path d="M355.585 1.07861H353.24V11.1879H355.585V1.07861Z" fill="black"/>
<path d="M359.456 4.97266H349.346V7.31821H359.456V4.97266Z" fill="black"/>
<path d="M421.473 13.4783C420.237 13.4829 419.027 13.1203 417.997 12.4366C416.968 11.7528 416.165 10.7786 415.689 9.63763C415.214 8.49662 415.089 7.24014 415.329 6.02768C415.569 4.81522 416.163 3.70136 417.037 2.82739C417.911 1.95341 419.025 1.35875 420.238 1.11876C421.45 0.878769 422.707 1.00425 423.848 1.47938C424.989 1.95452 425.963 2.75789 426.647 3.7875C427.33 4.81711 427.693 6.02661 427.688 7.26259C427.682 8.90919 427.025 10.4866 425.861 11.6509C424.697 12.8152 423.119 13.4721 421.473 13.4783ZM421.473 3.36897C420.701 3.36432 419.946 3.58869 419.303 4.01369C418.66 4.43869 418.157 5.0452 417.859 5.75625C417.56 6.46729 417.48 7.25084 417.627 8.00767C417.775 8.76449 418.144 9.46046 418.688 10.0073C419.231 10.5542 419.925 10.9274 420.681 11.0795C421.437 11.2317 422.221 11.156 422.934 10.862C423.646 10.568 424.256 10.069 424.685 9.42818C425.114 8.78738 425.343 8.03367 425.343 7.26259C425.358 6.74346 425.27 6.22639 425.083 5.74193C424.896 5.25747 424.613 4.81535 424.253 4.4416C423.892 4.06785 423.46 3.77003 422.983 3.56567C422.505 3.36131 421.992 3.25461 421.473 3.25172V3.36897Z" fill="#150035"/>
<path d="M406.039 13.4782H398.346C397.723 13.4782 397.127 13.2311 396.687 12.7912C396.247 12.3513 396 11.7548 396 11.1327V3.48618C396 2.8641 396.247 2.26753 396.687 1.82765C397.127 1.38778 397.723 1.14062 398.346 1.14062H406.039C406.661 1.14062 407.258 1.38778 407.698 1.82765C408.137 2.26753 408.385 2.8641 408.385 3.48618V11.1327C408.385 11.7548 408.137 12.3513 407.698 12.7912C407.258 13.2311 406.661 13.4782 406.039 13.4782ZM398.346 3.25168V10.9685H406.039V3.32204L398.346 3.25168Z" fill="#150035"/>
<path d="M522.66 13.4782H515.13C514.508 13.4782 513.912 13.2311 513.472 12.7912C513.032 12.3513 512.785 11.7548 512.785 11.1327V3.48618C512.785 2.8641 513.032 2.26753 513.472 1.82765C513.912 1.38778 514.508 1.14062 515.13 1.14062H522.66C523.282 1.14062 523.878 1.38778 524.318 1.82765C524.758 2.26753 525.005 2.8641 525.005 3.48618V11.1327C525.005 11.7548 524.758 12.3513 524.318 12.7912C523.878 13.2311 523.282 13.4782 522.66 13.4782ZM515.037 3.36893V11.0858L522.66 11.1327V3.48618L515.037 3.36893Z" fill="black"/>
<path d="M460.221 13.4786C458.987 13.497 457.776 13.1491 456.74 12.479C455.704 11.8089 454.889 10.8466 454.4 9.71381C453.911 8.581 453.769 7.32858 453.991 6.11488C454.214 4.90118 454.791 3.78073 455.65 2.89519C456.51 2.00965 457.612 1.39882 458.819 1.13989C460.025 0.880961 461.281 0.985585 462.428 1.44053C463.575 1.89548 464.562 2.68025 465.263 3.69575C465.964 4.71124 466.348 5.91178 466.367 7.14557C466.382 7.96575 466.235 8.78091 465.934 9.54402C465.633 10.3071 465.184 11.0031 464.613 11.5919C464.041 12.1806 463.359 12.6504 462.606 12.9742C461.852 13.298 461.041 13.4694 460.221 13.4786ZM460.221 3.36927C459.442 3.35084 458.676 3.56644 458.021 3.98815C457.366 4.40987 456.853 5.0183 456.547 5.73486C456.242 6.45142 456.158 7.24315 456.308 8.00768C456.457 8.77221 456.832 9.47437 457.384 10.0235C457.937 10.5726 458.641 10.9434 459.407 11.0879C460.172 11.2324 460.964 11.1439 461.678 10.834C462.393 10.5241 462.998 10.0069 463.416 9.34939C463.833 8.69186 464.044 7.92418 464.021 7.14557C464.021 6.12897 463.624 5.15264 462.914 4.42508C462.204 3.69752 461.237 3.27651 460.221 3.25202V3.36927Z" fill="#150035"/>
<path d="M499.415 13.4783C498.179 13.4829 496.97 13.1203 495.94 12.4366C494.911 11.7528 494.107 10.7786 493.632 9.63763C493.157 8.49662 493.032 7.24014 493.272 6.02768C493.512 4.81522 494.106 3.70136 494.98 2.82739C495.854 1.95341 496.968 1.35875 498.181 1.11876C499.393 0.878769 500.649 1.00425 501.79 1.47938C502.931 1.95452 503.906 2.75789 504.589 3.7875C505.273 4.81711 505.636 6.02661 505.631 7.26259C505.625 8.90919 504.968 10.4866 503.804 11.6509C502.639 12.8152 501.062 13.4721 499.415 13.4783ZM499.415 3.36897C498.88 3.32734 498.342 3.39677 497.835 3.57297C497.328 3.74917 496.863 4.02832 496.469 4.39285C496.075 4.75739 495.761 5.1995 495.546 5.69132C495.331 6.18315 495.22 6.71408 495.22 7.25085C495.22 7.78761 495.331 8.31855 495.546 8.81037C495.761 9.3022 496.075 9.74431 496.469 10.1088C496.863 10.4734 497.328 10.7524 497.835 10.9287C498.342 11.1049 498.88 11.1744 499.415 11.1327C500.393 11.0567 501.306 10.6147 501.971 9.8951C502.637 9.17549 503.007 8.23122 503.007 7.25085C503.007 6.27047 502.637 5.3262 501.971 4.60659C501.306 3.88698 500.393 3.445 499.415 3.36897Z" fill="black"/>
<path d="M538.187 13.4783C536.951 13.4829 535.742 13.1203 534.712 12.4366C533.683 11.7528 532.879 10.7786 532.404 9.63763C531.929 8.49662 531.804 7.24014 532.044 6.02768C532.284 4.81522 532.878 3.70136 533.752 2.82739C534.626 1.95341 535.74 1.35875 536.953 1.11876C538.165 0.878769 539.421 1.00425 540.562 1.47938C541.703 1.95452 542.678 2.75789 543.361 3.7875C544.045 4.81711 544.408 6.02661 544.403 7.26259C544.397 8.90919 543.74 10.4866 542.576 11.6509C541.411 12.8152 539.834 13.4721 538.187 13.4783ZM538.187 3.36897C537.416 3.36432 536.661 3.58869 536.018 4.01369C535.374 4.43869 534.872 5.0452 534.573 5.75625C534.275 6.46729 534.195 7.25084 534.342 8.00767C534.49 8.76449 534.859 9.46046 535.402 10.0073C535.946 10.5542 536.64 10.9274 537.396 11.0795C538.152 11.2317 538.936 11.156 539.648 10.862C540.361 10.568 540.971 10.069 541.4 9.42818C541.829 8.78738 542.058 8.03367 542.058 7.26259C542.073 6.74346 541.985 6.22639 541.798 5.74193C541.61 5.25747 541.328 4.81535 540.968 4.4416C540.607 4.06785 540.175 3.77003 539.698 3.56567C539.22 3.36131 538.707 3.25461 538.187 3.25172V3.36897Z" fill="black"/>
<path d="M481.355 2.07861H479.009V12.1879H481.355V2.07861Z" fill="#150035"/>
<path d="M485.225 5.97266H475.115V8.31821H485.225V5.97266Z" fill="#150035"/>
<path d="M576.162 13.4783C574.927 13.4783 573.72 13.1118 572.693 12.4252C571.666 11.7386 570.867 10.7628 570.395 9.62136C569.924 8.47994 569.802 7.22426 570.044 6.01335C570.287 4.80243 570.883 3.69076 571.758 2.81914C572.633 1.94752 573.747 1.35511 574.959 1.11703C576.171 0.878943 577.426 1.0059 578.566 1.48173C579.705 1.95756 580.678 2.76088 581.361 3.78999C582.044 4.81909 582.406 6.02766 582.401 7.26264C582.401 8.08088 582.239 8.89105 581.926 9.6467C581.612 10.4024 581.152 11.0886 580.572 11.6661C579.992 12.2436 579.304 12.7009 578.548 13.0119C577.791 13.3229 576.98 13.4814 576.162 13.4783ZM576.162 3.36902C575.392 3.36902 574.639 3.59736 573.999 4.0252C573.358 4.45304 572.859 5.06116 572.564 5.77262C572.27 6.48409 572.193 7.26697 572.343 8.02226C572.493 8.77754 572.864 9.47131 573.409 10.0158C573.953 10.5604 574.647 10.9312 575.402 11.0814C576.157 11.2316 576.94 11.1545 577.652 10.8598C578.363 10.5652 578.971 10.0661 579.399 9.42581C579.827 8.7855 580.055 8.03273 580.055 7.26264C580.071 6.74154 579.982 6.22256 579.793 5.73655C579.605 5.25053 579.32 4.80735 578.957 4.43328C578.594 4.05921 578.16 3.76189 577.679 3.55892C577.199 3.35596 576.683 3.25154 576.162 3.25177V3.36902Z" fill="black"/>
<path d="M677.466 13.4782H669.82C669.197 13.4782 668.601 13.2311 668.161 12.7912C667.721 12.3513 667.474 11.7548 667.474 11.1327V3.48618C667.474 2.8641 667.721 2.26753 668.161 1.82765C668.601 1.38778 669.197 1.14062 669.82 1.14062H677.466C678.088 1.14062 678.685 1.38778 679.125 1.82765C679.564 2.26753 679.812 2.8641 679.812 3.48618V11.1327C679.812 11.7548 679.564 12.3513 679.125 12.7912C678.685 13.2311 678.088 13.4782 677.466 13.4782ZM669.82 3.36893V11.0858H677.513V3.43929L669.82 3.36893Z" fill="black"/>
<path d="M560.752 13.4782H553.152C552.53 13.4782 551.933 13.2311 551.493 12.7912C551.054 12.3513 550.806 11.7548 550.806 11.1327V3.48618C550.806 2.8641 551.054 2.26753 551.493 1.82765C551.933 1.38778 552.53 1.14062 553.152 1.14062H560.798C561.421 1.14062 562.017 1.38778 562.457 1.82765C562.897 2.26753 563.144 2.8641 563.144 3.48618V11.1327C563.144 11.4447 563.082 11.7536 562.961 12.0413C562.84 12.3289 562.663 12.5896 562.44 12.808C562.218 13.0265 561.954 13.1982 561.664 13.3133C561.374 13.4284 561.063 13.4845 560.752 13.4782ZM553.152 3.25168V10.9685H560.845V3.32204L553.152 3.25168Z" fill="black"/>
<path d="M614.934 13.4783C613.704 13.4782 612.501 13.1145 611.477 12.433C610.454 11.7515 609.654 10.7826 609.179 9.64798C608.704 8.51338 608.575 7.26372 608.809 6.05607C609.042 4.84842 609.627 3.73661 610.49 2.86043C611.353 1.98425 612.456 1.38277 613.66 1.13154C614.864 0.880313 616.116 0.990557 617.257 1.44843C618.399 1.9063 619.379 2.6914 620.076 3.70501C620.773 4.71861 621.154 5.91548 621.173 7.14531C621.189 7.97336 621.039 8.79618 620.732 9.56544C620.425 10.3347 619.967 11.0349 619.386 11.6249C618.805 12.2149 618.112 12.6827 617.347 13.001C616.582 13.3193 615.762 13.4816 614.934 13.4783ZM614.934 3.36901C614.159 3.36936 613.401 3.60096 612.759 4.0342C612.116 4.46745 611.618 5.08263 611.327 5.80095C611.036 6.51928 610.966 7.3081 611.126 8.06641C611.286 8.82472 611.668 9.51799 612.225 10.0576C612.781 10.5971 613.486 10.9584 614.249 11.0951C615.011 11.2318 615.798 11.1379 616.507 10.8251C617.216 10.5124 617.816 9.99508 618.229 9.33954C618.642 8.684 618.851 7.91996 618.827 7.14531C618.827 6.63399 618.727 6.12768 618.531 5.65529C618.335 5.18289 618.049 4.75366 617.687 4.39211C617.325 4.03055 616.896 3.74377 616.424 3.5481C615.951 3.35243 615.445 3.25176 614.934 3.25176V3.36901Z" fill="black"/>
<path d="M596.873 2.07861H594.527V12.1879H596.873V2.07861Z" fill="black"/>
<path d="M600.767 5.97266H590.657V8.31821H600.767V5.97266Z" fill="black"/>
<path d="M654.011 13.4783C652.776 13.4783 651.568 13.1118 650.542 12.4252C649.515 11.7386 648.716 10.7628 648.244 9.62136C647.773 8.47994 647.65 7.22426 647.893 6.01335C648.136 4.80243 648.732 3.69076 649.607 2.81914C650.482 1.94752 651.596 1.35511 652.808 1.11703C654.02 0.878943 655.275 1.0059 656.415 1.48173C657.554 1.95756 658.527 2.76088 659.21 3.78999C659.892 4.81909 660.254 6.02766 660.25 7.26264C660.25 8.08088 660.088 8.89105 659.774 9.6467C659.461 10.4024 659.001 11.0886 658.421 11.6661C657.841 12.2436 657.153 12.7009 656.396 13.0119C655.64 13.3229 654.829 13.4814 654.011 13.4783ZM654.011 3.36902C653.241 3.36902 652.488 3.59736 651.847 4.0252C651.207 4.45304 650.708 5.06116 650.413 5.77262C650.119 6.48409 650.042 7.26697 650.192 8.02226C650.342 8.77754 650.713 9.47131 651.257 10.0158C651.802 10.5604 652.496 10.9312 653.251 11.0814C654.006 11.2316 654.789 11.1545 655.501 10.8598C656.212 10.5652 656.82 10.0661 657.248 9.42581C657.676 8.7855 657.904 8.03273 657.904 7.26264C657.92 6.74154 657.831 6.22256 657.642 5.73655C657.454 5.25053 657.169 4.80735 656.806 4.43328C656.443 4.05921 656.008 3.76189 655.528 3.55892C655.048 3.35596 654.532 3.25154 654.011 3.25177V3.36902Z" fill="black"/>
<path d="M692.876 13.4783C691.641 13.4783 690.434 13.1118 689.408 12.4252C688.381 11.7386 687.581 10.7628 687.11 9.62136C686.638 8.47994 686.516 7.22426 686.759 6.01335C687.001 4.80243 687.598 3.69076 688.473 2.81914C689.348 1.94752 690.462 1.35511 691.674 1.11703C692.885 0.878943 694.141 1.0059 695.28 1.48173C696.42 1.95756 697.393 2.76088 698.075 3.78999C698.758 4.81909 699.12 6.02766 699.115 7.26264C699.115 8.08088 698.954 8.89105 698.64 9.6467C698.326 10.4024 697.866 11.0886 697.287 11.6661C696.707 12.2436 696.019 12.7009 695.262 13.0119C694.505 13.3229 693.695 13.4814 692.876 13.4783ZM692.876 3.36902C692.106 3.36902 691.353 3.59736 690.713 4.0252C690.073 4.45304 689.574 5.06116 689.279 5.77262C688.984 6.48409 688.907 7.26697 689.058 8.02226C689.208 8.77754 689.579 9.47131 690.123 10.0158C690.668 10.5604 691.361 10.9312 692.117 11.0814C692.872 11.2316 693.655 11.1545 694.366 10.8598C695.078 10.5652 695.686 10.0661 696.114 9.42581C696.542 8.7855 696.77 8.03273 696.77 7.26264C696.786 6.74154 696.697 6.22256 696.508 5.73655C696.319 5.25053 696.035 4.80735 695.672 4.43328C695.309 4.05921 694.874 3.76189 694.394 3.55892C693.914 3.35596 693.398 3.25154 692.876 3.25177V3.36902Z" fill="black"/>
<path d="M636.044 2.07861H633.698V12.1879H636.044V2.07861Z" fill="black"/>
<path d="M639.937 5.97266H629.828V8.31821H639.937V5.97266Z" fill="black"/>
<path d="M769.646 13.4786C768.42 13.46 767.227 13.0807 766.216 12.3881C765.204 11.6954 764.419 10.7202 763.958 9.58404C763.498 8.44789 763.382 7.20125 763.626 5.99978C763.87 4.79832 764.462 3.69528 765.329 2.82841C766.196 1.96154 767.299 1.36923 768.5 1.12551C769.702 0.881789 770.948 0.99745 772.085 1.458C773.221 1.91855 774.196 2.70363 774.889 3.71515C775.581 4.72668 775.961 5.91978 775.979 7.14557C775.992 7.98073 775.837 8.80996 775.523 9.58404C775.209 10.3581 774.743 11.0613 774.152 11.6519C773.562 12.2425 772.859 12.7086 772.085 13.0223C771.31 13.3361 770.481 13.4912 769.646 13.4786ZM769.646 3.36927C769.111 3.32764 768.573 3.39707 768.066 3.57328C767.559 3.74948 767.094 4.02863 766.7 4.39316C766.306 4.75769 765.991 5.19981 765.777 5.69163C765.562 6.18346 765.451 6.71439 765.451 7.25116C765.451 7.78792 765.562 8.31886 765.777 8.81068C765.991 9.3025 766.306 9.74462 766.7 10.1091C767.094 10.4737 767.559 10.7528 768.066 10.929C768.573 11.1052 769.111 11.1747 769.646 11.133C770.624 11.057 771.536 10.615 772.202 9.89541C772.868 9.1758 773.238 8.23153 773.238 7.25116C773.238 6.27078 772.868 5.32651 772.202 4.6069C771.536 3.88729 770.624 3.44531 769.646 3.36927Z" fill="black"/>
<path d="M751.585 2.07861H749.24V12.1879H751.585V2.07861Z" fill="black"/>
<path d="M755.456 5.97266H745.346V8.31821H755.456V5.97266Z" fill="black"/>
<path d="M810.473 13.4783C809.237 13.4829 808.027 13.1203 806.997 12.4366C805.968 11.7528 805.165 10.7786 804.689 9.63763C804.214 8.49662 804.089 7.24014 804.329 6.02768C804.569 4.81522 805.163 3.70136 806.037 2.82739C806.911 1.95341 808.025 1.35875 809.238 1.11876C810.45 0.878769 811.707 1.00425 812.848 1.47938C813.989 1.95452 814.963 2.75789 815.647 3.7875C816.33 4.81711 816.693 6.02661 816.688 7.26259C816.682 8.90919 816.025 10.4866 814.861 11.6509C813.697 12.8152 812.119 13.4721 810.473 13.4783ZM810.473 3.36897C809.701 3.36432 808.946 3.58869 808.303 4.01369C807.66 4.43869 807.157 5.0452 806.859 5.75625C806.56 6.46729 806.48 7.25084 806.627 8.00767C806.775 8.76449 807.144 9.46046 807.688 10.0073C808.231 10.5542 808.925 10.9274 809.681 11.0795C810.437 11.2317 811.221 11.156 811.934 10.862C812.646 10.568 813.256 10.069 813.685 9.42818C814.114 8.78738 814.343 8.03367 814.343 7.26259C814.358 6.74346 814.27 6.22639 814.083 5.74193C813.896 5.25747 813.613 4.81535 813.253 4.4416C812.892 4.06785 812.46 3.77003 811.983 3.56567C811.505 3.36131 810.992 3.25461 810.473 3.25172V3.36897Z" fill="#150035"/>
<path d="M795.039 13.4782H787.346C786.723 13.4782 786.127 13.2311 785.687 12.7912C785.247 12.3513 785 11.7548 785 11.1327V3.48618C785 2.8641 785.247 2.26753 785.687 1.82765C786.127 1.38778 786.723 1.14062 787.346 1.14062H795.039C795.661 1.14062 796.258 1.38778 796.698 1.82765C797.137 2.26753 797.385 2.8641 797.385 3.48618V11.1327C797.385 11.7548 797.137 12.3513 796.698 12.7912C796.258 13.2311 795.661 13.4782 795.039 13.4782ZM787.346 3.25168V10.9685H795.039V3.32204L787.346 3.25168Z" fill="#150035"/>
<path d="M911.66 13.4782H904.13C903.508 13.4782 902.912 13.2311 902.472 12.7912C902.032 12.3513 901.785 11.7548 901.785 11.1327V3.48618C901.785 2.8641 902.032 2.26753 902.472 1.82765C902.912 1.38778 903.508 1.14062 904.13 1.14062H911.66C912.282 1.14062 912.878 1.38778 913.318 1.82765C913.758 2.26753 914.005 2.8641 914.005 3.48618V11.1327C914.005 11.7548 913.758 12.3513 913.318 12.7912C912.878 13.2311 912.282 13.4782 911.66 13.4782ZM904.037 3.36893V11.0858L911.66 11.1327V3.48618L904.037 3.36893Z" fill="black"/>
<path d="M849.221 13.4786C847.987 13.497 846.776 13.1491 845.74 12.479C844.704 11.8089 843.889 10.8466 843.4 9.71381C842.911 8.581 842.769 7.32858 842.991 6.11488C843.214 4.90118 843.791 3.78073 844.65 2.89519C845.51 2.00965 846.612 1.39882 847.819 1.13989C849.025 0.880961 850.281 0.985585 851.428 1.44053C852.575 1.89548 853.562 2.68025 854.263 3.69575C854.964 4.71124 855.348 5.91178 855.367 7.14557C855.382 7.96575 855.235 8.78091 854.934 9.54402C854.633 10.3071 854.184 11.0031 853.613 11.5919C853.041 12.1806 852.359 12.6504 851.606 12.9742C850.852 13.298 850.041 13.4694 849.221 13.4786ZM849.221 3.36927C848.442 3.35084 847.676 3.56644 847.021 3.98815C846.366 4.40987 845.853 5.0183 845.547 5.73486C845.242 6.45142 845.158 7.24315 845.308 8.00768C845.457 8.77221 845.832 9.47437 846.384 10.0235C846.937 10.5726 847.641 10.9434 848.407 11.0879C849.172 11.2324 849.964 11.1439 850.678 10.834C851.393 10.5241 851.998 10.0069 852.416 9.34939C852.833 8.69186 853.044 7.92418 853.021 7.14557C853.021 6.12897 852.624 5.15264 851.914 4.42508C851.204 3.69752 850.237 3.27651 849.221 3.25202V3.36927Z" fill="#150035"/>
<path d="M888.415 13.4783C887.179 13.4829 885.97 13.1203 884.94 12.4366C883.911 11.7528 883.107 10.7786 882.632 9.63763C882.157 8.49662 882.032 7.24014 882.272 6.02768C882.512 4.81522 883.106 3.70136 883.98 2.82739C884.854 1.95341 885.968 1.35875 887.181 1.11876C888.393 0.878769 889.649 1.00425 890.79 1.47938C891.931 1.95452 892.906 2.75789 893.589 3.7875C894.273 4.81711 894.636 6.02661 894.631 7.26259C894.625 8.90919 893.968 10.4866 892.804 11.6509C891.639 12.8152 890.062 13.4721 888.415 13.4783ZM888.415 3.36897C887.88 3.32734 887.342 3.39677 886.835 3.57297C886.328 3.74917 885.863 4.02832 885.469 4.39285C885.075 4.75739 884.761 5.1995 884.546 5.69132C884.331 6.18315 884.22 6.71408 884.22 7.25085C884.22 7.78761 884.331 8.31855 884.546 8.81037C884.761 9.3022 885.075 9.74431 885.469 10.1088C885.863 10.4734 886.328 10.7524 886.835 10.9287C887.342 11.1049 887.88 11.1744 888.415 11.1327C889.393 11.0567 890.306 10.6147 890.971 9.8951C891.637 9.17549 892.007 8.23122 892.007 7.25085C892.007 6.27047 891.637 5.3262 890.971 4.60659C890.306 3.88698 889.393 3.445 888.415 3.36897Z" fill="black"/>
<path d="M927.187 13.4783C925.951 13.4829 924.742 13.1203 923.712 12.4366C922.683 11.7528 921.879 10.7786 921.404 9.63763C920.929 8.49662 920.804 7.24014 921.044 6.02768C921.284 4.81522 921.878 3.70136 922.752 2.82739C923.626 1.95341 924.74 1.35875 925.953 1.11876C927.165 0.878769 928.421 1.00425 929.562 1.47938C930.703 1.95452 931.678 2.75789 932.361 3.7875C933.045 4.81711 933.408 6.02661 933.403 7.26259C933.397 8.90919 932.74 10.4866 931.576 11.6509C930.411 12.8152 928.834 13.4721 927.187 13.4783ZM927.187 3.36897C926.416 3.36432 925.661 3.58869 925.018 4.01369C924.374 4.43869 923.872 5.0452 923.573 5.75625C923.275 6.46729 923.195 7.25084 923.342 8.00767C923.49 8.76449 923.859 9.46046 924.402 10.0073C924.946 10.5542 925.64 10.9274 926.396 11.0795C927.152 11.2317 927.936 11.156 928.648 10.862C929.361 10.568 929.971 10.069 930.4 9.42818C930.829 8.78738 931.058 8.03367 931.058 7.26259C931.073 6.74346 930.985 6.22639 930.798 5.74193C930.61 5.25747 930.328 4.81535 929.968 4.4416C929.607 4.06785 929.175 3.77003 928.698 3.56567C928.22 3.36131 927.707 3.25461 927.187 3.25172V3.36897Z" fill="black"/>
<path d="M870.355 2.07861H868.009V12.1879H870.355V2.07861Z" fill="#150035"/>
<path d="M874.225 5.97266H864.115V8.31821H874.225V5.97266Z" fill="#150035"/>
<path d="M965.162 13.4783C963.927 13.4783 962.72 13.1118 961.693 12.4252C960.666 11.7386 959.867 10.7628 959.395 9.62136C958.924 8.47994 958.802 7.22426 959.044 6.01335C959.287 4.80243 959.883 3.69076 960.758 2.81914C961.633 1.94752 962.747 1.35511 963.959 1.11703C965.171 0.878943 966.426 1.0059 967.566 1.48173C968.705 1.95756 969.678 2.76088 970.361 3.78999C971.044 4.81909 971.406 6.02766 971.401 7.26264C971.401 8.08088 971.239 8.89105 970.926 9.6467C970.612 10.4024 970.152 11.0886 969.572 11.6661C968.992 12.2436 968.304 12.7009 967.548 13.0119C966.791 13.3229 965.98 13.4814 965.162 13.4783ZM965.162 3.36902C964.392 3.36902 963.639 3.59736 962.999 4.0252C962.358 4.45304 961.859 5.06116 961.564 5.77262C961.27 6.48409 961.193 7.26697 961.343 8.02226C961.493 8.77754 961.864 9.47131 962.409 10.0158C962.953 10.5604 963.647 10.9312 964.402 11.0814C965.157 11.2316 965.94 11.1545 966.652 10.8598C967.363 10.5652 967.971 10.0661 968.399 9.42581C968.827 8.7855 969.055 8.03273 969.055 7.26264C969.071 6.74154 968.982 6.22256 968.793 5.73655C968.605 5.25053 968.32 4.80735 967.957 4.43328C967.594 4.05921 967.16 3.76189 966.679 3.55892C966.199 3.35596 965.683 3.25154 965.162 3.25177V3.36902Z" fill="black"/>
<path d="M1066.47 13.4782H1058.82C1058.2 13.4782 1057.6 13.2311 1057.16 12.7912C1056.72 12.3513 1056.47 11.7548 1056.47 11.1327V3.48618C1056.47 2.8641 1056.72 2.26753 1057.16 1.82765C1057.6 1.38778 1058.2 1.14062 1058.82 1.14062H1066.47C1067.09 1.14062 1067.68 1.38778 1068.12 1.82765C1068.56 2.26753 1068.81 2.8641 1068.81 3.48618V11.1327C1068.81 11.7548 1068.56 12.3513 1068.12 12.7912C1067.68 13.2311 1067.09 13.4782 1066.47 13.4782ZM1058.82 3.36893V11.0858H1066.51V3.43929L1058.82 3.36893Z" fill="black"/>
<path d="M949.752 13.4782H942.152C941.53 13.4782 940.933 13.2311 940.493 12.7912C940.054 12.3513 939.806 11.7548 939.806 11.1327V3.48618C939.806 2.8641 940.054 2.26753 940.493 1.82765C940.933 1.38778 941.53 1.14062 942.152 1.14062H949.798C950.421 1.14062 951.017 1.38778 951.457 1.82765C951.897 2.26753 952.144 2.8641 952.144 3.48618V11.1327C952.144 11.4447 952.082 11.7536 951.961 12.0413C951.84 12.3289 951.663 12.5896 951.44 12.808C951.218 13.0265 950.954 13.1982 950.664 13.3133C950.374 13.4284 950.063 13.4845 949.752 13.4782ZM942.152 3.25168V10.9685H949.845V3.32204L942.152 3.25168Z" fill="black"/>
<path d="M1003.93 13.4783C1002.7 13.4782 1001.5 13.1145 1000.48 12.433C999.454 11.7515 998.654 10.7826 998.179 9.64798C997.704 8.51338 997.575 7.26372 997.809 6.05607C998.042 4.84842 998.627 3.73661 999.49 2.86043C1000.35 1.98425 1001.46 1.38277 1002.66 1.13154C1003.86 0.880313 1005.12 0.990557 1006.26 1.44843C1007.4 1.9063 1008.38 2.6914 1009.08 3.70501C1009.77 4.71861 1010.15 5.91548 1010.17 7.14531C1010.19 7.97336 1010.04 8.79618 1009.73 9.56544C1009.42 10.3347 1008.97 11.0349 1008.39 11.6249C1007.8 12.2149 1007.11 12.6827 1006.35 13.001C1005.58 13.3193 1004.76 13.4816 1003.93 13.4783ZM1003.93 3.36901C1003.16 3.36936 1002.4 3.60096 1001.76 4.0342C1001.12 4.46745 1000.62 5.08263 1000.33 5.80095C1000.04 6.51928 999.966 7.3081 1000.13 8.06641C1000.29 8.82472 1000.67 9.51799 1001.22 10.0576C1001.78 10.5971 1002.49 10.9584 1003.25 11.0951C1004.01 11.2318 1004.8 11.1379 1005.51 10.8251C1006.22 10.5124 1006.82 9.99508 1007.23 9.33954C1007.64 8.684 1007.85 7.91996 1007.83 7.14531C1007.83 6.63399 1007.73 6.12768 1007.53 5.65529C1007.34 5.18289 1007.05 4.75366 1006.69 4.39211C1006.33 4.03055 1005.9 3.74377 1005.42 3.5481C1004.95 3.35243 1004.45 3.25176 1003.93 3.25176V3.36901Z" fill="black"/>
<path d="M985.873 2.07861H983.527V12.1879H985.873V2.07861Z" fill="black"/>
<path d="M989.767 5.97266H979.657V8.31821H989.767V5.97266Z" fill="black"/>
<path d="M1043.01 13.4783C1041.78 13.4783 1040.57 13.1118 1039.54 12.4252C1038.52 11.7386 1037.72 10.7628 1037.24 9.62136C1036.77 8.47994 1036.65 7.22426 1036.89 6.01335C1037.14 4.80243 1037.73 3.69076 1038.61 2.81914C1039.48 1.94752 1040.6 1.35511 1041.81 1.11703C1043.02 0.878943 1044.27 1.0059 1045.41 1.48173C1046.55 1.95756 1047.53 2.76088 1048.21 3.78999C1048.89 4.81909 1049.25 6.02766 1049.25 7.26264C1049.25 8.08088 1049.09 8.89105 1048.77 9.6467C1048.46 10.4024 1048 11.0886 1047.42 11.6661C1046.84 12.2436 1046.15 12.7009 1045.4 13.0119C1044.64 13.3229 1043.83 13.4814 1043.01 13.4783ZM1043.01 3.36902C1042.24 3.36902 1041.49 3.59736 1040.85 4.0252C1040.21 4.45304 1039.71 5.06116 1039.41 5.77262C1039.12 6.48409 1039.04 7.26697 1039.19 8.02226C1039.34 8.77754 1039.71 9.47131 1040.26 10.0158C1040.8 10.5604 1041.5 10.9312 1042.25 11.0814C1043.01 11.2316 1043.79 11.1545 1044.5 10.8598C1045.21 10.5652 1045.82 10.0661 1046.25 9.42581C1046.68 8.7855 1046.9 8.03273 1046.9 7.26264C1046.92 6.74154 1046.83 6.22256 1046.64 5.73655C1046.45 5.25053 1046.17 4.80735 1045.81 4.43328C1045.44 4.05921 1045.01 3.76189 1044.53 3.55892C1044.05 3.35596 1043.53 3.25154 1043.01 3.25177V3.36902Z" fill="black"/>
<path d="M1081.88 13.4783C1080.64 13.4783 1079.43 13.1118 1078.41 12.4252C1077.38 11.7386 1076.58 10.7628 1076.11 9.62136C1075.64 8.47994 1075.52 7.22426 1075.76 6.01335C1076 4.80243 1076.6 3.69076 1077.47 2.81914C1078.35 1.94752 1079.46 1.35511 1080.67 1.11703C1081.89 0.878943 1083.14 1.0059 1084.28 1.48173C1085.42 1.95756 1086.39 2.76088 1087.08 3.78999C1087.76 4.81909 1088.12 6.02766 1088.12 7.26264C1088.12 8.08088 1087.95 8.89105 1087.64 9.6467C1087.33 10.4024 1086.87 11.0886 1086.29 11.6661C1085.71 12.2436 1085.02 12.7009 1084.26 13.0119C1083.51 13.3229 1082.69 13.4814 1081.88 13.4783ZM1081.88 3.36902C1081.11 3.36902 1080.35 3.59736 1079.71 4.0252C1079.07 4.45304 1078.57 5.06116 1078.28 5.77262C1077.98 6.48409 1077.91 7.26697 1078.06 8.02226C1078.21 8.77754 1078.58 9.47131 1079.12 10.0158C1079.67 10.5604 1080.36 10.9312 1081.12 11.0814C1081.87 11.2316 1082.65 11.1545 1083.37 10.8598C1084.08 10.5652 1084.69 10.0661 1085.11 9.42581C1085.54 8.7855 1085.77 8.03273 1085.77 7.26264C1085.79 6.74154 1085.7 6.22256 1085.51 5.73655C1085.32 5.25053 1085.03 4.80735 1084.67 4.43328C1084.31 4.05921 1083.87 3.76189 1083.39 3.55892C1082.91 3.35596 1082.4 3.25154 1081.88 3.25177V3.36902Z" fill="black"/>
<path d="M1025.04 2.07861H1022.7V12.1879H1025.04V2.07861Z" fill="black"/>
<path d="M1028.94 5.97266H1018.83V8.31821H1028.94V5.97266Z" fill="black"/>
<path d="M1248.64 13.4782H1240.99C1240.37 13.4782 1239.77 13.2311 1239.33 12.7912C1238.89 12.3513 1238.65 11.7548 1238.65 11.1327V3.48618C1238.65 2.8641 1238.89 2.26753 1239.33 1.82765C1239.77 1.38778 1240.37 1.14062 1240.99 1.14062H1248.64C1249.26 1.14062 1249.86 1.38778 1250.3 1.82765C1250.74 2.26753 1250.98 2.8641 1250.98 3.48618V11.1327C1250.98 11.7548 1250.74 12.3513 1250.3 12.7912C1249.86 13.2311 1249.26 13.4782 1248.64 13.4782ZM1240.99 3.36893V11.0858H1248.69V3.43929L1240.99 3.36893Z" fill="black"/>
<path d="M1225.18 13.4783C1223.95 13.4783 1222.74 13.1118 1221.71 12.4252C1220.69 11.7386 1219.89 10.7628 1219.42 9.62136C1218.94 8.47994 1218.82 7.22426 1219.07 6.01335C1219.31 4.80243 1219.9 3.69076 1220.78 2.81914C1221.65 1.94752 1222.77 1.35511 1223.98 1.11703C1225.19 0.878943 1226.45 1.0059 1227.59 1.48173C1228.73 1.95756 1229.7 2.76088 1230.38 3.78999C1231.06 4.81909 1231.43 6.02766 1231.42 7.26264C1231.42 8.08088 1231.26 8.89105 1230.95 9.6467C1230.63 10.4024 1230.17 11.0886 1229.59 11.6661C1229.01 12.2436 1228.33 12.7009 1227.57 13.0119C1226.81 13.3229 1226 13.4814 1225.18 13.4783ZM1225.18 3.36902C1224.41 3.36902 1223.66 3.59736 1223.02 4.0252C1222.38 4.45304 1221.88 5.06116 1221.59 5.77262C1221.29 6.48409 1221.21 7.26697 1221.36 8.02226C1221.51 8.77754 1221.88 9.47131 1222.43 10.0158C1222.97 10.5604 1223.67 10.9312 1224.42 11.0814C1225.18 11.2316 1225.96 11.1545 1226.67 10.8598C1227.38 10.5652 1227.99 10.0661 1228.42 9.42581C1228.85 8.7855 1229.08 8.03273 1229.08 7.26264C1229.09 6.74154 1229 6.22256 1228.81 5.73655C1228.63 5.25053 1228.34 4.80735 1227.98 4.43328C1227.62 4.05921 1227.18 3.76189 1226.7 3.55892C1226.22 3.35596 1225.7 3.25154 1225.18 3.25177V3.36902Z" fill="black"/>
<path d="M1264.05 13.4783C1262.81 13.4783 1261.61 13.1118 1260.58 12.4252C1259.55 11.7386 1258.75 10.7628 1258.28 9.62136C1257.81 8.47994 1257.69 7.22426 1257.93 6.01335C1258.17 4.80243 1258.77 3.69076 1259.65 2.81914C1260.52 1.94752 1261.63 1.35511 1262.85 1.11703C1264.06 0.878943 1265.31 1.0059 1266.45 1.48173C1267.59 1.95756 1268.56 2.76088 1269.25 3.78999C1269.93 4.81909 1270.29 6.02766 1270.29 7.26264C1270.29 8.08088 1270.13 8.89105 1269.81 9.6467C1269.5 10.4024 1269.04 11.0886 1268.46 11.6661C1267.88 12.2436 1267.19 12.7009 1266.43 13.0119C1265.68 13.3229 1264.87 13.4814 1264.05 13.4783ZM1264.05 3.36902C1263.28 3.36902 1262.53 3.59736 1261.89 4.0252C1261.24 4.45304 1260.75 5.06116 1260.45 5.77262C1260.16 6.48409 1260.08 7.26697 1260.23 8.02226C1260.38 8.77754 1260.75 9.47131 1261.3 10.0158C1261.84 10.5604 1262.53 10.9312 1263.29 11.0814C1264.04 11.2316 1264.83 11.1545 1265.54 10.8598C1266.25 10.5652 1266.86 10.0661 1267.29 9.42581C1267.71 8.7855 1267.94 8.03273 1267.94 7.26264C1267.96 6.74154 1267.87 6.22256 1267.68 5.73655C1267.49 5.25053 1267.21 4.80735 1266.84 4.43328C1266.48 4.05921 1266.05 3.76189 1265.57 3.55892C1265.09 3.35596 1264.57 3.25154 1264.05 3.25177V3.36902Z" fill="black"/>
<path d="M1207.22 2.07861H1204.87V12.1879H1207.22V2.07861Z" fill="black"/>
<path d="M1211.11 5.97266H1201V8.31821H1211.11V5.97266Z" fill="black"/>
<path d="M1158.65 13.4786C1157.42 13.46 1156.23 13.0807 1155.22 12.3881C1154.2 11.6954 1153.42 10.7202 1152.96 9.58404C1152.5 8.44789 1152.38 7.20125 1152.63 5.99978C1152.87 4.79832 1153.46 3.69528 1154.33 2.82841C1155.2 1.96154 1156.3 1.36923 1157.5 1.12551C1158.7 0.881789 1159.95 0.99745 1161.08 1.458C1162.22 1.91855 1163.2 2.70363 1163.89 3.71515C1164.58 4.72668 1164.96 5.91978 1164.98 7.14557C1164.99 7.98073 1164.84 8.80996 1164.52 9.58404C1164.21 10.3581 1163.74 11.0613 1163.15 11.6519C1162.56 12.2425 1161.86 12.7086 1161.08 13.0223C1160.31 13.3361 1159.48 13.4912 1158.65 13.4786ZM1158.65 3.36927C1158.11 3.32764 1157.57 3.39707 1157.07 3.57328C1156.56 3.74948 1156.09 4.02863 1155.7 4.39316C1155.31 4.75769 1154.99 5.19981 1154.78 5.69163C1154.56 6.18346 1154.45 6.71439 1154.45 7.25116C1154.45 7.78792 1154.56 8.31886 1154.78 8.81068C1154.99 9.3025 1155.31 9.74462 1155.7 10.1091C1156.09 10.4737 1156.56 10.7528 1157.07 10.929C1157.57 11.1052 1158.11 11.1747 1158.65 11.133C1159.62 11.057 1160.54 10.615 1161.2 9.89541C1161.87 9.1758 1162.24 8.23153 1162.24 7.25116C1162.24 6.27078 1161.87 5.32651 1161.2 4.6069C1160.54 3.88729 1159.62 3.44531 1158.65 3.36927Z" fill="black"/>
<path d="M1140.59 2.07861H1138.24V12.1879H1140.59V2.07861Z" fill="black"/>
<path d="M1144.46 5.97266H1134.35V8.31821H1144.46V5.97266Z" fill="black"/>
</svg>
