<svg width="91" height="32" viewBox="0 0 91 32" fill="none" xmlns="http://www.w3.org/2000/svg">
<path d="M65.5273 12.5957C64.2913 12.6004 63.0818 12.2378 62.0522 11.554C61.0226 10.8702 60.2192 9.89604 59.744 8.75503C59.2689 7.61402 59.1434 6.3576 59.3834 5.14514C59.6234 3.93268 60.2181 2.81882 61.092 1.94484C61.966 1.07087 63.0799 0.47617 64.2924 0.236179C65.5049 -0.00381204 66.7612 0.12172 67.9022 0.596852C69.0432 1.07198 70.0175 1.87531 70.7013 2.90492C71.3851 3.93453 71.7476 5.14403 71.7429 6.38001C71.7367 8.02662 71.08 9.60402 69.9156 10.7684C68.7513 11.9327 67.1739 12.5895 65.5273 12.5957ZM65.5273 2.4864C64.7562 2.48175 64.0011 2.70615 63.3577 3.13116C62.7143 3.55616 62.2116 4.16262 61.9134 4.87366C61.6151 5.58471 61.5346 6.36831 61.6821 7.12514C61.8297 7.88196 62.1987 8.57793 62.7423 9.12481C63.2858 9.67169 63.9796 10.0449 64.7355 10.197C65.4914 10.3491 66.2756 10.2734 66.9884 9.97943C67.7012 9.68543 68.3107 9.1864 68.7396 8.5456C69.1684 7.9048 69.3974 7.15109 69.3974 6.38001C69.3974 5.35141 68.9904 4.36459 68.2653 3.63507C67.5401 2.90555 66.5559 2.49259 65.5273 2.4864Z" fill="#150035"/>
<path d="M69.3507 12.5959H61.6572C61.0351 12.5959 60.4386 12.3488 59.9987 11.9089C59.5588 11.4691 59.3116 10.8725 59.3116 10.2504V2.55698C59.3116 1.9349 59.5588 1.3383 59.9987 0.898422C60.4386 0.458546 61.0351 0.211426 61.6572 0.211426H69.3037C69.9258 0.211426 70.5224 0.458546 70.9622 0.898422C71.4021 1.3383 71.6493 1.9349 71.6493 2.55698V10.18C71.6586 10.49 71.6064 10.7988 71.4957 11.0884C71.3849 11.3781 71.2178 11.6429 71.004 11.8676C70.7903 12.0923 70.5341 12.2724 70.2503 12.3974C69.9665 12.5224 69.6607 12.5899 69.3507 12.5959ZM61.6572 2.48661V10.18H69.374V2.55698L61.6572 2.48661Z" fill="#150035"/>
<path d="M6.81806 12.5957C5.58208 12.6004 4.37258 12.2378 3.34297 11.554C2.31336 10.8702 1.51006 9.89604 1.03493 8.75503C0.559793 7.61402 0.434311 6.3576 0.674302 5.14514C0.914294 3.93268 1.50896 2.81882 2.38293 1.94484C3.2569 1.07087 4.37069 0.47617 5.58315 0.236179C6.79561 -0.00381204 8.05209 0.12172 9.1931 0.596852C10.3341 1.07198 11.3083 1.87531 11.992 2.90492C12.6758 3.93453 13.0385 5.14403 13.0338 6.38001C13.0338 8.02852 12.3789 9.60951 11.2132 10.7752C10.0476 11.9408 8.46657 12.5957 6.81806 12.5957ZM6.81806 2.4864C6.04699 2.48175 5.29198 2.70615 4.6486 3.13116C4.00522 3.55616 3.5024 4.16262 3.2041 4.87366C2.9058 5.58471 2.82546 6.36831 2.97304 7.12514C3.12062 7.88196 3.48956 8.57793 4.03315 9.12481C4.57673 9.67169 5.27046 10.0449 6.02638 10.197C6.7823 10.3491 7.56633 10.2734 8.27916 9.97943C8.99199 9.68543 9.60142 9.1864 10.0303 8.5456C10.4592 7.9048 10.6883 7.15109 10.6883 6.38001C10.6914 5.8698 10.5935 5.36402 10.4004 4.89176C10.2073 4.4195 9.92271 3.99008 9.56303 3.62822C9.20334 3.26635 8.77558 2.97918 8.3045 2.78322C7.83341 2.58726 7.32827 2.48639 6.81806 2.4864Z" fill="black"/>
<path d="M69.3507 31.9231H61.6572C61.0351 31.9231 60.4386 31.676 59.9987 31.2361C59.5588 30.7962 59.3116 30.1996 59.3116 29.5775V21.8607C59.3116 21.2386 59.5588 20.642 59.9987 20.2021C60.4386 19.7623 61.0351 19.5151 61.6572 19.5151H69.3037C69.9258 19.5151 70.5224 19.7623 70.9622 20.2021C71.4021 20.642 71.6493 21.2386 71.6493 21.8607V29.5072C71.6586 29.8172 71.6064 30.1259 71.4957 30.4156C71.3849 30.7053 71.2178 30.9701 71.004 31.1948C70.7903 31.4195 70.5341 31.5995 70.2503 31.7245C69.9665 31.8495 69.6607 31.917 69.3507 31.9231ZM61.6572 21.8138V29.5072H69.374V21.8607L61.6572 21.8138Z" fill="#150035"/>
<path d="M88.584 12.5959H80.9375C80.3154 12.5959 79.7188 12.3488 79.2789 11.9089C78.8391 11.4691 78.5919 10.8725 78.5919 10.2504V2.55698C78.5919 1.9349 78.8391 1.3383 79.2789 0.898422C79.7188 0.458546 80.3154 0.211426 80.9375 0.211426H88.584C89.2061 0.211426 89.8028 0.458546 90.2426 0.898422C90.6825 1.3383 90.9295 1.9349 90.9295 2.55698V10.18C90.939 10.4939 90.8853 10.8065 90.7716 11.0992C90.658 11.392 90.4867 11.6589 90.268 11.8842C90.0492 12.1096 89.7875 12.2886 89.4982 12.4109C89.209 12.5332 88.898 12.5961 88.584 12.5959ZM80.9375 2.48661V10.18H88.6309V2.55698L80.9375 2.48661Z" fill="#150035"/>
<path d="M27.9281 1.31372H25.5825V11.423H27.9281V1.31372Z" fill="black"/>
<path d="M31.8219 5.20703H21.7124V7.55258H31.8219V5.20703Z" fill="black"/>
<path d="M47.1617 20.6411H44.8162V30.7504H47.1617V20.6411Z" fill="black"/>
<path d="M51.0552 24.5107H40.9459V26.8563H51.0552V24.5107Z" fill="black"/>
<path d="M85.9336 20.6411H83.588V30.7504H85.9336V20.6411Z" fill="#150035"/>
<path d="M89.8272 24.5107H79.7179V26.8563H89.8272V24.5107Z" fill="#150035"/>
</svg>
