<svg width="450" height="32" viewBox="0 0 450 32" fill="none" xmlns="http://www.w3.org/2000/svg">
<path d="M443.622 31.7822C444.829 31.7822 446.009 31.4177 447.012 30.7347C448.015 30.0517 448.797 29.081 449.259 27.9452C449.721 26.8094 449.842 25.5596 449.606 24.3539C449.371 23.1482 448.79 22.0407 447.937 21.1714C447.083 20.3021 445.996 19.7101 444.813 19.4703C443.629 19.2304 442.402 19.3535 441.288 19.824C440.173 20.2944 439.22 21.0911 438.549 22.1133C437.879 23.1354 437.521 24.3372 437.521 25.5665C437.527 27.2131 438.172 28.7905 439.315 29.9549C440.458 31.1192 442.006 31.7761 443.622 31.7822ZM443.622 21.6964C444.374 21.6964 445.108 21.9234 445.733 22.3486C446.358 22.7739 446.845 23.3783 447.132 24.0855C447.42 24.7927 447.495 25.5708 447.348 26.3216C447.202 27.0723 446.84 27.7619 446.309 28.3032C445.777 28.8444 445.1 29.213 444.364 29.3623C443.627 29.5117 442.863 29.435 442.169 29.1421C441.474 28.8492 440.881 28.3531 440.464 27.7167C440.046 27.0802 439.824 26.332 439.824 25.5665C439.83 24.542 440.232 23.5612 440.943 22.8367C441.654 22.1123 442.617 21.7025 443.622 21.6964Z" fill="#150035"/>
<path d="M424.651 12.4783C425.863 12.4829 427.05 12.121 428.06 11.4382C429.07 10.7555 429.858 9.78269 430.326 8.64304C430.793 7.5034 430.917 6.24818 430.683 5.03636C430.45 3.82454 429.868 2.71064 429.013 1.83573C428.157 0.960817 427.066 0.364261 425.877 0.121614C424.689 -0.121033 423.456 0.0011463 422.336 0.472677C421.215 0.944207 420.258 1.74388 419.584 2.7704C418.91 3.79693 418.55 5.00414 418.55 6.23912C418.55 7.88979 419.192 9.47321 420.335 10.6426C421.479 11.812 423.031 12.4721 424.651 12.4783ZM424.651 2.36896C425.409 2.36433 426.151 2.58933 426.783 3.01537C427.415 3.44142 427.908 4.04928 428.201 4.76169C428.493 5.4741 428.57 6.25891 428.424 7.01638C428.277 7.77384 427.912 8.46977 427.377 9.01571C426.841 9.56165 426.158 9.93295 425.414 10.0824C424.67 10.2319 423.9 10.1528 423.201 9.85525C422.502 9.55765 421.905 9.05496 421.487 8.41108C421.069 7.76719 420.848 7.01118 420.852 6.23912C420.852 5.21269 421.252 4.2283 421.965 3.50251C422.677 2.77671 423.644 2.36896 424.651 2.36896Z" fill="#150035"/>
<path d="M386.686 31.7822C387.892 31.7822 389.072 31.4177 390.075 30.7347C391.079 30.0517 391.861 29.081 392.322 27.9452C392.784 26.8094 392.905 25.5596 392.67 24.3539C392.434 23.1482 391.853 22.0407 391 21.1714C390.146 20.3021 389.059 19.7101 387.876 19.4703C386.692 19.2304 385.466 19.3535 384.351 19.824C383.236 20.2944 382.283 21.0911 381.613 22.1133C380.942 23.1354 380.584 24.3372 380.584 25.5665C380.59 27.2131 381.235 28.7905 382.378 29.9549C383.521 31.1192 385.069 31.7761 386.686 31.7822ZM386.686 21.6964C387.437 21.6964 388.171 21.9234 388.796 22.3486C389.421 22.7739 389.908 23.3783 390.195 24.0855C390.483 24.7927 390.558 25.5708 390.411 26.3216C390.265 27.0723 389.903 27.7619 389.372 28.3032C388.84 28.8444 388.164 29.213 387.427 29.3623C386.69 29.5117 385.926 29.435 385.232 29.1421C384.538 28.8492 383.944 28.3531 383.527 27.7167C383.109 27.0802 382.887 26.332 382.887 25.5665C382.893 24.542 383.295 23.5612 384.006 22.8367C384.717 22.1123 385.68 21.7025 386.686 21.6964Z" fill="#150035"/>
<path d="M382.932 31.7822H390.438C391.049 31.7822 391.634 31.5351 392.066 31.0952C392.498 30.6553 392.74 30.0587 392.74 29.4367V21.7433C392.74 21.1212 392.498 20.5246 392.066 20.0847C391.634 19.6448 391.049 19.3977 390.438 19.3977H382.932C382.322 19.3977 381.736 19.6448 381.304 20.0847C380.873 20.5246 380.63 21.1212 380.63 21.7433V29.3897C380.624 29.7017 380.679 30.0118 380.792 30.3018C380.905 30.5918 381.074 30.8559 381.288 31.0787C381.502 31.3015 381.758 31.4785 382.041 31.5993C382.323 31.7201 382.626 31.7823 382.932 31.7822ZM390.438 21.6963V29.3897H382.863V21.7433L390.438 21.6963Z" fill="#150035"/>
<path d="M329.058 12.4783C330.27 12.4829 331.456 12.121 332.466 11.4382C333.476 10.7555 334.265 9.78269 334.732 8.64304C335.199 7.5034 335.324 6.24818 335.09 5.03636C334.856 3.82454 334.275 2.71064 333.419 1.83573C332.564 0.960817 331.472 0.364261 330.284 0.121614C329.095 -0.121033 327.863 0.0011463 326.742 0.472677C325.622 0.944207 324.664 1.74388 323.99 2.7704C323.316 3.79693 322.956 5.00414 322.956 6.23912C322.956 7.88979 323.598 9.47321 324.742 10.6426C325.885 11.812 327.437 12.4721 329.058 12.4783ZM329.058 2.36896C329.815 2.36433 330.557 2.58933 331.19 3.01537C331.822 3.44142 332.315 4.04928 332.607 4.76169C332.899 5.4741 332.977 6.25891 332.83 7.01638C332.683 7.77384 332.319 8.46977 331.783 9.01571C331.247 9.56165 330.564 9.93295 329.821 10.0824C329.077 10.2319 328.307 10.1528 327.607 9.85525C326.908 9.55765 326.311 9.05496 325.893 8.41108C325.475 7.76719 325.254 7.01118 325.259 6.23912C325.265 5.21459 325.667 4.23377 326.378 3.50931C327.089 2.78484 328.052 2.37512 329.058 2.36896Z" fill="black"/>
<path d="M325.305 12.4783H332.81C333.421 12.4783 334.007 12.2312 334.438 11.7913C334.87 11.3514 335.113 10.7548 335.113 10.1328V2.36899C335.113 1.74691 334.87 1.15031 334.438 0.710433C334.007 0.270557 333.421 0.0234375 332.81 0.0234375L325.305 0.0234375C324.694 0.0234375 324.109 0.270557 323.677 0.710433C323.245 1.15031 323.002 1.74691 323.002 2.36899V10.0624C322.993 10.3763 323.046 10.6889 323.157 10.9816C323.269 11.2744 323.437 11.5413 323.652 11.7666C323.867 11.9919 324.124 12.171 324.407 12.2933C324.691 12.4155 324.997 12.4784 325.305 12.4783ZM332.81 2.36899V10.0624H325.236V2.36899H332.81Z" fill="black"/>
<path d="M386.685 12.4783C387.898 12.4829 389.084 12.121 390.094 11.4382C391.104 10.7555 391.893 9.78269 392.36 8.64304C392.827 7.5034 392.952 6.24818 392.718 5.03636C392.484 3.82454 391.903 2.71064 391.047 1.83573C390.192 0.960817 389.1 0.364261 387.912 0.121614C386.723 -0.121033 385.491 0.0011463 384.37 0.472677C383.25 0.944207 382.292 1.74388 381.618 2.7704C380.944 3.79693 380.584 5.00414 380.584 6.23912C380.59 7.88791 381.234 9.46776 382.377 10.6358C383.519 11.8039 385.067 12.4659 386.685 12.4783ZM386.685 2.36896C387.443 2.36433 388.185 2.58933 388.817 3.01537C389.449 3.44142 389.943 4.04928 390.235 4.76169C390.527 5.4741 390.605 6.25891 390.458 7.01638C390.311 7.77384 389.947 8.46977 389.411 9.01571C388.875 9.56165 388.192 9.93295 387.448 10.0824C386.705 10.2319 385.935 10.1528 385.235 9.85525C384.536 9.55765 383.939 9.05496 383.521 8.41108C383.103 7.76719 382.882 7.01118 382.887 6.23912C382.893 5.21459 383.295 4.23377 384.006 3.50931C384.717 2.78484 385.68 2.37512 386.685 2.36896Z" fill="#150035"/>
<path d="M404.414 1.19629H406.716V11.3056H404.414V1.19629Z" fill="#150035"/>
<path d="M400.615 5.06616H410.538V7.41171H400.615V5.06616Z" fill="#150035"/>
<path d="M423.592 20.5234H425.895V30.6328H423.592V20.5234Z" fill="#150035"/>
<path d="M419.77 24.3936H429.693V26.7391H419.77V24.3936Z" fill="#150035"/>
<path d="M363.409 31.7824H370.822C371.433 31.7824 372.019 31.5353 372.45 31.0954C372.882 30.6555 373.125 30.0589 373.125 29.4369V21.7904C373.125 21.1683 372.882 20.5717 372.45 20.1318C372.019 19.6919 371.433 19.4448 370.822 19.4448H363.409C362.798 19.4448 362.213 19.6919 361.781 20.1318C361.349 20.5717 361.106 21.1683 361.106 21.7904V29.343C361.094 29.6589 361.144 29.974 361.254 30.2695C361.365 30.565 361.532 30.8348 361.747 31.0626C361.962 31.2904 362.22 31.4716 362.506 31.5953C362.791 31.719 363.098 31.7827 363.409 31.7824ZM370.822 21.6966V29.343H363.317V21.7904L370.822 21.6966Z" fill="#150035"/>
<path d="M439.915 12.4783H447.352C447.963 12.4783 448.548 12.2312 448.98 11.7913C449.412 11.3514 449.654 10.7548 449.654 10.1328V2.36899C449.654 1.74691 449.412 1.15031 448.98 0.710433C448.548 0.270557 447.963 0.0234375 447.352 0.0234375L439.915 0.0234375C439.305 0.0234375 438.719 0.270557 438.287 0.710433C437.856 1.15031 437.613 1.74691 437.613 2.36899V10.0389C437.601 10.3548 437.651 10.6699 437.761 10.9654C437.871 11.2609 438.039 11.5306 438.254 11.7585C438.469 11.9863 438.727 12.1675 439.013 12.2912C439.298 12.4149 439.605 12.4786 439.915 12.4783ZM447.352 2.36899V10.0389H439.823V2.36899H447.352Z" fill="#150035"/>
<path d="M325.305 31.7822H332.81C333.421 31.7822 334.007 31.5351 334.438 31.0952C334.87 30.6553 335.113 30.0587 335.113 29.4367V21.7433C335.113 21.1212 334.87 20.5246 334.438 20.0847C334.007 19.6448 333.421 19.3977 332.81 19.3977H325.305C324.694 19.3977 324.109 19.6448 323.677 20.0847C323.245 20.5246 323.002 21.1212 323.002 21.7433V29.3897C322.996 29.7017 323.051 30.0118 323.164 30.3018C323.277 30.5918 323.446 30.8559 323.66 31.0787C323.875 31.3015 324.131 31.4785 324.413 31.5993C324.695 31.7201 324.999 31.7823 325.305 31.7822ZM332.81 21.6963V29.3897H325.236V21.7433L332.81 21.6963Z" fill="black"/>
<path d="M310.178 12.4783C311.391 12.4829 312.577 12.121 313.587 11.4382C314.597 10.7555 315.386 9.78269 315.853 8.64304C316.32 7.5034 316.444 6.24818 316.211 5.03636C315.977 3.82454 315.396 2.71064 314.54 1.83573C313.685 0.960817 312.593 0.364261 311.405 0.121614C310.216 -0.121033 308.984 0.0011463 307.863 0.472677C306.743 0.944207 305.785 1.74388 305.111 2.7704C304.437 3.79693 304.077 5.00414 304.077 6.23912C304.077 7.88979 304.719 9.47321 305.863 10.6426C307.006 11.812 308.558 12.4721 310.178 12.4783ZM310.178 2.36896C310.936 2.36433 311.678 2.58933 312.31 3.01537C312.942 3.44142 313.436 4.04928 313.728 4.76169C314.02 5.4741 314.098 6.25891 313.951 7.01638C313.804 7.77384 313.44 8.46977 312.904 9.01571C312.368 9.56165 311.685 9.93295 310.941 10.0824C310.198 10.2319 309.427 10.1528 308.728 9.85525C308.029 9.55765 307.432 9.05496 307.014 8.41108C306.596 7.76719 306.375 7.01118 306.38 6.23912C306.38 5.21269 306.78 4.2283 307.492 3.50251C308.205 2.77671 309.171 2.36896 310.178 2.36896Z" fill="black"/>
<path d="M365.964 1.19629H368.267V11.3056H365.964V1.19629Z" fill="#150035"/>
<path d="M362.142 5.06616H372.065V7.41171H362.142V5.06616Z" fill="#150035"/>
<path d="M347.085 20.5234H349.387V30.6328H347.085V20.5234Z" fill="black"/>
<path d="M343.263 24.3936H353.186V26.7391H343.263V24.3936Z" fill="black"/>
<path d="M309.027 20.5234H311.33V30.6328H309.027V20.5234Z" fill="black"/>
<path d="M305.205 24.3936H315.128V26.7391H305.205V24.3936Z" fill="black"/>
<path d="M291.759 31.7822C292.966 31.7822 294.146 31.4177 295.149 30.7347C296.152 30.0517 296.934 29.081 297.396 27.9452C297.858 26.8094 297.979 25.5596 297.743 24.3539C297.508 23.1482 296.927 22.0407 296.074 21.1714C295.22 20.3021 294.133 19.7101 292.95 19.4703C291.766 19.2304 290.54 19.3535 289.425 19.824C288.31 20.2944 287.357 21.0911 286.687 22.1133C286.016 23.1354 285.658 24.3372 285.658 25.5665C285.664 27.2131 286.309 28.7905 287.452 29.9549C288.595 31.1192 290.143 31.7761 291.759 31.7822ZM291.759 21.6964C292.511 21.6964 293.245 21.9234 293.87 22.3486C294.495 22.7739 294.982 23.3783 295.269 24.0855C295.557 24.7927 295.632 25.5708 295.485 26.3216C295.339 27.0723 294.977 27.7619 294.446 28.3032C293.914 28.8444 293.238 29.213 292.501 29.3623C291.764 29.5117 291 29.435 290.306 29.1421C289.612 28.8492 289.018 28.3531 288.601 27.7167C288.183 27.0802 287.961 26.332 287.961 25.5665C287.961 25.0583 288.059 24.555 288.25 24.0855C288.441 23.6159 288.721 23.1893 289.073 22.8299C289.426 22.4705 289.845 22.1855 290.306 21.991C290.767 21.7965 291.261 21.6964 291.759 21.6964Z" fill="black"/>
<path d="M272.88 12.4783C274.093 12.4829 275.279 12.121 276.289 11.4382C277.299 10.7555 278.088 9.78269 278.555 8.64304C279.022 7.5034 279.146 6.24818 278.913 5.03636C278.679 3.82454 278.098 2.71064 277.242 1.83573C276.386 0.960817 275.295 0.364261 274.107 0.121614C272.918 -0.121033 271.685 0.0011463 270.565 0.472677C269.445 0.944207 268.487 1.74388 267.813 2.7704C267.139 3.79693 266.779 5.00414 266.779 6.23912C266.779 7.88979 267.421 9.47321 268.565 10.6426C269.708 11.812 271.26 12.4721 272.88 12.4783ZM272.88 2.36896C273.638 2.36433 274.38 2.58933 275.012 3.01537C275.644 3.44142 276.138 4.04928 276.43 4.76169C276.722 5.4741 276.8 6.25891 276.653 7.01638C276.506 7.77384 276.142 8.46977 275.606 9.01571C275.07 9.56165 274.387 9.93295 273.643 10.0824C272.9 10.2319 272.129 10.1528 271.43 9.85525C270.731 9.55765 270.134 9.05496 269.716 8.41108C269.298 7.76719 269.077 7.01118 269.081 6.23912C269.081 5.73089 269.18 5.22763 269.371 4.75808C269.562 4.28853 269.841 3.86188 270.194 3.50251C270.547 3.14313 270.966 2.85806 271.427 2.66356C271.887 2.46907 272.381 2.36896 272.88 2.36896Z" fill="black"/>
<path d="M234.822 31.7822C236.029 31.7822 237.209 31.4177 238.212 30.7347C239.215 30.0517 239.997 29.081 240.459 27.9452C240.921 26.8094 241.042 25.5596 240.806 24.3539C240.571 23.1482 239.99 22.0407 239.137 21.1714C238.283 20.3021 237.196 19.7101 236.013 19.4703C234.829 19.2304 233.603 19.3535 232.488 19.824C231.373 20.2944 230.42 21.0911 229.75 22.1133C229.079 23.1354 228.721 24.3372 228.721 25.5665C228.727 27.2131 229.372 28.7905 230.515 29.9549C231.658 31.1192 233.206 31.7761 234.822 31.7822ZM234.822 21.6964C235.574 21.6964 236.308 21.9234 236.933 22.3486C237.558 22.7739 238.045 23.3783 238.332 24.0855C238.62 24.7927 238.695 25.5708 238.548 26.3216C238.402 27.0723 238.04 27.7619 237.509 28.3032C236.977 28.8444 236.301 29.213 235.564 29.3623C234.827 29.5117 234.063 29.435 233.369 29.1421C232.675 28.8492 232.081 28.3531 231.664 27.7167C231.246 27.0802 231.024 26.332 231.024 25.5665C231.024 24.5401 231.424 23.5557 232.136 22.8299C232.849 22.1041 233.815 21.6964 234.822 21.6964Z" fill="black"/>
<path d="M231.093 31.7822H238.575C239.186 31.7822 239.772 31.5351 240.203 31.0952C240.635 30.6553 240.878 30.0587 240.878 29.4367V21.7433C240.878 21.1212 240.635 20.5246 240.203 20.0847C239.772 19.6448 239.186 19.3977 238.575 19.3977H231.093C230.482 19.3977 229.896 19.6448 229.465 20.0847C229.033 20.5246 228.79 21.1212 228.79 21.7433V29.3897C228.784 29.7017 228.839 30.0118 228.952 30.3018C229.065 30.5918 229.234 30.8559 229.448 31.0787C229.663 31.3015 229.918 31.4785 230.201 31.5993C230.483 31.7201 230.786 31.7823 231.093 31.7822ZM238.575 21.6963V29.3897H231.024V21.7433L238.575 21.6963Z" fill="black"/>
<path d="M177.195 12.4783C178.407 12.4829 179.593 12.121 180.604 11.4382C181.614 10.7555 182.402 9.78269 182.869 8.64304C183.336 7.5034 183.461 6.24818 183.227 5.03636C182.994 3.82454 182.412 2.71064 181.557 1.83573C180.701 0.960817 179.61 0.364261 178.421 0.121614C177.233 -0.121033 176 0.0011463 174.88 0.472677C173.759 0.944207 172.801 1.74388 172.127 2.7704C171.453 3.79693 171.094 5.00414 171.094 6.23912C171.094 7.88979 171.736 9.47321 172.879 10.6426C174.023 11.812 175.575 12.4721 177.195 12.4783ZM177.195 2.36896C177.953 2.36433 178.695 2.58933 179.327 3.01537C179.959 3.44142 180.452 4.04928 180.744 4.76169C181.037 5.4741 181.114 6.25891 180.967 7.01638C180.821 7.77384 180.456 8.46977 179.92 9.01571C179.384 9.56165 178.701 9.93295 177.958 10.0824C177.214 10.2319 176.444 10.1528 175.745 9.85525C175.045 9.55765 174.449 9.05496 174.031 8.41108C173.612 7.76719 173.391 7.01118 173.396 6.23912C173.396 5.21269 173.796 4.2283 174.509 3.50251C175.221 2.77671 176.187 2.36896 177.195 2.36896Z" fill="black"/>
<path d="M173.465 12.4783H180.948C181.558 12.4783 182.144 12.2312 182.576 11.7913C183.008 11.3514 183.25 10.7548 183.25 10.1328V2.36899C183.25 1.74691 183.008 1.15031 182.576 0.710433C182.144 0.270557 181.558 0.0234375 180.948 0.0234375L173.465 0.0234375C172.855 0.0234375 172.269 0.270557 171.837 0.710433C171.405 1.15031 171.163 1.74691 171.163 2.36899V10.0624C171.154 10.3763 171.206 10.6889 171.318 10.9816C171.429 11.2744 171.597 11.5413 171.812 11.7666C172.027 11.9919 172.284 12.171 172.568 12.2933C172.852 12.4155 173.157 12.4784 173.465 12.4783ZM180.948 2.36899V10.0624H173.396V2.36899H180.948Z" fill="black"/>
<path d="M288.03 12.4783H295.512C296.123 12.4783 296.709 12.2312 297.14 11.7913C297.572 11.3514 297.815 10.7548 297.815 10.1328V2.36899C297.815 1.74691 297.572 1.15031 297.14 0.710433C296.709 0.270557 296.123 0.0234375 295.512 0.0234375L288.03 0.0234375C287.419 0.0234375 286.833 0.270557 286.402 0.710433C285.97 1.15031 285.727 1.74691 285.727 2.36899V10.0624C285.718 10.3763 285.771 10.6889 285.882 10.9816C285.994 11.2744 286.162 11.5413 286.377 11.7666C286.592 11.9919 286.848 12.171 287.132 12.2933C287.416 12.4155 287.721 12.4784 288.03 12.4783ZM295.512 2.36899V10.0624H287.961V2.36899H295.512Z" fill="black"/>
<path d="M234.822 12.4783C236.035 12.4829 237.221 12.121 238.231 11.4382C239.241 10.7555 240.03 9.78269 240.497 8.64304C240.964 7.5034 241.089 6.24818 240.855 5.03636C240.621 3.82454 240.04 2.71064 239.184 1.83573C238.329 0.960817 237.237 0.364261 236.049 0.121614C234.86 -0.121033 233.628 0.0011463 232.507 0.472677C231.387 0.944207 230.429 1.74388 229.755 2.7704C229.081 3.79693 228.721 5.00414 228.721 6.23912C228.721 7.88979 229.363 9.47321 230.507 10.6426C231.65 11.812 233.202 12.4721 234.822 12.4783ZM234.822 2.36896C235.58 2.36433 236.322 2.58933 236.954 3.01537C237.586 3.44142 238.08 4.04928 238.372 4.76169C238.664 5.4741 238.742 6.25891 238.595 7.01638C238.448 7.77384 238.084 8.46977 237.548 9.01571C237.012 9.56165 236.329 9.93295 235.585 10.0824C234.842 10.2319 234.072 10.1528 233.372 9.85525C232.673 9.55765 232.076 9.05496 231.658 8.41108C231.24 7.76719 231.019 7.01118 231.024 6.23912C231.024 5.21269 231.424 4.2283 232.136 3.50251C232.849 2.77671 233.815 2.36896 234.822 2.36896Z" fill="black"/>
<path d="M252.574 1.19629H254.876V11.3056H252.574V1.19629Z" fill="black"/>
<path d="M248.752 5.06616H258.675V7.41171H248.752V5.06616Z" fill="black"/>
<path d="M271.729 20.5234H274.031V30.6328H271.729V20.5234Z" fill="black"/>
<path d="M267.93 24.3936H277.853V26.7391H267.93V24.3936Z" fill="black"/>
<path d="M211.546 31.7824H218.983C219.593 31.7824 220.179 31.5353 220.611 31.0954C221.042 30.6555 221.285 30.0589 221.285 29.4369V21.7904C221.285 21.1683 221.042 20.5717 220.611 20.1318C220.179 19.6919 219.593 19.4448 218.983 19.4448H211.546C210.935 19.4448 210.35 19.6919 209.918 20.1318C209.486 20.5717 209.244 21.1683 209.244 21.7904V29.343C209.231 29.6589 209.282 29.974 209.392 30.2695C209.502 30.565 209.669 30.8348 209.885 31.0626C210.1 31.2904 210.358 31.4716 210.643 31.5953C210.929 31.719 211.236 31.7827 211.546 31.7824ZM218.983 21.6966V29.343H211.454V21.7904L218.983 21.6966Z" fill="black"/>
<path d="M196.373 12.4783C197.586 12.4829 198.772 12.121 199.782 11.4382C200.792 10.7555 201.581 9.78269 202.048 8.64304C202.515 7.5034 202.64 6.24818 202.406 5.03636C202.172 3.82454 201.591 2.71064 200.735 1.83573C199.88 0.960817 198.788 0.364261 197.6 0.121614C196.411 -0.121033 195.179 0.0011463 194.058 0.472677C192.938 0.944207 191.98 1.74388 191.306 2.7704C190.632 3.79693 190.272 5.00414 190.272 6.23912C190.272 7.88979 190.914 9.47321 192.058 10.6426C193.201 11.812 194.753 12.4721 196.373 12.4783ZM196.373 2.36896C197.131 2.36433 197.873 2.58933 198.505 3.01537C199.137 3.44142 199.631 4.04928 199.923 4.76169C200.215 5.4741 200.293 6.25891 200.146 7.01638C199.999 7.77384 199.635 8.46977 199.099 9.01571C198.563 9.56165 197.88 9.93295 197.136 10.0824C196.393 10.2319 195.623 10.1528 194.923 9.85525C194.224 9.55765 193.627 9.05496 193.209 8.41108C192.791 7.76719 192.57 7.01118 192.575 6.23912C192.581 5.21459 192.983 4.23377 193.694 3.50931C194.405 2.78484 195.368 2.37512 196.373 2.36896Z" fill="black"/>
<path d="M173.465 31.7822H180.948C181.558 31.7822 182.144 31.5351 182.576 31.0952C183.008 30.6553 183.25 30.0587 183.25 29.4367V21.7433C183.25 21.1212 183.008 20.5246 182.576 20.0847C182.144 19.6448 181.558 19.3977 180.948 19.3977H173.465C172.855 19.3977 172.269 19.6448 171.837 20.0847C171.405 20.5246 171.163 21.1212 171.163 21.7433V29.3897C171.157 29.7017 171.212 30.0118 171.325 30.3018C171.438 30.5918 171.606 30.8559 171.821 31.0787C172.035 31.3015 172.291 31.4785 172.573 31.5993C172.856 31.7201 173.159 31.7823 173.465 31.7822ZM180.948 21.6963V29.3897H173.396V21.7433L180.948 21.6963Z" fill="black"/>
<path d="M158.316 12.4783C159.528 12.4829 160.714 12.121 161.724 11.4382C162.734 10.7555 163.523 9.78269 163.99 8.64304C164.457 7.5034 164.582 6.24818 164.348 5.03636C164.114 3.82454 163.533 2.71064 162.677 1.83573C161.822 0.960817 160.731 0.364261 159.542 0.121614C158.353 -0.121033 157.121 0.0011463 156 0.472677C154.88 0.944207 153.922 1.74388 153.248 2.7704C152.574 3.79693 152.214 5.00414 152.214 6.23912C152.214 7.88979 152.856 9.47321 154 10.6426C155.144 11.812 156.695 12.4721 158.316 12.4783ZM158.316 2.36896C159.073 2.36433 159.816 2.58933 160.448 3.01537C161.08 3.44142 161.573 4.04928 161.865 4.76169C162.157 5.4741 162.235 6.25891 162.088 7.01638C161.941 7.77384 161.577 8.46977 161.041 9.01571C160.505 9.56165 159.822 9.93295 159.079 10.0824C158.335 10.2319 157.565 10.1528 156.865 9.85525C156.166 9.55765 155.569 9.05496 155.151 8.41108C154.733 7.76719 154.512 7.01118 154.517 6.23912C154.517 5.21269 154.917 4.2283 155.629 3.50251C156.342 2.77671 157.308 2.36896 158.316 2.36896Z" fill="black"/>
<path d="M214.101 1.19629H216.404V11.3056H214.101V1.19629Z" fill="black"/>
<path d="M210.303 5.06616H220.226V7.41171H210.303V5.06616Z" fill="black"/>
<path d="M195.222 20.5234H197.525V30.6328H195.222V20.5234Z" fill="black"/>
<path d="M191.423 24.3936H201.347V26.7391H191.423V24.3936Z" fill="black"/>
<path d="M157.164 20.5234H159.467V30.6328H157.164V20.5234Z" fill="black"/>
<path d="M153.366 24.3936H163.289V26.7391H153.366V24.3936Z" fill="black"/>
<path d="M139.92 31.7822C141.126 31.7776 142.303 31.4091 143.303 30.7233C144.304 30.0375 145.082 29.0651 145.54 27.9289C145.999 26.7928 146.116 25.5437 145.878 24.3396C145.64 23.1354 145.057 22.03 144.203 21.1631C143.349 20.2962 142.262 19.7065 141.079 19.4686C139.896 19.2306 138.67 19.3551 137.557 19.8262C136.443 20.2973 135.492 21.094 134.822 22.1157C134.153 23.1373 133.796 24.3381 133.796 25.5665C133.796 26.3847 133.954 27.1949 134.262 27.9506C134.57 28.7062 135.022 29.3925 135.591 29.97C136.16 30.5475 136.835 31.0048 137.578 31.3158C138.321 31.6268 139.117 31.7853 139.92 31.7822ZM139.92 21.6963C140.67 21.701 141.403 21.9319 142.024 22.36C142.646 22.788 143.129 23.3941 143.413 24.1016C143.697 24.8092 143.769 25.5866 143.62 26.3358C143.471 27.085 143.107 27.7724 142.575 28.3113C142.043 28.8502 141.366 29.2165 140.63 29.3639C139.893 29.5114 139.131 29.4334 138.438 29.1398C137.745 28.8462 137.153 28.3501 136.737 27.7142C136.32 27.0783 136.098 26.3309 136.098 25.5665C136.098 25.0563 136.197 24.5511 136.389 24.08C136.582 23.6089 136.864 23.1812 137.219 22.8216C137.574 22.4619 137.996 22.1773 138.459 21.9842C138.923 21.7911 139.419 21.6932 139.92 21.6963Z" fill="black"/>
<path d="M82.9829 31.7822C84.1886 31.7776 85.3659 31.4091 86.3662 30.7233C87.3665 30.0375 88.1449 29.0651 88.6032 27.9289C89.0615 26.7928 89.179 25.5437 88.941 24.3396C88.703 23.1354 88.1201 22.03 87.2659 21.1631C86.4117 20.2962 85.3245 19.7065 84.1417 19.4686C82.9588 19.2306 81.7332 19.3551 80.6197 19.8262C79.5062 20.2973 78.5547 21.094 77.8853 22.1157C77.2159 23.1373 76.8586 24.3381 76.8586 25.5665C76.8586 26.3847 77.0172 27.1949 77.3252 27.9506C77.6333 28.7062 78.0847 29.3925 78.6537 29.97C79.2227 30.5475 79.8981 31.0048 80.641 31.3158C81.3838 31.6268 82.1797 31.7853 82.9829 31.7822ZM82.9829 21.6963C83.7332 21.701 84.4654 21.9319 85.0871 22.36C85.7088 22.788 86.1921 23.3941 86.4761 24.1016C86.7601 24.8092 86.832 25.5866 86.6829 26.3358C86.5337 27.085 86.1701 27.7724 85.6379 28.3113C85.1057 28.8502 84.4288 29.2165 83.6925 29.3639C82.9562 29.5114 82.1936 29.4334 81.5008 29.1398C80.808 28.8462 80.216 28.3501 79.7996 27.7142C79.3832 27.0783 79.161 26.3309 79.161 25.5665C79.1609 25.0563 79.2599 24.5511 79.4523 24.08C79.6446 23.6089 79.9265 23.1812 80.2817 22.8216C80.6369 22.4619 81.0584 22.1773 81.522 21.9842C81.9856 21.7911 82.482 21.6932 82.9829 21.6963Z" fill="black"/>
<path d="M79.2989 31.7822H86.8046C87.4152 31.7822 88.0008 31.5351 88.4326 31.0952C88.8644 30.6553 89.1069 30.0587 89.1069 29.4367V21.7433C89.1069 21.1212 88.8644 20.5246 88.4326 20.0847C88.0008 19.6448 87.4152 19.3977 86.8046 19.3977H79.2989C78.6883 19.3977 78.1027 19.6448 77.6709 20.0847C77.2392 20.5246 76.9966 21.1212 76.9966 21.7433V29.3897C76.9905 29.7017 77.0455 30.0118 77.1584 30.3018C77.2714 30.5918 77.44 30.8559 77.6544 31.0787C77.8688 31.3015 78.1247 31.4785 78.4071 31.5993C78.6895 31.7201 78.9927 31.7823 79.2989 31.7822ZM86.8046 21.6963V29.3897H79.2529V21.7433L86.8046 21.6963Z" fill="black"/>
<path d="M25.3551 12.4783C26.5664 12.4783 27.7504 12.1124 28.7576 11.4268C29.7647 10.7413 30.5497 9.76685 31.0132 8.62679C31.4767 7.48673 31.598 6.23224 31.3617 5.02197C31.1254 3.81169 30.5421 2.69997 29.6856 1.82741C28.8291 0.954849 27.7379 0.360626 26.5499 0.119887C25.3619 -0.120853 24.1305 0.00270335 23.0115 0.474931C21.8924 0.947158 20.9359 1.74685 20.263 2.77287C19.59 3.7989 19.2309 5.00518 19.2309 6.23917C19.2309 7.8939 19.8761 9.48085 21.0246 10.6509C22.1731 11.821 23.7309 12.4783 25.3551 12.4783ZM25.3551 2.36901C26.112 2.36902 26.8518 2.59798 27.4808 3.02686C28.1098 3.45575 28.5996 4.06524 28.8882 4.77807C29.1768 5.4909 29.2511 6.27498 29.1018 7.0309C28.9524 7.78682 28.5862 8.48054 28.0494 9.02413C27.5126 9.56771 26.8294 9.93668 26.0865 10.0843C25.3436 10.2318 24.5744 10.1514 23.8765 9.85308C23.1786 9.55478 22.5833 9.05207 22.1661 8.40869C21.7489 7.76532 21.5287 7.01023 21.5332 6.23917C21.5332 5.72895 21.6322 5.22377 21.8246 4.75268C22.0169 4.2816 22.2988 3.85391 22.654 3.49423C23.0092 3.13454 23.4307 2.84996 23.8943 2.65685C24.3578 2.46374 24.8543 2.36592 25.3551 2.36901Z" fill="black"/>
<path d="M21.6023 12.4783H29.1079C29.7186 12.4783 30.3042 12.2312 30.7359 11.7913C31.1677 11.3514 31.4103 10.7548 31.4103 10.1328V2.36899C31.4103 1.74691 31.1677 1.15031 30.7359 0.710433C30.3042 0.270557 29.7186 0.0234375 29.1079 0.0234375L21.6023 0.0234375C20.9917 0.0234375 20.4061 0.270557 19.9743 0.710433C19.5425 1.15031 19.2999 1.74691 19.2999 2.36899V10.0624C19.2907 10.3763 19.3434 10.6889 19.455 10.9816C19.5665 11.2744 19.7347 11.5413 19.9494 11.7666C20.1641 11.9919 20.421 12.171 20.705 12.2933C20.9889 12.4155 21.294 12.4784 21.6023 12.4783ZM29.1079 2.36899V10.0624H21.5562V2.36899H29.1079Z" fill="black"/>
<path d="M82.9827 12.4783C84.194 12.4783 85.378 12.1124 86.3851 11.4268C87.3923 10.7413 88.1772 9.76685 88.6408 8.62679C89.1043 7.48673 89.2256 6.23224 88.9893 5.02197C88.7529 3.81169 88.1697 2.69997 87.3132 1.82741C86.4567 0.954849 85.3654 0.360626 84.1775 0.119887C82.9895 -0.120853 81.7581 0.00270335 80.639 0.474931C79.52 0.947158 78.5635 1.74685 77.8906 2.77287C77.2176 3.7989 76.8584 5.00518 76.8584 6.23917C76.8584 7.8939 77.5037 9.48085 78.6522 10.6509C79.8007 11.821 81.3584 12.4783 82.9827 12.4783ZM82.9827 2.36901C83.7396 2.36902 84.4794 2.59798 85.1084 3.02686C85.7374 3.45575 86.2272 4.06524 86.5158 4.77807C86.8044 5.4909 86.8787 6.27498 86.7294 7.0309C86.58 7.78682 86.2137 8.48054 85.6769 9.02413C85.1401 9.56771 84.457 9.93668 83.7141 10.0843C82.9712 10.2318 82.202 10.1514 81.5041 9.85308C80.8061 9.55478 80.2108 9.05207 79.7937 8.40869C79.3765 7.76532 79.1562 7.01023 79.1608 6.23917C79.1608 5.72895 79.2598 5.22377 79.4521 4.75268C79.6445 4.2816 79.9264 3.85391 80.2816 3.49423C80.6368 3.13454 81.0583 2.84996 81.5218 2.65685C81.9854 2.46374 82.4819 2.36592 82.9827 2.36901Z" fill="black"/>
<path d="M100.711 1.19629H103.013V11.3056H100.711V1.19629Z" fill="black"/>
<path d="M96.889 5.06616H106.812V7.41171H96.889V5.06616Z" fill="black"/>
<path d="M119.889 20.5234H122.192V30.6328H119.889V20.5234Z" fill="black"/>
<path d="M116.068 24.3936H125.991V26.7391H116.068V24.3936Z" fill="black"/>
<path d="M59.6832 31.7824H67.1198C67.7304 31.7824 68.316 31.5353 68.7478 31.0954C69.1796 30.6555 69.4221 30.0589 69.4221 29.4369V21.7904C69.4221 21.1683 69.1796 20.5717 68.7478 20.1318C68.316 19.6919 67.7304 19.4448 67.1198 19.4448H59.6832C59.0725 19.4448 58.4869 19.6919 58.0552 20.1318C57.6234 20.5717 57.3808 21.1683 57.3808 21.7904V29.343C57.3684 29.6589 57.4188 29.974 57.5289 30.2695C57.6391 30.565 57.8067 30.8348 58.0217 31.0626C58.2368 31.2904 58.4948 31.4716 58.7803 31.5953C59.0658 31.719 59.3729 31.7827 59.6832 31.7824ZM67.1198 21.6966V29.343H59.5911V21.7904L67.1198 21.6966Z" fill="black"/>
<path d="M44.5336 12.4783C45.7448 12.4783 46.9289 12.1124 47.936 11.4268C48.9432 10.7413 49.7281 9.76685 50.1916 8.62679C50.6552 7.48673 50.7765 6.23224 50.5402 5.02197C50.3039 3.81169 49.7206 2.69997 48.8641 1.82741C48.0076 0.954849 46.9164 0.360626 45.7284 0.119887C44.5404 -0.120853 43.309 0.00270335 42.1899 0.474931C41.0709 0.947158 40.1144 1.74685 39.4415 2.77287C38.7685 3.7989 38.4094 5.00518 38.4094 6.23917C38.4094 7.8939 39.0546 9.48085 40.2031 10.6509C41.3516 11.821 42.9093 12.4783 44.5336 12.4783ZM44.5336 2.36901C45.2904 2.36902 46.0303 2.59798 46.6593 3.02686C47.2883 3.45575 47.7781 4.06524 48.0667 4.77807C48.3553 5.4909 48.4296 6.27498 48.2803 7.0309C48.1309 7.78682 47.7646 8.48054 47.2278 9.02413C46.691 9.56771 46.0079 9.93668 45.265 10.0843C44.5221 10.2318 43.7529 10.1514 43.055 9.85308C42.357 9.55478 41.7618 9.05207 41.3446 8.40869C40.9274 7.76532 40.7071 7.01023 40.7117 6.23917C40.7117 5.72895 40.8107 5.22377 41.003 4.75268C41.1954 4.2816 41.4773 3.85391 41.8325 3.49423C42.1877 3.13454 42.6092 2.84996 43.0728 2.65685C43.5363 2.46374 44.0328 2.36592 44.5336 2.36901Z" fill="black"/>
<path d="M6.47585 12.4783C7.68712 12.4783 8.8712 12.1124 9.87833 11.4268C10.8855 10.7413 11.6704 9.76685 12.1339 8.62679C12.5974 7.48673 12.7187 6.23224 12.4824 5.02197C12.2461 3.81169 11.6628 2.69997 10.8064 1.82741C9.94986 0.954849 8.85865 0.360626 7.67066 0.119887C6.48267 -0.120853 5.25129 0.00270335 4.13223 0.474931C3.01317 0.947158 2.05669 1.74685 1.38375 2.77287C0.710812 3.7989 0.351638 5.00518 0.351638 6.23917C0.351638 7.8939 0.99684 9.48085 2.14536 10.6509C3.29388 11.821 4.8516 12.4783 6.47585 12.4783ZM6.47585 2.36901C7.23273 2.36902 7.97257 2.59798 8.60156 3.02686C9.23056 3.45575 9.7204 4.06524 10.009 4.77807C10.2976 5.4909 10.3719 6.27498 10.2225 7.0309C10.0732 7.78682 9.70693 8.48054 9.17012 9.02413C8.63332 9.56771 7.95017 9.93668 7.20728 10.0843C6.4644 10.2318 5.69521 10.1514 4.99726 9.85308C4.29931 9.55478 3.70404 9.05207 3.28687 8.40869C2.8697 7.76532 2.64943 7.01023 2.65399 6.23917C2.65398 5.72895 2.75298 5.22377 2.94533 4.75268C3.13768 4.2816 3.41957 3.85391 3.77477 3.49423C4.12997 3.13454 4.55148 2.84996 5.01504 2.65685C5.4786 2.46374 5.97505 2.36592 6.47585 2.36901Z" fill="black"/>
<path d="M62.2617 1.19629H64.5641V11.3056H62.2617V1.19629Z" fill="black"/>
<path d="M58.4398 5.06616H68.3629V7.41171H58.4398V5.06616Z" fill="black"/>
<path d="M43.3825 20.5234H45.6848V30.6328H43.3825V20.5234Z" fill="black"/>
<path d="M39.5605 24.3936H49.4836V26.7391H39.5605V24.3936Z" fill="black"/>
</svg>
