<svg width="45" height="45" viewBox="0 0 45 45" fill="none" xmlns="http://www.w3.org/2000/svg">
<path d="M42.5163 0H2.48375C1.82502 0 1.19327 0.26168 0.727473 0.727473C0.26168 1.19327 0 1.82502 0 2.48375V42.5169C0.000165733 43.1755 0.261919 43.8071 0.727695 44.2727C1.19347 44.7384 1.82513 45 2.48375 45H24.0356V27.5737H18.1713V20.7825H24.0356V15.7737C24.0356 9.96125 27.5856 6.79688 32.7706 6.79688C35.2544 6.79688 37.3888 6.98125 38.0112 7.06437V13.1388L34.415 13.1406C31.595 13.1406 31.0494 14.4806 31.0494 16.4469V20.7831H37.7744L36.8988 27.5744H31.0494V45H42.5169C43.1755 44.9998 43.8071 44.7381 44.2727 44.2723C44.7384 43.8065 45 43.1749 45 42.5163V2.48375C45 1.82502 44.7383 1.19327 44.2725 0.727473C43.8067 0.26168 43.175 0 42.5163 0Z" fill="black"/>
</svg>
