<svg width="45" height="45" viewBox="0 0 45 45" fill="none" xmlns="http://www.w3.org/2000/svg">
<path d="M19.4937 35.2444C19.0587 35.8594 18.6468 36.1626 18.2531 36.1626C17.9906 36.1626 17.8412 36.0088 17.7937 35.7038C17.775 35.6407 17.775 35.4013 17.775 34.9413V26.9663H15.8137V35.5313C15.8137 36.2969 15.8787 36.8132 15.9868 37.1413C16.1825 37.6901 16.6187 37.9469 17.2512 37.9469C17.9725 37.9469 18.7137 37.5113 19.4931 36.6163V37.7982H21.4575V26.9669H19.4937V35.2444Z" fill="black"/>
<path d="M8.68555 25.3075H10.9943V37.7981H13.1768V25.3075H15.528V23.2612H8.68555V25.3075Z" fill="black"/>
<path d="M22.0506 15.8374C22.69 15.8374 22.9963 15.3312 22.9963 14.318V9.71303C22.9963 8.70115 22.69 8.19678 22.0506 8.19678C21.4106 8.19678 21.1038 8.70115 21.1038 9.71303V14.318C21.1044 15.3305 21.4106 15.8374 22.0506 15.8374Z" fill="black"/>
<path d="M27.1462 26.8344C26.425 26.8344 25.7525 27.2294 25.1194 28.0094V23.2612H23.1562V37.7981H25.1194V36.7469C25.7744 37.5587 26.4487 37.9469 27.1462 37.9469C27.9281 37.9469 28.4531 37.5356 28.7156 36.73C28.8463 36.2706 28.9131 35.5494 28.9131 34.5475V30.2344C28.9131 29.2094 28.8463 28.4931 28.7156 28.0575C28.4525 27.2456 27.9281 26.8344 27.1462 26.8344ZM26.9506 34.7012C26.9506 35.6794 26.6625 36.1619 26.0969 36.1619C25.7744 36.1619 25.4469 36.0081 25.1187 35.68V29.0775C25.4469 28.7544 25.7738 28.6006 26.0969 28.6006C26.6631 28.6006 26.9506 29.1019 26.9506 30.0787V34.7012Z" fill="black"/>
<path d="M33.3969 26.8345C32.3957 26.8345 31.6132 27.2038 31.0469 27.9457C30.6294 28.4926 30.4401 29.3388 30.4401 30.4957V34.2907C30.4401 35.4407 30.6538 36.2963 31.0707 36.837C31.6376 37.5763 32.4188 37.9463 33.4463 37.9463C34.4713 37.9463 35.2757 37.5582 35.8194 36.7732C36.0592 36.4206 36.2158 36.0182 36.2776 35.5963C36.2951 35.3995 36.3194 34.9632 36.3194 34.332V34.0445H34.3163C34.3163 34.832 34.2919 35.2676 34.2738 35.3745C34.1619 35.8988 33.8794 36.1613 33.3969 36.1613C32.7232 36.1613 32.3957 35.6613 32.3957 34.6588V32.7388H36.3201V30.4951C36.3201 29.3376 36.1232 28.492 35.7126 27.9451C35.1632 27.2032 34.3819 26.8345 33.3969 26.8345ZM34.3576 31.1057H32.3957V30.1038C32.3957 29.1026 32.7232 28.6013 33.3794 28.6013C34.0288 28.6013 34.3576 29.1026 34.3576 30.1038V31.1057Z" fill="black"/>
<path d="M40.625 0H4.375C1.96875 0 0 1.96875 0 4.375V40.625C0 43.0312 1.96875 45 4.375 45H40.625C43.0312 45 45 43.0312 45 40.625V4.375C45 1.96875 43.0312 0 40.625 0ZM26.6125 6.54375H28.5894V14.6012C28.5894 15.0675 28.5894 15.3094 28.6138 15.3731C28.6575 15.6806 28.8125 15.8375 29.0788 15.8375C29.475 15.8375 29.8919 15.53 30.3312 14.9088V6.54375H32.315V17.4875H30.3312V16.2938C29.5419 17.1994 28.7887 17.6394 28.0656 17.6394C27.4269 17.6394 26.9862 17.38 26.7881 16.825C26.6788 16.4944 26.6125 15.97 26.6125 15.1975V6.54375ZM19.1206 10.1112C19.1206 8.94187 19.32 8.08625 19.7419 7.53312C20.2906 6.78562 21.0631 6.41125 22.0506 6.41125C23.0444 6.41125 23.8156 6.78562 24.365 7.53312C24.78 8.08625 24.9806 8.94187 24.9806 10.1112V13.9456C24.9806 15.1081 24.7806 15.9706 24.365 16.52C23.8156 17.2656 23.045 17.64 22.0506 17.64C21.0625 17.64 20.29 17.2656 19.7419 16.52C19.32 15.9706 19.1206 15.1081 19.1206 13.9456V10.1112ZM13.8169 2.80125L15.3787 8.56812L16.8781 2.80125H19.1019L16.4569 11.54V17.4875H14.2569V11.54C14.0581 10.485 13.6181 8.94125 12.9131 6.89312C12.4494 5.53062 11.9662 4.16188 11.5031 2.80125H13.8169ZM38.1706 38.4487C37.7744 40.1756 36.3606 41.4494 34.6606 41.6388C30.6331 42.0888 26.5575 42.0913 22.5 42.0888C18.4419 42.0913 14.3662 42.0888 10.3394 41.6388C8.63875 41.4487 7.2275 40.175 6.83063 38.4487C6.265 35.9887 6.265 33.3037 6.265 30.7725C6.265 28.2388 6.27125 25.5556 6.8375 23.095C7.23375 21.3687 8.64563 20.0956 10.3463 19.9056C14.3731 19.4544 18.4488 19.4531 22.5069 19.4544C26.5644 19.4531 30.64 19.4544 34.6675 19.9056C36.3669 20.0956 37.78 21.3687 38.1769 23.095C38.7425 25.5562 38.7394 28.2388 38.7394 30.7725C38.74 33.3037 38.7369 35.9887 38.1706 38.4487Z" fill="black"/>
</svg>
