<svg width="45" height="45" viewBox="0 0 45 45" fill="none" xmlns="http://www.w3.org/2000/svg">
<path d="M37.5 0H7.5C3.25 0 0 3.25 0 7.5V37.5C0 41.75 3.25 45 7.5 45H37.5C41.75 45 45 41.75 45 37.5V7.5C45 3.25 41.75 0 37.5 0ZM22.5 15C26.75 15 30 18.25 30 22.5C30 26.75 26.75 30 22.5 30C18.25 30 15 26.75 15 22.5C15 18.25 18.25 15 22.5 15ZM32 10C32 8.25 33.5 7 35 7C36.5 7 38 8.5 38 10C38 11.5 36.75 13 35 13C33.25 13 32 11.75 32 10ZM37.5 40H7.5C6 40 5 39 5 37.5V22.5H10C10 29.5 15.5 35 22.5 35C29.5 35 35 29.5 35 22.5H40V37.5C40 39 39 40 37.5 40Z" fill="black"/>
</svg>
