<svg width="45" height="45" viewBox="0 0 45 45" fill="none" xmlns="http://www.w3.org/2000/svg">
<path d="M22.5 0C10.0698 0 0 10.0713 0 22.5C0 34.9287 10.0713 45 22.5 45C34.9302 45 45 34.9287 45 22.5C45 10.0713 34.9287 0 22.5 0ZM33.5511 15.4147L29.8582 32.8166C29.5853 34.0505 28.8508 34.3495 27.826 33.7689L22.201 29.6231L19.4879 32.236C19.1889 32.535 18.9348 32.789 18.3542 32.789L18.7534 27.0639L29.1774 17.6458C29.6318 17.2466 29.0773 17.0202 28.4777 17.4194L15.5947 25.5295L10.0423 23.7963C8.83597 23.416 8.80839 22.59 10.2963 22.0094L31.9892 13.6437C32.9966 13.2808 33.8763 13.889 33.5497 15.4132L33.5511 15.4147Z" fill="black"/>
</svg>
