<svg width="601" height="549" viewBox="0 0 601 549" fill="none" xmlns="http://www.w3.org/2000/svg"><path d="M111.464 486.256c1.088 0 1.97-.506 1.97-1.129s-.882-1.129-1.97-1.129-1.97.506-1.97 1.129.882 1.129 1.97 1.129zM118.748 482.028c1.088 0 1.97-.505 1.97-1.128 0-.624-.882-1.129-1.97-1.129s-1.97.505-1.97 1.129c0 .623.882 1.128 1.97 1.128zM105.554 480.181a.87.87 0 0 1 .569.811.86.86 0 0 1-.569.811 3.152 3.152 0 0 1-2.771 0 .87.87 0 0 1-.569-.811.86.86 0 0 1 .569-.811 2.998 2.998 0 0 1 2.771 0zM112.859 475.893c.759.451.759 1.169 0 1.6a3.038 3.038 0 0 1-2.791 0c-.78-.431-.78-1.149 0-1.6a3.03 3.03 0 0 1 2.791 0zM98.269 475.893c.78.451.78 1.169 0 1.6a3.039 3.039 0 0 1-2.791 0c-.76-.431-.76-1.149 0-1.6a3.026 3.026 0 0 1 2.79 0zM105.554 471.686c.779.451.779 1.17 0 1.6a2.999 2.999 0 0 1-2.771 0c-.779-.43-.779-1.149 0-1.6a2.998 2.998 0 0 1 2.771 0zM90.984 471.686c.76.451.76 1.17 0 1.6a3.026 3.026 0 0 1-2.79 0c-.78-.43-.78-1.149 0-1.6a3.039 3.039 0 0 1 2.79 0zM98.269 467.479a.842.842 0 0 1 0 1.601 3.038 3.038 0 0 1-2.791 0 .841.841 0 0 1 0-1.601 3.038 3.038 0 0 1 2.79 0zM82.303 469.408c1.088 0 1.97-.505 1.97-1.129 0-.623-.882-1.128-1.97-1.128-1.087 0-1.97.505-1.97 1.128 0 .624.883 1.129 1.97 1.129zM90.984 463.272c.76.431.76 1.15 0 1.601a3.039 3.039 0 0 1-2.79 0c-.78-.451-.78-1.17 0-1.601a3.038 3.038 0 0 1 2.79 0zM76.332 463.211a.86.86 0 0 1 .413 1.306.86.86 0 0 1-.413.315 3.038 3.038 0 0 1-2.79 0 .86.86 0 0 1 0-1.621 3.183 3.183 0 0 1 2.79 0zM82.242 460.953c1.088 0 1.97-.505 1.97-1.128 0-.624-.882-1.129-1.97-1.129s-1.97.505-1.97 1.129c0 .623.882 1.128 1.97 1.128zM69.047 459.004a.86.86 0 0 1 0 1.621 3.184 3.184 0 0 1-2.79 0 .86.86 0 0 1-.413-1.305.856.856 0 0 1 .413-.316 3.182 3.182 0 0 1 2.79 0zM76.332 454.797a.862.862 0 0 1 0 1.621 3.184 3.184 0 0 1-2.79 0 .86.86 0 0 1 0-1.621 3.182 3.182 0 0 1 2.79 0zM60.367 456.726c1.088 0 1.97-.505 1.97-1.128 0-.624-.882-1.129-1.97-1.129s-1.97.505-1.97 1.129c0 .623.882 1.128 1.97 1.128zM67.652 452.519c1.088 0 1.97-.505 1.97-1.128 0-.624-.882-1.129-1.97-1.129s-1.97.505-1.97 1.129c0 .623.882 1.128 1.97 1.128zM54.457 450.59c.78.452.78 1.17 0 1.601a3.04 3.04 0 0 1-2.79 0c-.76-.431-.76-1.149 0-1.601a3.038 3.038 0 0 1 2.79 0zM60.367 448.313c1.088 0 1.97-.506 1.97-1.129s-.882-1.129-1.97-1.129-1.97.506-1.97 1.129.882 1.129 1.97 1.129zM45.777 448.313c1.088 0 1.97-.506 1.97-1.129s-.882-1.129-1.97-1.129-1.97.506-1.97 1.129.882 1.129 1.97 1.129zM54.457 442.177a.841.841 0 0 1 0 1.601 3.038 3.038 0 0 1-2.79 0 .842.842 0 0 1 0-1.601 3.039 3.039 0 0 1 2.79 0zM39.887 442.177a.842.842 0 0 1 0 1.601 3.038 3.038 0 0 1-2.79 0 .842.842 0 0 1 0-1.601 3.039 3.039 0 0 1 2.79 0zM47.193 437.97c.759.431.759 1.149 0 1.601a3.038 3.038 0 0 1-2.791 0c-.76-.452-.76-1.17 0-1.601a3.038 3.038 0 0 1 2.79 0zM32.582 437.97c.78.431.78 1.149 0 1.601a3.038 3.038 0 0 1-2.791 0c-.76-.452-.76-1.17 0-1.601a3.038 3.038 0 0 1 2.79 0zM39.887 433.743a.86.86 0 0 1 0 1.621 3.039 3.039 0 0 1-2.79 0 .86.86 0 0 1 0-1.621 3.184 3.184 0 0 1 2.79 0zM25.297 433.763c.78.431.78 1.15 0 1.601a3.039 3.039 0 0 1-2.791 0c-.76-.451-.76-1.17 0-1.601a3.038 3.038 0 0 1 2.79 0zM32.582 429.536a.862.862 0 0 1 0 1.621 3.184 3.184 0 0 1-2.791 0 .86.86 0 0 1-.413-1.305.862.862 0 0 1 .413-.316 3.183 3.183 0 0 1 2.79 0zM17.95 429.495a.862.862 0 0 1 0 1.621 3.184 3.184 0 0 1-2.79 0 .86.86 0 0 1-.413-1.305.862.862 0 0 1 .413-.316 3.182 3.182 0 0 1 2.79 0zM25.235 425.288a.868.868 0 0 1 .57.811.862.862 0 0 1-.57.811 3.183 3.183 0 0 1-2.79 0 .868.868 0 0 1-.57-.811.862.862 0 0 1 .57-.811 3.038 3.038 0 0 1 2.79 0zM10.645 425.288a.868.868 0 0 1 .57.811.862.862 0 0 1-.57.811 3.183 3.183 0 0 1-2.79 0 .868.868 0 0 1-.57-.811.862.862 0 0 1 .57-.811 3.038 3.038 0 0 1 2.79 0zM16.555 423.011c1.088 0 1.97-.506 1.97-1.129s-.882-1.129-1.97-1.129-1.97.506-1.97 1.129.882 1.129 1.97 1.129zM3.36 421.082c.78.451.78 1.169 0 1.6a3.039 3.039 0 0 1-2.79 0c-.76-.431-.76-1.149 0-1.6a3.039 3.039 0 0 1 2.79 0zM9.25 418.804c1.088 0 1.97-.505 1.97-1.129 0-.623-.882-1.128-1.97-1.128s-1.97.505-1.97 1.128c0 .624.882 1.129 1.97 1.129zM3.36 412.668c.78.431.78 1.149 0 1.601a3.038 3.038 0 0 1-2.79 0c-.76-.452-.76-1.17 0-1.601a3.038 3.038 0 0 1 2.79 0zM237.215 546.874a.844.844 0 0 1 .582.8.846.846 0 0 1-.582.801 3.041 3.041 0 0 1-2.791 0 .844.844 0 0 1-.582-.801.844.844 0 0 1 .582-.8 3.038 3.038 0 0 1 2.791 0zM244.5 542.667c.779.431.779 1.149 0 1.601a3.041 3.041 0 0 1-2.791 0c-.759-.452-.759-1.17 0-1.601a3.038 3.038 0 0 1 2.791 0zM251.805 538.46c.759.431.759 1.149 0 1.601a3.037 3.037 0 0 1-2.791 0c-.78-.452-.78-1.17 0-1.601a3.038 3.038 0 0 1 2.791 0zM259.09 534.233a.862.862 0 0 1 0 1.621 3.04 3.04 0 0 1-2.791 0 .86.86 0 0 1 0-1.621 3.184 3.184 0 0 1 2.791 0zM266.375 530.026a.866.866 0 0 1 .569.811.86.86 0 0 1-.569.81 3.172 3.172 0 0 1-2.791 0 .86.86 0 0 1 0-1.621 3.184 3.184 0 0 1 2.791 0zM273.68 525.82a.86.86 0 0 1 0 1.621 3.18 3.18 0 0 1-2.791 0 .865.865 0 0 1-.412-1.306.863.863 0 0 1 .412-.315 3.03 3.03 0 0 1 2.791 0zM280.965 521.613c.759.451.759 1.17 0 1.6a3.026 3.026 0 0 1-2.791 0c-.78-.43-.78-1.149 0-1.6a3.04 3.04 0 0 1 2.791 0zM288.25 517.406c.78.452.78 1.17 0 1.601a3.041 3.041 0 0 1-2.791 0c-.759-.431-.759-1.149 0-1.601a3.037 3.037 0 0 1 2.791 0zM295.494 513.199a.844.844 0 0 1 .581.801.842.842 0 0 1-.581.8 2.997 2.997 0 0 1-2.771 0 .844.844 0 0 1-.581-.8.845.845 0 0 1 .581-.801 2.998 2.998 0 0 1 2.771 0zM302.84 508.91c.759.431.759 1.15 0 1.601a3.038 3.038 0 0 1-2.791 0c-.779-.451-.779-1.17 0-1.601a3.041 3.041 0 0 1 2.791 0zM310.125 504.806a.86.86 0 0 1 0 1.621 3.038 3.038 0 0 1-2.791 0 .86.86 0 0 1 0-1.621 3.185 3.185 0 0 1 2.791 0zM317.41 500.558a.861.861 0 0 1 .412 1.306.861.861 0 0 1-.412.316 3.152 3.152 0 0 1-1.385.322c-.48 0-.954-.111-1.385-.322a.869.869 0 0 1-.569-.811.86.86 0 0 1 .569-.811 3.152 3.152 0 0 1 1.385-.322c.48 0 .954.111 1.385.322zM222.625 546.874a.848.848 0 0 1 .421.305.845.845 0 0 1-.421 1.295 2.999 2.999 0 0 1-2.771 0 .836.836 0 0 1-.582-.8.846.846 0 0 1 .582-.8 2.998 2.998 0 0 1 2.771 0zM228.534 544.596c1.088 0 1.97-.505 1.97-1.129 0-.623-.882-1.128-1.97-1.128s-1.97.505-1.97 1.128c0 .624.882 1.129 1.97 1.129zM237.215 538.46c.779.431.779 1.149 0 1.601a3.041 3.041 0 0 1-2.791 0c-.759-.452-.759-1.17 0-1.601a3.037 3.037 0 0 1 2.791 0zM244.5 534.233a.863.863 0 0 1 0 1.621 3.042 3.042 0 0 1-2.791 0 .86.86 0 0 1 0-1.621 3.18 3.18 0 0 1 2.791 0zM251.805 530.026a.861.861 0 0 1 0 1.621 3.172 3.172 0 0 1-2.791 0 .86.86 0 0 1 0-1.621 3.184 3.184 0 0 1 2.791 0zM259.09 525.82a.86.86 0 0 1 0 1.621 3.185 3.185 0 0 1-2.791 0 .86.86 0 0 1 0-1.621 3.026 3.026 0 0 1 2.791 0zM266.375 521.613c.78.451.78 1.17 0 1.6a3.03 3.03 0 0 1-2.791 0c-.759-.43-.759-1.149 0-1.6a3.038 3.038 0 0 1 2.791 0zM273.68 517.406c.759.452.759 1.17 0 1.601a3.037 3.037 0 0 1-2.791 0c-.779-.431-.779-1.149 0-1.601a3.041 3.041 0 0 1 2.791 0zM280.965 513.199a.844.844 0 0 1 .582.801.843.843 0 0 1-.582.8 3.038 3.038 0 0 1-2.791 0 .844.844 0 0 1-.582-.8.846.846 0 0 1 .582-.801 3.037 3.037 0 0 1 2.791 0zM288.25 508.91c.78.431.78 1.15 0 1.601a3.042 3.042 0 0 1-2.791 0c-.759-.451-.759-1.17 0-1.601a3.037 3.037 0 0 1 2.791 0zM295.494 504.806a.865.865 0 0 1 .412 1.306.863.863 0 0 1-.412.315 2.998 2.998 0 0 1-2.771 0 .863.863 0 0 1 0-1.621 3.14 3.14 0 0 1 2.771 0zM302.84 500.559a.86.86 0 0 1 0 1.621 3.184 3.184 0 0 1-2.791 0 .866.866 0 0 1-.569-.811.86.86 0 0 1 .569-.81 3.172 3.172 0 0 1 2.791 0zM310.125 496.352a.86.86 0 0 1 0 1.621 3.184 3.184 0 0 1-2.791 0 .859.859 0 0 1 0-1.621 3.186 3.186 0 0 1 2.791 0zM215.34 542.667c.78.431.78 1.149 0 1.601a3.041 3.041 0 0 1-2.791 0c-.759-.452-.759-1.17 0-1.601a3.038 3.038 0 0 1 2.791 0zM222.625 538.46c.779.431.779 1.149 0 1.601a2.998 2.998 0 0 1-2.771 0c-.78-.452-.78-1.17 0-1.601a2.997 2.997 0 0 1 2.771 0zM208.055 538.46c.759.431.759 1.149 0 1.601a3.041 3.041 0 0 1-2.791 0c-.78-.452-.78-1.17 0-1.601a3.037 3.037 0 0 1 2.791 0zM215.34 534.233a.863.863 0 0 1 0 1.621 3.042 3.042 0 0 1-2.791 0 .86.86 0 0 1 0-1.621 3.184 3.184 0 0 1 2.791 0zM200.688 534.192a.862.862 0 0 1 0 1.621 3.138 3.138 0 0 1-2.77 0 .86.86 0 0 1 0-1.621 3.135 3.135 0 0 1 2.77 0zM207.993 529.985a.862.862 0 0 1 0 1.621 3.168 3.168 0 0 1-2.791 0 .863.863 0 0 1 0-1.621 3.041 3.041 0 0 1 2.791 0zM193.403 529.985a.862.862 0 0 1 0 1.621 3.171 3.171 0 0 1-2.791 0 .858.858 0 0 1-.569-.81.86.86 0 0 1 .569-.811 3.038 3.038 0 0 1 2.791 0zM200.688 525.779c.78.451.78 1.169 0 1.6a2.998 2.998 0 0 1-2.771 0c-.779-.431-.779-1.149 0-1.6a2.999 2.999 0 0 1 2.771 0zM186.118 525.779c.759.451.759 1.169 0 1.6a3.038 3.038 0 0 1-2.791 0c-.78-.431-.78-1.149 0-1.6a3.03 3.03 0 0 1 2.791 0zM193.403 521.572c.78.451.78 1.169 0 1.6a3.027 3.027 0 0 1-2.791 0c-.759-.431-.759-1.149 0-1.6a3.038 3.038 0 0 1 2.791 0zM178.833 521.572c.759.451.759 1.169 0 1.6a3.026 3.026 0 0 1-2.791 0c-.78-.431-.78-1.149 0-1.6a3.042 3.042 0 0 1 2.791 0zM186.118 517.365c.759.431.759 1.149 0 1.601a3.037 3.037 0 0 1-2.791 0c-.78-.452-.78-1.17 0-1.601a3.041 3.041 0 0 1 2.791 0zM171.528 517.365c.78.431.78 1.149 0 1.601a3.041 3.041 0 0 1-2.791 0c-.759-.452-.759-1.17 0-1.601a3.037 3.037 0 0 1 2.791 0zM178.833 513.158c.759.431.759 1.149 0 1.601a3.038 3.038 0 0 1-2.791 0c-.78-.452-.78-1.17 0-1.601a3.041 3.041 0 0 1 2.791 0zM164.161 513.158c.759.431.759 1.149 0 1.601a3.038 3.038 0 0 1-2.791 0c-.78-.452-.78-1.17 0-1.601a3.038 3.038 0 0 1 2.791 0zM171.528 508.91a.87.87 0 0 1 .569.811.86.86 0 0 1-.569.811 3.041 3.041 0 0 1-2.791 0 .869.869 0 0 1-.569-.811.867.867 0 0 1 .569-.811 3.184 3.184 0 0 1 2.791 0zM156.958 508.91a.869.869 0 0 1 .569.811.867.867 0 0 1-.569.811 3.037 3.037 0 0 1-2.791 0 .87.87 0 0 1-.569-.811.86.86 0 0 1 .569-.811 3.185 3.185 0 0 1 2.791 0zM164.161 504.806a.86.86 0 0 1 .569.811.86.86 0 0 1-.569.81 3.172 3.172 0 0 1-2.791 0 .86.86 0 0 1 0-1.621 3.184 3.184 0 0 1 2.791 0zM149.653 504.806a.865.865 0 0 1 .412 1.306.863.863 0 0 1-.412.315 3.172 3.172 0 0 1-2.791 0 .86.86 0 0 1 0-1.621 3.184 3.184 0 0 1 2.791 0zM156.958 500.517a.869.869 0 0 1 .569.811.867.867 0 0 1-.569.811 3.184 3.184 0 0 1-2.791 0 .87.87 0 0 1-.569-.811.86.86 0 0 1 .569-.811 3.041 3.041 0 0 1 2.791 0zM142.306 500.477c.76.451.76 1.169 0 1.6a3.035 3.035 0 0 1-2.79 0c-.78-.431-.78-1.149 0-1.6a3.023 3.023 0 0 1 2.79 0zM149.591 496.27c.78.451.78 1.169 0 1.6a3.038 3.038 0 0 1-2.791 0c-.759-.431-.759-1.149 0-1.6a3.03 3.03 0 0 1 2.791 0zM135.021 496.27c.76.451.76 1.169 0 1.6a3.038 3.038 0 0 1-2.791 0c-.779-.431-.779-1.149 0-1.6a3.03 3.03 0 0 1 2.791 0zM142.306 492.063a.84.84 0 0 1 .421 1.295.84.84 0 0 1-.421.306 3.037 3.037 0 0 1-2.791 0 .844.844 0 0 1-.581-.801.84.84 0 0 1 .581-.8 3.042 3.042 0 0 1 2.791 0zM127.716 492.063a.844.844 0 0 1 .582.8.846.846 0 0 1-.582.801 3.037 3.037 0 0 1-2.791 0 .844.844 0 0 1-.582-.801.84.84 0 0 1 .582-.8 3.04 3.04 0 0 1 2.791 0zM135.021 487.856c.76.431.76 1.149 0 1.601a3.037 3.037 0 0 1-2.791 0c-.779-.452-.779-1.17 0-1.601a3.041 3.041 0 0 1 2.791 0zM120.431 487.856c.78.431.78 1.149 0 1.601a3.037 3.037 0 0 1-2.791 0c-.759-.452-.759-1.17 0-1.601a3.041 3.041 0 0 1 2.791 0zM127.716 483.629a.862.862 0 0 1 0 1.621 3.038 3.038 0 0 1-2.791 0 .86.86 0 0 1 0-1.621 3.185 3.185 0 0 1 2.791 0zM321.924 496.413a3.041 3.041 0 0 1 2.791 0c.78.452.78 1.17 0 1.601a3.1 3.1 0 0 1-2.791 0 .86.86 0 0 1 0-1.601zM332.021 492.207c.779.431.779 1.149 0 1.6a3.042 3.042 0 0 1-2.791 0c-.759-.451-.759-1.169 0-1.6a3.038 3.038 0 0 1 2.791 0zM314.639 492.207a3.042 3.042 0 0 1 2.791 0 .839.839 0 0 1 0 1.6 3.038 3.038 0 0 1-2.791 0c-.677-.431-.677-1.149 0-1.6zM323.34 489.929c1.088 0 1.97-.506 1.97-1.129s-.882-1.129-1.97-1.129-1.97.506-1.97 1.129.882 1.129 1.97 1.129zM496.679 489.211c1.088 0 1.97-.506 1.97-1.129s-.882-1.129-1.97-1.129-1.97.506-1.97 1.129.882 1.129 1.97 1.129zM505.38 483.075a.839.839 0 0 1 0 1.6 3.026 3.026 0 0 1-2.791 0 .836.836 0 0 1-.582-.8.846.846 0 0 1 .582-.8 3.042 3.042 0 0 1 2.791 0zM512.665 478.868c.759.431.759 1.149 0 1.601a3.041 3.041 0 0 1-2.791 0c-.78-.452-.78-1.17 0-1.601a3.037 3.037 0 0 1 2.791 0zM519.95 474.661c.779.431.779 1.149 0 1.601a3.041 3.041 0 0 1-2.791 0c-.759-.452-.759-1.17 0-1.601a3.037 3.037 0 0 1 2.791 0zM527.255 470.434a.86.86 0 0 1 0 1.621 3.038 3.038 0 0 1-2.791 0 .863.863 0 0 1 0-1.621 3.185 3.185 0 0 1 2.791 0zM534.54 466.227a.86.86 0 0 1 0 1.621 3.171 3.171 0 0 1-2.791 0 .86.86 0 0 1 0-1.621 3.185 3.185 0 0 1 2.791 0zM461.712 499.902a.863.863 0 0 1 0 1.621 3.185 3.185 0 0 1-2.791 0 .86.86 0 0 1 0-1.621 3.182 3.182 0 0 1 2.791 0zM468.915 495.695a.865.865 0 0 1 .412 1.306.863.863 0 0 1-.412.315 3.186 3.186 0 0 1-2.791 0 .86.86 0 0 1 0-1.621 3.18 3.18 0 0 1 2.791 0zM476.199 491.488a.869.869 0 0 1 .569.811.86.86 0 0 1-.569.811 3.178 3.178 0 0 1-2.79 0 .869.869 0 0 1-.569-.811.86.86 0 0 1 .569-.811 3.034 3.034 0 0 1 2.79 0zM483.505 487.282c.759.451.759 1.169 0 1.6a3.04 3.04 0 0 1-2.791 0c-.78-.431-.78-1.149 0-1.6a3.026 3.026 0 0 1 2.791 0zM490.79 483.075a.848.848 0 0 1 .421.305.845.845 0 0 1-.421 1.295 3.03 3.03 0 0 1-2.791 0 .839.839 0 0 1 0-1.6 3.038 3.038 0 0 1 2.791 0zM498.074 478.868c.78.431.78 1.149 0 1.601a3.034 3.034 0 0 1-2.79 0c-.76-.452-.76-1.17 0-1.601a3.034 3.034 0 0 1 2.79 0zM505.38 474.661c.759.431.759 1.149 0 1.601a3.038 3.038 0 0 1-2.791 0c-.78-.452-.78-1.17 0-1.601a3.037 3.037 0 0 1 2.791 0zM512.665 470.434a.863.863 0 0 1 0 1.621 3.042 3.042 0 0 1-2.791 0 .86.86 0 0 1 0-1.621 3.18 3.18 0 0 1 2.791 0zM519.95 466.227a.865.865 0 0 1 .412 1.306.863.863 0 0 1-.412.315 3.172 3.172 0 0 1-2.791 0 .86.86 0 0 1 0-1.621 3.18 3.18 0 0 1 2.791 0zM527.255 462.021a.86.86 0 0 1 0 1.621 3.18 3.18 0 0 1-2.791 0 .87.87 0 0 1-.569-.811.86.86 0 0 1 .569-.81 3.03 3.03 0 0 1 2.791 0zM533.145 459.743c1.088 0 1.97-.506 1.97-1.129s-.882-1.129-1.97-1.129-1.97.506-1.97 1.129.882 1.129 1.97 1.129zM447.039 499.902a.86.86 0 0 1 0 1.621 3.178 3.178 0 0 1-2.79 0 .86.86 0 0 1 0-1.621 3.179 3.179 0 0 1 2.79 0zM454.324 495.695a.86.86 0 0 1 0 1.621 3.135 3.135 0 0 1-2.77 0 .86.86 0 0 1 0-1.621 3.138 3.138 0 0 1 2.77 0zM461.712 491.488a.87.87 0 0 1 .569.811.86.86 0 0 1-.569.811 3.185 3.185 0 0 1-2.791 0 .869.869 0 0 1-.569-.811.867.867 0 0 1 .569-.811 3.037 3.037 0 0 1 2.791 0zM468.914 487.282c.78.451.78 1.169 0 1.6a3.035 3.035 0 0 1-2.79 0c-.76-.431-.76-1.149 0-1.6a3.023 3.023 0 0 1 2.79 0zM476.199 483.075a.844.844 0 0 1 .582.8.839.839 0 0 1-.582.8 3.026 3.026 0 0 1-2.791 0 .836.836 0 0 1-.581-.8c0-.178.056-.351.16-.495a.848.848 0 0 1 .421-.305 3.042 3.042 0 0 1 2.791 0zM482.11 480.797c1.088 0 1.97-.505 1.97-1.129 0-.623-.882-1.128-1.97-1.128s-1.97.505-1.97 1.128c0 .624.882 1.129 1.97 1.129zM439.755 495.695a.865.865 0 0 1 .412 1.306.863.863 0 0 1-.412.315 3.186 3.186 0 0 1-2.791 0 .86.86 0 0 1 0-1.621 3.18 3.18 0 0 1 2.791 0zM447.039 491.488a.869.869 0 0 1 .569.811.86.86 0 0 1-.569.811 3.178 3.178 0 0 1-2.79 0 .869.869 0 0 1-.569-.811.86.86 0 0 1 .569-.811 3.034 3.034 0 0 1 2.79 0zM432.388 491.447c.779.452.779 1.17 0 1.601a2.998 2.998 0 0 1-2.771 0c-.779-.431-.779-1.149 0-1.601a2.997 2.997 0 0 1 2.771 0zM439.693 487.241a.836.836 0 0 1 .582.8.839.839 0 0 1-.582.8 3.038 3.038 0 0 1-2.791 0 .846.846 0 0 1-.421-1.295.836.836 0 0 1 .421-.305 3.03 3.03 0 0 1 2.791 0zM425.103 487.241a.836.836 0 0 1 .582.8.846.846 0 0 1-.582.8 3.04 3.04 0 0 1-2.791 0 .846.846 0 0 1-.421-1.295.836.836 0 0 1 .421-.305 3.026 3.026 0 0 1 2.791 0zM432.388 483.034c.779.431.779 1.149 0 1.6a2.999 2.999 0 0 1-2.771 0c-.779-.451-.779-1.169 0-1.6a2.998 2.998 0 0 1 2.771 0zM539.055 453.669a3.023 3.023 0 0 1 2.79 0c.76.43.76 1.149 0 1.6a3.035 3.035 0 0 1-2.79 0 .844.844 0 0 1-.582-.8.839.839 0 0 1 .582-.8zM549.151 449.4a.865.865 0 0 1 .412 1.306.863.863 0 0 1-.412.315 3.042 3.042 0 0 1-2.791 0 .86.86 0 0 1 0-1.621 3.18 3.18 0 0 1 2.791 0zM556.436 445.296a.863.863 0 0 1 0 1.621 3.186 3.186 0 0 1-2.791 0 .86.86 0 0 1 0-1.621 3.18 3.18 0 0 1 2.791 0zM563.721 441.028a.863.863 0 0 1 0 1.621 3.185 3.185 0 0 1-2.791 0 .856.856 0 0 1-.569-.811.86.86 0 0 1 .569-.81 3.038 3.038 0 0 1 2.791 0zM571.005 436.821c.78.452.78 1.17 0 1.601a2.99 2.99 0 0 1-2.77 0c-.78-.431-.78-1.149 0-1.601a2.997 2.997 0 0 1 2.77 0zM578.311 432.614c.759.452.759 1.17 0 1.601a3.041 3.041 0 0 1-2.791 0c-.78-.431-.78-1.149 0-1.601a3.037 3.037 0 0 1 2.791 0zM585.595 428.408c.78.431.78 1.149 0 1.6a3.035 3.035 0 0 1-2.79 0c-.76-.451-.76-1.169 0-1.6a3.035 3.035 0 0 1 2.79 0zM592.881 424.201c.779.431.779 1.149 0 1.6a3.042 3.042 0 0 1-2.791 0c-.76-.451-.76-1.169 0-1.6a3.038 3.038 0 0 1 2.791 0zM600.186 419.974a.863.863 0 0 1 0 1.621 3.041 3.041 0 0 1-2.791 0 .869.869 0 0 1-.569-.811.86.86 0 0 1 .569-.81 3.168 3.168 0 0 1 2.791 0zM531.77 449.4a3.058 3.058 0 0 1 2.77 0 .869.869 0 0 1 .569.811.86.86 0 0 1-.569.81 3.026 3.026 0 0 1-2.791 0c-.759-.41-.759-1.128.021-1.621zM541.845 445.296a.86.86 0 0 1 0 1.621 3.179 3.179 0 0 1-2.79 0 .86.86 0 0 1 0-1.621 3.178 3.178 0 0 1 2.79 0zM549.151 441.028a.863.863 0 0 1 0 1.621 3.185 3.185 0 0 1-2.791 0 .856.856 0 0 1-.569-.811.86.86 0 0 1 .569-.81 3.038 3.038 0 0 1 2.791 0zM556.436 436.821c.759.452.759 1.17 0 1.601a3.041 3.041 0 0 1-2.791 0c-.78-.431-.78-1.149 0-1.601a3.037 3.037 0 0 1 2.791 0zM563.721 432.614c.779.452.779 1.17 0 1.601a3.041 3.041 0 0 1-2.791 0c-.759-.431-.759-1.149 0-1.601a3.037 3.037 0 0 1 2.791 0zM571.005 428.408c.78.43.78 1.149 0 1.6a2.992 2.992 0 0 1-2.77 0c-.78-.451-.78-1.17 0-1.6a2.998 2.998 0 0 1 2.77 0zM578.311 424.201c.759.431.759 1.149 0 1.6a3.042 3.042 0 0 1-2.791 0c-.78-.451-.78-1.169 0-1.6a3.038 3.038 0 0 1 2.791 0zM585.596 419.974a.863.863 0 0 1 0 1.621 3.041 3.041 0 0 1-2.791 0 .869.869 0 0 1-.569-.811.86.86 0 0 1 .569-.81 3.168 3.168 0 0 1 2.791 0zM592.881 415.767a.863.863 0 0 1 0 1.621 3.185 3.185 0 0 1-2.791 0 .86.86 0 0 1 0-1.621 3.179 3.179 0 0 1 2.791 0zM600.186 411.56a.863.863 0 0 1 0 1.621 3.186 3.186 0 0 1-2.791 0 .86.86 0 0 1 0-1.621 3.038 3.038 0 0 1 2.791 0zM390.402 534.397a.84.84 0 0 1 .421 1.295.84.84 0 0 1-.421.306 3.037 3.037 0 0 1-2.791 0 .844.844 0 0 1-.581-.8.845.845 0 0 1 .581-.801 3.041 3.041 0 0 1 2.791 0zM397.687 530.191c.759.43.759 1.149 0 1.6a3.038 3.038 0 0 1-2.791 0c-.78-.451-.78-1.17 0-1.6a3.027 3.027 0 0 1 2.791 0zM404.972 525.984c.78.431.78 1.149 0 1.6a3.04 3.04 0 0 1-2.791 0c-.759-.451-.759-1.169 0-1.6a3.038 3.038 0 0 1 2.791 0zM375.812 534.397a.844.844 0 0 1 .582.801.845.845 0 0 1-.582.8 3.037 3.037 0 0 1-2.791 0 .844.844 0 0 1-.582-.8.846.846 0 0 1 .582-.801 3.038 3.038 0 0 1 2.791 0zM383.097 530.191c.78.43.78 1.149 0 1.6a3.04 3.04 0 0 1-2.791 0c-.759-.451-.759-1.17 0-1.6a3.026 3.026 0 0 1 2.791 0zM390.402 525.984c.76.431.76 1.149 0 1.6a3.038 3.038 0 0 1-2.791 0c-.779-.451-.779-1.169 0-1.6a3.042 3.042 0 0 1 2.791 0zM397.687 521.756a.869.869 0 0 1 .569.811.86.86 0 0 1-.569.811 3.037 3.037 0 0 1-2.791 0 .87.87 0 0 1-.569-.811.86.86 0 0 1 .569-.811 3.185 3.185 0 0 1 2.791 0zM404.972 517.55a.86.86 0 0 1 0 1.621 3.185 3.185 0 0 1-2.791 0 .862.862 0 0 1 0-1.621 3.185 3.185 0 0 1 2.791 0zM367.132 532.119c1.088 0 1.97-.505 1.97-1.128 0-.624-.882-1.129-1.97-1.129s-1.97.505-1.97 1.129c0 .623.882 1.128 1.97 1.128zM375.812 525.984c.759.431.759 1.149 0 1.6a3.038 3.038 0 0 1-2.791 0c-.759-.451-.759-1.169 0-1.6a3.04 3.04 0 0 1 2.791 0zM383.097 521.756a.861.861 0 0 1 .412 1.306.861.861 0 0 1-.412.316 3.038 3.038 0 0 1-2.791 0 .869.869 0 0 1-.569-.811.867.867 0 0 1 .569-.811 3.184 3.184 0 0 1 2.791 0zM390.402 517.55a.86.86 0 0 1 0 1.621 3.18 3.18 0 0 1-2.791 0 .865.865 0 0 1-.412-1.306.863.863 0 0 1 .412-.315 3.186 3.186 0 0 1 2.791 0zM361.16 525.984c.78.431.78 1.149 0 1.6a3.038 3.038 0 0 1-2.791 0c-.759-.451-.759-1.169 0-1.6a3.042 3.042 0 0 1 2.791 0zM368.527 521.756a.869.869 0 0 1 .569.811.867.867 0 0 1-.569.811 3.037 3.037 0 0 1-2.791 0 .866.866 0 0 1-.569-.811.86.86 0 0 1 .569-.811 3.185 3.185 0 0 1 2.791 0zM353.937 521.756a.87.87 0 0 1 .569.811.86.86 0 0 1-.569.811 3.041 3.041 0 0 1-2.791 0 .869.869 0 0 1-.569-.811.867.867 0 0 1 .569-.811 3.18 3.18 0 0 1 2.791 0zM359.826 519.499c1.088 0 1.97-.505 1.97-1.128 0-.624-.882-1.129-1.97-1.129s-1.97.505-1.97 1.129c0 .623.882 1.128 1.97 1.128zM346.652 517.55a.86.86 0 0 1 0 1.621 3.184 3.184 0 0 1-2.791 0 .86.86 0 0 1-.569-.811.86.86 0 0 1 .569-.81 3.186 3.186 0 0 1 2.791 0zM353.937 513.343a.863.863 0 0 1 0 1.621 3.185 3.185 0 0 1-2.791 0 .86.86 0 0 1 0-1.621 3.038 3.038 0 0 1 2.791 0zM339.285 513.302c.78.451.78 1.17 0 1.601a3.038 3.038 0 0 1-2.791 0c-.759-.431-.759-1.15 0-1.601a3.038 3.038 0 0 1 2.791 0zM346.59 509.095c.76.452.76 1.17 0 1.601a3.037 3.037 0 0 1-2.791 0c-.779-.431-.779-1.149 0-1.601a3.041 3.041 0 0 1 2.791 0zM332 509.095c.78.452.78 1.17 0 1.601a3.037 3.037 0 0 1-2.791 0c-.759-.431-.759-1.149 0-1.601a3.041 3.041 0 0 1 2.791 0zM339.285 504.806a.844.844 0 0 1 .582.801.843.843 0 0 1-.582.8 3.038 3.038 0 0 1-2.791 0 .844.844 0 0 1-.582-.8.846.846 0 0 1 .582-.801 3.038 3.038 0 0 1 2.791 0zM332 500.702c.78.431.78 1.149 0 1.601a3.037 3.037 0 0 1-2.791 0c-.759-.452-.759-1.17 0-1.601a3.041 3.041 0 0 1 2.791 0z" fill="#16110D"/><path d="M460.583 394.589L235.348 524.26c-4.494 2.606-12.313 2.278-17.546-.718L7.116 402.469c-5.192-2.996-5.746-7.531-1.252-10.116L231.1 262.661c4.494-2.585 12.312-2.257 17.524.739l210.708 121.073c5.191 2.996 5.745 7.469 1.251 10.116z" fill="#FEBD33"/><path d="M460.583 404.008L235.348 533.679c-4.494 2.586-12.313 2.257-17.546-.739L7.116 411.868c-5.192-2.996-5.746-7.531-1.252-10.117L231.1 272.081c4.494-2.586 12.312-2.278 17.524.718l210.708 121.072c5.191 3.017 5.745 7.552 1.251 10.137z" fill="#FDECCC"/><path d="M227.775 526.989a21.342 21.342 0 0 1-10.424-2.585L6.664 403.331a8.207 8.207 0 0 1-4.802-6.607 6.153 6.153 0 0 1 3.53-5.254L230.628 261.8c4.76-2.75 13.092-2.422 18.468.738l210.687 121.073a8.207 8.207 0 0 1 4.802 6.587 6.157 6.157 0 0 1-3.55 5.274L235.84 525.122a16.544 16.544 0 0 1-8.065 1.867zm10.979-265.169a14.36 14.36 0 0 0-7.121 1.642L6.356 393.112a4.248 4.248 0 0 0-2.544 3.529 6.36 6.36 0 0 0 3.796 4.864l210.707 121.072c4.905 2.853 12.313 3.161 16.417.739l225.256-129.671a4.266 4.266 0 0 0 2.524-3.529 6.347 6.347 0 0 0-3.796-4.864L248.029 264.18a19.396 19.396 0 0 0-9.316-2.36h.041z" fill="#16110D"/><path d="M593.988 403.885l-137.119 79.19a10.26 10.26 0 0 1-9.255-.39l-111.079-63.922c-2.75-1.58-3.037-3.981-.677-5.335l137.14-79.19a10.26 10.26 0 0 1 9.255.39l111.161 63.922c2.647 1.601 2.955 3.981.574 5.335z" fill="#FEBD33"/><path d="M593.64 410.165l-137.141 79.169a10.265 10.265 0 0 1-9.254-.39l-111.161-63.922c-2.73-1.58-3.037-3.961-.657-5.336l137.14-79.169a10.262 10.262 0 0 1 9.234.37l111.243 63.922c2.668 1.498 2.955 3.981.596 5.356z" fill="#FCEBCC"/><path d="M452.826 485.004a11.635 11.635 0 0 1-5.725-1.457L335.94 419.625a4.785 4.785 0 0 1-2.77-3.879 3.707 3.707 0 0 1 2.052-3.181l137.14-79.189a11.186 11.186 0 0 1 10.261.39l111.16 63.922a4.732 4.732 0 0 1 2.771 3.878 3.734 3.734 0 0 1-2.052 3.202l-137.14 79.169a9.16 9.16 0 0 1-4.536 1.067zm24.092-150.684a7.2 7.2 0 0 0-3.509.8l-137.12 79.169a1.847 1.847 0 0 0-1.108 1.457c0 .698.657 1.519 1.765 2.155l111.161 63.922a9.404 9.404 0 0 0 8.208.39l137.14-79.19a1.89 1.89 0 0 0 1.108-1.457c0-.697-.677-1.518-1.765-2.154L481.617 335.49a9.876 9.876 0 0 0-4.699-1.17z" fill="#16110D"/><path d="M187.247 435.241a8.719 8.719 0 0 1-4.433-1.211l-36.26-21.198 1.006-1.723 36.26 21.197a6.788 6.788 0 0 0 6.833 0l61.398-35.767 1.006 1.744-61.378 35.768a8.765 8.765 0 0 1-4.432 1.19z" fill="#FDBC38"/><path d="M187.247 433.333a8.739 8.739 0 0 1-4.433-1.211l-32.607-19.105 1.026-1.724 32.587 19.105a6.83 6.83 0 0 0 6.833 0l61.398-35.768 1.006 1.724-61.378 35.788a8.756 8.756 0 0 1-4.432 1.191z" fill="#16110D"/><path d="M413.905 402.542l-1.016 1.735 73.728 43.153 1.016-1.736-73.728-43.152z" fill="#FDBC38"/><path d="M413.92 400.634l-1.016 1.735 73.728 43.153 1.016-1.736-73.728-43.152z" fill="#16110D"/><path d="M510.1 433.928l-1.006-1.724 41.616-24.625c.319-.184.583-.451.764-.772.18-.322.271-.686.262-1.054a2.047 2.047 0 0 0-1.046-1.786l-52.964-30.494 1.005-1.744 52.944 30.474a4.097 4.097 0 0 1 2.027 3.539 4.1 4.1 0 0 1-2.027 3.54L510.1 433.928z" fill="#FDBC38"/><path d="M510.1 432.019l-1.006-1.724 41.616-24.624a2.054 2.054 0 0 0 1.026-1.806 2.052 2.052 0 0 0-1.046-1.806l-52.964-30.494 1.005-1.724 52.944 30.474a4.097 4.097 0 0 1 2.027 3.539 4.1 4.1 0 0 1-2.027 3.54L510.1 432.019zM481.843 118.175L280.637 2.15a8.704 8.704 0 0 0-7.449-.574l-8.968 3.817a.244.244 0 0 0-.11.205.249.249 0 0 0 .11.205l3.448 2.75-86.947 346.021a10.55 10.55 0 0 0 4.966 11.717l199.749 115.163-.143 5.13h.123l10.424-4.351a8.556 8.556 0 0 0 3.838-5.253l87.131-347.088a10.572 10.572 0 0 0-4.966-11.717z" fill="#16110D"/><path d="M385.313 487.795l-1.006-.616v-.636l.124-4.515-199.236-114.916a11.59 11.59 0 0 1-5.438-12.825l86.72-345.344-2.955-2.36a1.277 1.277 0 0 1-.451-1.15 1.234 1.234 0 0 1 .739-.964l1.108-.369 7.88-3.448a9.703 9.703 0 0 1 8.331.637l201.206 116.024a11.593 11.593 0 0 1 5.418 12.825l-87.111 346.986a9.642 9.642 0 0 1-4.268 5.848l-11.061 4.823zM265.78 5.824l3.037 2.38-87.131 346.616a9.585 9.585 0 0 0 4.494 10.589L386.462 480.9l-.123 4.268 9.091-3.961a7.635 7.635 0 0 0 3.283-4.576l87.131-346.985a9.622 9.622 0 0 0-4.494-10.63L280.247 3.012a7.637 7.637 0 0 0-6.608-.513l-7.859 3.325z" fill="#16110D"/><path d="M378.028 486.071L176.925 370.047a10.565 10.565 0 0 1-4.966-11.718l87.028-346.985a8.729 8.729 0 0 1 5.057-5.891 8.717 8.717 0 0 1 7.748.473L472.998 121.93a10.568 10.568 0 0 1 4.966 11.717l-87.151 347.006a8.695 8.695 0 0 1-5.044 5.891 8.704 8.704 0 0 1-7.741-.473z" fill="#FEBD33"/><path d="M478.128 129.769a11.04 11.04 0 0 0-2.216-1.765L274.747 12a8.718 8.718 0 0 0-10.968 1.879 8.73 8.73 0 0 0-1.837 3.539l-87.131 346.985a10.765 10.765 0 0 0-.267 3.509 10.488 10.488 0 0 0 2.237 1.765l201.103 116.024a8.708 8.708 0 0 0 7.748.467 8.696 8.696 0 0 0 5.037-5.905l87.234-346.882a10.26 10.26 0 0 0 .225-3.612z" fill="#FDECCC"/><path d="M382.358 488.246a9.678 9.678 0 0 1-4.822-1.313L176.432 370.929a11.632 11.632 0 0 1-5.438-12.846l87.029-346.985a9.702 9.702 0 0 1 5.666-6.627 9.702 9.702 0 0 1 8.698.594l201.104 116.003a11.6 11.6 0 0 1 5.438 12.826l-87.131 346.985a9.702 9.702 0 0 1-5.623 6.587 9.913 9.913 0 0 1-3.817.78zm-3.817-3.057a7.68 7.68 0 0 0 6.848.434 7.663 7.663 0 0 0 4.459-5.216l87.131-347.026a9.54 9.54 0 0 0-4.494-10.589L271.279 6.788a7.695 7.695 0 0 0-11.307 4.802l-87.131 346.986a9.561 9.561 0 0 0 4.494 10.609l201.206 116.004z" fill="#16110D"/><path d="M186.262 355.579l83.437-331.43a3.055 3.055 0 0 1 3.152-2.312c.473.029.932.167 1.342.403l186.39 107.406a5.888 5.888 0 0 1 2.77 6.525l-83.457 331.431a3.06 3.06 0 0 1-4.474 1.908l-186.39-107.405a5.893 5.893 0 0 1-2.77-6.526z" fill="#FDBC38"/><path d="M180.947 354.451l85.53-339.66L449.912 121.54l-85.53 339.66-183.435-106.749z" fill="#FEEDCC"/><path d="M376.941 470.927a4.116 4.116 0 0 1-2.052-.554l-186.37-107.406a6.914 6.914 0 0 1-3.242-7.634l83.54-331.43a4.105 4.105 0 0 1 5.951-2.524l186.328 107.405a6.876 6.876 0 0 1 3.222 7.634l-83.437 331.451a4.106 4.106 0 0 1-2.36 2.75c-.5.211-1.038.316-1.58.308zM187.226 355.826a4.885 4.885 0 0 0 2.299 5.335l186.39 107.406a2.053 2.053 0 0 0 1.826.102 2.054 2.054 0 0 0 1.19-1.395l83.438-331.349a4.866 4.866 0 0 0-2.278-5.397L273.701 23.123a2.057 2.057 0 0 0-1.825-.115 2.057 2.057 0 0 0-1.192 1.387l-83.458 331.431z" fill="#16110D"/><path d="M447.06 270.534L395.027 478.61l1.353.339 52.034-208.076-1.354-.339zM464.24 202.722l-4.88 19.34 1.353.341 4.88-19.34-1.353-.341zM457.322 230.535l-4.89 19.337 1.353.343 4.89-19.338-1.353-.342zM477.41 155.954l-1.354-.329 6.012-23.988c.33-1.923.121-3.899-.604-5.71a10.56 10.56 0 0 0-3.5-4.551l-169.46-97.679.718-1.21 169.399 97.678a11.969 11.969 0 0 1 4.822 11.718l-6.033 24.071zM277.444 4.161l-.697 1.21 23.039 13.284.697-1.208L277.444 4.16zM539.342 370.395l-.164-35.911-75.558-1.498.164 35.214a1.908 1.908 0 0 0 1.108 2.277l34.27 20.275a7.775 7.775 0 0 0 6.977-.226l31.499-17.668c1.232-.698 1.806-1.601 1.704-2.463z" fill="#FEBD33"/><path d="M476.076 333.438l.144 31.704a2.562 2.562 0 0 0 1.272 2.38l34.044 20.131 26.103-14.672c1.231-.698 1.805-1.601 1.703-2.463l-.164-35.829-63.102-1.251z" fill="#FDECCC"/><path d="M502.281 392.558a7.307 7.307 0 0 1-3.632-.862l-34.269-20.275a2.972 2.972 0 0 1-1.601-3.283l-.164-36.096 76.809 1.519a.757.757 0 0 1 .739.759l.184 36.014a3.729 3.729 0 0 1-2.236 3.406l-31.5 17.751a9.138 9.138 0 0 1-4.33 1.067zm-37.655-58.464l.164 34.352v.144c-.144.389 0 .779.657 1.108l34.228 20.192a5.326 5.326 0 0 0 2.832.575v-38.579l17.853-12.005 17.812-4.412-73.546-1.375z" fill="#15100C"/><path d="M498.998 354.574l-34.29-20.275c-1.765-1.046-1.519-2.852.554-4.104l31.499-17.75a7.722 7.722 0 0 1 6.957-.205l34.29 20.274c1.765 1.047 1.519 2.832-.554 4.002l-31.499 17.75a7.715 7.715 0 0 1-6.957.308z" fill="#FEBD33"/><path d="M502.117 356.298a7.304 7.304 0 0 1-3.632-.862l-34.29-20.275a3.013 3.013 0 0 1-1.663-2.626 3.776 3.776 0 0 1 2.237-3.12l31.5-17.75a8.686 8.686 0 0 1 7.962-.205l34.269 20.274a2.97 2.97 0 0 1 1.683 2.627 3.795 3.795 0 0 1-2.237 3.119l-31.499 17.751a9.14 9.14 0 0 1-4.33 1.067zm-1.498-43.71a6.88 6.88 0 0 0-3.365.821l-31.438 17.751c-.903.492-1.231 1.046-1.231 1.395s.431.718.697.883l34.27 20.274a6.81 6.81 0 0 0 5.971-.226l31.5-17.75c.903-.513 1.211-1.047 1.231-1.396.021-.348-.451-.738-.698-.882l-34.29-20.274a5.025 5.025 0 0 0-2.565-.596h-.082z" fill="#15100C"/><path d="M539.362 325.27v-15.411l-25.425-.574-10.034-5.931a7.695 7.695 0 0 0-6.978.205l-9.09 5.13-24.071-.554v15.473c.025.368.149.722.359 1.025.209.304.496.545.831.699l34.27 20.254a7.704 7.704 0 0 0 6.977-.205l31.438-17.751a2.79 2.79 0 0 0 1.723-2.36z" fill="#FEBD33"/><path d="M506.981 305.755l-6.28 3.509-12.312-.267-.493.267-11.225-.246v15.206a2.049 2.049 0 0 0 1.17 1.723l31.212 18.469 28.729-16.15a2.768 2.768 0 0 0 1.724-2.36v-15.411l-25.569-.636-6.956-4.104z" fill="#FCEBCC"/><path d="M502.281 347.33a7.04 7.04 0 0 1-3.611-.882l-34.29-20.172a3.04 3.04 0 0 1-1.663-2.586v-15.411a1.025 1.025 0 0 1 1.067-1.046l23.784.533 8.865-4.986a8.718 8.718 0 0 1 7.983-.206l9.808 5.787 25.344.575a.82.82 0 0 1 .8.8v15.596a3.795 3.795 0 0 1-2.237 3.263l-31.499 17.73a9.011 9.011 0 0 1-4.351 1.005zm-37.573-38.169v14.365c0 .39.431.698.698.862l34.269 20.356c.794.425 1.686.63 2.586.596v-19.003l27.58-11.717 8.557-3.776-24.625-.554-10.26-6.054a6.69 6.69 0 0 0-5.972.226l-9.337 5.254-23.496-.555z" fill="#15100C"/><path d="M499.162 330.072l-34.27-20.213c-1.764-1.067-1.539-2.852.534-4.104l31.499-17.75a7.773 7.773 0 0 1 6.977-.226l34.27 20.274c1.785 1.047 1.539 2.853-.534 4.104l-31.499 17.751a7.768 7.768 0 0 1-6.977.164z" fill="#FEBD33"/><path d="M497.09 292.499l-31.479 17.75a4.895 4.895 0 0 0-.719.472l34.106 20.172a7.76 7.76 0 0 0 6.977-.205l31.499-17.751c.248-.142.481-.307.698-.492l-34.105-20.172a7.779 7.779 0 0 0-6.977.226z" fill="#FDECCC"/><path d="M502.281 331.816a6.979 6.979 0 0 1-3.611-.882L464.4 310.68a3.115 3.115 0 0 1-1.683-2.647 3.875 3.875 0 0 1 2.237-3.119l31.479-17.628a8.722 8.722 0 0 1 7.983-.225l34.269 20.274a3.084 3.084 0 0 1 1.683 2.647 3.861 3.861 0 0 1-2.237 3.099l-31.499 17.75a9.004 9.004 0 0 1-4.351.985zm-2.606-2.606a6.691 6.691 0 0 0 5.972-.225l31.499-17.751c.883-.492 1.211-1.046 1.211-1.395s-.431-.719-.698-.883l-34.269-20.274a6.75 6.75 0 0 0-5.972.246l-31.499 17.73c-.883.513-1.211 1.067-1.211 1.395 0 .329.431.739.698.903l34.269 20.254z" fill="#15100C"/><path d="M500.27 321.535L479.257 309.1c-1.088-.636-.923-1.744.349-2.463l19.289-10.855a4.756 4.756 0 0 1 4.269-.144l20.992 12.415c1.088.657.944 1.745-.328 2.463l-19.289 10.876a4.777 4.777 0 0 1-2.118.577 4.749 4.749 0 0 1-2.151-.434z" fill="#FEBD33"/><path d="M498.895 307.233l-11.984 6.73 13.359 7.901a4.762 4.762 0 0 0 4.268-.144l11.985-6.751-13.359-7.901a4.758 4.758 0 0 0-4.269.165z" fill="#FCEBCC"/><path d="M502.179 322.972a4.8 4.8 0 0 1-2.422-.575l-21.013-12.435a2.26 2.26 0 0 1-1.211-2.052 2.707 2.707 0 0 1 1.581-2.237l19.289-10.876a5.707 5.707 0 0 1 5.274-.123l20.993 12.312a2.256 2.256 0 0 1 1.21 2.052 2.695 2.695 0 0 1-1.559 2.258l-19.29 10.876a5.937 5.937 0 0 1-2.852.8zm-.903-26.677a4.104 4.104 0 0 0-1.888.451l-19.31 10.876c-.431.247-.534.472-.534.513 0 .042 0 0 .226.206l21.013 12.312a3.741 3.741 0 0 0 3.263-.123l19.29-10.876c.451-.267.554-.493.554-.534 0-.041 0 0-.246-.205l-20.993-12.312a2.79 2.79 0 0 0-1.375-.411v.103z" fill="#15100C"/><path d="M479.257 309.141l3.509 2.052 16.129-9.091a4.77 4.77 0 0 1 4.269-.123l17.504 10.261 3.16-1.786c1.273-.718 1.416-1.806.329-2.462l-20.993-12.313a4.823 4.823 0 0 0-4.269.123l-19.289 10.876c-1.272.719-1.477 1.827-.349 2.463z" fill="#FEBD33"/><path d="M520.647 313.491l-17.894-10.629a3.743 3.743 0 0 0-3.263.143l-16.642 9.358-3.981-2.36a2.243 2.243 0 0 1-1.231-1.95 2.715 2.715 0 0 1 1.58-2.236l19.289-10.876a5.698 5.698 0 0 1 5.274-.123l20.993 12.415a2.233 2.233 0 0 1 1.211 1.949 2.706 2.706 0 0 1-1.56 2.257l-3.776 2.052zm-19.371-12.948a4.842 4.842 0 0 1 2.401.595l16.991 10.055 2.667-1.498c.452-.267.555-.492.555-.533 0-.042 0 0-.247-.206l-20.89-12.415a2.803 2.803 0 0 0-1.375-.308l-.102 4.31z" fill="#15100C"/><path d="M167.506 401.115v-15.329l-25.426-.575-10.034-5.951a7.719 7.719 0 0 0-6.957.226l-9.111 5.13-24.112-.554v15.452a2.049 2.049 0 0 0 1.17 1.745l34.29 20.254a7.713 7.713 0 0 0 6.957-.206l31.499-17.75a2.789 2.789 0 0 0 1.724-2.442z" fill="#FEBD33"/><path d="M135.124 381.682l-6.156 3.509-12.313-.267-.492.267-11.225-.246v15.165c.025.367.149.721.358 1.025.21.303.497.544.832.698l31.192 18.469 28.729-16.15a2.778 2.778 0 0 0 1.198-.934 2.76 2.76 0 0 0 .525-1.426v-15.411l-25.692-.595-6.956-4.104z" fill="#FCEBCC"/><path d="M130.445 423.175a7.097 7.097 0 0 1-3.632-.883l-34.27-20.254a3.092 3.092 0 0 1-1.682-2.585v-15.411a1.044 1.044 0 0 1 .674-.979c.132-.05.273-.073.413-.068l23.784.534 8.865-5.007a8.8 8.8 0 0 1 7.962-.206l9.809 5.808 25.363.574a.83.83 0 0 1 .548.247.827.827 0 0 1 .232.554v15.575a3.755 3.755 0 0 1-2.237 3.283l-31.499 17.73a8.922 8.922 0 0 1-4.33 1.088zm-37.573-38.169v14.365c0 .39.43.697.677.862l34.29 20.438c.786.425 1.672.63 2.565.595v-19.002l27.601-11.82 8.557-3.776-24.625-.554-10.261-6.156a6.775 6.775 0 0 0-5.951.226l-9.357 5.274-23.496-.452z" fill="#140F0C"/><path d="M127.326 405.917l-34.29-20.275c-1.765-1.046-1.519-2.832.554-4.104l31.582-17.648a7.706 7.706 0 0 1 6.956-.225l34.29 20.274c1.765 1.047 1.519 2.852-.554 4.104l-31.499 17.751a7.724 7.724 0 0 1-7.039.123z" fill="#FEBD33"/><path d="M125.171 368.343l-31.499 17.751c-.25.14-.49.298-.718.472l34.27 20.172a7.71 7.71 0 0 0 6.956-.206l31.499-17.75c.254-.142.494-.307.719-.492l-34.126-20.172a7.72 7.72 0 0 0-7.101.225z" fill="#FDECCC"/><path d="M130.425 407.641a7.088 7.088 0 0 1-3.612-.862l-34.27-20.275a2.972 2.972 0 0 1-1.682-2.626 3.801 3.801 0 0 1 2.236-3.12l31.5-17.75a8.75 8.75 0 0 1 7.962-.205l34.27 20.274a3.003 3.003 0 0 1 1.682 2.627 3.776 3.776 0 0 1-2.298 3.119l-31.499 17.751a8.941 8.941 0 0 1-4.289 1.067zm-2.586-2.586a6.645 6.645 0 0 0 5.951-.226l31.499-17.75c.903-.493 1.211-1.047 1.232-1.396.02-.348-.452-.718-.698-.882l-34.29-20.275a6.78 6.78 0 0 0-5.951.226l-31.5 17.751c-.902.513-1.21 1.067-1.23 1.395-.021.328.43.739.697.882l34.29 20.275z" fill="#140F0C"/><path d="M128.414 397.36l-20.993-12.313c-1.088-.636-.944-1.744.328-2.462l19.29-10.856a4.763 4.763 0 0 1 4.289-.308l21.013 12.416c1.088.656.923 1.744-.349 2.462l-19.289 10.876a4.704 4.704 0 0 1-4.289.185z" fill="#FEBD33"/><path d="M127.039 383.077l-11.984 6.813 13.359 7.901a4.759 4.759 0 0 0 4.268-.144l11.984-6.751-13.338-7.962a4.757 4.757 0 0 0-4.289.143z" fill="#FCEBCC"/><path d="M130.322 398.817a4.729 4.729 0 0 1-2.421-.595l-20.993-12.436a2.278 2.278 0 0 1-1.231-1.95 2.746 2.746 0 0 1 1.58-2.236l19.289-10.876a5.698 5.698 0 0 1 5.274-.123l20.993 12.312a2.257 2.257 0 0 1 1.231 2.052 2.706 2.706 0 0 1-1.58 2.257l-19.289 10.876a5.727 5.727 0 0 1-2.853.719zm-.903-26.677a4.107 4.107 0 0 0-1.888.451l-19.289 10.876c-.451.246-.554.472-.554.513 0 .041 0 .103.246.205l20.993 12.415a3.675 3.675 0 0 0 3.263-.143l19.289-10.856c.452-.266.554-.492.554-.533 0-.041 0 0-.225-.205l-21.014-12.416a2.793 2.793 0 0 0-1.375-.41v.103z" fill="#140F0C"/><path d="M107.421 384.986l3.489 2.052 16.129-9.091a4.76 4.76 0 0 1 4.268-.123l17.504 10.26 3.161-1.785c1.272-.718 1.436-1.826.348-2.462l-21.013-12.313a4.827 4.827 0 0 0-4.268.123l-19.29 10.876c-1.272.718-1.416 1.827-.328 2.463z" fill="#FEBD33"/><path d="M148.791 389.336l-17.997-10.63a3.756 3.756 0 0 0-3.263.144l-16.621 9.357-4.002-2.421a2.278 2.278 0 0 1-1.231-1.95 2.746 2.746 0 0 1 1.58-2.236l19.289-10.876a5.698 5.698 0 0 1 5.274-.123l20.993 12.415a2.256 2.256 0 0 1 1.231 1.949 2.746 2.746 0 0 1-1.58 2.257l-3.673 2.114zm-19.372-12.949a4.74 4.74 0 0 1 2.401.596l17.012 10.055 2.647-1.498c.452-.267.554-.493.554-.534 0-.041 0-.102-.225-.205l-21.014-12.415a2.782 2.782 0 0 0-1.375-.308v4.309z" fill="#140F0C"/><path d="M526.927 454.099v-15.411l-25.426-.574-10.034-5.931a7.694 7.694 0 0 0-6.977.206l-9.091 5.13-24.132-.554v15.472a2.05 2.05 0 0 0 1.19 1.724l34.269 20.254a7.695 7.695 0 0 0 6.977-.205l31.5-17.751a2.793 2.793 0 0 0 1.724-2.36z" fill="#FEBD33"/><path d="M494.545 434.584l-6.156 3.509-12.313-.266-.492.266-11.225-.246v15.165a2.046 2.046 0 0 0 1.17 1.724l31.212 18.468 28.729-16.15a2.77 2.77 0 0 0 1.723-2.359v-15.412l-25.425-.574-7.223-4.125z" fill="#FCEBCC"/><path d="M489.846 476.077a7.044 7.044 0 0 1-3.612-.882l-34.29-20.254a3.038 3.038 0 0 1-1.662-2.586v-15.267a1.024 1.024 0 0 1 1.067-1.047l23.783.534 8.886-5.007a8.8 8.8 0 0 1 7.962-.205l9.809 5.807 25.343.575a.819.819 0 0 1 .8.8v15.596a3.789 3.789 0 0 1-2.237 3.262l-31.499 17.73a8.994 8.994 0 0 1-4.35.944zm-37.574-38.168v14.364c0 .39.431.698.698.862l34.27 20.254c.793.424 1.686.63 2.585.595v-19.002l27.58-11.717 8.557-3.776-24.625-.554-10.26-6.054a6.763 6.763 0 0 0-5.972.205l-9.336 5.274-23.497-.451z" fill="#140F0C"/><path d="M486.727 458.901l-34.27-20.254c-1.765-1.067-1.539-2.852.533-4.104l31.5-17.75a7.77 7.77 0 0 1 6.977-.226l34.27 20.275c1.785 1.046 1.539 2.852-.534 4.104l-31.499 17.75a7.763 7.763 0 0 1-6.977.205z" fill="#FEBD33"/><path d="M484.675 421.328l-31.5 17.812a4.885 4.885 0 0 0-.718.472l34.106 20.049a7.754 7.754 0 0 0 6.977-.206l31.499-17.75c.247-.142.481-.307.698-.493l-34.106-20.171a7.71 7.71 0 0 0-6.956.287z" fill="#FDECCC"/><path d="M489.846 460.625a6.982 6.982 0 0 1-3.612-.862l-34.27-20.254a3.12 3.12 0 0 1-1.682-2.647 3.88 3.88 0 0 1 2.237-3.119l31.499-17.73a8.72 8.72 0 0 1 7.982-.226l34.27 20.275a3.076 3.076 0 0 1 1.683 2.626 3.795 3.795 0 0 1-2.237 3.12l-31.52 17.853a8.99 8.99 0 0 1-4.35.964zm-2.606-2.585a6.686 6.686 0 0 0 5.971-.226l31.5-17.751c.882-.492 1.21-1.046 1.21-1.395s-.431-.718-.697-.882l-34.27-20.275a6.81 6.81 0 0 0-5.972.226l-31.478 17.75c-.883.513-1.211 1.067-1.211 1.396 0 .328.431.738.697.903l34.25 20.254z" fill="#140F0C"/><path d="M487.835 450.344l-21.013-12.415c-1.088-.636-.924-1.744.348-2.462l19.29-10.856a4.77 4.77 0 0 1 4.268-.143l20.993 12.415c1.088.656.944 1.744-.328 2.462l-19.29 10.876a4.703 4.703 0 0 1-4.268.123z" fill="#FEBD33"/><path d="M486.46 436.062l-11.984 6.751 13.359 7.901a4.759 4.759 0 0 0 4.268-.144l11.984-6.751-13.359-7.901a4.759 4.759 0 0 0-4.268.144z" fill="#FCEBCC"/><path d="M489.743 451.801a4.795 4.795 0 0 1-2.421-.574l-21.013-12.436a2.257 2.257 0 0 1-1.211-2.052 2.715 2.715 0 0 1 1.58-2.237l19.289-10.876a5.722 5.722 0 0 1 2.622-.708 5.717 5.717 0 0 1 2.652.585l20.993 12.313a2.297 2.297 0 0 1 1.231 2.052 2.735 2.735 0 0 1-.487 1.34 2.74 2.74 0 0 1-1.093.917l-19.289 10.876a5.93 5.93 0 0 1-2.853.8zm-.903-26.677a4.108 4.108 0 0 0-1.888.452l-19.31 10.876c-.431.246-.533.472-.533.513 0 .041 0 .102.226.205l21.054 12.23a3.737 3.737 0 0 0 3.263-.123l19.289-10.876c.452-.267.554-.492.554-.533 0-.041 0 0-.246-.206l-20.993-12.312a2.78 2.78 0 0 0-1.416-.328v.102z" fill="#140F0C"/><path d="M466.821 437.97l3.509 2.052 16.13-9.09a4.747 4.747 0 0 1 2.119-.567 4.744 4.744 0 0 1 2.149.444l17.504 10.26 3.161-1.785c1.272-.719 1.415-1.806.328-2.463l-20.993-12.312a4.82 4.82 0 0 0-4.268.123l-19.29 10.876c-1.354.718-1.354 1.826-.349 2.462z" fill="#FEBD33"/><path d="M508.212 442.321l-17.997-10.63a3.745 3.745 0 0 0-3.263.144l-16.642 9.357-3.981-2.36a2.229 2.229 0 0 1-1.231-1.949 2.705 2.705 0 0 1 1.58-2.237l19.289-10.876a5.71 5.71 0 0 1 5.274-.123l20.993 12.415a2.3 2.3 0 0 1 1.231 1.949 2.788 2.788 0 0 1-1.58 2.258l-3.673 2.052zm-19.372-12.949a4.837 4.837 0 0 1 2.401.595l16.991 10.055 2.668-1.498c.451-.266.554-.492.554-.533 0-.041 0-.103-.226-.205l-21.013-12.416a2.792 2.792 0 0 0-1.375-.307v4.309z" fill="#140F0C"/><path d="M362.289 326.276a10.262 10.262 0 0 1-4.823-11.389l1.601-6.362a5.375 5.375 0 0 1 5.575-4.073 5.386 5.386 0 0 1 2.367.728l46.93 27.355 2.689-10.712-46.664-26.985a10.26 10.26 0 0 1-4.823-11.41l1.601-6.361a5.397 5.397 0 0 1 7.941-3.324l47.198 27.477 2.791-11.061-46.664-26.985a10.258 10.258 0 0 1-4.823-11.409l1.601-6.341a5.394 5.394 0 0 1 7.941-3.345l47.198 27.477 2.688-10.732-46.848-27.087a10.265 10.265 0 0 1-4.823-11.41l1.601-6.361a5.399 5.399 0 0 1 7.941-3.325l47.321 27.58 2.791-11.06-67.39-38.621a10.256 10.256 0 0 1-4.823-11.409l1.601-6.341a5.408 5.408 0 0 1 1.139-2.195 5.405 5.405 0 0 1 6.803-1.15l67.718 39.113 17.689-70.263a5.893 5.893 0 0 0-2.77-6.526L274.193 22.363a3.058 3.058 0 0 0-4.494 1.909l-83.437 331.431a5.883 5.883 0 0 0 2.77 6.525l186.493 107.406a3.05 3.05 0 0 0 2.709.153 3.065 3.065 0 0 0 1.764-2.062l28.852-114.567-46.561-26.882z" fill="#FDECCC"/><path d="M365.121 334.484a10.258 10.258 0 0 1-4.823-11.389l1.601-6.361a5.39 5.39 0 0 1 5.575-4.064 5.397 5.397 0 0 1 2.366.719l46.931 27.374 2.709-10.732-46.664-26.944a10.258 10.258 0 0 1-4.822-11.389l1.6-6.361a5.405 5.405 0 0 1 5.576-4.063 5.404 5.404 0 0 1 2.366.718l47.197 27.477 2.771-11.06-46.644-26.985a10.262 10.262 0 0 1-4.822-11.389l1.6-6.362a5.375 5.375 0 0 1 5.575-4.073 5.37 5.37 0 0 1 2.367.729l47.198 27.477 2.708-10.712-47.013-27.005a10.266 10.266 0 0 1-4.822-11.41l1.601-6.341a5.374 5.374 0 0 1 1.139-2.194 5.385 5.385 0 0 1 4.436-1.869 5.396 5.396 0 0 1 2.366.718l47.341 27.58 2.771-11.04-67.267-38.743a10.262 10.262 0 0 1-4.823-11.389l1.601-6.362a5.405 5.405 0 0 1 3.137-3.651 5.403 5.403 0 0 1 4.804.307l67.719 39.112 17.689-70.263a5.853 5.853 0 0 0-2.75-6.526L277.025 30.613a3.058 3.058 0 0 0-4.473 1.908l-83.458 331.431a5.883 5.883 0 0 0 2.77 6.525l186.39 107.406a3.056 3.056 0 0 0 4.494-1.908L411.6 361.407l-46.479-26.923z" fill="#FEBD33"/><path d="M376.941 471.05a4.116 4.116 0 0 1-2.052-.554L188.519 363.09a6.936 6.936 0 0 1-3.242-7.634l83.54-331.43a3.987 3.987 0 0 1 2.36-2.75 4.101 4.101 0 0 1 3.591.226l186.328 107.405a6.876 6.876 0 0 1 3.222 7.634l-18.017 71.556-68.888-39.831a4.29 4.29 0 0 0-3.899-.246 4.356 4.356 0 0 0-2.565 2.955l-1.601 6.361a9.315 9.315 0 0 0 4.35 10.261l67.924 38.989-3.283 13.092-48.45-28.175a4.379 4.379 0 0 0-3.911-.267 4.366 4.366 0 0 0-2.553 2.976l-1.6 6.361a9.27 9.27 0 0 0 4.35 10.261l47.526 27.498-3.222 12.743-48.265-28.154a4.384 4.384 0 0 0-3.912-.248 4.394 4.394 0 0 0-2.552 2.977l-1.6 6.341a9.336 9.336 0 0 0 4.33 10.26l47.321 27.354-3.284 13.093-48.285-28.155a4.383 4.383 0 0 0-3.906-.255 4.4 4.4 0 0 0-2.558 2.964l-1.601 6.361a9.322 9.322 0 0 0 4.351 10.261l47.321 27.354-3.325 12.846-48.018-28.032a4.404 4.404 0 0 0-3.913-.247 4.372 4.372 0 0 0-1.626 1.188 4.377 4.377 0 0 0-.925 1.789l-1.601 6.361a9.315 9.315 0 0 0 4.35 10.26l47.198 27.252-.185.739-28.729 114.567a4.098 4.098 0 0 1-2.36 2.75 4.275 4.275 0 0 1-1.764.349zM272.675 22.959a1.81 1.81 0 0 0-.801.164 2.047 2.047 0 0 0-1.19 1.395L187.226 355.95a4.866 4.866 0 0 0 2.299 5.397l186.39 107.405a2.06 2.06 0 0 0 1.826.124 2.05 2.05 0 0 0 1.19-1.396l28.729-113.828-45.884-26.513a11.308 11.308 0 0 1-5.274-12.497l1.601-6.362a6.385 6.385 0 0 1 6.597-4.813 6.372 6.372 0 0 1 2.801.853l45.802 26.677 2.176-8.701-46.008-26.677a11.347 11.347 0 0 1-5.294-12.518l1.6-6.341a6.4 6.4 0 0 1 1.347-2.608 6.367 6.367 0 0 1 2.372-1.729 6.365 6.365 0 0 1 2.895-.485c.989.065 1.95.36 2.805.862l45.987 26.8 2.278-9.029-46.007-26.677a11.31 11.31 0 0 1-5.295-12.518l1.601-6.341a6.375 6.375 0 0 1 3.718-4.337 6.368 6.368 0 0 1 2.895-.485c.99.065 1.95.36 2.806.862l45.966 26.8 2.196-8.701-46.213-26.677a11.304 11.304 0 0 1-5.273-12.518l1.6-6.361a6.375 6.375 0 0 1 3.719-4.338 6.39 6.39 0 0 1 5.7.377l46.213 27.026 2.278-9.029-66.672-38.251a11.352 11.352 0 0 1-5.377-12.517l1.622-6.341a6.373 6.373 0 0 1 3.711-4.325 6.383 6.383 0 0 1 5.687.364l66.59 38.456 17.36-68.99a4.905 4.905 0 0 0-2.277-5.418L273.701 23.225a2.055 2.055 0 0 0-1.026-.266z" fill="#16110D"/><path d="M157.143 188.479a1.047 1.047 0 0 1 0-1.826l15.39-8.619a35.385 35.385 0 0 0 16.622-22.08l33.429-133.057a1.459 1.459 0 0 1 1.432-1.074c.215.004.427.055.62.15l141.429 81.468a4.294 4.294 0 0 1 2.052 4.781l-32.998 131.867a35.387 35.387 0 0 1-16.621 21.998l-13.996 7.839a6.153 6.153 0 0 1-6.012 0l-141.347-81.447z" fill="#FEBD33"/><path d="M335.509 240.089l31.274-124.561-133.385-76.81a1.481 1.481 0 0 0-1.866.32 1.484 1.484 0 0 0-.309.604l-33.388 133.036a35.348 35.348 0 0 1-16.622 22.019l-6.525 3.652L298.9 269.885a6.159 6.159 0 0 0 6.013 0l13.995-7.839a35.429 35.429 0 0 0 16.601-21.957z" fill="#FCEBCC"/><path d="M301.527 271.691a7.008 7.008 0 0 1-3.53-.944L156.63 189.341a2.052 2.052 0 0 1-1.006-1.806 2.05 2.05 0 0 1 1.047-1.765l15.39-8.619a34.528 34.528 0 0 0 16.13-21.382l33.428-133.057a2.524 2.524 0 0 1 1.436-1.682 2.486 2.486 0 0 1 2.217.143L366.68 102.6a5.318 5.318 0 0 1 2.504 5.889l-33.1 131.805a36.577 36.577 0 0 1-17.074 22.573l-14.015 8.003a6.893 6.893 0 0 1-3.468.821zm-143.892-84.136l141.368 81.427a5.113 5.113 0 0 0 5.027 0l14.036-7.757a34.53 34.53 0 0 0 16.13-21.383l33.12-131.804a3.324 3.324 0 0 0-1.559-3.674L224.328 22.897a.453.453 0 0 0-.431 0 .446.446 0 0 0-.267.328l-33.49 133.036a36.677 36.677 0 0 1-17.094 22.573l-15.411 8.619-.492.964.492-.862z" fill="#16110D"/><path d="M252.315 48.539l-.995 1.747 114.874 65.417.995-1.748-114.874-65.416zM221.035 30.724l-.995 1.748 24.251 13.81.995-1.747-24.251-13.81zM290.63 243.339l-.995 1.748 28.835 16.42.995-1.748-28.835-16.42zM284.823 242.202l-88.239-50.111.985-1.724 13.81 7.859 74.429 42.232-.985 1.744zM173.305 176.527l-.995 1.748 24.251 13.81.995-1.747-24.251-13.811zM214.853 191.541l-.995 1.748 111.498 63.468.994-1.748-111.497-63.468zM204.453 185.644l-.995 1.748 5.635 3.209.995-1.748-5.635-3.209zM180.208 171.812l-.995 1.747 24.252 13.811.995-1.748-24.252-13.81zM289.409 214.168l-1.011 1.739 45.24 26.298 1.01-1.739-45.239-26.298zM212.729 171.018l-.995 1.747 62.698 35.704.995-1.747-62.698-35.704z" fill="#16110D"/><path d="M188.49 157.2l-.995 1.748 24.251 13.81.996-1.747L188.49 157.2z" fill="#16110D"/><path d="M143.209 331.611l-13.215-24.974h-.123v32.67h.102l13.216-7.696s.041.041.02 0z" fill="#15100C"/><path d="M129.973 340.64l-1.067-.574v-.657l.37-32.997 1.231-.965.451.718 13.462 25.59-.657.821-13.79 8.064zm.903-30.165v27.333l11.04-6.443-11.04-20.89z" fill="#16110D"/><path d="M116.512 331.611l13.215-24.974h.144v32.67l-13.216-7.696h-.143z" fill="#FEBD33"/><path d="M120.123 333.909l9.46 5.5h.103v-23.578l-9.563 18.078z" fill="#FCEBCC"/><path d="M129.83 340.64l-.575-.287-13.872-8.455.246-.677 14.242-26.902 1.149 2.052-.144.266v33.265l-1.046.738zm-12.005-9.275l11.04 6.443v-27.395l-11.04 20.952z" fill="#16110D"/><path d="M143.086 331.96l-13.092 20.09h-.123v-12.456l13.071-7.634h.144z" fill="#15100C"/><path d="M129.871 353.979l-.37-2.339-.636.369v-13.01l.411-.411 13.81-8.044 1.19 1.17-.431.739-13.974 21.526zm1.005-13.893v8.763l9.234-14.201-9.234 5.438z" fill="#16110D"/><path d="M116.655 331.96l13.072 20.09h.144v-12.456l-13.093-7.634s-.164-.062-.123 0z" fill="#FEBD33"/><path d="M129.871 353.979l-.985-1.375-13.503-20.767 1.088-1.231.78.369 13.584 7.921v.657l-.41 11.45-.554 2.976zm-10.261-19.29l9.255 14.16v-8.824l-9.255-5.336z" fill="#16110D"/><path d="M130.466 339.963v-1.703l11.532-6.731v1.703l-11.532 6.731z" fill="#FEBD33"/><path d="M515.209 256.772l-13.215-24.892h-.123v32.628h.102l13.216-7.716.02-.02z" fill="#15100C"/><path d="M501.974 265.719l-1.068-.575v-.656l.349-32.833 1.232-.965.451.718 13.462 25.59-.657.821-13.769 7.9zm.902-30.165v27.333l11.041-6.443-11.041-20.89z" fill="#16110D"/><path d="M488.512 256.772l13.215-24.892h.144v32.628l-13.215-7.716s-.165 0-.144-.02z" fill="#FEBD33"/><path d="M492.124 259.05l9.46 5.52v-23.599l-9.46 18.079z" fill="#FCEBCC"/><path d="M501.83 265.719l-.575-.287-13.872-8.455.246-.677 14.242-26.903 1.149 2.052-.144.267v33.264l-1.046.739zm-12.005-9.214l11.04 6.444v-27.395l-11.04 20.951z" fill="#16110D"/><path d="M515.066 257.1l-13.093 20.09h-.123v-12.477l13.072-7.633.144.02z" fill="#15100C"/><path d="M501.871 279.078l-.37-2.339-.636.369v-13.01l.493-.369 13.81-8.044 1.191 1.169-.431.739-14.057 21.485zm1.005-13.892v8.803l9.235-14.2-9.235 5.397z" fill="#16110D"/><path d="M488.656 257.1l13.071 20.09h.144v-12.476l-13.092-7.634s-.165-.041-.123.02z" fill="#FEBD33"/><path d="M501.871 279.078l-.985-1.375-13.503-20.767 1.088-1.231.779.39 13.585 7.921v.636l-.41 11.45-.554 2.976zm-10.261-19.29l9.235 14.201v-8.804l-9.235-5.397z" fill="#16110D"/><path d="M502.446 265.103V263.4l11.553-6.731v1.724l-11.553 6.71zM409.302 493.664l.615-1.847a66.426 66.426 0 0 0 10.117-5.213l-.78 2.053a54.21 54.21 0 0 1-9.952 5.007zM220.819 330.195l15.062 10.897c.317.225.699.34 1.088.326a1.771 1.771 0 0 0 1.656-1.372 1.769 1.769 0 0 0-.117-1.129l-7.921-16.745a1.762 1.762 0 0 0-1.21-.955 1.76 1.76 0 0 0-1.499.359l-7.162 5.89a1.764 1.764 0 0 0 .103 2.729z" fill="#FEBD33"/><path d="M235.799 341.79c.304.219.671.334 1.047.328l-5.315-11.287a1.766 1.766 0 0 0-2.73-.615l-4.104 3.468 11.102 8.106z" fill="#FAE9CC"/><path d="M236.907 342.446a2.83 2.83 0 0 1-1.621-.533l-15.063-10.917a2.753 2.753 0 0 1-.143-4.371l7.162-5.89a2.655 2.655 0 0 1 2.359-.554 2.749 2.749 0 0 1 1.909 1.519l7.9 16.786a2.797 2.797 0 0 1-.174 2.661 2.8 2.8 0 0 1-2.329 1.299zm-7.921-20.274a.812.812 0 0 0-.472.164l-7.162 5.889a.774.774 0 0 0-.288.606.778.778 0 0 0 .288.605l15.062 10.917a.783.783 0 0 0 .944 0 .739.739 0 0 0 .205-.903l-7.921-16.806a.732.732 0 0 0-.513-.411l-.143-.061z" fill="#16110D"/><path d="M226.831 327.363a7.961 7.961 0 0 1-11.204-1.087L56.591 132.97a6.832 6.832 0 0 1 .862-9.603l1.765-1.437a6.814 6.814 0 0 1 9.583.924L227.857 316.18a7.938 7.938 0 0 1-1.026 11.183z" fill="#FEBD33"/><path d="M226.995 321.884L67.939 128.579a6.813 6.813 0 0 0-9.583-.944l-1.765 1.436a8.335 8.335 0 0 0-.595.616 6.688 6.688 0 0 0 1.457 4.781l159.036 193.306c2.791 3.406 4.104-.411 7.613-3.201.354-.303.683-.632.985-.985.308-2.093 3.345.041 1.908-1.704z" fill="#FBEACC"/><path d="M221.783 330.175a8.897 8.897 0 0 1-6.915-3.263L55.811 133.607a7.84 7.84 0 0 1 1.067-11l1.765-1.457a7.797 7.797 0 0 1 11 1.088l159.035 193.305a8.969 8.969 0 0 1-1.211 12.6 8.863 8.863 0 0 1-5.684 2.032zM63.609 121.376a5.767 5.767 0 0 0-3.673 1.334l-1.765 1.436a5.83 5.83 0 0 0-.78 8.209L216.427 325.66a6.98 6.98 0 0 0 9.789.965 6.954 6.954 0 0 0 .943-9.789L68.124 123.531a5.808 5.808 0 0 0-3.94-2.052l-.575-.103z" fill="#16110D"/><path d="M221.455 320.838a7.95 7.95 0 0 1-8.785.877 7.949 7.949 0 0 1-2.399-1.965l5.582 6.813a7.967 7.967 0 1 0 12.312-10.117l-5.602-6.792a7.95 7.95 0 0 1 1.764 5.822 7.925 7.925 0 0 1-2.872 5.362z" fill="#FEBD33"/><path d="M224.02 322.91a19.584 19.584 0 0 1-4.453 2.955c-1.005.821-2.893-.41-4.104-.143l.718.882a7.9 7.9 0 0 0 10.26 1.724 8.92 8.92 0 0 0-.677-8.208 8.635 8.635 0 0 1-1.744 2.79z" fill="#FDECCC"/><path d="M222.009 330.38h-.883a8.92 8.92 0 0 1-6.033-3.222l-5.602-6.792 1.539-1.272a6.961 6.961 0 0 0 11.509-1.15 6.926 6.926 0 0 0 .512-5.29 6.921 6.921 0 0 0-1.288-2.384l1.559-1.273 5.582 6.793a8.961 8.961 0 0 1 1.178 9.502 8.972 8.972 0 0 1-8.073 5.15v-.062zm-7.388-6.977l2.052 2.442a6.963 6.963 0 0 0 7.416 2.251 6.954 6.954 0 0 0 4.897-6.006 7.041 7.041 0 0 0-1.56-5.09l-2.052-2.442v.924a8.942 8.942 0 0 1-6.377 7.815 8.96 8.96 0 0 1-3.534.311c-.246-.02-.534-.082-.842-.123v-.082z" fill="#16110D"/><path d="M58.91 121.54l-1.744 1.457a6.771 6.771 0 0 0-1.765 8.024c.349.574.636 1.005.78 1.211 1.334 1.805 5.274 1.169 8.824-1.437s5.11-5.807 4.104-7.695l-.493-.616a6.844 6.844 0 0 0-2.075-1.723 6.847 6.847 0 0 0-5.263-.511 6.826 6.826 0 0 0-2.368 1.29z" fill="#FEBD33"/><path d="M61.762 126.876l-1.498 1.231a5.806 5.806 0 0 0-1.6 6.833c.308.493.554.883.677 1.047 1.129 1.539 4.514 1.005 7.531-1.231 3.017-2.237 4.35-4.966 3.51-6.567l-.432-.533a5.825 5.825 0 0 0-8.188-.78z" fill="#FEBD33"/><path d="M56.858 127.573a6.837 6.837 0 0 0-2.052 2.955c.049.162.11.32.184.472.35.595.637 1.026.78 1.232 1.334 1.805 5.274 1.169 8.824-1.437a12.699 12.699 0 0 0 3.53-3.817 6.81 6.81 0 0 0-9.501-.841l-1.765 1.436z" fill="#FBEACC"/><path d="M58.602 134.243a3.971 3.971 0 0 1-3.324-1.416 14.666 14.666 0 0 1-.841-1.293 7.86 7.86 0 0 1 2.052-9.316l1.744-1.437a7.819 7.819 0 0 1 10.999 1.067l.636.78c1.252 2.401-.595 6.156-4.432 8.988a12.318 12.318 0 0 1-6.834 2.627zm4.638-13.175c-1.346 0-2.65.464-3.694 1.314l-1.744 1.436a5.809 5.809 0 0 0-1.6 6.854c.266.431.553.841.676 1.026.862 1.17 4.228.718 7.429-1.642 3.201-2.359 4.432-5.048 3.858-6.361l-.452-.575a5.8 5.8 0 0 0-4.473-2.052zM72.749 133.602l-1.553 1.278L179.51 266.51l1.553-1.278-108.315-131.63zM183.7 268.485l-1.537 1.265 16.468 20.013 1.537-1.265-16.468-20.013z" fill="#16110D"/><path d="M224.902 329.19l9.686 8.865a4.107 4.107 0 0 0 3.92.862l-.329 2.318-2.298-.143-15.657-11.061 4.678-.841zM218.561 322.356l5.603 6.793-3.94-.123-4.084-1.704-3.94-5.212 3.694.575 2.667-.329z" fill="#15100C"/><path d="M62.009 132.457L218.56 322.356l-4.863-.02-1.498-.226L56.591 132.97l3.755.636 1.663-1.149z" fill="#15100C"/><path d="M62.009 132.457s-7.121-7.284-3.1-10.917l-2.872 2.627-1.231 2.832v3.55l1.785 3.058h3.755l1.663-1.15z" fill="#15100C"/><path d="M58.315 133.853a9.668 9.668 0 0 1-1.56 0l.144-.985a9.386 9.386 0 0 0 4.104-.37l.554.883a7.869 7.869 0 0 1-3.242.472zM214.868 323.506a12.583 12.583 0 0 1-2.176-.165l.144-.985a12.53 12.53 0 0 0 5.048-.287l.349.924a9.914 9.914 0 0 1-3.365.513zM220.983 330.236h-.431v-.985a8.516 8.516 0 0 0 3.345-.533l.369.923a9.628 9.628 0 0 1-3.283.595zM295.494 169.497l-.924-1.19a2.213 2.213 0 0 1-.123-2.442l1.683-2.75-8.414 1.868-.944-1.006a2.219 2.219 0 0 1-.389-2.278l3.078-7.797-13.277 5.356a2.201 2.201 0 0 1-2.75-1.047 2.174 2.174 0 0 1 .841-2.811l4.576-2.709a25.713 25.713 0 0 0-5.602-17.525c-6.751 10.938-16.416 23.086-27.026 24.625-6.033.862-11.594-1.806-16.416-7.88-7.408-9.132-4.658-16.088-2.36-19.413 6.156-8.947 22.573-12.784 36.014-8.372a29.451 29.451 0 0 1 9.009 4.74 158.186 158.186 0 0 0 5.807-11.245 2.055 2.055 0 0 1 2.606-.985 2.05 2.05 0 0 1 1.047 2.668 159.017 159.017 0 0 1-6.423 12.312 29.674 29.674 0 0 1 7.449 20.685l10.26-4.104 1.067 1.005a2.24 2.24 0 0 1 .534 2.422l-3.427 8.434 9.357-2.052.944 1.169a2.237 2.237 0 0 1 .123 2.463l-1.703 2.729 7.305-1.621c2.627-1.621 8.209-5.93 8.106-10.014 0-1.909-1.354-3.735-3.919-5.438a2.051 2.051 0 0 1-.657-2.627 2.053 2.053 0 0 1 2.914-.697c3.714 2.503 5.623 5.417 5.664 8.7 0 7.326-9.276 13.072-10.261 13.688l-.369.225h-.328l-13.072 2.914zm-43.915-43.216c-8.782 0-17.278 3.139-20.951 8.475-2.914 4.104-2.052 9.275 2.175 14.611 4.104 4.966 8.208 7.079 12.887 6.443 9.255-1.293 18.304-13.031 24.625-23.455a25.729 25.729 0 0 0-8.208-4.453 33.887 33.887 0 0 0-10.528-1.621zM281.93 113.229a2.045 2.045 0 0 1-1.211-2.052c.168-1.634.12-3.283-.144-4.904a2.052 2.052 0 0 1 1.539-2.216 2.042 2.042 0 0 1 1.561.321 2.041 2.041 0 0 1 .861 1.341c.3 1.969.348 3.969.143 5.951a2.049 2.049 0 0 1-2.749 1.559zM295.329 179.737a2.051 2.051 0 0 1 .165-2.852c4.391-3.838 13.564-11.04 18.468-8.865a4.965 4.965 0 0 1 2.812 3.611 2.056 2.056 0 0 1-2.052 2.401 2.048 2.048 0 0 1-2.053-1.58 1.165 1.165 0 0 0-.492-.759c-2.052-.882-8.701 3.324-14.365 8.208a2.048 2.048 0 0 1-2.483-.164z" fill="#FEBD33"/><path d="M294.037 165.762l-.924-1.169a2.241 2.241 0 0 1-.123-2.463l1.703-2.729-8.434 1.867-.923-1.005a2.259 2.259 0 0 1-.39-2.298l3.099-7.716-13.298 5.335a2.036 2.036 0 0 1-1.583.048 2.048 2.048 0 0 1-1.146-1.094 2.057 2.057 0 0 1 .821-2.812l4.576-2.708a25.713 25.713 0 0 0-5.582-17.505c-6.771 10.917-16.416 23.086-27.025 24.625-6.157.842-11.595-1.826-16.54-7.9-7.408-9.132-4.658-16.068-2.36-19.413 6.156-8.947 22.573-12.784 36.014-8.372a29.365 29.365 0 0 1 8.947 4.719 161.586 161.586 0 0 0 5.807-11.265 2.047 2.047 0 0 1 2.606-.985 2.047 2.047 0 0 1 1.026 2.667c-1.128 2.483-3.365 7.1-6.402 12.313a29.789 29.789 0 0 1 7.428 20.685l10.261-4.105 1.087.985a2.28 2.28 0 0 1 .513 2.422l-3.385 8.475 9.336-2.052.944 1.17a2.234 2.234 0 0 1 .124 2.462l-1.704 2.75 7.306-1.621c2.647-1.642 8.208-5.951 8.105-10.014 0-1.909-1.333-3.735-3.919-5.459a2.048 2.048 0 0 1-.657-2.627 2.07 2.07 0 0 1 .555-.62 2.064 2.064 0 0 1 2.359-.057c3.756 2.442 5.808 5.397 5.808 8.66.123 7.326-9.255 13.051-10.261 13.687l-.39.226h-.328l-13.051 2.893zm-43.894-43.216c-8.762 0-17.258 3.16-20.931 8.475-2.914 4.227-2.175 9.275 2.175 14.611 4.104 4.986 8.208 7.1 12.866 6.464 9.255-1.293 18.305-13.052 24.625-23.476a26.453 26.453 0 0 0-8.208-4.453 34.308 34.308 0 0 0-10.527-1.621zM280.493 109.494a2.05 2.05 0 0 1-1.19-2.052 19.741 19.741 0 0 0-.226-4.843 2.049 2.049 0 0 1 1.519-2.195 2.048 2.048 0 0 1 2.421 1.662 22.39 22.39 0 0 1 .144 5.93 2.066 2.066 0 0 1-.999 1.346 2.041 2.041 0 0 1-1.669.152zM293.893 176.023a2.052 2.052 0 0 1 .144-2.853c4.371-3.837 13.543-11.06 18.468-8.865a4.95 4.95 0 0 1 2.791 3.592 2.051 2.051 0 0 1-2.052 2.401 2.055 2.055 0 0 1-1.949-1.56c-.103-.41-.267-.677-.493-.759-2.052-.883-8.701 3.324-14.364 8.208a2.05 2.05 0 0 1-2.545-.164zM319.606 390.608l-.924-1.169a2.174 2.174 0 0 1-.102-2.401l1.087-1.765-6.69 1.498-.923-.985a2.273 2.273 0 0 1-.39-2.257l2.401-5.972-10.363 4.125a2.157 2.157 0 0 1-2.729-1.047 2.061 2.061 0 0 1-.18-1.578 2.049 2.049 0 0 1 1.001-1.233l3.509-2.052a21.84 21.84 0 0 0-4.453-14.365c-5.808 9.296-14.098 19.536-23.066 20.767-5.294.739-10.116-1.58-14.364-6.854-6.444-7.941-4.104-14.015-2.052-16.929 5.356-7.737 19.597-11.061 31.109-7.265a25.93 25.93 0 0 1 7.531 3.899 119.431 119.431 0 0 0 4.679-9.029 2.053 2.053 0 0 1 2.586-.985 2.05 2.05 0 0 1 1.026 2.668c-.985 2.052-2.812 5.869-5.254 10.117a25.608 25.608 0 0 1 6.28 17.278l8.557-3.427 1.067.965a2.235 2.235 0 0 1 .513 2.401l-2.688 6.73 7.633-1.703.903 1.17a2.172 2.172 0 0 1 .103 2.442l-1.067 1.724 5.52-1.211c2.237-1.416 6.792-5.007 6.751-8.208a5.78 5.78 0 0 0-2.996-4.269 2.054 2.054 0 0 1-.636-2.606 2.064 2.064 0 0 1 1.302-.958 2.047 2.047 0 0 1 1.592.281 9.394 9.394 0 0 1 4.74 7.49c.102 6.382-8.044 11.389-8.968 11.943l-.369.226h-.308l-11.368 2.544zm-37.41-36.937c-7.387 0-14.549 2.647-17.627 7.121-3.078 4.473-.677 9.029 1.847 12.127 3.386 4.105 6.874 5.951 10.732 5.418 7.388-1.026 15.042-10.527 20.685-19.7a21.523 21.523 0 0 0-6.71-3.571 28.611 28.611 0 0 0-8.927-1.416v.021zM308.073 342.179a1.927 1.927 0 0 1-1.211-2.052 16.705 16.705 0 0 0 0-3.632 2.05 2.05 0 0 1 .354-1.378 2.05 2.05 0 0 1 1.165-.818 2.045 2.045 0 0 1 1.573.336 2.045 2.045 0 0 1 .848 1.368c.21 1.495.251 3.009.123 4.514a2.05 2.05 0 0 1-2.852 1.662zM319.606 399.658a2.048 2.048 0 0 1 .143-2.873c3.858-3.345 11.615-9.296 15.924-7.408a4.37 4.37 0 0 1 2.483 2.955 2.044 2.044 0 0 1-.39 1.649 2.05 2.05 0 0 1-1.498.793h-.123a2.049 2.049 0 0 1-1.867-1.416.635.635 0 0 0-.205-.328c-1.416-.595-6.752 2.524-11.718 6.792a2.05 2.05 0 0 1-2.749-.164z" fill="#16110D"/></svg>