<svg width="91" height="71" viewBox="0 0 91 71" fill="none" xmlns="http://www.w3.org/2000/svg"><path d="M6.818 70.29a6.215 6.215 0 1 1 0-12.43 6.215 6.215 0 0 1 0 12.43zm0-10.085a3.87 3.87 0 1 0 3.87 3.87 3.87 3.87 0 0 0-3.87-3.964v.094z" fill="#000"/><path d="M10.641 70.29H3.018a2.345 2.345 0 0 1-2.345-2.345V60.3a2.345 2.345 0 0 1 2.345-2.346h7.647A2.345 2.345 0 0 1 13.01 60.3v7.646a2.347 2.347 0 0 1-2.37 2.346zM2.995 60.206v7.693h7.693v-7.646l-7.693-.047z" fill="#000"/><path d="M65.527 50.893a6.239 6.239 0 1 1 6.216-6.24 6.263 6.263 0 0 1-6.216 6.24zm0-10.11a3.894 3.894 0 1 0-.047 7.787 3.894 3.894 0 0 0 .047-7.787z" fill="#150035"/><path d="M69.35 50.893h-7.693a2.345 2.345 0 0 1-2.345-2.346v-7.623a2.345 2.345 0 0 1 2.345-2.345h7.647a2.345 2.345 0 0 1 2.345 2.345v7.623a2.345 2.345 0 0 1-2.298 2.346zm-7.693-10.11v7.694h7.717v-7.623l-7.717-.07z" fill="#150035"/><path d="M30.532 70.29h-7.553a2.345 2.345 0 0 1-2.345-2.345v-7.74a2.346 2.346 0 0 1 2.345-2.346h7.553a2.346 2.346 0 0 1 2.345 2.346v7.552a2.345 2.345 0 0 1-2.345 2.533zm-7.553-10.085v7.646h7.647v-7.646h-7.647zM45.989 50.893a6.239 6.239 0 1 1 0-12.478 6.239 6.239 0 0 1 0 12.478zm0-10.11a3.893 3.893 0 1 0 3.894 3.87 3.87 3.87 0 0 0-3.894-3.87zM84.76 50.893a6.239 6.239 0 1 1 0-12.477 6.239 6.239 0 0 1 0 12.477zm0-10.11a3.893 3.893 0 1 0 3.894 3.87 3.87 3.87 0 0 0-3.893-3.87z" fill="#000"/><path d="M69.35 70.29h-7.693a2.345 2.345 0 0 1-2.345-2.345V60.3a2.345 2.345 0 0 1 2.345-2.346h7.647a2.345 2.345 0 0 1 2.345 2.346v7.646a2.346 2.346 0 0 1-2.298 2.346zm-7.646-10.085v7.693h7.717v-7.646l-7.717-.047zM85.934 58.938h-2.346v10.11h2.346v-10.11z" fill="#150035"/><path d="M89.827 62.808h-10.11v2.346h10.11v-2.346zM69.35 32.597h-7.693a2.345 2.345 0 0 1-2.345-2.345v-7.623a2.346 2.346 0 0 1 2.345-2.346h7.647a2.346 2.346 0 0 1 2.345 2.346v7.623a2.346 2.346 0 0 1-2.298 2.345zm-7.693-10.109v7.693h7.717v-7.623l-7.717-.07zM84.76 13.27A6.215 6.215 0 1 1 84.808.84a6.215 6.215 0 0 1-.046 12.43zm0-10.086a3.87 3.87 0 1 0 .048 7.74 3.87 3.87 0 0 0-.047-7.74z" fill="#150035"/><path d="M47.162 21.315h-2.346v10.11h2.346v-10.11z" fill="#000"/><path d="M51.055 25.21h-10.11v2.345h10.11v-2.346z" fill="#000"/><path d="M85.934 21.315h-2.346v10.11h2.346v-10.11z" fill="#150035"/><path d="M89.827 25.21h-10.11v2.345h10.11v-2.346z" fill="#150035"/></svg>