<svg width="89" height="32" viewBox="0 0 89 32" fill="none" xmlns="http://www.w3.org/2000/svg"><path d="M25.004 12.596a6.043 6.043 0 0 0 3.41-1.042 6.215 6.215 0 0 0 2.266-2.799 6.347 6.347 0 0 0 .354-3.61 6.277 6.277 0 0 0-1.677-3.2A6.09 6.09 0 0 0 26.216.236a6.02 6.02 0 0 0-3.544.36 6.151 6.151 0 0 0-2.747 2.309 6.324 6.324 0 0 0-1.023 3.475 6.299 6.299 0 0 0 1.794 4.388 6.068 6.068 0 0 0 4.308 1.828zm0-10.11a3.771 3.771 0 0 1 2.13.645 3.878 3.878 0 0 1 1.417 1.743c.293.71.372 1.494.227 2.251a3.917 3.917 0 0 1-1.04 2 3.8 3.8 0 0 1-1.957 1.072 3.757 3.757 0 0 1-2.212-.218 3.838 3.838 0 0 1-1.718-1.433 3.945 3.945 0 0 1-.646-2.166c0-1.029.4-2.015 1.111-2.745a3.787 3.787 0 0 1 2.688-1.149z" fill="#150035"/><path d="M21.25 12.596h7.552c.611 0 1.197-.247 1.628-.687.432-.44.675-1.037.675-1.659V2.557c0-.622-.243-1.219-.675-1.659a2.281 2.281 0 0 0-1.628-.687h-7.505c-.61 0-1.197.248-1.628.687a2.368 2.368 0 0 0-.675 1.659v7.623a2.385 2.385 0 0 0 .634 1.688c.21.224.461.404.74.53.278.124.578.192.883.198zm7.552-10.11v7.694h-7.574V2.557l7.574-.07z" fill="#150035"/><path d="M82.631 12.596a6.043 6.043 0 0 0 3.412-1.042 6.215 6.215 0 0 0 2.265-2.799 6.347 6.347 0 0 0 .354-3.61 6.276 6.276 0 0 0-1.677-3.2A6.09 6.09 0 0 0 83.844.236a6.02 6.02 0 0 0-3.544.36 6.151 6.151 0 0 0-2.747 2.309A6.324 6.324 0 0 0 76.53 6.38c0 1.649.643 3.23 1.787 4.395a6.045 6.045 0 0 0 4.314 1.82zm0-10.11a3.77 3.77 0 0 1 2.13.645 3.878 3.878 0 0 1 1.418 1.743c.293.71.371 1.494.227 2.251a3.917 3.917 0 0 1-1.041 2 3.8 3.8 0 0 1-1.956 1.072 3.757 3.757 0 0 1-2.212-.218 3.838 3.838 0 0 1-1.719-1.433 3.946 3.946 0 0 1-.645-2.166 3.932 3.932 0 0 1 .282-1.488c.19-.473.469-.902.822-1.264a3.795 3.795 0 0 1 1.235-.845 3.738 3.738 0 0 1 1.46-.297z" fill="#000"/><path d="M21.25 31.923h7.552c.611 0 1.197-.247 1.628-.687.432-.44.675-1.036.675-1.659v-7.716c0-.622-.243-1.219-.675-1.659a2.281 2.281 0 0 0-1.628-.687h-7.505c-.61 0-1.197.247-1.628.687a2.368 2.368 0 0 0-.675 1.659v7.646a2.385 2.385 0 0 0 .634 1.688 2.267 2.267 0 0 0 1.623.728zm7.552-10.11v7.694h-7.574v-7.646l7.574-.047zM2.371 12.596h7.506c.61 0 1.196-.247 1.628-.687.432-.44.674-1.037.674-1.659V2.557c0-.622-.242-1.219-.674-1.659A2.281 2.281 0 0 0 9.877.211H2.371c-.61 0-1.196.248-1.628.687A2.368 2.368 0 0 0 .07 2.557v7.623a2.385 2.385 0 0 0 .65 1.704 2.3 2.3 0 0 0 .755.527c.284.122.59.185.897.185zm7.506-10.11v7.694H2.325V2.557l7.552-.07z" fill="#150035"/><path d="M61.91 1.314h2.303v10.109H61.91V1.313z" fill="#000"/><path d="M58.088 5.207h9.923v2.346h-9.923V5.207zM43.03 20.641h2.303v10.11h-2.302V20.64z" fill="#000"/><path d="M39.209 24.51h9.923v2.346H39.21v-2.345z" fill="#000"/><path d="M4.973 20.641h2.302v10.11H4.973V20.64z" fill="#150035"/><path d="M1.151 24.51h9.923v2.346H1.151v-2.345z" fill="#150035"/></svg>