<svg width="449" height="70" viewBox="0 0 449 70" fill="none" xmlns="http://www.w3.org/2000/svg"><path d="M442.876 69.806a6.046 6.046 0 0 0 3.405-1.053 6.22 6.22 0 0 0 2.255-2.803 6.348 6.348 0 0 0 .345-3.608 6.281 6.281 0 0 0-1.683-3.195 6.088 6.088 0 0 0-3.142-1.702 6.019 6.019 0 0 0-3.54.365 6.16 6.16 0 0 0-2.744 2.308 6.32 6.32 0 0 0-1.02 3.473c0 .818.158 1.628.466 2.384.308.756.76 1.442 1.329 2.02a6.092 6.092 0 0 0 1.987 1.345c.743.311 1.539.47 2.342.466zm0-10.109a3.77 3.77 0 0 1 2.123.656 3.882 3.882 0 0 1 1.408 1.748 3.96 3.96 0 0 1 .217 2.25 3.91 3.91 0 0 1-1.046 1.993 3.796 3.796 0 0 1-1.957 1.066 3.756 3.756 0 0 1-2.208-.222 3.84 3.84 0 0 1-1.715-1.434 3.945 3.945 0 0 1-.644-2.163c0-1.033.403-2.023 1.119-2.753a3.788 3.788 0 0 1 2.703-1.14zM385.939 69.807a6.038 6.038 0 0 0 3.429-1.008 6.21 6.21 0 0 0 2.296-2.784c.477-1.14.61-2.398.383-3.615a6.28 6.28 0 0 0-1.661-3.218 6.091 6.091 0 0 0-3.14-1.729 6.02 6.02 0 0 0-3.553.349 6.155 6.155 0 0 0-2.759 2.307 6.32 6.32 0 0 0-1.027 3.482 6.273 6.273 0 0 0 1.762 4.37 6.047 6.047 0 0 0 4.27 1.846zm0-10.11a3.773 3.773 0 0 1 2.148.61 3.882 3.882 0 0 1 1.448 1.728c.303.71.392 1.495.255 2.257a3.917 3.917 0 0 1-1.024 2.017 3.803 3.803 0 0 1-1.955 1.093 3.758 3.758 0 0 1-2.221-.206 3.84 3.84 0 0 1-1.73-1.432 3.945 3.945 0 0 1-.651-2.173c0-1.017.39-1.993 1.087-2.72a3.788 3.788 0 0 1 2.643-1.174zM401.065 69.807h7.483c.61 0 1.196-.248 1.628-.687.432-.44.674-1.037.674-1.659v-7.646c0-.622-.242-1.22-.674-1.659a2.282 2.282 0 0 0-1.628-.687h-7.483c-.61 0-1.196.247-1.628.687a2.367 2.367 0 0 0-.674 1.659v7.646c0 .622.242 1.219.674 1.659.432.44 1.018.687 1.628.687zm7.483-10.11v7.717h-7.552v-7.646l7.552-.07z" fill="#150035"/><path d="M382.209 69.807h7.459c.611 0 1.197-.248 1.628-.687.432-.44.675-1.037.675-1.659v-7.646c0-.622-.243-1.22-.675-1.659a2.279 2.279 0 0 0-1.628-.687h-7.459a2.28 2.28 0 0 0-1.628.687 2.367 2.367 0 0 0-.674 1.659v7.646c0 .622.242 1.219.674 1.659a2.28 2.28 0 0 0 1.628.687zm7.483-10.11v7.717h-7.552v-7.646l7.552-.07z" fill="#150035"/><path d="M328.311 50.526a6.044 6.044 0 0 0 3.402-1.051 6.214 6.214 0 0 0 2.256-2.8 6.347 6.347 0 0 0 .349-3.605 6.279 6.279 0 0 0-1.677-3.195 6.086 6.086 0 0 0-3.135-1.707 6.022 6.022 0 0 0-3.539.355 6.15 6.15 0 0 0-2.748 2.298 6.337 6.337 0 0 0-.566 5.854 6.263 6.263 0 0 0 1.327 2.024 6.12 6.12 0 0 0 1.987 1.352c.743.314 1.54.475 2.344.475zm0-10.11c.757 0 1.497.23 2.126.659a3.881 3.881 0 0 1 1.407 1.75c.289.714.363 1.498.214 2.254a3.92 3.92 0 0 1-1.053 1.993 3.8 3.8 0 0 1-1.963 1.06 3.756 3.756 0 0 1-2.21-.231 3.837 3.837 0 0 1-1.71-1.445 3.944 3.944 0 0 1-.633-2.169 3.935 3.935 0 0 1 .285-1.494c.191-.474.472-.904.828-1.266a3.79 3.79 0 0 1 1.243-.844 3.737 3.737 0 0 1 1.466-.29v.024z" fill="#000"/><path d="M324.65 50.526h7.391c.61 0 1.196-.247 1.628-.687.432-.44.674-1.036.674-1.658v-7.74c0-.623-.242-1.22-.674-1.66a2.282 2.282 0 0 0-1.628-.686h-7.391c-.61 0-1.196.247-1.628.687a2.367 2.367 0 0 0-.674 1.658v7.74c0 .623.242 1.22.674 1.66.432.439 1.018.686 1.628.686zm7.483-10.11v7.694l-7.483.07v-7.74l7.483-.023z" fill="#000"/><path d="M439.123 50.526h7.551a2.28 2.28 0 0 0 1.628-.687c.432-.44.675-1.036.675-1.658v-7.74c0-.623-.243-1.22-.675-1.66a2.28 2.28 0 0 0-1.628-.686h-7.551c-.611 0-1.197.247-1.628.687a2.368 2.368 0 0 0-.675 1.658v7.74c0 .623.243 1.22.675 1.66.431.439 1.017.686 1.628.686zm7.551-10.133v7.788h-7.551v-7.74l7.551-.048zM385.939 50.526a6.037 6.037 0 0 0 3.424-1.004 6.215 6.215 0 0 0 2.297-2.776 6.35 6.35 0 0 0 .39-3.609 6.283 6.283 0 0 0-1.648-3.219 6.09 6.09 0 0 0-3.128-1.74 6.018 6.018 0 0 0-3.549.33 6.148 6.148 0 0 0-2.768 2.286 6.315 6.315 0 0 0-1.05 3.47 6.294 6.294 0 0 0 1.753 4.394 6.07 6.07 0 0 0 4.279 1.868zm0-10.109a3.768 3.768 0 0 1 2.152.614 3.872 3.872 0 0 1 1.448 1.735c.302.712.388 1.5.248 2.263a3.923 3.923 0 0 1-1.037 2.017 3.805 3.805 0 0 1-1.968 1.081 3.756 3.756 0 0 1-2.224-.224 3.841 3.841 0 0 1-1.721-1.454 3.95 3.95 0 0 1-.628-2.185c0-1.015.391-1.988 1.088-2.712a3.767 3.767 0 0 1 2.642-1.158v.023zM403.667 39.22h2.302v10.11h-2.302V39.22z" fill="#150035"/><path d="M399.845 43.091h9.923v2.346h-9.923V43.09zM422.822 58.524h2.303v10.11h-2.303v-10.11z" fill="#150035"/><path d="M419.024 62.418h9.923v2.346h-9.923v-2.346zM362.639 69.807h7.436a2.28 2.28 0 0 0 1.628-.687c.432-.44.675-1.037.675-1.659v-7.553c0-.622-.243-1.218-.675-1.658a2.279 2.279 0 0 0-1.628-.687h-7.436a2.28 2.28 0 0 0-1.628.687 2.368 2.368 0 0 0-.675 1.658v7.577c.006.618.252 1.208.683 1.643a2.28 2.28 0 0 0 1.62.679zm7.436-10.11v7.67h-7.528v-7.459l7.528-.21z" fill="#150035"/><path d="M324.65 69.807h7.391c.61 0 1.196-.248 1.628-.687.432-.44.674-1.037.674-1.659v-7.646c0-.622-.242-1.22-.674-1.659a2.282 2.282 0 0 0-1.628-.687h-7.391c-.61 0-1.196.247-1.628.687a2.367 2.367 0 0 0-.674 1.659v7.646c0 .622.242 1.219.674 1.659.432.44 1.018.687 1.628.687zm7.483-10.11v7.717h-7.552v-7.646l7.552-.07zM309.409 50.526a6.041 6.041 0 0 0 3.408-1.04 6.21 6.21 0 0 0 2.266-2.795 6.346 6.346 0 0 0 .358-3.607 6.277 6.277 0 0 0-1.671-3.2 6.085 6.085 0 0 0-3.135-1.715 6.02 6.02 0 0 0-3.542.352 6.152 6.152 0 0 0-2.752 2.297 6.322 6.322 0 0 0-1.033 3.469 6.323 6.323 0 0 0 1.792 4.397 6.09 6.09 0 0 0 4.309 1.842zm0-10.11c.758-.004 1.5.221 2.132.647a3.876 3.876 0 0 1 1.417 1.746 3.96 3.96 0 0 1 .223 2.255 3.91 3.91 0 0 1-1.047 2 3.802 3.802 0 0 1-1.962 1.066c-.744.15-1.514.07-2.213-.227-.7-.297-1.296-.8-1.715-1.444a3.944 3.944 0 0 1-.634-2.172 3.945 3.945 0 0 1 .282-1.488c.19-.472.469-.902.822-1.264a3.79 3.79 0 0 1 1.236-.845 3.735 3.735 0 0 1 1.459-.297v.024z" fill="#000"/><path d="M365.195 39.22h2.302v10.11h-2.302V39.22z" fill="#150035"/><path d="M361.396 43.091h9.923v2.346h-9.923V43.09z" fill="#150035"/><path d="M346.315 58.524h2.303v10.11h-2.303v-10.11z" fill="#000"/><path d="M342.516 62.418h9.924v2.346h-9.924v-2.346zM308.257 58.524h2.303v10.11h-2.303v-10.11z" fill="#000"/><path d="M304.459 62.418h9.923v2.346h-9.923v-2.346zM291.013 69.806a6.046 6.046 0 0 0 3.405-1.053 6.22 6.22 0 0 0 2.255-2.803 6.348 6.348 0 0 0 .345-3.608 6.274 6.274 0 0 0-1.683-3.195 6.085 6.085 0 0 0-3.141-1.702 6.021 6.021 0 0 0-3.541.365 6.152 6.152 0 0 0-2.743 2.308 6.321 6.321 0 0 0-1.021 3.473c0 .818.158 1.628.466 2.384.308.756.76 1.442 1.329 2.02a6.092 6.092 0 0 0 1.987 1.345c.743.311 1.539.47 2.342.466zm0-10.109a3.77 3.77 0 0 1 2.123.656 3.875 3.875 0 0 1 1.408 1.748 3.96 3.96 0 0 1 .217 2.25 3.91 3.91 0 0 1-1.046 1.993 3.797 3.797 0 0 1-1.956 1.066c-.742.15-1.51.073-2.209-.222a3.84 3.84 0 0 1-1.715-1.434 3.945 3.945 0 0 1-.644-2.163 3.93 3.93 0 0 1 1.12-2.753 3.784 3.784 0 0 1 2.702-1.14zM272.134 50.526a6.044 6.044 0 0 0 3.402-1.051 6.22 6.22 0 0 0 2.256-2.8 6.355 6.355 0 0 0 .348-3.605 6.27 6.27 0 0 0-1.676-3.195 6.09 6.09 0 0 0-3.136-1.707 6.019 6.019 0 0 0-3.538.355 6.152 6.152 0 0 0-2.749 2.298 6.33 6.33 0 0 0 .762 7.878 6.12 6.12 0 0 0 1.987 1.352 6.024 6.024 0 0 0 2.344.475zm0-10.11c.756 0 1.496.23 2.125.659a3.883 3.883 0 0 1 1.408 1.75 3.96 3.96 0 0 1 .213 2.254 3.912 3.912 0 0 1-1.052 1.993 3.8 3.8 0 0 1-1.963 1.06 3.756 3.756 0 0 1-2.21-.231 3.837 3.837 0 0 1-1.71-1.445 3.936 3.936 0 0 1-.633-2.169 3.934 3.934 0 0 1 .284-1.494c.191-.474.473-.904.828-1.266a3.8 3.8 0 0 1 1.243-.844 3.742 3.742 0 0 1 1.467-.29v.024zM234.076 69.806a6.046 6.046 0 0 0 3.405-1.053 6.214 6.214 0 0 0 2.255-2.803 6.348 6.348 0 0 0 .345-3.608 6.274 6.274 0 0 0-1.683-3.195 6.085 6.085 0 0 0-3.141-1.702 6.021 6.021 0 0 0-3.541.365 6.152 6.152 0 0 0-2.743 2.308 6.321 6.321 0 0 0-1.021 3.473c0 .818.158 1.628.466 2.384a6.24 6.24 0 0 0 1.329 2.02 6.092 6.092 0 0 0 1.987 1.345c.743.311 1.539.47 2.342.466zm0-10.109a3.77 3.77 0 0 1 2.123.656 3.875 3.875 0 0 1 1.408 1.748c.289.711.365 1.494.218 2.25a3.925 3.925 0 0 1-1.046 1.993 3.804 3.804 0 0 1-1.957 1.066c-.742.15-1.51.073-2.208-.222a3.837 3.837 0 0 1-1.716-1.434 3.945 3.945 0 0 1-.644-2.163 3.93 3.93 0 0 1 1.12-2.753 3.784 3.784 0 0 1 2.702-1.14zM249.202 69.807h7.506a2.28 2.28 0 0 0 1.628-.687c.432-.44.674-1.037.674-1.659v-7.646c0-.622-.242-1.22-.674-1.659a2.28 2.28 0 0 0-1.628-.687h-7.506c-.61 0-1.196.247-1.628.687a2.371 2.371 0 0 0-.674 1.659v7.646a2.366 2.366 0 0 0 .674 1.659 2.268 2.268 0 0 0 1.628.687zm7.506-10.11v7.717h-7.552v-7.646l7.552-.07z" fill="#000"/><path d="M230.254 69.807h7.575c.61 0 1.196-.248 1.628-.687.431-.44.674-1.037.674-1.659v-7.646c0-.622-.243-1.22-.674-1.659a2.282 2.282 0 0 0-1.628-.687h-7.575a2.28 2.28 0 0 0-1.628.687 2.367 2.367 0 0 0-.674 1.659v7.646c0 .622.242 1.219.674 1.659a2.28 2.28 0 0 0 1.628.687zm7.506-10.11v7.717h-7.552v-7.646l7.552-.07zM176.448 50.526a6.05 6.05 0 0 0 3.403-1.051 6.212 6.212 0 0 0 2.255-2.8 6.347 6.347 0 0 0 .349-3.605 6.285 6.285 0 0 0-1.676-3.195 6.093 6.093 0 0 0-3.136-1.707 6.023 6.023 0 0 0-3.539.355 6.15 6.15 0 0 0-2.748 2.298 6.337 6.337 0 0 0-.566 5.854 6.25 6.25 0 0 0 1.328 2.024 6.106 6.106 0 0 0 1.986 1.352c.744.314 1.54.475 2.344.475zm0-10.11c.96.077 1.856.519 2.509 1.239a3.932 3.932 0 0 1 1.017 2.644c0 .98-.363 1.924-1.017 2.644a3.793 3.793 0 0 1-2.509 1.238 3.756 3.756 0 0 1-1.551-.204 3.808 3.808 0 0 1-1.341-.82 3.888 3.888 0 0 1-.906-1.299 3.957 3.957 0 0 1 0-3.119c.211-.492.519-.934.906-1.298a3.808 3.808 0 0 1 1.341-.82 3.756 3.756 0 0 1 1.551-.204z" fill="#000"/><path d="M172.695 50.526h7.506c.61 0 1.196-.247 1.628-.687.432-.44.674-1.036.674-1.658v-7.74c0-.623-.242-1.22-.674-1.66a2.282 2.282 0 0 0-1.628-.686h-7.506c-.61 0-1.196.247-1.628.687a2.367 2.367 0 0 0-.674 1.658v7.74c0 .623.242 1.22.674 1.66.432.439 1.018.686 1.628.686zm7.506-10.11v7.694h-7.552v-7.67l7.552-.023zM287.26 50.526h7.46c.61 0 1.196-.247 1.628-.687.431-.44.674-1.036.674-1.658v-7.74c0-.623-.243-1.22-.674-1.66a2.282 2.282 0 0 0-1.628-.686h-7.506a2.28 2.28 0 0 0-1.628.687 2.367 2.367 0 0 0-.674 1.658v7.74a2.35 2.35 0 0 0 .69 1.675 2.3 2.3 0 0 0 .763.506c.284.115.589.171.895.165zm7.46-10.133v7.788h-7.552v-7.74l7.552-.048zM234.076 50.526c1.21 0 2.394-.365 3.4-1.05a6.212 6.212 0 0 0 2.256-2.796 6.344 6.344 0 0 0 .352-3.602 6.274 6.274 0 0 0-1.669-3.195 6.097 6.097 0 0 0-3.13-1.712 6.02 6.02 0 0 0-3.537.345 6.153 6.153 0 0 0-2.753 2.288 6.35 6.35 0 0 0-.584 5.855c.307.76.757 1.45 1.326 2.031a6.124 6.124 0 0 0 1.99 1.359 6.028 6.028 0 0 0 2.349.477zm0-10.11c.96.077 1.855.519 2.509 1.239a3.932 3.932 0 0 1 1.017 2.644c0 .98-.363 1.924-1.017 2.644a3.795 3.795 0 0 1-2.509 1.238 3.756 3.756 0 0 1-1.551-.204 3.809 3.809 0 0 1-1.341-.82 3.89 3.89 0 0 1-.906-1.299 3.957 3.957 0 0 1 0-3.119c.211-.492.519-.934.906-1.298a3.808 3.808 0 0 1 1.341-.82 3.758 3.758 0 0 1 1.551-.204zM251.804 39.22h2.302v10.11h-2.302V39.22z" fill="#000"/><path d="M247.982 43.091h9.923v2.346h-9.923V43.09zM270.982 58.524h2.303v10.11h-2.303v-10.11z" fill="#000"/><path d="M267.161 62.418h9.923v2.346h-9.923v-2.346zM195.719 50.526a6.044 6.044 0 0 0 3.402-1.051 6.22 6.22 0 0 0 2.256-2.8 6.347 6.347 0 0 0 .348-3.605 6.27 6.27 0 0 0-1.676-3.195 6.09 6.09 0 0 0-3.136-1.707 6.019 6.019 0 0 0-3.538.355 6.144 6.144 0 0 0-2.748 2.298 6.323 6.323 0 0 0-.566 5.854 6.23 6.23 0 0 0 1.327 2.024 6.12 6.12 0 0 0 1.987 1.352 6.024 6.024 0 0 0 2.344.475zm0-10.11a3.77 3.77 0 0 1 2.125.659 3.883 3.883 0 0 1 1.408 1.75 3.96 3.96 0 0 1 .213 2.254 3.912 3.912 0 0 1-1.052 1.993 3.8 3.8 0 0 1-1.963 1.06 3.756 3.756 0 0 1-2.21-.231 3.837 3.837 0 0 1-1.71-1.445 3.936 3.936 0 0 1-.633-2.169 3.934 3.934 0 0 1 .284-1.494c.191-.474.473-.904.828-1.266a3.8 3.8 0 0 1 1.243-.844 3.746 3.746 0 0 1 1.467-.29v.024zM172.695 69.807h7.506c.61 0 1.196-.248 1.628-.687.432-.44.674-1.037.674-1.659v-7.646c0-.622-.242-1.22-.674-1.659a2.282 2.282 0 0 0-1.628-.687h-7.506c-.61 0-1.196.247-1.628.687a2.367 2.367 0 0 0-.674 1.659v7.646c0 .622.242 1.219.674 1.659.432.44 1.018.687 1.628.687zm7.506-10.11v7.717h-7.552v-7.646l7.552-.07zM157.569 50.526a6.044 6.044 0 0 0 3.402-1.051 6.22 6.22 0 0 0 2.256-2.8 6.347 6.347 0 0 0 .348-3.605 6.27 6.27 0 0 0-1.676-3.195 6.086 6.086 0 0 0-3.135-1.707 6.022 6.022 0 0 0-3.539.355 6.15 6.15 0 0 0-2.748 2.298 6.337 6.337 0 0 0-.566 5.854 6.263 6.263 0 0 0 1.327 2.024 6.12 6.12 0 0 0 1.987 1.352c.743.314 1.54.475 2.344.475zm0-10.11a3.797 3.797 0 0 1 2.509 1.239 3.936 3.936 0 0 1 1.016 2.644c0 .98-.363 1.924-1.016 2.644a3.797 3.797 0 0 1-2.509 1.238 3.756 3.756 0 0 1-1.551-.204 3.808 3.808 0 0 1-1.341-.82 3.94 3.94 0 0 1-1.226-2.858 3.94 3.94 0 0 1 1.226-2.858 3.808 3.808 0 0 1 1.341-.82 3.756 3.756 0 0 1 1.551-.204zM213.355 39.22h2.302v10.11h-2.302V39.22z" fill="#000"/><path d="M209.533 43.091h9.923v2.346h-9.923V43.09zM156.418 58.524h2.302v10.11h-2.302v-10.11z" fill="#000"/><path d="M152.596 62.418h9.923v2.346h-9.923v-2.346zM139.15 69.807a6.043 6.043 0 0 0 3.411-1.042 6.217 6.217 0 0 0 2.266-2.799 6.356 6.356 0 0 0 .354-3.61 6.286 6.286 0 0 0-1.677-3.2 6.093 6.093 0 0 0-3.142-1.709 6.019 6.019 0 0 0-3.543.361 6.157 6.157 0 0 0-2.748 2.308 6.32 6.32 0 0 0-1.022 3.475 6.298 6.298 0 0 0 1.794 4.389 6.068 6.068 0 0 0 4.307 1.827zm0-10.11a3.756 3.756 0 0 1 1.551.205c.498.176.954.455 1.341.82a3.94 3.94 0 0 1 1.226 2.858 3.94 3.94 0 0 1-1.226 2.857 3.809 3.809 0 0 1-1.341.82 3.756 3.756 0 0 1-1.551.204 3.797 3.797 0 0 1-2.509-1.237 3.936 3.936 0 0 1-1.016-2.645c0-.98.363-1.924 1.016-2.644a3.797 3.797 0 0 1 2.509-1.237zM120.271 50.526a6.047 6.047 0 0 0 3.409-1.04 6.214 6.214 0 0 0 2.265-2.795 6.346 6.346 0 0 0 .358-3.607 6.27 6.27 0 0 0-1.671-3.2 6.085 6.085 0 0 0-3.135-1.715 6.018 6.018 0 0 0-3.541.352 6.15 6.15 0 0 0-2.753 2.297 6.322 6.322 0 0 0-1.033 3.469c0 1.65.642 3.234 1.785 4.403a6.07 6.07 0 0 0 4.316 1.836zm0-10.11c.758-.004 1.5.221 2.132.647a3.876 3.876 0 0 1 1.417 1.746 3.96 3.96 0 0 1 .223 2.255 3.91 3.91 0 0 1-1.047 2 3.802 3.802 0 0 1-1.962 1.066c-.744.15-1.514.07-2.213-.227-.7-.297-1.296-.8-1.715-1.444a3.944 3.944 0 0 1-.634-2.172 3.945 3.945 0 0 1 .282-1.488c.19-.472.469-.902.822-1.264a3.8 3.8 0 0 1 1.236-.845 3.735 3.735 0 0 1 1.459-.297v.024zM82.213 69.807a6.044 6.044 0 0 0 3.411-1.042 6.214 6.214 0 0 0 2.266-2.799 6.347 6.347 0 0 0 .354-3.61 6.276 6.276 0 0 0-1.677-3.2 6.09 6.09 0 0 0-3.142-1.709 6.02 6.02 0 0 0-3.543.361 6.151 6.151 0 0 0-2.748 2.308 6.324 6.324 0 0 0-1.022 3.475 6.299 6.299 0 0 0 1.794 4.389 6.068 6.068 0 0 0 4.307 1.827zm0-10.11a3.756 3.756 0 0 1 1.551.205c.498.176.954.455 1.341.82.387.364.695.806.906 1.298a3.957 3.957 0 0 1 0 3.119c-.21.492-.52.934-.906 1.299a3.81 3.81 0 0 1-1.34.82 3.756 3.756 0 0 1-1.552.203 3.795 3.795 0 0 1-2.509-1.237 3.934 3.934 0 0 1-1.016-2.645c0-.98.363-1.924 1.016-2.644a3.795 3.795 0 0 1 2.51-1.237zM97.362 69.807h7.483a2.28 2.28 0 0 0 1.628-.687c.432-.44.674-1.037.674-1.659v-7.646c0-.622-.242-1.22-.674-1.659a2.28 2.28 0 0 0-1.628-.687h-7.483c-.61 0-1.196.247-1.627.687a2.368 2.368 0 0 0-.675 1.659v7.646c0 .622.243 1.219.674 1.659.432.44 1.018.687 1.629.687zm7.483-10.11v7.717h-7.552v-7.646l7.552-.07z" fill="#000"/><path d="M78.46 69.807h7.506c.61 0 1.196-.248 1.628-.687.432-.44.674-1.037.674-1.659v-7.646c0-.622-.242-1.22-.674-1.659a2.281 2.281 0 0 0-1.628-.687H78.46c-.61 0-1.196.247-1.628.687a2.368 2.368 0 0 0-.674 1.659v7.646c0 .622.242 1.219.674 1.659.432.44 1.018.687 1.628.687zm7.506-10.11v7.717h-7.575v-7.646l7.575-.07zM135.397 50.526h7.506c.61 0 1.196-.247 1.628-.687.432-.44.674-1.036.674-1.658v-7.74c0-.623-.242-1.22-.674-1.66a2.282 2.282 0 0 0-1.628-.686h-7.506c-.61 0-1.196.247-1.628.687a2.367 2.367 0 0 0-.674 1.658v7.74c0 .623.242 1.22.674 1.66.432.439 1.018.686 1.628.686zm7.506-10.11v7.694h-7.575v-7.67l7.575-.023zM119.12 58.524h2.302v10.11h-2.302v-10.11z" fill="#000"/><path d="M115.298 62.418h9.923v2.346h-9.923v-2.346zM58.936 69.807h7.414c.312.016.624-.033.916-.144.293-.11.56-.281.787-.5a2.382 2.382 0 0 0 .715-1.701v-7.554a2.382 2.382 0 0 0-.715-1.7 2.264 2.264 0 0 0-1.703-.644h-7.414c-.61-.001-1.196.246-1.628.686a2.368 2.368 0 0 0-.674 1.658v7.577c.006.618.251 1.208.682 1.643a2.28 2.28 0 0 0 1.62.679zm7.414-10.11l.115 7.67h-7.529v-7.459l7.414-.21zM43.764 50.526a6.045 6.045 0 0 0 3.402-1.051 6.216 6.216 0 0 0 2.256-2.8 6.349 6.349 0 0 0 .349-3.605 6.276 6.276 0 0 0-1.677-3.195 6.09 6.09 0 0 0-3.135-1.707 6.02 6.02 0 0 0-3.539.355 6.15 6.15 0 0 0-2.748 2.298 6.34 6.34 0 0 0-.566 5.854 6.25 6.25 0 0 0 1.327 2.024 6.117 6.117 0 0 0 1.987 1.352c.743.314 1.54.475 2.344.475zm0-10.11c.96.077 1.855.519 2.509 1.239a3.934 3.934 0 0 1 1.016 2.644c0 .98-.363 1.924-1.016 2.644a3.795 3.795 0 0 1-2.51 1.238 3.755 3.755 0 0 1-1.55-.204 3.807 3.807 0 0 1-1.341-.82 3.892 3.892 0 0 1-.906-1.299 3.957 3.957 0 0 1 0-3.119c.21-.492.52-.934.906-1.298a3.807 3.807 0 0 1 1.34-.82 3.755 3.755 0 0 1 1.552-.204zM20.74 69.807h7.598c.61 0 1.196-.248 1.628-.687.432-.44.674-1.037.674-1.659v-7.646c0-.622-.242-1.22-.674-1.659a2.281 2.281 0 0 0-1.628-.687H20.74c-.61 0-1.196.247-1.628.687a2.368 2.368 0 0 0-.674 1.659v7.646c0 .622.243 1.219.674 1.659.432.44 1.018.687 1.628.687zm7.506-10.11v7.717h-7.575v-7.646l7.575-.07zM61.492 39.22h2.302v10.11h-2.302V39.22z" fill="#000"/><path d="M57.693 43.091h9.923v2.346h-9.923V43.09zM42.613 58.524h2.302v10.11h-2.302v-10.11z" fill="#000"/><path d="M38.79 62.418h9.924v2.346H38.79v-2.346zM4.555 58.524h2.302v10.11H4.555v-10.11z" fill="#000"/><path d="M.756 62.418h9.923v2.346H.756v-2.346z" fill="#000"/><path d="M442.876 32.207a6.044 6.044 0 0 0 3.402-1.051 6.22 6.22 0 0 0 2.256-2.8 6.347 6.347 0 0 0 .348-3.605 6.27 6.27 0 0 0-1.676-3.195 6.086 6.086 0 0 0-3.135-1.707 6.022 6.022 0 0 0-3.539.355 6.15 6.15 0 0 0-2.748 2.298 6.337 6.337 0 0 0-.566 5.854 6.245 6.245 0 0 0 1.327 2.024 6.122 6.122 0 0 0 1.987 1.352 6.03 6.03 0 0 0 2.344.475zm0-10.11a3.77 3.77 0 0 1 2.125.659 3.883 3.883 0 0 1 1.408 1.75c.288.714.363 1.498.213 2.254a3.912 3.912 0 0 1-1.052 1.993 3.8 3.8 0 0 1-1.963 1.06 3.756 3.756 0 0 1-2.21-.231 3.837 3.837 0 0 1-1.71-1.445 3.945 3.945 0 0 1-.633-2.17c0-.51.099-1.014.291-1.486.193-.47.474-.898.83-1.258.355-.36.776-.644 1.24-.837.463-.194.96-.291 1.461-.288zM423.974 12.997a6.044 6.044 0 0 0 3.411-1.041 6.215 6.215 0 0 0 2.265-2.8 6.34 6.34 0 0 0 .354-3.61 6.27 6.27 0 0 0-1.677-3.2 6.09 6.09 0 0 0-3.141-1.708 6.022 6.022 0 0 0-3.544.36 6.15 6.15 0 0 0-2.747 2.309 6.33 6.33 0 0 0 .771 7.863 6.068 6.068 0 0 0 4.308 1.827zm0-10.109a3.77 3.77 0 0 1 2.129.645 3.877 3.877 0 0 1 1.418 1.742c.293.711.372 1.495.227 2.252a3.916 3.916 0 0 1-1.041 2 3.797 3.797 0 0 1-1.956 1.072 3.76 3.76 0 0 1-2.212-.218 3.842 3.842 0 0 1-1.719-1.434 3.953 3.953 0 0 1-.645-2.165 3.942 3.942 0 0 1 1.07-2.821 3.816 3.816 0 0 1 1.246-.876 3.764 3.764 0 0 1 1.483-.314v.117zM385.939 32.208a6.041 6.041 0 0 0 3.427-1.006 6.215 6.215 0 0 0 2.296-2.78 6.343 6.343 0 0 0 .386-3.612 6.27 6.27 0 0 0-1.654-3.219 6.095 6.095 0 0 0-3.134-1.734 6.019 6.019 0 0 0-3.551.339 6.152 6.152 0 0 0-2.764 2.297 6.321 6.321 0 0 0-1.038 3.476 6.295 6.295 0 0 0 1.761 4.378 6.067 6.067 0 0 0 4.271 1.86zm0-10.11a3.771 3.771 0 0 1 2.15.612 3.877 3.877 0 0 1 1.448 1.731 3.957 3.957 0 0 1-.779 4.278 3.803 3.803 0 0 1-1.961 1.086 3.759 3.759 0 0 1-2.223-.214 3.837 3.837 0 0 1-1.725-1.444 3.944 3.944 0 0 1-.64-2.178c0-1.015.39-1.989 1.088-2.713a3.767 3.767 0 0 1 2.642-1.158zM401.065 32.207h7.483c.61 0 1.196-.247 1.628-.687.432-.44.674-1.036.674-1.658v-7.623c0-.623-.242-1.22-.674-1.659a2.282 2.282 0 0 0-1.628-.687h-7.483c-.61 0-1.196.247-1.628.687a2.367 2.367 0 0 0-.674 1.659v7.623c0 .622.242 1.218.674 1.658.432.44 1.018.687 1.628.687zm7.483-10.11v7.694h-7.552v-7.623l7.552-.07zM439.123 12.997h7.551c.611 0 1.196-.247 1.628-.687.432-.44.675-1.036.675-1.658V3.005c0-.622-.243-1.218-.675-1.658a2.28 2.28 0 0 0-1.628-.687h-7.551a2.28 2.28 0 0 0-1.628.687 2.368 2.368 0 0 0-.675 1.658v7.647c0 .622.243 1.218.675 1.658a2.28 2.28 0 0 0 1.628.687zm7.551-10.226v7.717h-7.551V2.84l7.551-.07z" fill="#150035"/><path d="M382.209 32.207h7.459c.611 0 1.197-.247 1.628-.687.432-.44.675-1.036.675-1.658v-7.623c0-.623-.243-1.22-.675-1.659a2.279 2.279 0 0 0-1.628-.687h-7.459a2.28 2.28 0 0 0-1.628.687 2.367 2.367 0 0 0-.674 1.659v7.623c0 .622.242 1.218.674 1.658a2.28 2.28 0 0 0 1.628.687zm7.483-10.11v7.694h-7.552v-7.623l7.552-.07z" fill="#150035"/><path d="M328.311 12.997a6.046 6.046 0 0 0 3.405-1.053 6.22 6.22 0 0 0 2.255-2.804 6.348 6.348 0 0 0 .345-3.608 6.274 6.274 0 0 0-1.683-3.194 6.09 6.09 0 0 0-3.141-1.702 6.022 6.022 0 0 0-3.541.365 6.152 6.152 0 0 0-2.743 2.308 6.313 6.313 0 0 0-1.021 3.473c0 .818.158 1.628.466 2.384.308.755.76 1.442 1.329 2.02a6.092 6.092 0 0 0 1.987 1.345c.743.31 1.539.47 2.342.466zm0-10.109a3.77 3.77 0 0 1 2.123.656 3.875 3.875 0 0 1 1.408 1.748 3.96 3.96 0 0 1 .217 2.25 3.91 3.91 0 0 1-1.046 1.993 3.797 3.797 0 0 1-1.956 1.065c-.742.15-1.51.074-2.209-.221a3.84 3.84 0 0 1-1.715-1.434 3.945 3.945 0 0 1-.644-2.163 3.97 3.97 0 0 1 .257-1.526c.185-.486.465-.93.821-1.304a3.818 3.818 0 0 1 1.254-.874 3.764 3.764 0 0 1 1.49-.307v.117z" fill="#000"/><path d="M324.65 12.997h7.391c.61 0 1.196-.247 1.628-.687.432-.44.674-1.036.674-1.658V3.005c0-.622-.242-1.218-.674-1.658a2.283 2.283 0 0 0-1.628-.687h-7.391c-.61 0-1.196.247-1.628.687a2.367 2.367 0 0 0-.674 1.658v7.647c0 .622.242 1.218.674 1.658.432.44 1.018.687 1.628.687zm7.483-10.109v7.717l-7.483.047V3.005l7.483-.117z" fill="#000"/><path d="M385.939 12.998a6.04 6.04 0 0 0 3.417-1 6.209 6.209 0 0 0 2.296-2.765 6.344 6.344 0 0 0 .402-3.6 6.281 6.281 0 0 0-1.629-3.219 6.093 6.093 0 0 0-3.11-1.755 6.019 6.019 0 0 0-3.543.3 6.144 6.144 0 0 0-2.782 2.256 6.317 6.317 0 0 0-1.083 3.45c-.016.82.129 1.635.424 2.398.295.763.736 1.46 1.297 2.048a6.101 6.101 0 0 0 1.97 1.382c.74.324 1.535.495 2.341.505zm0-10.11a3.77 3.77 0 0 1 2.159.62 3.877 3.877 0 0 1 1.447 1.746 3.955 3.955 0 0 1-.822 4.289 3.8 3.8 0 0 1-1.985 1.064 3.756 3.756 0 0 1-2.229-.254 3.84 3.84 0 0 1-1.706-1.485 3.947 3.947 0 0 1-.594-2.203c0-1.017.39-1.993 1.087-2.72a3.786 3.786 0 0 1 2.643-1.174v.117zM422.822 20.926h2.303v10.11h-2.303v-10.11z" fill="#150035"/><path d="M419.024 24.796h9.923v2.345h-9.923v-2.345zM362.639 32.207h7.436c.611 0 1.197-.247 1.628-.687.432-.44.675-1.036.675-1.658v-7.576c0-.622-.243-1.219-.675-1.659a2.279 2.279 0 0 0-1.628-.687h-7.436a2.28 2.28 0 0 0-1.628.687 2.368 2.368 0 0 0-.675 1.659v7.576c0 .622.243 1.219.675 1.658a2.28 2.28 0 0 0 1.628.687zm7.436-10.109v7.67h-7.528v-7.576l7.528-.094z" fill="#150035"/><path d="M347.466 12.997a6.045 6.045 0 0 0 3.412-1.041 6.215 6.215 0 0 0 2.265-2.8 6.348 6.348 0 0 0 .354-3.61 6.27 6.27 0 0 0-1.677-3.2 6.09 6.09 0 0 0-3.141-1.708 6.02 6.02 0 0 0-3.544.36 6.15 6.15 0 0 0-2.747 2.309 6.33 6.33 0 0 0 .771 7.863 6.067 6.067 0 0 0 4.307 1.827zm0-10.109a3.753 3.753 0 0 1 1.551.204 3.8 3.8 0 0 1 1.341.82c.387.364.696.807.907 1.298a3.957 3.957 0 0 1 0 3.12c-.211.491-.52.933-.907 1.298a3.8 3.8 0 0 1-1.341.82 3.754 3.754 0 0 1-1.551.204 3.793 3.793 0 0 1-2.508-1.238 3.932 3.932 0 0 1-1.017-2.644c0-.98.363-1.925 1.017-2.644a3.793 3.793 0 0 1 2.508-1.238zM324.65 32.207h7.391c.61 0 1.196-.247 1.628-.687.432-.44.674-1.036.674-1.658v-7.623c0-.623-.242-1.22-.674-1.659a2.282 2.282 0 0 0-1.628-.687h-7.391c-.61 0-1.196.247-1.628.687a2.367 2.367 0 0 0-.674 1.659v7.623c0 .622.242 1.218.674 1.658.432.44 1.018.687 1.628.687zm7.483-10.11v7.694h-7.552v-7.623l7.552-.07zM309.409 12.997a6.044 6.044 0 0 0 3.411-1.041 6.215 6.215 0 0 0 2.265-2.8 6.34 6.34 0 0 0 .354-3.61 6.27 6.27 0 0 0-1.677-3.2 6.09 6.09 0 0 0-3.141-1.708 6.022 6.022 0 0 0-3.544.36 6.15 6.15 0 0 0-2.747 2.309 6.33 6.33 0 0 0 .771 7.863 6.068 6.068 0 0 0 4.308 1.827zm0-10.109a3.77 3.77 0 0 1 2.129.645 3.877 3.877 0 0 1 1.418 1.742c.293.711.372 1.495.227 2.252a3.916 3.916 0 0 1-1.041 2 3.797 3.797 0 0 1-1.956 1.072 3.76 3.76 0 0 1-2.212-.218 3.842 3.842 0 0 1-1.719-1.434 3.945 3.945 0 0 1-.645-2.165 3.942 3.942 0 0 1 1.07-2.821 3.816 3.816 0 0 1 1.246-.876 3.764 3.764 0 0 1 1.483-.314v.117z" fill="#000"/><path d="M365.195 1.598h2.302v10.109h-2.302V1.597z" fill="#150035"/><path d="M361.396 5.492h9.923v2.345h-9.923V5.492z" fill="#150035"/><path d="M346.315 20.926h2.303v10.11h-2.303v-10.11z" fill="#000"/><path d="M342.516 24.796h9.924v2.345h-9.924v-2.345zM308.257 20.926h2.303v10.11h-2.303v-10.11z" fill="#000"/><path d="M304.459 24.796h9.923v2.345h-9.923v-2.345zM291.013 32.207a6.044 6.044 0 0 0 3.402-1.051 6.214 6.214 0 0 0 2.256-2.8 6.347 6.347 0 0 0 .349-3.605 6.279 6.279 0 0 0-1.677-3.195 6.086 6.086 0 0 0-3.135-1.707 6.022 6.022 0 0 0-3.539.355 6.15 6.15 0 0 0-2.748 2.298 6.322 6.322 0 0 0-1.032 3.466 6.3 6.3 0 0 0 1.793 4.412 6.07 6.07 0 0 0 4.331 1.827zm0-10.11c.757 0 1.497.23 2.126.659a3.875 3.875 0 0 1 1.407 1.75c.289.714.363 1.498.214 2.254a3.92 3.92 0 0 1-1.053 1.993 3.8 3.8 0 0 1-1.963 1.06 3.756 3.756 0 0 1-2.21-.231 3.837 3.837 0 0 1-1.71-1.445 3.953 3.953 0 0 1-.633-2.17 3.89 3.89 0 0 1 1.121-2.745c.355-.359.777-.643 1.24-.836a3.74 3.74 0 0 1 1.461-.288zM272.134 12.997a6.04 6.04 0 0 0 3.404-1.053 6.216 6.216 0 0 0 2.256-2.804 6.34 6.34 0 0 0 .344-3.608 6.272 6.272 0 0 0-1.682-3.194 6.09 6.09 0 0 0-3.142-1.702 6.02 6.02 0 0 0-3.54.365 6.15 6.15 0 0 0-2.744 2.308 6.33 6.33 0 0 0-1.021 3.473c0 .818.159 1.628.467 2.384.308.755.76 1.442 1.329 2.02a6.082 6.082 0 0 0 1.987 1.345c.743.31 1.538.47 2.342.466zm0-10.109c.756 0 1.494.228 2.123.656a3.888 3.888 0 0 1 1.408 1.748 3.96 3.96 0 0 1 .217 2.25 3.91 3.91 0 0 1-1.046 1.993 3.796 3.796 0 0 1-1.957 1.065c-.741.15-1.51.074-2.208-.221a3.84 3.84 0 0 1-1.715-1.434 3.945 3.945 0 0 1-.644-2.163 3.951 3.951 0 0 1 .257-1.526c.185-.486.464-.93.821-1.304a3.818 3.818 0 0 1 1.254-.874 3.76 3.76 0 0 1 1.49-.307v.117zM234.076 32.207a6.05 6.05 0 0 0 3.403-1.051 6.212 6.212 0 0 0 2.255-2.8 6.347 6.347 0 0 0 .349-3.605 6.285 6.285 0 0 0-1.676-3.195 6.093 6.093 0 0 0-3.136-1.707 6.022 6.022 0 0 0-3.539.355 6.15 6.15 0 0 0-2.748 2.298 6.322 6.322 0 0 0-1.032 3.466c0 1.655.645 3.242 1.794 4.412a6.066 6.066 0 0 0 4.33 1.827zm0-10.11c.757 0 1.497.23 2.126.659a3.875 3.875 0 0 1 1.407 1.75c.289.714.363 1.498.214 2.254a3.92 3.92 0 0 1-1.053 1.993 3.797 3.797 0 0 1-1.963 1.06 3.757 3.757 0 0 1-2.21-.231 3.843 3.843 0 0 1-1.71-1.445 3.953 3.953 0 0 1-.633-2.17 3.922 3.922 0 0 1 1.121-2.744c.355-.36.777-.644 1.24-.837a3.74 3.74 0 0 1 1.461-.288zM249.202 32.207h7.506a2.28 2.28 0 0 0 1.628-.687c.432-.44.674-1.036.674-1.658v-7.623c0-.623-.242-1.22-.674-1.659a2.28 2.28 0 0 0-1.628-.687h-7.506c-.61 0-1.196.247-1.628.687a2.371 2.371 0 0 0-.674 1.659v7.623a2.367 2.367 0 0 0 .674 1.659 2.268 2.268 0 0 0 1.628.687zm7.506-10.11v7.694h-7.552v-7.623l7.552-.07z" fill="#000"/><path d="M230.254 32.207h7.575c.61 0 1.196-.247 1.628-.687.431-.44.674-1.036.674-1.658v-7.623c0-.623-.243-1.22-.674-1.659a2.282 2.282 0 0 0-1.628-.687h-7.575a2.28 2.28 0 0 0-1.628.687 2.367 2.367 0 0 0-.674 1.659v7.623c0 .622.242 1.218.674 1.658a2.28 2.28 0 0 0 1.628.687zm7.506-10.11v7.694h-7.552v-7.623l7.552-.07zM176.448 12.998a6.042 6.042 0 0 0 3.411-1.012 6.216 6.216 0 0 0 2.287-2.77 6.354 6.354 0 0 0 .392-3.597 6.276 6.276 0 0 0-1.635-3.214 6.09 6.09 0 0 0-3.11-1.748 6.019 6.019 0 0 0-3.54.304 6.142 6.142 0 0 0-2.778 2.256 6.318 6.318 0 0 0-1.082 3.447c-.015.823.13 1.64.427 2.404a6.218 6.218 0 0 0 1.303 2.051 6.091 6.091 0 0 0 1.978 1.38 6 6 0 0 0 2.347.498zm0-10.11a3.771 3.771 0 0 1 2.154.63 3.88 3.88 0 0 1 1.436 1.753c.296.717.375 1.508.226 2.27a3.91 3.91 0 0 1-1.063 2.01 3.799 3.799 0 0 1-1.985 1.058 3.76 3.76 0 0 1-2.227-.258 3.842 3.842 0 0 1-1.701-1.485 3.948 3.948 0 0 1-.593-2.202c0-1.02.393-2 1.095-2.728a3.79 3.79 0 0 1 2.658-1.165v.117z" fill="#000"/><path d="M172.695 12.997h7.506c.61 0 1.196-.247 1.628-.687.432-.44.674-1.036.674-1.658V3.005c0-.622-.242-1.218-.674-1.658a2.283 2.283 0 0 0-1.628-.687h-7.506c-.61 0-1.196.247-1.628.687a2.367 2.367 0 0 0-.674 1.658v7.647c0 .622.242 1.218.674 1.658.432.44 1.018.687 1.628.687zm7.506-10.109v7.717h-7.552V2.958l7.552-.07zM287.26 12.997h7.46c.61 0 1.196-.247 1.628-.687.431-.44.674-1.036.674-1.658V3.005c0-.622-.243-1.218-.674-1.658A2.283 2.283 0 0 0 294.72.66h-7.506a2.28 2.28 0 0 0-1.628.687 2.367 2.367 0 0 0-.674 1.658v7.647a2.35 2.35 0 0 0 .69 1.675 2.3 2.3 0 0 0 .763.505c.284.115.589.171.895.165zm7.46-10.226v7.717h-7.552V2.84l7.552-.07zM234.076 12.997a6.043 6.043 0 0 0 3.392-1.045 6.223 6.223 0 0 0 2.257-2.785 6.348 6.348 0 0 0 .363-3.592 6.28 6.28 0 0 0-1.65-3.196 6.095 6.095 0 0 0-3.112-1.728 6.02 6.02 0 0 0-3.531.316 6.15 6.15 0 0 0-2.767 2.257 6.317 6.317 0 0 0-1.076 3.44 6.291 6.291 0 0 0 1.753 4.48 6.098 6.098 0 0 0 2.002 1.376c.75.318 1.556.48 2.369.477zm0-10.109c.761 0 1.504.232 2.135.665a3.88 3.88 0 0 1 1.405 1.767c.286.718.355 1.507.198 2.265a3.915 3.915 0 0 1-1.079 1.992c-.546.54-1.238.9-1.987 1.037a3.757 3.757 0 0 1-2.216-.27 3.846 3.846 0 0 1-1.691-1.485 3.946 3.946 0 0 1-.587-2.195c0-.511.099-1.017.291-1.49.192-.472.473-.901.828-1.263a3.827 3.827 0 0 1 1.24-.844 3.764 3.764 0 0 1 1.463-.296v.117zM251.804 1.598h2.302v10.109h-2.302V1.597z" fill="#000"/><path d="M247.982 5.492h9.923v2.345h-9.923V5.492zM210.776 32.207h7.437c.61 0 1.196-.247 1.628-.687.431-.44.674-1.036.674-1.658v-7.576c0-.622-.243-1.219-.674-1.659a2.282 2.282 0 0 0-1.628-.687h-7.437a2.28 2.28 0 0 0-1.628.687 2.367 2.367 0 0 0-.674 1.659v7.576c0 .622.242 1.219.674 1.658a2.28 2.28 0 0 0 1.628.687zm7.437-10.109v7.67h-7.529v-7.576l7.529-.094zM195.719 12.997a6.046 6.046 0 0 0 3.405-1.053 6.22 6.22 0 0 0 2.255-2.804 6.348 6.348 0 0 0 .345-3.608 6.281 6.281 0 0 0-1.683-3.194 6.09 6.09 0 0 0-3.142-1.702 6.02 6.02 0 0 0-3.54.365 6.155 6.155 0 0 0-2.744 2.308 6.33 6.33 0 0 0-1.021 3.473c0 .818.159 1.628.467 2.384.308.755.76 1.442 1.329 2.02a6.092 6.092 0 0 0 1.987 1.345c.743.31 1.539.47 2.342.466zm0-10.109a3.77 3.77 0 0 1 2.123.656 3.881 3.881 0 0 1 1.408 1.748 3.96 3.96 0 0 1 .217 2.25 3.91 3.91 0 0 1-1.046 1.993 3.796 3.796 0 0 1-1.957 1.065c-.741.15-1.51.074-2.208-.221a3.84 3.84 0 0 1-1.715-1.434 3.945 3.945 0 0 1-.644-2.163 3.951 3.951 0 0 1 .257-1.526c.185-.486.464-.93.821-1.304a3.818 3.818 0 0 1 1.254-.874 3.76 3.76 0 0 1 1.49-.307v.117zM172.695 32.207h7.506c.61 0 1.196-.247 1.628-.687.432-.44.674-1.036.674-1.658v-7.623c0-.623-.242-1.22-.674-1.659a2.282 2.282 0 0 0-1.628-.687h-7.506c-.61 0-1.196.247-1.628.687a2.367 2.367 0 0 0-.674 1.659v7.623c0 .622.242 1.218.674 1.658.432.44 1.018.687 1.628.687zm7.506-10.11v7.694h-7.552v-7.623l7.552-.07zM157.569 12.997a6.046 6.046 0 0 0 3.405-1.053 6.22 6.22 0 0 0 2.255-2.804 6.348 6.348 0 0 0 .345-3.608 6.274 6.274 0 0 0-1.683-3.194A6.09 6.09 0 0 0 158.75.636a6.022 6.022 0 0 0-3.541.365 6.152 6.152 0 0 0-2.743 2.308 6.313 6.313 0 0 0-1.021 3.473c0 .818.158 1.628.466 2.384.308.755.76 1.442 1.329 2.02a6.092 6.092 0 0 0 1.987 1.345c.743.31 1.539.47 2.342.466zm0-10.109a3.77 3.77 0 0 1 2.123.656 3.875 3.875 0 0 1 1.408 1.748 3.96 3.96 0 0 1 .217 2.25 3.91 3.91 0 0 1-1.046 1.993 3.797 3.797 0 0 1-1.956 1.065c-.742.15-1.51.074-2.209-.221a3.84 3.84 0 0 1-1.715-1.434 3.945 3.945 0 0 1-.644-2.163 3.97 3.97 0 0 1 .257-1.526c.185-.486.464-.93.821-1.304a3.818 3.818 0 0 1 1.254-.874 3.764 3.764 0 0 1 1.49-.307v.117zM213.355 1.598h2.302v10.109h-2.302V1.597z" fill="#000"/><path d="M209.533 5.492h9.923v2.345h-9.923V5.492zM194.475 20.926h2.303v10.11h-2.303v-10.11z" fill="#000"/><path d="M190.654 24.796h9.923v2.345h-9.923v-2.345zM156.418 20.926h2.302v10.11h-2.302v-10.11z" fill="#000"/><path d="M152.596 24.796h9.923v2.345h-9.923v-2.345zM139.15 32.208a6.045 6.045 0 0 0 3.409-1.04 6.216 6.216 0 0 0 2.266-2.795 6.355 6.355 0 0 0 .358-3.607 6.284 6.284 0 0 0-1.671-3.2 6.094 6.094 0 0 0-3.135-1.715 6.02 6.02 0 0 0-3.542.351 6.153 6.153 0 0 0-2.752 2.298 6.322 6.322 0 0 0-1.034 3.469c0 1.65.642 3.234 1.786 4.403a6.066 6.066 0 0 0 4.315 1.836zm0-10.11a3.77 3.77 0 0 1 2.132.647 3.879 3.879 0 0 1 1.418 1.746c.292.713.369 1.497.223 2.255a3.917 3.917 0 0 1-1.047 2 3.8 3.8 0 0 1-1.963 1.066c-.743.15-1.514.07-2.213-.227a3.839 3.839 0 0 1-1.714-1.444 3.953 3.953 0 0 1-.635-2.172 3.932 3.932 0 0 1 1.12-2.73 3.786 3.786 0 0 1 2.679-1.14zM82.213 32.208a6.045 6.045 0 0 0 3.409-1.04 6.214 6.214 0 0 0 2.266-2.795 6.348 6.348 0 0 0 .358-3.607 6.277 6.277 0 0 0-1.671-3.2 6.09 6.09 0 0 0-3.136-1.715 6.02 6.02 0 0 0-3.541.351 6.151 6.151 0 0 0-2.752 2.298 6.322 6.322 0 0 0-1.034 3.469 6.3 6.3 0 0 0 1.785 4.403 6.068 6.068 0 0 0 4.316 1.836zm0-10.11c.758-.004 1.5.22 2.132.647a3.878 3.878 0 0 1 1.418 1.746c.292.713.37 1.497.223 2.255a3.916 3.916 0 0 1-1.047 2 3.8 3.8 0 0 1-1.963 1.066c-.743.15-1.514.07-2.213-.227-.7-.298-1.296-.8-1.714-1.444a3.947 3.947 0 0 1 .485-4.902 3.786 3.786 0 0 1 2.68-1.14zM97.362 32.207h7.483a2.28 2.28 0 0 0 1.628-.687c.432-.44.674-1.036.674-1.658v-7.623c0-.623-.242-1.22-.674-1.659a2.28 2.28 0 0 0-1.628-.687h-7.483a2.28 2.28 0 0 0-1.627.687 2.368 2.368 0 0 0-.675 1.659v7.623c0 .622.243 1.218.674 1.658.432.44 1.018.687 1.629.687zm7.483-10.11v7.694h-7.552v-7.623l7.552-.07z" fill="#000"/><path d="M78.46 32.207h7.506c.61 0 1.196-.247 1.628-.687.432-.44.674-1.036.674-1.658v-7.623c0-.623-.242-1.22-.674-1.659a2.28 2.28 0 0 0-1.628-.687H78.46a2.28 2.28 0 0 0-1.628.687 2.368 2.368 0 0 0-.674 1.659v7.623c0 .622.242 1.218.674 1.658.432.44 1.018.687 1.628.687zm7.506-10.11v7.694h-7.575v-7.623l7.575-.07zM82.213 12.998a6.047 6.047 0 0 0 3.367-1.09 6.219 6.219 0 0 0 2.216-2.805 6.348 6.348 0 0 0 .326-3.584 6.276 6.276 0 0 0-1.671-3.172A6.09 6.09 0 0 0 83.338.645a6.02 6.02 0 0 0-3.518.332 6.147 6.147 0 0 0-2.753 2.257 6.343 6.343 0 0 0-.623 5.869 6.249 6.249 0 0 0 1.346 2.068c.58.59 1.27 1.057 2.03 1.37.76.314 1.573.47 2.393.457zm0-10.11a3.757 3.757 0 0 1 1.551.204c.498.177.954.456 1.341.82.387.365.695.807.906 1.299a3.957 3.957 0 0 1 0 3.119c-.21.492-.52.934-.906 1.298a3.808 3.808 0 0 1-1.34.82 3.757 3.757 0 0 1-1.552.204 3.795 3.795 0 0 1-2.509-1.238 3.934 3.934 0 0 1-1.016-2.644c0-.98.363-1.924 1.016-2.644a3.795 3.795 0 0 1 2.509-1.238zM99.941 1.598h2.303v10.109h-2.303V1.597z" fill="#000"/><path d="M96.142 5.492h9.923v2.345h-9.923V5.492zM119.12 20.926h2.302v10.11h-2.302v-10.11z" fill="#000"/><path d="M115.298 24.796h9.923v2.345h-9.923v-2.345zM58.936 32.207h7.414a2.264 2.264 0 0 0 1.703-.644 2.382 2.382 0 0 0 .715-1.701v-7.576a2.382 2.382 0 0 0-.715-1.702 2.264 2.264 0 0 0-1.703-.644h-7.414c-.61 0-1.196.247-1.628.687a2.368 2.368 0 0 0-.674 1.659v7.576c0 .622.242 1.219.674 1.658.432.44 1.018.687 1.628.687zm7.414-10.109l.115 7.67h-7.529v-7.576l7.414-.094zM42.613 20.926h2.302v10.11h-2.302v-10.11z" fill="#000"/><path d="M38.79 24.796h9.924v2.345H38.79v-2.345z" fill="#000"/></svg>