<svg width="37" height="37" viewBox="0 0 37 37" fill="none" xmlns="http://www.w3.org/2000/svg"><path d="M33.052 7.077h1.143a.722.722 0 0 0 0-1.444h-2.744a.722.722 0 0 0-.722.722V9.1a.722.722 0 0 0 1.444 0v-.795A17 17 0 0 1 35.556 18.5c0 9.404-7.651 17.056-17.056 17.056-9.405 0-17.056-7.651-17.056-17.056 0-9.405 7.651-17.056 17.056-17.056.695 0 1.395.043 2.08.126a.723.723 0 0 0 .175-1.434A18.762 18.762 0 0 0 18.5 0 18.379 18.379 0 0 0 5.419 5.419 18.379 18.379 0 0 0 0 18.5c0 4.942 1.924 9.587 5.419 13.081A18.379 18.379 0 0 0 18.5 37c4.942 0 9.587-1.924 13.081-5.419A18.379 18.379 0 0 0 37 18.5a18.44 18.44 0 0 0-3.948-11.423z" fill="#000"/><path d="M7.834 10.906a.722.722 0 0 0-.997.224 13.846 13.846 0 0 0-2.055 8.818 13.825 13.825 0 0 0 3.964 8.306 13.75 13.75 0 0 0 9.754 4.033 13.75 13.75 0 0 0 9.754-4.033c5.378-5.378 5.378-14.13 0-19.507a13.826 13.826 0 0 0-8.293-3.963 13.847 13.847 0 0 0-8.807 2.038.722.722 0 0 0 .77 1.222c4.906-3.092 11.201-2.383 15.308 1.724 4.815 4.815 4.815 12.65 0 17.465-4.814 4.814-12.65 4.814-17.464 0-4.05-4.051-4.77-10.498-1.71-15.33a.722.722 0 0 0-.224-.997z" fill="#000"/><path d="M27.888 19.234h.89a.722.722 0 0 0 0-1.444h-.89a.722.722 0 1 0 0 1.444zM7.499 18.488c0 .4.323.723.722.723h.89a.722.722 0 0 0 0-1.445h-.89a.722.722 0 0 0-.722.722zM19.234 9.112V8.22a.722.722 0 0 0-1.444 0v.89a.722.722 0 0 0 1.444 0zM17.766 27.888v.891a.722.722 0 0 0 1.445 0v-.89a.722.722 0 0 0-1.445 0zM14.88 13.859a.722.722 0 0 0-1.021 1.021l2.447 2.448a2.49 2.49 0 0 0 2.194 3.66 2.49 2.49 0 0 0 2.194-3.66l4.938-4.939a.722.722 0 0 0-1.021-1.021l-4.939 4.938a2.473 2.473 0 0 0-2.344 0L14.88 13.86zm4.664 4.64a1.045 1.045 0 0 1-2.088 0 1.045 1.045 0 0 1 2.088 0zM9.767 9.767a.725.725 0 0 0 .213-.51.726.726 0 0 0-.723-.722.728.728 0 0 0-.51.211.728.728 0 0 0-.212.51.726.726 0 0 0 .722.723c.19 0 .376-.077.51-.212zM23.503 2.158a.725.725 0 0 0 .722-.722.727.727 0 0 0-.211-.511.728.728 0 0 0-.511-.212.728.728 0 0 0-.511.212.726.726 0 0 0 .51 1.233z" fill="#000"/></svg>