<svg width="36" height="36" viewBox="0 0 36 36" fill="none" xmlns="http://www.w3.org/2000/svg"><path d="M32.313 3.525h-2.938V2.35a2.35 2.35 0 0 0-4.7 0v1.175h-4.7V2.35a2.35 2.35 0 0 0-4.7 0v1.175h-4.7V2.35a2.35 2.35 0 0 0-4.7 0v1.175H2.937A2.938 2.938 0 0 0 0 6.463v23.5A2.937 2.937 0 0 0 2.938 32.9h16.45a.587.587 0 0 0 0-1.175H2.938a1.768 1.768 0 0 1-1.763-1.763V11.75h32.9v9.988a.587.587 0 0 0 1.175 0V6.463a2.937 2.937 0 0 0-2.938-2.938zM25.85 2.35a1.175 1.175 0 1 1 2.35 0v3.525a1.175 1.175 0 0 1-2.35 0V2.35zm-9.4 0a1.175 1.175 0 1 1 2.35 0v3.525a1.175 1.175 0 0 1-2.35 0V2.35zm-9.4 0a1.175 1.175 0 1 1 2.35 0v3.525a1.175 1.175 0 1 1-2.35 0V2.35zm27.025 8.225h-32.9V6.463A1.768 1.768 0 0 1 2.937 4.7h2.938v1.175a2.35 2.35 0 0 0 4.7 0V4.7h4.7v1.175a2.35 2.35 0 0 0 4.7 0V4.7h4.7v1.175a2.35 2.35 0 0 0 4.7 0V4.7h2.938a1.768 1.768 0 0 1 1.762 1.763v4.112z" fill="#000"/><path d="M16.45 15.863a1.175 1.175 0 0 0-1.175-1.175h-2.35a1.175 1.175 0 0 0-1.175 1.175v1.762a1.175 1.175 0 0 0 1.175 1.175h2.35a1.175 1.175 0 0 0 1.175-1.175v-1.762zm-3.525 1.762v-1.762h2.35v1.762h-2.35zM9.4 15.863a1.175 1.175 0 0 0-1.175-1.175h-2.35A1.175 1.175 0 0 0 4.7 15.863v1.762A1.175 1.175 0 0 0 5.875 18.8h2.35A1.175 1.175 0 0 0 9.4 17.625v-1.762zm-3.525 1.762v-1.762h2.35v1.762h-2.35zM29.375 18.8a1.175 1.175 0 0 0 1.175-1.175v-1.762a1.175 1.175 0 0 0-1.175-1.175h-2.35a1.175 1.175 0 0 0-1.175 1.175v1.762a1.175 1.175 0 0 0 1.175 1.175h2.35zm-2.35-2.938h2.35v1.763h-2.35v-1.762zM16.45 21.15a1.175 1.175 0 0 0-1.175-1.175h-2.35a1.175 1.175 0 0 0-1.175 1.175v1.763a1.175 1.175 0 0 0 1.175 1.175h2.35a1.175 1.175 0 0 0 1.175-1.175V21.15zm-3.525 1.763V21.15h2.35v1.763h-2.35zM9.4 21.15a1.175 1.175 0 0 0-1.175-1.175h-2.35A1.175 1.175 0 0 0 4.7 21.15v1.763a1.175 1.175 0 0 0 1.175 1.175h2.35A1.175 1.175 0 0 0 9.4 22.913V21.15zm-3.525 1.763V21.15h2.35v1.763h-2.35zM15.275 25.262h-2.35a1.175 1.175 0 0 0-1.175 1.175V28.2a1.175 1.175 0 0 0 1.175 1.175h2.35A1.175 1.175 0 0 0 16.45 28.2v-1.762a1.175 1.175 0 0 0-1.175-1.175zm-2.35 2.938v-1.762h2.35V28.2h-2.35zM19.975 18.8h2.35a1.175 1.175 0 0 0 1.175-1.175v-1.762a1.175 1.175 0 0 0-1.175-1.175h-2.35a1.175 1.175 0 0 0-1.175 1.175v1.762a1.175 1.175 0 0 0 1.175 1.175zm0-2.938h2.35v1.763h-2.35v-1.762zM18.8 22.913a1.175 1.175 0 0 0 1.175 1.175.587.587 0 1 0 0-1.175V21.15h2.35a.587.587 0 1 0 0-1.175h-2.35A1.175 1.175 0 0 0 18.8 21.15v1.763zM8.225 25.262h-2.35A1.175 1.175 0 0 0 4.7 26.438V28.2a1.175 1.175 0 0 0 1.175 1.175h2.35A1.175 1.175 0 0 0 9.4 28.2v-1.762a1.175 1.175 0 0 0-1.175-1.175zM5.875 28.2v-1.762h2.35V28.2h-2.35z" fill="#000"/><path d="M27.613 19.975a7.638 7.638 0 1 0 7.637 7.638 7.647 7.647 0 0 0-7.637-7.638zm0 14.1a6.463 6.463 0 1 1 6.462-6.462 6.47 6.47 0 0 1-6.463 6.462z" fill="#000"/><path d="M31.007 25.15l-4.57 4.57-2.076-2.078a.587.587 0 0 0-.831.83l2.492 2.493a.587.587 0 0 0 .83 0l4.986-4.985a.587.587 0 0 0-.831-.83z" fill="#000"/></svg>