<svg width="36" height="36" viewBox="0 0 36 36" fill="none" xmlns="http://www.w3.org/2000/svg"><g clip-path="url(#a)" fill="#050505"><path d="M17.625 10.234a.57.57 0 0 1-.569-.569H15.92c0 .74.477 1.366 1.137 1.601v1.242h1.137v-1.242a1.703 1.703 0 0 0 1.138-1.6c0-.941-.766-1.706-1.706-1.706a.57.57 0 0 1 0-1.137.57.57 0 0 1 .569.568h1.137c0-.74-.477-1.365-1.137-1.6V4.547h-1.138V5.79c-.66.236-1.137.861-1.137 1.601 0 .94.766 1.706 1.706 1.706a.57.57 0 0 1 0 1.137z"/><path d="M35.25 17.056V0H0v17.056h9.097v3.172a5.1 5.1 0 0 0 .86 2.838l1.414 2.123v.964h-1.137v5.686h9.682c1.558 2.066 4.024 3.411 6.806 3.411 4.702 0 8.528-3.826 8.528-8.528 0-4.703-3.826-8.529-8.528-8.529-.192 0-.38.017-.569.03v-1.166h9.097zM11.371 30.703V27.29h6.851a8.46 8.46 0 0 0 .963 3.412h-7.814zm22.742-3.98c0 4.075-3.316 7.39-7.391 7.39-4.076 0-7.391-3.315-7.391-7.39 0-4.076 3.315-7.391 7.39-7.391 4.076 0 7.392 3.315 7.392 7.39zm-9.097-8.357a8.54 8.54 0 0 0-6.794 7.788h-5.714v-1.31l-1.606-2.407a3.971 3.971 0 0 1-.668-2.208v-4.309H1.137V1.137h32.976V15.92H13.645v-2.564a6.198 6.198 0 0 0 3.98 1.427h13.077v-.568c0-.94.765-1.706 1.705-1.706h.569v-7.96h-.569c-.94 0-1.705-.765-1.705-1.705v-.569H4.548v.569c0 .94-.765 1.705-1.705 1.705h-.569v7.96h.569c.94 0 1.705.765 1.705 1.706v.568h5.686v-3.98a1.138 1.138 0 0 1 2.274 0v8.529h.569a2.846 2.846 0 0 1 2.842 2.842h1.137a3.986 3.986 0 0 0-3.41-3.94v-1.177h11.37v1.31zm-12.488-9.51c-.007-.11-.02-.218-.02-.327a5.123 5.123 0 0 1 5.117-5.117 5.123 5.123 0 0 1 5.117 5.117 5.123 5.123 0 0 1-5.117 5.117 5.071 5.071 0 0 1-3.98-1.911v-.932c0-.83-.452-1.55-1.117-1.947zm-1.157-.327a2.276 2.276 0 0 0-2.274 2.274v2.843H5.628a2.85 2.85 0 0 0-2.217-2.217v-5.8a2.85 2.85 0 0 0 2.217-2.217h8.412a6.248 6.248 0 0 0-2.669 5.117zm9.839-5.117h8.412a2.85 2.85 0 0 0 2.217 2.217v5.8a2.85 2.85 0 0 0-2.217 2.217H21.21a6.246 6.246 0 0 0 2.669-5.117 6.248 6.248 0 0 0-2.67-5.117z"/><path d="M24.212 26.722l-3.411 3.411 2.51 2.51 3.41-3.412 3.412 3.412 2.51-2.51-3.412-3.411 3.412-3.412-2.51-2.51-3.411 3.412-3.412-3.411-2.51 2.51 3.412 3.41zm2.51-.902l3.411-3.411.902.901-3.412 3.412 3.412 3.411-.902.902-3.411-3.412-3.412 3.412-.901-.902 3.411-3.411-3.411-3.412.902-.901 3.41 3.411zM2.274 2.274h1.137v1.137H2.274V2.274zM2.274 13.645h1.137v1.137H2.274v-1.137zM31.839 2.274h1.137v1.137h-1.137V2.274zM31.839 13.645h1.137v1.137h-1.137v-1.137z"/></g><defs><clipPath id="a"><path fill="#fff" d="M0 0h35.25v35.25H0z"/></clipPath></defs></svg>