<svg width="457" height="70" viewBox="0 0 457 70" fill="none" xmlns="http://www.w3.org/2000/svg"><path d="M6.24 69.806a6.24 6.24 0 1 1 6.238-6.215 6.216 6.216 0 0 1-6.239 6.215zm0-10.109a3.894 3.894 0 1 0 0 7.788 3.894 3.894 0 0 0 0-7.788zM64.245 69.807a6.239 6.239 0 1 1 6.145-6.216 6.216 6.216 0 0 1-6.145 6.216zm0-10.11a3.895 3.895 0 1 0-.188 7.788 3.895 3.895 0 0 0 .188-7.788zM48.834 69.807h-7.623a2.346 2.346 0 0 1-2.345-2.346v-7.646a2.346 2.346 0 0 1 2.345-2.346h7.623a2.346 2.346 0 0 1 2.346 2.346v7.646a2.346 2.346 0 0 1-2.346 2.346zm-7.623-10.11v7.717h7.694v-7.646l-7.694-.07z" fill="#150035"/><path d="M68.044 69.807h-7.6A2.345 2.345 0 0 1 58.1 67.46v-7.646a2.346 2.346 0 0 1 2.346-2.346h7.6a2.346 2.346 0 0 1 2.345 2.346v7.646a2.346 2.346 0 0 1-2.346 2.346zm-7.622-10.11v7.717h7.693v-7.646l-7.693-.07z" fill="#150035"/><path d="M122.954 50.526a6.242 6.242 0 0 1-6.12-7.456 6.239 6.239 0 1 1 6.12 7.456zm0-10.11a3.895 3.895 0 0 0-3.817 4.663 3.891 3.891 0 0 0 5.323 2.822 3.895 3.895 0 0 0 2.387-3.614 3.864 3.864 0 0 0-1.133-2.76 3.869 3.869 0 0 0-2.76-1.134v.024z" fill="#000"/><path d="M126.683 50.526h-7.529a2.347 2.347 0 0 1-2.346-2.345v-7.74a2.345 2.345 0 0 1 2.346-2.346h7.529a2.347 2.347 0 0 1 2.346 2.345v7.74a2.345 2.345 0 0 1-2.346 2.346zm-7.623-10.11v7.694l7.623.07v-7.74l-7.623-.023z" fill="#000"/><path d="M10.062 50.526H2.37a2.345 2.345 0 0 1-2.346-2.345v-7.74a2.346 2.346 0 0 1 2.346-2.346h7.693a2.345 2.345 0 0 1 2.346 2.345v7.74a2.346 2.346 0 0 1-2.346 2.346zM2.37 40.393v7.788h7.693v-7.74l-7.693-.048zM64.245 50.526a6.238 6.238 0 1 1-.189-12.474 6.238 6.238 0 0 1 .189 12.474zm0-10.109a3.894 3.894 0 1 0 3.8 3.847 3.87 3.87 0 0 0-3.8-3.87v.023zM46.184 39.22h-2.346v10.11h2.346V39.22z" fill="#150035"/><path d="M50.078 43.091h-10.11v2.346h10.11V43.09zM26.669 58.524h-2.346v10.11h2.346v-10.11z" fill="#150035"/><path d="M30.54 62.418H20.43v2.346h10.11v-2.346zM87.982 69.807h-7.576a2.346 2.346 0 0 1-2.346-2.346v-7.553a2.346 2.346 0 0 1 2.346-2.345h7.576a2.346 2.346 0 0 1 2.345 2.345v7.577a2.346 2.346 0 0 1-2.345 2.322zm-7.576-10.11v7.67h7.67v-7.459l-7.67-.21z" fill="#150035"/><path d="M126.683 69.807h-7.529a2.347 2.347 0 0 1-2.346-2.346v-7.646a2.345 2.345 0 0 1 2.346-2.346h7.529a2.347 2.347 0 0 1 2.346 2.346v7.646a2.345 2.345 0 0 1-2.346 2.346zm-7.623-10.11v7.717h7.693v-7.646l-7.693-.07zM142.211 50.526a6.24 6.24 0 1 1 6.215-6.239 6.26 6.26 0 0 1-6.215 6.24zm0-10.11a3.894 3.894 0 1 0 3.87 3.871 3.874 3.874 0 0 0-2.384-3.597 3.868 3.868 0 0 0-1.486-.297v.024z" fill="#000"/><path d="M85.378 39.22h-2.346v10.11h2.346V39.22z" fill="#150035"/><path d="M89.248 43.091h-10.11v2.346h10.11V43.09z" fill="#150035"/><path d="M104.612 58.524h-2.346v10.11h2.346v-10.11z" fill="#000"/><path d="M108.482 62.418h-10.11v2.346h10.11v-2.346zM143.384 58.524h-2.346v10.11h2.346v-10.11z" fill="#000"/><path d="M147.254 62.418h-10.11v2.346h10.11v-2.346zM160.952 69.806a6.239 6.239 0 1 1 6.239-6.215 6.213 6.213 0 0 1-3.854 5.749 6.21 6.21 0 0 1-2.385.466zm0-10.109a3.898 3.898 0 0 0-3.598 2.404 3.901 3.901 0 0 0 .844 4.243 3.898 3.898 0 0 0 4.244.844 3.896 3.896 0 0 0 1.263-6.35 3.894 3.894 0 0 0-2.753-1.14zM180.185 50.526a6.239 6.239 0 1 1 0-12.477 6.239 6.239 0 0 1 0 12.477zm0-10.11a3.89 3.89 0 0 0-3.599 2.41 3.895 3.895 0 0 0 2.854 5.306 3.895 3.895 0 0 0 4.639-3.845 3.883 3.883 0 0 0-1.134-2.76 3.865 3.865 0 0 0-2.76-1.134v.024zM218.957 69.806a6.241 6.241 0 0 1-5.766-3.856 6.232 6.232 0 0 1 1.363-6.803 6.236 6.236 0 0 1 9.602.971 6.234 6.234 0 0 1 1.04 3.473 6.212 6.212 0 0 1-6.239 6.215zm0-10.109a3.893 3.893 0 1 0 0 7.786 3.893 3.893 0 0 0 0-7.786zM203.547 69.807H195.9a2.345 2.345 0 0 1-2.345-2.346v-7.646a2.345 2.345 0 0 1 2.345-2.346h7.647a2.343 2.343 0 0 1 2.345 2.346v7.646a2.343 2.343 0 0 1-2.345 2.346zm-7.647-10.11v7.717h7.694v-7.646l-7.694-.07z" fill="#000"/><path d="M222.851 69.807h-7.717a2.347 2.347 0 0 1-2.346-2.346v-7.646a2.345 2.345 0 0 1 2.346-2.346h7.717a2.345 2.345 0 0 1 2.345 2.346v7.646a2.345 2.345 0 0 1-2.345 2.346zm-7.647-10.11v7.717h7.694v-7.646l-7.694-.07zM277.666 50.526a6.239 6.239 0 1 1 0-12.477 6.239 6.239 0 0 1 0 12.477zm0-10.11a3.895 3.895 0 0 0-2.556 6.527 3.895 3.895 0 0 0 6.426-4.204 3.895 3.895 0 0 0-3.87-2.322z" fill="#000"/><path d="M281.489 50.526h-7.646a2.347 2.347 0 0 1-2.346-2.345v-7.74a2.35 2.35 0 0 1 2.346-2.346h7.646a2.345 2.345 0 0 1 2.346 2.345v7.74a2.345 2.345 0 0 1-2.346 2.346zm-7.646-10.11v7.694h7.693v-7.67l-7.693-.023zM164.775 50.526h-7.6a2.345 2.345 0 0 1-2.345-2.345v-7.74a2.345 2.345 0 0 1 2.345-2.346h7.647a2.343 2.343 0 0 1 2.345 2.345v7.74a2.346 2.346 0 0 1-2.392 2.346zm-7.6-10.133v7.788h7.694v-7.74l-7.694-.048zM218.957 50.526a6.24 6.24 0 1 1 0-12.48 6.24 6.24 0 0 1 0 12.48zm0-10.11a3.895 3.895 0 0 0-2.556 6.527 3.895 3.895 0 0 0 6.426-4.204 3.895 3.895 0 0 0-3.87-2.322zM200.896 39.22h-2.345v10.11h2.345V39.22z" fill="#000"/><path d="M204.79 43.091h-10.109v2.346h10.109V43.09zM181.358 58.524h-2.346v10.11h2.346v-10.11z" fill="#000"/><path d="M185.252 62.418h-10.11v2.346h10.11v-2.346zM258.034 50.526a6.239 6.239 0 1 1 0-12.477 6.239 6.239 0 0 1 0 12.477zm0-10.11a3.895 3.895 0 0 0-3.817 4.663 3.891 3.891 0 0 0 5.323 2.822 3.895 3.895 0 0 0 2.388-3.614 3.883 3.883 0 0 0-1.134-2.76 3.875 3.875 0 0 0-2.76-1.134v.024zM281.489 69.807h-7.646a2.347 2.347 0 0 1-2.346-2.346v-7.646a2.35 2.35 0 0 1 2.346-2.346h7.646a2.345 2.345 0 0 1 2.346 2.346v7.646a2.345 2.345 0 0 1-2.346 2.346zm-7.646-10.11v7.717h7.693v-7.646l-7.693-.07zM296.9 50.526a6.239 6.239 0 1 1 0-12.477 6.239 6.239 0 0 1 0 12.477zm0-10.11a3.893 3.893 0 1 0 .603 7.763 3.893 3.893 0 0 0-.603-7.762zM240.067 39.22h-2.345v10.11h2.345V39.22z" fill="#000"/><path d="M243.961 43.091h-10.11v2.346h10.11V43.09zM298.073 58.524h-2.346v10.11h2.346v-10.11z" fill="#000"/><path d="M301.966 62.418h-10.109v2.346h10.109v-2.346zM315.664 69.807a6.24 6.24 0 1 1-.046-12.48 6.24 6.24 0 0 1 .046 12.48zm0-10.11a3.892 3.892 0 0 0-2.946 6.74 3.894 3.894 0 1 0 2.946-6.74zM334.898 50.526a6.24 6.24 0 1 1-.047-12.48 6.24 6.24 0 0 1 .047 12.48zm0-10.11a3.894 3.894 0 1 0 3.87 3.871 3.874 3.874 0 0 0-2.384-3.597 3.868 3.868 0 0 0-1.486-.297v.024zM373.67 69.807a6.243 6.243 0 0 1-5.784-3.84 6.24 6.24 0 1 1 5.784 3.84zm0-10.11a3.895 3.895 0 1 0-.605 7.766 3.895 3.895 0 0 0 .605-7.765zM358.236 69.807h-7.623a2.347 2.347 0 0 1-2.346-2.346v-7.646a2.345 2.345 0 0 1 2.346-2.346h7.623a2.345 2.345 0 0 1 2.345 2.346v7.646a2.345 2.345 0 0 1-2.345 2.346zm-7.623-10.11v7.717h7.693v-7.646l-7.693-.07z" fill="#000"/><path d="M377.493 69.807h-7.647a2.345 2.345 0 0 1-2.345-2.346v-7.646a2.345 2.345 0 0 1 2.345-2.346h7.647a2.345 2.345 0 0 1 2.345 2.346v7.646a2.345 2.345 0 0 1-2.345 2.346zm-7.647-10.11v7.717h7.717v-7.646l-7.717-.07zM319.487 50.526h-7.646a2.347 2.347 0 0 1-2.346-2.345v-7.74a2.345 2.345 0 0 1 2.346-2.346h7.646a2.347 2.347 0 0 1 2.346 2.345v7.74a2.345 2.345 0 0 1-2.346 2.346zm-7.646-10.11v7.694h7.717v-7.67l-7.717-.023zM336.07 58.524h-2.345v10.11h2.345v-10.11z" fill="#000"/><path d="M339.964 62.418h-10.109v2.346h10.109v-2.346zM397.383 69.807h-7.553a2.343 2.343 0 0 1-2.462-2.346v-7.553a2.347 2.347 0 0 1 2.462-2.345h7.553a2.347 2.347 0 0 1 2.346 2.345v7.577a2.346 2.346 0 0 1-2.346 2.322zm-7.553-10.11l-.117 7.67h7.67v-7.459l-7.553-.21zM412.84 50.526a6.239 6.239 0 1 1 0-12.477 6.239 6.239 0 0 1 0 12.477zm0-10.11a3.895 3.895 0 0 0-2.556 6.527 3.895 3.895 0 0 0 6.426-4.204 3.895 3.895 0 0 0-3.87-2.322zM436.296 69.807h-7.741a2.345 2.345 0 0 1-2.345-2.346v-7.646a2.345 2.345 0 0 1 2.345-2.346h7.741a2.345 2.345 0 0 1 2.345 2.346v7.646a2.345 2.345 0 0 1-2.345 2.346zm-7.647-10.11v7.717h7.717v-7.646l-7.717-.07zM394.78 39.22h-2.346v10.11h2.346V39.22z" fill="#000"/><path d="M398.65 43.091h-10.11v2.346h10.11V43.09zM414.013 58.524h-2.346v10.11h2.346v-10.11z" fill="#000"/><path d="M417.907 62.418h-10.11v2.346h10.11v-2.346zM452.785 58.524h-2.346v10.11h2.346v-10.11z" fill="#000"/><path d="M456.655 62.418h-10.109v2.346h10.109v-2.346z" fill="#000"/><path d="M6.24 32.207a6.24 6.24 0 1 1 0-12.48 6.24 6.24 0 0 1 0 12.48zm0-10.11a3.893 3.893 0 1 0 3.893 3.87 3.87 3.87 0 0 0-3.894-3.87zM25.496 12.997A6.238 6.238 0 1 1 25.45.52a6.238 6.238 0 0 1 .047 12.477zm0-10.109a3.893 3.893 0 1 0 3.87 3.894 3.896 3.896 0 0 0-3.87-4.011v.117zM64.245 32.208a6.24 6.24 0 1 1-.188-12.479 6.24 6.24 0 0 1 .188 12.479zm0-10.11a3.895 3.895 0 0 0-.875 7.707 3.894 3.894 0 0 0 4.674-3.837 3.87 3.87 0 0 0-3.8-3.87zM48.834 32.207h-7.623a2.346 2.346 0 0 1-2.345-2.345v-7.623a2.346 2.346 0 0 1 2.345-2.346h7.623a2.345 2.345 0 0 1 2.346 2.346v7.623a2.346 2.346 0 0 1-2.346 2.345zm-7.623-10.11v7.694h7.694v-7.623l-7.694-.07zM10.062 12.997H2.37a2.346 2.346 0 0 1-2.346-2.345V3.005A2.345 2.345 0 0 1 2.37.66h7.693a2.345 2.345 0 0 1 2.346 2.345v7.647a2.346 2.346 0 0 1-2.346 2.345zM2.37 2.771v7.717h7.693V2.84l-7.693-.07z" fill="#150035"/><path d="M68.044 32.207h-7.6a2.345 2.345 0 0 1-2.345-2.345v-7.623a2.346 2.346 0 0 1 2.346-2.346h7.6a2.345 2.345 0 0 1 2.345 2.346v7.623a2.346 2.346 0 0 1-2.346 2.345zm-7.622-10.11v7.694h7.693v-7.623l-7.693-.07z" fill="#150035"/><path d="M122.954 12.997a6.241 6.241 0 0 1-6.118-7.465 6.241 6.241 0 0 1 11.317-2.223 6.234 6.234 0 0 1 1.04 3.473 6.215 6.215 0 0 1-6.239 6.216zm0-10.109a3.893 3.893 0 1 0 3.893 3.894 3.882 3.882 0 0 0-1.098-2.83 3.884 3.884 0 0 0-2.795-1.181v.117z" fill="#000"/><path d="M126.683 12.997h-7.529a2.347 2.347 0 0 1-2.346-2.345V3.005A2.345 2.345 0 0 1 119.154.66h7.529a2.347 2.347 0 0 1 2.346 2.345v7.647a2.345 2.345 0 0 1-2.346 2.345zM119.06 2.888v7.717l7.623.047V3.005l-7.623-.117z" fill="#000"/><path d="M64.245 12.998a6.24 6.24 0 1 1 6.145-6.333 6.217 6.217 0 0 1-6.145 6.333zm0-10.11a3.894 3.894 0 1 0 3.8 3.777 3.894 3.894 0 0 0-3.8-3.894v.117zM26.669 20.926h-2.346v10.11h2.346v-10.11z" fill="#150035"/><path d="M30.54 24.796H20.43v2.345h10.11v-2.345zM87.982 32.207h-7.576a2.346 2.346 0 0 1-2.346-2.345v-7.576a2.346 2.346 0 0 1 2.346-2.346h7.576a2.346 2.346 0 0 1 2.345 2.346v7.576a2.346 2.346 0 0 1-2.345 2.345zm-7.576-10.109v7.67h7.67v-7.576l-7.67-.094z" fill="#150035"/><path d="M103.439 12.997A6.239 6.239 0 1 1 103.391.52a6.239 6.239 0 0 1 .048 12.477zm0-10.109a3.893 3.893 0 1 0-.604 7.763 3.893 3.893 0 0 0 .604-7.763zM126.683 32.207h-7.529a2.347 2.347 0 0 1-2.346-2.345v-7.623a2.345 2.345 0 0 1 2.346-2.346h7.529a2.347 2.347 0 0 1 2.346 2.346v7.623a2.345 2.345 0 0 1-2.346 2.345zm-7.623-10.11v7.694h7.693v-7.623l-7.693-.07zM142.211 12.997a6.237 6.237 0 0 1-6.144-7.45 6.24 6.24 0 1 1 6.144 7.45zm0-10.109a3.897 3.897 0 0 0-3.614 2.387 3.884 3.884 0 0 0-.231 2.252 3.886 3.886 0 0 0 3.053 3.072 3.895 3.895 0 0 0 4.662-3.817 3.89 3.89 0 0 0-3.87-4.011v.117z" fill="#000"/><path d="M85.378 1.598h-2.346v10.109h2.346V1.597z" fill="#150035"/><path d="M89.248 5.492h-10.11v2.345h10.11V5.492z" fill="#150035"/><path d="M104.612 20.926h-2.346v10.11h2.346v-10.11z" fill="#000"/><path d="M108.482 24.796h-10.11v2.345h10.11v-2.345zM143.384 20.926h-2.346v10.11h2.346v-10.11z" fill="#000"/><path d="M147.254 24.796h-10.11v2.345h10.11v-2.345zM160.952 32.207a6.242 6.242 0 0 1-6.12-7.456 6.239 6.239 0 1 1 6.12 7.456zm0-10.11a3.895 3.895 0 0 0-3.817 4.663 3.891 3.891 0 0 0 5.323 2.822 3.895 3.895 0 0 0 2.387-3.614 3.87 3.87 0 0 0-3.893-3.87zM180.185 12.997a6.241 6.241 0 0 1-5.766-3.857 6.232 6.232 0 0 1 1.363-6.802 6.24 6.24 0 0 1 9.602.971 6.234 6.234 0 0 1 1.04 3.473 6.212 6.212 0 0 1-6.239 6.215zm0-10.109a3.893 3.893 0 1 0 3.894 3.894 3.901 3.901 0 0 0-2.376-3.704 3.896 3.896 0 0 0-1.518-.307v.117zM218.957 32.207a6.239 6.239 0 1 1 0-12.477 6.239 6.239 0 0 1 0 12.477zm0-10.11a3.895 3.895 0 0 0-3.817 4.663 3.891 3.891 0 0 0 5.323 2.822 3.895 3.895 0 0 0 2.388-3.614 3.87 3.87 0 0 0-3.894-3.87zM203.547 32.207H195.9a2.345 2.345 0 0 1-2.345-2.345v-7.623a2.345 2.345 0 0 1 2.345-2.346h7.647a2.343 2.343 0 0 1 2.345 2.346v7.623a2.343 2.343 0 0 1-2.345 2.345zm-7.647-10.11v7.694h7.694v-7.623l-7.694-.07z" fill="#000"/><path d="M222.851 32.207h-7.717a2.347 2.347 0 0 1-2.346-2.345v-7.623a2.345 2.345 0 0 1 2.346-2.346h7.717a2.344 2.344 0 0 1 2.345 2.346v7.623a2.345 2.345 0 0 1-2.345 2.345zm-7.647-10.11v7.694h7.694v-7.623l-7.694-.07zM277.666 12.998a6.238 6.238 0 1 1 6.169-6.334 6.198 6.198 0 0 1-.435 2.404 6.203 6.203 0 0 1-3.342 3.432 6.217 6.217 0 0 1-2.392.498zm0-10.11a3.894 3.894 0 1 0 3.823 3.776 3.89 3.89 0 0 0-3.823-3.893v.117z" fill="#000"/><path d="M281.489 12.997h-7.646a2.347 2.347 0 0 1-2.346-2.345V3.005A2.35 2.35 0 0 1 273.843.66h7.646a2.345 2.345 0 0 1 2.346 2.345v7.647a2.345 2.345 0 0 1-2.346 2.345zm-7.646-10.109v7.717h7.693V2.958l-7.693-.07zM164.775 12.997h-7.6a2.345 2.345 0 0 1-2.345-2.345V3.005A2.345 2.345 0 0 1 157.175.66h7.647a2.343 2.343 0 0 1 2.345 2.345v7.647a2.347 2.347 0 0 1-2.392 2.346zm-7.6-10.226v7.717h7.694V2.84l-7.694-.07zM218.957 12.997a6.239 6.239 0 1 1 6.239-6.333 6.206 6.206 0 0 1-1.787 4.48 6.209 6.209 0 0 1-4.452 1.853zm0-10.109a3.895 3.895 0 0 0-2.709 6.689 3.893 3.893 0 0 0 6.603-2.913 3.888 3.888 0 0 0-1.141-2.753 3.88 3.88 0 0 0-2.753-1.14v.117zM200.896 1.598h-2.345v10.109h2.345V1.597z" fill="#000"/><path d="M204.79 5.492h-10.109v2.345h10.109V5.492zM242.694 32.207h-7.576a2.347 2.347 0 0 1-2.346-2.345v-7.576a2.345 2.345 0 0 1 2.346-2.346h7.576a2.347 2.347 0 0 1 2.346 2.346v7.576a2.35 2.35 0 0 1-2.346 2.345zm-7.576-10.109v7.67h7.67v-7.576l-7.67-.094zM258.034 12.997a6.241 6.241 0 0 1-5.766-3.857 6.232 6.232 0 0 1 1.363-6.802 6.237 6.237 0 0 1 10.642 4.444 6.212 6.212 0 0 1-6.239 6.215zm0-10.109a3.893 3.893 0 1 0 3.894 3.894 3.901 3.901 0 0 0-2.376-3.704 3.9 3.9 0 0 0-1.518-.307v.117zM281.489 32.207h-7.646a2.347 2.347 0 0 1-2.346-2.345v-7.623a2.35 2.35 0 0 1 2.346-2.346h7.646a2.345 2.345 0 0 1 2.346 2.346v7.623a2.345 2.345 0 0 1-2.346 2.345zm-7.646-10.11v7.694h7.693v-7.623l-7.693-.07zM296.9 12.997a6.241 6.241 0 0 1-6.118-7.465 6.241 6.241 0 0 1 11.317-2.223 6.234 6.234 0 0 1 1.04 3.473 6.215 6.215 0 0 1-6.239 6.216zm0-10.109a3.893 3.893 0 1 0 3.893 3.894 3.882 3.882 0 0 0-1.098-2.83 3.884 3.884 0 0 0-2.795-1.181v.117zM240.067 1.598h-2.345v10.109h2.345V1.597z" fill="#000"/><path d="M243.961 5.492h-10.11v2.345h10.11V5.492zM259.301 20.926h-2.346v10.11h2.346v-10.11z" fill="#000"/><path d="M263.194 24.796h-10.109v2.345h10.109v-2.345zM298.073 20.926h-2.346v10.11h2.346v-10.11z" fill="#000"/><path d="M301.966 24.796h-10.109v2.345h10.109v-2.345zM315.664 32.208a6.24 6.24 0 0 1-4.444-10.643 6.243 6.243 0 0 1 6.803-1.363 6.245 6.245 0 0 1 3.857 5.767 6.24 6.24 0 0 1-6.216 6.239zm0-10.11a3.894 3.894 0 1 0-.047 7.788 3.894 3.894 0 0 0 .047-7.787zM373.67 32.208a6.24 6.24 0 0 1-4.444-10.643 6.24 6.24 0 1 1 4.444 10.643zm0-10.11a3.894 3.894 0 1 0-.047 7.788 3.894 3.894 0 0 0 .047-7.787zM358.236 32.207h-7.623a2.347 2.347 0 0 1-2.346-2.345v-7.623a2.345 2.345 0 0 1 2.346-2.346h7.623a2.344 2.344 0 0 1 2.345 2.346v7.623a2.345 2.345 0 0 1-2.345 2.345zm-7.623-10.11v7.694h7.693v-7.623l-7.693-.07z" fill="#000"/><path d="M377.493 32.207h-7.647a2.345 2.345 0 0 1-2.345-2.345v-7.623a2.345 2.345 0 0 1 2.345-2.346h7.647a2.344 2.344 0 0 1 2.345 2.346v7.623a2.345 2.345 0 0 1-2.345 2.345zm-7.647-10.11v7.694h7.717v-7.623l-7.717-.07zM373.67 12.998a6.241 6.241 0 0 1-6.021-7.48 6.24 6.24 0 1 1 11.897 3.585 6.25 6.25 0 0 1-3.438 3.438 6.236 6.236 0 0 1-2.438.457zm0-10.11a3.896 3.896 0 0 0-4.196 3.882 3.893 3.893 0 1 0 4.196-3.882zM355.609 1.598h-2.346v10.109h2.346V1.597z" fill="#000"/><path d="M359.479 5.492H349.37v2.345h10.109V5.492zM336.07 20.926h-2.345v10.11h2.345v-10.11z" fill="#000"/><path d="M339.964 24.796h-10.109v2.345h10.109v-2.345zM397.383 32.207h-7.553a2.344 2.344 0 0 1-2.462-2.345v-7.576a2.348 2.348 0 0 1 2.462-2.345h7.553a2.347 2.347 0 0 1 2.346 2.345v7.576a2.35 2.35 0 0 1-2.346 2.345zm-7.553-10.109l-.117 7.67h7.67v-7.576l-7.553-.094zM414.013 20.926h-2.346v10.11h2.346v-10.11z" fill="#000"/><path d="M417.907 24.796h-10.11v2.345h10.11v-2.345z" fill="#000"/></svg>