<svg width="89" height="71" viewBox="0 0 89 71" fill="none" xmlns="http://www.w3.org/2000/svg"><path d="M82.631 70.29a6.021 6.021 0 0 0 3.39-1.047 6.193 6.193 0 0 0 2.247-2.79 6.324 6.324 0 0 0 .347-3.59 6.253 6.253 0 0 0-1.67-3.183 6.067 6.067 0 0 0-3.123-1.701 5.997 5.997 0 0 0-3.526.353 6.127 6.127 0 0 0-2.738 2.29 6.3 6.3 0 0 0-1.028 3.453c0 1.648.643 3.23 1.787 4.395a6.045 6.045 0 0 0 4.314 1.82zm0-10.085a3.75 3.75 0 0 1 2.11.652 3.856 3.856 0 0 1 1.4 1.737c.287.707.363 1.485.216 2.236a3.893 3.893 0 0 1-1.04 1.981 3.777 3.777 0 0 1-1.945 1.06c-.737.149-1.5.072-2.195-.22a3.816 3.816 0 0 1-1.705-1.426 3.922 3.922 0 0 1-.64-2.15 3.934 3.934 0 0 1 .263-1.51 3.88 3.88 0 0 1 .817-1.288c.354-.369.777-.663 1.244-.863.467-.2.968-.303 1.475-.303v.094z" fill="#000"/><path d="M78.878 70.29h7.483c.61 0 1.196-.246 1.628-.686.432-.44.674-1.037.674-1.659V60.3c0-.622-.242-1.219-.674-1.659a2.281 2.281 0 0 0-1.628-.687h-7.506c-.61 0-1.196.247-1.628.687a2.368 2.368 0 0 0-.674 1.659v7.646a2.383 2.383 0 0 0 .683 1.667 2.265 2.265 0 0 0 1.643.679zm7.506-10.085v7.693h-7.552v-7.646l7.552-.047z" fill="#000"/><path d="M25.004 50.893a6.044 6.044 0 0 0 3.408-1.04 6.216 6.216 0 0 0 2.266-2.796 6.348 6.348 0 0 0 .358-3.606 6.277 6.277 0 0 0-1.67-3.201 6.091 6.091 0 0 0-3.136-1.714 6.02 6.02 0 0 0-3.542.351 6.15 6.15 0 0 0-2.752 2.298 6.324 6.324 0 0 0-1.034 3.468 6.322 6.322 0 0 0 1.793 4.397 6.091 6.091 0 0 0 4.309 1.843zm0-10.11c.757-.004 1.5.22 2.132.647a3.878 3.878 0 0 1 1.417 1.746c.292.712.37 1.497.223 2.255a3.916 3.916 0 0 1-1.047 1.999 3.8 3.8 0 0 1-1.962 1.067c-.744.15-1.514.07-2.214-.227-.699-.298-1.296-.8-1.714-1.445a3.946 3.946 0 0 1-.634-2.172 3.93 3.93 0 0 1 1.12-2.73 3.787 3.787 0 0 1 2.679-1.14z" fill="#150035"/><path d="M21.25 50.893h7.552c.611 0 1.197-.247 1.628-.687.432-.44.675-1.037.675-1.659v-7.623c0-.622-.243-1.219-.675-1.658a2.281 2.281 0 0 0-1.628-.687h-7.505c-.61 0-1.197.247-1.628.687a2.368 2.368 0 0 0-.675 1.658v7.623c0 .614.236 1.204.658 1.642.422.439.996.691 1.599.704zm7.552-10.11v7.694h-7.574v-7.623l7.574-.07z" fill="#150035"/><path d="M59.355 70.29h7.413a2.28 2.28 0 0 0 1.628-.687c.432-.44.674-1.036.674-1.658v-7.74c0-.622-.242-1.219-.674-1.659a2.28 2.28 0 0 0-1.628-.687h-7.413c-.611 0-1.197.247-1.629.687a2.368 2.368 0 0 0-.674 1.659v7.552a2.385 2.385 0 0 0 .606 1.782 2.266 2.266 0 0 0 1.697.752zm7.413-10.085v7.646h-7.506v-7.646h7.506zM44.182 50.893a6.044 6.044 0 0 0 3.402-1.052 6.216 6.216 0 0 0 2.256-2.8 6.349 6.349 0 0 0 .348-3.605 6.276 6.276 0 0 0-1.676-3.194 6.09 6.09 0 0 0-3.135-1.708 6.02 6.02 0 0 0-3.539.355 6.152 6.152 0 0 0-2.748 2.298 6.323 6.323 0 0 0-1.032 3.467c0 1.654.645 3.241 1.793 4.411a6.068 6.068 0 0 0 4.33 1.828zm0-10.11c.757 0 1.497.23 2.126.658a3.88 3.88 0 0 1 1.407 1.751c.289.713.363 1.497.214 2.253a3.917 3.917 0 0 1-1.053 1.993 3.8 3.8 0 0 1-1.963 1.06 3.757 3.757 0 0 1-2.21-.23 3.839 3.839 0 0 1-1.71-1.445 3.946 3.946 0 0 1-.633-2.17c0-.51.099-1.015.291-1.486.193-.471.475-.899.83-1.259.355-.36.776-.644 1.24-.837.464-.193.96-.29 1.46-.288zM6.124 50.893a6.044 6.044 0 0 0 3.403-1.052 6.216 6.216 0 0 0 2.255-2.8 6.349 6.349 0 0 0 .349-3.605 6.276 6.276 0 0 0-1.676-3.194 6.09 6.09 0 0 0-3.136-1.708 6.02 6.02 0 0 0-3.538.355 6.151 6.151 0 0 0-2.749 2.298A6.323 6.323 0 0 0 0 44.654a6.3 6.3 0 0 0 1.794 4.411 6.068 6.068 0 0 0 4.33 1.828zm0-10.11c.757 0 1.497.23 2.126.658a3.879 3.879 0 0 1 1.407 1.751c.289.713.363 1.497.214 2.253a3.916 3.916 0 0 1-1.053 1.993 3.8 3.8 0 0 1-1.962 1.06 3.757 3.757 0 0 1-2.21-.23 3.84 3.84 0 0 1-1.71-1.445 3.947 3.947 0 0 1-.634-2.17c0-.51.1-1.015.292-1.486.192-.471.474-.899.83-1.259.354-.36.776-.644 1.24-.837.463-.193.96-.29 1.46-.288z" fill="#000"/><path d="M21.25 70.29h7.552c.611 0 1.197-.246 1.628-.686.432-.44.675-1.037.675-1.659V60.3c0-.622-.243-1.219-.675-1.659a2.281 2.281 0 0 0-1.628-.687h-7.505c-.61 0-1.197.247-1.628.687a2.368 2.368 0 0 0-.675 1.659v7.646c0 .614.236 1.204.658 1.642.422.439.996.691 1.599.704zm7.506-10.085v7.693h-7.574v-7.646l7.574-.047zM4.973 58.938h2.302v10.11H4.973v-10.11z" fill="#150035"/><path d="M1.151 62.808h9.923v2.346H1.151v-2.346zM21.25 32.597h7.552a2.28 2.28 0 0 0 1.628-.687c.432-.44.675-1.036.675-1.658v-7.623c0-.622-.243-1.219-.675-1.659a2.281 2.281 0 0 0-1.628-.687h-7.505c-.61 0-1.197.247-1.628.687a2.368 2.368 0 0 0-.675 1.659v7.623c0 .614.236 1.203.658 1.642.422.439.996.691 1.599.703zm7.552-10.109v7.693h-7.574v-7.623l7.574-.07zM6.124 13.27a6.022 6.022 0 0 0 3.384-1.059 6.193 6.193 0 0 0 2.237-2.794 6.323 6.323 0 0 0 .337-3.59 6.252 6.252 0 0 0-1.675-3.176A6.067 6.067 0 0 0 7.283.956a5.997 5.997 0 0 0-3.522.358 6.128 6.128 0 0 0-2.734 2.29 6.317 6.317 0 0 0-.56 5.835c.308.755.76 1.441 1.328 2.019a6.094 6.094 0 0 0 1.987 1.346c.743.31 1.54.47 2.342.466zm0-10.086a3.75 3.75 0 0 1 2.104.664 3.857 3.857 0 0 1 1.39 1.741c.283.708.355 1.485.206 2.235A3.892 3.892 0 0 1 8.78 9.799a3.777 3.777 0 0 1-1.945 1.053 3.734 3.734 0 0 1-2.192-.225 3.815 3.815 0 0 1-1.701-1.425 3.922 3.922 0 0 1-.347-3.634c.192-.471.474-.899.83-1.259.354-.36.776-.644 1.24-.837.463-.193.96-.29 1.46-.288z" fill="#150035"/><path d="M43.03 21.315h2.303v10.11h-2.302v-10.11z" fill="#000"/><path d="M39.209 25.21h9.923v2.345H39.21v-2.346z" fill="#000"/><path d="M4.973 21.315h2.302v10.11H4.973v-10.11z" fill="#150035"/><path d="M1.151 25.21h9.923v2.345H1.151v-2.346z" fill="#150035"/></svg>