<svg width="180" height="36" viewBox="0 0 180 36" fill="none" xmlns="http://www.w3.org/2000/svg"><g clip-path="url(#a)" fill-rule="evenodd" clip-rule="evenodd"><path d="M66.079 21.442a4.449 4.449 0 0 1 3.213 1.277 4.44 4.44 0 0 1 1.311 3.146 4.426 4.426 0 0 1-1.31 3.145 4.446 4.446 0 0 1-3.214 1.262h-5.484V15.726h8.76v1.832h-6.82v3.88l3.544.005zm0 7.025a2.595 2.595 0 0 0 1.86-.761 2.576 2.576 0 0 0 .75-1.859 2.472 2.472 0 0 0-.78-1.847 2.52 2.52 0 0 0-1.846-.749H62.52v5.216h3.56zm13.165-8.585h1.948L76.927 30.92a5.903 5.903 0 0 1-1.878 2.693 3.94 3.94 0 0 1-2.754.82v-1.681c1.283.098 2.222-.595 2.816-2.08l.168-.389-4.526-10.4h1.92l3.568 8.15 3.003-8.15zm12.515 10.39h-2.127l-2.921-3.928-2.941 3.928h-2.127l4.004-5.34-3.774-5.046h2.146l2.692 3.617 2.691-3.617h2.13l-3.754 5.046 3.98 5.34zm8.534-10.393v1.746h-5.029v8.647H93.45v-10.39l6.844-.004zm9.803 0h1.815v10.393h-1.815v-1.785c-.416.658-1 1.196-1.692 1.557a4.445 4.445 0 0 1-2.249.5 5.025 5.025 0 0 1-3.736-1.592 5.648 5.648 0 0 1 0-7.762 5.011 5.011 0 0 1 3.736-1.587 4.447 4.447 0 0 1 2.249.5 4.419 4.419 0 0 1 1.692 1.557v-1.782zm-3.712 8.926a3.59 3.59 0 0 0 2.649-1.071 3.836 3.836 0 0 0 0-5.302 3.793 3.793 0 0 0-5.278 0 3.84 3.84 0 0 0 0 5.302 3.553 3.553 0 0 0 2.629 1.07zm16.979-8.927v10.394h-1.815v-8.643h-4.11v4.242c0 1.705-.344 2.892-1.032 3.563-.689.67-1.659.954-2.909.842v-1.704a1.679 1.679 0 0 0 1.597-.466c.354-.411.529-1.164.529-2.278v-5.946l7.74-.004zm10.516 0v1.747h-3.544v8.647h-1.8v-8.643h-3.567v-1.747l8.911-.004zm2.446 6.035a3.43 3.43 0 0 0 1.282 2.162c.72.53 1.598.803 2.493.776 1.378 0 2.379-.508 3.007-1.517l1.558.873c-1.018 1.552-2.548 2.329-4.589 2.329a5.472 5.472 0 0 1-4.039-1.553 5.303 5.303 0 0 1-1.558-3.92 5.396 5.396 0 0 1 1.523-3.908 5.271 5.271 0 0 1 3.942-1.552 4.815 4.815 0 0 1 3.747 1.61 5.595 5.595 0 0 1 1.449 3.881c0 .272-.021.543-.063.812l-8.752.007zm3.607-4.595a3.468 3.468 0 0 0-2.398.802 3.443 3.443 0 0 0-1.209 2.214h6.969a3.488 3.488 0 0 0-1.169-2.247 3.356 3.356 0 0 0-2.193-.776v.007zm13.041-1.703a5.01 5.01 0 0 1 3.731 1.587 5.635 5.635 0 0 1 0 7.762 5.01 5.01 0 0 1-3.731 1.591 4.45 4.45 0 0 1-2.251-.5 4.426 4.426 0 0 1-1.695-1.557v5.934h-1.811v-14.55h1.811v1.79a4.45 4.45 0 0 1 3.946-2.057zm-.23 9.186a3.563 3.563 0 0 0 2.629-1.071 3.841 3.841 0 0 0 1.063-2.651c0-.987-.381-1.936-1.063-2.65a3.793 3.793 0 0 0-5.278 0 3.827 3.827 0 0 0 0 5.3 3.583 3.583 0 0 0 2.649 1.072zm15.249-8.926h1.441v10.397h-1.796v-7.293l-5.764 7.293h-1.461v-10.39h1.792v7.285l5.78-7.296.008.004zm12.016 0v10.397h-1.796v-3.738h-1.523l-2.929 3.738h-2.208l3.042-3.846a3.535 3.535 0 0 1-1.897-1.165 3.093 3.093 0 0 1-.728-2.037 3.13 3.13 0 0 1 1.02-2.39 3.618 3.618 0 0 1 2.567-.96h4.452zm-4.382 5.045h2.586v-3.353h-2.586a1.953 1.953 0 0 0-1.313.458 1.526 1.526 0 0 0-.545 1.226 1.513 1.513 0 0 0 .545 1.207c.365.305.829.467 1.305.454l.008.008z" fill="#080200"/><path d="M3.034 10.3h50.787v22.688c0 .802-.32 1.571-.889 2.138a3.04 3.04 0 0 1-2.145.886H3.034a3.04 3.04 0 0 1-2.145-.886A3.018 3.018 0 0 1 0 32.988V13.323c0-.802.32-1.57.889-2.138a3.04 3.04 0 0 1 2.145-.885z" fill="#FBBA00"/><path d="M60.131 7.56c1.02-1.35 1.511-3.679.717-7.56-10.026 1.552-7.876 6.95-6.918 8.64a34.566 34.566 0 0 1 5.188-6.257 38.084 38.084 0 0 0-3.45 6.097c1.35-1.552 2.936-1.634 4.463-.92zm3.155 3.167c-4.394 4.937-6.75 2.204-7.626.722a11.723 11.723 0 0 1 4.237-.582 13.08 13.08 0 0 0-4.483-.563c.534-1.277 2.73-5.045 7.872.423z" fill="#85BC22"/><path d="M30.677 15.943h1.32v1.316h-1.32v-1.316zm-18.91 8.243l3.28-8.243h2.18l-5.04 11.833c-.74 1.735-1.71 2.503-3.505 2.573a7.335 7.335 0 0 1-2.726-.48V28.21c1.702.497 1.924.555 2.531.543.83 0 1.531-.442 2.337-2.297L5.967 15.943h2.107l3.693 8.243zm14.299 6.163h-1.82v-3.83c-.8.21-1.623.315-2.45.314-2.55 0-4.066-1.312-4.09-3.904v-3.136h1.812v3.21c0 1.575.779 2.262 2.279 2.262a9.594 9.594 0 0 0 2.45-.314v-5.158h1.819V30.35zm7.244 0c-3.396 0-5.04-2.22-5.04-5.313 0-2.716 1.757-5.235 4.807-5.235 3.801 0 4.522 2.767 4.522 5.775h-7.654a3.273 3.273 0 0 0 1.006 2.375 3.299 3.299 0 0 0 2.418.92 3.61 3.61 0 0 0 2.94-1.316l1.169.827c-.935 1.311-2.324 1.967-4.168 1.967zm-.233-9.124c-1.773 0-2.867 1.386-3.07 2.926h5.917c0-1.58-1.071-2.926-2.847-2.926zm14.773.035h-3.552v9.09h-1.811v-9.09H38.98v-1.467h8.85v1.46l.02.007zm-13.963-5.305h1.32v1.315h-1.32v-1.315z" fill="#fff"/></g><defs><clipPath id="a"><path fill="#fff" d="M0 0h180v36H0z"/></clipPath></defs></svg>