<svg width="459" height="32" viewBox="0 0 459 32" fill="none" xmlns="http://www.w3.org/2000/svg"><path d="M6.497 31.782a6.216 6.216 0 1 1 6.216-6.215 6.24 6.24 0 0 1-6.216 6.215zm0-10.086a3.87 3.87 0 1 0 3.87 3.87 3.894 3.894 0 0 0-3.87-3.87zM25.825 12.478A6.239 6.239 0 1 1 25.778 0a6.239 6.239 0 0 1 .047 12.478zm0-10.109a3.894 3.894 0 1 0 3.87 3.87 3.87 3.87 0 0 0-3.87-3.87zM64.503 31.782a6.216 6.216 0 1 1 6.215-6.215 6.24 6.24 0 0 1-6.215 6.215zm0-10.086a3.87 3.87 0 1 0 3.87 3.87 3.893 3.893 0 0 0-3.87-3.87z" fill="#150035"/><path d="M68.326 31.782h-7.647a2.345 2.345 0 0 1-2.345-2.345v-7.694a2.346 2.346 0 0 1 2.345-2.345h7.647a2.346 2.346 0 0 1 2.346 2.345v7.647a2.348 2.348 0 0 1-2.346 2.392zm-7.647-10.086v7.694h7.717v-7.647l-7.717-.047z" fill="#150035"/><path d="M123.212 12.478a6.24 6.24 0 1 1-.047-12.48 6.24 6.24 0 0 1 .047 12.48zm0-10.109a3.894 3.894 0 1 0-.046 7.788 3.894 3.894 0 0 0 .046-7.788z" fill="#000"/><path d="M127.035 12.478h-7.646a2.345 2.345 0 0 1-2.346-2.345V2.369a2.345 2.345 0 0 1 2.346-2.346h7.646a2.347 2.347 0 0 1 2.346 2.346v7.693a2.347 2.347 0 0 1-2.346 2.416zM119.389 2.37v7.693h7.716V2.37h-7.716z" fill="#000"/><path d="M64.503 12.478a6.24 6.24 0 1 1 6.215-6.239 6.262 6.262 0 0 1-6.215 6.24zm0-10.109a3.893 3.893 0 1 0-.047 7.786 3.893 3.893 0 0 0 .047-7.786zM46.442 1.196h-2.346v10.11h2.346V1.196z" fill="#150035"/><path d="M50.312 5.066h-10.11v2.346h10.11V5.066zM26.903 20.523h-2.345v10.11h2.345v-10.11z" fill="#150035"/><path d="M30.797 24.394h-10.11v2.345h10.11v-2.345zM88.216 31.782h-7.552a2.346 2.346 0 0 1-2.346-2.345V21.79a2.346 2.346 0 0 1 2.346-2.345h7.552a2.346 2.346 0 0 1 2.346 2.345v7.553a2.346 2.346 0 0 1-2.346 2.44zm-7.552-10.085v7.646h7.646V21.79l-7.647-.093zM10.274 12.478H2.697a2.345 2.345 0 0 1-2.345-2.345V2.369A2.346 2.346 0 0 1 2.697.023h7.577a2.345 2.345 0 0 1 2.345 2.346v7.67a2.345 2.345 0 0 1-2.345 2.44zM2.697 2.37v7.67h7.67v-7.67h-7.67z" fill="#150035"/><path d="M127.035 31.782h-7.646a2.345 2.345 0 0 1-2.346-2.345v-7.694a2.345 2.345 0 0 1 2.346-2.345h7.646a2.347 2.347 0 0 1 2.346 2.345v7.647a2.352 2.352 0 0 1-.671 1.689 2.345 2.345 0 0 1-1.675.703zm-7.646-10.086v7.694h7.716v-7.647l-7.716-.047zM142.445 12.478a6.237 6.237 0 0 1-6.145-7.442 6.236 6.236 0 0 1 4.896-4.914 6.239 6.239 0 1 1 1.249 12.356zm0-10.109a3.894 3.894 0 1 0 3.87 3.87 3.869 3.869 0 0 0-3.87-3.87z" fill="#000"/><path d="M85.613 1.196h-2.346v10.11h2.346V1.196z" fill="#150035"/><path d="M89.506 5.066h-10.11v2.346h10.11V5.066z" fill="#150035"/><path d="M104.846 20.523h-2.345v10.11h2.345v-10.11z" fill="#000"/><path d="M108.74 24.394H98.63v2.345h10.11v-2.345zM143.618 20.523h-2.346v10.11h2.346v-10.11z" fill="#000"/><path d="M147.512 24.394h-10.11v2.345h10.11v-2.345zM161.21 31.782a6.218 6.218 0 0 1-5.743-3.837 6.213 6.213 0 0 1 4.53-8.475 6.213 6.213 0 0 1 7.428 6.097 6.24 6.24 0 0 1-6.215 6.215zm0-10.086a3.868 3.868 0 0 0-3.796 4.626 3.87 3.87 0 1 0 3.796-4.626zM180.443 12.478a6.237 6.237 0 0 1-5.781-3.835 6.236 6.236 0 0 1 4.532-8.521 6.24 6.24 0 1 1 1.249 12.356zm0-10.109a3.894 3.894 0 1 0 3.87 3.87 3.879 3.879 0 0 0-1.133-2.736 3.874 3.874 0 0 0-2.737-1.134zM219.215 31.782a6.215 6.215 0 1 1 6.216-6.215 6.236 6.236 0 0 1-6.216 6.215zm0-10.086a3.87 3.87 0 1 0 0 7.74 3.87 3.87 0 0 0 0-7.74z" fill="#000"/><path d="M223.015 31.782h-7.623a2.347 2.347 0 0 1-2.346-2.345v-7.694a2.35 2.35 0 0 1 2.346-2.345h7.623a2.347 2.347 0 0 1 2.346 2.345v7.647a2.352 2.352 0 0 1-.671 1.689 2.345 2.345 0 0 1-1.675.703zm-7.623-10.086v7.694h7.693v-7.647l-7.693-.047zM277.924 12.478a6.237 6.237 0 0 1-6.145-7.442 6.236 6.236 0 0 1 4.896-4.914 6.239 6.239 0 1 1 1.249 12.356zm0-10.109a3.894 3.894 0 1 0 3.87 3.87 3.869 3.869 0 0 0-3.87-3.87z" fill="#000"/><path d="M281.724 12.478h-7.623a2.347 2.347 0 0 1-2.346-2.345V2.369a2.345 2.345 0 0 1 2.346-2.346h7.623a2.347 2.347 0 0 1 2.346 2.346v7.693a2.347 2.347 0 0 1-2.346 2.416zM274.101 2.37v7.693h7.693V2.37h-7.693zM165.009 12.478h-7.623a2.345 2.345 0 0 1-2.345-2.345V2.369a2.345 2.345 0 0 1 2.345-2.346h7.623a2.345 2.345 0 0 1 2.346 2.346v7.693a2.347 2.347 0 0 1-2.346 2.416zM157.386 2.37v7.693h7.694V2.37h-7.694zM219.215 12.478a6.242 6.242 0 0 1-5.781-3.835 6.236 6.236 0 0 1 4.532-8.521 6.24 6.24 0 1 1 1.249 12.356zm0-10.109a3.894 3.894 0 1 0 3.87 3.87 3.869 3.869 0 0 0-3.87-3.87zM201.131 1.196h-2.346v10.11h2.346V1.196z" fill="#000"/><path d="M205.025 5.066h-10.11v2.346h10.11V5.066zM181.616 20.523h-2.346v10.11h2.346v-10.11z" fill="#000"/><path d="M185.486 24.394h-10.109v2.345h10.109v-2.345zM242.929 31.782h-7.576a2.345 2.345 0 0 1-2.346-2.345V21.79a2.345 2.345 0 0 1 2.346-2.345h7.576a2.345 2.345 0 0 1 2.345 2.345v7.553a2.343 2.343 0 0 1-2.345 2.44zm-7.576-10.085v7.646h7.669V21.79l-7.669-.093zM258.386 12.478a6.24 6.24 0 1 1-.047-12.48 6.24 6.24 0 0 1 .047 12.48zm0-10.109a3.894 3.894 0 1 0-.046 7.788 3.894 3.894 0 0 0 .046-7.788zM281.724 31.782h-7.623a2.347 2.347 0 0 1-2.346-2.345v-7.694a2.345 2.345 0 0 1 2.346-2.345h7.623a2.347 2.347 0 0 1 2.346 2.345v7.647a2.352 2.352 0 0 1-.671 1.689 2.345 2.345 0 0 1-1.675.703zm-7.623-10.086v7.694h7.693v-7.647l-7.693-.047zM297.158 12.478a6.24 6.24 0 1 1-.047-12.48 6.24 6.24 0 0 1 .047 12.48zm0-10.109a3.894 3.894 0 1 0 3.87 3.87 3.87 3.87 0 0 0-3.87-3.87zM240.325 1.196h-2.346v10.11h2.346V1.196z" fill="#000"/><path d="M244.195 5.066h-10.109v2.346h10.109V5.066zM259.559 20.523h-2.346v10.11h2.346v-10.11z" fill="#000"/><path d="M263.429 24.394h-10.11v2.345h10.11v-2.345zM298.331 20.523h-2.346v10.11h2.346v-10.11z" fill="#000"/><path d="M302.201 24.394h-10.11v2.345h10.11v-2.345zM315.899 31.782a6.214 6.214 0 0 1-6.07-7.442 6.213 6.213 0 0 1 8.477-4.514 6.218 6.218 0 0 1 3.356 8.125 6.197 6.197 0 0 1-3.378 3.365 6.209 6.209 0 0 1-2.385.466zm0-10.086a3.87 3.87 0 1 0 .046 7.738 3.87 3.87 0 0 0-.046-7.738zM373.904 31.782a6.217 6.217 0 1 1 .047-12.433 6.217 6.217 0 0 1-.047 12.433zm0-10.086a3.874 3.874 0 0 0-3.559 2.406 3.873 3.873 0 0 0 2.836 5.262 3.87 3.87 0 1 0 .723-7.668z" fill="#000"/><path d="M377.657 31.782h-7.646a2.347 2.347 0 0 1-2.346-2.345v-7.694a2.345 2.345 0 0 1 2.346-2.345h7.646a2.347 2.347 0 0 1 2.346 2.345v7.647a2.352 2.352 0 0 1-.671 1.689 2.345 2.345 0 0 1-1.675.703zm-7.646-10.086v7.694h7.693v-7.647l-7.693-.047zM432.613 12.478A6.238 6.238 0 0 1 431.396.12a6.24 6.24 0 1 1 1.217 12.358zm0-10.109a3.89 3.89 0 0 0-3.599 2.41 3.895 3.895 0 0 0 5.106 5.074 3.893 3.893 0 0 0 2.387-3.614 3.87 3.87 0 0 0-3.894-3.87z" fill="#000"/><path d="M436.436 12.478h-7.646a2.347 2.347 0 0 1-2.346-2.345V2.369A2.35 2.35 0 0 1 428.79.023h7.646a2.345 2.345 0 0 1 2.346 2.346v7.693a2.347 2.347 0 0 1-2.346 2.416zM428.79 2.37v7.693h7.693V2.37h-7.693zM373.904 12.478A6.238 6.238 0 0 1 372.687.12a6.24 6.24 0 1 1 1.217 12.358zm0-10.109a3.89 3.89 0 0 0-3.599 2.41 3.895 3.895 0 0 0 5.106 5.074 3.893 3.893 0 0 0 2.387-3.614 3.87 3.87 0 0 0-3.894-3.87zM355.843 1.196h-2.345v10.11h2.345V1.196z" fill="#000"/><path d="M359.737 5.066h-10.109v2.346h10.109V5.066zM336.305 20.523h-2.346v10.11h2.346v-10.11z" fill="#000"/><path d="M340.199 24.394h-10.11v2.345h10.11v-2.345zM397.641 31.782h-7.576a2.347 2.347 0 0 1-2.346-2.345V21.79a2.345 2.345 0 0 1 2.346-2.345h7.576a2.347 2.347 0 0 1 2.346 2.345v7.553a2.361 2.361 0 0 1-.653 1.72 2.345 2.345 0 0 1-1.693.72zm-7.576-10.085v7.646h7.67V21.79l-7.67-.093zM413.075 12.478A6.238 6.238 0 0 1 411.858.12a6.237 6.237 0 0 1 6.405 2.653 6.243 6.243 0 0 1-.776 7.878 6.239 6.239 0 0 1-4.412 1.827zm0-10.109a3.896 3.896 0 0 0-3.817 4.662 3.891 3.891 0 0 0 5.323 2.822 3.895 3.895 0 0 0 2.387-3.614 3.869 3.869 0 0 0-3.893-3.87zM451.847 12.478a6.241 6.241 0 0 1-6.12-7.456 6.239 6.239 0 1 1 6.12 7.456zm0-10.109a3.896 3.896 0 0 0-3.817 4.662 3.891 3.891 0 0 0 5.323 2.822 3.895 3.895 0 0 0 2.387-3.614 3.87 3.87 0 0 0-3.893-3.87zM395.014 1.196h-2.346v10.11h2.346V1.196z" fill="#000"/><path d="M398.908 5.066h-10.11v2.346h10.11V5.066zM414.248 20.523h-2.346v10.11h2.346v-10.11z" fill="#000"/><path d="M418.141 24.394h-10.109v2.345h10.109v-2.345z" fill="#000"/></svg>