<svg width="69" height="120" viewBox="0 0 69 120" fill="none" xmlns="http://www.w3.org/2000/svg"><g clip-path="url(#a)"><path d="M57.762 28.142L11.605 1.535C10.346.82 9.56.645 8.739 1.17l-.35.157-4.894 3.07.56 2.932 2.656 5.234v60.21a11.673 11.673 0 0 0 4.894 9.316l41.333 23.832 3.269 6.002 4.596-2.879.402-.261a4.576 4.576 0 0 0 1.45-3.786V37.459a11.675 11.675 0 0 0-4.893-9.317z" fill="#FFBE2E"/><path d="M57.815 30.323L11.657 3.716c-1.17-.715-2.045-.89-2.918-.366l-.35.14-4.894 3.088.595 2.93 2.656 5.235v60.279a11.639 11.639 0 0 0 4.894 9.317l41.35 23.832 3.706 1.396 2.919.576 1.188-1.745c.892-.663 1.888.663 1.888-1.152V39.64a11.657 11.657 0 0 0-4.877-9.317z" fill="#FEC"/><path d="M55.927 113.109l-3.583-6.578-41.159-23.71a12.37 12.37 0 0 1-5.243-10.05V12.824l-2.726-5.34-.7-3.489L8.337.401a3.343 3.343 0 0 1 3.688.402l46.157 26.606a12.37 12.37 0 0 1 5.243 10.05v67.537a5.346 5.346 0 0 1-1.747 4.466l-5.75 3.647zM4.859 6.979l2.709 5.443v60.35a10.924 10.924 0 0 0 4.456 8.583l41.561 23.937 2.936 5.426 4.23-2.652a3.885 3.885 0 0 0 1.048-3.07V37.459a10.925 10.925 0 0 0-4.456-8.584L11.185 2.268c-1.276-.733-1.747-.61-2.045-.366l-.402.21-4.316 2.686.437 2.18z" fill="#16110D"/><path d="M52.694 111.87L6.536 85.28a11.691 11.691 0 0 1-4.894-9.334V8.41c0-3.594 2.185-5.234 4.894-3.68l46.158 26.675a11.657 11.657 0 0 1 4.876 9.317v67.45c0 3.612-2.185 5.234-4.876 3.699z" fill="#FFBE2E"/><path d="M54.634 113.405a4.984 4.984 0 0 1-2.377-.698L6.1 86.013a12.499 12.499 0 0 1-3.833-4.404 12.474 12.474 0 0 1-1.41-5.662V8.409A5.121 5.121 0 0 1 2.9 3.734a3.99 3.99 0 0 1 4.09.261l46.122 26.607a12.424 12.424 0 0 1 5.243 10.05v67.519a5.122 5.122 0 0 1-2.114 4.676 3.359 3.359 0 0 1-1.608.558zM4.596 4.99c-.297 0-.588.085-.838.244a3.594 3.594 0 0 0-1.259 3.21v67.503a10.854 10.854 0 0 0 4.492 8.584l46.122 26.606a2.381 2.381 0 0 0 2.342.262 3.486 3.486 0 0 0 1.276-3.228v-67.52a10.888 10.888 0 0 0-4.474-8.584L6.1 5.462a3.115 3.115 0 0 0-1.504-.471z" fill="#16110D"/><path d="M52.711 109.48L9.91 84.81a6.6 6.6 0 0 1-2.762-5.234V19.192c0-2.024 1.224-2.966 2.762-2.076L52.71 41.75a6.547 6.547 0 0 1 2.762 5.234v60.366c0 2.076-1.294 3.001-2.762 2.129z" fill="#FEC"/><path d="M52.117 107.316a2.782 2.782 0 0 1-1.416-.401L7.882 82.227a7.176 7.176 0 0 1-3.076-5.81V16.035a3.03 3.03 0 0 1 1.276-2.774 2.433 2.433 0 0 1 2.447.14L51.33 38.086a7.175 7.175 0 0 1 3.076 5.81v60.383a3.03 3.03 0 0 1-1.275 2.774c-.31.174-.66.264-1.014.262zm-.787-1.518a1.217 1.217 0 0 0 1.171.157 1.885 1.885 0 0 0 .63-1.744V43.897a5.994 5.994 0 0 0-2.447-4.711L7.882 14.498a1.277 1.277 0 0 0-1.17-.14 1.884 1.884 0 0 0-.63 1.746v60.314a5.976 5.976 0 0 0 2.447 4.71l42.801 24.67z" fill="#16110D"/><path d="M15.572 45.048l-4.649-9.16c-.63-1.273-.524-2.53.262-2.826.77-.28 1.923.506 2.552 1.745l2.447 4.815 5.348-4.501c.629-.541 1.747 0 2.569 1.169.769 1.186.891 2.582.262 3.105l-7.533 6.368c-.332.28-.926-.07-1.258-.715z" fill="#FFBE2E"/><path d="M15.922 44.577h-.193a2.045 2.045 0 0 1-1.328-1.134l-4.684-9.177a3.486 3.486 0 0 1-.314-2.757 1.518 1.518 0 0 1 .909-.942c1.118-.419 2.551.471 3.373 2.059l2.044 4.1 4.737-3.978a1.556 1.556 0 0 1 1.275-.35 3.604 3.604 0 0 1 2.238 1.641 3.12 3.12 0 0 1 .14 3.96l-7.516 6.334a.962.962 0 0 1-.681.244zm-5.034-12.841h-.122a.263.263 0 0 0-.175.21 2.265 2.265 0 0 0 .28 1.744l4.631 9.16c.081.175.208.326.367.436l7.445-6.264c.298-.244.28-1.256-.384-2.268a2.359 2.359 0 0 0-1.346-1.099h-.28l-5.96 5.077-2.813-5.583a2.407 2.407 0 0 0-1.643-1.413z" fill="#16110D"/><path d="M16.219 63.803l-4.65-9.16c-.646-1.255-.524-2.529.245-2.808.77-.297 1.923.488 2.57 1.745l2.429 4.797 5.348-4.5c.647-.524 1.748 0 2.57 1.168.786 1.186.908 2.582.261 3.123l-7.515 6.386c-.332.244-.944-.105-1.258-.75z" fill="#FFBE2E"/><path d="M16.568 63.28h-.244a2.062 2.062 0 0 1-1.311-1.134l-4.649-9.195a3.484 3.484 0 0 1-.332-2.756 1.553 1.553 0 0 1 .926-.942c1.101-.402 2.552.47 3.356 2.076l2.08 4.082 4.719-3.977a1.59 1.59 0 0 1 1.275-.35 3.497 3.497 0 0 1 2.237 1.658 3.068 3.068 0 0 1 .14 3.943l-7.532 6.35a.997.997 0 0 1-.665.245zm-.42-1.745c.082.176.209.327.368.437l7.428-6.264c.297-.244.297-1.256-.385-2.268a2.182 2.182 0 0 0-1.346-1.082h-.28l-5.959 5.077-2.796-5.53c-.56-1.1-1.416-1.588-1.748-1.466a.436.436 0 0 0-.175.227 2.231 2.231 0 0 0 .28 1.745l4.614 9.124z" fill="#16110D"/><path d="M15.572 79.453l-4.649-9.16c-.63-1.273-.524-2.529.262-2.826.77-.279 1.923.506 2.552 1.745l2.447 4.798 5.348-4.501c.629-.541 1.747 0 2.569 1.169.769 1.186.891 2.582.262 3.105l-7.533 6.473c-.332.192-.926-.157-1.258-.803z" fill="#FFBE2E"/><path d="M15.922 78.93h-.245a2.064 2.064 0 0 1-1.31-1.134L9.716 68.6a3.485 3.485 0 0 1-.314-2.756 1.57 1.57 0 0 1 .909-.942c1.118-.42 2.551.47 3.373 2.076l2.044 4.082 4.737-3.978a1.556 1.556 0 0 1 1.275-.348 3.498 3.498 0 0 1 2.238 1.744 3.085 3.085 0 0 1 .14 3.943l-7.516 6.264a1.05 1.05 0 0 1-.681.244zm-5.034-12.858h-.122a.314.314 0 0 0-.175.209 2.265 2.265 0 0 0 .28 1.745l4.631 9.16c.081.175.208.325.367.435l7.445-6.263c.298-.244.28-1.256-.384-2.268a2.359 2.359 0 0 0-1.346-1.1h-.28l-5.96 5.078-2.813-5.53a2.408 2.408 0 0 0-1.643-1.466z" fill="#16110D"/><path d="M48.482 60.314L29.956 49.619a3.49 3.49 0 0 1-1.486-2.826c0-1.1.664-1.605 1.486-1.117l18.526 10.678a3.49 3.49 0 0 1 1.503 2.826c0 1.1-.682 1.605-1.503 1.134z" fill="#FFBE2E"/><path d="M48.447 59.145a1.75 1.75 0 0 1-.909-.262L28.995 48.188a4.155 4.155 0 0 1-1.748-3.384 1.882 1.882 0 0 1 .839-1.745 1.575 1.575 0 0 1 1.608 0L48.22 53.754a4.171 4.171 0 0 1 1.747 3.385 1.916 1.916 0 0 1-.839 1.744c-.2.146-.435.237-.681.262zm-.28-1.36c.157 0 .28.104.332 0 .053-.105.21-.227.21-.646a2.98 2.98 0 0 0-1.171-2.286L28.995 44.245c-.14-.087-.262-.122-.332-.087s-.193.227-.193.646a2.891 2.891 0 0 0 1.241 2.303l18.456 10.677z" fill="#16110D"/><path d="M48.482 77.482L29.956 66.787a3.491 3.491 0 0 1-1.486-2.827c0-1.099.664-1.587 1.486-1.116L48.482 73.52a3.492 3.492 0 0 1 1.503 2.827c0 1.099-.682 1.605-1.503 1.134z" fill="#FFBE2E"/><path d="M48.447 76.313a1.75 1.75 0 0 1-.91-.262L28.996 65.374a4.225 4.225 0 0 1-1.748-3.402 1.9 1.9 0 0 1 .839-1.745 1.575 1.575 0 0 1 1.608 0l18.525 10.677a4.172 4.172 0 0 1 1.748 3.385 1.917 1.917 0 0 1-.839 1.745 1.399 1.399 0 0 1-.681.279zM28.732 61.308s-.192.227-.192.646a2.894 2.894 0 0 0 1.171 2.303l18.456 10.765c.14 0 .28.104.332 0 .052-.105.21-.227.21-.646a2.995 2.995 0 0 0-1.171-2.285L28.995 61.413a.507.507 0 0 0-.263-.104z" fill="#16110D"/><path d="M48.412 94.597L29.886 83.92a3.491 3.491 0 0 1-1.486-2.844c0-1.082.665-1.588 1.486-1.117l18.526 10.765a3.579 3.579 0 0 1 1.485 2.844c0 1.012-.664 1.5-1.485 1.03z" fill="#FFBE2E"/><path d="M48.377 93.428a1.925 1.925 0 0 1-.927-.261L28.925 82.489a4.19 4.19 0 0 1-1.748-3.385 1.916 1.916 0 0 1 .821-1.744 1.575 1.575 0 0 1 1.608 0l18.491 10.747a4.207 4.207 0 0 1 1.748 3.385 1.953 1.953 0 0 1-.822 1.745c-.197.114-.419.18-.646.191zm-.28-1.36a.49.49 0 0 0 .332 0s.192-.227.192-.663a2.893 2.893 0 0 0-1.17-2.269L28.924 78.511c-.14 0-.28-.104-.332 0-.053.105-.193.227-.193.646a2.98 2.98 0 0 0 1.154 2.285l18.543 10.626z" fill="#16110D"/><path d="M51.05 27.444a2.965 2.965 0 0 0 .822-2.285 7.336 7.336 0 0 0-3.093-5.967L18.945 2.059a3.501 3.501 0 0 0-1.94-.192c-.122.072-.24.154-.35.244L13.16 4.554a.42.42 0 0 0 0 .698l3.6 2.582a6.057 6.057 0 0 0 2.185 2.46l6.38 3.664 6.326 4.536 14.296 11.724a.892.892 0 0 0 1.084 0l3.985-2.774h.035z" fill="#FFBE2E"/><path d="M52.012 27.496a7.335 7.335 0 0 0-3.076-5.897L19.085 4.397a3.379 3.379 0 0 0-1.922-.192l-.368.244-3.478 2.53a.42.42 0 0 0 0 .698l3.583 2.495a6.196 6.196 0 0 0 2.185 2.46l6.397 3.681 20.972 14.394 5.558-3.21z" fill="#FEC"/><path d="M46.524 31.282a1.749 1.749 0 0 1-1.083-.4l-14.332-11.69-6.274-4.536-6.327-3.63a6.79 6.79 0 0 1-2.411-2.616L12.6 5.95a1.327 1.327 0 0 1-.542-1.047 1.273 1.273 0 0 1 .56-1.047l3.495-2.443c.138-.099.284-.186.437-.261l.297-.122a3.046 3.046 0 0 1 2.517.296l29.833 17.185a8.259 8.259 0 0 1 3.496 6.648 3.866 3.866 0 0 1-1.049 2.896c-.122.105-.122.122-3.495 2.425l-.682.471a1.75 1.75 0 0 1-.944.331zM14.14 4.902l3.338 2.356.105.175a5.376 5.376 0 0 0 1.853 2.128l6.379 3.681 6.397 4.571L46.489 29.66l.735-.471 3.285-2.286a2.269 2.269 0 0 0 .524-1.657 6.569 6.569 0 0 0-2.656-5.234L18.508 2.792a2.398 2.398 0 0 0-1.188-.122s-.087 0-.105.087L14.14 4.903z" fill="#16110D"/><path d="M34.622 30.986L24.59 25.21a11.154 11.154 0 0 1-4.666-8.916L39.29 27.461c0 3.438-2.08 5.025-4.667 3.525z" fill="#FFBE2E"/><path d="M38.03 34.894l-10.067-5.792a11.151 11.151 0 0 1-4.684-8.915l19.418 11.217c0 3.385-2.098 4.973-4.667 3.49z" fill="#FEC"/><path d="M36.475 32.399a4.689 4.689 0 0 1-2.272-.663L24.17 25.944a11.906 11.906 0 0 1-3.725-4.206 11.882 11.882 0 0 1-1.379-5.442V14.83l21.078 12.213v.488a4.93 4.93 0 0 1-2.045 4.52 3.221 3.221 0 0 1-1.625.348zm-15.503-14.55a10.204 10.204 0 0 0 4.038 6.577L35.04 30.2a2.24 2.24 0 0 0 2.22.244 3.056 3.056 0 0 0 1.189-2.53L20.972 17.848z" fill="#16110D"/><path d="M44.532 30.48L14.698 13.277a7.348 7.348 0 0 1-3.093-5.897c0-2.268 1.38-3.315 3.093-2.32l29.834 17.185a7.454 7.454 0 0 1 3.093 5.897c0 2.285-1.398 3.262-3.093 2.338z" fill="#FFBE2E"/><path d="M45.755 31.701a3.29 3.29 0 0 1-1.66-.488L14.26 13.958a8.258 8.258 0 0 1-3.495-6.648 3.485 3.485 0 0 1 1.468-3.158 2.835 2.835 0 0 1 2.884.157L44.95 21.512a8.204 8.204 0 0 1 3.496 6.63 3.572 3.572 0 0 1-1.468 3.263 2.502 2.502 0 0 1-1.224.296zM13.457 5.531a.717.717 0 0 0-.367.087 2.04 2.04 0 0 0-.646 1.745 6.534 6.534 0 0 0 2.674 5.234L44.95 29.8a1.241 1.241 0 0 0 1.171.156 2.006 2.006 0 0 0 .647-1.744 6.584 6.584 0 0 0-2.674-5.234L14.26 5.792a1.575 1.575 0 0 0-.804-.261z" fill="#16110D"/><path d="M45.773 23.623l4.526-2.896 1.73 4.1-.978 2.617-3.635 2.565-.035-2.966-1.608-3.42zM57.57 38.61l4.859-3.158.192 70.05-1.014 3.07-4.561 2.705.314-70.975.21-1.692zM10.888 96.22c.472.279.472.715 0 .977a1.75 1.75 0 0 1-1.747 0 .524.524 0 0 1 0-.977 1.925 1.925 0 0 1 1.747 0zM5.628 94.859c.656 0 1.188-.312 1.188-.698 0-.385-.532-.698-1.188-.698-.657 0-1.189.313-1.189.698 0 .386.532.698 1.189.698zM2.045 91.125c.472.28.472.716 0 .977a1.925 1.925 0 0 1-1.748 0c-.472-.261-.472-.698 0-.977a1.925 1.925 0 0 1 1.748 0zM50.91 118.796c.473.262.473.698 0 .977a1.923 1.923 0 0 1-1.747 0 .525.525 0 0 1-.244-.785.525.525 0 0 1 .244-.192 1.752 1.752 0 0 1 1.748 0zM45.65 117.435c.657 0 1.189-.312 1.189-.698 0-.385-.532-.697-1.189-.697-.656 0-1.188.312-1.188.697 0 .386.532.698 1.188.698zM42.068 113.702c.471.261.471.698 0 .959a1.752 1.752 0 0 1-1.748 0c-.472-.261-.472-.698 0-.959a1.752 1.752 0 0 1 1.748 0zM36.79 112.323c.656 0 1.188-.312 1.188-.698 0-.385-.532-.697-1.189-.697-.656 0-1.188.312-1.188.697 0 .386.532.698 1.188.698zM33.207 108.59a.525.525 0 0 1 .244.785.525.525 0 0 1-.244.192 1.75 1.75 0 0 1-1.748 0c-.472-.262-.472-.698 0-.977a1.924 1.924 0 0 1 1.748 0zM28.75 106.025c.472.262.472.698 0 .96a1.75 1.75 0 0 1-1.748 0c-.472-.262-.472-.698 0-.96a1.752 1.752 0 0 1 1.748 0zM23.49 104.647c.656 0 1.188-.313 1.188-.698 0-.386-.532-.698-1.189-.698-.656 0-1.188.312-1.188.698 0 .385.532.698 1.188.698zM19.907 100.913c.471.279.471.715 0 .977a1.752 1.752 0 0 1-1.748 0 .525.525 0 0 1-.244-.785.525.525 0 0 1 .244-.192 1.924 1.924 0 0 1 1.748 0zM14.646 99.552c.656 0 1.188-.312 1.188-.698 0-.385-.532-.698-1.188-.698-.657 0-1.189.313-1.189.698 0 .386.532.698 1.189.698zM15.345 93.708c.472.261.472.698 0 .96a1.75 1.75 0 0 1-1.748 0 .507.507 0 0 1 0-.96 1.75 1.75 0 0 1 1.748 0zM9.228 91.16a1.873 1.873 0 0 1 1.748 0c.471.28.471.716 0 .977a1.75 1.75 0 0 1-1.748 0c-.49-.279-.49-.715 0-.977zM4.806 88.596a1.924 1.924 0 0 1 1.748 0c.454.279.472.715 0 .977a1.75 1.75 0 0 1-1.748 0c-.472-.262-.472-.698 0-.977zM.384 86.048a1.926 1.926 0 0 1 1.748 0 .524.524 0 0 1 0 .977 1.75 1.75 0 0 1-1.748 0c-.384-.261-.384-.698 0-.977zM58.95 120c.657 0 1.19-.312 1.19-.698 0-.385-.533-.698-1.19-.698-.656 0-1.188.313-1.188.698 0 .386.532.698 1.189.698zM64.229 116.266a.521.521 0 0 1 .336.489.52.52 0 0 1-.336.488 1.924 1.924 0 0 1-1.748 0c-.472-.279-.472-.715 0-.977a1.75 1.75 0 0 1 1.748 0zM68.65 113.719a.525.525 0 0 1 .244.785.525.525 0 0 1-.244.192 1.924 1.924 0 0 1-1.747 0c-.472-.279-.472-.715 0-.977a1.752 1.752 0 0 1 1.747 0zM53.672 116.266a1.936 1.936 0 0 1 1.748 0c.472.262.472.698 0 .977a1.923 1.923 0 0 1-1.748 0 .525.525 0 0 1-.336-.488.52.52 0 0 1 .337-.489zM59.807 113.719a.525.525 0 0 1 .244.785.525.525 0 0 1-.244.192 1.924 1.924 0 0 1-1.748 0c-.472-.279-.472-.715 0-.977a1.752 1.752 0 0 1 1.748 0zM63.372 112.358c.657 0 1.189-.312 1.189-.698 0-.385-.532-.697-1.189-.697-.656 0-1.188.312-1.188.697 0 .386.532.698 1.188.698zM67.794 109.794c.656 0 1.188-.313 1.188-.698 0-.386-.532-.698-1.188-.698-.656 0-1.188.312-1.188.698 0 .385.532.698 1.188.698zM49.25 113.719a1.752 1.752 0 0 1 1.748 0c.472.262.472.698 0 .977a1.923 1.923 0 0 1-1.747 0c-.455-.279-.472-.715 0-.977z" fill="#16110D"/><path d="M64.229 106.06a.525.525 0 0 1 .244.785.525.525 0 0 1-.244.192 1.752 1.752 0 0 1-1.748 0c-.472-.262-.472-.698 0-.977a1.923 1.923 0 0 1 1.748 0zM44.829 111.172a1.752 1.752 0 0 1 1.748 0c.472.262.472.698 0 .977a1.923 1.923 0 0 1-1.748 0c-.472-.279-.472-.715 0-.977zM40.407 108.625a1.742 1.742 0 0 1 1.748 0c.472.261.472.697 0 .959a1.874 1.874 0 0 1-1.748 0c-.472-.262-.472-.698 0-.959zM35.986 106.077a1.873 1.873 0 0 1 1.747 0 .521.521 0 0 1 .336.489.52.52 0 0 1-.336.488 1.741 1.741 0 0 1-1.747 0c-.472-.279-.472-.628 0-.977zM31.459 103.495a1.751 1.751 0 0 1 1.748 0c.472.262.472.698 0 .977a1.886 1.886 0 0 1-1.748 0c-.402-.279-.402-.715 0-.977zM27.09 100.948a1.752 1.752 0 0 1 1.747 0c.472.262.472.698 0 .977a1.885 1.885 0 0 1-1.747 0c-.455-.279-.455-.733 0-.977zM22.72 98.4a1.873 1.873 0 0 1 1.748 0c.472.28.472.716 0 .978a1.75 1.75 0 0 1-1.748 0 .506.506 0 0 1 0-.977zM18.246 95.836a1.925 1.925 0 0 1 1.748 0c.472.28.472.715 0 .977a1.75 1.75 0 0 1-1.748 0 .524.524 0 0 1 0-.977z" fill="#16110D"/></g><defs><clipPath id="a"><path fill="#fff" d="M0 0h69v120H0z"/></clipPath></defs></svg>