<svg width="105" height="114" viewBox="0 0 105 114" fill="none" xmlns="http://www.w3.org/2000/svg"><path d="M19.038 112.396a.632.632 0 0 1 .294.95.636.636 0 0 1-.294.232 2.32 2.32 0 0 1-2.11 0 .611.611 0 0 1 0-1.182 2.32 2.32 0 0 1 2.11 0zM12.664 110.75c.792 0 1.435-.378 1.435-.845 0-.466-.643-.844-1.435-.844-.793 0-1.435.378-1.435.844 0 .467.642.845 1.435.845zM8.337 106.233c.57.316.57.844 0 1.182a2.281 2.281 0 0 1-2.11 0c-.57-.338-.57-.866 0-1.182a2.103 2.103 0 0 1 2.11 0zM1.984 104.586c.792 0 1.435-.378 1.435-.844 0-.466-.643-.844-1.435-.844-.793 0-1.435.378-1.435.844 0 .466.642.844 1.435.844zM1.794 98.95c.793 0 1.435-.377 1.435-.844 0-.466-.642-.844-1.435-.844s-1.435.378-1.435.844c0 .467.642.845 1.435.845zM8.147 94.434c.57.316.57.844 0 1.16a2.111 2.111 0 0 1-2.11 0c-.57-.316-.57-.844 0-1.16a2.11 2.11 0 0 1 2.11 0zM27.734 112.481a2.103 2.103 0 0 1 2.11 0 .607.607 0 0 1 .418.58.617.617 0 0 1-.418.58 2.257 2.257 0 0 1-2.11 0c-.57-.316-.57-.865 0-1.16zM35.121 109.378c.57.337.57.865 0 1.182a2.113 2.113 0 0 1-2.11 0c-.57-.317-.57-.845 0-1.182a2.319 2.319 0 0 1 2.11 0zM39.448 107.731c.792 0 1.435-.378 1.435-.844 0-.466-.643-.844-1.435-.844-.793 0-1.435.378-1.435.844 0 .466.642.844 1.435.844zM44.788 104.649c.792 0 1.435-.378 1.435-.844 0-.466-.643-.844-1.435-.844-.793 0-1.435.378-1.435.844 0 .466.642.844 1.435.844zM50.128 101.568c.792 0 1.435-.378 1.435-.844 0-.467-.643-.845-1.435-.845-.793 0-1.436.378-1.436.845 0 .466.643.844 1.436.844zM55.468 98.486c.792 0 1.435-.378 1.435-.844 0-.466-.643-.844-1.435-.844-.793 0-1.436.378-1.436.844 0 .466.643.844 1.436.844zM61.842 93.97a.634.634 0 0 1 0 1.181 2.322 2.322 0 0 1-2.11 0c-.57-.337-.57-.865 0-1.182a2.11 2.11 0 0 1 2.11 0zM67.182 90.888a.612.612 0 0 1 0 1.16 2.11 2.11 0 0 1-2.11 0c-.57-.316-.57-.844 0-1.16a2.111 2.111 0 0 1 2.11 0zM72.522 87.785c.57.338.57.865 0 1.182a2.111 2.111 0 0 1-2.111 0c-.57-.317-.57-.844 0-1.182a2.322 2.322 0 0 1 2.11 0zM76.849 86.138c.792 0 1.435-.378 1.435-.844 0-.466-.643-.844-1.436-.844-.792 0-1.435.378-1.435.844 0 .466.643.844 1.436.844zM82.188 83.057c.793 0 1.436-.378 1.436-.844 0-.467-.643-.845-1.436-.845-.792 0-1.435.378-1.435.845 0 .466.643.844 1.435.844zM87.528 79.975c.793 0 1.435-.378 1.435-.844 0-.466-.642-.844-1.435-.844-.792 0-1.435.378-1.435.844 0 .466.643.844 1.435.844zM92.868 76.894c.793 0 1.435-.379 1.435-.845 0-.466-.642-.844-1.435-.844-.792 0-1.435.378-1.435.844 0 .466.643.844 1.435.844zM98.208 73.812c.793 0 1.435-.378 1.435-.844 0-.467-.642-.845-1.435-.845s-1.435.378-1.435.845c0 .466.642.844 1.435.844zM104.582 69.295a.612.612 0 0 1 0 1.16 2.112 2.112 0 0 1-2.11 0c-.57-.316-.57-.843 0-1.16a2.105 2.105 0 0 1 2.11 0zM22.33 109.356a2.268 2.268 0 0 1 2.111 0c.57.317.57.845 0 1.182a2.269 2.269 0 0 1-2.11 0c-.55-.337-.55-.865 0-1.182zM29.845 106.275a.636.636 0 0 1 .405.591.63.63 0 0 1-.405.591 2.32 2.32 0 0 1-2.111 0c-.57-.338-.57-.866 0-1.182a2.113 2.113 0 0 1 2.11 0zM35.079 103.193c.57.317.57.845 0 1.161a2.113 2.113 0 0 1-2.11 0c-.57-.316-.57-.844 0-1.161a2.112 2.112 0 0 1 2.11 0zM39.406 101.526c.792 0 1.435-.378 1.435-.845 0-.466-.643-.844-1.435-.844-.793 0-1.435.378-1.435.844 0 .467.642.845 1.435.845zM44.745 98.444c.793 0 1.436-.378 1.436-.844 0-.466-.643-.844-1.435-.844-.793 0-1.436.377-1.436.844 0 .466.643.844 1.435.844zM50.086 95.362c.792 0 1.435-.378 1.435-.844 0-.466-.643-.844-1.435-.844-.793 0-1.436.378-1.436.844 0 .466.643.844 1.436.844zM56.439 90.845c.57.317.57.844 0 1.182a2.322 2.322 0 0 1-2.111 0 .634.634 0 0 1 0-1.182 2.321 2.321 0 0 1 2.11 0zM61.779 87.764c.57.316.57.844 0 1.182a2.28 2.28 0 0 1-2.111 0c-.57-.338-.57-.866 0-1.182a2.11 2.11 0 0 1 2.11 0zM67.14 84.682a.633.633 0 0 1 0 1.182 2.323 2.323 0 0 1-2.111 0c-.57-.338-.57-.865 0-1.182a2.11 2.11 0 0 1 2.11 0zM72.48 81.6a.612.612 0 0 1 0 1.162 2.11 2.11 0 0 1-2.111 0c-.57-.317-.57-.845 0-1.161a2.11 2.11 0 0 1 2.11 0zM76.785 79.933c.793 0 1.435-.378 1.435-.844 0-.466-.642-.844-1.435-.844-.792 0-1.435.377-1.435.844 0 .466.643.844 1.435.844zM82.125 76.851c.793 0 1.435-.378 1.435-.844 0-.466-.642-.844-1.435-.844s-1.435.378-1.435.844c0 .466.642.844 1.435.844zM87.486 73.77c.793 0 1.435-.378 1.435-.844 0-.467-.642-.845-1.435-.845s-1.435.378-1.435.844c0 .467.642.845 1.435.845zM92.826 70.688c.793 0 1.435-.378 1.435-.844 0-.467-.642-.845-1.435-.845s-1.435.378-1.435.845c0 .466.642.844 1.435.844zM98.166 67.606c.793 0 1.435-.378 1.435-.844 0-.466-.642-.844-1.435-.844s-1.435.378-1.435.844c0 .466.642.844 1.435.844zM104.519 63.09c.57.316.57.844 0 1.181a2.28 2.28 0 0 1-2.111 0c-.57-.337-.57-.865 0-1.182a2.113 2.113 0 0 1 2.111 0zM16.99 106.275a2.113 2.113 0 0 1 2.111 0c.57.316.57.844 0 1.182a2.281 2.281 0 0 1-2.11 0c-.55-.338-.55-.866 0-1.182zM24.399 103.193a.615.615 0 0 1 .418.581.61.61 0 0 1-.418.58 2.113 2.113 0 0 1-2.11 0c-.57-.316-.57-.844 0-1.161a2.112 2.112 0 0 1 2.11 0zM29.845 100.111a.632.632 0 0 1 .294.95.636.636 0 0 1-.294.232 2.104 2.104 0 0 1-2.111 0c-.57-.316-.57-.844 0-1.182a2.326 2.326 0 0 1 2.11 0zM35.079 97.009c.57.338.57.865 0 1.182a2.11 2.11 0 0 1-2.11 0c-.57-.317-.57-.844 0-1.182a2.322 2.322 0 0 1 2.11 0zM40.398 93.927c.57.338.57.865 0 1.182a2.321 2.321 0 0 1-2.111 0c-.57-.317-.57-.844 0-1.182a2.321 2.321 0 0 1 2.11 0zM44.745 92.28c.793 0 1.436-.377 1.436-.844 0-.466-.643-.844-1.435-.844-.793 0-1.436.378-1.436.844 0 .467.643.845 1.435.845zM50.086 89.2c.792 0 1.435-.379 1.435-.845 0-.467-.643-.845-1.435-.845-.793 0-1.436.378-1.436.845 0 .466.643.844 1.436.844zM55.425 86.117c.793 0 1.436-.378 1.436-.844 0-.466-.643-.844-1.435-.844-.793 0-1.436.378-1.436.844 0 .466.643.844 1.435.844zM60.765 83.036c.793 0 1.436-.378 1.436-.844 0-.467-.643-.845-1.436-.845-.792 0-1.435.378-1.435.845 0 .466.643.844 1.435.844zM66.105 79.933c.793 0 1.435-.378 1.435-.844 0-.466-.642-.844-1.435-.844-.792 0-1.435.377-1.435.844 0 .466.643.844 1.435.844zM72.48 75.416a.633.633 0 0 1 0 1.182 2.111 2.111 0 0 1-2.111 0c-.57-.317-.57-.844 0-1.182a2.321 2.321 0 0 1 2.11 0zM77.82 72.335a.634.634 0 0 1 0 1.181 2.11 2.11 0 0 1-2.111 0c-.57-.316-.57-.844 0-1.181a2.322 2.322 0 0 1 2.11 0zM83.16 69.253c.57.317.57.844 0 1.182a2.323 2.323 0 0 1-2.111 0c-.57-.338-.57-.865 0-1.182a2.322 2.322 0 0 1 2.11 0zM88.5 66.171c.57.317.57.844 0 1.182a2.321 2.321 0 0 1-2.111 0c-.57-.338-.57-.865 0-1.182a2.11 2.11 0 0 1 2.11 0zM92.826 64.525c.793 0 1.435-.378 1.435-.845 0-.466-.642-.844-1.435-.844s-1.435.378-1.435.844c0 .467.642.845 1.435.845zM11.65 103.193a2.113 2.113 0 0 1 2.111 0c.57.317.57.845 0 1.182a2.32 2.32 0 0 1-2.11 0 .636.636 0 0 1-.406-.591.63.63 0 0 1 .405-.591zM19.038 100.112c.57.337.57.865 0 1.182a2.112 2.112 0 0 1-2.11 0c-.57-.317-.57-.845 0-1.182a2.274 2.274 0 0 1 2.11 0zM23.365 98.444c.792 0 1.435-.378 1.435-.844 0-.466-.643-.844-1.435-.844-.793 0-1.435.377-1.435.844 0 .466.642.844 1.435.844zM29.845 93.927a.633.633 0 0 1 0 1.182 2.322 2.322 0 0 1-2.111 0c-.57-.317-.57-.844 0-1.182a2.322 2.322 0 0 1 2.11 0zM34.045 92.28c.792 0 1.435-.377 1.435-.844 0-.466-.643-.844-1.435-.844-.793 0-1.436.378-1.436.844 0 .467.643.845 1.436.845zM40.398 87.764c.57.316.57.844 0 1.182a2.321 2.321 0 0 1-2.111 0c-.57-.338-.57-.866 0-1.182a2.11 2.11 0 0 1 2.11 0zM45.759 84.682c.57.317.57.844 0 1.182a2.323 2.323 0 0 1-2.111 0 .634.634 0 0 1 0-1.182 2.11 2.11 0 0 1 2.11 0zM51.099 81.6c.57.317.57.845 0 1.162a2.11 2.11 0 0 1-2.111 0 .612.612 0 0 1 0-1.161 2.11 2.11 0 0 1 2.11 0zM56.438 78.498c.57.337.57.865 0 1.182a2.11 2.11 0 0 1-2.11 0l2.11-1.182zM59.752 75.416a2.279 2.279 0 0 1 2.111 0c.57.338.57.865 0 1.182a2.11 2.11 0 0 1-2.11 0c-.57-.317-.57-.844 0-1.182zM67.14 72.335a.634.634 0 0 1 0 1.181 2.11 2.11 0 0 1-2.111 0c-.57-.316-.57-.844 0-1.181a2.323 2.323 0 0 1 2.11 0zM71.445 70.688c.793 0 1.436-.378 1.436-.844 0-.467-.643-.845-1.436-.845-.792 0-1.435.378-1.435.845 0 .466.643.844 1.435.844zM76.785 67.606c.793 0 1.435-.378 1.435-.844 0-.466-.642-.844-1.435-.844-.792 0-1.435.378-1.435.844 0 .466.643.844 1.435.844zM82.125 64.525c.793 0 1.435-.378 1.435-.845 0-.466-.642-.844-1.435-.844s-1.435.378-1.435.844c0 .467.642.845 1.435.845zM87.486 61.443c.793 0 1.435-.378 1.435-.844 0-.466-.642-.844-1.435-.844s-1.435.377-1.435.844c0 .466.642.844 1.435.844zM6.31 100.112a2.254 2.254 0 0 1 2.112 0c.57.337.57.865 0 1.182a2.112 2.112 0 0 1-2.111 0c-.549-.338-.57-.866 0-1.182zM13.698 97.009c.57.337.57.865 0 1.182a2.11 2.11 0 0 1-2.11 0c-.57-.317-.57-.845 0-1.182a2.28 2.28 0 0 1 2.11 0zM72.48 63.09a.633.633 0 0 1 0 1.181 2.321 2.321 0 0 1-2.111 0l2.11-1.181z" fill="#16110D"/><path d="M55.552 62.119v-15.64L76.427 58.53v15.556L55.552 62.12z" fill="#FFBE2E"/><path d="M55.552 46.478l19.08-10.955 20.854 12.053-19.06 10.954-20.874-12.052z" fill="#FFBE2E"/><path d="M55.869 51.586l18.763-10.765 20.853 12.032-19.228 10.469L55.87 51.586z" fill="#FEC"/><path d="M74.632 34.51L54.687 45.972v16.59l21.76 12.559 19.946-11.483v-16.59L74.633 34.51zm.908 37.993L56.439 61.464V47.998L75.54 59.037v13.466zM57.283 46.478l17.307-9.941 19.102 11.039-17.308 9.92-19.101-11.018z" fill="#16110D"/><path d="M28.177 78.118v-66.13L49.03 24.02v66.15L28.177 78.118z" fill="#FFBE2E"/><path d="M28.177 11.99L47.236 1.033 68.11 13.065 49.03 24.02 28.177 11.99z" fill="#FFBE2E"/><path d="M28.473 17.097L47.236 6.31l20.875 12.052-19.25 10.47-20.388-11.736z" fill="#FEC"/><path d="M47.236 0L27.291 11.461v67.163l21.74 12.56 19.945-11.462V12.559L47.236 0zm.929 88.65L29.064 77.632v-64.06l19.1 11.039v64.04zM29.95 12.01l17.286-9.941 18.996 11.017-17.286 9.942L29.95 12.01z" fill="#16110D"/><path d="M.886 93.336V71.575L21.76 83.626v21.761L.887 93.336z" fill="#FFBE2E"/><path d="M.886 71.575l19.06-10.955L40.82 72.672 21.76 83.627.887 71.575z" fill="#FFBE2E"/><path d="M1.182 76.683l18.763-10.765L40.82 77.97 21.592 88.418 1.182 76.682z" fill="#FEC"/><path d="M19.967 59.607L0 71.068v22.711l21.76 12.665 19.946-11.462V72.166l-21.74-12.56zm.907 44.325L1.773 92.892V73.095l19.101 11.04v19.798zM2.66 71.638l17.287-9.942 19.1 10.976-17.285 9.942L2.659 71.638z" fill="#16110D"/><path d="M58.908 27.904l1.942-1.119v27.102l-2.744 1.583V32.568A6.059 6.059 0 0 1 56.82 34.3a7.894 7.894 0 0 1-1.626 1.288v-2.153a9.605 9.605 0 0 0 2.111-2.322 11.038 11.038 0 0 0 1.604-3.208z" fill="#FEC"/></svg>