<svg width="76" height="113" viewBox="0 0 76 113" fill="none" xmlns="http://www.w3.org/2000/svg"><path d="M39.922 111.075c.402.238.402.611 0 .834a1.489 1.489 0 0 1-1.491 0 .44.44 0 0 1-.287-.417.446.446 0 0 1 .287-.417 1.638 1.638 0 0 1 1.49 0zM42.977 109.882c.56 0 1.014-.267 1.014-.596 0-.33-.454-.597-1.014-.597s-1.013.267-1.013.597c0 .329.454.596 1.014.596zM47.465 106.692c.402.238.402.611 0 .835a1.488 1.488 0 0 1-1.491 0c-.402-.224-.402-.597 0-.835a1.612 1.612 0 0 1 1.49 0zM51.236 104.515a.432.432 0 0 1 0 .835 1.612 1.612 0 0 1-1.49 0 .435.435 0 0 1-.32-.417.432.432 0 0 1 .32-.418 1.612 1.612 0 0 1 1.49 0zM54.292 103.353c.56 0 1.014-.267 1.014-.597 0-.329-.454-.596-1.014-.596s-1.014.267-1.014.596c0 .33.454.597 1.014.597zM58.063 101.176c.56 0 1.014-.267 1.014-.596 0-.33-.454-.596-1.014-.596s-1.013.266-1.013.596c0 .329.454.596 1.014.596zM31.618 112.044c.56 0 1.014-.267 1.014-.597 0-.329-.454-.596-1.014-.596s-1.013.267-1.013.596c0 .33.454.597 1.013.597zM35.39 109.867c.56 0 1.014-.267 1.014-.596 0-.329-.454-.596-1.014-.596s-1.014.267-1.014.596c0 .329.454.596 1.014.596zM39.892 106.677c.402.224.402.596 0 .835a1.637 1.637 0 0 1-1.49 0c-.403-.239-.403-.611 0-.835a1.49 1.49 0 0 1 1.49 0zM42.948 105.499c.56 0 1.013-.267 1.013-.596 0-.329-.453-.596-1.013-.596-.56 0-1.014.267-1.014.596 0 .329.454.596 1.014.596zM47.435 102.309c.402.238.402.611 0 .835a1.49 1.49 0 0 1-1.49 0 .45.45 0 0 1 0-.835 1.637 1.637 0 0 1 1.49 0zM50.49 101.146c.56 0 1.014-.267 1.014-.596 0-.329-.453-.596-1.013-.596-.56 0-1.014.267-1.014.596 0 .329.454.596 1.014.596zM54.978 97.956c.402.239.402.611 0 .835a1.61 1.61 0 0 1-1.491 0c-.403-.224-.403-.596 0-.835a1.61 1.61 0 0 1 1.49 0zM24.79 111.075c.403.223.403.596 0 .835a1.61 1.61 0 0 1-1.49 0c-.402-.239-.402-.612 0-.835a1.489 1.489 0 0 1 1.49 0zM27.847 109.867c.56 0 1.014-.267 1.014-.596 0-.329-.454-.596-1.014-.596s-1.014.267-1.014.596c0 .329.454.596 1.014.596zM31.618 107.691c.56 0 1.014-.267 1.014-.597 0-.329-.454-.596-1.014-.596s-1.013.267-1.013.596c0 .33.454.597 1.013.597zM36.12 104.501c.403.223.403.596 0 .819a1.49 1.49 0 0 1-1.49 0c-.403-.223-.403-.596 0-.819a1.489 1.489 0 0 1 1.49 0zM39.892 102.309c.402.238.402.611 0 .835a1.49 1.49 0 0 1-1.49 0c-.403-.224-.403-.597 0-.835a1.637 1.637 0 0 1 1.49 0zM43.663 100.132c.403.239.403.612 0 .835a1.49 1.49 0 0 1-1.49 0 .446.446 0 0 1 0-.835 1.65 1.65 0 0 1 1.49 0zM47.435 97.956c.402.239.402.611 0 .835a1.64 1.64 0 0 1-1.49 0 .447.447 0 0 1 0-.835 1.64 1.64 0 0 1 1.49 0zM50.49 96.793c.56 0 1.014-.267 1.014-.596 0-.33-.453-.596-1.013-.596-.56 0-1.014.267-1.014.596 0 .33.454.596 1.014.596zM20.96 108.853c.402.224.402.597 0 .835a1.612 1.612 0 0 1-1.49 0c-.403-.238-.403-.611 0-.835a1.499 1.499 0 0 1 1.49 0zM24.79 106.677c.403.224.403.596 0 .835a1.612 1.612 0 0 1-1.49 0c-.402-.239-.402-.611 0-.835a1.489 1.489 0 0 1 1.49 0zM27.847 105.499c.56 0 1.014-.267 1.014-.596 0-.329-.454-.596-1.014-.596s-1.014.267-1.014.596c0 .329.454.596 1.014.596zM31.618 103.323c.56 0 1.014-.267 1.014-.597 0-.329-.454-.596-1.014-.596s-1.013.267-1.013.596c0 .33.454.597 1.013.597zM35.39 101.146c.56 0 1.014-.267 1.014-.596 0-.329-.454-.596-1.014-.596s-1.014.267-1.014.596c0 .329.454.596 1.014.596zM39.892 97.956c.402.239.402.611 0 .835a1.64 1.64 0 0 1-1.49 0c-.403-.224-.403-.596 0-.835a1.641 1.641 0 0 1 1.49 0zM43.663 95.78c.403.223.403.596 0 .834a1.641 1.641 0 0 1-1.49 0 .447.447 0 0 1 0-.835 1.64 1.64 0 0 1 1.49 0zM47.435 93.603c.402.224.402.596 0 .835a1.64 1.64 0 0 1-1.49 0 .447.447 0 0 1 0-.835 1.491 1.491 0 0 1 1.49 0zM17.248 106.677c.402.224.402.596 0 .835a1.637 1.637 0 0 1-1.49 0 .45.45 0 0 1 0-.835 1.49 1.49 0 0 1 1.49 0zM20.96 104.501c.402.223.402.596 0 .819a1.49 1.49 0 0 1-1.49 0c-.403-.223-.403-.596 0-.819a1.49 1.49 0 0 1 1.49 0zM24.79 102.309c.403.239.403.611 0 .835a1.489 1.489 0 0 1-1.49 0c-.402-.224-.402-.596 0-.835a1.612 1.612 0 0 1 1.49 0zM28.577 100.132a.449.449 0 0 1 0 .835 1.49 1.49 0 0 1-1.49 0c-.403-.223-.403-.596 0-.835a1.65 1.65 0 0 1 1.49 0zM32.349 97.956a.448.448 0 0 1 0 .835 1.64 1.64 0 0 1-1.491 0c-.402-.224-.402-.596 0-.835a1.641 1.641 0 0 1 1.49 0zM36.12 95.78c.403.223.403.596 0 .834a1.641 1.641 0 0 1-1.49 0c-.403-.238-.403-.61 0-.835a1.64 1.64 0 0 1 1.49 0zM39.892 93.603c.402.224.402.596 0 .835a1.64 1.64 0 0 1-1.49 0c-.403-.239-.403-.612 0-.835a1.491 1.491 0 0 1 1.49 0zM43.663 91.427c.403.223.403.596 0 .834a1.64 1.64 0 0 1-1.49 0 .446.446 0 0 1 0-.834 1.491 1.491 0 0 1 1.49 0zM13.506 104.501c.403.223.403.596 0 .819a1.489 1.489 0 0 1-1.49 0 .433.433 0 0 1 0-.819 1.49 1.49 0 0 1 1.49 0zM17.248 102.309c.402.238.402.611 0 .835a1.489 1.489 0 0 1-1.49 0 .45.45 0 0 1 0-.835 1.637 1.637 0 0 1 1.49 0zM20.96 100.133c.402.238.402.611 0 .834a1.49 1.49 0 0 1-1.49 0c-.403-.223-.403-.596 0-.834a1.6 1.6 0 0 1 1.49 0zM24.79 97.956c.403.239.403.611 0 .835a1.61 1.61 0 0 1-1.49 0c-.402-.224-.402-.596 0-.835a1.609 1.609 0 0 1 1.49 0zM28.577 95.78a.447.447 0 0 1 0 .834 1.64 1.64 0 0 1-1.49 0c-.403-.238-.403-.61 0-.835a1.64 1.64 0 0 1 1.49 0zM31.618 94.617c.56 0 1.014-.267 1.014-.597 0-.329-.454-.596-1.014-.596s-1.013.267-1.013.596c0 .33.454.597 1.013.597zM36.12 91.427c.403.223.403.596 0 .834a1.64 1.64 0 0 1-1.49 0c-.403-.238-.403-.61 0-.834a1.49 1.49 0 0 1 1.49 0zM39.892 89.25c.402.224.402.596 0 .82a1.49 1.49 0 0 1-1.49 0c-.403-.224-.403-.596 0-.82a1.491 1.491 0 0 1 1.49 0zM9.705 102.309c.402.238.402.611 0 .835a1.49 1.49 0 0 1-1.49 0c-.403-.224-.403-.597 0-.835a1.637 1.637 0 0 1 1.49 0zM13.506 100.132c.403.239.403.612 0 .835a1.489 1.489 0 0 1-1.49 0 .44.44 0 0 1-.287-.417.444.444 0 0 1 .287-.418 1.65 1.65 0 0 1 1.49 0zM17.248 97.956c.402.239.402.611 0 .835a1.64 1.64 0 0 1-1.49 0 .447.447 0 0 1 0-.835 1.641 1.641 0 0 1 1.49 0zM20.96 95.78c.402.223.402.596 0 .834a1.61 1.61 0 0 1-1.49 0c-.403-.238-.403-.61 0-.835a1.61 1.61 0 0 1 1.49 0zM24.79 93.603c.403.224.403.596 0 .835a1.61 1.61 0 0 1-1.49 0c-.402-.239-.402-.612 0-.835a1.49 1.49 0 0 1 1.49 0zM36.12 87.059c.403.238.403.61 0 .834a1.49 1.49 0 0 1-1.49 0c-.403-.223-.403-.596 0-.834a1.64 1.64 0 0 1 1.49 0zM8.99 98.97c.56 0 1.013-.267 1.013-.596 0-.33-.454-.597-1.013-.597-.56 0-1.014.267-1.014.597 0 .329.454.596 1.014.596zM13.506 95.78c.403.223.403.596 0 .834a1.64 1.64 0 0 1-1.49 0 .447.447 0 0 1 0-.835 1.64 1.64 0 0 1 1.49 0zM16.532 94.617c.56 0 1.014-.267 1.014-.597 0-.329-.454-.596-1.014-.596s-1.013.267-1.013.596c0 .33.454.597 1.013.597zM20.96 91.427c.402.223.402.596 0 .834a1.61 1.61 0 0 1-1.49 0c-.403-.238-.403-.61 0-.834a1.491 1.491 0 0 1 1.49 0zM24.79 89.25c.403.224.403.596 0 .82a1.49 1.49 0 0 1-1.49 0c-.402-.224-.402-.596 0-.82a1.49 1.49 0 0 1 1.49 0zM32.349 84.882a.447.447 0 0 1 0 .835 1.491 1.491 0 0 1-1.491 0c-.402-.224-.402-.596 0-.835a1.64 1.64 0 0 1 1.49 0zM9.705 93.603c.402.224.402.596 0 .835a1.64 1.64 0 0 1-1.49 0c-.403-.239-.403-.612 0-.835a1.491 1.491 0 0 1 1.49 0zM13.506 91.427c.403.223.403.596 0 .834a1.64 1.64 0 0 1-1.49 0 .447.447 0 0 1 0-.834 1.491 1.491 0 0 1 1.49 0zM17.248 89.25c.403.224.403.596 0 .82a1.49 1.49 0 0 1-1.49 0 .432.432 0 0 1 0-.82 1.49 1.49 0 0 1 1.49 0zM20.96 87.058c.402.24.402.612 0 .835a1.491 1.491 0 0 1-1.49 0c-.403-.223-.403-.596 0-.835a1.61 1.61 0 0 1 1.49 0zM24.79 84.882c.403.238.403.611 0 .835a1.49 1.49 0 0 1-1.49 0c-.402-.224-.402-.597 0-.835a1.609 1.609 0 0 1 1.49 0zM28.577 82.75a.447.447 0 0 1 0 .835 1.64 1.64 0 0 1-1.49 0c-.403-.223-.403-.596 0-.835a1.641 1.641 0 0 1 1.49 0zM8.945 90.234c.56 0 1.013-.267 1.013-.596 0-.33-.454-.597-1.013-.597-.56 0-1.014.267-1.014.597 0 .329.454.596 1.014.596zM13.506 87.044c.403.223.403.596 0 .834a1.64 1.64 0 0 1-1.49 0c-.403-.238-.403-.61 0-.834a1.491 1.491 0 0 1 1.49 0zM16.503 85.88c.56 0 1.013-.266 1.013-.596 0-.329-.453-.596-1.013-.596-.56 0-1.014.267-1.014.596 0 .33.454.597 1.014.597zM20.96 82.75c.402.224.402.597 0 .835a1.64 1.64 0 0 1-1.49 0 .448.448 0 0 1 0-.835 1.49 1.49 0 0 1 1.49 0zM24.761 80.5c.403.238.403.61 0 .834a1.491 1.491 0 0 1-1.49 0 .447.447 0 0 1 0-.835 1.64 1.64 0 0 1 1.49 0zM5.173 88.057c.56 0 1.014-.267 1.014-.596 0-.33-.454-.596-1.014-.596s-1.013.267-1.013.596c0 .33.453.596 1.013.596zM8.945 85.88c.56 0 1.013-.266 1.013-.596 0-.329-.454-.596-1.013-.596-.56 0-1.014.267-1.014.596 0 .33.454.597 1.014.597zM13.506 82.75c.403.224.403.597 0 .835a1.64 1.64 0 0 1-1.49 0c-.403-.238-.403-.611 0-.835a1.49 1.49 0 0 1 1.49 0zM17.218 80.5c.403.238.403.61 0 .834a1.49 1.49 0 0 1-1.49 0 .448.448 0 0 1 0-.835 1.64 1.64 0 0 1 1.49 0zM20.96 78.278c.402.238.402.611 0 .835a1.49 1.49 0 0 1-1.49 0 .448.448 0 0 1 0-.835 1.64 1.64 0 0 1 1.49 0zM5.173 83.704c.56 0 1.014-.267 1.014-.596 0-.33-.454-.596-1.014-.596s-1.013.267-1.013.596c0 .33.453.596 1.013.596zM9.675 80.5c.403.238.403.61 0 .834a1.491 1.491 0 0 1-1.49 0c-.403-.224-.403-.596 0-.835a1.64 1.64 0 0 1 1.49 0zM13.506 78.278c.403.238.403.611 0 .835a1.491 1.491 0 0 1-1.49 0c-.403-.224-.403-.597 0-.835a1.64 1.64 0 0 1 1.49 0zM17.218 76.146c.403.239.403.611 0 .835a1.49 1.49 0 0 1-1.49 0 .447.447 0 0 1 0-.835 1.64 1.64 0 0 1 1.49 0zM5.173 79.336c.56 0 1.014-.267 1.014-.596 0-.33-.454-.596-1.014-.596s-1.013.267-1.013.596c0 .33.453.596 1.013.596zM9.675 76.146c.403.239.403.611 0 .835a1.491 1.491 0 0 1-1.49 0c-.403-.224-.403-.596 0-.835a1.64 1.64 0 0 1 1.49 0zM13.506 73.97a.433.433 0 0 1 0 .835 1.64 1.64 0 0 1-1.49 0 .432.432 0 0 1 0-.835 1.64 1.64 0 0 1 1.49 0zM57.318 95.81a1.64 1.64 0 0 1 1.49 0c.403.223.403.596 0 .834a1.641 1.641 0 0 1-1.49 0 .447.447 0 0 1 0-.835zM53.547 93.633a1.491 1.491 0 0 1 1.49 0c.403.223.403.596 0 .835a1.64 1.64 0 0 1-1.49 0c-.403-.239-.403-.612 0-.835zM58.764 91.456c.403.224.403.597 0 .82a1.49 1.49 0 0 1-1.49 0 .432.432 0 0 1 0-.82 1.491 1.491 0 0 1 1.49 0zM49.775 91.456a1.491 1.491 0 0 1 1.49 0c.403.224.403.597 0 .835a1.64 1.64 0 0 1-1.49 0c-.402-.238-.402-.596 0-.835zM54.992 89.265c.403.238.403.611 0 .835a1.491 1.491 0 0 1-1.49 0 .447.447 0 0 1 0-.835 1.64 1.64 0 0 1 1.49 0zM46.004 89.28a1.491 1.491 0 0 1 1.49 0 .432.432 0 0 1 0 .82 1.595 1.595 0 0 1-1.49 0c-.403-.224-.403-.597 0-.82zM51.221 87.088c.403.239.403.612 0 .835a1.491 1.491 0 0 1-1.49 0 .448.448 0 0 1 0-.835 1.64 1.64 0 0 1 1.49 0zM54.277 85.926c.56 0 1.014-.267 1.014-.597 0-.329-.454-.596-1.014-.596s-1.014.267-1.014.596c0 .33.454.597 1.014.597zM58.764 82.75c.403.224.403.597 0 .835a1.64 1.64 0 0 1-1.49 0 .447.447 0 0 1 0-.835 1.64 1.64 0 0 1 1.49 0zM62.535 80.559c.403.223.403.596 0 .835a1.61 1.61 0 0 1-1.49 0c-.403-.239-.403-.612 0-.835a1.491 1.491 0 0 1 1.49 0zM66.322 78.382a.447.447 0 0 1 0 .835 1.64 1.64 0 0 1-1.49 0c-.403-.239-.403-.611 0-.835a1.491 1.491 0 0 1 1.49 0zM70.153 76.206a.447.447 0 0 1 0 .835 1.641 1.641 0 0 1-1.49 0c-.403-.239-.403-.612 0-.835a1.491 1.491 0 0 1 1.49 0zM73.865 74.014a.448.448 0 0 1 0 .835 1.49 1.49 0 0 1-1.49 0c-.403-.223-.403-.596 0-.835a1.64 1.64 0 0 1 1.49 0zM42.232 87.088a1.64 1.64 0 0 1 1.491 0 .447.447 0 0 1 0 .835 1.491 1.491 0 0 1-1.49 0c-.403-.223-.403-.596 0-.835zM47.45 84.912c.402.238.402.611 0 .835a1.64 1.64 0 0 1-1.491 0c-.403-.224-.403-.597 0-.835a1.64 1.64 0 0 1 1.49 0zM51.221 82.75c.403.224.403.597 0 .835a1.64 1.64 0 0 1-1.49 0 .447.447 0 0 1 0-.835 1.64 1.64 0 0 1 1.49 0zM54.992 80.559c.403.223.403.596 0 .835a1.641 1.641 0 0 1-1.49 0 .447.447 0 0 1 0-.835 1.491 1.491 0 0 1 1.49 0zM58.764 78.382c.403.224.403.596 0 .835a1.64 1.64 0 0 1-1.49 0 .448.448 0 0 1 0-.835 1.49 1.49 0 0 1 1.49 0zM62.535 76.206c.403.223.403.596 0 .835a1.61 1.61 0 0 1-1.49 0c-.403-.239-.403-.612 0-.835a1.491 1.491 0 0 1 1.49 0zM66.322 74.014a.448.448 0 0 1 0 .835 1.49 1.49 0 0 1-1.49 0c-.403-.223-.403-.596 0-.835a1.64 1.64 0 0 1 1.49 0zM70.153 71.838a.447.447 0 0 1 0 .835 1.49 1.49 0 0 1-1.49 0c-.403-.224-.403-.597 0-.835a1.64 1.64 0 0 1 1.49 0zM73.135 70.675c.56 0 1.013-.267 1.013-.596 0-.33-.454-.597-1.013-.597-.56 0-1.014.267-1.014.597 0 .33.454.596 1.014.596zM38.46 84.912a1.61 1.61 0 0 1 1.491 0c.403.238.403.611 0 .835a1.491 1.491 0 0 1-1.49 0c-.403-.224-.403-.597 0-.835zM43.678 82.75c.403.224.403.597 0 .835a1.64 1.64 0 0 1-1.49 0c-.403-.238-.403-.611 0-.835a1.64 1.64 0 0 1 1.49 0zM47.45 80.559c.402.223.402.596 0 .835a1.641 1.641 0 0 1-1.491 0c-.403-.239-.403-.612 0-.835a1.49 1.49 0 0 1 1.49 0zM51.221 78.382c.403.224.403.596 0 .835a1.641 1.641 0 0 1-1.49 0 .448.448 0 0 1 0-.835 1.491 1.491 0 0 1 1.49 0zM54.277 77.22c.56 0 1.014-.267 1.014-.597 0-.33-.454-.596-1.014-.596s-1.014.267-1.014.596c0 .33.454.597 1.014.597zM58.049 75.028c.56 0 1.013-.267 1.013-.596 0-.33-.454-.597-1.013-.597-.56 0-1.014.267-1.014.597 0 .33.454.596 1.014.596zM62.535 71.838c.403.238.403.611 0 .835a1.491 1.491 0 0 1-1.49 0c-.403-.224-.403-.597 0-.835a1.61 1.61 0 0 1 1.49 0zM66.322 69.662a.447.447 0 0 1 0 .834 1.49 1.49 0 0 1-1.49 0c-.403-.223-.403-.596 0-.834a1.64 1.64 0 0 1 1.49 0zM70.153 67.485a.447.447 0 0 1 0 .835 1.64 1.64 0 0 1-1.49 0 .433.433 0 0 1 0-.835 1.64 1.64 0 0 1 1.49 0zM34.674 82.75a1.64 1.64 0 0 1 1.49 0c.403.239.403.611 0 .835a1.491 1.491 0 0 1-1.49 0 .448.448 0 0 1 0-.835zM39.907 80.559a.448.448 0 0 1 0 .835 1.64 1.64 0 0 1-1.491 0c-.403-.239-.403-.612 0-.835a1.491 1.491 0 0 1 1.49 0zM42.948 79.396c.56 0 1.013-.267 1.013-.596 0-.33-.453-.596-1.013-.596-.56 0-1.014.267-1.014.596 0 .33.454.596 1.014.596zM47.45 76.206c.402.223.402.596 0 .835a1.641 1.641 0 0 1-1.491 0c-.403-.239-.403-.612 0-.835a1.49 1.49 0 0 1 1.49 0zM50.506 75.028c.56 0 1.013-.267 1.013-.596 0-.33-.453-.597-1.013-.597-.56 0-1.014.267-1.014.597 0 .33.454.596 1.014.596zM54.992 71.838c.403.238.403.611 0 .835a1.49 1.49 0 0 1-1.49 0 .447.447 0 0 1 0-.835 1.64 1.64 0 0 1 1.49 0zM58.764 69.662c.403.238.403.61 0 .834a1.49 1.49 0 0 1-1.49 0 .447.447 0 0 1 0-.834 1.64 1.64 0 0 1 1.49 0zM62.536 67.485a.433.433 0 0 1 0 .835 1.61 1.61 0 0 1-1.491 0 .433.433 0 0 1 0-.835 1.61 1.61 0 0 1 1.49 0zM65.591 66.322c.56 0 1.014-.267 1.014-.596 0-.33-.454-.597-1.014-.597s-1.013.267-1.013.597c0 .33.454.596 1.013.596zM30.903 80.559a1.64 1.64 0 0 1 1.49 0c.403.223.403.596 0 .835a1.61 1.61 0 0 1-1.49 0 .447.447 0 0 1 0-.835zM36.135 78.382a.447.447 0 0 1 0 .835 1.641 1.641 0 0 1-1.49 0c-.403-.239-.403-.611 0-.835a1.491 1.491 0 0 1 1.49 0zM39.907 76.206a.448.448 0 0 1 0 .835 1.64 1.64 0 0 1-1.491 0c-.403-.239-.403-.612 0-.835a1.491 1.491 0 0 1 1.49 0zM42.948 75.028c.56 0 1.013-.267 1.013-.596 0-.33-.453-.597-1.013-.597-.56 0-1.014.267-1.014.597 0 .33.454.596 1.014.596zM47.45 71.838c.402.238.402.611 0 .835a1.49 1.49 0 0 1-1.491 0c-.403-.224-.403-.597 0-.835a1.64 1.64 0 0 1 1.49 0zM50.506 70.675c.56 0 1.013-.267 1.013-.596 0-.33-.453-.597-1.013-.597-.56 0-1.014.267-1.014.597 0 .33.454.596 1.014.596zM54.277 68.499c.56 0 1.014-.267 1.014-.597 0-.329-.454-.596-1.014-.596s-1.014.267-1.014.596c0 .33.454.597 1.014.597zM58.049 66.322c.56 0 1.013-.267 1.013-.596 0-.33-.454-.597-1.013-.597-.56 0-1.014.267-1.014.597 0 .33.454.596 1.014.596zM62.535 63.132c.403.224.403.596 0 .835a1.61 1.61 0 0 1-1.49 0c-.403-.239-.403-.611 0-.835a1.49 1.49 0 0 1 1.49 0zM27.101 78.352a1.64 1.64 0 0 1 1.491 0c.403.239.403.612 0 .835a1.49 1.49 0 0 1-1.49 0c-.403-.223-.403-.596 0-.835zM31.603 77.19c.56 0 1.014-.267 1.014-.597 0-.329-.454-.596-1.014-.596s-1.013.267-1.013.596c0 .33.454.597 1.013.597zM36.09 74c.403.223.403.596 0 .834a1.61 1.61 0 0 1-1.49 0c-.403-.238-.403-.61 0-.834a1.61 1.61 0 0 1 1.49 0zM39.877 71.823a.448.448 0 0 1 0 .835 1.64 1.64 0 0 1-1.49 0c-.403-.239-.403-.611 0-.835a1.491 1.491 0 0 1 1.49 0zM42.918 70.66c.56 0 1.014-.267 1.014-.596 0-.33-.454-.596-1.014-.596s-1.014.266-1.014.596c0 .33.454.596 1.014.596zM47.42 67.47a.433.433 0 0 1 0 .82 1.49 1.49 0 0 1-1.49 0c-.403-.224-.403-.596 0-.82a1.49 1.49 0 0 1 1.49 0zM50.46 66.292c.56 0 1.014-.267 1.014-.596 0-.33-.453-.596-1.013-.596-.56 0-1.014.267-1.014.596 0 .33.454.596 1.014.596zM54.247 64.116c.56 0 1.014-.267 1.014-.596 0-.33-.454-.597-1.014-.597s-1.014.267-1.014.596c0 .33.454.597 1.014.597zM58.734 60.925c.403.24.403.612 0 .835a1.641 1.641 0 0 1-1.49 0 .447.447 0 0 1 0-.834 1.64 1.64 0 0 1 1.49 0zM23.33 76.176a1.64 1.64 0 0 1 1.49 0c.403.239.403.611 0 .835a1.491 1.491 0 0 1-1.49 0c-.402-.224-.402-.596 0-.835zM27.832 75.013c.56 0 1.014-.267 1.014-.596 0-.33-.454-.596-1.014-.596s-1.014.267-1.014.596c0 .33.454.596 1.014.596zM31.603 72.837c.56 0 1.014-.267 1.014-.597 0-.329-.454-.596-1.014-.596s-1.013.267-1.013.596c0 .33.454.597 1.013.597zM36.09 69.647c.403.223.403.596 0 .834a1.61 1.61 0 0 1-1.49 0c-.403-.238-.403-.61 0-.834a1.491 1.491 0 0 1 1.49 0zM39.877 67.47a.432.432 0 0 1 0 .82 1.49 1.49 0 0 1-1.49 0c-.403-.224-.403-.596 0-.82a1.491 1.491 0 0 1 1.49 0zM43.648 65.279a.446.446 0 0 1 0 .834 1.49 1.49 0 0 1-1.49 0c-.403-.223-.403-.596 0-.834a1.64 1.64 0 0 1 1.49 0zM47.42 63.102a.447.447 0 0 1 0 .835 1.491 1.491 0 0 1-1.49 0c-.403-.224-.403-.596 0-.835a1.64 1.64 0 0 1 1.49 0zM51.191 60.925c.403.24.403.612 0 .835a1.64 1.64 0 0 1-1.49 0c-.403-.223-.403-.596 0-.834a1.64 1.64 0 0 1 1.49 0zM54.247 59.763c.56 0 1.014-.267 1.014-.597 0-.329-.454-.596-1.014-.596s-1.014.267-1.014.596c0 .33.454.597 1.014.597zM19.558 74a1.64 1.64 0 0 1 1.491 0 .447.447 0 0 1 0 .834 1.64 1.64 0 0 1-1.49 0c-.403-.223-.403-.596 0-.835zM24.776 71.823c.402.224.402.596 0 .835a1.64 1.64 0 0 1-1.49 0 .447.447 0 0 1 0-.835 1.491 1.491 0 0 1 1.49 0zM27.832 70.66c.56 0 1.014-.267 1.014-.596 0-.33-.454-.596-1.014-.596s-1.014.266-1.014.596c0 .33.454.596 1.014.596zM31.603 68.469c.56 0 1.014-.267 1.014-.596 0-.33-.454-.597-1.014-.597s-1.013.267-1.013.597c0 .329.454.596 1.013.596zM36.09 65.279c.403.238.403.61 0 .835a1.49 1.49 0 0 1-1.49 0c-.403-.224-.403-.597 0-.835a1.61 1.61 0 0 1 1.49 0zM39.877 63.102a.447.447 0 0 1 0 .835 1.491 1.491 0 0 1-1.49 0c-.403-.224-.403-.596 0-.835a1.64 1.64 0 0 1 1.49 0zM43.648 60.925a.447.447 0 0 1 0 .835 1.64 1.64 0 0 1-1.49 0c-.403-.223-.403-.596 0-.834a1.64 1.64 0 0 1 1.49 0zM47.42 58.749a.448.448 0 0 1 0 .835 1.64 1.64 0 0 1-1.49 0c-.403-.239-.403-.611 0-.835a1.64 1.64 0 0 1 1.49 0zM51.191 56.572c.403.224.403.597 0 .835a1.64 1.64 0 0 1-1.49 0c-.403-.238-.403-.61 0-.834a1.491 1.491 0 0 1 1.49 0zM15.787 71.823a1.595 1.595 0 0 1 1.49 0 .447.447 0 0 1 0 .835 1.64 1.64 0 0 1-1.49 0c-.403-.239-.403-.612 0-.835zM20.96 69.647c.402.223.402.596 0 .834a1.64 1.64 0 0 1-1.49 0c-.403-.238-.403-.61 0-.834a1.491 1.491 0 0 1 1.49 0zM24.776 67.47c.403.224.403.596 0 .82a1.49 1.49 0 0 1-1.49 0 .433.433 0 0 1 0-.82 1.491 1.491 0 0 1 1.49 0zM28.548 65.279c.402.238.402.61 0 .834a1.491 1.491 0 0 1-1.491 0 .448.448 0 0 1 0-.834 1.64 1.64 0 0 1 1.49 0zM32.32 63.102c.402.239.402.611 0 .835a1.491 1.491 0 0 1-1.492 0 .448.448 0 0 1 0-.835 1.64 1.64 0 0 1 1.491 0zM36.09 60.926c.403.238.403.61 0 .834a1.61 1.61 0 0 1-1.49 0c-.403-.223-.403-.596 0-.834a1.61 1.61 0 0 1 1.49 0zM39.877 58.749a.448.448 0 0 1 0 .835 1.64 1.64 0 0 1-1.49 0c-.403-.239-.403-.611 0-.835a1.64 1.64 0 0 1 1.49 0zM43.648 56.572a.447.447 0 0 1 0 .835 1.64 1.64 0 0 1-1.49 0c-.403-.238-.403-.61 0-.834a1.49 1.49 0 0 1 1.49 0zM46.69 55.41c.56 0 1.013-.267 1.013-.596 0-.33-.454-.597-1.014-.597s-1.013.267-1.013.596c0 .33.454.597 1.014.597z" fill="#16110D"/><path d="M1.774 60.225l2.892-2.028v-.238c.006-1.434.086-2.867.239-4.294l-2.877-1.64a.551.551 0 0 1-.209-.104 1.386 1.386 0 0 1-.238-1.371l1.058-4.368A2.788 2.788 0 0 1 4.4 44.14l2.623-.537a65.509 65.509 0 0 1 2.698-7.066l-1.49-.85-.463-.209a.792.792 0 0 1-.209-.179 1.908 1.908 0 0 1 .105-2.042l2.295-4.249c.507-.954 1.402-1.49 1.968-1.252l1.953.895a69.65 69.65 0 0 1 4.562-6.515l-1.059-2.117a2.638 2.638 0 0 1 .716-2.55l3.115-3.398c.492-.537.954-.76 1.357-.626h.283l2.34 1.327a47.474 47.474 0 0 1 4.473-3.578V8.212a3.1 3.1 0 0 1 1.4-2.43l3.415-1.967a.924.924 0 0 1 1.058 0l4.16 2.37a24.789 24.789 0 0 1 1.743-.432l1.029-3.295c.328-.984 1.148-1.834 1.848-1.878l3.116-.194a.582.582 0 0 1 .283 0 .76.76 0 0 1 .238.134l5.546 3.16.104-.179c.582-.924 1.491-1.386 1.983-1.013L66.024 8.45l-.283 3.98 7.08 4.293-1.177 2.64-2.34 7.647 5.545 3.294v.075l-2.743 3.593-5.203 9.883 4.74 2.699v.104l-1.49 1.044-3.428 1.088-2.982 4.13c1.49-3.37 2.982-6.903 2.892-8.26-.104-2.608 1.416-14.013 1.416-14.013s-2.28-4.994-3.592-7.17a13.282 13.282 0 0 0-2.877-3.34s-.582-.119-1.178-.208v-.269l2.653-2.504c.178-.168.333-.359.462-.567l-13.7 2.058C16.727 29.948 20.08 69.81 20.08 69.81v8.26c1.317-.001 2.63-.131 3.92-.388l.97 1.043c-.15.97.328 1.49 1.088 1.297l1.67 1.938a2.982 2.982 0 0 0 1.67-2.191l.447-2.684c2.36.12 4.724.09 7.08-.09a99.13 99.13 0 0 0 12.492-3.473l2.266-2.534-4.472 11.196a.268.268 0 0 1-.372.119l-4.204-2.639-.88-1.252s-2.28 2.713-2.49 2.877c-.208.164-5.187 7.618-5.187 7.618l-5.203-3.399-.208-3.458-5.665 6.663a.179.179 0 0 1-.253 0l-10.733-6.216s-6.127-4.174-6.276-4.383l-1.7-2.43a2.37 2.37 0 0 1 .507-2.504l2.31-2.863-5.455-3.115a.894.894 0 0 1-.477-.776l-.358-3.712a3.071 3.071 0 0 1 1.208-2.49z" fill="#FEBD33"/><path d="M28.309 85.732l-.134-2.385-4.77 5.71a.672.672 0 0 1-.925.133l-10.807-6.246c-6.202-4.234-6.336-4.472-6.395-4.472l-1.715-2.43a2.817 2.817 0 0 1 .537-3.13l1.923-2.386-4.875-2.788a1.49 1.49 0 0 1-.79-1.207L0 62.819a3.608 3.608 0 0 1 1.491-2.982l2.669-1.863c0-1.252 0-2.58.208-3.98l-2.504-1.491a1.323 1.323 0 0 1-.373-.209 1.863 1.863 0 0 1-.402-1.893l1.058-4.353a3.25 3.25 0 0 1 2.162-2.445l2.325-.462a61.657 61.657 0 0 1 2.4-6.425l-1.028-.597-.463-.208a1.282 1.282 0 0 1-.402-.299 2.43 2.43 0 0 1 0-2.653l2.296-4.234c.655-1.252 1.803-1.893 2.653-1.49l1.49.7a67.665 67.665 0 0 1 4.145-5.963l-.805-1.834a3.071 3.071 0 0 1 .79-3.13l3.116-3.4c.82-.879 1.49-.909 1.908-.774l2.385 1.326a50.676 50.676 0 0 1 4.025-3.22V8.346a3.638 3.638 0 0 1 1.654-2.877l3.414-1.968a1.49 1.49 0 0 1 1.58 0l3.965 2.266c.433-.104.85-.223 1.283-.313l.939-2.981a3.071 3.071 0 0 1 2.31-2.251l3.116-.194c.157-.037.32-.037.477 0a.656.656 0 0 1 .328.179l5.128 2.981c.35-.537.877-.933 1.49-1.118a1.222 1.222 0 0 1 .97.164L66.53 8.376l-.269 3.98 7.2 4.368-1.326 2.863-2.221 7.26 5.187 3.07.239.165.074.507-2.832 3.697-4.98 9.436 4.25 2.445a.566.566 0 0 1 .297.492v.313l-1.773 1.208-3.4 1.103-5.768 7.975 2.027-4.562c1.938-4.308 2.892-7.006 2.847-8.02-.104-2.474 1.208-12.522 1.402-13.938-.373-.82-2.34-5.054-3.504-6.992a13.413 13.413 0 0 0-2.608-3.145l-1.029-.18h-.358l-.164-.894 2.326-2.206-12.134 1.819C17.695 30.186 20.602 69.378 20.647 69.825v7.722a19.188 19.188 0 0 0 3.28-.357h.282l1.357 1.49v.254c0 .373 0 .611.104.7a.299.299 0 0 0 .298 0l.329-.104 1.64 1.894a2.624 2.624 0 0 0 1.013-1.64l.522-3.131h.432c2.333.144 4.673.144 7.006 0a97.149 97.149 0 0 0 12.254-3.414l2.176-2.445 2.028-2.295-5.725 13.804a.82.82 0 0 1-.492.447.743.743 0 0 1-.656-.09l-4.203-2.623-.626-.835c-.954 1.118-1.953 2.281-2.087 2.386-.135.104-3.295 4.8-5.128 7.543l-.284.432-5.858-3.831zm-2.46-5.188a1.191 1.191 0 0 1-.939-.283 1.61 1.61 0 0 1-.477-1.402l-.611-.656a21.302 21.302 0 0 1-3.742.343h-.521v-8.75c0-.403-2.982-40.4 30.171-51.73l14.907-2.236-.64.984a2.79 2.79 0 0 1-.537.641l-2.251 2.072.432.075h.12l.104.074a13.717 13.717 0 0 1 2.981 3.504c1.312 2.176 3.518 7.021 3.623 7.23V30.693c0 .09-.984 7.364-1.312 11.538l4.546-8.616 2.415-3.16-5.456-3.206 2.49-8.11.954-2.072-6.947-4.218.268-3.966L55.246 3.04a.313.313 0 0 0-.209 0 1.804 1.804 0 0 0-1.028.895l-.373.596-5.963-3.399h-.194l-3.115.194c-.447 0-1.118.686-1.387 1.49l-1.147 3.49h-.298a26.22 26.22 0 0 0-1.715.431h-.209l-4.472-2.534c-.09 0-.268 0-.477.09l-3.264 2.087a2.61 2.61 0 0 0-1.133 1.967v3.206l-.224.149a51.098 51.098 0 0 0-4.472 3.548l-.283.253-2.669-1.49-.193-.09c-.134 0-.418 0-.805.492L18.5 17.813a2.146 2.146 0 0 0-.626 1.953l1.193 2.415-.194.268a64.565 64.565 0 0 0-4.472 6.47l-.239.387-2.385-1.088c-.224-.119-.865.239-1.297 1.029L8.2 33.496c-.373.7-.329 1.282-.135 1.49l2.4 1.312-.194.432a66.09 66.09 0 0 0-2.683 7.052l-.09.298-2.98.596a2.296 2.296 0 0 0-1.357 1.67l-1.059 4.353a.984.984 0 0 0 .075.85l-.343.402.477-.343 3.16 1.804v.343a43.233 43.233 0 0 0-.238 4.338v.403l-3.13 2.191a2.55 2.55 0 0 0-1.03 2.013l.359 3.712s0 .283.208.357l5.963 3.43-2.683 3.338a1.967 1.967 0 0 0-.492 1.879l1.625 2.34c.283.269 3.95 2.788 6.156 4.294l10.54 6.097 4.755-5.68-1.655-1.923zm17.099-1.327l3.83 2.415 3.295-8.11-.268.299-.09.104h-.134a95.14 95.14 0 0 1-12.596 3.503 51.045 51.045 0 0 1-6.708.105l-.373 2.236a3.92 3.92 0 0 1-.79 1.714l.209 3.638 4.546 2.981a86.018 86.018 0 0 1 4.98-7.29c.163-.149 1.37-1.49 2.43-2.802l.431-.537 1.238 1.744zm27.801-32.573l-3.577-2.117v.12a12.865 12.865 0 0 1-1.163 4.278l.432-.581 3.503-1.119.805-.58z" fill="#15100C"/><path d="M20.08 78.01V67.753c3.504 1.148 7.901.507 12.686-2.266 11.36-6.559 20.572-22.51 20.572-35.629 0-4.934-1.297-8.765-3.518-11.27l13.7-2.072a2.847 2.847 0 0 1-.463.566l-2.698 2.564v.269c.596.09 1.178.209 1.178.209a13.281 13.281 0 0 1 2.817 3.354c1.312 2.176 3.593 7.17 3.593 7.17s-1.49 11.405-1.416 14.013c.074 2.61-5.322 13.253-6.082 15.325-.76 2.073-11.076 13.417-11.076 13.417a99.137 99.137 0 0 1-12.492 3.474c-2.356.18-4.721.21-7.081.09l-.448 2.683a2.982 2.982 0 0 1-1.67 2.206l-1.356-1.938c-.745.253-1.237-.328-1.073-1.297l-1.297-1.044c-1.275.27-2.573.415-3.876.433z" fill="#15100C"/><path d="M26.148 80.529a1.238 1.238 0 0 1-.91-.283 1.624 1.624 0 0 1-.492-1.357l-.88-.7a20.87 20.87 0 0 1-3.786.342h-.521V67.038l.685.223c3.518 1.148 7.752.373 12.269-2.221 11.195-6.47 20.303-22.257 20.303-35.182 0-4.651-1.163-8.423-3.399-10.927l-.626-.73 15.802-2.37-.641.983c-.146.24-.327.456-.537.641l-2.206 2.072.432.075h.12l.104.074a13.717 13.717 0 0 1 2.981 3.504c1.312 2.176 3.518 7.021 3.623 7.23V30.693c0 .12-1.491 11.39-1.417 13.924.075 1.848-2.146 6.827-4.636 12.194a82.824 82.824 0 0 0-1.49 3.324c-.776 2.102-10.122 12.463-11.18 13.64l-.09.105h-.134a95.123 95.123 0 0 1-12.597 3.504 51.065 51.065 0 0 1-6.708.104l-.313 2.28a3.503 3.503 0 0 1-1.997 2.61l-.373.119-1.386-1.968zm3.756-4.04c2.333.144 4.673.144 7.006 0a97.166 97.166 0 0 0 12.254-3.414c4.114-4.562 10.36-11.762 10.882-13.193.224-.596.79-1.834 1.49-3.399 1.715-3.727 4.607-9.973 4.473-11.732-.104-2.475 1.207-12.523 1.401-13.939-.373-.82-2.34-5.053-3.503-6.992a13.417 13.417 0 0 0-2.609-3.145l-1.028-.179h-.358l-.164-.894 2.325-2.207-11.3 1.566a17.89 17.89 0 0 1 3.072 10.897c0 13.268-9.362 29.457-20.87 36.091-4.472 2.594-8.78 3.444-12.418 2.505v9.019a19.188 19.188 0 0 0 3.28-.358h.238l1.73 1.387v.313c0 .372 0 .61.104.7a.268.268 0 0 0 .283 0l.373-.119 1.327 1.893c.502-.412.845-.987.969-1.625l.521-3.13.522-.045z" fill="#15100C"/><path d="M10.972 68.692l.358 3.712c.09.835.775 1.089 1.49.552l2.982-2.087a21.51 21.51 0 0 0 1.759 4.979l-2.564 3.31a2.37 2.37 0 0 0-.507 2.504l1.7 2.43c.387.552 1.252.313 1.908-.522l2.728-3.384a13.418 13.418 0 0 0 3.637 2.564l-1.878 4.07c-.463.984-.328 1.908.298 2.072l2.758.73c.626.165 1.49-.506 1.952-1.49l1.909-4.13a18.935 18.935 0 0 0 4.949-.342l-.686 4.084c-.164.97.328 1.491 1.088 1.297l3.324-1.103a2.982 2.982 0 0 0 1.67-2.206l.686-4.115c.88-.417 1.774-.88 2.683-1.401a40.833 40.833 0 0 0 2.698-1.715l.686 3.325c.149.79.894.91 1.654.298l3.34-2.758a2.981 2.981 0 0 0 1.073-2.534l-.686-3.295a60.823 60.823 0 0 0 4.95-5.366l1.908 1.938c.447.447 1.326.104 1.952-.776l2.758-3.905c.626-.895.76-1.983.313-2.445l-1.878-1.893a68.712 68.712 0 0 0 3.697-6.813l2.728.253c.67 0 1.49-.7 1.908-1.7l1.7-4.472c.387-.998.163-1.848-.507-1.908l-2.654-.238a55.589 55.589 0 0 0 1.76-7.022l2.98-1.356a3.07 3.07 0 0 0 1.491-2.326l.358-4.13c.075-.924-.477-1.4-1.252-1.058L71.3 31.647v-.238a32.793 32.793 0 0 0-.507-5.86l2.713-2.43a2.832 2.832 0 0 0 .894-2.563l-1.043-3.13c-.239-.716-1.029-.716-1.774 0L68.96 19.84a16.189 16.189 0 0 0-2.757-4.055l2.012-3.25c.567-.924.626-1.967.104-2.34l-2.28-1.61c-.522-.358-1.402.104-1.983 1.029l-1.953 3.16a14.355 14.355 0 0 0-4.561-1.252l1.058-3.34c.313-.998 0-1.759-.715-1.714l-3.116.194A2.594 2.594 0 0 0 52.92 8.54l-1.028 3.295a26.166 26.166 0 0 0-5.59 1.833v-2.981c0-.895-.626-1.252-1.387-.805l-3.413 1.968a3.101 3.101 0 0 0-1.402 2.43v2.981a51.419 51.419 0 0 0-5.575 4.592l-1.028-2.087c-.313-.626-1.148-.522-1.849.253l-3.116 3.399a2.623 2.623 0 0 0-.715 2.534l1.058 2.132a66.944 66.944 0 0 0-4.561 6.515l-1.864-.925c-.58-.253-1.49.299-1.982 1.268l-2.281 4.248c-.507.954-.462 1.953.104 2.221l2.013.925a63.913 63.913 0 0 0-2.758 7.245l-2.624.522a2.817 2.817 0 0 0-1.759 2.057l-1.148 4.353c-.238.984.165 1.67.895 1.49l2.698-.551a43.57 43.57 0 0 0-.507 6.455v.224l-2.892 2.027a3.071 3.071 0 0 0-1.237 2.534zm11.672-9.108c0-13.119 9.213-29.07 20.572-35.644 11.36-6.575 20.572-1.238 20.572 11.926 0 13.163-9.213 28.995-20.572 35.6-11.36 6.603-20.572 1.237-20.572-11.882z" fill="#FDBC38"/><path d="M25.521 90.07l-2.772-.73a1.282 1.282 0 0 1-.805-.672 2.653 2.653 0 0 1 .164-2.131l1.654-3.593a14.906 14.906 0 0 1-2.98-1.983l-2.371 2.982a2.28 2.28 0 0 1-1.774 1.014 1.192 1.192 0 0 1-.969-.522l-1.714-2.43a2.818 2.818 0 0 1 .536-3.13l2.445-2.982a22.798 22.798 0 0 1-1.49-4.055l-2.356 1.64a1.581 1.581 0 0 1-1.595.268 1.386 1.386 0 0 1-.76-1.193l-.209-3.816a3.594 3.594 0 0 1 1.49-2.981l2.67-1.879a42.914 42.914 0 0 1 .312-5.724l-1.968.387a1.238 1.238 0 0 1-1.192-.328 1.937 1.937 0 0 1-.313-1.818l1.043-4.353a3.354 3.354 0 0 1 2.177-2.445l2.31-.477a66.37 66.37 0 0 1 2.49-6.53l-1.49-.7a1.297 1.297 0 0 1-.687-.79 2.982 2.982 0 0 1 .328-2.162l2.296-4.249c.656-1.237 1.804-1.878 2.654-1.49l1.49.715a66.95 66.95 0 0 1 4.144-5.963l-.909-1.819a3.07 3.07 0 0 1 .79-3.13l3.116-3.4a2.146 2.146 0 0 1 1.774-.82 1.223 1.223 0 0 1 .924.701l.73 1.491a47.701 47.701 0 0 1 4.89-4.01v-2.639a3.608 3.608 0 0 1 1.654-2.877l3.414-1.968a1.357 1.357 0 0 1 2.177 1.253v2.131a27.255 27.255 0 0 1 4.636-1.49l.954-2.982a2.982 2.982 0 0 1 2.31-2.25l3.116-.21a1.178 1.178 0 0 1 1.058.477 2.071 2.071 0 0 1 .18 1.938l-.865 2.729c1.261.181 2.494.527 3.667 1.028l1.714-2.773a2.982 2.982 0 0 1 1.714-1.356 1.252 1.252 0 0 1 1.014.194l2.325 1.61c.76.536.776 1.848 0 2.981l-1.803 2.907a15.937 15.937 0 0 1 2.25 3.25l2.118-2.013a1.91 1.91 0 0 1 1.729-.626 1.253 1.253 0 0 1 .894.865l1.059 3.13a3.34 3.34 0 0 1-1.044 3.101l-2.49 2.386a32.78 32.78 0 0 1 .463 5.098l2.161-.984a1.401 1.401 0 0 1 1.416 0 1.624 1.624 0 0 1 .567 1.49l-.358 4.13a3.578 3.578 0 0 1-1.848 2.758l-2.728 1.237a54.527 54.527 0 0 1-1.491 6.202l2.012.179a1.193 1.193 0 0 1 .94.581 2.31 2.31 0 0 1 0 2.042l-1.7 4.473a2.878 2.878 0 0 1-2.445 2.027l-2.37-.209c-.984 2.073-2.117 4.115-3.324 6.113l1.52 1.67a2.564 2.564 0 0 1-.253 3.1l-2.728 3.906a2.534 2.534 0 0 1-1.759 1.192 1.193 1.193 0 0 1-.984-.357l-1.49-1.491a61.506 61.506 0 0 1-4.398 4.77l.611 2.982a3.413 3.413 0 0 1-1.252 2.981l-3.34 2.758a1.774 1.774 0 0 1-1.669.433 1.282 1.282 0 0 1-.835-1.029l-.522-2.55c-.715.463-1.4.895-2.072 1.283-.67.388-1.64.91-2.489 1.312l-.67 3.876a3.488 3.488 0 0 1-2.013 2.609l-3.325 1.103a1.313 1.313 0 0 1-1.311-.209 1.76 1.76 0 0 1-.448-1.67l.552-3.354a19.181 19.181 0 0 1-3.98.254l-1.76 3.801a2.803 2.803 0 0 1-2.22 1.819c-.105.009-.21.004-.314-.015zm4.026-6.649a17.798 17.798 0 0 0 4.8-.343l.745-.134-.805 4.83c0 .373 0 .626.104.7a.313.313 0 0 0 .284 0l3.339-1.117a2.444 2.444 0 0 0 1.311-1.79l.73-4.382.254-.12c.895-.417 1.79-.879 2.654-1.386a50.733 50.733 0 0 0 2.653-1.67l.641-.447.85 4.085c0 .104 0 .224.149.253a.865.865 0 0 0 .67-.268l3.325-2.743a2.446 2.446 0 0 0 .91-2.027l-.746-3.578.209-.209a57.905 57.905 0 0 0 4.904-5.232l.358-.448 2.325 2.34a.18.18 0 0 0 .164 0 1.581 1.581 0 0 0 .984-.745l2.758-3.92c.537-.76.582-1.491.373-1.76l-2.177-2.19.224-.358a69.379 69.379 0 0 0 3.652-6.694l.15-.328 3.085.283c.313 0 1.029-.492 1.371-1.371l1.715-4.398a1.37 1.37 0 0 0 0-1.103s-.075-.09-.134-.09l-3.31-.298.194-.626a54.454 54.454 0 0 0 1.744-6.947v-.268l3.22-1.49a2.565 2.565 0 0 0 1.237-1.894l.358-4.13a.671.671 0 0 0-.134-.566h-.373l-3.652 1.67v-1.059c.01-1.93-.159-3.856-.507-5.754v-.283l2.982-2.743a2.325 2.325 0 0 0 .76-1.998l-1.058-3.146a.253.253 0 0 0-.135-.178.998.998 0 0 0-.76.372l-3.145 2.982-.313-.641a15.892 15.892 0 0 0-2.669-3.936l-.283-.298 2.221-3.578c.477-.76.462-1.49.254-1.64L65.68 9.017h-.194c-.443.15-.811.465-1.028.88l-2.207 3.563-.417-.194a13.713 13.713 0 0 0-4.398-1.208l-.626-.074 1.238-3.936a1.177 1.177 0 0 0 0-.984.164.164 0 0 0-.18 0l-3.115.194c-.432 0-1.103.686-1.371 1.49l-1.133 3.579h-.298a25.686 25.686 0 0 0-5.411 1.848l-.746.328v-3.771c0-.269-.074-.403-.149-.448-.075-.044-.224 0-.462.09l-3.354 1.982a2.61 2.61 0 0 0-1.133 1.968v3.205l-.224.15a49.06 49.06 0 0 0-5.5 4.472l-.522.492-1.357-2.728c0-.105-.09-.12-.134-.12-.045 0-.507.12-.85.492l-3.115 3.4a2.146 2.146 0 0 0-.626 1.952l1.192 2.415-.208.269a68.556 68.556 0 0 0-4.473 6.455l-.238.402-2.385-1.103c-.239-.12-.865.253-1.297 1.043l-2.28 4.234a1.923 1.923 0 0 0-.254 1.342c.02.067.061.125.119.164l2.475 1.148-.21.462a64.398 64.398 0 0 0-2.831 7.26l-.09.298-2.981.596a2.296 2.296 0 0 0-1.357 1.655l-1.058 4.368a.984.984 0 0 0 0 .835s0 .074.223 0l3.429-.7-.104.745a43.571 43.571 0 0 0-.507 6.454v.418l-3.116 2.177a2.58 2.58 0 0 0-1.028 2.012l.357 3.712c0 .179.075.313.15.343.074.03.298 0 .566-.164l3.622-2.534.18.76c.367 1.69.942 3.327 1.714 4.875l.149.298-2.863 3.563a1.953 1.953 0 0 0-.491 1.878l1.699 2.43a.18.18 0 0 0 .149 0 1.49 1.49 0 0 0 .924-.626l3.071-3.817.418.388a12.882 12.882 0 0 0 3.532 2.4l.477.224-2.101 4.547c-.206.373-.259.81-.15 1.222 0 .105.105.12.12.12l2.758.73c.298 0 .954-.358 1.356-1.193l2.057-4.472.463.149zm-1.134-10.063c-4.054-2.34-6.29-7.23-6.29-13.774 0-13.268 9.346-29.458 20.87-36.092 5.664-3.264 11.016-3.786 15.07-1.49 4.055 2.296 6.276 7.245 6.276 13.774 0 13.268-9.346 29.458-20.87 36.092a19.183 19.183 0 0 1-9.45 2.892 11.03 11.03 0 0 1-5.605-1.402zm14.55-2.34c11.195-6.47 20.303-22.257 20.303-35.197 0-6.142-2.042-10.718-5.769-12.865-3.727-2.147-8.69-1.625-14.013 1.49-11.21 6.47-20.318 22.243-20.318 35.182 0 6.157 2.043 10.72 5.77 12.866 3.726 2.146 8.69 1.64 14.027-1.491v.015z" fill="#15100C"/><path d="M53.73 3.342l-.517.906 4.803 2.741.517-.906-4.803-2.741zM41.723 5.418l-.518.906 10.441 5.975.519-.906-10.442-5.975zM39.931 5.822l-.52.905 6.09 3.496.52-.904-6.09-3.497zM29.941 10.842l-.518.906 10.442 5.973.518-.906-10.442-5.973zM25.455 14.41l-.518.905 7.92 4.53.517-.905-7.919-4.53zM18.706 21.651l-.518.906 10.442 5.974.518-.906-10.442-5.974zM12.194 27.275l-.518.905 10.441 5.976.519-.906-10.442-5.975zM9.988 36.037l-.493.92 8.079 4.334.493-.92-8.079-4.334zM7.27 43.144l-.518.905 10.441 5.976.518-.906-10.44-5.975zM5.192 53.234l-.503.915 7.157 3.938.503-.914-7.157-3.939zM4.92 57.732l-.518.906 10.442 5.973.518-.906L4.92 57.732zM7.07 69.881l-.492.92 4.637 2.487.493-.92-4.637-2.487zM12.276 72.747l-.446.943 5.539 2.62.446-.944-5.539-2.619z" fill="#15100C"/><path d="M14.49 90.383l1.49-1.073v-.135c0-.745 0-1.49.12-2.28l-1.49-.865h-.12a.715.715 0 0 1-.12-.73l.552-2.311a1.49 1.49 0 0 1 .94-1.088l1.386-.284c.42-1.286.917-2.546 1.49-3.771l-.79-.448-.253-.119a.313.313 0 0 1-.12-.09 1.059 1.059 0 0 1 0-1.087l1.223-2.252c.268-.506.746-.804 1.044-.67l1.043.477a36.817 36.817 0 0 1 2.415-3.459l-.566-1.118a1.49 1.49 0 0 1 .387-1.356l1.655-1.804c.253-.284.507-.403.715-.328l1.431.76a30.878 30.878 0 0 1 2.37-1.908v-1.491a1.654 1.654 0 0 1 .746-1.282l1.819-1.044a.492.492 0 0 1 .566 0l2.206 1.268c.314-.09.612-.164.925-.224l.551-1.76a1.386 1.386 0 0 1 .97-.998l1.654-.104H39.012l2.981 1.684v-.09c.299-.491.776-.745 1.044-.55l5.545 3.175-.149 2.101 3.831 2.237-.61 1.326-1.238 4.07 2.981 1.744-1.49 1.909-2.773 5.247 2.49 1.49-.82.552-1.82.582-1.58 2.191a16.395 16.395 0 0 0 1.491-4.383c0-1.386.76-7.453.76-7.453s-1.237-2.61-1.863-3.817a7.17 7.17 0 0 0-1.49-1.789l-.627-.104v-.134l1.491-1.372c.093-.092.177-.192.254-.298l-7.275 1.103c-17.56 5.963-15.772 27.147-15.772 27.147v4.383c.696.001 1.39-.069 2.072-.209l.522.552c-.09.522.164.82.567.685l.894 1.029a1.575 1.575 0 0 0 .88-1.163l.238-1.49c1.251.08 2.506.08 3.757 0a52.405 52.405 0 0 0 6.633-1.834l1.193-1.357-2.4 5.963a.134.134 0 0 1-.15.031.135.135 0 0 1-.044-.031l-2.236-1.401-.462-.656s-1.208 1.491-1.327 1.491c-.12 0-2.758 4.04-2.758 4.04l-2.758-1.804-.104-1.834-2.981 3.578a.104.104 0 0 1-.067.025.104.104 0 0 1-.067-.025l-5.71-3.309s-3.264-2.221-3.339-2.326l-.894-1.297a1.237 1.237 0 0 1 .268-1.327l1.222-1.49-2.892-1.655a.447.447 0 0 1-.253-.403l-.358-1.848a1.595 1.595 0 0 1 .671-1.312z" fill="#FEBD33"/><path d="M28.413 104.023v-.894l-2.206 2.653a.568.568 0 0 1-.745.135l-5.74-3.325a26.568 26.568 0 0 1-3.443-2.445l-.91-1.297a1.655 1.655 0 0 1 .284-1.878l.88-1.103-2.37-1.357a.91.91 0 0 1-.523-.79l-.283-2.027a2.072 2.072 0 0 1 .865-1.744l1.327-.94c0-.596 0-1.237.104-1.908l-1.193-.67a.882.882 0 0 1-.253-.15 1.163 1.163 0 0 1-.283-1.192l.566-2.311a1.922 1.922 0 0 1 1.297-1.49l1.118-.224a36.041 36.041 0 0 1 1.193-3.176l-.626-.328a.73.73 0 0 1-.269-.208 1.491 1.491 0 0 1 0-1.625l1.208-2.251c.402-.746 1.118-1.118 1.654-.865l.671.298a32.778 32.778 0 0 1 2.043-2.981l-.433-.865a1.819 1.819 0 0 1 .462-1.878l1.64-1.804a1.177 1.177 0 0 1 1.193-.477l1.207.67a26.11 26.11 0 0 1 1.968-1.58v-1.311A2.058 2.058 0 0 1 29.8 61l1.804-1.044a.924.924 0 0 1 1.028 0l2.042 1.163.492-.119.477-1.49a1.803 1.803 0 0 1 1.387-1.328l1.654-.104a.791.791 0 0 1 .328 0 .639.639 0 0 1 .209.104l2.579 1.491c.213-.254.5-.436.82-.522a.804.804 0 0 1 .656.105l5.799 3.31-.15 2.116 3.876 2.356-.775 1.64-1.133 3.711 2.862 1.82.09.446-1.49 2.013-2.55 4.845 2.087 1.192.239.164v.552l-1.029.7-1.789.597-4.13 5.665 1.82-4.07a14.458 14.458 0 0 0 1.49-4.174c0-1.297.611-6.455.73-7.454-.238-.537-1.222-2.653-1.818-3.637a7.259 7.259 0 0 0-1.297-1.595l-.492-.075-.358-.194-.104-.566.88-.835-5.814.865C23.21 74.462 24.746 95.124 24.76 95.362v3.906c.5-.031.999-.096 1.49-.194h.254l.85.91v.223a.817.817 0 0 0 0 .164l.268-.089.835.954c.167-.174.28-.391.328-.627l.298-1.833h.418c1.226.085 2.456.085 3.682 0a50.051 50.051 0 0 0 6.425-1.774l1.118-1.267 1.803-2.043-3.532 8.438a.637.637 0 0 1-.373.343.615.615 0 0 1-.507 0l-2.236-1.401-.239-.299c-.29.387-.609.75-.954 1.089-.179.194-1.744 2.549-2.698 3.98l-.268.388-3.31-2.207zm-1.207-2.668a.807.807 0 0 1-.537-.209.996.996 0 0 1-.328-.805l-.193-.223a9.765 9.765 0 0 1-1.923.164h-.463v-4.8c0-.224-1.61-21.587 16.175-27.67l8.303-1.237-.567.865a1.987 1.987 0 0 1-.313.388l-.894.85h.074a7.708 7.708 0 0 1 1.61 1.922c.701 1.163 1.879 3.742 1.923 3.847v.253s-.402 2.982-.61 5.188l1.997-3.772 1.148-1.49-2.833-1.685 1.372-4.472.432-.954-3.637-2.207.134-2.102-5.262-2.981s-.254.104-.433.387l-.298.477-3.354-1.923-1.655.105c-.119 0-.432.268-.551.67l-.656 1.939h-.268l-.895.223h-.194l-2.37-1.371h-.104l-1.804 1.043a1.178 1.178 0 0 0-.507.88v1.804l-.194.134a25.067 25.067 0 0 0-2.34 1.863l-.253.239-1.491-.91a.583.583 0 0 0-.253.209l-1.7 1.998a.983.983 0 0 0-.298.82l.686 1.386-.18.239a32.593 32.593 0 0 0-2.4 3.369l-.208.357-1.386-.656a.969.969 0 0 0-.477.463l-1.253 2.295c-.08.17-.135.351-.164.537l1.491.79-.179.388a34.596 34.596 0 0 0-1.416 3.727l-.074.253-1.67.343a1.044 1.044 0 0 0-.566.745l-.567 2.311v.268l1.804 1.014v.313c-.075.775-.12 1.49-.12 2.221v.373l-1.729 1.222a1.102 1.102 0 0 0-.462.88l.194 2.027 3.384 1.923-1.58 1.953a1 1 0 0 0-.254.76l.85 1.223c.194.164 2.102 1.491 3.235 2.266l5.456 3.16 2.296-2.832-.701-.775zm10.435-1.685l.64 1.774 1.492-3.533a49.931 49.931 0 0 1-6.515 1.804c-1.142.07-2.287.07-3.428 0l-.164 1.014a2.149 2.149 0 0 1-.418.939l.105 1.759 2.176 1.491a43.404 43.404 0 0 1 2.579-3.757c.104-.089.716-.82 1.267-1.49l.388-.463 1.878.462zm13.133-16.487l-1.401-.806A7.077 7.077 0 0 1 49 83.868l1.58-.507.194-.178z" fill="#15100C"/><path d="M24.21 99.82v-5.442a8.317 8.317 0 0 0 6.723-1.207A24.12 24.12 0 0 0 41.83 74.268a8.84 8.84 0 0 0-1.864-5.963l7.275-1.103a2.435 2.435 0 0 1-.254.298l-1.49 1.371v.135l.626.104a7.17 7.17 0 0 1 1.49 1.789c.701 1.148 1.909 3.801 1.909 3.801s-.805 6.053-.76 7.454c.044 1.401-2.818 7.036-3.22 8.125a72.948 72.948 0 0 1-5.874 7.155 52.41 52.41 0 0 1-6.633 1.834c-1.251.08-2.506.08-3.757 0l-.239 1.491a1.585 1.585 0 0 1-.88 1.162l-.73-1.028c-.387.134-.655-.164-.566-.686l-.686-.551c-.649.118-1.308.173-1.968.163z" fill="#15100C"/><path d="M27.325 101.355a.778.778 0 0 1-.507-.209.957.957 0 0 1-.328-.76l-.343-.268a9.912 9.912 0 0 1-1.952.164h-.463v-6.545l.612.194a7.872 7.872 0 0 0 6.35-1.163 23.658 23.658 0 0 0 10.688-18.5 8.452 8.452 0 0 0-1.759-5.68l-.566-.64 9.153-1.372-.567.864a1.983 1.983 0 0 1-.313.388l-.894.85h.074a7.71 7.71 0 0 1 1.61 1.923c.701 1.162 1.879 3.741 1.923 3.846v.253s-.805 5.963-.745 7.364c0 1.014-1.103 3.578-2.474 6.56-.373.79-.671 1.49-.79 1.744-.403 1.118-5.04 6.276-5.963 7.305l-.09.09h-.104a51.116 51.116 0 0 1-6.723 1.878c-1.142.07-2.287.07-3.429 0l-.164 1.013a2.011 2.011 0 0 1-1.192 1.491l-.343.119-.701-.909zm2.072-2.534c1.226.084 2.456.084 3.682 0a50.076 50.076 0 0 0 6.425-1.774 63.994 63.994 0 0 0 5.695-6.918c.119-.313.432-.968.82-1.803a28.86 28.86 0 0 0 2.385-6.142c0-1.297.61-6.455.73-7.454-.239-.537-1.222-2.654-1.819-3.637a7.262 7.262 0 0 0-1.296-1.596l-.492-.074-.358-.194-.105-.566.865-.835-5.083.775a9.943 9.943 0 0 1 1.49 5.635 24.733 24.733 0 0 1-11.15 19.38 9.257 9.257 0 0 1-6.5 1.401v4.353c.501-.03 1-.096 1.491-.194h.209l1.073.85v.269a.803.803 0 0 0 0 .164l.313-.105.656.939c.149-.17.251-.375.298-.596l.298-1.834.373-.044z" fill="#15100C"/><path d="M19.365 94.87l.194 1.968c0 .447.402.581.82.298l1.58-1.103c.203.913.513 1.798.924 2.638l-1.401 1.76a1.233 1.233 0 0 0-.269 1.326l.895 1.282c.208.299.67.179 1.013-.268l1.491-1.789a7.192 7.192 0 0 0 1.953 1.327l-.999 2.162c-.238.521-.164 1.013.164 1.088l1.49.387c.344.09.806-.268 1.044-.79l1.014-2.191a10 10 0 0 0 2.624-.179l-.358 2.162c-.09.521.164.82.566.685l1.774-.581a1.585 1.585 0 0 0 .88-1.163l.357-2.191a34.23 34.23 0 0 0 1.491-.746c.537-.283.954-.581 1.491-.894l.358 1.759c.09.417.477.477.88.149l1.773-1.491a1.489 1.489 0 0 0 .567-1.341l-.358-1.76a29.797 29.797 0 0 0 2.623-2.832l1.014 1.014c.239.253.7 0 1.029-.403l1.49-2.072c.328-.477.403-1.058.165-1.297l-1-1.014a36.083 36.083 0 0 0 1.745-3.547l1.49.134c.358 0 .82-.373 1.014-.895l.91-2.34c.208-.522.089-.984-.269-1.014l-1.49-.12c.395-1.22.708-2.465.939-3.726l1.58-.73a1.58 1.58 0 0 0 .82-1.223l.194-2.191c0-.492-.254-.746-.671-.567l-1.491.7v-.119a16.97 16.97 0 0 0-.268-3.115l1.49-1.357a1.49 1.49 0 0 0 .477-1.356l-.551-1.67c-.134-.373-.552-.373-.94 0l-1.386 1.327a8.555 8.555 0 0 0-1.49-2.147l1.073-1.73c.298-.491.328-1.043 0-1.237l-1.208-.85c-.268-.193-.745 0-1.043.537l-1.044 1.685a7.17 7.17 0 0 0-2.414-.671l.551-1.774c.179-.522 0-.94-.373-.91l-1.654.105a1.387 1.387 0 0 0-.97.999l-.55 1.744a14.104 14.104 0 0 0-2.982.984v-1.49c0-.478-.328-.657-.73-.433l-1.82 1.058a1.624 1.624 0 0 0-.745 1.282v1.491a26.165 26.165 0 0 0-2.981 2.445l-.552-1.118c-.164-.328-.596-.269-.969.134l-1.64 1.76a1.492 1.492 0 0 0-.387 1.356l.566 1.118a34.966 34.966 0 0 0-2.415 3.488l-1.043-.477c-.298-.134-.775.164-1.044.671l-1.222 2.251c-.268.507-.238 1.043 0 1.178l1.058.492a34.474 34.474 0 0 0-1.49 3.846l-1.387.283a1.49 1.49 0 0 0-.939 1.088l-.551 2.311c-.134.522.074.88.477.805l1.49-.298a22.598 22.598 0 0 0-.268 3.429v.119l-1.49 1.073a1.624 1.624 0 0 0-.686 1.312zm6.186-4.83a24.15 24.15 0 0 1 10.927-18.918c5.963-3.473 10.912-.656 10.912 6.306a24.166 24.166 0 0 1-10.912 18.918c-6.037 3.488-10.927.656-10.927-6.306z" fill="#FDBC38"/><path d="M20.378 97.061l1.58-1.118c.202.92.518 1.812.94 2.654l-.522.641c.147.418.321.827.522 1.222l-1.357 1.67.567.82c.208.298.67.179 1.013-.268l1.491-1.804a6.855 6.855 0 0 0 1.953 1.327l-.686 1.49c.22.139.45.264.686.373l-.656 1.491 1.297.343c.328.089.79-.269 1.028-.79l1.014-2.192a9.956 9.956 0 0 0 2.624-.179l-.313 1.894h.313l-.164.954a.403.403 0 0 0 .372 0l1.774-.582a1.577 1.577 0 0 0 .88-1.177l.358-2.177c.477-.224.954-.462 1.49-.745.537-.284.954-.582 1.491-.91l.358 1.774c.09.403.477.477.88.149l1.773-1.49c.152-.131.278-.287.373-.463l-.164-.775.313-.313-.313-1.49a31.906 31.906 0 0 0 2.624-2.848l1.013 1.029c.239.238.7 0 1.029-.403l1.312-1.848-.671-.671c.238-.388.462-.775.686-1.163l-.686-.7a36.124 36.124 0 0 0 1.789-3.564l1.49.135c.343 0 .805-.373 1.014-.91l.567-1.49-1.342-.12c.194-.611.358-1.222.507-1.819h-.522a29.67 29.67 0 0 0 .94-3.726l1.58-.73a1.58 1.58 0 0 0 .82-1.238l.074-.79a.433.433 0 0 0-.552-.09l-1.49.7v-.133a16.922 16.922 0 0 0-.269-3.101l.209-.194a14.6 14.6 0 0 0-.209-1.67l1.49-1.371a1.82 1.82 0 0 0 .224-.253l-.298-.895c-.134-.373-.551-.387-.939 0l-1.386 1.327a8.646 8.646 0 0 0-1.49-2.147l.64-1.058a6.994 6.994 0 0 0-.656-.805l.82-1.327-.91-.626c-.268-.194-.745 0-1.043.537l-1.043 1.684a7.172 7.172 0 0 0-2.415-.67l.551-1.76c-.178 0-.357-.09-.551-.104l.253-.805h-.074l-1.655.104c-.373 0-.805.462-.969.999l-.552 1.744a13.64 13.64 0 0 0-2.98.97v-1.492c0-.477-.344-.67-.746-.432l-1.819 1.044a1.669 1.669 0 0 0-.73 1.297v1.49a26.446 26.446 0 0 0-2.982 2.43l-.551-1.103c-.164-.343-.597-.283-.97.134l-1.654 1.804-.075.105.254.506c-.194.239-.373.492-.552.746l.552 1.118a33.309 33.309 0 0 0-2.415 3.458l-1.044-.477c-.298-.149-.775.15-1.043.671l-.91 1.685.82.372c-.238.507-.447 1.029-.655 1.491l.656.298a31.87 31.87 0 0 0-1.491 3.846l-1.386.269a1.491 1.491 0 0 0-.94 1.103l-.298 1.237c.074.016.15.016.224 0l1.49-.298a21.324 21.324 0 0 0-.208 1.908h.209a22.583 22.583 0 0 0-.269 3.429v.12l-1.49 1.073c-.247.182-.438.43-.552.715l.075.716c-.12.358.238.492.655.209zm5.218-6.171v-.925a24.137 24.137 0 0 1 10.912-18.917c5.963-3.474 10.912-.656 10.912 6.306v1.863a24.152 24.152 0 0 1-10.927 18.918c-5.963 3.473-10.912.656-10.912-6.306-.015-.313 0-.626.015-.94z" fill="#FEEDCC"/><path d="M27.042 106.409l-1.49-.388a.907.907 0 0 1-.552-.462 1.491 1.491 0 0 1 .089-1.297l.805-1.744a7.45 7.45 0 0 1-1.282-.865l-1.133 1.416a1.323 1.323 0 0 1-1.103.597.787.787 0 0 1-.656-.358l-.91-1.282a1.686 1.686 0 0 1 .284-1.894l1.222-1.49a14.418 14.418 0 0 1-.67-1.819l-1.014.73a1.043 1.043 0 0 1-1.044.15.895.895 0 0 1-.507-.79l-.193-1.968a2.057 2.057 0 0 1 .88-1.76l1.326-.939c.015-.907.08-1.813.194-2.713l-.79.164a.879.879 0 0 1-.805-.238 1.223 1.223 0 0 1-.224-1.133L20.036 86a1.923 1.923 0 0 1 1.296-1.49l1.119-.224c.347-1.089.75-2.158 1.207-3.205l-.641-.299a.97.97 0 0 1-.462-.536 1.729 1.729 0 0 1 .194-1.297l1.192-2.162c.403-.745 1.118-1.118 1.655-.88l.67.314a33.046 33.046 0 0 1 2.043-2.982l-.432-.85a1.819 1.819 0 0 1 .447-1.878l1.655-1.804a1.281 1.281 0 0 1 1.118-.492.805.805 0 0 1 .626.462l.283.552a24.769 24.769 0 0 1 2.37-1.893v-1.312a2.133 2.133 0 0 1 .97-1.7l1.818-1.043a.998.998 0 0 1 .998 0 .984.984 0 0 1 .448.88v.85a15.703 15.703 0 0 1 2.117-.672l.477-1.49a1.775 1.775 0 0 1 1.386-1.327l1.655-.105a.865.865 0 0 1 .73.313 1.327 1.327 0 0 1 .12 1.208l-.388 1.237a8.17 8.17 0 0 1 1.625.463l.82-1.327a1.789 1.789 0 0 1 1.028-.82.909.909 0 0 1 .686.134l1.222.865a1.401 1.401 0 0 1 0 1.863l-.88 1.416c.388.462.727.961 1.014 1.491l.94-.894a1.207 1.207 0 0 1 1.103-.388.834.834 0 0 1 .596.581l.566 1.67a1.967 1.967 0 0 1-.596 1.849L51.58 72.27c.122.775.197 1.557.224 2.34l.879-.402a.91.91 0 0 1 .94 0 1.044 1.044 0 0 1 .387.984l-.194 2.177a2.073 2.073 0 0 1-1.088 1.624l-1.357.627c-.192 1.005-.436 2-.73 2.981h.834a.835.835 0 0 1 .642.403 1.402 1.402 0 0 1 0 1.252l-.895 2.326c-.283.73-.924 1.267-1.49 1.192l-1.119-.09a36.181 36.181 0 0 1-1.654 2.982l.745.746a1.49 1.49 0 0 1-.12 1.893l-1.49 2.072a1.49 1.49 0 0 1-1.073.716.76.76 0 0 1-.671-.254l-.656-.656c-.673.809-1.39 1.58-2.147 2.31l.313 1.492a2.043 2.043 0 0 1-.73 1.803l-1.774 1.491a1.07 1.07 0 0 1-1.073.268.888.888 0 0 1-.567-.685l-.223-1.074-.865.537c-.402.224-.82.447-1.252.656l-.313 1.938a2.043 2.043 0 0 1-1.193 1.491l-1.774.581a.913.913 0 0 1-.88-.134 1.128 1.128 0 0 1-.297-1.073l.253-1.491c-.582.085-1.17.12-1.759.104l-.88 1.908c-.112.284-.299.531-.54.717a1.69 1.69 0 0 1-.83.342l-.12.045zm2.191-3.906a9.117 9.117 0 0 0 2.505-.179l.656-.134-.463 2.922a.687.687 0 0 0 0 .149l1.744-.582a1.095 1.095 0 0 0 .567-.79l.403-2.43.223-.104c.462-.224.94-.462 1.386-.731.448-.268.925-.551 1.402-.88l.581-.402.447 2.445a.592.592 0 0 0 .18-.104l1.773-1.491a1.159 1.159 0 0 0 .417-.894l-.417-1.998.179-.179a31.041 31.041 0 0 0 2.594-2.802l.328-.403 1.312 1.357s.208-.075.387-.313l1.49-2.073a.984.984 0 0 0 .21-.7l-1.253-1.267.194-.314c.708-1.14 1.35-2.32 1.923-3.533l.15-.298 1.758.164a.953.953 0 0 0 .537-.611l.91-2.326c.089-.223.074-.372.118-.372l-1.982-.18.164-.566c.395-1.198.704-2.424.924-3.667v-.238l1.804-.82a1.147 1.147 0 0 0 .551-.85l.18-2.191v-.09l-1.491.7-.656.18v-.73c.001-1-.089-1.999-.269-2.982v-.254l1.625-1.49a1.072 1.072 0 0 0 .343-.865l-.477-1.64a.432.432 0 0 0-.238.149l-1.864 1.774-.283-.581a7.618 7.618 0 0 0-1.386-2.028l-.239-.268 1.103-2.132a.985.985 0 0 0 .18-.611l-1.164-.835s-.238.09-.417.388l-1.267 2.027-.373-.179a7.08 7.08 0 0 0-2.266-.626h-.581l.745-2.31v-.299l-1.625.09a1.041 1.041 0 0 0-.551.685l-.641 1.998h-.269c-.984.211-1.944.526-2.862.94l-.656.297v-2.355l-1.803 1.044a1.147 1.147 0 0 0-.507.88v1.848l-.194.149c-1.028.72-2 1.518-2.907 2.385l-.462.447-.76-1.64a.551.551 0 0 0-.283.194l-1.655 1.804a1.015 1.015 0 0 0-.298.835l.685 1.386-.178.239a32.577 32.577 0 0 0-2.251 3.384l-.21.343-1.385-.641c-.075 0-.299.134-.477.462l-1.208 2.25a1.49 1.49 0 0 0-.164.523l1.49.7-.193.418a32.808 32.808 0 0 0-1.49 3.786l-.075.268-1.67.343a1.043 1.043 0 0 0-.566.73l-.567 2.311v.239l2.072-.417-.104.656a22.215 22.215 0 0 0-.268 3.354v.372l-1.745 1.208a1.237 1.237 0 0 0-.462.894l.135 1.998c.049.01.1.01.149 0l2.146-1.49.15.685c.204.875.504 1.725.894 2.534l.149.269-1.61 1.997a1.004 1.004 0 0 0-.254.76l.835 1.253a.658.658 0 0 0 .343-.269l1.76-2.191.372.358c.536.507 1.15.925 1.819 1.237l.432.194-1.193 2.594c-.134.253-.104.447-.149.447l1.49.388a1.06 1.06 0 0 0 .493-.537l1.148-2.49.223-.059zm-.715-4.994c-2.207-1.267-3.429-3.921-3.429-7.454a24.72 24.72 0 0 1 11.15-19.38c3.071-1.774 5.963-2.042 8.2-.76 2.235 1.282 3.428 3.935 3.428 7.454a24.69 24.69 0 0 1-11.15 19.38 10.345 10.345 0 0 1-5.113 1.49 6.066 6.066 0 0 1-3.086-.73zm7.721-1.566a23.657 23.657 0 0 0 10.689-18.515c0-3.19-1.058-5.56-2.981-6.663-1.924-1.104-4.473-.82-7.245.775a23.614 23.614 0 0 0-10.689 18.5c0 3.19 1.059 5.56 2.982 6.664 1.923 1.103 4.472.835 7.244-.76z" fill="#15100C"/><path d="M44.574 63.392l-.51.789 2.178 1.408.51-.788-2.178-1.409zM42.168 60.03l-.47.813 2.621 1.513.47-.813-2.621-1.513zM35.756 61.124l-.466.816 5.54 3.166.465-.816-5.54-3.166z" fill="#15100C"/><path d="M34.861 61.383l-.467.814 3.205 1.842.468-.815-3.206-1.841zM29.556 64.03l-.466.814 5.538 3.168.466-.815-5.538-3.168zM27.154 65.905l-.472.812 4.1 2.38.472-.813-4.1-2.379zM23.559 69.727l-.467.815 5.538 3.169.466-.815-5.537-3.17zM20.084 72.686l-.466.815 5.538 3.168.466-.815-5.538-3.168zM17.625 79.684l-.47.808 4.487 2.609.47-.808-4.487-2.609zM17.526 81.167l-.466.816 5.538 3.168.466-.816-5.538-3.168zM16.369 86.487l-.467.815 3.895 2.228.466-.815-3.894-2.228zM16.24 88.876l-.467.815 5.538 3.168.466-.815-5.538-3.168zM17.39 95.323l-.462.817 2.71 1.536.463-.818-2.71-1.535zM22.644 99.074l.492-.805-2.52-1.535-.491.805 2.52 1.535z" fill="#15100C"/></svg>