<svg width="482" height="397" viewBox="0 0 482 397" fill="none" xmlns="http://www.w3.org/2000/svg"><path d="M30.29 241.47h-5.892v-2.498a18.867 18.867 0 0 1 8.663-14.994l4.226-2.438a7.862 7.862 0 0 1 7.996-.424 7.894 7.894 0 0 1 3.575 7.178c0 1.212.318 1.939.65 2.136.334.197 1.121.106 2.166-.5l4.665-2.756a13.097 13.097 0 0 0 5.755-9.951 18.873 18.873 0 0 1 8.663-14.993l3.983-2.317a7.24 7.24 0 0 1 10.897 2.535 7.24 7.24 0 0 1 .689 4.144c0 1.211.318 1.953.651 2.135.333.182 1.12.106 2.166-.5l3.392-1.953a13.137 13.137 0 0 0 5.74-9.951 18.852 18.852 0 0 1 8.648-14.978l4.029-2.317a7.227 7.227 0 0 1 8-.522 7.23 7.23 0 0 1 2.866 3.054 7.234 7.234 0 0 1 .689 4.132v3.241h-5.891v-3.241c0-1.212-.333-1.939-.651-2.136-.318-.197-1.121-.091-2.181.515l-4.014 2.317a13.097 13.097 0 0 0-5.74 9.935 18.87 18.87 0 0 1-8.662 14.994l-3.378 1.954a7.262 7.262 0 0 1-3.924 1.451 7.26 7.26 0 0 1-7.646-8.13c0-1.212-.319-1.954-.652-2.136-.333-.181-1.12-.106-2.165.5l-4.029 2.332a13.074 13.074 0 0 0-5.74 9.935 18.857 18.857 0 0 1-8.648 14.979l-4.65 2.696a7.958 7.958 0 0 1-3.938 1.332 7.958 7.958 0 0 1-4.073-.833 7.918 7.918 0 0 1-3.559-7.178c0-1.212-.333-1.954-.651-2.136-.318-.182-1.12-.106-2.181.5l-4.225 2.453a13.077 13.077 0 0 0-5.62 9.936v2.498z" fill="#FEC"/><path d="M115.586 174.166l7.921 51.008 124.582-118.16-132.503 67.152z" fill="#FFBE2E"/><path d="M122.916 226.598l-8.208-52.886.514-.257 132.518-67.183.985 1.242L124.022 225.78l-1.106.818zm-6.452-51.977l7.573 48.918L243.53 110.21l-127.066 64.411z" fill="#16110D"/><path d="M139.409 188.887l-16.735 36.106.242 1.605 37.014-27.14-20.521-10.571z" fill="#16110D"/><path d="M248.089 107.014L75.134 149.42l40.452 24.746 132.503-67.152zM248.089 107.014l-57.324 112.072-49.932-30.274 107.256-81.798z" fill="#FFBE2E"/><path d="M248.074 115.011l-55.885 109.27-49.978-30.29 104.802-79.874a.713.713 0 0 1 1.061.894zM114.707 173.712l1.757.909.5 3.21 116.404-59.004 13.04-10.965-16.645 8.436-156.31 38.331 40.452 24.747 1.56-.787-.758-4.877z" fill="#FEC"/><path d="M248.725 107.529l-.985-1.242-132.836 32.562-39.967 9.798-1.863.455 42.482 25.988 48.963-24.822 74.437-37.741 1.727-.879-36.605 27.928-63.73 48.6-.939.711 51.674 31.32 8.482-16.569 49.16-96.109zm-133.109 65.729l-38.377-23.52 41.179-10.087 43.633 10.056-46.435 23.551zm48.691-24.686l-42.406-9.769 89.779-22.021 29.896-7.33-77.269 39.12zm26.14 69.378l-48.191-29.214 33.425-25.519 22.884 38.801-8.118 15.932zm9.011-17.628l-22.475-38.075 43.027-32.803 25.746-19.689-46.298 90.567z" fill="#16110D"/><path d="M174.803 182.617l-8.724 10.314 13.631 13.1 8.662-10.45-13.569-12.964zm4.664 18.295l-9.299-8.784 4.771-5.709 9.269 8.693-4.741 5.8z" fill="#FFBE2E"/><path d="M179.452 200.913l-10.601-10.072 5.846-6.906 10.495 9.981-5.74 6.997zm-9.45-10.087l9.374 8.966 4.771-5.77-9.344-8.875-4.801 5.679z" fill="#16110D"/><path d="M179.634 205.017l-14.555-13.949 9.511-11.222 14.479 13.782-9.435 11.389zm-12.904-14.025l12.798 12.268 7.905-9.526-12.752-12.116-7.951 9.374z" fill="#16110D"/><path d="M187.509 172.5c0 7.74-6.891 14.055-15.372 14.055a15.141 15.141 0 0 1-14.918-10.783l-.787.59a16.118 16.118 0 0 0 15.705 11.102c8.981 0 16.281-6.71 16.281-14.964a14.935 14.935 0 0 0-9.238-13.479l-.833.637a14.058 14.058 0 0 1 9.162 12.842z" fill="#16110D"/><path d="M184.344 172.5c0 6.058-5.377 10.95-11.98 10.95a11.631 11.631 0 0 1-11.934-9.965l-.833.636a12.604 12.604 0 0 0 12.767 10.253c7.103 0 12.904-5.331 12.904-11.874a12.118 12.118 0 0 0-8.8-11.252l-.923.696a11.184 11.184 0 0 1 8.799 10.556zM35.97 243.273h-5.832v-2.469a18.885 18.885 0 0 1 8.648-14.993l4.24-2.439a7.898 7.898 0 0 1 7.997-.5 7.895 7.895 0 0 1 3.499 7.149c0 1.211.333 1.954.651 2.135.318.182 1.12.106 2.18-.499l4.741-2.696a13.074 13.074 0 0 0 5.74-9.935 18.858 18.858 0 0 1 8.648-14.979l4.028-2.332a7.254 7.254 0 0 1 11.571 6.679c0 1.212.318 1.954.651 2.135.334.182 1.121.106 2.166-.499l3.392-1.954a13.183 13.183 0 0 0 5.74-9.95 18.836 18.836 0 0 1 8.648-14.979l3.938-2.317a7.235 7.235 0 0 1 8.009-.514 7.242 7.242 0 0 1 3.562 7.193v3.226h-5.786v-3.226c0-1.227-.318-1.954-.651-2.135-.333-.182-1.121-.106-2.166.499l-4.028 2.318a13.107 13.107 0 0 0-4.016 4.305 13.109 13.109 0 0 0-1.724 5.63 18.89 18.89 0 0 1-8.648 14.993l-3.392 1.939a7.241 7.241 0 0 1-11.556-6.679c0-1.212-.333-1.954-.651-2.136-.318-.181-1.12-.106-2.181.5l-4.014 2.332a13.082 13.082 0 0 0-5.74 9.935 18.814 18.814 0 0 1-8.662 14.979l-4.65 2.696a7.897 7.897 0 0 1-7.996.499 7.882 7.882 0 0 1-3.56-7.178c0-1.212-.332-1.954-.65-2.136-.319-.181-1.121-.106-2.181.5l-4.226 2.454a13.061 13.061 0 0 0-5.74 9.98v2.469z" fill="#16110D"/><path d="M4.377 285.118H0v-1.196a9.695 9.695 0 0 1 4.543-7.815l2.015-1.166a4.544 4.544 0 0 1 4.543-.243 4.543 4.543 0 0 1 2.09 4.105.556.556 0 0 0 0 .166h.136l2.212-1.272a5.44 5.44 0 0 0 2.317-4.044 9.722 9.722 0 0 1 4.543-7.814l1.924-1.106a4.55 4.55 0 0 1 4.543-.242 4.54 4.54 0 0 1 2.09 4.119v.152h.152l1.605-.924a5.463 5.463 0 0 0 2.332-4.044 9.688 9.688 0 0 1 4.544-7.815l1.908-1.105a4.221 4.221 0 0 1 4.612-.246 4.226 4.226 0 0 1 2.082 4.123v1.514h-4.27v-1.514-.167l-.137.076-1.908 1.106a5.386 5.386 0 0 0-2.333 4.028 9.737 9.737 0 0 1-4.543 7.83l-1.605.924a4.55 4.55 0 0 1-4.544.242 4.542 4.542 0 0 1-2.09-4.104v-.167l-.136.076-1.909 1.106a5.356 5.356 0 0 0-2.332 4.028 9.695 9.695 0 0 1-4.543 7.815l-2.212 1.287a4.54 4.54 0 0 1-4.543.243 4.548 4.548 0 0 1-2.09-4.12v-.151H8.86l-2.014 1.166a5.39 5.39 0 0 0-2.318 4.028l-.151 1.121zM157.674 113.769h-3.196v-.985a7.816 7.816 0 0 1 3.635-6.285l1.666-.954a3.284 3.284 0 0 1 4.902 1.169c.287.575.399 1.222.323 1.86-.02.151-.02.303 0 .454.115-.079.237-.15.363-.212l1.833-1.045a4.72 4.72 0 0 0 2.029-3.513 7.81 7.81 0 0 1 3.62-6.286l1.514-.908a3.29 3.29 0 0 1 3.611-.207 3.286 3.286 0 0 1 1.614 3.236c-.026.15-.026.304 0 .454 0 0 .167-.091.364-.212l1.333-.757a4.736 4.736 0 0 0 2.029-3.514 7.814 7.814 0 0 1 3.62-6.285l1.514-.909a3.29 3.29 0 0 1 3.61-.207 3.288 3.288 0 0 1 1.615 3.236v1.272h-3.196V91.9a1.049 1.049 0 0 0 0-.439s-.151 0-.348.197l-1.514.909a4.723 4.723 0 0 0-2.03 3.513 7.814 7.814 0 0 1-3.619 6.285l-1.333.773a3.285 3.285 0 0 1-5.225-3.029c.03-.145.03-.294 0-.44 0 0-.152 0-.348.197l-1.515.909a4.72 4.72 0 0 0-2.029 3.514 7.818 7.818 0 0 1-3.665 6.27l-1.833 1.06a3.286 3.286 0 0 1-5.225-3.029c.03-.145.03-.294 0-.439 0 0-.151 0-.363.197l-1.651.969a4.656 4.656 0 0 0-2.03 3.498l-.075.955zM204.184 277.152h-4.271v-1.878a14.101 14.101 0 0 1 6.452-11.177l3.165-1.818a5.39 5.39 0 0 1 8.053 1.963c.465.95.64 2.016.504 3.066 0 .908.242 1.514.484 1.59.243.076.848 0 1.621-.379l3.483-1.999a9.805 9.805 0 0 0 4.271-7.421 14.08 14.08 0 0 1 6.452-11.177l3.029-1.726a5.405 5.405 0 0 1 8.632 4.982c0 .909.243 1.515.485 1.59.242.076.833 0 1.621-.378l2.529-1.515a9.795 9.795 0 0 0 4.271-7.421 14.082 14.082 0 0 1 6.451-11.177l3.029-1.726a5.412 5.412 0 0 1 5.971-.376 5.412 5.412 0 0 1 2.662 5.359v2.408h-4.347v-2.408c0-.909-.242-1.515-.484-1.591-.243-.075-.833 0-1.621.379l-3.029 1.727a9.775 9.775 0 0 0-4.286 7.405 14.052 14.052 0 0 1-1.869 6.372 14.052 14.052 0 0 1-4.583 4.805l-2.529 1.515a5.407 5.407 0 0 1-8.617-4.983c0-.909-.243-1.514-.485-1.514s-.833-.076-1.62.363l-3.029 1.742a9.754 9.754 0 0 0-4.286 7.406 14.077 14.077 0 0 1-6.452 11.177l-3.468 2.014a5.42 5.42 0 0 1-8.097-1.913 5.43 5.43 0 0 1-.536-3.07c0-.909-.242-1.514-.484-1.59-.243-.076-.833 0-1.621.363l-3.15 1.833a9.74 9.74 0 0 0-4.286 7.406l-.015 1.772z" fill="#FEC"/><path d="M206.41 278.666h-4.347v-1.878a14.08 14.08 0 0 1 6.452-11.177l3.15-1.817a5.412 5.412 0 0 1 5.971-.376 5.412 5.412 0 0 1 2.662 5.359c0 .908.242 1.514.485 1.59.242.076.833 0 1.62-.379l3.468-1.999a9.768 9.768 0 0 0 4.286-7.421 14.08 14.08 0 0 1 6.452-11.177l3.029-1.726a5.405 5.405 0 0 1 8.633 4.982c0 .909.242 1.515.484 1.59.243.076.833 0 1.621-.378l2.514-1.515a9.766 9.766 0 0 0 4.286-7.421 14.088 14.088 0 0 1 6.452-11.177l3.029-1.726a5.406 5.406 0 0 1 8.632 4.983v2.408h-4.346v-2.408c0-.909-.258-1.515-.485-1.591-.227-.075-.848 0-1.621.379l-3.029 1.726a9.794 9.794 0 0 0-4.27 7.406 14.077 14.077 0 0 1-6.452 11.177l-2.529 1.515a5.41 5.41 0 0 1-5.958.361 5.413 5.413 0 0 1-2.66-5.344c0-.909-.257-1.514-.484-1.514-.228 0-.849-.076-1.636.363l-3.029 1.742a9.804 9.804 0 0 0-4.271 7.406 14.064 14.064 0 0 1-6.452 11.177l-3.468 2.014a5.417 5.417 0 0 1-5.959.355 5.42 5.42 0 0 1-2.673-5.338c0-.909-.243-1.514-.485-1.59-.242-.076-.833 0-1.621.363l-3.15 1.833a9.74 9.74 0 0 0-4.286 7.406l-.015 1.817z" fill="#16110D"/><path d="M241.864 235.079h-2.499v-1.075a8.084 8.084 0 0 1 3.711-6.421l1.817-1.061a3.107 3.107 0 0 1 4.652 1.096c.272.547.376 1.161.301 1.767 0 .53.136.833.287.924.152.091.47 0 .924-.212l1.999-1.151a5.662 5.662 0 0 0 2.454-4.271 8.105 8.105 0 0 1 3.71-6.422l1.727-.999a3.099 3.099 0 0 1 3.425-.211 3.104 3.104 0 0 1 1.527 3.073c-.022.166-.007.334.042.494.05.159.134.306.246.43.136.076.469 0 .924-.227l1.514-.833a5.569 5.569 0 0 0 2.454-4.256 8.074 8.074 0 0 1 1.076-3.661 8.072 8.072 0 0 1 2.634-2.76l1.727-1a3.031 3.031 0 0 1 3.493-.328 3.028 3.028 0 0 1 1.459 3.19v1.394h-2.484v-1.394c0-.514-.151-.833-.287-.908-.137-.076-.485 0-.924.212l-1.727.999a5.587 5.587 0 0 0-2.468 4.256 8.097 8.097 0 0 1-3.696 6.422l-1.514.832a3.026 3.026 0 0 1-4.752-1.024 3.033 3.033 0 0 1-.216-1.838c0-.515-.136-.833-.272-.909-.137-.075-.485 0-.939.212l-1.712 1a5.574 5.574 0 0 0-1.727 1.842 5.576 5.576 0 0 0-.741 2.414 8.047 8.047 0 0 1-3.711 6.421l-1.984 1.151a3.023 3.023 0 0 1-3.507.346 3.033 3.033 0 0 1-1.46-3.208c0-.515-.137-.833-.273-.909-.136-.076-.485 0-.939.212l-1.802 1.045a5.622 5.622 0 0 0-2.469 4.271v1.075zM362.918 51.22h-3.347v-1.514a10.824 10.824 0 0 1 4.967-8.603l2.423-1.393a4.15 4.15 0 0 1 6.634 3.832 1.509 1.509 0 0 0 .378 1.227c.182.105.636 0 1.242-.304l2.681-1.514a7.568 7.568 0 0 0 3.286-5.71 10.824 10.824 0 0 1 5.013-8.466l2.302-1.332a4.545 4.545 0 0 1 4.544-.288 4.543 4.543 0 0 1 2.06 4.12c0 .696.181 1.12.363 1.226.182.106.651 0 1.257-.288l1.939-1.12a7.575 7.575 0 0 0 3.286-5.71 10.858 10.858 0 0 1 4.968-8.724l2.317-1.317a4.54 4.54 0 0 1 4.543-.303 4.538 4.538 0 0 1 2.045 4.134v1.848h-3.347V19.22c0-.712-.182-1.12-.379-1.227-.197-.106-.636 0-1.242.288l-2.302 1.333a7.58 7.58 0 0 0-3.301 5.694 10.827 10.827 0 0 1-4.968 8.602l-1.938 1.121a4.153 4.153 0 0 1-4.594.295 4.147 4.147 0 0 1-2.04-4.127c0-.696-.197-1.12-.379-1.226-.181-.106-.636 0-1.241.287l-2.318 1.333a7.575 7.575 0 0 0-3.286 5.71 10.837 10.837 0 0 1-4.968 8.602l-2.665 1.515a4.167 4.167 0 0 1-6.649-3.832c0-.697-.181-1.12-.363-1.227-.182-.106-.651 0-1.257.288l-2.423 1.393a7.568 7.568 0 0 0-3.287 5.71l.046 1.469z" fill="#FEC"/><path d="M364.614 52.644h-3.347v-1.44a10.813 10.813 0 0 1 4.967-8.601l2.423-1.409a4.167 4.167 0 0 1 6.649 3.832c0 .696.182 1.12.364 1.226.181.106.651 0 1.257-.287l2.665-1.515a7.482 7.482 0 0 0 3.302-5.694 10.858 10.858 0 0 1 4.952-8.602l2.317-1.333a4.152 4.152 0 0 1 6.224 1.441c.365.73.508 1.55.41 2.36 0 .697.181 1.12.378 1.227.197.106.636 0 1.242-.288l1.939-1.12a7.577 7.577 0 0 0 3.301-5.71 10.833 10.833 0 0 1 4.968-8.557l2.302-1.333a4.542 4.542 0 0 1 4.543-.288 4.537 4.537 0 0 1 2.045 4.12v1.863h-3.302v-1.909c0-.696-.181-1.12-.363-1.226-.182-.106-.651 0-1.257.287l-2.302 1.348a7.452 7.452 0 0 0-3.287 5.694 10.825 10.825 0 0 1-4.967 8.603l-1.954 1.12a4.15 4.15 0 0 1-6.633-3.83c0-.698-.182-1.122-.364-1.228-.182-.106-.651 0-1.257.288l-2.302 1.333a7.57 7.57 0 0 0-3.332 5.71 10.87 10.87 0 0 1-4.952 8.602l-2.681 1.514a4.15 4.15 0 0 1-6.633-3.831c0-.697-.182-1.106-.379-1.227a1.513 1.513 0 0 0-1.242.303l-2.423 1.393a7.578 7.578 0 0 0-3.302 5.71l.031 1.454z" fill="#16110D"/><path d="M357.42 376.79l-105.53-60.928c-1.514-.893-1.348-2.438.424-3.468l55.112-31.804a6.66 6.66 0 0 1 6.058-.243l105.53 60.928c1.515.879 1.348 2.439-.424 3.469l-55.112 31.804a6.672 6.672 0 0 1-6.058.242z" fill="#FFBE2E"/><path d="M357.42 382.545l-105.53-60.928c-1.514-.893-1.348-2.453.424-3.483l55.112-31.804a6.67 6.67 0 0 1 6.058-.258L419.014 347c1.515.894 1.348 2.438-.424 3.468l-55.112 31.805a6.717 6.717 0 0 1-6.058.272z" fill="#FEC"/><path d="M360.025 378.289a6.22 6.22 0 0 1-3.029-.711L251.405 316.65a2.661 2.661 0 0 1-1.514-2.287 3.365 3.365 0 0 1 1.939-2.757l55.097-31.804a7.58 7.58 0 0 1 6.921-.242l105.53 60.928a2.652 2.652 0 0 1 1.514 2.287 3.324 3.324 0 0 1-1.923 2.741l-55.113 31.804a7.784 7.784 0 0 1-3.831.969zm-2.166-2.286a5.76 5.76 0 0 0 5.104-.243l55.112-31.804c.757-.439 1.015-.894 1.015-1.181 0-.288-.364-.591-.591-.727L312.97 281.12a5.756 5.756 0 0 0-5.104.257l-55.113 31.804c-.742.425-1.014.894-1.014 1.182 0 .288.363.59.59.712l105.53 60.928z" fill="#16110D"/><path d="M419.984 344.713l-83.767-8.405c-6.967-.697-12.464-3.968-13.63-8.133l-14.282-49.13 1.015-.167a7.572 7.572 0 0 1 4.71.727l105.105 60.686a3.127 3.127 0 0 1 1.651 2.029 2.507 2.507 0 0 1-.469 1.984l-.333.409zM310.607 280.59l13.63 47.085c1 3.468 5.877 6.21 12.116 6.831l82.601 8.299a.937.937 0 0 0 0-.106 1.518 1.518 0 0 0-.773-.833l-105.12-60.686a5.054 5.054 0 0 0-2.454-.59z" fill="#16110D"/><path d="M351.377 350.196l-15.645-9.042 21.809-12.6 15.66 9.041-21.824 12.601z" fill="#FFBE2E"/><path d="M351.362 350.968l-17.008-9.814 23.172-13.373 17.008 9.814-23.172 13.373zm-14.297-9.814l14.297 8.254 20.461-11.813-14.297-8.254-20.461 11.813z" fill="#16110D"/><path d="M351.544 346.531l-9.496-5.468 15.342-8.86 9.48 5.483-15.326 8.845z" fill="#FEC"/><path d="M351.544 347.318l-10.784-6.255 16.66-9.632 10.828 6.255-16.704 9.632zm-8.133-6.255l8.133 4.695 13.963-8.072-8.117-4.695-13.979 8.072z" fill="#16110D"/><path d="M354.285 352.952l-12.934 7.497 15.357 8.86 12.919-7.467-15.342-8.89zm2.241 12.555l-8.647-5.058 6.572-3.801 8.663 4.997-6.588 3.862z" fill="#FFBE2E"/><path d="M356.526 366.295l-10.01-5.846 7.936-4.544 10.01 5.771-7.936 4.619zm-7.299-5.846l7.299 4.21 5.225-3.029-7.36-4.134-5.164 2.953zM283.709 321.905a17.981 17.981 0 0 1-8.814-2.105c-2.484-1.439-3.847-3.378-3.847-5.483 0-2.105 1.363-4.043 3.847-5.482a19.53 19.53 0 0 1 17.629 0c2.484 1.514 3.847 3.377 3.847 5.482 0 2.105-1.363 4.044-3.847 5.483a17.939 17.939 0 0 1-8.815 2.105zm0-13.843a16.577 16.577 0 0 0-8.072 1.954 4.546 4.546 0 0 0-2.23 6.946 4.534 4.534 0 0 0 2.23 1.656 17.985 17.985 0 0 0 16.266 0 4.544 4.544 0 0 0 0-8.602 16.531 16.531 0 0 0-8.194-1.954z" fill="#16110D"/><path d="M283.71 319.815a12.674 12.674 0 0 1-6.24-1.514 4.251 4.251 0 0 1-2.029-6.439 4.255 4.255 0 0 1 2.029-1.558 13.861 13.861 0 0 1 12.494 0 4.25 4.25 0 0 1 2.798 3.998 4.251 4.251 0 0 1-2.798 3.999 12.732 12.732 0 0 1-6.254 1.514zm0-9.647a11.525 11.525 0 0 0-5.574 1.317 3.025 3.025 0 0 0-1.418 1.112 3.024 3.024 0 0 0 0 3.441c.349.506.843.894 1.418 1.112a12.36 12.36 0 0 0 11.147 0 3.025 3.025 0 0 0 1.418-1.112 3.023 3.023 0 0 0 0-3.441 3.025 3.025 0 0 0-1.418-1.112 11.476 11.476 0 0 0-5.573-1.317zM379.91 355.602a32.41 32.41 0 0 1-15.872-3.801c-4.362-2.514-6.77-5.906-6.77-9.541 0-3.635 2.408-7.027 6.77-9.557 8.754-5.043 22.99-5.043 31.729 0 4.362 2.53 6.77 5.922 6.77 9.557 0 3.635-2.408 7.027-6.77 9.541a32.396 32.396 0 0 1-15.857 3.801zm0-25.352a30.999 30.999 0 0 0-15.145 3.635c-3.922 2.256-6.058 5.24-6.058 8.375s2.166 6.058 6.058 8.375c8.375 4.831 22.006 4.831 30.366 0 3.937-2.272 6.058-5.24 6.058-8.375s-2.166-6.058-6.058-8.375a30.938 30.938 0 0 0-15.221-3.635z" fill="#16110D"/><path d="M379.91 352.392a24.446 24.446 0 0 1-11.889-2.848c-3.317-1.923-5.149-4.543-5.149-7.284 0-2.741 1.832-5.377 5.149-7.285 6.573-3.801 17.281-3.801 23.869 0 3.316 1.908 5.134 4.544 5.134 7.285 0 2.741-1.818 5.361-5.134 7.284a24.476 24.476 0 0 1-11.98 2.848zm0-18.931a23.074 23.074 0 0 0-11.268 2.68c-2.877 1.666-4.468 3.832-4.468 6.058s1.515 4.438 4.468 6.058a24.895 24.895 0 0 0 22.521 0c2.877-1.666 4.543-3.832 4.543-6.058s-1.59-4.452-4.543-6.058a23.063 23.063 0 0 0-11.253-2.68zM300.96 335.323l-.682-1.166 2.787-1.62c.439-.243.681-.561.681-.848 0-.288-.242-.591-.681-.848l-.364-.212a4.873 4.873 0 0 0-4.301 0l-.303.166a6.054 6.054 0 0 1-5.649 0l-.363-.212a2.165 2.165 0 0 1 0-4.044l.288-.166c.439-.258.696-.561.696-.848 0-.288-.257-.606-.696-.848l-.212-.137a4.878 4.878 0 0 0-4.302 0l-.303.167a6.054 6.054 0 0 1-5.649 0 2.168 2.168 0 0 1 0-4.044l.288-.166c.439-.258.697-.561.697-.849 0-.287-.258-.59-.697-.848l-.288-.166a4.778 4.778 0 0 0-4.301 0l-2.786 1.605-.682-1.181 2.787-1.606a6.203 6.203 0 0 1 5.649 0l.303.167a2.197 2.197 0 0 1 0 4.059l-.303.166c-.439.243-.682.561-.682.849 0 .287.243.59.682.848a4.873 4.873 0 0 0 4.301 0l.303-.167a6.057 6.057 0 0 1 5.649 0l.227.121a2.184 2.184 0 0 1 1.363 2.022 2.177 2.177 0 0 1-1.363 2.022l-.303.182c-.439.242-.681.56-.681.848 0 .288.242.59.681.848l.379.212a4.873 4.873 0 0 0 4.301 0l.288-.167a6.057 6.057 0 0 1 5.649 0l.378.212a2.184 2.184 0 0 1 .991 3.242c-.243.36-.588.639-.991.802l-2.786 1.605zM356.708 370.066l-16.659-9.647 14.297-8.254 16.659 9.647-14.297 8.254zm-14.009-9.617l14.009 8.072 11.571-6.679-13.994-8.087-11.586 6.694z" fill="#16110D"/><path d="M348.409 320.966l-.667-1.166 2.772-1.605c.439-.258.696-.561.696-.849 0-.287-.257-.605-.696-.848l-.364-.212a4.793 4.793 0 0 0-4.301 0l-.288.167a6.224 6.224 0 0 1-5.664 0l-.363-.212a2.178 2.178 0 0 1-1.364-2.022 2.18 2.18 0 0 1 1.364-2.022l.303-.182c.439-.242.681-.56.681-.848 0-.287-.242-.59-.681-.848l-.228-.121a4.781 4.781 0 0 0-4.301 0l-.288.167a6.22 6.22 0 0 1-5.664 0 2.177 2.177 0 0 1-1.363-2.022 2.178 2.178 0 0 1 1.363-2.022l.303-.182c.439-.242.682-.56.682-.848 0-.288-.243-.59-.682-.848l-.303-.167a4.79 4.79 0 0 0-4.301 0l-2.771 1.651-.682-1.166 2.787-1.62a6.191 6.191 0 0 1 5.649 0l.288.181a2.17 2.17 0 0 1 1.008 3.249c-.248.361-.6.638-1.008.795l-.288.167c-.439.257-.697.56-.697.848 0 .287.258.605.697.848a4.79 4.79 0 0 0 4.301 0l.363-.273a6.226 6.226 0 0 1 5.665 0l.212.137a2.164 2.164 0 0 1 0 4.043l-.288.167c-.439.257-.697.56-.697.848 0 .288.258.606.697.848l.363.212a4.784 4.784 0 0 0 4.301 0l.288-.167a6.226 6.226 0 0 1 5.664 0l.364.213a2.176 2.176 0 0 1 1.363 2.021 2.182 2.182 0 0 1-1.363 2.022l-2.862 1.666z" fill="#FFBE2E"/><path d="M336.429 381.303a.732.732 0 0 1 .474.682.726.726 0 0 1-.474.682 2.573 2.573 0 0 1-2.347 0 .732.732 0 0 1-.474-.682.726.726 0 0 1 .474-.682 2.663 2.663 0 0 1 2.347 0zM342.563 377.76a.723.723 0 0 1 .474.681.733.733 0 0 1-.474.682 2.58 2.58 0 0 1-2.348 0 .732.732 0 0 1-.474-.682.723.723 0 0 1 .474-.681 2.658 2.658 0 0 1 2.348 0zM330.28 377.76a.723.723 0 0 1 .474.681.726.726 0 0 1-.474.682 2.573 2.573 0 0 1-2.347 0 .732.732 0 0 1-.474-.682.726.726 0 0 1 .474-.681 2.654 2.654 0 0 1 2.347 0zM336.429 374.216a.723.723 0 0 1 .474.681.724.724 0 0 1-.474.682 2.667 2.667 0 0 1-2.347 0 .732.732 0 0 1-.474-.682.726.726 0 0 1 .474-.681 2.573 2.573 0 0 1 2.347 0zM324.101 374.216a.723.723 0 0 1 .474.681.724.724 0 0 1-.474.682 2.667 2.667 0 0 1-2.347 0 .732.732 0 0 1-.474-.682.726.726 0 0 1 .474-.681 2.573 2.573 0 0 1 2.347 0zM330.28 370.672a.723.723 0 0 1 .474.681.724.724 0 0 1-.474.682 2.667 2.667 0 0 1-2.347 0 .732.732 0 0 1-.474-.682.726.726 0 0 1 .474-.681 2.572 2.572 0 0 1 2.347 0zM318.043 370.672a.723.723 0 0 1 .474.681.724.724 0 0 1-.474.682 2.667 2.667 0 0 1-2.347 0 .732.732 0 0 1-.474-.682.726.726 0 0 1 .474-.681 2.572 2.572 0 0 1 2.347 0zM324.101 367.128c.651.378.651.984 0 1.348a2.573 2.573 0 0 1-2.347 0c-.652-.364-.652-.97 0-1.348a2.572 2.572 0 0 1 2.347 0zM311.864 367.128c.651.378.651.984 0 1.348a2.576 2.576 0 0 1-2.348 0c-.651-.364-.651-.97 0-1.348a2.58 2.58 0 0 1 2.348 0zM318.043 363.584a.713.713 0 0 1 0 1.348 2.573 2.573 0 0 1-2.347 0 .715.715 0 0 1-.35-1.089.713.713 0 0 1 .35-.259 2.572 2.572 0 0 1 2.347 0zM304.488 365.174c.92 0 1.666-.427 1.666-.954 0-.527-.746-.954-1.666-.954-.92 0-1.666.427-1.666.954 0 .527.746.954 1.666.954zM311.804 359.994a.724.724 0 0 1 .473.682.726.726 0 0 1-.473.681 2.658 2.658 0 0 1-2.348 0 .723.723 0 0 1-.474-.681.726.726 0 0 1 .474-.682 2.576 2.576 0 0 1 2.348 0zM299.521 359.994a.732.732 0 0 1 .474.682.723.723 0 0 1-.474.681 2.658 2.658 0 0 1-2.348 0 .723.723 0 0 1-.474-.681.733.733 0 0 1 .474-.682 2.58 2.58 0 0 1 2.348 0zM305.67 356.451a.723.723 0 0 1 .474.681.731.731 0 0 1-.474.682 2.67 2.67 0 0 1-2.348 0 .732.732 0 0 1-.474-.682.723.723 0 0 1 .474-.681 2.58 2.58 0 0 1 1.174-.284c.408 0 .81.098 1.174.284zM293.387 356.451a.723.723 0 0 1 .474.681.724.724 0 0 1-.474.682 2.666 2.666 0 0 1-2.347 0 .732.732 0 0 1-.474-.682.726.726 0 0 1 .474-.681 2.574 2.574 0 0 1 2.347 0zM299.521 352.876c.651.379.651.985 0 1.348a2.576 2.576 0 0 1-2.348 0c-.651-.363-.651-.969 0-1.348a2.58 2.58 0 0 1 2.348 0zM287.238 352.876c.652.379.652.985 0 1.348a2.572 2.572 0 0 1-2.347 0c-.651-.363-.651-.969 0-1.348a2.573 2.573 0 0 1 2.347 0zM293.387 349.363a.713.713 0 0 1 0 1.348 2.572 2.572 0 0 1-2.347 0 .715.715 0 0 1-.35-1.089.713.713 0 0 1 .35-.259 2.573 2.573 0 0 1 2.347 0zM281.105 349.363a.71.71 0 0 1 .349 1.088.712.712 0 0 1-.349.26 2.58 2.58 0 0 1-2.348 0 .71.71 0 0 1 0-1.348 2.576 2.576 0 0 1 2.348 0zM286.072 347.439c.92 0 1.666-.427 1.666-.954 0-.527-.746-.954-1.666-.954-.92 0-1.666.427-1.666.954 0 .527.746.954 1.666.954zM274.956 345.819c.651.363.651.969 0 1.348a2.58 2.58 0 0 1-2.348 0c-.651-.379-.651-.985 0-1.348a2.58 2.58 0 0 1 2.348 0zM281.105 342.275c.651.364.651.969 0 1.348a2.58 2.58 0 0 1-2.348 0c-.651-.379-.651-.984 0-1.348a2.576 2.576 0 0 1 2.348 0zM268.822 342.275a.715.715 0 0 1 .35 1.089.719.719 0 0 1-.35.259 2.573 2.573 0 0 1-2.347 0c-.651-.379-.651-.984 0-1.348a2.572 2.572 0 0 1 2.347 0zM274.956 338.716a.736.736 0 0 1 .344.266.733.733 0 0 1 0 .831.736.736 0 0 1-.344.266 2.576 2.576 0 0 1-2.348 0 .728.728 0 0 1 0-1.363 2.67 2.67 0 0 1 2.348 0zM262.673 338.716a.726.726 0 0 1 0 1.363 2.572 2.572 0 0 1-2.347 0 .727.727 0 0 1 0-1.363 2.667 2.667 0 0 1 2.347 0zM268.822 335.172a.723.723 0 0 1 .474.681.721.721 0 0 1-.474.682 2.573 2.573 0 0 1-2.347 0 .732.732 0 0 1-.474-.682.726.726 0 0 1 .474-.681 2.666 2.666 0 0 1 2.347 0zM256.479 335.142c.651.378.651.984 0 1.348a2.576 2.576 0 0 1-2.347 0c-.652-.364-.652-.97 0-1.348a2.572 2.572 0 0 1 2.347 0zM262.628 331.674a.707.707 0 0 1 .483.674.716.716 0 0 1-.483.674 2.576 2.576 0 0 1-2.348 0 .712.712 0 0 1 0-1.348 2.58 2.58 0 0 1 2.348 0zM250.345 331.674a.707.707 0 0 1 .483.673.71.71 0 0 1-.483.674 2.593 2.593 0 0 1-2.362 0 .707.707 0 0 1-.483-.674.716.716 0 0 1 .483-.673 2.593 2.593 0 0 1 2.362 0zM256.479 328.054c.651.363.651.969 0 1.348a2.576 2.576 0 0 1-2.347 0c-.652-.379-.652-.985 0-1.348a2.572 2.572 0 0 1 2.347 0zM250.345 324.495a.723.723 0 0 1 .474.681.721.721 0 0 1-.474.682 2.605 2.605 0 0 1-2.362 0 .732.732 0 0 1-.474-.682.726.726 0 0 1 .474-.681 2.688 2.688 0 0 1 2.362 0zM373.564 394.964c.652.379.652.984 0 1.348a2.572 2.572 0 0 1-2.347 0c-.651-.364-.651-.969 0-1.348a2.573 2.573 0 0 1 2.347 0zM379.713 391.42a.715.715 0 0 1 .35 1.089.713.713 0 0 1-.35.259 2.572 2.572 0 0 1-2.347 0 .713.713 0 0 1 0-1.348 2.573 2.573 0 0 1 2.347 0zM385.847 387.876c.651.364.651.97 0 1.348a2.576 2.576 0 0 1-2.348 0 .71.71 0 0 1-.349-1.088.712.712 0 0 1 .349-.26 2.58 2.58 0 0 1 2.348 0zM361.236 394.919a.723.723 0 0 1 .474.681.724.724 0 0 1-.474.682 2.572 2.572 0 0 1-2.347 0 .732.732 0 0 1-.474-.682.726.726 0 0 1 .474-.681 2.668 2.668 0 0 1 2.347 0zM366.204 393.01c.92 0 1.666-.427 1.666-.954 0-.527-.746-.954-1.666-.954-.92 0-1.666.427-1.666.954 0 .527.746.954 1.666.954zM373.519 387.831a.723.723 0 0 1 .474.681.721.721 0 0 1-.474.682 2.667 2.667 0 0 1-2.347 0 .722.722 0 0 1-.474-.682.726.726 0 0 1 .474-.681 2.572 2.572 0 0 1 2.347 0zM379.652 384.287a.726.726 0 0 1 0 1.363 2.663 2.663 0 0 1-2.347 0 .726.726 0 0 1 0-1.363 2.576 2.576 0 0 1 2.347 0zM355.088 391.375a.728.728 0 0 1 0 1.363 2.58 2.58 0 0 1-2.348 0 .732.732 0 0 1-.474-.682c0-.148.046-.293.13-.415a.736.736 0 0 1 .344-.266 2.667 2.667 0 0 1 2.348 0zM361.236 387.831a.723.723 0 0 1 .474.681.721.721 0 0 1-.474.682 2.666 2.666 0 0 1-2.347 0 .732.732 0 0 1-.474-.682.726.726 0 0 1 .474-.681 2.573 2.573 0 0 1 2.347 0zM367.37 384.287a.727.727 0 0 1 0 1.363 2.667 2.667 0 0 1-2.347 0 .726.726 0 0 1 0-1.363 2.572 2.572 0 0 1 2.347 0zM373.519 380.743c.651.379.651.984 0 1.348a2.576 2.576 0 0 1-2.347 0c-.652-.364-.652-.969 0-1.348a2.572 2.572 0 0 1 2.347 0zM348.954 387.831a.723.723 0 0 1 .474.681.729.729 0 0 1-.474.682 2.67 2.67 0 0 1-2.348 0 .732.732 0 0 1-.474-.682.723.723 0 0 1 .474-.681 2.58 2.58 0 0 1 2.348 0zM355.088 384.287a.728.728 0 0 1 0 1.363 2.67 2.67 0 0 1-2.348 0 .736.736 0 0 1-.344-.266.733.733 0 0 1 0-.831.736.736 0 0 1 .344-.266 2.576 2.576 0 0 1 2.348 0zM342.805 384.287a.727.727 0 0 1 0 1.363 2.667 2.667 0 0 1-2.347 0 .726.726 0 0 1 0-1.363 2.572 2.572 0 0 1 2.347 0zM348.954 380.743c.651.379.651.984 0 1.348a2.576 2.576 0 0 1-2.348 0c-.651-.364-.651-.969 0-1.348a2.58 2.58 0 0 1 2.348 0zM389.663 384.378a2.58 2.58 0 0 1 2.348 0c.651.363.651.969 0 1.348a2.576 2.576 0 0 1-2.348 0c-.651-.364-.651-.97 0-1.348zM398.16 380.819a.727.727 0 0 1 0 1.363 2.58 2.58 0 0 1-2.348 0 .732.732 0 0 1-.474-.682.723.723 0 0 1 .474-.681 2.668 2.668 0 0 1 2.348 0zM404.369 377.275a.723.723 0 0 1 .474.681.721.721 0 0 1-.474.682 2.573 2.573 0 0 1-2.347 0 .732.732 0 0 1-.474-.682.726.726 0 0 1 .474-.681 2.667 2.667 0 0 1 2.347 0zM410.427 373.731a.73.73 0 0 1 .474.681.721.721 0 0 1-.474.682 2.667 2.667 0 0 1-2.347 0 .732.732 0 0 1-.474-.682.726.726 0 0 1 .474-.681 2.572 2.572 0 0 1 2.347 0zM416.576 370.187a.736.736 0 0 1 .344.266.733.733 0 0 1 0 .831.736.736 0 0 1-.344.266 2.667 2.667 0 0 1-2.348 0 .728.728 0 0 1 0-1.363 2.58 2.58 0 0 1 2.348 0zM422.725 366.643c.651.379.651.985 0 1.348a2.576 2.576 0 0 1-2.348 0c-.651-.363-.651-.969 0-1.348a2.58 2.58 0 0 1 2.348 0zM428.858 363.099a.715.715 0 0 1 .35 1.089.713.713 0 0 1-.35.259 2.572 2.572 0 0 1-2.347 0 .713.713 0 0 1 0-1.348 2.576 2.576 0 0 1 2.347 0zM383.469 380.788a2.576 2.576 0 0 1 2.348 0 .732.732 0 0 1 .474.682.723.723 0 0 1-.474.681 2.658 2.658 0 0 1-2.348 0 .723.723 0 0 1-.474-.681.731.731 0 0 1 .474-.682zM391.965 377.245c.652.378.652.984 0 1.347a2.56 2.56 0 0 1-2.347 0c-.651-.363-.651-.969 0-1.347a2.564 2.564 0 0 1 2.347 0zM398.099 373.701a.713.713 0 0 1 0 1.348 2.576 2.576 0 0 1-2.347 0 .715.715 0 0 1-.35-1.089.713.713 0 0 1 .35-.259 2.572 2.572 0 0 1 2.347 0zM404.248 370.157c.651.363.651.969 0 1.348a2.576 2.576 0 0 1-2.348 0c-.651-.379-.651-.985 0-1.348a2.58 2.58 0 0 1 2.348 0zM410.427 366.598a.723.723 0 0 1 .474.681.726.726 0 0 1-.474.682 2.573 2.573 0 0 1-2.347 0 .732.732 0 0 1-.474-.682.726.726 0 0 1 .474-.681 2.654 2.654 0 0 1 2.347 0zM416.485 363.054a.723.723 0 0 1 .474.681.724.724 0 0 1-.474.682 2.576 2.576 0 0 1-2.347 0 .722.722 0 0 1-.474-.682.726.726 0 0 1 .474-.681 2.664 2.664 0 0 1 2.347 0zM422.664 359.51a.726.726 0 0 1 0 1.363 2.667 2.667 0 0 1-2.347 0 .727.727 0 0 1 0-1.363 2.572 2.572 0 0 1 2.347 0zM428.813 355.905a.732.732 0 0 1 .474.682.726.726 0 0 1-.474.681 2.655 2.655 0 0 1-2.347 0 .726.726 0 0 1 0-1.363 2.572 2.572 0 0 1 2.347 0zM377.32 377.245a2.568 2.568 0 0 1 2.348 0 .723.723 0 0 1 .474.681.733.733 0 0 1-.474.682 2.67 2.67 0 0 1-2.348 0 .732.732 0 0 1-.474-.682.723.723 0 0 1 .474-.681zM385.817 373.701a.71.71 0 0 1 .349 1.088.712.712 0 0 1-.349.26 2.58 2.58 0 0 1-2.348 0 .715.715 0 0 1-.35-1.089.713.713 0 0 1 .35-.259 2.576 2.576 0 0 1 2.348 0zM391.965 370.157c.652.363.652.969 0 1.348a2.572 2.572 0 0 1-2.347 0c-.651-.379-.651-.985 0-1.348a2.576 2.576 0 0 1 2.347 0zM398.099 366.598a.723.723 0 0 1 .474.681.726.726 0 0 1-.474.682 2.573 2.573 0 0 1-2.347 0 .732.732 0 0 1-.474-.682.726.726 0 0 1 .474-.681 2.654 2.654 0 0 1 2.347 0zM404.248 363.054a.723.723 0 0 1 .474.681.731.731 0 0 1-.474.682 2.576 2.576 0 0 1-2.348 0 .724.724 0 0 1-.343-.267.725.725 0 0 1 .343-1.096 2.672 2.672 0 0 1 2.348 0zM410.427 359.51a.726.726 0 0 1 0 1.363 2.667 2.667 0 0 1-2.347 0 .727.727 0 0 1 0-1.363 2.572 2.572 0 0 1 2.347 0zM416.485 355.905a.732.732 0 0 1 .474.682.726.726 0 0 1-.474.681 2.655 2.655 0 0 1-2.347 0 .726.726 0 0 1 0-1.363 2.572 2.572 0 0 1 2.347 0zM422.664 352.422c.651.379.651.984 0 1.348a2.573 2.573 0 0 1-2.347 0c-.652-.364-.652-.969 0-1.348a2.572 2.572 0 0 1 2.347 0z" fill="#16110D"/><path d="M112.527 351.983l-40.892-23.626c-3.029-1.757-2.65-4.816.864-6.846l58.641-33.864c3.513-2.029 8.829-2.256 11.873-.5l40.892 23.626c3.029 1.757 2.65 4.832-.864 6.846L124.4 351.483c-3.513 2.029-8.829 2.257-11.873.5z" fill="#FFBE2E"/><path d="M112.527 356.345l-40.892-23.611c-3.029-1.757-2.65-4.832.864-6.861l58.641-33.864c3.513-2.029 8.829-2.241 11.873-.485l40.892 23.611c3.029 1.757 2.65 4.831-.864 6.861L124.4 355.905c-3.513 1.984-8.829 2.196-11.873.44z" fill="#FEC"/><path d="M117.691 353.906a11.252 11.252 0 0 1-5.528-1.287l-40.891-23.626a4.242 4.242 0 0 1-2.423-3.605 5.602 5.602 0 0 1 3.271-4.543l58.656-33.864c3.771-2.181 9.314-2.393 12.601-.5l40.891 23.626a4.245 4.245 0 0 1 2.423 3.62 5.588 5.588 0 0 1-3.271 4.543l-58.656 33.849a14.359 14.359 0 0 1-7.073 1.787zm-4.801-2.544c2.832 1.636 7.83 1.408 11.132-.5l58.656-33.864c1.62-.924 2.544-2.105 2.544-3.226a2.884 2.884 0 0 0-1.696-2.347l-40.891-23.626c-2.832-1.636-7.83-1.409-11.132.5l-58.671 33.848a4.216 4.216 0 0 0-2.544 3.241 2.89 2.89 0 0 0 1.696 2.333l40.906 23.641z" fill="#16110D"/><path d="M125.476 341.033l-14.085-8.133 11.858-6.86 14.1 8.132-11.873 6.861z" fill="#FFBE2E"/><path d="M125.476 341.79l-15.418-8.89 13.191-7.572 15.433 8.905-13.206 7.557zm-12.753-8.89l12.753 7.361 10.601-6.058-12.767-7.361-10.587 6.058z" fill="#16110D"/><path d="M125.324 337.565l-7.951-4.574 6.043-3.498 7.936 4.588-6.028 3.484z" fill="#FEC"/><path d="M125.324 338.337l-9.284-5.346 7.376-4.256 9.269 5.347-7.361 4.255zm-6.618-5.346l6.618 3.817 4.695-2.726-6.603-3.817-4.71 2.726z" fill="#16110D"/><path d="M105.393 339.927a19.682 19.682 0 0 1-9.723-2.332c-2.696-1.514-4.18-3.65-4.18-5.906 0-2.257 1.515-4.362 4.18-5.922a21.55 21.55 0 0 1 19.446 0c2.696 1.514 4.18 3.665 4.18 5.922 0 2.256-1.514 4.361-4.18 5.906a19.769 19.769 0 0 1-9.723 2.332zm0-15.447a18.81 18.81 0 0 0-9.208 2.196c-2.362 1.363-3.665 3.135-3.665 5.013 0 1.878 1.303 3.65 3.665 5.013a20.346 20.346 0 0 0 18.416 0c2.363-1.363 3.665-3.151 3.665-5.013 0-1.863-1.302-3.65-3.665-5.013a18.808 18.808 0 0 0-9.208-2.196z" fill="#16110D"/><path d="M105.393 337.974a14.997 14.997 0 0 1-7.33-1.757 4.804 4.804 0 0 1-2.354-7.337 4.807 4.807 0 0 1 2.354-1.75 16.14 16.14 0 0 1 14.66 0 4.801 4.801 0 0 1 0 9.087 14.996 14.996 0 0 1-7.33 1.757zm0-11.541a13.884 13.884 0 0 0-6.815 1.621 3.816 3.816 0 0 0 0 7.269 15.138 15.138 0 0 0 13.63 0 3.815 3.815 0 0 0 .001-7.269 13.888 13.888 0 0 0-6.816-1.621z" fill="#16110D"/><path d="M131.124 327.251l-.56-.969 2.302-1.333c.364-.212.576-.469.576-.697 0-.227-.212-.499-.576-.711l-.303-.167a4.015 4.015 0 0 0-3.574 0l-.242.136a5.096 5.096 0 0 1-4.68 0l-.303-.181a1.803 1.803 0 0 1 0-3.347l.242-.137c.364-.212.576-.469.576-.712 0-.242-.212-.499-.576-.711l-.181-.091a3.985 3.985 0 0 0-3.559 0l-.243.136a5.138 5.138 0 0 1-4.695 0 1.823 1.823 0 0 1-1.127-1.681 1.823 1.823 0 0 1 1.127-1.681l.243-.136c.363-.212.575-.47.575-.697 0-.227-.212-.5-.575-.712l-.243-.136a3.981 3.981 0 0 0-3.559 0l-2.302 1.333-.56-.985 2.302-1.318a5.018 5.018 0 0 1 4.68 0l.242.137a1.8 1.8 0 0 1 0 3.347l-.242.151c-.364.197-.576.455-.576.697 0 .242.212.5.576.712a4.11 4.11 0 0 0 3.574 0l.242-.152a5.109 5.109 0 0 1 4.68 0l.182.106a1.823 1.823 0 0 1 1.127 1.681 1.82 1.82 0 0 1-1.127 1.681l-.243.137c-.363.212-.575.469-.575.712 0 .242.212.484.575.696l.303.182a4.08 4.08 0 0 0 3.559 0l.243-.151a5.126 5.126 0 0 1 4.695 0l.302.181a1.805 1.805 0 0 1 1.134 1.674 1.8 1.8 0 0 1-1.134 1.673l-2.302 1.333z" fill="#FFBE2E"/><path d="M140.848 331.022l-.637-1.105 2.621-1.515c.424-.242.651-.545.651-.802 0-.258-.227-.576-.651-.803l-.349-.212a4.644 4.644 0 0 0-4.059 0l-.272.166a5.816 5.816 0 0 1-5.331 0l-.349-.196a2.264 2.264 0 0 1-1.287-1.909 2.22 2.22 0 0 1 1.287-1.908l.273-.167c.409-.242.651-.53.651-.802 0-.273-.242-.561-.651-.803l-.212-.121a4.538 4.538 0 0 0-4.059 0l-.272.166a5.81 5.81 0 0 1-5.331 0 2.273 2.273 0 0 1-1.303-1.908 2.238 2.238 0 0 1 1.303-1.908l.272-.167c.409-.242.651-.53.651-.802 0-.273-.242-.561-.651-.803l-.272-.167a4.555 4.555 0 0 0-4.059 0l-2.62 1.515-.652-1.121 2.636-1.514a5.815 5.815 0 0 1 5.331 0l.272.166a2.047 2.047 0 0 1 1.311 1.909 2.044 2.044 0 0 1-1.311 1.908l-.272.166c-.409.243-.652.53-.652.803s.243.56.652.803a4.55 4.55 0 0 0 4.058 0l.273-.167a5.847 5.847 0 0 1 5.346 0l.197.121a2.046 2.046 0 0 1 0 3.817l-.273.166c-.408.243-.651.531-.651.803 0 .273.243.56.651.803l.349.197a4.55 4.55 0 0 0 4.059 0l.272-.167a5.819 5.819 0 0 1 5.331 0l.349.197a2.063 2.063 0 0 1 1.303 1.916 2.059 2.059 0 0 1-1.303 1.916l-2.62 1.529z" fill="#16110D"/><path d="M133.093 288.208a28.092 28.092 0 0 1-5.588-.303 12.971 12.971 0 0 1-4.362-1.409 5.583 5.583 0 0 1-2.544-2.741 3.911 3.911 0 0 1 .56-3.574 10.497 10.497 0 0 1 3.892-3.514 26.242 26.242 0 0 1 8.421-2.877 30.812 30.812 0 0 1 9.299-.455c2.314.18 4.569.819 6.633 1.878a6.057 6.057 0 0 1 2.545 2.575 3.976 3.976 0 0 1 0 3.347l3.983-1.515 3.771 2.181-17.341 6.407c-2.393.893-3.68 1.393-3.892 1.514a.954.954 0 0 0-.561.818 1.052 1.052 0 0 0 .637.833c1.329.584 2.758.908 4.21.954 2.776.27 5.578.132 8.314-.409a23.456 23.456 0 0 0 7.255-2.575 10.9 10.9 0 0 0 4.755-4.816 6.266 6.266 0 0 0-.484-5.921 15.43 15.43 0 0 0-6.058-5.619 32.875 32.875 0 0 0-11.314-3.862 38.17 38.17 0 0 0-12.918.167 35.356 35.356 0 0 0-11.48 4.043 14.959 14.959 0 0 0-6.649 6.422 6.775 6.775 0 0 0 .985 6.921 23.668 23.668 0 0 0 7.572 6.452 36.036 36.036 0 0 0 11.102 4.27c3.314.692 6.711.901 10.086.621l3.817 2.196a35.931 35.931 0 0 1-8.194.47 45.282 45.282 0 0 1-9.844-1.515 41.132 41.132 0 0 1-10.011-4.24 31.395 31.395 0 0 1-7.315-5.664 10.879 10.879 0 0 1-3.12-5.967 8.151 8.151 0 0 1 1.363-5.619 19.688 19.688 0 0 1 6.816-6.058 40.601 40.601 0 0 1 11.903-4.438 46.958 46.958 0 0 1 16.054-.727 38.229 38.229 0 0 1 14.494 4.862 18.597 18.597 0 0 1 7.239 6.649 7.688 7.688 0 0 1 .197 7.466 14.058 14.058 0 0 1-5.876 5.755 31.72 31.72 0 0 1-15.145 3.771c-5.392.172-9.602-.621-12.631-2.378a5.19 5.19 0 0 1-1.908-1.605 1.512 1.512 0 0 1 0-1.514 5.028 5.028 0 0 1 1.332-1.257zm-4.543-9.178c-1.923 1.105-3.029 2.241-3.12 3.377-.091 1.136.273 1.136 1.515 1.817a24.08 24.08 0 0 0 4.664.682c1.503.234 3.025.31 4.544.227 1.711-.076 2.165.894 4.089.364a21.12 21.12 0 0 0 5.149-2.045c1.908-1.106 2.923-2.226 3.029-3.377a3.03 3.03 0 0 0-1.954-2.923 9.272 9.272 0 0 0-3.226-1.06 18.865 18.865 0 0 0-4.543 0c-1.839.164-3.656.52-5.422 1.06a22.403 22.403 0 0 0-4.664 1.878h-.061z" fill="#FEC"/><path d="M133.093 285.406a26.939 26.939 0 0 1-5.588-.303 12.632 12.632 0 0 1-4.362-1.409 5.583 5.583 0 0 1-2.544-2.741 3.892 3.892 0 0 1 .485-3.589 10.596 10.596 0 0 1 3.892-3.529 26.615 26.615 0 0 1 8.42-2.878 30.846 30.846 0 0 1 9.299-.454c2.315.187 4.569.83 6.634 1.893a6.059 6.059 0 0 1 2.544 2.56 3.977 3.977 0 0 1 0 3.347l3.983-1.515 3.771 2.166-17.265 6.452c-2.393.893-3.68 1.408-3.892 1.514a.898.898 0 0 0-.56.803 1.065 1.065 0 0 0 .636.848 11.74 11.74 0 0 0 4.21.939 28.05 28.05 0 0 0 8.314-.409 23.382 23.382 0 0 0 7.24-2.559 10.97 10.97 0 0 0 4.77-4.832 6.31 6.31 0 0 0-.484-5.921 15.536 15.536 0 0 0-6.058-5.619 32.87 32.87 0 0 0-11.313-3.862 38.176 38.176 0 0 0-12.919.167 35.704 35.704 0 0 0-11.48 4.043 14.959 14.959 0 0 0-6.649 6.422 6.775 6.775 0 0 0 .985 6.921 23.518 23.518 0 0 0 7.572 6.452 35.656 35.656 0 0 0 11.102 4.271c3.313.698 6.712.907 10.086.62l3.801 2.196a35.62 35.62 0 0 1-8.178.485 44.42 44.42 0 0 1-9.844-1.514 41.068 41.068 0 0 1-10.011-4.226 31.418 31.418 0 0 1-7.421-5.679 10.879 10.879 0 0 1-3.12-5.967 8.151 8.151 0 0 1 1.363-5.619 19.88 19.88 0 0 1 6.816-6.058 41.07 41.07 0 0 1 11.888-4.437 46.911 46.911 0 0 1 16.175-.727 38.21 38.21 0 0 1 14.494 4.861 18.514 18.514 0 0 1 7.239 6.664 7.658 7.658 0 0 1 .197 7.451 14.046 14.046 0 0 1-5.876 5.755 31.873 31.873 0 0 1-15.145 3.786c-5.392.152-9.602-.636-12.631-2.392a5.063 5.063 0 0 1-1.908-1.606 1.418 1.418 0 0 1 0-1.514 4.79 4.79 0 0 1 1.332-1.257zm-4.543-9.178c-1.923 1.121-3.029 2.241-3.12 3.377a2.623 2.623 0 0 0 1.515 2.741 9.63 9.63 0 0 0 3.195 1.03c1.503.234 3.025.31 4.544.227a24.78 24.78 0 0 0 5.467-.908 21.136 21.136 0 0 0 5.24-2.045c1.908-1.09 2.908-2.226 3.029-3.377a3.024 3.024 0 0 0-1.878-2.908 9.284 9.284 0 0 0-3.226-1.075 18.865 18.865 0 0 0-4.543 0c-1.86.173-3.698.538-5.483 1.09a22.627 22.627 0 0 0-4.679 1.848h-.061z" fill="#000"/><path d="M129.792 371.611c.92 0 1.666-.428 1.666-.954 0-.527-.746-.955-1.666-.955-.92 0-1.666.428-1.666.955 0 .526.746.954 1.666.954zM137.107 366.507a.723.723 0 0 1 .474.681.731.731 0 0 1-.474.682 2.667 2.667 0 0 1-2.348 0 .724.724 0 0 1-.343-.267.725.725 0 0 1 .343-1.096 2.58 2.58 0 0 1 2.348 0zM118.675 369.975a.73.73 0 0 1 .474.681.721.721 0 0 1-.474.682 2.666 2.666 0 0 1-2.347 0 .732.732 0 0 1-.474-.682.726.726 0 0 1 .474-.681 2.573 2.573 0 0 1 2.347 0zM124.824 366.507a.723.723 0 0 1 .474.681.724.724 0 0 1-.474.682 2.666 2.666 0 0 1-2.347 0 .732.732 0 0 1-.474-.682.726.726 0 0 1 .474-.681 2.573 2.573 0 0 1 2.347 0zM130.958 362.887c.651.379.651.985 0 1.348a2.576 2.576 0 0 1-2.348 0 .71.71 0 0 1-.349-1.088.712.712 0 0 1 .349-.26 2.58 2.58 0 0 1 2.348 0zM112.542 366.507a.723.723 0 0 1 .474.681.731.731 0 0 1-.474.682 2.67 2.67 0 0 1-2.348 0 .732.732 0 0 1-.474-.682.723.723 0 0 1 .474-.681 2.58 2.58 0 0 1 2.348 0zM118.675 362.887c.652.379.652.985 0 1.348a2.572 2.572 0 0 1-2.347 0c-.651-.363-.651-.969 0-1.348a2.573 2.573 0 0 1 2.347 0zM124.824 359.343a.715.715 0 0 1 .35 1.089.719.719 0 0 1-.35.259 2.573 2.573 0 0 1-2.347 0 .719.719 0 0 1-.35-.259.717.717 0 0 1 0-.829.715.715 0 0 1 .35-.26 2.572 2.572 0 0 1 2.347 0zM106.347 362.842a.726.726 0 0 1 0 1.363 2.572 2.572 0 0 1-2.347 0 .732.732 0 0 1-.474-.682.726.726 0 0 1 .474-.681 2.668 2.668 0 0 1 2.347 0zM112.481 359.298a.723.723 0 0 1 .474.681.721.721 0 0 1-.474.682 2.573 2.573 0 0 1-2.347 0 .732.732 0 0 1-.474-.682.726.726 0 0 1 .474-.681 2.663 2.663 0 0 1 2.347 0zM100.199 359.298a.727.727 0 0 1 0 1.363 2.578 2.578 0 0 1-2.348 0 .73.73 0 0 1-.344-1.097.722.722 0 0 1 .344-.266 2.667 2.667 0 0 1 2.348 0zM106.347 355.754a.726.726 0 0 1 0 1.363 2.663 2.663 0 0 1-2.347 0 .732.732 0 0 1-.474-.682.726.726 0 0 1 .474-.681 2.576 2.576 0 0 1 2.347 0zM94.065 355.754a.721.721 0 0 1 .474.681.724.724 0 0 1-.474.682 2.668 2.668 0 0 1-2.348 0 .73.73 0 0 1-.343-1.097.721.721 0 0 1 .343-.266 2.576 2.576 0 0 1 2.348 0zM100.199 352.21a.728.728 0 0 1 0 1.363 2.67 2.67 0 0 1-2.348 0 .728.728 0 0 1 0-1.363 2.576 2.576 0 0 1 2.348 0zM87.916 352.21a.73.73 0 0 1 0 1.363 2.668 2.668 0 0 1-2.347 0 .728.728 0 0 1 0-1.363 2.576 2.576 0 0 1 2.347 0zM94.065 348.666c.651.379.651.985 0 1.348a2.576 2.576 0 0 1-2.348 0c-.65-.363-.65-.969 0-1.348a2.576 2.576 0 0 1 2.348 0zM81.782 348.666c.652.379.652.985 0 1.348a2.576 2.576 0 0 1-2.347 0c-.651-.363-.651-.969 0-1.348a2.575 2.575 0 0 1 2.347 0zM87.916 345.122a.713.713 0 0 1 0 1.348 2.575 2.575 0 0 1-2.347 0 .717.717 0 0 1-.483-.674.708.708 0 0 1 .483-.674 2.575 2.575 0 0 1 2.347 0zM75.634 345.122a.713.713 0 0 1 0 1.348 2.576 2.576 0 0 1-2.348 0 .717.717 0 0 1-.483-.674.708.708 0 0 1 .483-.674 2.576 2.576 0 0 1 2.348 0zM81.782 341.578c.652.364.652.969 0 1.348a2.576 2.576 0 0 1-2.347 0c-.651-.379-.651-.984 0-1.348a2.575 2.575 0 0 1 2.347 0zM69.5 341.578c.651.364.651.969 0 1.348a2.575 2.575 0 0 1-2.347 0c-.652-.379-.652-.984 0-1.348a2.576 2.576 0 0 1 2.347 0zM75.634 338.034c.651.364.651.97 0 1.348a2.575 2.575 0 0 1-2.348 0c-.651-.378-.651-.984 0-1.348a2.575 2.575 0 0 1 2.348 0zM69.5 334.475a.73.73 0 0 1 .344 1.097.721.721 0 0 1-.344.266 2.576 2.576 0 0 1-2.347 0 .72.72 0 0 1-.475-.681.726.726 0 0 1 .475-.682 2.667 2.667 0 0 1 2.347 0zM140.848 362.933a2.56 2.56 0 0 1 2.347 0 .723.723 0 0 1 .474.681.726.726 0 0 1-.474.682 2.7 2.7 0 0 1-2.363 0 .724.724 0 0 1 .016-1.363zM149.404 359.389c.652.378.652.984 0 1.347a2.56 2.56 0 0 1-2.347 0c-.651-.363-.651-.969 0-1.347a2.577 2.577 0 0 1 2.347 0zM155.553 355.905c.651.364.651.969 0 1.348a2.573 2.573 0 0 1-2.347 0c-.652-.379-.652-.984 0-1.348a2.572 2.572 0 0 1 2.347 0zM161.687 352.301c.651.363.651.969 0 1.348a2.576 2.576 0 0 1-2.348 0c-.651-.379-.651-.985 0-1.348a2.58 2.58 0 0 1 2.348 0zM167.836 348.742a.723.723 0 0 1 .474.681.731.731 0 0 1-.474.682 2.576 2.576 0 0 1-2.348 0 .724.724 0 0 1-.343-.267.725.725 0 0 1 .343-1.096 2.672 2.672 0 0 1 2.348 0zM173.969 345.198a.719.719 0 0 1 .474.681.721.721 0 0 1-.474.682 2.572 2.572 0 0 1-2.347 0 .732.732 0 0 1-.474-.682.726.726 0 0 1 .474-.681 2.667 2.667 0 0 1 2.347 0zM180.118 341.654a.726.726 0 0 1 0 1.363 2.666 2.666 0 0 1-2.347 0 .727.727 0 0 1 0-1.363 2.573 2.573 0 0 1 2.347 0zM186.282 338.11a.727.727 0 0 1 0 1.363 2.666 2.666 0 0 1-2.347 0 .726.726 0 0 1 0-1.363 2.573 2.573 0 0 1 2.347 0zM191.22 336.202c.92 0 1.665-.427 1.665-.954 0-.527-.745-.954-1.665-.954-.921 0-1.666.427-1.666.954 0 .527.745.954 1.666.954zM134.79 359.389a2.573 2.573 0 0 1 2.347 0c.651.378.651.984 0 1.347a2.613 2.613 0 0 1-2.347 0 .723.723 0 0 1-.331-1.08.723.723 0 0 1 .331-.267zM143.271 355.905c.651.364.651.969 0 1.348a2.58 2.58 0 0 1-2.348 0c-.651-.379-.651-.984 0-1.348a2.58 2.58 0 0 1 2.348 0zM149.404 352.301c.652.363.652.969 0 1.348a2.572 2.572 0 0 1-2.347 0c-.651-.379-.651-.985 0-1.348a2.576 2.576 0 0 1 2.347 0zM155.553 348.742a.723.723 0 0 1 .474.681.724.724 0 0 1-.474.682 2.573 2.573 0 0 1-2.347 0 .732.732 0 0 1-.474-.682.726.726 0 0 1 .474-.681 2.667 2.667 0 0 1 2.347 0zM161.687 345.198a.723.723 0 0 1 .474.681.729.729 0 0 1-.474.682 2.576 2.576 0 0 1-2.348 0 .724.724 0 0 1-.343-.267.722.722 0 0 1 0-.83.716.716 0 0 1 .343-.266 2.67 2.67 0 0 1 2.348 0zM167.836 341.654a.736.736 0 0 1 .344.266.733.733 0 0 1 0 .831.736.736 0 0 1-.344.266 2.667 2.667 0 0 1-2.348 0 .728.728 0 0 1 0-1.363 2.58 2.58 0 0 1 2.348 0zM173.969 338.11a.73.73 0 0 1 .474.682.726.726 0 0 1-.474.681 2.663 2.663 0 0 1-2.347 0 .726.726 0 0 1 0-1.363 2.576 2.576 0 0 1 2.347 0zM180.118 334.566c.652.379.652.984 0 1.348a2.572 2.572 0 0 1-2.347 0c-.651-.364-.651-.969 0-1.348a2.573 2.573 0 0 1 2.347 0zM186.282 331.022a.715.715 0 0 1 .35 1.089.713.713 0 0 1-.35.259 2.572 2.572 0 0 1-2.347 0 .713.713 0 0 1 0-1.348 2.573 2.573 0 0 1 2.347 0zM191.22 329.099c.92 0 1.665-.427 1.665-.954 0-.527-.745-.955-1.665-.955-.921 0-1.666.428-1.666.955 0 .527.745.954 1.666.954zM128.626 355.905a2.572 2.572 0 0 1 2.347 0 .715.715 0 0 1 .35 1.089.713.713 0 0 1-.35.259 2.573 2.573 0 0 1-2.347 0c-.652-.424-.652-1.03 0-1.348zM137.122 352.301c.651.363.651.969 0 1.348a2.576 2.576 0 0 1-2.347 0c-.652-.379-.652-.985 0-1.348a2.572 2.572 0 0 1 2.347 0zM143.271 348.742a.723.723 0 0 1 .474.681.731.731 0 0 1-.474.682 2.58 2.58 0 0 1-2.348 0 .732.732 0 0 1-.474-.682.723.723 0 0 1 .474-.681 2.672 2.672 0 0 1 2.348 0zM149.404 345.198a.726.726 0 0 1 0 1.363 2.572 2.572 0 0 1-2.347 0 .732.732 0 0 1-.474-.682.726.726 0 0 1 .474-.681 2.667 2.667 0 0 1 2.347 0zM155.553 341.654a.726.726 0 0 1 0 1.363 2.667 2.667 0 0 1-2.347 0 .727.727 0 0 1 0-1.363 2.572 2.572 0 0 1 2.347 0zM161.687 338.11a.736.736 0 0 1 .344.266.734.734 0 0 1 0 .831.736.736 0 0 1-.344.266 2.667 2.667 0 0 1-2.348 0 .728.728 0 0 1 0-1.363 2.58 2.58 0 0 1 2.348 0zM167.836 334.566c.651.379.651.984 0 1.348a2.576 2.576 0 0 1-2.348 0c-.651-.364-.651-.969 0-1.348a2.58 2.58 0 0 1 2.348 0zM173.97 331.022a.712.712 0 0 1 0 1.348 2.58 2.58 0 0 1-2.348 0 .713.713 0 0 1 0-1.348 2.576 2.576 0 0 1 2.348 0zM180.118 327.478c.652.364.652.97 0 1.348a2.572 2.572 0 0 1-2.347 0c-.651-.378-.651-.984 0-1.348a2.573 2.573 0 0 1 2.347 0zM186.282 323.919a.732.732 0 0 1 .474.682.726.726 0 0 1-.474.681 2.572 2.572 0 0 1-2.347 0 .723.723 0 0 1-.474-.681.724.724 0 0 1 .474-.682 2.667 2.667 0 0 1 2.347 0z" fill="#16110D"/><path d="M155.129 49.13l-80.6-46.525a1.348 1.348 0 0 1-.713-1.878l66.471 4.74c5.271.364 9.269 2.65 9.95 5.695l8.588 38.301a5.166 5.166 0 0 1-3.696-.333z" fill="#FFBE2E"/><path d="M127.959 9.087l24.808 14.706-2.181-8.648a6.846 6.846 0 0 0-3.029-4.165l-1.515-.909a10.418 10.418 0 0 0-4.543-1.514l-13.025-.985a.876.876 0 0 0-.745.592.88.88 0 0 0 .23.923zM108.089 80.798L27.17 34.076c-1.181-.682-1.03-1.878.333-2.666L69.757 7.027a5.12 5.12 0 0 1 4.544-.197l80.919 46.707c1.181.697 1.03 1.878-.333 2.666L112.693 80.6a5.117 5.117 0 0 1-4.604.197z" fill="#FEC"/><path d="M110.164 77.663a4.8 4.8 0 0 1-2.347-.545l-80.92-46.722a2.014 2.014 0 0 1-1.15-1.757 2.575 2.575 0 0 1 1.514-2.105L69.515 2.15a5.77 5.77 0 0 1 5.3-.197l80.92 46.722a2.045 2.045 0 0 1 1.136 1.756 2.58 2.58 0 0 1-1.515 2.106L113.102 76.92a6.06 6.06 0 0 1-2.938.742zM72.438 2.787a4.74 4.74 0 0 0-2.257.56L27.928 27.745c-.575.334-.787.682-.787.91 0 .226.287.453.454.544l80.904 46.722a4.45 4.45 0 0 0 3.923-.197l42.254-24.398c.575-.333.787-.681.787-.894 0-.212-.287-.469-.454-.56L74.088 3.15a3.408 3.408 0 0 0-1.65-.363z" fill="#16110D"/><path d="M157.34 50.342a5.242 5.242 0 0 1-2.559-.606L74.21 3.21a2.045 2.045 0 0 1-1-2.817L73.423 0l66.91 4.77c5.573.394 9.829 2.908 10.601 6.24l8.708 38.968-.636.167a6.98 6.98 0 0 1-1.666.197zm-1.878-1.803a4.243 4.243 0 0 0 2.53.38l-8.436-37.606c-.621-2.726-4.362-4.8-9.314-5.164l-65.88-4.635c.093.246.278.447.514.56l80.586 46.465z" fill="#16110D"/><path d="M64.7 36l-12.904-7.452 17.977-10.39 12.903 7.452L64.7 36z" fill="#FFBE2E"/><path d="M64.7 36.59l-13.95-8.042 19.023-10.995L83.72 25.61 64.7 36.59zm-11.875-8.042L64.7 35.394l16.947-9.784-11.873-6.846-16.947 9.784z" fill="#16110D"/><path d="M64.82 32.986l-7.814-4.514 12.63-7.3 7.83 4.514-12.646 7.3z" fill="#FEC"/><path d="M64.82 33.576l-8.784-5.104 13.63-7.905 8.83 5.18-13.676 7.83zm-6.77-5.104l6.77 3.908 11.601-6.634-6.754-3.983-11.617 6.71z" fill="#16110D"/><path d="M72.393 49.66l-11.01-6.346 9.268-5.346 10.995 6.346-9.253 5.346z" fill="#FFBE2E"/><path d="M72.393 50.266l-12.04-6.951 10.298-5.953 12.116 6.952-10.374 5.952zm-9.966-6.951l9.966 5.74 8.223-4.74-9.965-5.756-8.224 4.756z" fill="#16110D"/><path d="M72.256 46.964l-6.194-3.589 4.71-2.71 6.21 3.573-4.726 2.726z" fill="#FEC"/><path d="M72.257 47.555l-7.24-4.165 5.755-3.332 7.24 4.18-5.755 3.317zm-5.15-4.165l5.15 3.03 3.68-2.121-5.165-3.03-3.665 2.121zM50.75 32.773a9.935 9.935 0 0 1-4.815-1.15 3.634 3.634 0 0 1-2.12-3.03 3.605 3.605 0 0 1 2.12-3.028 10.601 10.601 0 0 1 9.632 0 3.574 3.574 0 0 1 2.105 3.028 3.619 3.619 0 0 1-2.105 3.03 9.935 9.935 0 0 1-4.816 1.15zm0-7.572a9.087 9.087 0 0 0-4.452 1.06 2.923 2.923 0 0 0-1.742 2.363 2.923 2.923 0 0 0 1.742 2.347 9.814 9.814 0 0 0 8.905 0 2.922 2.922 0 0 0 1.742-2.347 2.922 2.922 0 0 0-1.742-2.363 9.087 9.087 0 0 0-4.452-1.06z" fill="#16110D"/><path d="M50.75 26.337a6.058 6.058 0 0 0-3.028.742 1.908 1.908 0 0 0-1.151 1.514 1.953 1.953 0 0 0 1.15 1.515 6.739 6.739 0 0 0 6.059 0 1.953 1.953 0 0 0 1.15-1.515 1.908 1.908 0 0 0-1.15-1.514 6.059 6.059 0 0 0-3.03-.742zM121.826 58.323a19.78 19.78 0 0 1-9.754-2.287c-2.695-1.514-4.18-3.65-4.18-5.907 0-2.256 1.515-4.361 4.18-5.921a21.552 21.552 0 0 1 19.446 0c2.696 1.514 4.18 3.665 4.18 5.922 0 2.256-1.514 4.361-4.18 5.906a19.684 19.684 0 0 1-9.692 2.287zm0-15.448a18.809 18.809 0 0 0-9.208 2.196c-2.363 1.363-3.65 3.135-3.65 5.013 0 1.878 1.287 3.65 3.65 5.013a20.338 20.338 0 0 0 18.416 0c2.362-1.363 3.665-3.15 3.665-5.013s-1.303-3.65-3.665-5.013a18.783 18.783 0 0 0-9.208-2.196z" fill="#16110D"/><path d="M121.826 56.37a15.038 15.038 0 0 1-7.33-1.757 5.452 5.452 0 0 1-3.196-4.544 5.43 5.43 0 0 1 3.196-4.543 16.143 16.143 0 0 1 14.66 0 5.44 5.44 0 0 1 3.195 4.543 5.447 5.447 0 0 1-3.195 4.544 14.948 14.948 0 0 1-7.33 1.756zm0-11.541a13.876 13.876 0 0 0-6.816 1.62 4.547 4.547 0 0 0-2.665 3.635 4.551 4.551 0 0 0 2.665 3.635 15.149 15.149 0 0 0 13.631 0 4.54 4.54 0 0 0 2.665-3.635 4.54 4.54 0 0 0-2.665-3.635 13.872 13.872 0 0 0-6.815-1.62z" fill="#16110D"/><path d="M140.227 40.528L84.206 8.193l9.692-5.936a10.39 10.39 0 0 1 9.33-.38l47.328 27.338c2.377 1.378 2.09 3.786-.682 5.391l-9.647 5.922z" fill="#FFBE2E"/><path d="M139.984 40.437L86.326 9.496l7.345-4.544a10.36 10.36 0 0 1 9.314-.409l45.011 25.959c2.393 1.378 2.09 3.786-.666 5.376l-7.346 4.559z" fill="#FEC"/><path d="M140.227 41.133L83.176 8.194 93.61 1.817a10.95 10.95 0 0 1 9.844-.393l47.358 27.351a3.286 3.286 0 0 1 1.863 2.787 4.322 4.322 0 0 1-2.529 3.483l-9.92 6.088zM85.251 8.194l54.976 31.805 9.39-5.786a3.412 3.412 0 0 0 2.029-2.59 2.287 2.287 0 0 0-1.348-1.893L102.985 2.332a9.795 9.795 0 0 0-8.799.379l-8.935 5.482zM121.705 49.978l-.636-1.12 2.62-1.515c.424-.243.666-.53.666-.803 0-.272-.242-.56-.666-.803l-.334-.196a4.543 4.543 0 0 0-4.058 0l-.288.166a5.814 5.814 0 0 1-5.331 0l-.349-.197a2.079 2.079 0 0 1-1.278-1.916 2.079 2.079 0 0 1 1.278-1.915l.288-.152c.409-.242.651-.53.651-.803 0-.272-.242-.56-.651-.802l-.212-.121a4.543 4.543 0 0 0-4.059 0l-.272.151a5.755 5.755 0 0 1-5.346 0 2.228 2.228 0 0 1-1.288-1.908 2.262 2.262 0 0 1 1.288-1.908l.272-.152c.424-.242.667-.53.667-.803 0-.272-.243-.56-.667-.802l-.272-.167a4.547 4.547 0 0 0-4.06 0l-2.62 1.515-.635-1.106 2.62-1.514a5.815 5.815 0 0 1 5.331 0l.287.166a2.225 2.225 0 0 1 1.363 1.954 2.253 2.253 0 0 1-1.287 1.908l-.288.152c-.409.242-.651.545-.651.802 0 .258.242.576.651.803a4.547 4.547 0 0 0 4.059 0l.288-.151a5.813 5.813 0 0 1 5.331 0l.212.12a2.06 2.06 0 0 1 0 3.816l-.288.168c-.409.227-.651.53-.651.787 0 .258.242.576.651.803l.349.212a4.543 4.543 0 0 0 4.058 0l.273-.166a5.845 5.845 0 0 1 5.346 0l.349.196a2.26 2.26 0 0 1 1.287 1.909 2.226 2.226 0 0 1-1.363 1.878l-2.635 1.514z" fill="#16110D"/><path d="M110.194 69.06l-.56-.908 2.302-1.333c.379-.212.576-.47.576-.712s-.197-.484-.576-.696l-.303-.182a3.984 3.984 0 0 0-3.559 0l-.242.136a5.106 5.106 0 0 1-4.68 0l-.303-.166a1.822 1.822 0 0 1-1.127-1.681 1.815 1.815 0 0 1 1.127-1.681l.242-.137c.364-.212.576-.47.576-.696 0-.227-.212-.5-.576-.712l-.106-.167a4.013 4.013 0 0 0-3.574 0l-.242.136a5.103 5.103 0 0 1-4.68 0 1.802 1.802 0 0 1 0-3.347l.242-.136c.364-.212.576-.47.576-.712s-.212-.5-.576-.696l-.242-.152a3.983 3.983 0 0 0-3.559 0l-2.317 1.333-.56-.97 2.317-1.332a5.104 5.104 0 0 1 4.68 0l.242.136a1.817 1.817 0 0 1 0 3.363l-.243.136c-.363.212-.575.47-.575.712s.212.484.575.696a3.984 3.984 0 0 0 3.56 0l.242-.136a5.134 5.134 0 0 1 4.695 0l.181.106a1.801 1.801 0 0 1 0 3.347l-.242.151c-.363.197-.575.455-.575.697 0 .242.212.5.575.712l.303.166a3.985 3.985 0 0 0 3.559 0l.242-.136a5.138 5.138 0 0 1 4.695 0l.303.167a1.815 1.815 0 0 1 0 3.362l-2.393 1.333z" fill="#FFBE2E"/><path d="M124.766 4.053l-.595 1.003 28.007 16.61.595-1.004-28.007-16.61zM86.795 79.708a.726.726 0 0 1 0 1.363 2.665 2.665 0 0 1-2.347 0 .727.727 0 0 1 0-1.363 2.574 2.574 0 0 1 2.347 0zM92.944 76.164c.652.378.652.984 0 1.348a2.574 2.574 0 0 1-2.347 0c-.651-.364-.651-.97 0-1.348a2.576 2.576 0 0 1 2.347 0zM80.662 76.164c.651.378.651.984 0 1.348a2.574 2.574 0 0 1-2.348 0c-.65-.364-.65-.97 0-1.348a2.575 2.575 0 0 1 2.348 0zM86.796 72.696a.712.712 0 0 1 0 1.347 2.575 2.575 0 0 1-2.348 0 .712.712 0 0 1 0-1.347 2.574 2.574 0 0 1 2.348 0zM74.513 72.696a.712.712 0 0 1 0 1.347 2.576 2.576 0 0 1-2.347 0 .712.712 0 0 1 0-1.347 2.574 2.574 0 0 1 2.347 0zM80.662 69.076c.651.363.651.97 0 1.348a2.574 2.574 0 0 1-2.348 0c-.65-.379-.65-.985 0-1.348a2.574 2.574 0 0 1 2.348 0zM68.38 69.076a.71.71 0 0 1 0 1.348 2.574 2.574 0 0 1-2.348 0c-.651-.379-.651-.985 0-1.348a2.574 2.574 0 0 1 2.347 0zM74.513 65.517a.727.727 0 0 1 0 1.363 2.574 2.574 0 0 1-2.348 0 .727.727 0 0 1 0-1.363 2.666 2.666 0 0 1 2.348 0zM62.23 65.517a.727.727 0 0 1 0 1.363 2.574 2.574 0 0 1-2.347 0 .727.727 0 0 1 0-1.363 2.667 2.667 0 0 1 2.347 0zM68.38 61.973a.727.727 0 0 1 0 1.363 2.575 2.575 0 0 1-2.348 0 .728.728 0 0 1 0-1.363 2.665 2.665 0 0 1 2.347 0zM56.036 61.943c.651.378.651.984 0 1.347a2.574 2.574 0 0 1-2.347 0c-.651-.363-.651-.969 0-1.347a2.576 2.576 0 0 1 2.347 0zM62.185 58.399a.713.713 0 0 1 0 1.348 2.574 2.574 0 0 1-2.347 0 .712.712 0 0 1 0-1.348 2.574 2.574 0 0 1 2.347 0zM49.978 58.399a.712.712 0 0 1 0 1.348 2.605 2.605 0 0 1-2.362 0 .71.71 0 0 1 0-1.348 2.605 2.605 0 0 1 2.362 0zM56.036 54.855c.651.363.651.97 0 1.348a2.576 2.576 0 0 1-2.347 0c-.651-.379-.651-.985 0-1.348a2.574 2.574 0 0 1 2.347 0zM43.754 54.855c.651.363.651.97 0 1.348a2.575 2.575 0 0 1-2.348 0c-.651-.379-.651-.985 0-1.348a2.574 2.574 0 0 1 2.348 0zM49.978 51.296a.727.727 0 0 1 0 1.363 2.605 2.605 0 0 1-2.362 0 .727.727 0 0 1 0-1.363 2.696 2.696 0 0 1 2.362 0zM37.62 51.311a.711.711 0 0 1 0 1.348 2.605 2.605 0 0 1-2.363 0 .712.712 0 0 1 0-1.348 2.605 2.605 0 0 1 2.363 0zM43.754 47.752a.727.727 0 0 1 0 1.363 2.574 2.574 0 0 1-2.348 0 .727.727 0 0 1 0-1.363 2.667 2.667 0 0 1 2.348 0zM31.471 47.752a.728.728 0 0 1 0 1.363 2.574 2.574 0 0 1-2.347 0 .727.727 0 0 1 0-1.363 2.666 2.666 0 0 1 2.347 0zM37.62 44.208a.728.728 0 0 1 0 1.363 2.605 2.605 0 0 1-2.363 0 .727.727 0 0 1 0-1.363 2.697 2.697 0 0 1 2.363 0zM25.337 44.208a.727.727 0 0 1 0 1.363 2.605 2.605 0 0 1-2.362 0 .727.727 0 0 1 0-1.363 2.697 2.697 0 0 1 2.362 0zM31.471 40.664a.727.727 0 0 1 0 1.363 2.665 2.665 0 0 1-2.347 0 .727.727 0 0 1 0-1.363 2.574 2.574 0 0 1 2.347 0zM25.337 37.12a.726.726 0 0 1 0 1.363 2.695 2.695 0 0 1-2.362 0 .727.727 0 0 1 0-1.363 2.605 2.605 0 0 1 2.362 0zM123.946 93.353a.73.73 0 0 1 .344 1.097.73.73 0 0 1-.344.266 2.575 2.575 0 0 1-2.348 0 .722.722 0 0 1-.473-.681.725.725 0 0 1 .473-.682 2.668 2.668 0 0 1 2.348 0zM128.914 91.445c.92 0 1.665-.427 1.665-.954 0-.527-.745-.954-1.665-.954-.921 0-1.666.427-1.666.954 0 .527.745.954 1.666.954zM135.047 87.901c.92 0 1.666-.427 1.666-.954 0-.527-.746-.954-1.666-.954-.92 0-1.666.427-1.666.954 0 .527.746.954 1.666.954zM111.603 93.323a.73.73 0 0 1 .344 1.097.73.73 0 0 1-.344.266 2.67 2.67 0 0 1-2.348 0 .726.726 0 0 1 0-1.363 2.58 2.58 0 0 1 2.348 0zM116.57 91.415c.92 0 1.666-.428 1.666-.955 0-.526-.746-.954-1.666-.954-.92 0-1.666.427-1.666.954 0 .527.746.955 1.666.955zM123.885 86.235a.714.714 0 0 1 .35 1.088.714.714 0 0 1-.35.26 2.57 2.57 0 0 1-2.347 0 .714.714 0 0 1-.35-1.088.714.714 0 0 1 .35-.26 2.575 2.575 0 0 1 2.347 0zM130.034 82.691c.651.364.651.97 0 1.348a2.57 2.57 0 0 1-2.347 0c-.651-.379-.651-.984 0-1.348a2.572 2.572 0 0 1 2.347 0zM105.469 89.779c.652.379.652.984 0 1.348a2.572 2.572 0 0 1-2.347 0c-.651-.364-.651-.97 0-1.348a2.572 2.572 0 0 1 2.347 0zM111.603 86.235a.714.714 0 0 1 .35 1.088.714.714 0 0 1-.35.26 2.575 2.575 0 0 1-2.348 0 .711.711 0 0 1 0-1.348 2.578 2.578 0 0 1 2.348 0zM117.752 82.691c.651.364.651.97 0 1.348a2.575 2.575 0 0 1-2.348 0c-.651-.379-.651-.984 0-1.348a2.578 2.578 0 0 1 2.348 0zM123.885 79.147c.652.364.652.97 0 1.348a2.572 2.572 0 0 1-2.347 0c-.651-.378-.651-.984 0-1.348a2.572 2.572 0 0 1 2.347 0zM99.32 86.235a.712.712 0 0 1 0 1.348 2.574 2.574 0 0 1-2.347 0 .712.712 0 0 1 0-1.348 2.574 2.574 0 0 1 2.347 0zM105.469 82.691c.652.364.652.97 0 1.348a2.57 2.57 0 0 1-2.347 0c-.651-.379-.651-.984 0-1.348a2.572 2.572 0 0 1 2.347 0zM93.187 82.691a.712.712 0 0 1 0 1.348 2.574 2.574 0 0 1-2.348 0c-.651-.379-.651-.984 0-1.348a2.574 2.574 0 0 1 2.348 0zM99.32 79.147c.652.364.652.97 0 1.348a2.576 2.576 0 0 1-2.347 0c-.651-.378-.651-.984 0-1.348a2.574 2.574 0 0 1 2.347 0zM140.03 82.767a2.665 2.665 0 0 1 2.347 0 .73.73 0 0 1 .344 1.097.73.73 0 0 1-.344.266 2.57 2.57 0 0 1-2.347 0 .73.73 0 0 1-.344-1.097.73.73 0 0 1 .344-.266zM148.526 79.223a.73.73 0 0 1 .344 1.097.73.73 0 0 1-.344.266 2.666 2.666 0 0 1-2.347 0 .73.73 0 0 1-.474-.682.725.725 0 0 1 .474-.681 2.572 2.572 0 0 1 2.347 0zM154.675 75.725a.714.714 0 0 1 .35 1.088.713.713 0 0 1-.35.26 2.575 2.575 0 0 1-2.347 0c-.652-.364-.652-.97 0-1.348a2.572 2.572 0 0 1 2.347 0zM160.809 72.135a.706.706 0 0 1 .482.674.709.709 0 0 1-.482.674 2.58 2.58 0 0 1-2.348 0 .707.707 0 0 1-.482-.674.709.709 0 0 1 .482-.674 2.578 2.578 0 0 1 2.348 0zM166.958 68.591c.651.364.651.97 0 1.348a2.578 2.578 0 0 1-2.348 0c-.651-.378-.651-.984 0-1.348a2.575 2.575 0 0 1 2.348 0zM133.836 79.193a2.571 2.571 0 0 1 2.347 0c.651.363.651.969 0 1.347a2.575 2.575 0 0 1-2.347 0c-.652-.363-.652-.969 0-1.347zM142.362 75.633a.73.73 0 0 1 .474.682.725.725 0 0 1-.474.682 2.572 2.572 0 0 1-2.347 0 .73.73 0 0 1-.344-1.097.73.73 0 0 1 .344-.267 2.665 2.665 0 0 1 2.347 0zM148.42 72.09a.73.73 0 0 1 .344 1.096.73.73 0 0 1-.344.267 2.603 2.603 0 0 1-2.362 0 .724.724 0 0 1-.344-1.097.724.724 0 0 1 .344-.266 2.696 2.696 0 0 1 2.362 0zM154.614 68.546a.72.72 0 0 1 .474.681.725.725 0 0 1-.474.682 2.662 2.662 0 0 1-2.347 0 .73.73 0 0 1-.474-.682.725.725 0 0 1 .474-.681 2.576 2.576 0 0 1 2.347 0zM160.763 65.002a.73.73 0 0 1 .344 1.097.73.73 0 0 1-.344.266 2.66 2.66 0 0 1-2.347 0 .73.73 0 0 1-.344-1.097.73.73 0 0 1 .344-.266 2.57 2.57 0 0 1 2.347 0zM166.897 61.458c.651.379.651.985 0 1.348a2.575 2.575 0 0 1-2.348 0c-.651-.363-.651-.97 0-1.348a2.58 2.58 0 0 1 2.348 0zM127.687 75.725a2.572 2.572 0 0 1 2.347 0 .714.714 0 0 1 .35 1.088.713.713 0 0 1-.35.26 2.572 2.572 0 0 1-2.347 0 .713.713 0 0 1 0-1.348zM136.198 72.09a.73.73 0 0 1 .344 1.096.73.73 0 0 1-.344.267 2.606 2.606 0 0 1-2.362 0 .72.72 0 0 1-.474-.682.725.725 0 0 1 .474-.681 2.696 2.696 0 0 1 2.362 0zM142.362 68.546a.73.73 0 0 1 .344 1.096.73.73 0 0 1-.344.267 2.666 2.666 0 0 1-2.347 0 .73.73 0 0 1-.474-.682.725.725 0 0 1 .474-.681 2.572 2.572 0 0 1 2.347 0zM148.42 65.002a.73.73 0 0 1 .344 1.097.73.73 0 0 1-.344.266 2.696 2.696 0 0 1-2.362 0 .724.724 0 0 1-.344-1.097.724.724 0 0 1 .344-.266 2.603 2.603 0 0 1 2.362 0zM154.614 61.458c.652.379.652.985 0 1.348a2.57 2.57 0 0 1-2.347 0c-.651-.363-.651-.97 0-1.348a2.576 2.576 0 0 1 2.347 0zM160.763 57.914a.714.714 0 0 1 .35 1.089.714.714 0 0 1-.35.26 2.572 2.572 0 0 1-2.347 0 .714.714 0 0 1-.35-1.09.714.714 0 0 1 .35-.259 2.57 2.57 0 0 1 2.347 0z" fill="#16110D"/><path d="M461.147 142.741l-67.44 38.816-99.684-57.566 67.425-38.816 99.699 57.566z" fill="#FFBE2E"/><path d="M461.147 147.86l-67.44 38.816-99.684-57.566 67.425-38.816 99.699 57.566z" fill="#FEC"/><path d="M294.023 123.991v58.869l99.684 57.55v-58.853l-99.684-57.566z" fill="#FFBE2E"/><path d="M330.129 148.617l19.355 11.177 58.444-34.455-18.78-11.01-59.019 34.288z" fill="#FFBE2E"/><path d="M461.147 141.802l-99.699-57.55-67.425 38.816-.802.469v59.716l99.683 57.551.803.454.803-.454 67.41-38.756v-59.777l-.773-.469zm-68.243 97.215l-98.078-56.627v-57.005l98.078 56.626v57.006zm-97.275-115.026l65.819-37.862 98.094 56.642-27.049 15.554-38.725 22.308-98.139-56.642z" fill="#16110D"/><path d="M411.033 121.159l-21.203-12.403-60.186 35.121-.606-.349v.697l-.59.348.59.349v58.929l21.779 12.555V156.72l60.216-35.561zm-21.203-11.01l18.825 11.01-58.444 34.455-19.37-11.177 58.989-34.288zm-59.61 92.869v-57.551l19.355 11.177v57.55l-19.355-11.176z" fill="#191410"/><path d="M357.889 111.073l-14.1 8.163 16.796 9.693 14.145-8.164-16.841-9.692zm2.454 13.736l-9.451-5.467 7.194-4.15 9.466 5.467-7.209 4.15z" fill="#FFBE2E"/><path d="M360.343 125.703l-10.935-6.331 8.678-5.013 10.935 6.331-8.678 5.013zm-7.982-6.331l7.982 4.544 5.725-3.302-7.982-4.543-5.725 3.301z" fill="#16110D"/><path d="M360.54 129.792l-18.265-10.602 15.614-9.087 18.265 10.602-15.614 9.087zm-15.312-10.602l15.312 8.83 12.661-7.3-15.312-8.799-12.661 7.269z" fill="#16110D"/><path d="M431.085 149.344l-.727-1.242 3.029-1.727c.484-.272.742-.605.742-.908 0-.303-.258-.636-.742-.909l-.379-.227a5.225 5.225 0 0 0-4.543 0l-.318.182a6.562 6.562 0 0 1-6.058 0l-.394-.228a2.334 2.334 0 0 1-1.467-2.165 2.334 2.334 0 0 1 1.467-2.166l.318-.182c.469-.272.742-.59.742-.908 0-.318-.273-.637-.742-.909l-.242-.136a5.217 5.217 0 0 0-4.544 0l-.303.181a6.584 6.584 0 0 1-6.058 0 2.343 2.343 0 0 1-1.048-3.466 2.336 2.336 0 0 1 1.048-.865l.318-.167c.47-.272.742-.606.742-.924 0-.318-.272-.636-.742-.908l-.318-.182a5.196 5.196 0 0 0-4.543 0l-3.029 1.726-.727-1.257 3.029-1.711a6.556 6.556 0 0 1 6.058 0l.318.182a2.32 2.32 0 0 1 1.07 3.465 2.32 2.32 0 0 1-1.07.851l-.318.182c-.47.272-.742.606-.742.909 0 .302.272.636.742.908a5.127 5.127 0 0 0 4.543 0l.318-.181a6.65 6.65 0 0 1 6.058 0l.243.136a2.342 2.342 0 0 1 1.441 2.166 2.35 2.35 0 0 1-1.441 2.165l-.319.182c-.469.273-.742.606-.742.909 0 .303.273.636.742.908l.394.228a5.117 5.117 0 0 0 4.544 0l.318-.182a6.645 6.645 0 0 1 6.058 0l.394.227a2.334 2.334 0 0 1 0 4.331l-3.12 1.712zM396.539 168.199l-17.114-9.889 23.854-13.767 17.113 9.875-23.853 13.781z" fill="#FFBE2E"/><path d="M396.539 169.047l-18.598-10.737 25.338-14.63 18.598 10.798-25.338 14.569zM380.91 158.31l15.629 9.087 22.369-12.919-15.629-9.087-22.369 12.919z" fill="#16110D"/><path d="M396.721 164.201l-10.374-5.982 16.765-9.678 10.359 5.982-16.75 9.678z" fill="#FEC"/><path d="M396.796 165.079l-11.858-6.845 18.25-10.601 11.782 6.845-18.174 10.601zm-8.89-6.845l8.89 5.134 15.145-8.89-8.89-5.134-15.145 8.89zM334.793 130.08a19.704 19.704 0 0 1-9.632-2.302c-2.726-1.515-4.21-3.696-4.21-6.058 0-2.363 1.514-4.423 4.21-6.058a21.36 21.36 0 0 1 19.264 0c2.726 1.514 4.211 3.695 4.211 6.058 0 2.362-1.515 4.422-4.211 6.058a19.701 19.701 0 0 1-9.632 2.302zm0-15.145c-3.1-.065-6.166.665-8.905 2.12-2.226 1.287-3.468 3.029-3.468 4.71s1.242 3.423 3.483 4.71a19.69 19.69 0 0 0 17.795 0c2.227-1.287 3.469-3.029 3.469-4.71s-1.242-3.423-3.469-4.71a18.171 18.171 0 0 0-8.905-2.105v-.015z" fill="#16110D"/><path d="M334.793 127.778a13.944 13.944 0 0 1-6.83-1.621 4.664 4.664 0 0 1 0-8.754 15.147 15.147 0 0 1 13.63 0 4.668 4.668 0 0 1 3.052 4.377 4.663 4.663 0 0 1-3.052 4.377 14.093 14.093 0 0 1-6.8 1.621zm0-10.602c-2.115-.018-4.2.503-6.058 1.515a3.216 3.216 0 0 0-1.687 1.152 3.215 3.215 0 0 0 1.687 5.027 13.488 13.488 0 0 0 12.116 0 3.208 3.208 0 0 0 2.337-3.09 3.21 3.21 0 0 0-2.337-3.089 12.435 12.435 0 0 0-6.058-1.454v-.061zM414.092 138.818l-.803-1.378 3.272-1.878c.515-.303.818-.666.818-1 0-.333-.303-.696-.818-.999l-.424-.242a5.707 5.707 0 0 0-5.059 0l-.333.196a7.255 7.255 0 0 1-6.649 0l-.424-.257a2.561 2.561 0 0 1-1.158-3.798c.284-.422.687-.75 1.158-.942l.349-.197c.515-.303.802-.667.802-1 0-.333-.287-.696-.802-.999l-.258-.152a5.716 5.716 0 0 0-5.058 0l-.333.197a7.256 7.256 0 0 1-6.649 0 2.803 2.803 0 0 1-1.605-2.378 2.828 2.828 0 0 1 1.605-2.377l.348-.197c.515-.288.818-.652.818-1s-.303-.697-.818-.984l-.348-.212a5.673 5.673 0 0 0-5.043 0l-3.256 1.938-.803-1.378 3.271-1.893a7.313 7.313 0 0 1 6.634 0l.348.212a2.561 2.561 0 0 1 1.158 3.798c-.284.422-.687.75-1.158.942l-.348.197c-.515.303-.818.667-.818 1 0 .333.303.696.818.999a5.672 5.672 0 0 0 5.043 0l.348-.197a7.238 7.238 0 0 1 6.634 0l.257.152a2.774 2.774 0 0 1 1.606 2.378 2.806 2.806 0 0 1-1.606 2.377l-.348.197c-.5.288-.803.652-.803 1s.303.697.818.984l.424.258a5.686 5.686 0 0 0 5.043 0l.349-.197a7.22 7.22 0 0 1 6.633 0l.439.242a2.567 2.567 0 0 1 1.613 2.378 2.562 2.562 0 0 1-1.613 2.378l-3.271 1.832z" fill="#16110D"/><path d="M362.1 212.347l-19.462-11.238v-29.956L362.1 182.39v29.957z" fill="#FFBE2E"/><path d="M362.705 213.392l-20.672-11.965v-31.35l20.672 11.935v31.38zm-19.476-12.631l18.265 10.601v-28.623l-18.265-10.602v28.624z" fill="#16110D"/><path d="M360.1 208.424l-12.797-7.39v-21.4l12.797 7.375v21.415z" fill="#FEC"/><path d="M359.374 207.197l-14.07-8.087v-22.808l14.009 8.087.061 22.808zm-12.798-8.784l11.586 6.694v-20.021l-11.586-6.694v20.021z" fill="#16110D"/><path d="M318.928 188.264c2.978-1.719 2.974-7.299-.008-12.464s-7.813-7.958-10.79-6.239c-2.977 1.718-2.973 7.299.009 12.463 2.982 5.165 7.812 7.959 10.789 6.24z" fill="#FEC"/><path d="M311.622 185.54a20.603 20.603 0 0 1-9.33-16.144c0-5.937 4.18-8.36 9.33-5.392a20.696 20.696 0 0 1 9.329 16.22c0 5.877-4.195 8.285-9.329 5.316zm0-20.324c-4.544-2.635-8.285-.5-8.285 4.77a18.307 18.307 0 0 0 8.285 14.358c4.543 2.635 8.284.484 8.284-4.786a18.356 18.356 0 0 0-8.284-14.342z" fill="#16110D"/><path d="M311.622 182.829a15.26 15.26 0 0 1-6.891-11.934c0-4.392 3.029-6.179 6.891-3.983a15.266 15.266 0 0 1 6.891 11.934c0 4.407-3.09 6.179-6.891 3.983zm0-14.721c-3.226-1.862-5.861-.348-5.861 3.378.112 2.032.702 4.01 1.72 5.772a12.967 12.967 0 0 0 4.141 4.375c3.225 1.863 5.846.348 5.846-3.377a12.974 12.974 0 0 0-5.846-10.148zM363.039 217.966a20.65 20.65 0 0 1-9.33-16.16c0-5.937 4.18-8.36 9.33-5.392a20.683 20.683 0 0 1 9.314 16.16c0 5.937-4.18 8.36-9.314 5.392zm0-20.34c-4.544-2.635-8.285-.5-8.285 4.786a18.32 18.32 0 0 0 8.285 14.342c4.543 2.635 8.284.5 8.284-4.786a18.352 18.352 0 0 0-8.284-14.342z" fill="#16110D"/><path d="M363.039 215.239a15.261 15.261 0 0 1-6.906-11.934c0-4.392 3.029-6.179 6.906-3.983a15.261 15.261 0 0 1 6.891 11.949c0 4.377-3.09 6.164-6.891 3.968zm0-14.705c-3.241-1.863-5.861-.349-5.861 3.377a12.91 12.91 0 0 0 5.861 10.132c3.226 1.863 5.846.348 5.846-3.377a12.957 12.957 0 0 0-5.846-10.132z" fill="#16110D"/><path d="M445.457 211.756v-27.034l-17.432 10.102v26.958l1.348-.772v-25.414l14.736-8.526v25.458l1.348-.772z" fill="#FFBE2E"/><path d="M415.955 211.165h-.985v-.439a3.39 3.39 0 0 1 1.515-2.696l.727-.439a1.347 1.347 0 0 1 1.378-.091 1.519 1.519 0 0 1 .606 1.288c-.014.14.024.28.106.394 0 0 .197 0 .379-.091l.802-.485a2.36 2.36 0 0 0 .985-1.787 3.402 3.402 0 0 1 1.514-2.681l.697-.424a1.347 1.347 0 0 1 1.378-.091 1.511 1.511 0 0 1 .606 1.288c0 .227 0 .363.121.393.121.031.197 0 .379-.09l.575-.349a2.35 2.35 0 0 0 .984-1.787 3.42 3.42 0 0 1 1.515-2.681l.697-.424a1.347 1.347 0 0 1 1.378-.09 1.51 1.51 0 0 1 .606 1.287v.591h-1v-.591c0-.212 0-.348-.106-.379-.106-.03-.197 0-.379.091l-.681.409a2.385 2.385 0 0 0-1 1.787 3.402 3.402 0 0 1-1.514 2.681l-.576.348a1.271 1.271 0 0 1-1.378.091 1.424 1.424 0 0 1-.621-1.287c0-.212 0-.349-.106-.379-.106-.03-.197 0-.378.091l-.697.424a2.381 2.381 0 0 0-.985 1.772 3.435 3.435 0 0 1-1.514 2.696l-.803.469a1.271 1.271 0 0 1-1.378.091 1.51 1.51 0 0 1-.606-1.287c0-.212 0-.349-.121-.379-.121-.03-.182 0-.363.091l-.727.439a2.377 2.377 0 0 0-1 1.787l-.03.439z" fill="#FFBE2E"/><path d="M364.523 241.788a.732.732 0 0 1 .474.682.723.723 0 0 1-.474.681 2.564 2.564 0 0 1-2.348 0 .727.727 0 0 1 0-1.363 2.67 2.67 0 0 1 2.348 0zM370.656 238.244a.722.722 0 0 1 .474.682.726.726 0 0 1-.474.682 2.572 2.572 0 0 1-2.347 0 .732.732 0 0 1-.474-.682.726.726 0 0 1 .474-.682 2.667 2.667 0 0 1 2.347 0zM376.805 234.746a.732.732 0 0 1 .474.682.726.726 0 0 1-.474.681 2.664 2.664 0 0 1-2.347 0 .723.723 0 0 1-.474-.681.721.721 0 0 1 .474-.682 2.573 2.573 0 0 1 2.347 0zM358.374 238.244a.732.732 0 0 1 .474.682.726.726 0 0 1-.474.682 2.576 2.576 0 0 1-2.348 0 .727.727 0 0 1 0-1.364 2.67 2.67 0 0 1 2.348 0zM364.523 234.746a.732.732 0 0 1 .474.682.723.723 0 0 1-.474.681 2.668 2.668 0 0 1-2.348 0 .727.727 0 0 1 0-1.363 2.58 2.58 0 0 1 2.348 0zM370.656 231.157a.726.726 0 0 1 0 1.363 2.663 2.663 0 0 1-2.347 0 .732.732 0 0 1-.474-.682.726.726 0 0 1 .474-.681 2.576 2.576 0 0 1 2.347 0zM352.24 234.746a.732.732 0 0 1 .474.682.726.726 0 0 1-.474.681 2.667 2.667 0 0 1-2.347 0 .723.723 0 0 1-.474-.681.721.721 0 0 1 .474-.682 2.573 2.573 0 0 1 2.347 0zM358.374 231.157a.723.723 0 0 1 .474.681.721.721 0 0 1-.474.682 2.667 2.667 0 0 1-2.348 0 .724.724 0 0 1-.343-.267.722.722 0 0 1 0-.83.716.716 0 0 1 .343-.266 2.58 2.58 0 0 1 2.348 0zM364.523 227.613c.651.378.651.984 0 1.348a2.576 2.576 0 0 1-2.348 0c-.651-.364-.651-.97 0-1.348a2.58 2.58 0 0 1 2.348 0zM346.091 231.157a.723.723 0 0 1 .474.681.721.721 0 0 1-.474.682 2.663 2.663 0 0 1-2.347 0 .732.732 0 0 1-.474-.682.726.726 0 0 1 .474-.681 2.573 2.573 0 0 1 2.347 0zM352.24 227.613c.652.378.652.984 0 1.348a2.572 2.572 0 0 1-2.347 0c-.651-.364-.651-.97 0-1.348a2.573 2.573 0 0 1 2.347 0zM358.374 224.145a.713.713 0 0 1 0 1.348 2.576 2.576 0 0 1-2.348 0 .712.712 0 0 1 0-1.348 2.58 2.58 0 0 1 2.348 0zM339.958 227.613c.651.378.651.984 0 1.348a2.576 2.576 0 0 1-2.348 0c-.651-.364-.651-.97 0-1.348a2.58 2.58 0 0 1 2.348 0zM346.091 224.145a.713.713 0 0 1 0 1.348 2.572 2.572 0 0 1-2.347 0 .715.715 0 0 1-.35-1.089.713.713 0 0 1 .35-.259 2.576 2.576 0 0 1 2.347 0zM352.24 220.525c.652.364.652.969 0 1.348a2.572 2.572 0 0 1-2.347 0c-.651-.379-.651-.984 0-1.348a2.573 2.573 0 0 1 2.347 0zM332.582 225.659c.92 0 1.666-.427 1.666-.954 0-.527-.746-.954-1.666-.954-.92 0-1.666.427-1.666.954 0 .527.746.954 1.666.954zM339.897 220.48a.723.723 0 0 1 .474.681.726.726 0 0 1-.474.682 2.667 2.667 0 0 1-2.347 0 .732.732 0 0 1-.474-.682.726.726 0 0 1 .474-.681 2.56 2.56 0 0 1 2.347 0zM346.046 216.936a.723.723 0 0 1 .474.681.731.731 0 0 1-.474.682 2.667 2.667 0 0 1-2.348 0 .724.724 0 0 1-.343-.267.725.725 0 0 1 .343-1.096 2.58 2.58 0 0 1 2.348 0zM327.615 220.48a.727.727 0 0 1 0 1.363 2.67 2.67 0 0 1-2.348 0 .732.732 0 0 1-.474-.682.723.723 0 0 1 .474-.681 2.564 2.564 0 0 1 2.348 0zM333.763 216.936a.726.726 0 0 1 0 1.363 2.663 2.663 0 0 1-2.347 0 .732.732 0 0 1-.474-.682.726.726 0 0 1 .474-.681 2.576 2.576 0 0 1 2.347 0zM339.897 213.392c.651.378.651.984 0 1.348a2.573 2.573 0 0 1-2.347 0c-.652-.364-.652-.97 0-1.348a2.572 2.572 0 0 1 2.347 0zM321.481 216.936a.723.723 0 0 1 .474.681.731.731 0 0 1-.474.682 2.667 2.667 0 0 1-2.348 0 .724.724 0 0 1-.343-.267.725.725 0 0 1 .343-1.096 2.58 2.58 0 0 1 2.348 0zM327.615 213.392c.651.378.651.984 0 1.348a2.58 2.58 0 0 1-2.348 0c-.651-.364-.651-.97 0-1.348a2.58 2.58 0 0 1 2.348 0zM333.763 209.848a.713.713 0 0 1 0 1.348 2.572 2.572 0 0 1-2.347 0 .715.715 0 0 1-.35-1.089.713.713 0 0 1 .35-.259 2.576 2.576 0 0 1 2.347 0zM315.332 213.392c.651.378.651.984 0 1.348a2.573 2.573 0 0 1-2.347 0c-.651-.364-.651-.97 0-1.348a2.572 2.572 0 0 1 2.347 0zM321.481 209.848a.713.713 0 0 1 0 1.348 2.576 2.576 0 0 1-2.347 0 .71.71 0 0 1 0-1.348 2.572 2.572 0 0 1 2.347 0zM327.615 206.304c.651.363.651.969 0 1.348a2.58 2.58 0 0 1-2.348 0c-.651-.379-.651-.985 0-1.348a2.58 2.58 0 0 1 2.348 0zM309.199 209.848a.71.71 0 0 1 .349 1.088.712.712 0 0 1-.349.26 2.58 2.58 0 0 1-2.348 0 .715.715 0 0 1-.35-1.089.713.713 0 0 1 .35-.259 2.576 2.576 0 0 1 2.348 0zM315.332 206.304c.651.363.651.969 0 1.348a2.573 2.573 0 0 1-2.347 0c-.651-.379-.651-.985 0-1.348a2.572 2.572 0 0 1 2.347 0zM321.481 202.745a.723.723 0 0 1 .474.681.729.729 0 0 1-.474.682 2.576 2.576 0 0 1-2.348 0c-.651-.379-.651-.985 0-1.348a2.615 2.615 0 0 1 2.348-.015zM303.05 206.304c.651.363.651.969 0 1.348a2.58 2.58 0 0 1-2.348 0c-.651-.379-.651-.985 0-1.348a2.58 2.58 0 0 1 2.348 0zM309.198 202.76c.652.364.652.969 0 1.348a2.572 2.572 0 0 1-2.347 0c-.651-.379-.651-.984 0-1.348a2.576 2.576 0 0 1 2.347 0zM315.332 199.201a.727.727 0 0 1 0 1.363 2.573 2.573 0 0 1-2.347 0 .726.726 0 0 1 0-1.363 2.666 2.666 0 0 1 2.347 0zM296.916 202.76a.715.715 0 0 1 .35 1.089.719.719 0 0 1-.35.259 2.576 2.576 0 0 1-2.347 0c-.652-.379-.652-.984 0-1.348a2.572 2.572 0 0 1 2.347 0zM303.05 199.201a.736.736 0 0 1 .344.266.734.734 0 0 1 0 .831.736.736 0 0 1-.344.266 2.58 2.58 0 0 1-2.348 0 .736.736 0 0 1-.344-.266.733.733 0 0 1 0-.831.736.736 0 0 1 .344-.266 2.67 2.67 0 0 1 2.348 0zM309.198 195.657a.726.726 0 0 1 0 1.363 2.572 2.572 0 0 1-2.347 0 .726.726 0 0 1 0-1.363 2.667 2.667 0 0 1 2.347 0zM296.916 195.657a.727.727 0 0 1 0 1.363 2.576 2.576 0 0 1-2.348 0 .728.728 0 0 1 0-1.363 2.67 2.67 0 0 1 2.348 0zM303.05 192.113a.732.732 0 0 1 .474.682.723.723 0 0 1-.474.681 2.672 2.672 0 0 1-2.348 0 .723.723 0 0 1-.474-.681.729.729 0 0 1 .474-.682 2.58 2.58 0 0 1 2.348 0zM295.689 190.159c.92 0 1.666-.427 1.666-.954 0-.527-.746-.954-1.666-.954-.92 0-1.666.427-1.666.954 0 .527.746.954 1.666.954zM412.774 264.173c.92 0 1.666-.428 1.666-.954 0-.527-.746-.955-1.666-.955-.92 0-1.665.428-1.665.955 0 .526.745.954 1.665.954zM418.908 260.629c.92 0 1.666-.427 1.666-.954 0-.527-.746-.955-1.666-.955-.92 0-1.666.428-1.666.955 0 .527.746.954 1.666.954zM426.223 255.449c.651.379.651.985 0 1.348a2.572 2.572 0 0 1-2.347 0 .719.719 0 0 1-.35-.259.717.717 0 0 1 0-.829.715.715 0 0 1 .35-.26 2.573 2.573 0 0 1 2.347 0zM401.658 262.537a.727.727 0 0 1 0 1.363 2.667 2.667 0 0 1-2.347 0 .726.726 0 0 1 0-1.363 2.572 2.572 0 0 1 2.347 0zM407.807 258.978a.736.736 0 0 1 .344.266.733.733 0 0 1 0 .831.736.736 0 0 1-.344.266 2.667 2.667 0 0 1-2.348 0 .728.728 0 0 1 0-1.363 2.58 2.58 0 0 1 2.348 0zM413.941 255.449c.651.379.651.985 0 1.348a2.58 2.58 0 0 1-2.348 0 .712.712 0 0 1 0-1.348 2.576 2.576 0 0 1 2.348 0zM420.09 251.905a.712.712 0 0 1 0 1.348 2.58 2.58 0 0 1-2.348 0 .713.713 0 0 1 0-1.348 2.576 2.576 0 0 1 2.348 0zM395.524 258.978a.726.726 0 0 1 0 1.363 2.663 2.663 0 0 1-2.347 0 .727.727 0 0 1 0-1.363 2.576 2.576 0 0 1 2.347 0zM401.658 255.449c.651.379.651.985 0 1.348a2.573 2.573 0 0 1-2.347 0c-.652-.363-.652-.969 0-1.348a2.572 2.572 0 0 1 2.347 0zM407.807 251.905a.715.715 0 0 1 .35 1.089.713.713 0 0 1-.35.259 2.576 2.576 0 0 1-2.347 0 .713.713 0 0 1 0-1.348 2.572 2.572 0 0 1 2.347 0zM413.941 248.377c.651.363.651.969 0 1.348a2.58 2.58 0 0 1-2.348 0 .71.71 0 0 1 0-1.348 2.576 2.576 0 0 1 2.348 0zM389.33 255.404a.723.723 0 0 1 .474.681.721.721 0 0 1-.474.682 2.572 2.572 0 0 1-2.347 0 .732.732 0 0 1-.474-.682.726.726 0 0 1 .474-.681 2.668 2.668 0 0 1 2.347 0zM394.298 253.495c.92 0 1.666-.427 1.666-.954 0-.527-.746-.954-1.666-.954-.92 0-1.666.427-1.666.954 0 .527.746.954 1.666.954zM401.613 248.377a.723.723 0 0 1 .474.681.731.731 0 0 1-.474.682 2.67 2.67 0 0 1-2.348 0 .732.732 0 0 1-.474-.682.723.723 0 0 1 .474-.681 2.58 2.58 0 0 1 2.348 0zM407.747 244.772a.724.724 0 0 1 .473.682.726.726 0 0 1-.473.681 2.67 2.67 0 0 1-2.348 0 .723.723 0 0 1-.474-.681.721.721 0 0 1 .474-.682 2.576 2.576 0 0 1 2.348 0zM383.166 251.86a.723.723 0 0 1 .474.681.724.724 0 0 1-.474.682 2.576 2.576 0 0 1-2.347 0 .722.722 0 0 1-.474-.682.726.726 0 0 1 .474-.681 2.664 2.664 0 0 1 2.347 0zM389.33 248.377a.723.723 0 0 1 .474.681.724.724 0 0 1-.474.682 2.666 2.666 0 0 1-2.347 0 .732.732 0 0 1-.474-.682.726.726 0 0 1 .474-.681 2.573 2.573 0 0 1 2.347 0zM395.464 244.772a.732.732 0 0 1 .474.682.723.723 0 0 1-.474.681 2.67 2.67 0 0 1-2.348 0 .723.723 0 0 1-.474-.681.729.729 0 0 1 .474-.682 2.58 2.58 0 0 1 2.348 0zM401.613 241.228c.651.379.651.984 0 1.348a2.58 2.58 0 0 1-2.348 0c-.651-.364-.651-.969 0-1.348a2.58 2.58 0 0 1 2.348 0zM377.108 248.377a.723.723 0 0 1 .474.681.724.724 0 0 1-.474.682 2.667 2.667 0 0 1-2.347 0 .732.732 0 0 1-.474-.682.726.726 0 0 1 .474-.681 2.572 2.572 0 0 1 2.347 0zM383.166 244.772a.732.732 0 0 1 .474.682.726.726 0 0 1-.474.681 2.667 2.667 0 0 1-2.347 0 .726.726 0 0 1 0-1.363 2.572 2.572 0 0 1 2.347 0zM389.33 241.228c.651.379.651.984 0 1.348a2.573 2.573 0 0 1-2.347 0c-.652-.364-.652-.969 0-1.348a2.572 2.572 0 0 1 2.347 0zM370.899 244.772a.732.732 0 0 1 .474.682.723.723 0 0 1-.474.681 2.67 2.67 0 0 1-2.348 0 .723.723 0 0 1-.474-.681.729.729 0 0 1 .474-.682 2.58 2.58 0 0 1 2.348 0zM377.108 241.228c.651.379.651.984 0 1.348a2.573 2.573 0 0 1-2.347 0c-.652-.364-.652-.969 0-1.348a2.572 2.572 0 0 1 2.347 0zM383.166 237.684a.715.715 0 0 1 .35 1.089.713.713 0 0 1-.35.259 2.573 2.573 0 0 1-2.347 0 .713.713 0 0 1 0-1.348 2.572 2.572 0 0 1 2.347 0zM430.115 251.951a2.58 2.58 0 0 1 2.348 0c.651.378.651.984 0 1.348a2.625 2.625 0 0 1-2.348 0 .734.734 0 0 1-.454-.674.728.728 0 0 1 .454-.674zM438.536 248.377c.651.363.651.969 0 1.348a2.576 2.576 0 0 1-2.348 0c-.651-.379-.651-.985 0-1.348a2.58 2.58 0 0 1 2.348 0zM444.67 244.863c.651.363.651.969 0 1.348a2.58 2.58 0 0 1-2.348 0c-.651-.379-.651-.985 0-1.348a2.576 2.576 0 0 1 2.348 0zM450.819 241.304a.727.727 0 0 1 0 1.363 2.58 2.58 0 0 1-2.348 0 .732.732 0 0 1-.474-.682.726.726 0 0 1 .474-.681 2.668 2.668 0 0 1 2.348 0zM456.952 237.775a.727.727 0 0 1 0 1.363 2.573 2.573 0 0 1-2.347 0 .726.726 0 0 1 0-1.363 2.666 2.666 0 0 1 2.347 0zM463.101 234.216a.732.732 0 0 1 .474.682.726.726 0 0 1-.474.681 2.667 2.667 0 0 1-2.347 0 .72.72 0 0 1-.474-.681.721.721 0 0 1 .474-.682 2.572 2.572 0 0 1 2.347 0zM469.235 230.672a.736.736 0 0 1 .344.266.734.734 0 0 1 0 .831.736.736 0 0 1-.344.266 2.67 2.67 0 0 1-2.348 0 .736.736 0 0 1-.344-.266.733.733 0 0 1 0-.831.736.736 0 0 1 .344-.266 2.58 2.58 0 0 1 2.348 0zM475.384 227.174c.651.378.651.984 0 1.348a2.58 2.58 0 0 1-2.348 0c-.651-.364-.651-.97 0-1.348a2.576 2.576 0 0 1 2.348 0zM481.517 223.584a.715.715 0 0 1 .35 1.089.713.713 0 0 1-.35.259 2.572 2.572 0 0 1-2.347 0 .713.713 0 0 1 0-1.348 2.573 2.573 0 0 1 2.347 0zM423.891 248.377a2.573 2.573 0 0 1 2.347 0 .707.707 0 0 1 .483.674.716.716 0 0 1-.483.674 2.605 2.605 0 0 1-2.362 0 .712.712 0 0 1 .015-1.348zM432.387 244.863c.651.363.651.969 0 1.348a2.576 2.576 0 0 1-2.347 0c-.652-.379-.652-.985 0-1.348a2.572 2.572 0 0 1 2.347 0zM438.536 241.304a.723.723 0 0 1 .474.681.729.729 0 0 1-.474.682 2.576 2.576 0 0 1-2.348 0 .724.724 0 0 1-.343-.267.722.722 0 0 1 0-.83.716.716 0 0 1 .343-.266 2.672 2.672 0 0 1 2.348 0zM444.67 237.775a.736.736 0 0 1 .344.266.734.734 0 0 1 0 .831.736.736 0 0 1-.344.266 2.58 2.58 0 0 1-2.348 0 .736.736 0 0 1-.344-.266.733.733 0 0 1 0-.831.736.736 0 0 1 .344-.266 2.67 2.67 0 0 1 2.348 0zM450.819 234.216a.724.724 0 0 1 .343.267.722.722 0 0 1 0 .83.722.722 0 0 1-.343.266 2.67 2.67 0 0 1-2.348 0 .73.73 0 0 1-.474-.681.721.721 0 0 1 .474-.682 2.576 2.576 0 0 1 2.348 0zM456.952 230.672a.727.727 0 0 1 0 1.363 2.667 2.667 0 0 1-2.347 0 .726.726 0 0 1 0-1.363 2.572 2.572 0 0 1 2.347 0zM463.101 227.174c.651.378.651.984 0 1.348a2.576 2.576 0 0 1-2.347 0c-.652-.364-.652-.97 0-1.348a2.572 2.572 0 0 1 2.347 0zM469.235 223.584a.712.712 0 0 1 0 1.348 2.58 2.58 0 0 1-2.348 0 .71.71 0 0 1 0-1.348 2.576 2.576 0 0 1 2.348 0zM475.384 220.04c.651.364.651.97 0 1.348a2.58 2.58 0 0 1-2.348 0c-.651-.378-.651-.984 0-1.348a2.576 2.576 0 0 1 2.348 0zM481.517 216.481a.732.732 0 0 1 .474.682.726.726 0 0 1-.474.681 2.572 2.572 0 0 1-2.347 0 .723.723 0 0 1-.474-.681.721.721 0 0 1 .474-.682 2.667 2.667 0 0 1 2.347 0zM417.757 244.863a2.576 2.576 0 0 1 2.348 0c.651.363.651.969 0 1.348a2.58 2.58 0 0 1-2.348 0c-.651-.364-.651-.97 0-1.348zM426.253 241.304a.726.726 0 0 1 0 1.363 2.572 2.572 0 0 1-2.347 0 .732.732 0 0 1-.474-.682.726.726 0 0 1 .474-.681 2.668 2.668 0 0 1 2.347 0zM432.387 237.775a.727.727 0 0 1 0 1.363 2.576 2.576 0 0 1-2.347 0 .726.726 0 0 1 0-1.363 2.663 2.663 0 0 1 2.347 0zM438.536 234.216a.732.732 0 0 1 .474.682.73.73 0 0 1-.474.681 2.667 2.667 0 0 1-2.348 0 .722.722 0 0 1-.474-.681c0-.149.046-.294.131-.415a.724.724 0 0 1 .343-.267 2.58 2.58 0 0 1 2.348 0zM444.67 230.672a.736.736 0 0 1 .344.266.734.734 0 0 1 0 .831.736.736 0 0 1-.344.266 2.67 2.67 0 0 1-2.348 0 .736.736 0 0 1-.344-.266.733.733 0 0 1 0-.831.736.736 0 0 1 .344-.266 2.58 2.58 0 0 1 2.348 0zM450.819 227.174c.651.378.651.984 0 1.348a2.58 2.58 0 0 1-2.348 0c-.651-.364-.651-.97 0-1.348a2.576 2.576 0 0 1 2.348 0zM456.952 223.584a.715.715 0 0 1 .35 1.089.713.713 0 0 1-.35.259 2.573 2.573 0 0 1-2.347 0 .713.713 0 0 1 0-1.348 2.572 2.572 0 0 1 2.347 0zM463.101 220.04c.651.364.651.97 0 1.348a2.576 2.576 0 0 1-2.347 0c-.652-.378-.652-.984 0-1.348a2.572 2.572 0 0 1 2.347 0zM469.235 216.481a.732.732 0 0 1 .474.682.723.723 0 0 1-.474.681 2.58 2.58 0 0 1-2.348 0 .723.723 0 0 1-.474-.681.729.729 0 0 1 .474-.682 2.67 2.67 0 0 1 2.348 0zM475.383 212.937a.722.722 0 0 1 .474.682.726.726 0 0 1-.474.681 2.573 2.573 0 0 1-2.347 0 .723.723 0 0 1-.474-.681.726.726 0 0 1 .474-.682 2.667 2.667 0 0 1 2.347 0zM481.517 209.394a.723.723 0 0 1 .474.681.726.726 0 0 1-.474.682 2.572 2.572 0 0 1-2.347 0 .732.732 0 0 1-.474-.682.726.726 0 0 1 .474-.681 2.561 2.561 0 0 1 2.347 0zM411.563 241.273a2.573 2.573 0 0 1 2.347 0 .732.732 0 0 1 .474.682.726.726 0 0 1-.474.682 2.666 2.666 0 0 1-2.347 0 .732.732 0 0 1-.474-.682.726.726 0 0 1 .474-.682zM420.059 237.775c.651.379.651.985 0 1.348a2.576 2.576 0 0 1-2.347 0c-.652-.363-.652-.969 0-1.348a2.572 2.572 0 0 1 2.347 0zM426.193 234.186c.651.363.651.969 0 1.348a2.576 2.576 0 0 1-2.348 0c-.651-.379-.651-.985 0-1.348a2.58 2.58 0 0 1 2.348 0zM432.342 230.642c.651.363.651.969 0 1.348a2.58 2.58 0 0 1-2.348 0c-.651-.379-.651-.985 0-1.348a2.58 2.58 0 0 1 2.348 0zM438.475 227.083a.723.723 0 0 1 .474.681.724.724 0 0 1-.474.682 2.572 2.572 0 0 1-2.347 0 .732.732 0 0 1-.474-.682.726.726 0 0 1 .474-.681 2.655 2.655 0 0 1 2.347 0zM444.624 223.539a.723.723 0 0 1 .474.681.721.721 0 0 1-.474.682 2.572 2.572 0 0 1-2.347 0 .732.732 0 0 1-.474-.682.726.726 0 0 1 .474-.681 2.668 2.668 0 0 1 2.347 0zM450.758 219.995a.736.736 0 0 1 .344.266.734.734 0 0 1 0 .831.736.736 0 0 1-.344.266 2.667 2.667 0 0 1-2.348 0 .728.728 0 0 1 0-1.363 2.58 2.58 0 0 1 2.348 0zM456.907 216.451a.736.736 0 0 1 .344.266.733.733 0 0 1 0 .831.736.736 0 0 1-.344.266 2.67 2.67 0 0 1-2.348 0 .736.736 0 0 1-.344-.266.734.734 0 0 1 0-.831.736.736 0 0 1 .344-.266 2.58 2.58 0 0 1 2.348 0zM463.04 212.907c.652.379.652.985 0 1.348a2.572 2.572 0 0 1-2.347 0c-.651-.363-.651-.969 0-1.348a2.573 2.573 0 0 1 2.347 0zM469.189 209.363a.715.715 0 0 1 .35 1.089.713.713 0 0 1-.35.259 2.572 2.572 0 0 1-2.347 0 .713.713 0 0 1 0-1.348 2.573 2.573 0 0 1 2.347 0zM475.323 205.819c.651.364.651.97 0 1.348a2.576 2.576 0 0 1-2.348 0 .71.71 0 0 1-.349-1.088.712.712 0 0 1 .349-.26 2.58 2.58 0 0 1 2.348 0zM405.414 237.775a2.576 2.576 0 0 1 2.348 0c.651.379.651.985 0 1.348a2.62 2.62 0 0 1-2.348 0 .725.725 0 0 1 0-1.348zM413.91 234.186c.652.363.652.969 0 1.348a2.572 2.572 0 0 1-2.347 0c-.651-.379-.651-.985 0-1.348a2.573 2.573 0 0 1 2.347 0zM420.059 230.642c.651.363.651.969 0 1.348a2.576 2.576 0 0 1-2.347 0c-.652-.379-.652-.985 0-1.348a2.572 2.572 0 0 1 2.347 0zM426.193 227.083a.723.723 0 0 1 .474.681.731.731 0 0 1-.474.682 2.576 2.576 0 0 1-2.348 0 .732.732 0 0 1-.474-.682.723.723 0 0 1 .474-.681 2.658 2.658 0 0 1 2.348 0zM432.342 223.539a.723.723 0 0 1 .474.681.729.729 0 0 1-.474.682 2.58 2.58 0 0 1-2.348 0 .732.732 0 0 1-.474-.682.723.723 0 0 1 .474-.681 2.672 2.672 0 0 1 2.348 0zM438.475 219.995a.727.727 0 0 1 0 1.363 2.663 2.663 0 0 1-2.347 0 .726.726 0 0 1 0-1.363 2.573 2.573 0 0 1 2.347 0zM444.624 216.451a.726.726 0 0 1 0 1.363 2.666 2.666 0 0 1-2.347 0 .727.727 0 0 1 0-1.363 2.573 2.573 0 0 1 2.347 0zM450.758 212.907c.651.379.651.985 0 1.348a2.576 2.576 0 0 1-2.348 0c-.651-.363-.651-.969 0-1.348a2.58 2.58 0 0 1 2.348 0zM456.907 209.363c.651.379.651.985 0 1.348a2.576 2.576 0 0 1-2.348 0c-.651-.363-.651-.969 0-1.348a2.58 2.58 0 0 1 2.348 0zM463.04 205.819c.652.364.652.97 0 1.348a2.572 2.572 0 0 1-2.347 0c-.651-.378-.651-.984 0-1.348a2.573 2.573 0 0 1 2.347 0zM469.189 202.275c.651.364.651.97 0 1.348a2.572 2.572 0 0 1-2.347 0c-.651-.378-.651-.984 0-1.348a2.573 2.573 0 0 1 2.347 0z" fill="#16110D"/><path d="M228.416 52.34l.181-10.298h84.812l-.121 10.026v.273a6.252 6.252 0 0 1-3.469 4.225l-31.652 18.295c-4.226 2.439-10.602 2.711-14.282.59l-33.016-19.097a4.092 4.092 0 0 1-2.453-4.013z" fill="#FFBE2E"/><path d="M228.415 52.34l.182-10.298h84.812l-.121 10.026v.273a6.26 6.26 0 0 1-3.469 4.225l-31.653 18.295c-4.225 2.439-10.601 2.711-14.281.59L230.854 56.37a4.117 4.117 0 0 1-2.439-4.028z" fill="#FFBE2E"/><path d="M270.094 77.42a13.162 13.162 0 0 1-6.467-1.514L230.581 56.84a4.663 4.663 0 0 1-2.711-4.544l.091-9.995 86.053-.803-.121 10.602a.497.497 0 0 1 0 .348 6.8 6.8 0 0 1-3.741 4.543L278.5 75.285a17.162 17.162 0 0 1-8.406 2.136zm-40.891-34.833l-.167 9.8a3.56 3.56 0 0 0 2.166 3.483l33.031 19.082c3.498 2.03 9.662 1.757 13.736-.59l31.593-18.326a5.755 5.755 0 0 0 3.195-3.816.581.581 0 0 1 0-.167l.106-9.465h-83.66z" fill="#16110D"/><path d="M230.99 46.328l33.031 19.083c3.665 2.12 10.056 1.863 14.282-.59l31.653-18.296c4.24-2.438 4.694-6.058 1.029-8.254L277.954 19.19c-3.665-2.12-10.056-1.848-14.281.59L232.02 38.074c-4.226 2.439-4.695 6.134-1.03 8.254z" fill="#FFBE2E"/><path d="M230.657 50.16l33.031 19.083c3.665 2.12 10.056 1.847 14.282-.591l31.652-18.295c4.241-2.438 4.695-6.134 1.03-8.254L277.621 23.02c-3.665-2.12-10.056-1.863-14.281.59l-31.623 18.296c-4.256 2.438-4.725 6.134-1.06 8.254z" fill="#FEC"/><path d="M270.23 67.395a13.193 13.193 0 0 1-6.482-1.515l-33.031-19.082a4.815 4.815 0 0 1-2.756-4.074c0-1.878 1.378-3.756 3.771-5.15L263.4 19.28c4.362-2.515 11.026-2.787 14.827-.591l33.046 19.173a4.767 4.767 0 0 1 2.741 4.06c0 1.892-1.378 3.77-3.771 5.148l-31.668 18.235a17.096 17.096 0 0 1-8.345 2.09zm1.515-49.085a16.115 16.115 0 0 0-7.8 1.954l-31.652 18.295c-2.045 1.181-3.226 2.71-3.226 4.18a3.768 3.768 0 0 0 2.196 3.105l33.046 19.097c3.498 2.015 9.647 1.757 13.721-.59l31.653-18.295c2.045-1.182 3.226-2.711 3.226-4.195a3.768 3.768 0 0 0-2.196-3.105l-33.031-19.068a12.028 12.028 0 0 0-5.937-1.378z" fill="#16110D"/><path d="M272.911 42.557l-1.363-9.617 1.424-.954 17.447 10.071c.197.122.727 2.408.878 2.545l-17.507-1.227a.955.955 0 0 1-.879-.818z" fill="#FFBE2E"/><path d="M296.371 42.058l-23.763-1.394-1.953-13.842.969.515.151.075 22.718 13.146c.217.126.425.267.621.424l1.257 1.076zm-22.869-2.454l19.007 1.12-20.522-11.858 1.515 10.738z" fill="#16110D"/><path d="M269.246 45.647a.939.939 0 0 0 .879.803l21.884 1.287.5 2.12-15.357 8.92a6.819 6.819 0 0 1-6.058-.12L248.376 45.51c-1.741-1.015-1.847-2.59-.212-3.544l18.326-10.602c.27-.148.554-.27.848-.363l1.908 14.645z" fill="#FFBE2E"/><path d="M274.214 56.824a7.254 7.254 0 0 1-3.529-.879L247.967 42.8a2.881 2.881 0 0 1-1.65-2.363 2.478 2.478 0 0 1 1.423-2.136L266.081 27.7a4.4 4.4 0 0 1 .954-.409l.636-.212 2.196 15.6 27.427 1.605-1.196.908c-.167.137-.273.197-.379.273l-18.34 10.601a6.363 6.363 0 0 1-3.165.758zm-7.482-28.215h-.136L248.27 39.21a1.517 1.517 0 0 0-.878 1.166c0 .485.394 1 1.106 1.409l22.717 13.13a6.285 6.285 0 0 0 5.573.137l17.114-9.89-25.05-1.514-2.12-15.04zM270.988 66.835v10.01l4.286-.757 6.285-2.953L311.576 55.4l1.878-2.317v-11.04l-1.242 3.195-6.467 3.786-30.38 17.084-4.377.727zM267.398 66.577v10.071l-2.635-.787V65.805l2.635.772zM230.4 46.162v9.541l-1.454-1.09-1.03-6.528.484-5.482 2 3.559zM283.952 90.052a.73.73 0 0 1 .344 1.096.73.73 0 0 1-.344.267 2.696 2.696 0 0 1-2.363 0 .73.73 0 0 1-.344-1.097.73.73 0 0 1 .344-.266 2.607 2.607 0 0 1 2.363 0zM290.086 86.508a.726.726 0 0 1 0 1.363 2.667 2.667 0 0 1-2.333-.03.73.73 0 0 1-.344-1.097.73.73 0 0 1 .344-.266 2.577 2.577 0 0 1 2.333.03zM295.053 84.6c.92 0 1.666-.428 1.666-.955 0-.526-.746-.954-1.666-.954-.92 0-1.666.427-1.666.954 0 .527.746.955 1.666.955zM302.368 79.42c.651.378.651.984 0 1.348a2.572 2.572 0 0 1-2.347 0c-.652-.364-.652-.97 0-1.348a2.572 2.572 0 0 1 2.347 0zM308.517 75.876c.651.364.651.97 0 1.348a2.575 2.575 0 0 1-2.348 0c-.651-.379-.651-.984 0-1.348a2.578 2.578 0 0 1 2.348 0zM314.651 72.332c.651.364.651.97 0 1.348a2.578 2.578 0 0 1-2.348 0c-.651-.379-.651-.984 0-1.348a2.575 2.575 0 0 1 2.348 0zM320.799 68.773a.72.72 0 0 1 .474.682.725.725 0 0 1-.474.681 2.57 2.57 0 0 1-2.347 0 .73.73 0 0 1-.344-1.096.73.73 0 0 1 .344-.267 2.665 2.665 0 0 1 2.347 0zM326.933 65.23a.73.73 0 0 1 .474.68.725.725 0 0 1-.474.682 2.575 2.575 0 0 1-2.347 0 .72.72 0 0 1-.474-.681.725.725 0 0 1 .474-.682 2.662 2.662 0 0 1 2.347 0zM271.669 90.052a.73.73 0 0 1 .344 1.096.73.73 0 0 1-.344.267 2.696 2.696 0 0 1-2.362 0 .73.73 0 0 1-.344-1.097.73.73 0 0 1 .344-.266 2.603 2.603 0 0 1 2.362 0zM277.803 86.508a.73.73 0 0 1 .344 1.096.73.73 0 0 1-.344.267 2.666 2.666 0 0 1-2.347 0 .72.72 0 0 1-.474-.682.725.725 0 0 1 .474-.681 2.57 2.57 0 0 1 2.347 0zM283.952 82.964a.71.71 0 0 1 0 1.348 2.607 2.607 0 0 1-2.363 0 .71.71 0 0 1 0-1.348 2.606 2.606 0 0 1 2.363 0zM290.085 79.42c.652.378.652.984 0 1.348a2.57 2.57 0 0 1-2.347 0c-.651-.364-.651-.97 0-1.348a2.576 2.576 0 0 1 2.347 0zM296.234 75.876a.714.714 0 0 1 .35 1.088.714.714 0 0 1-.35.26 2.57 2.57 0 0 1-2.347 0c-.651-.379-.651-.984 0-1.348a2.572 2.572 0 0 1 2.347 0zM301.202 73.953c.92 0 1.666-.428 1.666-.954 0-.527-.746-.955-1.666-.955-.92 0-1.666.428-1.666.955 0 .526.746.954 1.666.954zM308.517 68.773a.73.73 0 0 1 .344 1.097.73.73 0 0 1-.344.266 2.575 2.575 0 0 1-2.348 0 .73.73 0 0 1-.344-1.096.73.73 0 0 1 .344-.267 2.668 2.668 0 0 1 2.348 0zM314.651 65.23a.726.726 0 0 1 0 1.363 2.578 2.578 0 0 1-2.348 0 .73.73 0 0 1-.344-1.097.73.73 0 0 1 .344-.267 2.666 2.666 0 0 1 2.348 0zM319.618 63.321c.92 0 1.666-.427 1.666-.954 0-.527-.746-.954-1.666-.954-.92 0-1.666.427-1.666.954 0 .527.746.954 1.666.954zM326.933 58.141a.73.73 0 0 1 .344 1.097.73.73 0 0 1-.344.266 2.665 2.665 0 0 1-2.347 0 .72.72 0 0 1-.474-.681.725.725 0 0 1 .474-.682 2.57 2.57 0 0 1 2.347 0zM265.46 86.477c.651.364.651.97 0 1.348a2.575 2.575 0 0 1-2.348 0 .71.71 0 0 1 0-1.348 2.58 2.58 0 0 1 2.348 0zM271.609 82.918a.73.73 0 0 1 .344 1.097.73.73 0 0 1-.344.266 2.58 2.58 0 0 1-2.348 0 .73.73 0 0 1-.344-1.096.73.73 0 0 1 .344-.267 2.67 2.67 0 0 1 2.348 0zM277.757 79.374a.72.72 0 0 1 .474.682.725.725 0 0 1-.474.681 2.6 2.6 0 0 1-2.362 0 .73.73 0 0 1-.474-.681.725.725 0 0 1 .474-.682 2.696 2.696 0 0 1 2.362 0zM283.891 75.83a.73.73 0 0 1 .344 1.097.73.73 0 0 1-.344.266 2.665 2.665 0 0 1-2.347 0 .73.73 0 0 1-.344-1.096.73.73 0 0 1 .344-.266 2.57 2.57 0 0 1 2.347 0zM290.04 72.287a.73.73 0 0 1 .344 1.096.73.73 0 0 1-.344.267 2.696 2.696 0 0 1-2.363 0 .726.726 0 0 1 0-1.363 2.607 2.607 0 0 1 2.363 0zM296.174 68.743c.651.378.651.984 0 1.348a2.575 2.575 0 0 1-2.348 0c-.651-.364-.651-.97 0-1.348a2.58 2.58 0 0 1 2.348 0zM302.323 65.199a.711.711 0 0 1 0 1.348 2.578 2.578 0 0 1-2.348 0c-.651-.364-.651-.97 0-1.348a2.575 2.575 0 0 1 2.348 0zM308.456 61.655c.652.363.652.97 0 1.348a2.57 2.57 0 0 1-2.347 0c-.651-.379-.651-.985 0-1.348a2.573 2.573 0 0 1 2.347 0zM314.605 58.111c.651.364.651.97 0 1.348a2.575 2.575 0 0 1-2.347 0c-.652-.379-.652-.984 0-1.348a2.57 2.57 0 0 1 2.347 0zM320.739 54.522a.73.73 0 0 1 .344 1.096.73.73 0 0 1-.344.267 2.576 2.576 0 0 1-2.348 0 .73.73 0 0 1-.474-.682.732.732 0 0 1 .474-.681 2.668 2.668 0 0 1 2.348 0zM259.326 82.918a.73.73 0 0 1 .344 1.097.73.73 0 0 1-.344.266 2.573 2.573 0 0 1-2.347 0 .725.725 0 0 1-.344-1.096.725.725 0 0 1 .344-.267 2.662 2.662 0 0 1 2.347 0zM265.475 79.374a.73.73 0 0 1 .344 1.097.73.73 0 0 1-.344.266 2.606 2.606 0 0 1-2.363 0 .726.726 0 0 1 0-1.363 2.697 2.697 0 0 1 2.363 0zM253.177 79.374a.725.725 0 0 1 0 1.363 2.571 2.571 0 0 1-2.347 0 .73.73 0 0 1-.344-1.096.729.729 0 0 1 .344-.267 2.665 2.665 0 0 1 2.347 0zM259.326 75.83a.73.73 0 0 1 .344 1.097.73.73 0 0 1-.344.266 2.665 2.665 0 0 1-2.347 0 .724.724 0 0 1-.344-1.096.724.724 0 0 1 .344-.266 2.57 2.57 0 0 1 2.347 0zM245.862 77.466c.921 0 1.666-.427 1.666-.954 0-.527-.745-.954-1.666-.954-.92 0-1.665.427-1.665.954 0 .527.745.954 1.665.954zM253.177 72.287a.72.72 0 0 1 .474.681.725.725 0 0 1-.474.682 2.66 2.66 0 0 1-2.347 0 .729.729 0 0 1-.344-1.097.73.73 0 0 1 .344-.266 2.576 2.576 0 0 1 2.347 0zM240.895 72.287a.73.73 0 0 1 .474.681.732.732 0 0 1-.474.682 2.665 2.665 0 0 1-2.348 0 .725.725 0 0 1 0-1.363 2.58 2.58 0 0 1 2.348 0zM247.044 68.743c.651.378.651.984 0 1.348a2.578 2.578 0 0 1-2.348 0c-.651-.364-.651-.97 0-1.348a2.576 2.576 0 0 1 2.348 0zM234.746 68.743c.651.378.651.984 0 1.348a2.575 2.575 0 0 1-2.347 0c-.652-.364-.652-.97 0-1.348a2.572 2.572 0 0 1 2.347 0zM240.895 65.199c.651.379.651.984 0 1.348a2.575 2.575 0 0 1-2.347 0c-.652-.364-.652-.97 0-1.348a2.57 2.57 0 0 1 2.347 0zM228.688 65.199c.651.379.651.984 0 1.348a2.575 2.575 0 0 1-2.347 0c-.652-.364-.652-.97 0-1.348a2.57 2.57 0 0 1 2.347 0zM234.746 61.655c.651.363.651.97 0 1.348a2.575 2.575 0 0 1-2.347 0c-.652-.379-.652-.985 0-1.348a2.572 2.572 0 0 1 2.347 0zM228.688 58.111c.651.364.651.97 0 1.348a2.575 2.575 0 0 1-2.347 0c-.652-.379-.652-.984 0-1.348a2.57 2.57 0 0 1 2.347 0z" fill="#16110D"/></svg>