<svg width="1271" height="14" viewBox="0 0 1271 14" fill="none" xmlns="http://www.w3.org/2000/svg"><path d="M25.473 12.478a6.24 6.24 0 0 1-4.436-10.65 6.239 6.239 0 1 1 4.436 10.65zm0-10.109a3.894 3.894 0 1 0 3.87 3.894 3.894 3.894 0 0 0-3.87-4.011v.117zM10.039 12.478H2.346A2.345 2.345 0 0 1 0 10.133V2.486A2.345 2.345 0 0 1 2.346.141h7.693a2.346 2.346 0 0 1 2.345 2.345v7.647a2.345 2.345 0 0 1-2.345 2.345zM2.346 2.252v7.716h7.693V2.322l-7.693-.07z" fill="#150035"/><path d="M126.66 12.478h-7.53a2.345 2.345 0 0 1-2.345-2.345V2.486A2.345 2.345 0 0 1 119.13.141h7.53a2.345 2.345 0 0 1 2.345 2.345v7.647a2.345 2.345 0 0 1-2.345 2.345zm-7.623-10.11v7.718l7.623.047V2.486l-7.623-.117z" fill="#000"/><path d="M64.221 12.479a6.24 6.24 0 1 1 6.145-6.333 6.215 6.215 0 0 1-6.145 6.333zm0-10.11a3.893 3.893 0 1 0 3.8 3.777 3.893 3.893 0 0 0-3.8-3.894v.117z" fill="#150035"/><path d="M103.415 12.478A6.239 6.239 0 1 1 103.369 0a6.239 6.239 0 0 1 .046 12.478zm0-10.109a3.893 3.893 0 1 0-.604 7.763 3.893 3.893 0 0 0 .604-7.763zM142.187 12.478a6.24 6.24 0 0 1-4.435-10.65 6.24 6.24 0 1 1 4.435 10.65zm0-10.109a3.891 3.891 0 0 0-3.614 2.387 3.9 3.9 0 0 0 .829 4.251 3.897 3.897 0 0 0 5.998-.579c.429-.64.658-1.394.658-2.165a3.91 3.91 0 0 0-1.09-2.821 3.903 3.903 0 0 0-2.781-1.19v.117z" fill="#000"/><path d="M85.355 1.079h-2.346v10.109h2.346V1.078z" fill="#150035"/><path d="M89.225 4.973h-10.11v2.345h10.11V4.973z" fill="#150035"/><path d="M180.162 12.478a6.241 6.241 0 0 1-6.118-7.465 6.24 6.24 0 0 1 11.317-2.223 6.234 6.234 0 0 1 1.04 3.473 6.215 6.215 0 0 1-6.239 6.216zm0-10.109a3.892 3.892 0 1 0 3.893 3.894 3.882 3.882 0 0 0-1.098-2.83 3.884 3.884 0 0 0-2.795-1.181v.117zM281.466 12.478h-7.646a2.345 2.345 0 0 1-2.346-2.345V2.486A2.345 2.345 0 0 1 273.82.141h7.646a2.347 2.347 0 0 1 2.346 2.345v7.647a2.35 2.35 0 0 1-2.346 2.345zm-7.646-10.11v7.718h7.693V2.439l-7.693-.07zM164.752 12.478h-7.6a2.347 2.347 0 0 1-2.346-2.345V2.486a2.35 2.35 0 0 1 2.346-2.345h7.646a2.345 2.345 0 0 1 2.346 2.345v7.647a2.343 2.343 0 0 1-2.392 2.345zm-7.6-10.226v7.716h7.693V2.322l-7.693-.07zM218.934 12.478a6.241 6.241 0 0 1-5.755-3.83 6.238 6.238 0 1 1 11.994-2.503 6.206 6.206 0 0 1-1.787 4.48 6.208 6.208 0 0 1-4.452 1.853zm0-10.109a3.893 3.893 0 1 0 3.893 3.776 3.887 3.887 0 0 0-2.403-3.597 3.897 3.897 0 0 0-1.49-.296v.117zM200.873 1.079h-2.346v10.109h2.346V1.078z" fill="#000"/><path d="M204.767 4.973h-10.11v2.345h10.11V4.973zM258.011 12.478a6.239 6.239 0 1 1 6.239-6.215 6.213 6.213 0 0 1-3.854 5.749 6.209 6.209 0 0 1-2.385.466zm0-10.109a3.898 3.898 0 0 0-3.598 2.404 3.901 3.901 0 0 0 .844 4.243 3.898 3.898 0 0 0 4.244.844 3.896 3.896 0 0 0 2.403-3.597 3.882 3.882 0 0 0-1.098-2.83 3.895 3.895 0 0 0-2.795-1.181v.117zM296.876 12.478a6.236 6.236 0 0 1-5.766-3.857 6.232 6.232 0 0 1 1.363-6.802 6.24 6.24 0 0 1 10.642 4.444 6.212 6.212 0 0 1-6.239 6.215zm0-10.109a3.892 3.892 0 1 0 3.894 3.894 3.882 3.882 0 0 0-1.098-2.83 3.895 3.895 0 0 0-2.796-1.181v.117zM240.044 1.079h-2.346v10.109h2.346V1.078z" fill="#000"/><path d="M243.937 4.973h-10.109v2.345h10.109V4.973zM373.646 12.479a6.236 6.236 0 0 1-5.688-3.895 6.241 6.241 0 0 1 8.127-8.126 6.242 6.242 0 0 1 3.438 8.126 6.238 6.238 0 0 1-5.877 3.895zm0-10.11a3.893 3.893 0 1 0-.604 7.763 3.893 3.893 0 0 0 .604-7.763zM355.585 1.079h-2.345v10.109h2.345V1.078z" fill="#000"/><path d="M359.456 4.973h-10.11v2.345h10.11V4.973z" fill="#000"/><path d="M421.473 13.478a6.244 6.244 0 0 1-5.784-3.84 6.24 6.24 0 1 1 5.784 3.84zm0-10.109a3.892 3.892 0 0 0-2.785 6.638 3.89 3.89 0 0 0 4.246.855 3.898 3.898 0 0 0 2.409-3.6 3.91 3.91 0 0 0-1.09-2.82 3.903 3.903 0 0 0-2.78-1.19v.117zM406.039 13.478h-7.693A2.345 2.345 0 0 1 396 11.133V3.486a2.345 2.345 0 0 1 2.346-2.345h7.693a2.347 2.347 0 0 1 2.346 2.345v7.647a2.35 2.35 0 0 1-2.346 2.345zm-7.693-10.226v7.717h7.693V3.322l-7.693-.07z" fill="#150035"/><path d="M522.66 13.478h-7.53a2.345 2.345 0 0 1-2.345-2.345V3.486a2.345 2.345 0 0 1 2.345-2.345h7.53a2.345 2.345 0 0 1 2.345 2.345v7.647a2.345 2.345 0 0 1-2.345 2.345zm-7.623-10.11v7.718l7.623.047V3.486l-7.623-.117z" fill="#000"/><path d="M460.221 13.479a6.237 6.237 0 0 1-6.23-7.364 6.244 6.244 0 0 1 4.828-4.975 6.237 6.237 0 0 1 7.548 6.006 6.226 6.226 0 0 1-1.754 4.446 6.23 6.23 0 0 1-4.392 1.887zm0-10.11a3.893 3.893 0 1 0 3.8 3.777 3.895 3.895 0 0 0-3.8-3.894v.117z" fill="#150035"/><path d="M499.415 13.478a6.24 6.24 0 0 1-4.435-10.65 6.24 6.24 0 1 1 4.435 10.65zm0-10.109a3.893 3.893 0 1 0-.604 7.763 3.893 3.893 0 0 0 .604-7.763zM538.187 13.478a6.24 6.24 0 0 1-4.435-10.65 6.24 6.24 0 1 1 4.435 10.65zm0-10.109a3.891 3.891 0 0 0-3.614 2.387 3.9 3.9 0 0 0 .829 4.251 3.897 3.897 0 0 0 5.998-.579c.429-.64.658-1.394.658-2.165a3.91 3.91 0 0 0-1.09-2.821 3.903 3.903 0 0 0-2.781-1.19v.117z" fill="#000"/><path d="M481.355 2.079h-2.346v10.109h2.346V2.078z" fill="#150035"/><path d="M485.225 5.973h-10.11v2.345h10.11V5.973z" fill="#150035"/><path d="M576.162 13.478a6.241 6.241 0 0 1-6.118-7.465 6.24 6.24 0 0 1 11.317-2.223 6.234 6.234 0 0 1 1.04 3.473 6.214 6.214 0 0 1-6.239 6.216zm0-10.109a3.892 3.892 0 1 0 3.893 3.894 3.882 3.882 0 0 0-1.098-2.83 3.884 3.884 0 0 0-2.795-1.181v.117zM677.466 13.478h-7.646a2.345 2.345 0 0 1-2.346-2.345V3.486a2.345 2.345 0 0 1 2.346-2.345h7.646a2.347 2.347 0 0 1 2.346 2.345v7.647a2.35 2.35 0 0 1-2.346 2.345zm-7.646-10.11v7.718h7.693V3.439l-7.693-.07zM560.752 13.478h-7.6a2.347 2.347 0 0 1-2.346-2.345V3.486a2.35 2.35 0 0 1 2.346-2.345h7.646a2.345 2.345 0 0 1 2.346 2.345v7.647a2.343 2.343 0 0 1-2.392 2.345zm-7.6-10.226v7.717h7.693V3.322l-7.693-.07zM614.934 13.478a6.241 6.241 0 0 1-5.755-3.83 6.238 6.238 0 1 1 11.994-2.503 6.206 6.206 0 0 1-1.787 4.48 6.208 6.208 0 0 1-4.452 1.853zm0-10.109a3.893 3.893 0 1 0 3.893 3.776 3.887 3.887 0 0 0-2.403-3.597 3.897 3.897 0 0 0-1.49-.296v.117zM596.873 2.079h-2.346v10.109h2.346V2.078z" fill="#000"/><path d="M600.767 5.973h-10.11v2.345h10.11V5.973zM654.011 13.478a6.239 6.239 0 1 1 6.239-6.215 6.213 6.213 0 0 1-3.854 5.749 6.209 6.209 0 0 1-2.385.466zm0-10.109a3.898 3.898 0 0 0-3.598 2.404 3.901 3.901 0 0 0 .844 4.243 3.897 3.897 0 0 0 4.244.844 3.895 3.895 0 0 0 2.403-3.597 3.882 3.882 0 0 0-1.098-2.83 3.895 3.895 0 0 0-2.795-1.181v.117zM692.876 13.478a6.236 6.236 0 0 1-5.766-3.857 6.232 6.232 0 0 1 1.363-6.802 6.24 6.24 0 0 1 10.642 4.444 6.212 6.212 0 0 1-6.239 6.215zm0-10.109a3.892 3.892 0 1 0 3.894 3.894 3.882 3.882 0 0 0-1.098-2.83 3.895 3.895 0 0 0-2.796-1.181v.117zM636.044 2.079h-2.346v10.109h2.346V2.078z" fill="#000"/><path d="M639.937 5.973h-10.109v2.345h10.109V5.973zM769.646 13.479a6.236 6.236 0 0 1-5.688-3.895 6.241 6.241 0 0 1 8.127-8.126 6.242 6.242 0 0 1 3.438 8.126 6.238 6.238 0 0 1-5.877 3.895zm0-10.11a3.893 3.893 0 1 0-.604 7.763 3.893 3.893 0 0 0 .604-7.763zM751.585 2.079h-2.345v10.109h2.345V2.078z" fill="#000"/><path d="M755.456 5.973h-10.11v2.345h10.11V5.973z" fill="#000"/><path d="M810.473 13.478a6.244 6.244 0 0 1-5.784-3.84 6.24 6.24 0 1 1 5.784 3.84zm0-10.109a3.892 3.892 0 0 0-2.785 6.638 3.89 3.89 0 0 0 4.246.855 3.898 3.898 0 0 0 2.409-3.6 3.91 3.91 0 0 0-1.09-2.82 3.903 3.903 0 0 0-2.78-1.19v.117zM795.039 13.478h-7.693A2.345 2.345 0 0 1 785 11.133V3.486a2.345 2.345 0 0 1 2.346-2.345h7.693a2.347 2.347 0 0 1 2.346 2.345v7.647a2.35 2.35 0 0 1-2.346 2.345zm-7.693-10.226v7.717h7.693V3.322l-7.693-.07z" fill="#150035"/><path d="M911.66 13.478h-7.53a2.345 2.345 0 0 1-2.345-2.345V3.486a2.345 2.345 0 0 1 2.345-2.345h7.53a2.345 2.345 0 0 1 2.345 2.345v7.647a2.345 2.345 0 0 1-2.345 2.345zm-7.623-10.11v7.718l7.623.047V3.486l-7.623-.117z" fill="#000"/><path d="M849.221 13.479a6.237 6.237 0 0 1-6.23-7.364 6.244 6.244 0 0 1 4.828-4.975 6.237 6.237 0 0 1 7.548 6.006 6.226 6.226 0 0 1-1.754 4.446 6.23 6.23 0 0 1-4.392 1.887zm0-10.11a3.893 3.893 0 1 0 3.8 3.777 3.895 3.895 0 0 0-3.8-3.894v.117z" fill="#150035"/><path d="M888.415 13.478a6.24 6.24 0 0 1-4.435-10.65 6.24 6.24 0 1 1 4.435 10.65zm0-10.109a3.893 3.893 0 1 0-.604 7.763 3.893 3.893 0 0 0 .604-7.763zM927.187 13.478a6.24 6.24 0 0 1-4.435-10.65 6.24 6.24 0 1 1 4.435 10.65zm0-10.109a3.891 3.891 0 0 0-3.614 2.387 3.9 3.9 0 0 0 .829 4.251 3.897 3.897 0 0 0 5.998-.579c.429-.64.658-1.394.658-2.165a3.91 3.91 0 0 0-1.09-2.821 3.903 3.903 0 0 0-2.781-1.19v.117z" fill="#000"/><path d="M870.355 2.079h-2.346v10.109h2.346V2.078z" fill="#150035"/><path d="M874.225 5.973h-10.11v2.345h10.11V5.973z" fill="#150035"/><path d="M965.162 13.478a6.241 6.241 0 0 1-6.118-7.465 6.24 6.24 0 0 1 11.317-2.223 6.234 6.234 0 0 1 1.04 3.473 6.214 6.214 0 0 1-6.239 6.216zm0-10.109a3.892 3.892 0 1 0 3.893 3.894 3.882 3.882 0 0 0-1.098-2.83 3.884 3.884 0 0 0-2.795-1.181v.117zM1066.47 13.478h-7.65a2.353 2.353 0 0 1-2.35-2.345V3.486a2.348 2.348 0 0 1 2.35-2.345h7.65c.62 0 1.21.247 1.65.687.44.44.69 1.036.69 1.658v7.647c0 .622-.25 1.218-.69 1.658a2.33 2.33 0 0 1-1.65.687zm-7.65-10.11v7.718h7.69V3.439l-7.69-.07zM949.752 13.478h-7.6a2.347 2.347 0 0 1-2.346-2.345V3.486a2.35 2.35 0 0 1 2.346-2.345h7.646a2.345 2.345 0 0 1 2.346 2.345v7.647a2.343 2.343 0 0 1-2.392 2.345zm-7.6-10.226v7.717h7.693V3.322l-7.693-.07zM1003.93 13.478c-1.23 0-2.43-.364-3.45-1.045a6.232 6.232 0 0 1-2.671-6.377 6.238 6.238 0 0 1 8.451-4.608 6.267 6.267 0 0 1 2.82 2.257 6.298 6.298 0 0 1 1.09 3.44 6.08 6.08 0 0 1-.44 2.42 6.27 6.27 0 0 1-1.34 2.06 6.361 6.361 0 0 1-2.04 1.376 6.26 6.26 0 0 1-2.42.477zm0-10.109a3.884 3.884 0 0 0-3.6 2.432 3.868 3.868 0 0 0-.2 2.265c.16.759.54 1.452 1.09 1.992a3.903 3.903 0 0 0 4.29.768c.71-.314 1.31-.83 1.72-1.486.41-.656.62-1.42.6-2.195 0-.511-.1-1.017-.3-1.49a3.818 3.818 0 0 0-.84-1.263 3.827 3.827 0 0 0-1.27-.844 3.852 3.852 0 0 0-1.49-.296v.117zM985.873 2.079h-2.346v10.109h2.346V2.078z" fill="#000"/><path d="M989.767 5.973h-10.11v2.345h10.11V5.973zM1043.01 13.478c-1.23 0-2.44-.366-3.47-1.053a6.342 6.342 0 0 1-2.3-2.804 6.274 6.274 0 0 1-.35-3.608c.25-1.21.84-2.322 1.72-3.194a6.225 6.225 0 0 1 6.8-1.337 6.235 6.235 0 0 1 2.8 2.308 6.298 6.298 0 0 1 1.04 3.473c0 .818-.16 1.628-.48 2.384a6.14 6.14 0 0 1-1.35 2.02 6.273 6.273 0 0 1-2.02 1.345c-.76.31-1.57.47-2.39.466zm0-10.109c-.77 0-1.52.228-2.16.656a3.943 3.943 0 0 0-1.44 1.748 3.935 3.935 0 0 0-.22 2.25c.15.755.52 1.448 1.07 1.993a3.885 3.885 0 0 0 4.24.844 3.87 3.87 0 0 0 2.4-3.597c.02-.521-.07-1.04-.26-1.526s-.47-.93-.83-1.304a3.91 3.91 0 0 0-2.8-1.182v.118zM1081.88 13.478c-1.24 0-2.45-.366-3.47-1.053a6.212 6.212 0 0 1-2.3-2.804 6.25 6.25 0 0 1 1.36-6.802 6.244 6.244 0 0 1 6.81-1.337 6.289 6.289 0 0 1 2.8 2.308 6.298 6.298 0 0 1 1.04 3.473c0 .818-.17 1.628-.48 2.384a6.14 6.14 0 0 1-1.35 2.02 6.21 6.21 0 0 1-2.03 1.345c-.75.31-1.57.47-2.38.466zm0-10.109c-.77 0-1.53.228-2.17.656a3.857 3.857 0 0 0-1.43 1.748 3.916 3.916 0 0 0 .84 4.243 3.906 3.906 0 0 0 4.25.844 3.84 3.84 0 0 0 1.74-1.434c.43-.64.66-1.393.66-2.163.02-.521-.07-1.04-.26-1.526s-.48-.93-.84-1.304-.8-.671-1.28-.874a3.86 3.86 0 0 0-1.51-.307v.117zM1025.04 2.079h-2.34v10.109h2.34V2.078z" fill="#000"/><path d="M1028.94 5.973h-10.11v2.345h10.11V5.973zM1248.64 13.478h-7.65c-.62 0-1.22-.247-1.66-.687a2.338 2.338 0 0 1-.68-1.658V3.486c0-.622.24-1.218.68-1.658.44-.44 1.04-.687 1.66-.687h7.65c.62 0 1.22.247 1.66.687.44.44.68 1.036.68 1.658v7.647c0 .622-.24 1.218-.68 1.658-.44.44-1.04.687-1.66.687zm-7.65-10.11v7.718h7.7V3.439l-7.7-.07zM1225.18 13.478c-1.23 0-2.44-.366-3.47-1.053a6.255 6.255 0 0 1-2.29-2.804 6.11 6.11 0 0 1-.35-3.608 6.225 6.225 0 0 1 4.91-4.896 6.252 6.252 0 0 1 3.61.365 6.21 6.21 0 0 1 2.79 2.308 6.218 6.218 0 0 1 1.04 3.473c0 .818-.16 1.628-.47 2.384a6.328 6.328 0 0 1-1.36 2.02 6.167 6.167 0 0 1-2.02 1.345c-.76.31-1.57.47-2.39.466zm0-10.109a3.883 3.883 0 0 0-3.59 2.404 3.855 3.855 0 0 0 .84 4.243 3.885 3.885 0 0 0 4.24.844 3.919 3.919 0 0 0 1.75-1.434c.43-.64.66-1.393.66-2.163a3.98 3.98 0 0 0-.27-1.526c-.18-.486-.47-.93-.83-1.304s-.8-.671-1.28-.874a3.91 3.91 0 0 0-1.52-.307v.117zM1264.05 13.478a6.24 6.24 0 0 1-3.47-1.053 6.212 6.212 0 0 1-2.3-2.804 6.274 6.274 0 0 1-.35-3.608c.24-1.21.84-2.322 1.72-3.194a6.187 6.187 0 0 1 3.2-1.702 6.219 6.219 0 0 1 3.6.365 6.289 6.289 0 0 1 2.8 2.308 6.298 6.298 0 0 1 1.04 3.473c0 .818-.16 1.628-.48 2.384a6.14 6.14 0 0 1-1.35 2.02 6.21 6.21 0 0 1-2.03 1.345c-.75.31-1.56.47-2.38.466zm0-10.109c-.77 0-1.52.228-2.16.656a3.878 3.878 0 0 0-1.66 3.997c.15.756.52 1.45 1.07 1.994.54.544 1.23.915 1.99 1.065a3.898 3.898 0 0 0 4-1.655c.42-.64.65-1.393.65-2.163.02-.521-.07-1.04-.26-1.526a3.82 3.82 0 0 0-.84-1.304 3.831 3.831 0 0 0-1.27-.874 3.91 3.91 0 0 0-1.52-.307v.117zM1207.22 2.079h-2.35v10.109h2.35V2.078z" fill="#000"/><path d="M1211.11 5.973H1201v2.345h10.11V5.973zM1158.65 13.479a6.223 6.223 0 0 1-3.43-1.09 6.187 6.187 0 0 1-2.26-2.805 6.19 6.19 0 0 1-.33-3.584 6.184 6.184 0 0 1 1.7-3.172 6.253 6.253 0 0 1 3.17-1.702 6.221 6.221 0 0 1 3.58.332 6.22 6.22 0 0 1 2.81 2.257 6.271 6.271 0 0 1 1.09 3.43c.01.836-.14 1.665-.46 2.439a6.19 6.19 0 0 1-1.37 2.068 6.181 6.181 0 0 1-2.07 1.37c-.77.314-1.6.47-2.43.457zm0-10.11a3.867 3.867 0 0 0-1.58.204 3.87 3.87 0 0 0-2.29 2.118 3.814 3.814 0 0 0-.33 1.56c0 .537.11 1.068.33 1.56a3.87 3.87 0 0 0 2.29 2.118 3.883 3.883 0 0 0 4.13-1.034 3.878 3.878 0 0 0 0-5.288 3.883 3.883 0 0 0-2.55-1.238zM1140.59 2.079h-2.35v10.109h2.35V2.078z" fill="#000"/><path d="M1144.46 5.973h-10.11v2.345h10.11V5.973z" fill="#000"/></svg>