<svg width="91" height="32" viewBox="0 0 91 32" fill="none" xmlns="http://www.w3.org/2000/svg"><path d="M65.527 12.596A6.238 6.238 0 1 1 65.48.119a6.238 6.238 0 0 1 .047 12.477zm0-10.11a3.894 3.894 0 1 0-.047 7.788 3.894 3.894 0 0 0 .047-7.788z" fill="#150035"/><path d="M69.35 12.596h-7.693a2.345 2.345 0 0 1-2.345-2.346V2.557A2.346 2.346 0 0 1 61.657.211h7.647a2.345 2.345 0 0 1 2.345 2.346v7.623a2.347 2.347 0 0 1-2.298 2.416zm-7.693-10.11v7.694h7.717V2.557l-7.717-.07z" fill="#150035"/><path d="M6.818 12.596a6.238 6.238 0 1 1 6.216-6.216 6.216 6.216 0 0 1-6.216 6.216zm0-10.11a3.893 3.893 0 1 0 3.87 3.894 3.87 3.87 0 0 0-3.87-3.894z" fill="#000"/><path d="M69.35 31.923h-7.693a2.345 2.345 0 0 1-2.345-2.345V21.86a2.346 2.346 0 0 1 2.345-2.346h7.647a2.346 2.346 0 0 1 2.345 2.346v7.646a2.348 2.348 0 0 1-2.298 2.416zm-7.693-10.11v7.694h7.717v-7.646l-7.717-.047zM88.584 12.596h-7.647a2.346 2.346 0 0 1-2.345-2.346V2.557A2.346 2.346 0 0 1 80.938.211h7.646a2.345 2.345 0 0 1 2.346 2.346v7.623a2.343 2.343 0 0 1-2.346 2.416zm-7.647-10.11v7.694h7.694V2.557l-7.694-.07z" fill="#150035"/><path d="M27.928 1.314h-2.346v10.109h2.346V1.313z" fill="#000"/><path d="M31.822 5.207h-10.11v2.346h10.11V5.207zM47.162 20.641h-2.346v10.11h2.346V20.64z" fill="#000"/><path d="M51.055 24.51h-10.11v2.346h10.11v-2.345z" fill="#000"/><path d="M85.934 20.641h-2.346v10.11h2.346V20.64z" fill="#150035"/><path d="M89.827 24.51h-10.11v2.346h10.11v-2.345z" fill="#150035"/></svg>