<svg width="450" height="32" viewBox="0 0 450 32" fill="none" xmlns="http://www.w3.org/2000/svg"><path d="M443.622 31.782a6.021 6.021 0 0 0 3.39-1.047 6.195 6.195 0 0 0 2.247-2.79 6.317 6.317 0 0 0 .347-3.591 6.25 6.25 0 0 0-1.669-3.183 6.072 6.072 0 0 0-3.124-1.7 5.995 5.995 0 0 0-3.525.353 6.131 6.131 0 0 0-2.739 2.29 6.302 6.302 0 0 0-1.028 3.453 6.298 6.298 0 0 0 1.794 4.388 6.067 6.067 0 0 0 4.307 1.827zm0-10.086a3.75 3.75 0 0 1 2.111.653 3.85 3.85 0 0 1 1.399 1.736 3.93 3.93 0 0 1-.823 4.218 3.784 3.784 0 0 1-1.945 1.06 3.734 3.734 0 0 1-2.195-.22 3.809 3.809 0 0 1-1.705-1.426 3.917 3.917 0 0 1-.64-2.15 3.93 3.93 0 0 1 1.119-2.73 3.787 3.787 0 0 1 2.679-1.14zM424.651 12.478a6.045 6.045 0 0 0 3.409-1.04 6.222 6.222 0 0 0 2.266-2.795 6.345 6.345 0 0 0 .357-3.607 6.275 6.275 0 0 0-1.67-3.2 6.093 6.093 0 0 0-3.136-1.714 6.018 6.018 0 0 0-3.541.35 6.147 6.147 0 0 0-2.752 2.298 6.323 6.323 0 0 0-1.034 3.47c0 1.65.642 3.233 1.785 4.403a6.07 6.07 0 0 0 4.316 1.835zm0-10.109c.758-.005 1.5.22 2.132.646a3.885 3.885 0 0 1 1.418 1.747c.292.712.369 1.497.223 2.254a3.925 3.925 0 0 1-1.047 2 3.8 3.8 0 0 1-1.963 1.066c-.744.15-1.514.07-2.213-.227a3.84 3.84 0 0 1-1.714-1.444 3.953 3.953 0 0 1-.635-2.172c0-1.026.4-2.01 1.113-2.736a3.763 3.763 0 0 1 2.686-1.134zM386.686 31.782a6.02 6.02 0 0 0 3.389-1.047 6.182 6.182 0 0 0 2.247-2.79 6.326 6.326 0 0 0 .348-3.591A6.26 6.26 0 0 0 391 21.17a6.072 6.072 0 0 0-3.124-1.7 5.995 5.995 0 0 0-3.525.353 6.123 6.123 0 0 0-2.738 2.29 6.295 6.295 0 0 0-1.029 3.453 6.298 6.298 0 0 0 1.794 4.388 6.068 6.068 0 0 0 4.308 1.827zm0-10.086a3.75 3.75 0 0 1 2.11.653 3.85 3.85 0 0 1 1.399 1.736 3.93 3.93 0 0 1-.823 4.218 3.78 3.78 0 0 1-1.945 1.06 3.734 3.734 0 0 1-2.195-.22 3.814 3.814 0 0 1-1.705-1.426 3.917 3.917 0 0 1-.64-2.15 3.93 3.93 0 0 1 1.119-2.73 3.787 3.787 0 0 1 2.68-1.14z" fill="#150035"/><path d="M382.932 31.782h7.506a2.28 2.28 0 0 0 1.628-.687c.432-.44.674-1.036.674-1.658v-7.694c0-.622-.242-1.218-.674-1.658a2.28 2.28 0 0 0-1.628-.687h-7.506c-.61 0-1.196.247-1.628.687a2.371 2.371 0 0 0-.674 1.658v7.647a2.358 2.358 0 0 0 .658 1.689 2.292 2.292 0 0 0 1.644.703zm7.506-10.086v7.694h-7.575v-7.647l7.575-.047z" fill="#150035"/><path d="M329.058 12.478a6.042 6.042 0 0 0 3.408-1.04 6.215 6.215 0 0 0 2.266-2.795 6.346 6.346 0 0 0 .358-3.607 6.276 6.276 0 0 0-1.671-3.2 6.09 6.09 0 0 0-3.135-1.714 6.021 6.021 0 0 0-3.542.35 6.152 6.152 0 0 0-2.752 2.298 6.323 6.323 0 0 0-1.034 3.47c0 1.65.642 3.233 1.786 4.403a6.067 6.067 0 0 0 4.316 1.835zm0-10.109a3.776 3.776 0 0 1 2.132.646 3.876 3.876 0 0 1 1.417 1.747 3.96 3.96 0 0 1 .223 2.254 3.918 3.918 0 0 1-1.047 2 3.801 3.801 0 0 1-1.962 1.066 3.76 3.76 0 0 1-2.214-.227 3.84 3.84 0 0 1-1.714-1.444 3.944 3.944 0 0 1-.634-2.172 3.93 3.93 0 0 1 1.119-2.73 3.787 3.787 0 0 1 2.68-1.14z" fill="#000"/><path d="M325.305 12.478h7.505c.611 0 1.197-.247 1.628-.687.432-.44.675-1.036.675-1.658V2.369c0-.622-.243-1.219-.675-1.659a2.28 2.28 0 0 0-1.628-.687h-7.505a2.28 2.28 0 0 0-1.628.687 2.368 2.368 0 0 0-.675 1.659v7.693a2.355 2.355 0 0 0 .65 1.704 2.272 2.272 0 0 0 1.653.712zM332.81 2.37v7.693h-7.574V2.37h7.574z" fill="#000"/><path d="M386.685 12.478a6.042 6.042 0 0 0 3.409-1.04 6.215 6.215 0 0 0 2.266-2.795 6.346 6.346 0 0 0 .358-3.607 6.276 6.276 0 0 0-1.671-3.2 6.09 6.09 0 0 0-3.135-1.714 6.021 6.021 0 0 0-3.542.35 6.152 6.152 0 0 0-2.752 2.298 6.323 6.323 0 0 0-1.034 3.47 6.32 6.32 0 0 0 1.793 4.396 6.09 6.09 0 0 0 4.308 1.842zm0-10.109c.758-.005 1.5.22 2.132.646a3.879 3.879 0 0 1 1.418 1.747 3.96 3.96 0 0 1 .223 2.254 3.918 3.918 0 0 1-1.047 2 3.8 3.8 0 0 1-1.963 1.066c-.743.15-1.513.07-2.213-.227a3.84 3.84 0 0 1-1.714-1.444 3.944 3.944 0 0 1-.634-2.172 3.93 3.93 0 0 1 1.119-2.73 3.787 3.787 0 0 1 2.679-1.14zM404.414 1.196h2.302v10.11h-2.302V1.196z" fill="#150035"/><path d="M400.615 5.066h9.923v2.346h-9.923V5.066zM423.592 20.523h2.303v10.11h-2.303v-10.11z" fill="#150035"/><path d="M419.77 24.394h9.923v2.345h-9.923v-2.345zM363.409 31.782h7.413c.611 0 1.197-.247 1.628-.687.432-.44.675-1.036.675-1.658V21.79c0-.622-.243-1.218-.675-1.658a2.279 2.279 0 0 0-1.628-.687h-7.413a2.28 2.28 0 0 0-1.628.687 2.368 2.368 0 0 0-.675 1.658v7.553a2.366 2.366 0 0 0 .641 1.72 2.298 2.298 0 0 0 1.662.72zm7.413-10.085v7.646h-7.505V21.79l7.505-.093zM439.915 12.478h7.437a2.28 2.28 0 0 0 1.628-.687c.432-.44.674-1.036.674-1.658V2.369c0-.622-.242-1.219-.674-1.659a2.28 2.28 0 0 0-1.628-.687h-7.437c-.61 0-1.196.248-1.628.687a2.371 2.371 0 0 0-.674 1.659v7.67c-.012.316.038.63.148.926.11.296.278.566.493.793a2.298 2.298 0 0 0 1.661.72zm7.437-10.109v7.67h-7.529v-7.67h7.529z" fill="#150035"/><path d="M325.305 31.782h7.505c.611 0 1.197-.247 1.628-.687.432-.44.675-1.036.675-1.658v-7.694c0-.622-.243-1.218-.675-1.658a2.279 2.279 0 0 0-1.628-.687h-7.505a2.28 2.28 0 0 0-1.628.687 2.368 2.368 0 0 0-.675 1.658v7.647a2.358 2.358 0 0 0 .658 1.689c.215.223.471.4.753.52.282.121.586.183.892.183zm7.505-10.086v7.694h-7.574v-7.647l7.574-.047zM310.178 12.478a6.042 6.042 0 0 0 3.409-1.04 6.215 6.215 0 0 0 2.266-2.795 6.354 6.354 0 0 0 .358-3.607 6.276 6.276 0 0 0-1.671-3.2 6.09 6.09 0 0 0-3.135-1.714 6.021 6.021 0 0 0-3.542.35 6.152 6.152 0 0 0-2.752 2.298 6.323 6.323 0 0 0-1.034 3.47c0 1.65.642 3.233 1.786 4.403a6.066 6.066 0 0 0 4.315 1.835zm0-10.109c.758-.005 1.5.22 2.132.646a3.879 3.879 0 0 1 1.418 1.747 3.96 3.96 0 0 1 .223 2.254 3.918 3.918 0 0 1-1.047 2 3.8 3.8 0 0 1-1.963 1.066c-.743.15-1.514.07-2.213-.227a3.84 3.84 0 0 1-1.714-1.444 3.944 3.944 0 0 1-.634-2.172c0-1.026.4-2.01 1.112-2.736a3.765 3.765 0 0 1 2.686-1.134z" fill="#000"/><path d="M365.964 1.196h2.303v10.11h-2.303V1.196z" fill="#150035"/><path d="M362.142 5.066h9.923v2.346h-9.923V5.066z" fill="#150035"/><path d="M347.085 20.523h2.302v10.11h-2.302v-10.11z" fill="#000"/><path d="M343.263 24.394h9.923v2.345h-9.923v-2.345zM309.027 20.523h2.303v10.11h-2.303v-10.11z" fill="#000"/><path d="M305.205 24.394h9.923v2.345h-9.923v-2.345zM291.759 31.782a6.021 6.021 0 0 0 3.39-1.047 6.195 6.195 0 0 0 2.247-2.79 6.317 6.317 0 0 0 .347-3.591 6.25 6.25 0 0 0-1.669-3.183 6.072 6.072 0 0 0-3.124-1.7 5.995 5.995 0 0 0-3.525.353 6.123 6.123 0 0 0-2.738 2.29 6.295 6.295 0 0 0-1.029 3.453 6.298 6.298 0 0 0 1.794 4.388 6.067 6.067 0 0 0 4.307 1.827zm0-10.086a3.75 3.75 0 0 1 2.111.653 3.85 3.85 0 0 1 1.399 1.736 3.93 3.93 0 0 1-.823 4.218 3.78 3.78 0 0 1-1.945 1.06 3.734 3.734 0 0 1-2.195-.22 3.814 3.814 0 0 1-1.705-1.426 3.931 3.931 0 0 1-.351-3.631c.191-.47.471-.897.823-1.256.353-.36.772-.644 1.233-.839a3.738 3.738 0 0 1 1.453-.295zM272.88 12.478a6.042 6.042 0 0 0 3.409-1.04 6.215 6.215 0 0 0 2.266-2.795 6.354 6.354 0 0 0 .358-3.607 6.276 6.276 0 0 0-1.671-3.2 6.094 6.094 0 0 0-3.135-1.714 6.02 6.02 0 0 0-3.542.35 6.152 6.152 0 0 0-2.752 2.298 6.323 6.323 0 0 0-1.034 3.47c0 1.65.642 3.233 1.786 4.403a6.066 6.066 0 0 0 4.315 1.835zm0-10.109c.758-.005 1.5.22 2.132.646a3.879 3.879 0 0 1 1.418 1.747 3.96 3.96 0 0 1 .223 2.254 3.918 3.918 0 0 1-1.047 2 3.8 3.8 0 0 1-1.963 1.066c-.743.15-1.514.07-2.213-.227a3.84 3.84 0 0 1-1.714-1.444 3.953 3.953 0 0 1-.635-2.172c0-.508.099-1.011.29-1.48.191-.47.47-.897.823-1.256.353-.36.772-.645 1.233-.84a3.73 3.73 0 0 1 1.453-.294zM234.822 31.782a6.021 6.021 0 0 0 3.39-1.047 6.195 6.195 0 0 0 2.247-2.79 6.317 6.317 0 0 0 .347-3.591 6.25 6.25 0 0 0-1.669-3.183 6.072 6.072 0 0 0-3.124-1.7 5.995 5.995 0 0 0-3.525.353 6.123 6.123 0 0 0-2.738 2.29 6.295 6.295 0 0 0-1.029 3.453 6.298 6.298 0 0 0 1.794 4.388 6.067 6.067 0 0 0 4.307 1.827zm0-10.086a3.75 3.75 0 0 1 2.111.653 3.85 3.85 0 0 1 1.399 1.736 3.93 3.93 0 0 1-.823 4.218 3.78 3.78 0 0 1-1.945 1.06 3.734 3.734 0 0 1-2.195-.22 3.814 3.814 0 0 1-1.705-1.426 3.917 3.917 0 0 1-.64-2.15c0-1.027.4-2.011 1.112-2.737a3.765 3.765 0 0 1 2.686-1.134z" fill="#000"/><path d="M231.093 31.782h7.482c.611 0 1.197-.247 1.628-.687.432-.44.675-1.036.675-1.658v-7.694c0-.622-.243-1.218-.675-1.658a2.279 2.279 0 0 0-1.628-.687h-7.482c-.611 0-1.197.247-1.628.687a2.368 2.368 0 0 0-.675 1.658v7.647a2.358 2.358 0 0 0 .658 1.689c.215.223.47.4.753.52.282.121.585.183.892.183zm7.482-10.086v7.694h-7.551v-7.647l7.551-.047zM177.195 12.478a6.047 6.047 0 0 0 3.409-1.04 6.213 6.213 0 0 0 2.265-2.795 6.346 6.346 0 0 0 .358-3.607 6.275 6.275 0 0 0-1.67-3.2 6.093 6.093 0 0 0-3.136-1.714 6.018 6.018 0 0 0-3.541.35 6.15 6.15 0 0 0-2.753 2.298 6.322 6.322 0 0 0-1.033 3.47c0 1.65.642 3.233 1.785 4.403a6.07 6.07 0 0 0 4.316 1.835zm0-10.109c.758-.005 1.5.22 2.132.646a3.876 3.876 0 0 1 1.417 1.747 3.952 3.952 0 0 1-.824 4.254 3.801 3.801 0 0 1-1.962 1.066c-.744.15-1.514.07-2.213-.227-.7-.297-1.296-.8-1.714-1.444a3.937 3.937 0 0 1-.635-2.172c0-1.026.4-2.01 1.113-2.736a3.762 3.762 0 0 1 2.686-1.134z" fill="#000"/><path d="M173.465 12.478h7.483c.61 0 1.196-.247 1.628-.687.432-.44.674-1.036.674-1.658V2.369c0-.622-.242-1.219-.674-1.659a2.282 2.282 0 0 0-1.628-.687h-7.483c-.61 0-1.196.248-1.628.687a2.367 2.367 0 0 0-.674 1.659v7.693a2.381 2.381 0 0 0 .649 1.705c.215.225.472.404.756.526.284.123.589.185.897.185zm7.483-10.109v7.693h-7.552V2.37h7.552zM288.03 12.478h7.482c.611 0 1.197-.247 1.628-.687.432-.44.675-1.036.675-1.658V2.369c0-.622-.243-1.219-.675-1.659a2.28 2.28 0 0 0-1.628-.687h-7.482a2.28 2.28 0 0 0-1.628.687 2.368 2.368 0 0 0-.675 1.659v7.693a2.355 2.355 0 0 0 .65 1.704 2.268 2.268 0 0 0 1.653.712zm7.482-10.109v7.693h-7.551V2.37h7.551zM234.822 12.478a6.042 6.042 0 0 0 3.409-1.04 6.215 6.215 0 0 0 2.266-2.795 6.346 6.346 0 0 0 .358-3.607 6.276 6.276 0 0 0-1.671-3.2 6.09 6.09 0 0 0-3.135-1.714 6.021 6.021 0 0 0-3.542.35 6.152 6.152 0 0 0-2.752 2.298 6.323 6.323 0 0 0-1.034 3.47c0 1.65.642 3.233 1.786 4.403a6.066 6.066 0 0 0 4.315 1.835zm0-10.109c.758-.005 1.5.22 2.132.646a3.879 3.879 0 0 1 1.418 1.747 3.96 3.96 0 0 1 .223 2.254 3.918 3.918 0 0 1-1.047 2 3.8 3.8 0 0 1-1.963 1.066c-.743.15-1.513.07-2.213-.227a3.84 3.84 0 0 1-1.714-1.444 3.944 3.944 0 0 1-.634-2.172c0-1.026.4-2.01 1.112-2.736a3.765 3.765 0 0 1 2.686-1.134zM252.574 1.196h2.302v10.11h-2.302V1.196z" fill="#000"/><path d="M248.752 5.066h9.923v2.346h-9.923V5.066zM271.729 20.523h2.302v10.11h-2.302v-10.11z" fill="#000"/><path d="M267.93 24.394h9.923v2.345h-9.923v-2.345zM211.546 31.782h7.437c.61 0 1.196-.247 1.628-.687.431-.44.674-1.036.674-1.658V21.79c0-.622-.243-1.218-.674-1.658a2.282 2.282 0 0 0-1.628-.687h-7.437a2.28 2.28 0 0 0-1.628.687 2.367 2.367 0 0 0-.674 1.658v7.553a2.377 2.377 0 0 0 .641 1.72 2.268 2.268 0 0 0 1.661.72zm7.437-10.085v7.646h-7.529V21.79l7.529-.093zM196.373 12.478a6.042 6.042 0 0 0 3.409-1.04 6.215 6.215 0 0 0 2.266-2.795 6.346 6.346 0 0 0 .358-3.607 6.276 6.276 0 0 0-1.671-3.2A6.09 6.09 0 0 0 197.6.122a6.021 6.021 0 0 0-3.542.35 6.152 6.152 0 0 0-2.752 2.298 6.323 6.323 0 0 0-1.034 3.47c0 1.65.642 3.233 1.786 4.403a6.066 6.066 0 0 0 4.315 1.835zm0-10.109c.758-.005 1.5.22 2.132.646a3.879 3.879 0 0 1 1.418 1.747 3.96 3.96 0 0 1 .223 2.254 3.918 3.918 0 0 1-1.047 2 3.8 3.8 0 0 1-1.963 1.066c-.743.15-1.513.07-2.213-.227a3.84 3.84 0 0 1-1.714-1.444 3.944 3.944 0 0 1-.634-2.172 3.93 3.93 0 0 1 1.119-2.73 3.787 3.787 0 0 1 2.679-1.14zM173.465 31.782h7.483c.61 0 1.196-.247 1.628-.687.432-.44.674-1.036.674-1.658v-7.694c0-.622-.242-1.218-.674-1.658a2.282 2.282 0 0 0-1.628-.687h-7.483c-.61 0-1.196.247-1.628.687a2.367 2.367 0 0 0-.674 1.658v7.647c-.006.312.049.622.162.912a2.342 2.342 0 0 0 1.248 1.297c.283.121.586.183.892.183zm7.483-10.086v7.694h-7.552v-7.647l7.552-.047zM158.316 12.478a6.042 6.042 0 0 0 3.408-1.04 6.215 6.215 0 0 0 2.266-2.795 6.346 6.346 0 0 0 .358-3.607 6.276 6.276 0 0 0-1.671-3.2 6.086 6.086 0 0 0-3.135-1.714 6.021 6.021 0 0 0-3.542.35 6.152 6.152 0 0 0-2.752 2.298 6.323 6.323 0 0 0-1.034 3.47c0 1.65.642 3.233 1.786 4.403a6.069 6.069 0 0 0 4.316 1.835zm0-10.109c.757-.005 1.5.22 2.132.646a3.876 3.876 0 0 1 1.417 1.747 3.96 3.96 0 0 1 .223 2.254 3.918 3.918 0 0 1-1.047 2 3.801 3.801 0 0 1-1.962 1.066 3.76 3.76 0 0 1-2.214-.227 3.84 3.84 0 0 1-1.714-1.444 3.944 3.944 0 0 1-.634-2.172c0-1.026.4-2.01 1.112-2.736a3.766 3.766 0 0 1 2.687-1.134zM214.101 1.196h2.303v10.11h-2.303V1.196z" fill="#000"/><path d="M210.303 5.066h9.923v2.346h-9.923V5.066zM195.222 20.523h2.303v10.11h-2.303v-10.11z" fill="#000"/><path d="M191.423 24.394h9.924v2.345h-9.924v-2.345zM157.164 20.523h2.303v10.11h-2.303v-10.11z" fill="#000"/><path d="M153.366 24.394h9.923v2.345h-9.923v-2.345zM139.92 31.782a6.02 6.02 0 0 0 3.383-1.059 6.187 6.187 0 0 0 2.237-2.794 6.318 6.318 0 0 0 .338-3.59 6.253 6.253 0 0 0-1.675-3.176 6.065 6.065 0 0 0-3.124-1.694 5.996 5.996 0 0 0-3.522.357 6.129 6.129 0 0 0-2.735 2.29 6.318 6.318 0 0 0-.56 5.835c.308.755.76 1.441 1.329 2.019a6.092 6.092 0 0 0 1.987 1.346c.743.31 1.539.47 2.342.466zm0-10.086c.75.005 1.483.236 2.104.664a3.854 3.854 0 0 1 1.389 1.742 3.94 3.94 0 0 1 .207 2.234 3.893 3.893 0 0 1-1.045 1.975 3.776 3.776 0 0 1-1.945 1.053 3.734 3.734 0 0 1-2.192-.224 3.812 3.812 0 0 1-1.701-1.426 3.94 3.94 0 0 1-.348-3.634 3.89 3.89 0 0 1 .83-1.258c.355-.36.777-.645 1.24-.838a3.74 3.74 0 0 1 1.461-.288zM82.983 31.782a6.022 6.022 0 0 0 3.383-1.059 6.194 6.194 0 0 0 2.237-2.794 6.324 6.324 0 0 0 .338-3.59 6.252 6.252 0 0 0-1.675-3.176 6.067 6.067 0 0 0-3.124-1.694 5.997 5.997 0 0 0-3.522.357 6.127 6.127 0 0 0-2.735 2.29 6.319 6.319 0 0 0-.56 5.835c.308.755.76 1.441 1.329 2.019a6.095 6.095 0 0 0 1.987 1.346c.743.31 1.539.47 2.342.466zm0-10.086a3.75 3.75 0 0 1 2.104.664 3.856 3.856 0 0 1 1.39 1.742c.283.707.355 1.485.206 2.234a3.893 3.893 0 0 1-1.045 1.975 3.777 3.777 0 0 1-1.946 1.053 3.733 3.733 0 0 1-2.191-.224 3.816 3.816 0 0 1-1.701-1.426 3.922 3.922 0 0 1-.348-3.634c.193-.471.475-.899.83-1.258.355-.36.776-.645 1.24-.838.464-.193.96-.29 1.46-.288z" fill="#000"/><path d="M79.299 31.782h7.506c.61 0 1.196-.247 1.628-.687.431-.44.674-1.036.674-1.658v-7.694c0-.622-.243-1.218-.674-1.658a2.281 2.281 0 0 0-1.628-.687h-7.506c-.61 0-1.196.247-1.628.687a2.368 2.368 0 0 0-.674 1.658v7.647a2.351 2.351 0 0 0 .658 1.689c.214.223.47.4.752.52.282.121.586.183.892.183zm7.506-10.086v7.694h-7.552v-7.647l7.552-.047zM25.355 12.478a6.044 6.044 0 0 0 3.403-1.051 6.215 6.215 0 0 0 2.255-2.8 6.348 6.348 0 0 0 .349-3.605 6.276 6.276 0 0 0-1.676-3.195A6.09 6.09 0 0 0 26.55.12a6.02 6.02 0 0 0-3.538.355 6.15 6.15 0 0 0-2.749 2.298 6.322 6.322 0 0 0-1.032 3.466c0 1.655.645 3.242 1.794 4.412a6.068 6.068 0 0 0 4.33 1.827zm0-10.109c.757 0 1.497.229 2.126.658a3.88 3.88 0 0 1 1.407 1.751c.289.713.363 1.497.214 2.253a3.917 3.917 0 0 1-1.053 1.993 3.8 3.8 0 0 1-1.962 1.06 3.757 3.757 0 0 1-2.21-.23 3.84 3.84 0 0 1-1.71-1.445 3.947 3.947 0 0 1-.634-2.17c0-.51.1-1.015.292-1.486.192-.471.474-.9.829-1.259.355-.36.777-.644 1.24-.837.464-.193.96-.291 1.461-.288z" fill="#000"/><path d="M21.602 12.478h7.506a2.28 2.28 0 0 0 1.628-.687c.432-.44.674-1.036.674-1.658V2.369c0-.622-.242-1.219-.674-1.659a2.28 2.28 0 0 0-1.628-.687h-7.506c-.61 0-1.196.248-1.628.687A2.368 2.368 0 0 0 19.3 2.37v7.693a2.385 2.385 0 0 0 .65 1.705 2.267 2.267 0 0 0 1.653.712zM29.108 2.37v7.693h-7.552V2.37h7.552zM82.983 12.478a6.044 6.044 0 0 0 3.402-1.051 6.215 6.215 0 0 0 2.256-2.8 6.348 6.348 0 0 0 .348-3.605 6.277 6.277 0 0 0-1.676-3.195A6.09 6.09 0 0 0 84.177.12a6.02 6.02 0 0 0-3.538.355 6.15 6.15 0 0 0-2.748 2.298 6.322 6.322 0 0 0-1.033 3.466 6.3 6.3 0 0 0 1.794 4.412 6.067 6.067 0 0 0 4.33 1.827zm0-10.109c.757 0 1.496.229 2.125.658a3.88 3.88 0 0 1 1.408 1.751c.288.713.363 1.497.213 2.253a3.917 3.917 0 0 1-1.052 1.993 3.8 3.8 0 0 1-1.963 1.06 3.757 3.757 0 0 1-2.21-.23 3.838 3.838 0 0 1-1.71-1.445 3.946 3.946 0 0 1-.633-2.17c0-.51.099-1.015.291-1.486.192-.471.474-.9.83-1.259.355-.36.776-.644 1.24-.837.463-.193.96-.291 1.46-.288zM100.711 1.196h2.302v10.11h-2.302V1.196z" fill="#000"/><path d="M96.889 5.066h9.923v2.346h-9.923V5.066zM119.889 20.523h2.303v10.11h-2.303v-10.11z" fill="#000"/><path d="M116.068 24.394h9.923v2.345h-9.923v-2.345zM59.683 31.782h7.437c.61 0 1.196-.247 1.628-.687.432-.44.674-1.036.674-1.658V21.79c0-.622-.242-1.218-.674-1.658a2.281 2.281 0 0 0-1.628-.687h-7.437a2.28 2.28 0 0 0-1.628.687 2.368 2.368 0 0 0-.674 1.658v7.553a2.386 2.386 0 0 0 .64 1.72c.216.227.474.409.76.532.285.124.592.188.902.187zm7.437-10.085v7.646H59.59V21.79l7.529-.093zM44.534 12.478a6.044 6.044 0 0 0 3.402-1.051 6.214 6.214 0 0 0 2.256-2.8 6.347 6.347 0 0 0 .348-3.605 6.276 6.276 0 0 0-1.676-3.195A6.09 6.09 0 0 0 45.728.12a6.02 6.02 0 0 0-3.538.355 6.15 6.15 0 0 0-2.748 2.298 6.322 6.322 0 0 0-1.033 3.466c0 1.655.646 3.242 1.794 4.412a6.067 6.067 0 0 0 4.33 1.827zm0-10.109c.756 0 1.496.229 2.125.658a3.88 3.88 0 0 1 1.408 1.751c.288.713.363 1.497.213 2.253a3.917 3.917 0 0 1-1.052 1.993 3.8 3.8 0 0 1-1.963 1.06 3.757 3.757 0 0 1-2.21-.23 3.839 3.839 0 0 1-1.71-1.445 3.946 3.946 0 0 1-.633-2.17c0-.51.099-1.015.291-1.486.192-.471.474-.9.83-1.259.355-.36.776-.644 1.24-.837.463-.193.96-.291 1.46-.288zM6.476 12.478a6.044 6.044 0 0 0 3.402-1.051 6.215 6.215 0 0 0 2.256-2.8 6.348 6.348 0 0 0 .348-3.605 6.277 6.277 0 0 0-1.676-3.195A6.09 6.09 0 0 0 7.671.12a6.02 6.02 0 0 0-3.539.355 6.15 6.15 0 0 0-2.748 2.298A6.323 6.323 0 0 0 .352 6.239c0 1.655.645 3.242 1.793 4.412a6.067 6.067 0 0 0 4.33 1.827zm0-10.109c.757 0 1.497.229 2.126.658a3.88 3.88 0 0 1 1.407 1.751 3.96 3.96 0 0 1 .213 2.253A3.916 3.916 0 0 1 9.17 9.024a3.8 3.8 0 0 1-1.963 1.06 3.757 3.757 0 0 1-2.21-.23 3.84 3.84 0 0 1-1.71-1.445 3.946 3.946 0 0 1-.633-2.17c0-.51.099-1.015.291-1.486.193-.471.475-.9.83-1.259.355-.36.776-.644 1.24-.837.464-.193.96-.291 1.46-.288zM62.262 1.196h2.302v10.11h-2.302V1.196z" fill="#000"/><path d="M58.44 5.066h9.923v2.346H58.44V5.066zM43.383 20.523h2.302v10.11h-2.303v-10.11z" fill="#000"/><path d="M39.56 24.394h9.924v2.345H39.56v-2.345z" fill="#000"/></svg>