<svg width="45" height="45" viewBox="0 0 45 45" fill="none" xmlns="http://www.w3.org/2000/svg"><path d="M19.494 35.244c-.435.615-.847.919-1.24.919-.263 0-.413-.154-.46-.46-.019-.062-.019-.302-.019-.762v-7.975h-1.961v8.565c0 .766.065 1.282.173 1.61.196.55.632.806 1.264.806.721 0 1.463-.436 2.242-1.33v1.181h1.965V26.967h-1.964v8.277zM8.686 25.308h2.308v12.49h2.183v-12.49h2.351V23.26H8.686v2.047zM22.05 15.837c.64 0 .946-.506.946-1.519V9.713c0-1.012-.306-1.516-.945-1.516-.64 0-.947.504-.947 1.516v4.605c0 1.013.307 1.52.947 1.52zM27.146 26.834c-.721 0-1.393.395-2.027 1.175v-4.748h-1.963v14.537h1.963v-1.051c.655.812 1.33 1.2 2.027 1.2.782 0 1.307-.411 1.57-1.217.13-.46.197-1.18.197-2.182v-4.314c0-1.025-.067-1.74-.197-2.177-.264-.811-.788-1.223-1.57-1.223zm-.195 7.867c0 .978-.288 1.46-.854 1.46-.323 0-.65-.153-.978-.481v-6.602c.328-.324.655-.477.978-.477.566 0 .854.5.854 1.478V34.7zM33.397 26.834c-1.001 0-1.784.37-2.35 1.112-.418.547-.607 1.393-.607 2.55v3.795c0 1.15.214 2.005.63 2.546.568.74 1.349 1.11 2.376 1.11 1.025 0 1.83-.389 2.373-1.174a2.82 2.82 0 0 0 .459-1.177c.017-.196.041-.633.041-1.264v-.288h-2.003c0 .788-.024 1.224-.042 1.33-.112.525-.395.787-.877.787-.674 0-1.001-.5-1.001-1.502v-1.92h3.924v-2.244c0-1.157-.197-2.003-.607-2.55-.55-.742-1.331-1.11-2.316-1.11zm.96 4.272h-1.961v-1.002c0-1.001.327-1.503.983-1.503.65 0 .979.502.979 1.503v1.002z" fill="#000"/><path d="M40.625 0H4.375A4.388 4.388 0 0 0 0 4.375v36.25A4.388 4.388 0 0 0 4.375 45h36.25A4.388 4.388 0 0 0 45 40.625V4.375A4.388 4.388 0 0 0 40.625 0zM26.613 6.544h1.976V14.6c0 .466 0 .708.025.772.043.308.198.465.465.465.396 0 .813-.308 1.252-.93V6.545h1.984v10.944h-1.984v-1.194c-.79.905-1.542 1.345-2.265 1.345-.64 0-1.08-.259-1.278-.814-.11-.33-.175-.855-.175-1.627V6.543zM19.12 10.11c0-1.17.199-2.025.62-2.578.55-.747 1.322-1.122 2.31-1.122.993 0 1.765.375 2.314 1.122.415.553.616 1.409.616 2.578v3.835c0 1.162-.2 2.025-.616 2.574-.55.746-1.32 1.12-2.314 1.12-.988 0-1.761-.374-2.31-1.12-.421-.55-.62-1.412-.62-2.574V10.11zm-5.304-7.31l1.562 5.767 1.5-5.767h2.223l-2.645 8.739v5.948h-2.2V11.54c-.199-1.055-.639-2.599-1.344-4.647-.464-1.362-.947-2.731-1.41-4.092h2.314zM38.17 38.45c-.397 1.727-1.81 3-3.51 3.19-4.028.45-8.104.452-12.161.45-4.058.002-8.134 0-12.16-.45-1.701-.19-3.112-1.464-3.51-3.19-.565-2.46-.565-5.145-.565-7.676 0-2.534.006-5.217.573-7.678.396-1.726 1.808-3 3.508-3.19 4.027-.45 8.103-.452 12.16-.45 4.058-.002 8.134 0 12.161.45 1.7.19 3.113 1.464 3.51 3.19.566 2.461.562 5.144.562 7.678.001 2.53-.002 5.216-.568 7.676z" fill="#000"/></svg>